<svg height="14" viewBox="0 0 15 14" width="15" xmlns="http://www.w3.org/2000/svg"><path d="m6.0890411.95570776.70958904-.70958904c.30045662-.30045662.78630137-.30045662 1.08356164 0l6.21369862 6.21050228c.3004566.30045663.3004566.78630137 0 1.08356165l-6.21369862 6.21369865c-.30045662.3004566-.78630137.3004566-1.08356164 0l-.70958904-.7095891c-.30365297-.3036529-.29726028-.7990867.01278538-1.096347l3.85159818-3.66940639h-9.18630137c-.42511416 0-.76712329-.34200913-.76712329-.76712328v-1.02283106c0-.42511415.34200913-.76712328.76712329-.76712328h9.18630137l-3.85159818-3.6694064c-.31324201-.29726027-.3196347-.79269406-.01278538-1.09634703z" fill="#fff"/></svg>