<svg xmlns="http://www.w3.org/2000/svg" xmlns:xlink="http://www.w3.org/1999/xlink" viewBox="0 0 967 854.2"><defs><linearGradient id="linear-gradient" x1="73.18" y1="453.1" x2="773.86" y2="453.1" gradientUnits="userSpaceOnUse"><stop offset="0" stop-color="#83d0f2"/><stop offset="1" stop-color="#8384f2"/></linearGradient><linearGradient id="linear-gradient-2" x1="799.85" y1="419.19" x2="967" y2="419.19" gradientUnits="userSpaceOnUse"><stop offset="0" stop-color="#8384f2"/><stop offset="1" stop-color="#8384f2"/></linearGradient></defs><title>hero_graphic_final</title><g id="Layer_2" data-name="Layer 2"><g id="Layer_1-2" data-name="Layer 1"><rect y="81.6" width="717" height="409" rx="7.5" style="fill:#333"/><circle cx="62.1" cy="136.6" r="23" style="fill:#fff;stroke:#333;stroke-miterlimit:10;stroke-width:6.13333320617676px"/><circle cx="115.77" cy="136.6" r="23" style="fill:#fff;stroke:#333;stroke-miterlimit:10;stroke-width:6.13333320617676px"/><circle cx="167.9" cy="136.6" r="23" style="fill:#fff;stroke:#333;stroke-miterlimit:10;stroke-width:6.13333320617676px"/><rect x="73.18" y="197.6" width="700.68" height="511" rx="8" style="fill:url(#linear-gradient)"/><path d="M785.87,693.44H101.18A12.85,12.85,0,0,1,88.34,680.6v-495a12.86,12.86,0,0,1,12.84-12.85H785.87a12.86,12.86,0,0,1,12.84,12.85v495A12.85,12.85,0,0,1,785.87,693.44Zm-684.69-511A3.16,3.16,0,0,0,98,185.6v495a3.15,3.15,0,0,0,3.15,3.15H785.87A3.15,3.15,0,0,0,789,680.6v-495a3.16,3.16,0,0,0-3.15-3.16Z" style="fill:#333"/><circle cx="682" cy="263.6" r="3.6" style="fill:#333"/><circle cx="706" cy="263.6" r="3.6" style="fill:#333"/><circle cx="682" cy="239.6" r="3.6" style="fill:#333"/><circle cx="706" cy="239.6" r="3.6" style="fill:#333"/><circle cx="694" cy="251.6" r="3.6" style="fill:#333"/><circle cx="670" cy="251.6" r="3.6" style="fill:#333"/><circle cx="670" cy="227.6" r="3.6" style="fill:#333"/><circle cx="658" cy="263.6" r="3.6" style="fill:#333"/><circle cx="658" cy="239.6" r="3.6" style="fill:#333"/><circle cx="682" cy="215.6" r="3.6" style="fill:#333"/><circle cx="706" cy="215.6" r="3.6" style="fill:#333"/><circle cx="658" cy="215.6" r="3.6" style="fill:#333"/><circle cx="658" cy="263.6" r="3.6" style="fill:#333"/><circle cx="634" cy="239.6" r="3.6" style="fill:#333"/><circle cx="658" cy="239.6" r="3.6" style="fill:#333"/><circle cx="646" cy="251.6" r="3.6" style="fill:#333"/><circle cx="622" cy="251.6" r="3.6" style="fill:#333"/><circle cx="646" cy="227.6" r="3.6" style="fill:#333"/><circle cx="622" cy="227.6" r="3.6" style="fill:#333"/><circle cx="610" cy="239.6" r="3.6" style="fill:#333"/><circle cx="634" cy="215.6" r="3.6" style="fill:#333"/><circle cx="658" cy="215.6" r="3.6" style="fill:#333"/><circle cx="610" cy="215.6" r="3.6" style="fill:#333"/><circle cx="585" cy="239.6" r="3.6" style="fill:#333"/><circle cx="609" cy="239.6" r="3.6" style="fill:#333"/><circle cx="597" cy="251.6" r="3.6" style="fill:#333"/><circle cx="573" cy="251.6" r="3.6" style="fill:#333"/><circle cx="597" cy="227.6" r="3.6" style="fill:#333"/><circle cx="573" cy="227.6" r="3.6" style="fill:#333"/><circle cx="561" cy="239.6" r="3.6" style="fill:#333"/><circle cx="585" cy="215.6" r="3.6" style="fill:#333"/><circle cx="609" cy="215.6" r="3.6" style="fill:#333"/><circle cx="561" cy="215.6" r="3.6" style="fill:#333"/><circle cx="537" cy="239.6" r="3.6" style="fill:#333"/><circle cx="561" cy="239.6" r="3.6" style="fill:#333"/><circle cx="549" cy="251.6" r="3.6" style="fill:#333"/><circle cx="525" cy="251.6" r="3.6" style="fill:#333"/><circle cx="549" cy="227.6" r="3.6" style="fill:#333"/><circle cx="525" cy="227.6" r="3.6" style="fill:#333"/><circle cx="513" cy="239.6" r="3.6" style="fill:#333"/><circle cx="537" cy="215.6" r="3.6" style="fill:#333"/><circle cx="561" cy="215.6" r="3.6" style="fill:#333"/><circle cx="513" cy="215.6" r="3.6" style="fill:#333"/><circle cx="489" cy="263.6" r="3.6" style="fill:#333"/><circle cx="489" cy="239.6" r="3.6" style="fill:#333"/><circle cx="513" cy="239.6" r="3.6" style="fill:#333"/><circle cx="501" cy="251.6" r="3.6" style="fill:#333"/><circle cx="477" cy="251.6" r="3.6" style="fill:#333"/><circle cx="501" cy="227.6" r="3.6" style="fill:#333"/><circle cx="477" cy="227.6" r="3.6" style="fill:#333"/><circle cx="465" cy="263.6" r="3.6" style="fill:#333"/><circle cx="465" cy="239.6" r="3.6" style="fill:#333"/><circle cx="489" cy="215.6" r="3.6" style="fill:#333"/><circle cx="513" cy="215.6" r="3.6" style="fill:#333"/><circle cx="465" cy="215.6" r="3.6" style="fill:#333"/><circle cx="441" cy="263.6" r="3.6" style="fill:#333"/><circle cx="465" cy="263.6" r="3.6" style="fill:#333"/><circle cx="441" cy="239.6" r="3.6" style="fill:#333"/><circle cx="465" cy="239.6" r="3.6" style="fill:#333"/><circle cx="453" cy="251.6" r="3.6" style="fill:#333"/><circle cx="429" cy="251.6" r="3.6" style="fill:#333"/><circle cx="453" cy="227.6" r="3.6" style="fill:#333"/><circle cx="429" cy="227.6" r="3.6" style="fill:#333"/><circle cx="417" cy="263.6" r="3.6" style="fill:#333"/><circle cx="417" cy="239.6" r="3.6" style="fill:#333"/><circle cx="441" cy="215.6" r="3.6" style="fill:#333"/><circle cx="465" cy="215.6" r="3.6" style="fill:#333"/><circle cx="417" cy="215.6" r="3.6" style="fill:#333"/><circle cx="392" cy="263.6" r="3.6" style="fill:#333"/><circle cx="416" cy="263.6" r="3.6" style="fill:#333"/><circle cx="392" cy="239.6" r="3.6" style="fill:#333"/><circle cx="416" cy="239.6" r="3.6" style="fill:#333"/><circle cx="404" cy="251.6" r="3.6" style="fill:#333"/><circle cx="380" cy="251.6" r="3.6" style="fill:#333"/><circle cx="404" cy="227.6" r="3.6" style="fill:#333"/><circle cx="380" cy="227.6" r="3.6" style="fill:#333"/><circle cx="368" cy="263.6" r="3.6" style="fill:#333"/><circle cx="368" cy="239.6" r="3.6" style="fill:#333"/><circle cx="392" cy="215.6" r="3.6" style="fill:#333"/><circle cx="416" cy="215.6" r="3.6" style="fill:#333"/><circle cx="368" cy="215.6" r="3.6" style="fill:#333"/><circle cx="222" cy="323.6" r="3.6" style="fill:#333"/><circle cx="246" cy="323.6" r="3.6" style="fill:#333"/><circle cx="222" cy="299.6" r="3.6" style="fill:#333"/><circle cx="246" cy="299.6" r="3.6" style="fill:#333"/><circle cx="234" cy="311.6" r="3.6" style="fill:#333"/><circle cx="210" cy="311.6" r="3.6" style="fill:#333"/><circle cx="234" cy="287.6" r="3.6" style="fill:#333"/><circle cx="210" cy="287.6" r="3.6" style="fill:#333"/><circle cx="198" cy="323.6" r="3.6" style="fill:#333"/><circle cx="198" cy="299.6" r="3.6" style="fill:#333"/><circle cx="222" cy="275.6" r="3.6" style="fill:#333"/><circle cx="246" cy="275.6" r="3.6" style="fill:#333"/><circle cx="198" cy="275.6" r="3.6" style="fill:#333"/><circle cx="246" cy="371.6" r="3.6" style="fill:#333"/><circle cx="246" cy="347.6" r="3.6" style="fill:#333"/><circle cx="234" cy="359.6" r="3.6" style="fill:#333"/><circle cx="210" cy="359.6" r="3.6" style="fill:#333"/><circle cx="234" cy="335.6" r="3.6" style="fill:#333"/><circle cx="210" cy="335.6" r="3.6" style="fill:#333"/><circle cx="198" cy="371.6" r="3.6" style="fill:#333"/><circle cx="198" cy="347.6" r="3.6" style="fill:#333"/><circle cx="222" cy="323.6" r="3.6" style="fill:#333"/><circle cx="246" cy="323.6" r="3.6" style="fill:#333"/><circle cx="198" cy="323.6" r="3.6" style="fill:#333"/><circle cx="246" cy="419.6" r="3.6" style="fill:#333"/><circle cx="246" cy="395.6" r="3.6" style="fill:#333"/><circle cx="234" cy="407.6" r="3.6" style="fill:#333"/><circle cx="210" cy="407.6" r="3.6" style="fill:#333"/><circle cx="234" cy="383.6" r="3.6" style="fill:#333"/><circle cx="210" cy="383.6" r="3.6" style="fill:#333"/><circle cx="198" cy="419.6" r="3.6" style="fill:#333"/><circle cx="198" cy="395.6" r="3.6" style="fill:#333"/><circle cx="246" cy="371.6" r="3.6" style="fill:#333"/><circle cx="198" cy="371.6" r="3.6" style="fill:#333"/><circle cx="221" cy="486.6" r="3.6" style="fill:#333"/><circle cx="245" cy="486.6" r="3.6" style="fill:#333"/><circle cx="221" cy="462.6" r="3.6" style="fill:#333"/><circle cx="245" cy="462.6" r="3.6" style="fill:#333"/><circle cx="233" cy="474.6" r="3.6" style="fill:#333"/><circle cx="209" cy="474.6" r="3.6" style="fill:#333"/><circle cx="233" cy="450.6" r="3.6" style="fill:#333"/><circle cx="209" cy="450.6" r="3.6" style="fill:#333"/><circle cx="197" cy="486.6" r="3.6" style="fill:#333"/><circle cx="197" cy="462.6" r="3.6" style="fill:#333"/><circle cx="221" cy="438.6" r="3.6" style="fill:#333"/><circle cx="245" cy="438.6" r="3.6" style="fill:#333"/><circle cx="197" cy="438.6" r="3.6" style="fill:#333"/><circle cx="221" cy="533.6" r="3.6" style="fill:#333"/><circle cx="245" cy="533.6" r="3.6" style="fill:#333"/><circle cx="221" cy="509.6" r="3.6" style="fill:#333"/><circle cx="245" cy="509.6" r="3.6" style="fill:#333"/><circle cx="233" cy="521.6" r="3.6" style="fill:#333"/><circle cx="209" cy="521.6" r="3.6" style="fill:#333"/><circle cx="233" cy="497.6" r="3.6" style="fill:#333"/><circle cx="209" cy="497.6" r="3.6" style="fill:#333"/><circle cx="197" cy="533.6" r="3.6" style="fill:#333"/><circle cx="197" cy="509.6" r="3.6" style="fill:#333"/><circle cx="221" cy="485.6" r="3.6" style="fill:#333"/><circle cx="245" cy="485.6" r="3.6" style="fill:#333"/><circle cx="197" cy="485.6" r="3.6" style="fill:#333"/><circle cx="352" cy="652.6" r="3.6" style="fill:#333"/><circle cx="328" cy="652.6" r="3.6" style="fill:#333"/><circle cx="328" cy="676.6" r="3.6" style="fill:#333"/><circle cx="340" cy="664.6" r="3.6" style="fill:#333"/><circle cx="340" cy="688.6" r="3.6" style="fill:#333"/><circle cx="364" cy="688.6" r="3.6" style="fill:#333"/><circle cx="376" cy="652.6" r="3.6" style="fill:#333"/><circle cx="376" cy="676.6" r="3.6" style="fill:#333"/><circle cx="352" cy="700.6" r="3.6" style="fill:#333"/><circle cx="376" cy="700.6" r="3.6" style="fill:#333"/><circle cx="424" cy="652.6" r="3.6" style="fill:#333"/><circle cx="424" cy="676.6" r="3.6" style="fill:#333"/><circle cx="400" cy="700.6" r="3.6" style="fill:#333"/><circle cx="376" cy="700.6" r="3.6" style="fill:#333"/><circle cx="424" cy="700.6" r="3.6" style="fill:#333"/><circle cx="448" cy="652.6" r="3.6" style="fill:#333"/><circle cx="424" cy="652.6" r="3.6" style="fill:#333"/><circle cx="448" cy="676.6" r="3.6" style="fill:#333"/><circle cx="424" cy="676.6" r="3.6" style="fill:#333"/><circle cx="436" cy="664.6" r="3.6" style="fill:#333"/><circle cx="460" cy="664.6" r="3.6" style="fill:#333"/><circle cx="436" cy="688.6" r="3.6" style="fill:#333"/><circle cx="460" cy="688.6" r="3.6" style="fill:#333"/><circle cx="472" cy="652.6" r="3.6" style="fill:#333"/><circle cx="472" cy="676.6" r="3.6" style="fill:#333"/><circle cx="448" cy="700.6" r="3.6" style="fill:#333"/><circle cx="424" cy="700.6" r="3.6" style="fill:#333"/><circle cx="472" cy="700.6" r="3.6" style="fill:#333"/><circle cx="471" cy="729.6" r="3.6" style="fill:#333"/><circle cx="447" cy="729.6" r="3.6" style="fill:#333"/><circle cx="471" cy="753.6" r="3.6" style="fill:#333"/><circle cx="459" cy="741.6" r="3.6" style="fill:#333"/><circle cx="459" cy="765.6" r="3.6" style="fill:#333"/><circle cx="483" cy="765.6" r="3.6" style="fill:#333"/><circle cx="495" cy="729.6" r="3.6" style="fill:#333"/><circle cx="495" cy="753.6" r="3.6" style="fill:#333"/><circle cx="471" cy="777.6" r="3.6" style="fill:#333"/><circle cx="447" cy="777.6" r="3.6" style="fill:#333"/><circle cx="754" cy="85.6" r="3.6" style="fill:#333"/><circle cx="730" cy="85.6" r="3.6" style="fill:#333"/><circle cx="742" cy="97.6" r="3.6" style="fill:#333"/><circle cx="766" cy="97.6" r="3.6" style="fill:#333"/><circle cx="754" cy="109.6" r="3.6" style="fill:#333"/><circle cx="730" cy="109.6" r="3.6" style="fill:#333"/><circle cx="688.4" cy="113.6" r="3.6" style="fill:#fff"/><circle cx="700.4" cy="125.6" r="3.6" style="fill:#fff"/><circle cx="688.4" cy="137.6" r="3.6" style="fill:#fff"/><circle cx="664.4" cy="137.6" r="3.6" style="fill:#fff"/><circle cx="495" cy="777.6" r="3.6" style="fill:#333"/><circle cx="519" cy="729.6" r="3.6" style="fill:#333"/><circle cx="495" cy="729.6" r="3.6" style="fill:#333"/><circle cx="519" cy="753.6" r="3.6" style="fill:#333"/><circle cx="495" cy="753.6" r="3.6" style="fill:#333"/><circle cx="507" cy="741.6" r="3.6" style="fill:#333"/><circle cx="531" cy="741.6" r="3.6" style="fill:#333"/><circle cx="507" cy="765.6" r="3.6" style="fill:#333"/><circle cx="531" cy="765.6" r="3.6" style="fill:#333"/><circle cx="543" cy="729.6" r="3.6" style="fill:#333"/><circle cx="543" cy="753.6" r="3.6" style="fill:#333"/><circle cx="519" cy="777.6" r="3.6" style="fill:#333"/><circle cx="495" cy="777.6" r="3.6" style="fill:#333"/><circle cx="567" cy="729.6" r="3.6" style="fill:#333"/><circle cx="543" cy="729.6" r="3.6" style="fill:#333"/><circle cx="567" cy="753.6" r="3.6" style="fill:#333"/><circle cx="543" cy="753.6" r="3.6" style="fill:#333"/><circle cx="555" cy="741.6" r="3.6" style="fill:#333"/><circle cx="555" cy="765.6" r="3.6" style="fill:#333"/><circle cx="579" cy="765.6" r="3.6" style="fill:#333"/><circle cx="591" cy="729.6" r="3.6" style="fill:#333"/><circle cx="591" cy="753.6" r="3.6" style="fill:#333"/><circle cx="567" cy="777.6" r="3.6" style="fill:#333"/><circle cx="591" cy="777.6" r="3.6" style="fill:#333"/><circle cx="615" cy="729.6" r="3.6" style="fill:#333"/><circle cx="591" cy="729.6" r="3.6" style="fill:#333"/><circle cx="615" cy="753.6" r="3.6" style="fill:#333"/><circle cx="591" cy="753.6" r="3.6" style="fill:#333"/><circle cx="603" cy="741.6" r="3.6" style="fill:#333"/><circle cx="627" cy="741.6" r="3.6" style="fill:#333"/><circle cx="603" cy="765.6" r="3.6" style="fill:#333"/><circle cx="639" cy="729.6" r="3.6" style="fill:#333"/><circle cx="639" cy="753.6" r="3.6" style="fill:#333"/><circle cx="615" cy="777.6" r="3.6" style="fill:#333"/><circle cx="591" cy="777.6" r="3.6" style="fill:#333"/><circle cx="639" cy="777.6" r="3.6" style="fill:#333"/><circle cx="664" cy="729.6" r="3.6" style="fill:#333"/><circle cx="640" cy="729.6" r="3.6" style="fill:#333"/><circle cx="664" cy="753.6" r="3.6" style="fill:#333"/><circle cx="640" cy="753.6" r="3.6" style="fill:#333"/><circle cx="652" cy="741.6" r="3.6" style="fill:#333"/><circle cx="652" cy="765.6" r="3.6" style="fill:#333"/><circle cx="676" cy="765.6" r="3.6" style="fill:#333"/><circle cx="688" cy="729.6" r="3.6" style="fill:#333"/><circle cx="688" cy="753.6" r="3.6" style="fill:#333"/><circle cx="664" cy="777.6" r="3.6" style="fill:#333"/><circle cx="640" cy="777.6" r="3.6" style="fill:#333"/><circle cx="834" cy="592.6" r="3.6" style="fill:#333"/><circle cx="810" cy="592.6" r="3.6" style="fill:#333"/><circle cx="834" cy="616.6" r="3.6" style="fill:#333"/><circle cx="810" cy="616.6" r="3.6" style="fill:#333"/><circle cx="822" cy="604.6" r="3.6" style="fill:#333"/><circle cx="846" cy="604.6" r="3.6" style="fill:#333"/><circle cx="822" cy="628.6" r="3.6" style="fill:#333"/><circle cx="846" cy="628.6" r="3.6" style="fill:#333"/><circle cx="858" cy="592.6" r="3.6" style="fill:#333"/><circle cx="858" cy="616.6" r="3.6" style="fill:#333"/><circle cx="834" cy="640.6" r="3.6" style="fill:#333"/><circle cx="810" cy="640.6" r="3.6" style="fill:#333"/><circle cx="858" cy="640.6" r="3.6" style="fill:#333"/><circle cx="834" cy="544.6" r="3.6" style="fill:#333"/><circle cx="810" cy="544.6" r="3.6" style="fill:#333"/><circle cx="834" cy="568.6" r="3.6" style="fill:#333"/><circle cx="810" cy="568.6" r="3.6" style="fill:#333"/><circle cx="822" cy="556.6" r="3.6" style="fill:#333"/><circle cx="846" cy="556.6" r="3.6" style="fill:#333"/><circle cx="822" cy="580.6" r="3.6" style="fill:#333"/><circle cx="846" cy="580.6" r="3.6" style="fill:#333"/><circle cx="858" cy="544.6" r="3.6" style="fill:#333"/><circle cx="858" cy="568.6" r="3.6" style="fill:#333"/><circle cx="834" cy="592.6" r="3.6" style="fill:#333"/><circle cx="810" cy="592.6" r="3.6" style="fill:#333"/><circle cx="858" cy="592.6" r="3.6" style="fill:#333"/><circle cx="835" cy="477.6" r="3.6" style="fill:#333"/><circle cx="811" cy="477.6" r="3.6" style="fill:#333"/><circle cx="835" cy="501.6" r="3.6" style="fill:#333"/><circle cx="811" cy="501.6" r="3.6" style="fill:#333"/><circle cx="823" cy="489.6" r="3.6" style="fill:#333"/><circle cx="847" cy="489.6" r="3.6" style="fill:#333"/><circle cx="823" cy="513.6" r="3.6" style="fill:#333"/><circle cx="847" cy="513.6" r="3.6" style="fill:#333"/><circle cx="859" cy="477.6" r="3.6" style="fill:#333"/><circle cx="859" cy="501.6" r="3.6" style="fill:#333"/><circle cx="835" cy="525.6" r="3.6" style="fill:#333"/><circle cx="811" cy="525.6" r="3.6" style="fill:#333"/><circle cx="859" cy="525.6" r="3.6" style="fill:#333"/><circle cx="835" cy="430.6" r="3.6" style="fill:#333"/><circle cx="811" cy="430.6" r="3.6" style="fill:#333"/><circle cx="835" cy="454.6" r="3.6" style="fill:#333"/><circle cx="811" cy="454.6" r="3.6" style="fill:#333"/><circle cx="823" cy="442.6" r="3.6" style="fill:#333"/><circle cx="847" cy="442.6" r="3.6" style="fill:#333"/><circle cx="823" cy="466.6" r="3.6" style="fill:#333"/><circle cx="847" cy="466.6" r="3.6" style="fill:#333"/><circle cx="859" cy="430.6" r="3.6" style="fill:#333"/><circle cx="859" cy="454.6" r="3.6" style="fill:#333"/><circle cx="835" cy="478.6" r="3.6" style="fill:#333"/><circle cx="811" cy="478.6" r="3.6" style="fill:#333"/><circle cx="859" cy="478.6" r="3.6" style="fill:#333"/><circle cx="295" cy="802.6" r="3.6" style="fill:#333"/><circle cx="295" cy="826.6" r="3.6" style="fill:#333"/><circle cx="271" cy="826.6" r="3.6" style="fill:#333"/><circle cx="283" cy="814.6" r="3.6" style="fill:#333"/><circle cx="307" cy="814.6" r="3.6" style="fill:#333"/><circle cx="307" cy="838.6" r="3.6" style="fill:#333"/><circle cx="319" cy="802.6" r="3.6" style="fill:#333"/><circle cx="295" cy="850.6" r="3.6" style="fill:#333"/><circle cx="226" cy="3.6" r="3.6" style="fill:#333"/><circle cx="226" cy="27.6" r="3.6" style="fill:#333"/><circle cx="238" cy="15.6" r="3.6" style="fill:#333"/><circle cx="250" cy="3.6" r="3.6" style="fill:#333"/><circle cx="250" cy="27.6" r="3.6" style="fill:#333"/><circle cx="202" cy="51.6" r="3.6" style="fill:#333"/><circle cx="250" cy="51.6" r="3.6" style="fill:#333"/><path d="M798.71,363.59c-29.17-25.89-60.69-47.51-92.6-63.38-44.35-22.06-89-33.21-132.88-33.21q-6.57,0-13.13.33c-2.6.13-5.22.31-7.78.51-52.86,4.25-105.86,25.91-162,66.2a468.15,468.15,0,0,0-57.08,48.34c-2.32,2.31-4.69,4.71-7,7.14C266.84,451,208.27,479.88,169.58,493.31c-41.94,14.57-70.25,14.62-70.5,14.6l-.17,21.15c1.26,0,31.42.1,76.5-15.38,41.14-14.13,103.33-44.59,166-109.47,2.24-2.32,4.5-4.62,6.72-6.83a447.42,447.42,0,0,1,54.5-46.15c53-38,102.49-58.37,151.4-62.3,2.37-.19,4.78-.35,7.17-.47,44.44-2.28,90,8.05,135.51,30.68,35.43,17.63,70.43,42.79,102,73.26" style="fill:#fff"/><path d="M650.33,622.38V321a191.37,191.37,0,0,0-21.15-10.42V632.79A193,193,0,0,0,650.33,622.38Z" style="fill:#fff"/><path d="M573.24,644.6a133.76,133.76,0,0,0,13.82-.75V299.47a133.76,133.76,0,0,0-13.82-.75c-2.44,0-4.89.1-7.33.24V644.37C568.35,644.5,570.8,644.6,573.24,644.6Z" style="fill:#fff"/><path d="M523.78,634.93V308.39a170.47,170.47,0,0,0-21.15,10.25v306A169.07,169.07,0,0,0,523.78,634.93Z" style="fill:#fff"/><path d="M713.61,572.09V371.24q-10.53-10.8-21.15-20V592.12Q703.08,582.9,713.61,572.09Z" style="fill:#fff"/><path d="M460.51,593.83V349.5Q450,358.86,439.36,370v203.3Q450,584.46,460.51,593.83Z" style="fill:#fff"/><path d="M266.8,367.81v60.48q10.44-7.92,21.15-17.14V385Q277.26,375.73,266.8,367.81Z" style="fill:#fff"/><path d="M397.23,457.68V400.42C390,406,383,414.75,376.08,420.78v19.54Q386.4,449.35,397.23,457.68Z" style="fill:#fff"/><path d="M203.52,328.48V467.61c6.79-3.33,13.85-7.07,21.16-11.28V339.77C217.37,335.56,210.31,331.82,203.52,328.48Z" style="fill:#fff"/><path d="M140.25,305.08V491c6.46-1.6,13.54-3.6,21.15-6.11V311.19C153.79,308.68,146.71,306.68,140.25,305.08Z" style="fill:#fff"/><path d="M967,509.68c-40.94-15.28-99-45.85-157.48-106.47-3.22-3.34-6.37-6.62-9.67-9.84V364.5q12.78,11.49,24.89,24C877.15,442.8,929,471.69,967,487ZM860.49,386.09V408q10.68,9.36,21.15,17.4V368.69Q871.19,376.75,860.49,386.09Zm63.28-45.88V453.89c7.28,4.27,14.36,8.1,21.15,11.5V328.71C938.13,332.11,931.05,335.94,923.77,340.21Z" style="fill:url(#linear-gradient-2)"/><path d="M739.87,730.44H55.18A12.85,12.85,0,0,1,42.34,717.6v-495a12.86,12.86,0,0,1,12.84-12.85H739.87a12.86,12.86,0,0,1,12.84,12.85v495A12.85,12.85,0,0,1,739.87,730.44Zm-684.69-511A3.16,3.16,0,0,0,52,222.6v495a3.15,3.15,0,0,0,3.15,3.15H739.87A3.15,3.15,0,0,0,743,717.6v-495a3.16,3.16,0,0,0-3.15-3.16H55.18Z" style="fill:#333"/><polygon points="743.02 720.6 789.02 683.75 795.89 688.6 747.58 727.86 743.02 720.6" style="fill:#333"/><polygon points="743.02 212.6 789.02 175.75 795.89 180.6 747.58 219.86 743.02 212.6" style="fill:#333"/><polygon points="47.02 720.6 92.02 682.75 97.89 689.6 51.58 727.86 47.02 720.6" style="fill:#333"/><path d="M88,209.75H55.18A12.86,12.86,0,0,0,42.34,222.6v268H52v-268a3.16,3.16,0,0,1,3.15-3.16H88" style="fill:#fff"/><circle cx="110" cy="746.6" r="3.6" style="fill:#333"/><circle cx="122" cy="758.6" r="3.6" style="fill:#333"/></g></g></svg>