<svg xmlns="http://www.w3.org/2000/svg" xmlns:xlink="http://www.w3.org/1999/xlink" viewBox="0 0 65.72 49.9"><defs><linearGradient id="linear-gradient" x1="5.68" y1="23.12" x2="64.09" y2="23.12" gradientUnits="userSpaceOnUse"><stop offset="0" stop-color="#83d0f2"/><stop offset="1" stop-color="#8384f2"/></linearGradient></defs><title>logo_7</title><g id="Layer_2" data-name="Layer 2"><g id="Layer_1-2" data-name="Layer 1"><rect y="6.9" width="58.42" height="43" style="fill:#333"/><rect x="5.68" y="2.03" width="58.42" height="42.19" style="fill:url(#linear-gradient)"/><path d="M65.71,16.73a36.18,36.18,0,0,0-8.79-6.25A24.9,24.9,0,0,0,45.79,7.69c-.37,0-.74,0-1.1,0l-.66,0c-4.43.36-8.87,2.17-13.58,5.55a38.35,38.35,0,0,0-4.78,4l-.59.6A33.9,33.9,0,0,1,12,26.66,19.42,19.42,0,0,1,6,27.88v1.78a21,21,0,0,0,6.41-1.29,35.65,35.65,0,0,0,13.91-9.18l.57-.57a38.09,38.09,0,0,1,4.56-3.87c4.44-3.18,8.59-4.89,12.69-5.22l.61,0a22.82,22.82,0,0,1,11.35,2.57,35.69,35.69,0,0,1,9.55,7.13Z" style="fill:#fff"/><path d="M52.25,37.48V12.21a18.07,18.07,0,0,0-1.77-.87v27A14.46,14.46,0,0,0,52.25,37.48Z" style="fill:#fff"/><path d="M45.79,39.34a11.07,11.07,0,0,0,1.15-.06V10.41a11.07,11.07,0,0,0-1.15-.06l-.62,0v29Z" style="fill:#fff"/><path d="M41.64,38.53V11.16a14.36,14.36,0,0,0-1.77.86V37.67A13.06,13.06,0,0,0,41.64,38.53Z" style="fill:#fff"/><path d="M57.55,33.26V16.43q-.88-.9-1.77-1.68V34.94Q56.66,34.17,57.55,33.26Z" style="fill:#fff"/><path d="M36.34,35.09V14.61c-.59.52-1.18,1.09-1.78,1.72v17C35.16,34,35.75,34.56,36.34,35.09Z" style="fill:#fff"/><path d="M20.1,16.14v4.07c.58-.44,1.18-.92,1.77-1.44V17.58C21.28,17.06,20.68,16.58,20.1,16.14Z" style="fill:#fff"/><path d="M31,23.16V18.77l-1.77,1.88v1.06C29.84,22.21,30.43,22.7,31,23.16Z" style="fill:#fff"/><path d="M14.8,12.85V23.51c.57-.28,1.16-.6,1.77-1V13.79C16,13.44,15.37,13.13,14.8,12.85Z" style="fill:#fff"/><path d="M9.49,10.88V25.47c.54-.13,1.14-.3,1.78-.51V11.4C10.63,11.19,10,11,9.49,10.88Z" style="fill:#fff"/><rect x="5.68" y="1.62" width="58.42" height="43" style="fill:none;stroke:#333;stroke-miterlimit:10;stroke-width:3.24528312683106px"/></g></g></svg>
