<svg height="32" viewBox="0 0 113 32" width="113" xmlns="http://www.w3.org/2000/svg"><path d="m.00377176 0h112.99622824v32h-113zm107.92887024 22.9745505c-.194245.0560355-.396034.0896568-.595937.0933925-.637428 0-.969342-.2801774-.969342-1.0870885v-6.0817184c0-3.1940229-2.549709-4.7499416-5.612377-4.7499416-2.0876685-.0466963-4.1583639.3866449-6.0536726 1.2626663l-.5469049 3.2201728 3.2248535.3399487.4620404-1.5727294c.6751448-.3137988 1.4200671-.4520197 2.1631036-.4034556 2.289457 0 2.319631 1.7053468 2.319631 3.1566659v.4370768c-.767552-.0896567-1.542649-.1307494-2.319631-.1270137-3.2248536 0-6.5817187.8087789-6.5817187 4.2512257 0 2.919449 2.3196315 4.0046697 4.3563811 4.0046697 1.9273686-.0056036 3.6850086-1.0833528 4.5449686-2.7905674.033946 1.6437077 1.452127 2.919449 3.107929 2.7905674.890136 0 1.765183-.2185384 2.551595-.6313332zm-8.6825878-.0933924c-.9504831.1176745-1.765183-.6761616-1.6595737-1.6194257 0-1.5222974 1.2767402-1.8958674 2.7005795-1.8958674.678916.0149428 1.361604.074714 2.032977.1830493-.094294 2.3067943-1.606769 3.3303759-3.0739828 3.3303759zm-9.4105375-18.81671729-6.1102489 21.35512489h3.9792053l6.1140206-21.35138919zm-8.2092325 0-6.1102488 21.35512489h3.9792052l6.1102489-21.35512489zm-12.9937082 12.41186089h4.2300272v-5.0525333h-4.2281413zm0 8.9694139h4.2300272v-5.0544011h-4.2281413zm-6.8212253-3.0632734h-4.5789148l7.8377142-8.8461359-.313056-2.1106701h-12.4090856l-.5054156 4.9124446 2.9155694.3063273.6374271-2.1723091h4.4186152l-7.7754803 8.8424002.40735 2.1106701h12.3411939l.8807056-4.9124446-3.1871359-.3063273zm-19.5848562-11.2388513c-5.1031893 0-7.5812347 3.3845436-7.5812347 7.47887 0 4.471632 3.0079775 7.1053 7.3643586 7.1053 4.514795 0 7.7735943-2.8204529 7.7735943-7.2939528-.0056576-3.9094093-2.4893606-7.2958207-7.5623758-7.2958207zm-.1018375 11.4947467c-2.1970493 0-3.3248051-1.8622461-3.3248051-4.2811114 0-2.6411393 1.2748544-4.1653046 3.3530933-4.1653046 1.9141675 0 3.4511591 1.2645342 3.4511591 4.1017978 0 2.6859677-1.3766919 4.3464861-3.4813332 4.3464861zm-11.138003-6.6570161c0-3.3247724-2.3083162-4.845202-4.8599108-4.845202-2.0273202-.0747139-3.8792537 1.1337848-4.6015454 3.0109737-.6921177-2.0546346-2.5723394-3.0128415-4.6072031-3.0128415-1.7727265-.074714-3.4323003.8498716-4.2922612 2.3871118v-2.1106701h-5.92166094v3.0445949h1.87833576v7.9196825h-1.88022163v3.0445949h8.62224001v-3.0445949h-2.7005791v-4.8620126c0-1.9575064.8165857-3.3247723 2.7307532-3.3247723 1.593568 0 2.4101537.9376605 2.4101537 3.3565258v7.8897968h5.9216609v-3.0445949h-1.8783358v-4.8788232c0-1.9575065.8165858-3.3247724 2.7288673-3.3247724 1.5954539 0 2.4101538.9376605 2.4101538 3.3565258v7.8711184h5.9254326v-3.0445949h-1.8821075z"/></svg>