<?xml version="1.0" encoding="UTF-8"?>
<svg xmlns:xlink="http://www.w3.org/1999/xlink" xmlns="http://www.w3.org/2000/svg" version="1.1" viewBox="0.0 0.0 600.0 371.0" fill="none" stroke="none" stroke-linecap="square" stroke-miterlimit="10" width="600" height="371">
  <path fill="#ffffff" d="M0 0L600.0 0L600.0 371.0L0 371.0L0 0Z" fill-rule="nonzero"></path>
  <path fill="#4285f4" d="M300.0 54.916668C338.65424 54.916668 375.7908 69.961876 403.54523 96.86618L300.0 203.68333Z" fill-rule="nonzero"></path>
  <path fill="#ea4335" d="M403.54523 96.86618C433.3169 125.725914 449.6934 165.70116 448.7262 207.15355L300.0 203.68333Z" fill-rule="nonzero"></path>
  <path fill="#fbbc04" d="M448.7262 207.15355C447.68835 251.63304 426.7971 293.31326 391.78223 320.76254L300.0 203.68333Z" fill-rule="nonzero"></path>
  <path fill="#ff6d01" d="M280.67764 351.18982C202.93881 341.00656 146.44626 272.23837 151.5487 194.00163C156.65115 115.76488 221.59705 54.916668 300.0 54.916668L300.0 203.68333Z" fill-rule="nonzero"></path>
  <path fill="#34a853" d="M391.78223 320.76254C360.33633 345.414 320.29587 356.37955 280.67764 351.18982L300.0 203.68333Z" fill-rule="nonzero"></path>
  <path fill="#1a1a1a" d="M19.440624 189.98572L19.440624 181.39197L21.159374 181.39197L23.190624 187.4701Q23.471874 188.32947 23.596874 188.75134Q23.7375 188.2826 24.05 187.37634L26.1125 181.39197L27.64375 181.39197L27.64375 189.98572L26.55 189.98572L26.55 182.79822L24.05 189.98572L23.01875 189.98572L20.534374 182.67322L20.534374 189.98572L19.440624 189.98572ZM28.95625 186.87634Q28.95625 185.14197 29.909374 184.31384Q30.70625 183.62634 31.8625 183.62634Q33.14375 183.62634 33.95625 184.4701Q34.784374 185.29822 34.784374 186.7826Q34.784374 187.98572 34.425 188.67322Q34.065624 189.36072 33.3625 189.75134Q32.675 190.12634 31.8625 190.12634Q30.565624 190.12634 29.753124 189.29822Q28.95625 188.45447 28.95625 186.87634ZM30.034374 186.87634Q30.034374 188.06384 30.55 188.6576Q31.08125 189.25134 31.8625 189.25134Q32.659374 189.25134 33.175 188.6576Q33.690624 188.06384 33.690624 186.8451Q33.690624 185.68884 33.159374 185.0951Q32.64375 184.50134 31.8625 184.50134Q31.08125 184.50134 30.55 185.0951Q30.034374 185.67322 30.034374 186.87634ZM36.33125 189.98572L36.33125 183.76697L37.284374 183.76697L37.284374 184.70447Q37.64375 184.04822 37.940624 183.8451Q38.253124 183.62634 38.628124 183.62634Q39.159374 183.62634 39.70625 183.95447L39.346874 184.93884Q38.95625 184.70447 38.58125 184.70447Q38.221874 184.70447 37.940624 184.92322Q37.675 185.12634 37.565624 185.50134Q37.378124 186.06384 37.378124 186.7201L37.378124 189.98572L36.33125 189.98572ZM44.596874 187.98572L45.690624 188.11072Q45.440624 189.06384 44.7375 189.5951Q44.034374 190.12634 42.95625 190.12634Q41.596874 190.12634 40.784374 189.2826Q39.9875 188.43884 39.9875 186.92322Q39.9875 185.36072 40.8 184.50134Q41.6125 183.62634 42.89375 183.62634Q44.14375 183.62634 44.925 184.4701Q45.721874 185.31384 45.721874 186.86072Q45.721874 186.95447 45.721874 187.14197L41.08125 187.14197Q41.14375 188.17322 41.659374 188.7201Q42.175 189.25134 42.95625 189.25134Q43.534374 189.25134 43.940624 188.95447Q44.3625 188.64197 44.596874 187.98572ZM41.14375 186.2826L44.6125 186.2826Q44.55 185.48572 44.221874 185.0951Q43.70625 184.48572 42.909374 184.48572Q42.175 184.48572 41.675 184.9701Q41.190624 185.45447 41.14375 186.2826ZM52.64375 189.04822L52.8 189.9701Q52.346874 190.06384 52.003124 190.06384Q51.425 190.06384 51.1125 189.89197Q50.8 189.70447 50.659374 189.4076Q50.534374 189.11072 50.534374 188.1576L50.534374 184.57947L49.76875 184.57947L49.76875 183.76697L50.534374 183.76697L50.534374 182.2201L51.58125 181.5951L51.58125 183.76697L52.64375 183.76697L52.64375 184.57947L51.58125 184.57947L51.58125 188.2201Q51.58125 188.67322 51.628124 188.79822Q51.690624 188.92322 51.815624 189.00134Q51.940624 189.07947 52.175 189.07947Q52.3625 189.07947 52.64375 189.04822ZM53.346874 189.98572L53.346874 181.39197L54.39375 181.39197L54.39375 184.4701Q55.128124 183.62634 56.253124 183.62634Q56.95625 183.62634 57.45625 183.9076Q57.971874 184.17322 58.190624 184.6576Q58.409374 185.12634 58.409374 186.04822L58.409374 189.98572L57.3625 189.98572L57.3625 186.04822Q57.3625 185.25134 57.01875 184.89197Q56.675 184.5326 56.05 184.5326Q55.58125 184.5326 55.159374 184.7826Q54.753124 185.01697 54.565624 185.43884Q54.39375 185.8451 54.39375 186.57947L54.39375 189.98572L53.346874 189.98572ZM64.40938 189.2201Q63.815624 189.7201 63.26875 189.92322Q62.7375 190.12634 62.1125 190.12634Q61.08125 190.12634 60.534374 189.62634Q59.9875 189.12634 59.9875 188.3451Q59.9875 187.89197 60.190624 187.51697Q60.39375 187.12634 60.7375 186.9076Q61.08125 186.67322 61.503124 186.56384Q61.8 186.4701 62.440624 186.39197Q63.70625 186.25134 64.31563 186.0326Q64.31563 185.81384 64.31563 185.76697Q64.31563 185.11072 64.01875 184.8451Q63.6125 184.50134 62.815624 184.50134Q62.08125 184.50134 61.721874 184.76697Q61.3625 185.01697 61.190624 185.67322L60.159374 185.5326Q60.3 184.87634 60.628124 184.4701Q60.95625 184.06384 61.565624 183.8451Q62.175 183.62634 62.971874 183.62634Q63.76875 183.62634 64.26875 183.81384Q64.76875 184.00134 65.00313 184.2826Q65.2375 184.56384 65.33125 185.00134Q65.37813 185.26697 65.37813 185.9701L65.37813 187.37634Q65.37813 188.8451 65.44063 189.23572Q65.51875 189.62634 65.72188 189.98572L64.6125 189.98572Q64.45625 189.6576 64.40938 189.2201ZM64.31563 186.86072Q63.7375 187.0951 62.596874 187.26697Q61.940624 187.36072 61.675 187.48572Q61.409374 187.5951 61.253124 187.81384Q61.1125 188.0326 61.1125 188.31384Q61.1125 188.73572 61.425 189.01697Q61.753124 189.29822 62.3625 189.29822Q62.971874 189.29822 63.440624 189.0326Q63.925 188.76697 64.14375 188.29822Q64.31563 187.93884 64.31563 187.25134L64.31563 186.86072ZM67.34688 189.98572L67.34688 183.76697L68.28438 183.76697L68.28438 184.64197Q68.97188 183.62634 70.26875 183.62634Q70.83125 183.62634 71.3 183.82947Q71.78438 184.0326 72.01875 184.36072Q72.25313 184.68884 72.34688 185.12634Q72.39375 185.42322 72.39375 186.1576L72.39375 189.98572L71.34688 189.98572L71.34688 186.20447Q71.34688 185.54822 71.22188 185.23572Q71.09688 184.92322 70.78438 184.73572Q70.47188 184.5326 70.05 184.5326Q69.37813 184.5326 68.87813 184.9701Q68.39375 185.39197 68.39375 186.57947L68.39375 189.98572L67.34688 189.98572ZM82.59688 188.9701L82.59688 189.98572L76.90938 189.98572Q76.90938 189.61072 77.03438 189.25134Q77.25313 188.67322 77.72188 188.11072Q78.20625 187.54822 79.1125 186.81384Q80.51875 185.6576 81.00313 184.98572Q81.50313 184.31384 81.50313 183.7201Q81.50313 183.0951 81.05 182.67322Q80.59688 182.23572 79.87813 182.23572Q79.1125 182.23572 78.65938 182.68884Q78.20625 183.14197 78.19063 183.95447L77.1125 183.8451Q77.22188 182.62634 77.94063 182.00134Q78.675 181.36072 79.90938 181.36072Q81.14375 181.36072 81.8625 182.04822Q82.58125 182.73572 82.58125 183.75134Q82.58125 184.26697 82.3625 184.76697Q82.15938 185.25134 81.65938 185.81384Q81.175 186.36072 80.05 187.31384Q79.09688 188.11072 78.81563 188.4076Q78.55 188.68884 78.37813 188.9701L82.59688 188.9701ZM84.05 185.75134Q84.05 184.2201 84.3625 183.29822Q84.675 182.36072 85.28438 181.86072Q85.90938 181.36072 86.84688 181.36072Q87.53438 181.36072 88.05 181.64197Q88.58125 181.92322 88.925 182.45447Q89.26875 182.9701 89.45625 183.7201Q89.64375 184.4701 89.64375 185.75134Q89.64375 187.26697 89.33125 188.18884Q89.03438 189.11072 88.40938 189.62634Q87.8 190.12634 86.84688 190.12634Q85.6125 190.12634 84.89375 189.23572Q84.05 188.17322 84.05 185.75134ZM85.12813 185.75134Q85.12813 187.86072 85.62813 188.56384Q86.12813 189.26697 86.84688 189.26697Q87.58125 189.26697 88.06563 188.56384Q88.56563 187.86072 88.56563 185.75134Q88.56563 183.62634 88.06563 182.93884Q87.58125 182.23572 86.83125 182.23572Q86.1125 182.23572 85.675 182.8451Q85.12813 183.62634 85.12813 185.75134ZM94.34688 189.98572L94.34688 181.39197L95.39375 181.39197L95.39375 184.4701Q96.12813 183.62634 97.25313 183.62634Q97.95625 183.62634 98.45625 183.9076Q98.97188 184.17322 99.19063 184.6576Q99.40938 185.12634 99.40938 186.04822L99.40938 189.98572L98.3625 189.98572L98.3625 186.04822Q98.3625 185.25134 98.01875 184.89197Q97.675 184.5326 97.05 184.5326Q96.58125 184.5326 96.15938 184.7826Q95.75313 185.01697 95.56563 185.43884Q95.39375 185.8451 95.39375 186.57947L95.39375 189.98572L94.34688 189.98572ZM100.95625 186.87634Q100.95625 185.14197 101.90938 184.31384Q102.70625 183.62634 103.8625 183.62634Q105.14375 183.62634 105.95625 184.4701Q106.78438 185.29822 106.78438 186.7826Q106.78438 187.98572 106.425 188.67322Q106.06563 189.36072 105.3625 189.75134Q104.675 190.12634 103.8625 190.12634Q102.56563 190.12634 101.75313 189.29822Q100.95625 188.45447 100.95625 186.87634ZM102.03438 186.87634Q102.03438 188.06384 102.55 188.6576Q103.08125 189.25134 103.8625 189.25134Q104.65938 189.25134 105.175 188.6576Q105.69063 188.06384 105.69063 186.8451Q105.69063 185.68884 105.15938 185.0951Q104.64375 184.50134 103.8625 184.50134Q103.08125 184.50134 102.55 185.0951Q102.03438 185.67322 102.03438 186.87634ZM112.425 189.98572L112.425 189.06384Q111.69063 190.12634 110.44063 190.12634Q109.89375 190.12634 109.40938 189.92322Q108.94063 189.70447 108.70625 189.39197Q108.47188 189.06384 108.37813 188.5951Q108.31563 188.29822 108.31563 187.61072L108.31563 183.76697L109.37813 183.76697L109.37813 187.2201Q109.37813 188.0326 109.44063 188.32947Q109.53438 188.73572 109.84688 188.98572Q110.175 189.2201 110.65938 189.2201Q111.12813 189.2201 111.53438 188.98572Q111.95625 188.73572 112.12813 188.31384Q112.31563 187.89197 112.31563 187.0951L112.31563 183.76697L113.3625 183.76697L113.3625 189.98572L112.425 189.98572ZM115.33125 189.98572L115.33125 183.76697L116.28438 183.76697L116.28438 184.70447Q116.64375 184.04822 116.94063 183.8451Q117.25313 183.62634 117.62813 183.62634Q118.15938 183.62634 118.70625 183.95447L118.34688 184.93884Q117.95625 184.70447 117.58125 184.70447Q117.22188 184.70447 116.94063 184.92322Q116.675 185.12634 116.56563 185.50134Q116.37813 186.06384 116.37813 186.7201L116.37813 189.98572L115.33125 189.98572ZM118.925 188.12634L119.95625 187.9701Q120.05 188.5951 120.44063 188.92322Q120.84688 189.25134 121.58125 189.25134Q122.3 189.25134 122.64375 188.9701Q123.00313 188.67322 123.00313 188.26697Q123.00313 187.9076 122.69063 187.70447Q122.47188 187.56384 121.6125 187.3451Q120.45625 187.04822 120.00313 186.8451Q119.56563 186.62634 119.33125 186.25134Q119.09688 185.87634 119.09688 185.4076Q119.09688 185.00134 119.28438 184.64197Q119.47188 184.2826 119.8 184.04822Q120.05 183.87634 120.47188 183.75134Q120.89375 183.62634 121.39375 183.62634Q122.1125 183.62634 122.65938 183.8451Q123.22188 184.04822 123.4875 184.4076Q123.75313 184.76697 123.84688 185.36072L122.81563 185.50134Q122.75313 185.0326 122.40938 184.76697Q122.08125 184.48572 121.45625 184.48572Q120.7375 184.48572 120.425 184.73572Q120.1125 184.9701 120.1125 185.29822Q120.1125 185.50134 120.2375 185.6576Q120.37813 185.82947 120.64375 185.93884Q120.8 186.00134 121.58125 186.20447Q122.70625 186.51697 123.14375 186.70447Q123.58125 186.89197 123.83125 187.25134Q124.08125 187.61072 124.08125 188.1576Q124.08125 188.68884 123.76875 189.1576Q123.47188 189.61072 122.89375 189.87634Q122.31563 190.12634 121.58125 190.12634Q120.3625 190.12634 119.72188 189.62634Q119.09688 189.11072 118.925 188.12634ZM127.95625 186.87634Q127.95625 185.14197 128.90938 184.31384Q129.70625 183.62634 130.8625 183.62634Q132.14375 183.62634 132.95625 184.4701Q133.78438 185.29822 133.78438 186.7826Q133.78438 187.98572 133.425 188.67322Q133.06563 189.36072 132.3625 189.75134Q131.675 190.12634 130.8625 190.12634Q129.56563 190.12634 128.75313 189.29822Q127.95625 188.45447 127.95625 186.87634ZM129.03438 186.87634Q129.03438 188.06384 129.55 188.6576Q130.08125 189.25134 130.8625 189.25134Q131.65938 189.25134 132.175 188.6576Q132.69063 188.06384 132.69063 186.8451Q132.69063 185.68884 132.15938 185.0951Q131.64375 184.50134 130.8625 184.50134Q130.08125 184.50134 129.55 185.0951Q129.03438 185.67322 129.03438 186.87634ZM135.59688 189.98572L135.59688 184.57947L134.65938 184.57947L134.65938 183.76697L135.59688 183.76697L135.59688 183.0951Q135.59688 182.4701 135.70625 182.17322Q135.8625 181.75134 136.2375 181.50134Q136.62813 181.25134 137.31563 181.25134Q137.76875 181.25134 138.3 181.36072L138.14375 182.26697Q137.81563 182.2201 137.51875 182.2201Q137.03438 182.2201 136.83125 182.42322Q136.64375 182.62634 136.64375 183.18884L136.64375 183.76697L137.8625 183.76697L137.8625 184.57947L136.64375 184.57947L136.64375 189.98572L135.59688 189.98572Z" fill-rule="nonzero"></path>
  <path fill="#9e9e9e" d="M22.425 206.98572L22.425 204.92322L18.70625 204.92322L18.70625 203.95447L22.628124 198.39197L23.4875 198.39197L23.4875 203.95447L24.64375 203.95447L24.64375 204.92322L23.4875 204.92322L23.4875 206.98572L22.425 206.98572ZM22.425 203.95447L22.425 200.0951L19.7375 203.95447L22.425 203.95447ZM26.1125 199.51697L26.1125 198.50134L31.675 198.50134L31.675 199.32947Q30.8625 200.20447 30.05 201.6576Q29.253124 203.0951 28.815624 204.62634Q28.4875 205.70447 28.409374 206.98572L27.315624 206.98572Q27.33125 205.9701 27.70625 204.5326Q28.096874 203.0951 28.8 201.76697Q29.51875 200.43884 30.33125 199.51697L26.1125 199.51697ZM33.64375 206.98572L33.64375 205.7826L34.846874 205.7826L34.846874 206.98572L33.64375 206.98572ZM36.20625 205.00134L37.221874 204.9076Q37.346874 205.62634 37.70625 205.95447Q38.08125 206.26697 38.64375 206.26697Q39.128124 206.26697 39.4875 206.04822Q39.8625 205.81384 40.096874 205.45447Q40.33125 205.07947 40.4875 204.45447Q40.64375 203.81384 40.64375 203.1576Q40.64375 203.07947 40.64375 202.93884Q40.33125 203.43884 39.784374 203.76697Q39.2375 204.07947 38.596874 204.07947Q37.51875 204.07947 36.784374 203.31384Q36.05 202.5326 36.05 201.26697Q36.05 199.95447 36.815624 199.1576Q37.596874 198.36072 38.753124 198.36072Q39.58125 198.36072 40.26875 198.81384Q40.971874 199.26697 41.33125 200.11072Q41.690624 200.93884 41.690624 202.51697Q41.690624 204.1576 41.33125 205.14197Q40.9875 206.11072 40.26875 206.62634Q39.565624 207.12634 38.628124 207.12634Q37.6125 207.12634 36.971874 206.57947Q36.33125 206.01697 36.20625 205.00134ZM40.51875 201.20447Q40.51875 200.29822 40.034374 199.76697Q39.565624 199.23572 38.878124 199.23572Q38.175 199.23572 37.64375 199.81384Q37.128124 200.37634 37.128124 201.29822Q37.128124 202.11072 37.628124 202.62634Q38.128124 203.14197 38.846874 203.14197Q39.58125 203.14197 40.05 202.62634Q40.51875 202.11072 40.51875 201.20447ZM43.253124 200.45447Q43.253124 199.5326 43.70625 198.89197Q44.175 198.25134 45.05 198.25134Q45.8625 198.25134 46.39375 198.82947Q46.925 199.4076 46.925 200.51697Q46.925 201.61072 46.378124 202.20447Q45.846874 202.7826 45.065624 202.7826Q44.284374 202.7826 43.76875 202.20447Q43.253124 201.62634 43.253124 200.45447ZM45.08125 198.9701Q44.690624 198.9701 44.425 199.31384Q44.175 199.6576 44.175 200.56384Q44.175 201.39197 44.425 201.73572Q44.690624 202.06384 45.08125 202.06384Q45.4875 202.06384 45.7375 201.7201Q46.003124 201.37634 46.003124 200.48572Q46.003124 199.64197 45.7375 199.31384Q45.471874 198.9701 45.08125 198.9701ZM45.08125 207.29822L49.784374 198.25134L50.64375 198.25134L45.95625 207.29822L45.08125 207.29822ZM48.8 204.9701Q48.8 204.04822 49.253124 203.4076Q49.721874 202.76697 50.6125 202.76697Q51.425 202.76697 51.95625 203.3451Q52.4875 203.9076 52.4875 205.0326Q52.4875 206.12634 51.940624 206.7201Q51.409374 207.29822 50.6125 207.29822Q49.846874 207.29822 49.315624 206.7201Q48.8 206.14197 48.8 204.9701ZM50.64375 203.48572Q50.2375 203.48572 49.971874 203.82947Q49.721874 204.17322 49.721874 205.07947Q49.721874 205.89197 49.9875 206.23572Q50.253124 206.57947 50.64375 206.57947Q51.034374 206.57947 51.3 206.23572Q51.565624 205.89197 51.565624 204.98572Q51.565624 204.1576 51.3 203.82947Q51.034374 203.48572 50.64375 203.48572Z" fill-rule="nonzero"></path>
  <path stroke="#757575" stroke-width="1.0" stroke-linecap="butt" d="M18.55 194.48572L145.23334 194.48572L158.97127 194.48572" fill-rule="nonzero"></path>
  <path fill="#9e9e9e" d="M160.97127 194.48572C160.97127 193.38115 160.07584 192.48572 158.97127 192.48572C157.8667 192.48572 156.97127 193.38115 156.97127 194.48572C156.97127 195.59029 157.8667 196.48572 158.97127 196.48572C160.07584 196.48572 160.97127 195.59029 160.97127 194.48572" fill-rule="nonzero"></path>
  <path fill="#1a1a1a" d="M478.325 68.196365L478.325 59.602615L479.46564 59.602615L479.46564 67.18074L483.7 67.18074L483.7 68.196365L478.325 68.196365ZM489.4969 66.196365L490.59064 66.321365Q490.34064 67.27449 489.6375 67.80574Q488.9344 68.33699 487.85626 68.33699Q486.4969 68.33699 485.6844 67.49324Q484.8875 66.64949 484.8875 65.133865Q484.8875 63.571365 485.7 62.71199Q486.5125 61.83699 487.79376 61.83699Q489.04376 61.83699 489.825 62.68074Q490.6219 63.52449 490.6219 65.071365Q490.6219 65.165115 490.6219 65.352615L485.98126 65.352615Q486.04376 66.383865 486.5594 66.93074Q487.075 67.46199 487.85626 67.46199Q488.4344 67.46199 488.84064 67.165115Q489.2625 66.852615 489.4969 66.196365ZM486.04376 64.49324L489.5125 64.49324Q489.45 63.696365 489.1219 63.30574Q488.60626 62.696365 487.8094 62.696365Q487.075 62.696365 486.575 63.18074Q486.09064 63.665115 486.04376 64.49324ZM491.825 66.33699L492.85626 66.18074Q492.95 66.80574 493.34064 67.133865Q493.7469 67.46199 494.48126 67.46199Q495.2 67.46199 495.54376 67.18074Q495.90314 66.883865 495.90314 66.477615Q495.90314 66.11824 495.59064 65.915115Q495.3719 65.77449 494.5125 65.55574Q493.35626 65.258865 492.90314 65.05574Q492.46564 64.83699 492.23126 64.46199Q491.9969 64.08699 491.9969 63.61824Q491.9969 63.21199 492.1844 62.852615Q492.3719 62.49324 492.7 62.258865Q492.95 62.08699 493.3719 61.96199Q493.79376 61.83699 494.29376 61.83699Q495.0125 61.83699 495.5594 62.05574Q496.1219 62.258865 496.3875 62.61824Q496.65314 62.977615 496.7469 63.571365L495.71564 63.71199Q495.65314 63.24324 495.3094 62.977615Q494.98126 62.696365 494.35626 62.696365Q493.6375 62.696365 493.325 62.946365Q493.0125 63.18074 493.0125 63.508865Q493.0125 63.71199 493.1375 63.86824Q493.27814 64.040115 493.54376 64.14949Q493.7 64.21199 494.48126 64.415115Q495.60626 64.727615 496.04376 64.915115Q496.48126 65.102615 496.73126 65.46199Q496.98126 65.821365 496.98126 66.36824Q496.98126 66.89949 496.66876 67.36824Q496.3719 67.821365 495.79376 68.08699Q495.21564 68.33699 494.48126 68.33699Q493.2625 68.33699 492.6219 67.83699Q491.9969 67.321365 491.825 66.33699ZM497.825 66.33699L498.85626 66.18074Q498.95 66.80574 499.34064 67.133865Q499.7469 67.46199 500.48126 67.46199Q501.2 67.46199 501.54376 67.18074Q501.90314 66.883865 501.90314 66.477615Q501.90314 66.11824 501.59064 65.915115Q501.3719 65.77449 500.5125 65.55574Q499.35626 65.258865 498.90314 65.05574Q498.46564 64.83699 498.23126 64.46199Q497.9969 64.08699 497.9969 63.61824Q497.9969 63.21199 498.1844 62.852615Q498.3719 62.49324 498.7 62.258865Q498.95 62.08699 499.3719 61.96199Q499.79376 61.83699 500.29376 61.83699Q501.0125 61.83699 501.5594 62.05574Q502.1219 62.258865 502.3875 62.61824Q502.65314 62.977615 502.7469 63.571365L501.71564 63.71199Q501.65314 63.24324 501.3094 62.977615Q500.98126 62.696365 500.35626 62.696365Q499.6375 62.696365 499.325 62.946365Q499.0125 63.18074 499.0125 63.508865Q499.0125 63.71199 499.1375 63.86824Q499.27814 64.040115 499.54376 64.14949Q499.7 64.21199 500.48126 64.415115Q501.60626 64.727615 502.04376 64.915115Q502.48126 65.102615 502.73126 65.46199Q502.98126 65.821365 502.98126 66.36824Q502.98126 66.89949 502.66876 67.36824Q502.3719 67.821365 501.79376 68.08699Q501.21564 68.33699 500.48126 68.33699Q499.2625 68.33699 498.6219 67.83699Q497.9969 67.321365 497.825 66.33699ZM509.54376 67.258865L509.7 68.18074Q509.2469 68.27449 508.90314 68.27449Q508.325 68.27449 508.0125 68.102615Q507.7 67.915115 507.5594 67.61824Q507.4344 67.321365 507.4344 66.36824L507.4344 62.790115L506.66876 62.790115L506.66876 61.977615L507.4344 61.977615L507.4344 60.43074L508.48126 59.80574L508.48126 61.977615L509.54376 61.977615L509.54376 62.790115L508.48126 62.790115L508.48126 66.43074Q508.48126 66.883865 508.52814 67.008865Q508.59064 67.133865 508.71564 67.21199Q508.84064 67.290115 509.075 67.290115Q509.2625 67.290115 509.54376 67.258865ZM510.2469 68.196365L510.2469 59.602615L511.29376 59.602615L511.29376 62.68074Q512.02814 61.83699 513.15314 61.83699Q513.85626 61.83699 514.35626 62.11824Q514.8719 62.383865 515.09064 62.86824Q515.3094 63.33699 515.3094 64.258865L515.3094 68.196365L514.2625 68.196365L514.2625 64.258865Q514.2625 63.46199 513.91876 63.102615Q513.575 62.74324 512.95 62.74324Q512.48126 62.74324 512.0594 62.99324Q511.65314 63.227615 511.46564 63.64949Q511.29376 64.05574 511.29376 64.790115L511.29376 68.196365L510.2469 68.196365ZM521.3094 67.43074Q520.71564 67.93074 520.16876 68.133865Q519.6375 68.33699 519.0125 68.33699Q517.98126 68.33699 517.4344 67.83699Q516.8875 67.33699 516.8875 66.55574Q516.8875 66.102615 517.09064 65.727615Q517.29376 65.33699 517.6375 65.11824Q517.98126 64.883865 518.40314 64.77449Q518.7 64.68074 519.34064 64.602615Q520.60626 64.46199 521.21564 64.24324Q521.21564 64.02449 521.21564 63.977615Q521.21564 63.321365 520.91876 63.05574Q520.5125 62.71199 519.71564 62.71199Q518.98126 62.71199 518.6219 62.977615Q518.2625 63.227615 518.09064 63.883865L517.0594 63.74324Q517.2 63.08699 517.52814 62.68074Q517.85626 62.27449 518.46564 62.05574Q519.075 61.83699 519.8719 61.83699Q520.66876 61.83699 521.16876 62.02449Q521.66876 62.21199 521.90314 62.49324Q522.1375 62.77449 522.23126 63.21199Q522.27814 63.477615 522.27814 64.18074L522.27814 65.58699Q522.27814 67.05574 522.34064 67.446365Q522.41876 67.83699 522.6219 68.196365L521.5125 68.196365Q521.35626 67.86824 521.3094 67.43074ZM521.21564 65.071365Q520.6375 65.30574 519.4969 65.477615Q518.84064 65.571365 518.575 65.696365Q518.3094 65.80574 518.15314 66.02449Q518.0125 66.24324 518.0125 66.52449Q518.0125 66.946365 518.325 67.227615Q518.65314 67.508865 519.2625 67.508865Q519.8719 67.508865 520.34064 67.24324Q520.825 66.977615 521.04376 66.508865Q521.21564 66.14949 521.21564 65.46199L521.21564 65.071365ZM524.2469 68.196365L524.2469 61.977615L525.1844 61.977615L525.1844 62.852615Q525.8719 61.83699 527.16876 61.83699Q527.73126 61.83699 528.2 62.040115Q528.6844 62.24324 528.91876 62.571365Q529.15314 62.89949 529.2469 63.33699Q529.29376 63.633865 529.29376 64.36824L529.29376 68.196365L528.2469 68.196365L528.2469 64.415115Q528.2469 63.758865 528.1219 63.446365Q527.9969 63.133865 527.6844 62.946365Q527.3719 62.74324 526.95 62.74324Q526.27814 62.74324 525.77814 63.18074Q525.29376 63.602615 525.29376 64.790115L525.29376 68.196365L524.2469 68.196365ZM537.91876 68.196365L536.8719 68.196365L536.8719 61.477615Q536.48126 61.83699 535.85626 62.21199Q535.2469 62.571365 534.7625 62.74324L534.7625 61.727615Q535.6375 61.30574 536.29376 60.727615Q536.96564 60.133865 537.2469 59.571365L537.91876 59.571365L537.91876 68.196365ZM544.2469 68.196365L544.2469 59.602615L545.29376 59.602615L545.29376 62.68074Q546.02814 61.83699 547.15314 61.83699Q547.85626 61.83699 548.35626 62.11824Q548.8719 62.383865 549.09064 62.86824Q549.3094 63.33699 549.3094 64.258865L549.3094 68.196365L548.2625 68.196365L548.2625 64.258865Q548.2625 63.46199 547.91876 63.102615Q547.575 62.74324 546.95 62.74324Q546.48126 62.74324 546.0594 62.99324Q545.65314 63.227615 545.46564 63.64949Q545.29376 64.05574 545.29376 64.790115L545.29376 68.196365L544.2469 68.196365ZM550.85626 65.08699Q550.85626 63.352615 551.8094 62.52449Q552.60626 61.83699 553.7625 61.83699Q555.04376 61.83699 555.85626 62.68074Q556.6844 63.508865 556.6844 64.99324Q556.6844 66.196365 556.325 66.883865Q555.96564 67.571365 555.2625 67.96199Q554.575 68.33699 553.7625 68.33699Q552.46564 68.33699 551.65314 67.508865Q550.85626 66.665115 550.85626 65.08699ZM551.9344 65.08699Q551.9344 66.27449 552.45 66.86824Q552.98126 67.46199 553.7625 67.46199Q554.5594 67.46199 555.075 66.86824Q555.59064 66.27449 555.59064 65.05574Q555.59064 63.89949 555.0594 63.30574Q554.54376 62.71199 553.7625 62.71199Q552.98126 62.71199 552.45 63.30574Q551.9344 63.883865 551.9344 65.08699ZM562.325 68.196365L562.325 67.27449Q561.59064 68.33699 560.34064 68.33699Q559.79376 68.33699 559.3094 68.133865Q558.84064 67.915115 558.60626 67.602615Q558.3719 67.27449 558.27814 66.80574Q558.21564 66.508865 558.21564 65.821365L558.21564 61.977615L559.27814 61.977615L559.27814 65.43074Q559.27814 66.24324 559.34064 66.540115Q559.4344 66.946365 559.7469 67.196365Q560.075 67.43074 560.5594 67.43074Q561.02814 67.43074 561.4344 67.196365Q561.85626 66.946365 562.02814 66.52449Q562.21564 66.102615 562.21564 65.30574L562.21564 61.977615L563.2625 61.977615L563.2625 68.196365L562.325 68.196365ZM565.23126 68.196365L565.23126 61.977615L566.1844 61.977615L566.1844 62.915115Q566.54376 62.258865 566.84064 62.05574Q567.15314 61.83699 567.52814 61.83699Q568.0594 61.83699 568.60626 62.165115L568.2469 63.14949Q567.85626 62.915115 567.48126 62.915115Q567.1219 62.915115 566.84064 63.133865Q566.575 63.33699 566.46564 63.71199Q566.27814 64.27449 566.27814 64.93074L566.27814 68.196365L565.23126 68.196365ZM571.85626 65.08699Q571.85626 63.352615 572.8094 62.52449Q573.60626 61.83699 574.7625 61.83699Q576.04376 61.83699 576.85626 62.68074Q577.6844 63.508865 577.6844 64.99324Q577.6844 66.196365 577.325 66.883865Q576.96564 67.571365 576.2625 67.96199Q575.575 68.33699 574.7625 68.33699Q573.46564 68.33699 572.65314 67.508865Q571.85626 66.665115 571.85626 65.08699ZM572.9344 65.08699Q572.9344 66.27449 573.45 66.86824Q573.98126 67.46199 574.7625 67.46199Q575.5594 67.46199 576.075 66.86824Q576.59064 66.27449 576.59064 65.05574Q576.59064 63.89949 576.0594 63.30574Q575.54376 62.71199 574.7625 62.71199Q573.98126 62.71199 573.45 63.30574Q572.9344 63.883865 572.9344 65.08699ZM579.4969 68.196365L579.4969 62.790115L578.5594 62.790115L578.5594 61.977615L579.4969 61.977615L579.4969 61.30574Q579.4969 60.68074 579.60626 60.383865Q579.7625 59.96199 580.1375 59.71199Q580.52814 59.46199 581.21564 59.46199Q581.66876 59.46199 582.2 59.571365L582.04376 60.477615Q581.71564 60.43074 581.41876 60.43074Q580.9344 60.43074 580.73126 60.633865Q580.54376 60.83699 580.54376 61.39949L580.54376 61.977615L581.7625 61.977615L581.7625 62.790115L580.54376 62.790115L580.54376 68.196365L579.4969 68.196365Z" fill-rule="nonzero"></path>
  <path fill="#9e9e9e" d="M550.91876 85.196365L549.8719 85.196365L549.8719 78.477615Q549.48126 78.83699 548.85626 79.21199Q548.2469 79.571365 547.7625 79.74324L547.7625 78.727615Q548.6375 78.30574 549.29376 77.727615Q549.96564 77.133865 550.2469 76.571365L550.91876 76.571365L550.91876 85.196365ZM559.4969 84.18074L559.4969 85.196365L553.8094 85.196365Q553.8094 84.821365 553.9344 84.46199Q554.15314 83.883865 554.6219 83.321365Q555.10626 82.758865 556.0125 82.02449Q557.41876 80.86824 557.90314 80.196365Q558.40314 79.52449 558.40314 78.93074Q558.40314 78.30574 557.95 77.883865Q557.4969 77.446365 556.77814 77.446365Q556.0125 77.446365 555.5594 77.89949Q555.10626 78.352615 555.09064 79.165115L554.0125 79.05574Q554.1219 77.83699 554.84064 77.21199Q555.575 76.571365 556.8094 76.571365Q558.04376 76.571365 558.7625 77.258865Q559.48126 77.946365 559.48126 78.96199Q559.48126 79.477615 559.2625 79.977615Q559.0594 80.46199 558.5594 81.02449Q558.075 81.571365 556.95 82.52449Q555.9969 83.321365 555.71564 83.61824Q555.45 83.89949 555.27814 84.18074L559.4969 84.18074ZM561.54376 85.196365L561.54376 83.99324L562.7469 83.99324L562.7469 85.196365L561.54376 85.196365ZM563.95 82.93074L565.0125 82.790115Q565.1844 83.68074 565.6219 84.08699Q566.0594 84.477615 566.6844 84.477615Q567.4344 84.477615 567.95 83.96199Q568.46564 83.446365 568.46564 82.68074Q568.46564 81.96199 567.98126 81.49324Q567.5125 81.008865 566.77814 81.008865Q566.48126 81.008865 566.02814 81.133865L566.15314 80.196365Q566.2625 80.21199 566.325 80.21199Q566.9969 80.21199 567.52814 79.86824Q568.075 79.508865 568.075 78.77449Q568.075 78.196365 567.6844 77.821365Q567.29376 77.43074 566.66876 77.43074Q566.0594 77.43074 565.6375 77.821365Q565.23126 78.21199 565.1219 78.977615L564.0594 78.790115Q564.2469 77.74324 564.9344 77.165115Q565.6219 76.571365 566.6375 76.571365Q567.34064 76.571365 567.9344 76.883865Q568.52814 77.18074 568.84064 77.696365Q569.15314 78.21199 569.15314 78.80574Q569.15314 79.352615 568.85626 79.821365Q568.5594 80.27449 567.98126 80.540115Q568.73126 80.71199 569.15314 81.27449Q569.575 81.821365 569.575 82.665115Q569.575 83.790115 568.7469 84.571365Q567.9344 85.352615 566.6844 85.352615Q565.5594 85.352615 564.8094 84.68074Q564.0594 83.99324 563.95 82.93074ZM571.15314 78.665115Q571.15314 77.74324 571.60626 77.102615Q572.075 76.46199 572.95 76.46199Q573.7625 76.46199 574.29376 77.040115Q574.825 77.61824 574.825 78.727615Q574.825 79.821365 574.27814 80.415115Q573.7469 80.99324 572.96564 80.99324Q572.1844 80.99324 571.66876 80.415115Q571.15314 79.83699 571.15314 78.665115ZM572.98126 77.18074Q572.59064 77.18074 572.325 77.52449Q572.075 77.86824 572.075 78.77449Q572.075 79.602615 572.325 79.946365Q572.59064 80.27449 572.98126 80.27449Q573.3875 80.27449 573.6375 79.93074Q573.90314 79.58699 573.90314 78.696365Q573.90314 77.852615 573.6375 77.52449Q573.3719 77.18074 572.98126 77.18074ZM572.98126 85.508865L577.6844 76.46199L578.54376 76.46199L573.85626 85.508865L572.98126 85.508865ZM576.7 83.18074Q576.7 82.258865 577.15314 81.61824Q577.6219 80.977615 578.5125 80.977615Q579.325 80.977615 579.85626 81.55574Q580.3875 82.11824 580.3875 83.24324Q580.3875 84.33699 579.84064 84.93074Q579.3094 85.508865 578.5125 85.508865Q577.7469 85.508865 577.21564 84.93074Q576.7 84.352615 576.7 83.18074ZM578.54376 81.696365Q578.1375 81.696365 577.8719 82.040115Q577.6219 82.383865 577.6219 83.290115Q577.6219 84.102615 577.8875 84.446365Q578.15314 84.790115 578.54376 84.790115Q578.9344 84.790115 579.2 84.446365Q579.46564 84.102615 579.46564 83.196365Q579.46564 82.36824 579.2 82.040115Q578.9344 81.696365 578.54376 81.696365Z" fill-rule="nonzero"></path>
  <path stroke="#757575" stroke-width="1.0" stroke-linecap="butt" d="M581.45 72.696365L454.76666 72.696365L353.06705 72.696365" fill-rule="nonzero"></path>
  <path fill="#9e9e9e" d="M355.06705 72.696365C355.06705 71.59179 354.1716 70.696365 353.06705 70.696365C351.96246 70.696365 351.06705 71.59179 351.06705 72.696365C351.06705 73.800934 351.96246 74.696365 353.06705 74.696365C354.1716 74.696365 355.06705 73.800934 355.06705 72.696365" fill-rule="nonzero"></path>
  <path fill="#1a1a1a" d="M460.325 145.6074L460.325 137.01366L463.5594 137.01366Q464.54376 137.01366 465.1375 137.27928Q465.73126 137.5449 466.0594 138.09178Q466.40314 138.62303 466.40314 139.21678Q466.40314 139.76366 466.10626 140.24803Q465.8094 140.7324 465.2 141.02928Q465.98126 141.26366 466.3875 141.82616Q466.8094 142.37303 466.8094 143.12303Q466.8094 143.71678 466.5594 144.24803Q466.3094 144.76366 465.9344 145.0449Q465.5594 145.32616 464.98126 145.46678Q464.41876 145.6074 463.60626 145.6074L460.325 145.6074ZM461.46564 140.62303L463.325 140.62303Q464.075 140.62303 464.40314 140.52928Q464.84064 140.40428 465.0594 140.1074Q465.27814 139.7949 465.27814 139.34178Q465.27814 138.9199 465.075 138.59178Q464.8719 138.26366 464.48126 138.15428Q464.10626 138.02928 463.1844 138.02928L461.46564 138.02928L461.46564 140.62303ZM461.46564 144.59178L463.60626 144.59178Q464.15314 144.59178 464.3719 144.5449Q464.77814 144.4824 465.02814 144.32616Q465.29376 144.15428 465.46564 143.84178Q465.6375 143.52928 465.6375 143.12303Q465.6375 142.63866 465.3875 142.27928Q465.15314 141.9199 464.71564 141.77928Q464.27814 141.63866 463.45 141.63866L461.46564 141.63866L461.46564 144.59178ZM472.4969 143.6074L473.59064 143.7324Q473.34064 144.68553 472.6375 145.21678Q471.9344 145.74803 470.85626 145.74803Q469.4969 145.74803 468.6844 144.90428Q467.8875 144.06053 467.8875 142.5449Q467.8875 140.9824 468.7 140.12303Q469.5125 139.24803 470.79376 139.24803Q472.04376 139.24803 472.825 140.09178Q473.6219 140.93553 473.6219 142.4824Q473.6219 142.57616 473.6219 142.76366L468.98126 142.76366Q469.04376 143.7949 469.5594 144.34178Q470.075 144.87303 470.85626 144.87303Q471.4344 144.87303 471.84064 144.57616Q472.2625 144.26366 472.4969 143.6074ZM469.04376 141.90428L472.5125 141.90428Q472.45 141.1074 472.1219 140.71678Q471.60626 140.1074 470.8094 140.1074Q470.075 140.1074 469.575 140.59178Q469.09064 141.07616 469.04376 141.90428ZM477.54376 144.6699L477.7 145.59178Q477.2469 145.68553 476.90314 145.68553Q476.325 145.68553 476.0125 145.51366Q475.7 145.32616 475.5594 145.02928Q475.4344 144.7324 475.4344 143.77928L475.4344 140.20116L474.66876 140.20116L474.66876 139.38866L475.4344 139.38866L475.4344 137.84178L476.48126 137.21678L476.48126 139.38866L477.54376 139.38866L477.54376 140.20116L476.48126 140.20116L476.48126 143.84178Q476.48126 144.2949 476.52814 144.4199Q476.59064 144.5449 476.71564 144.62303Q476.84064 144.70116 477.075 144.70116Q477.2625 144.70116 477.54376 144.6699ZM479.3875 145.6074L477.48126 139.38866L478.575 139.38866L479.5594 142.9824L479.9344 144.31053Q479.96564 144.21678 480.2625 143.02928L481.2469 139.38866L482.325 139.38866L483.2625 142.99803L483.575 144.18553L483.9344 142.9824L484.9969 139.38866L486.02814 139.38866L484.075 145.6074L482.98126 145.6074L481.9969 141.87303L481.7469 140.82616L480.4969 145.6074L479.3875 145.6074ZM491.4969 143.6074L492.59064 143.7324Q492.34064 144.68553 491.6375 145.21678Q490.9344 145.74803 489.85626 145.74803Q488.4969 145.74803 487.6844 144.90428Q486.8875 144.06053 486.8875 142.5449Q486.8875 140.9824 487.7 140.12303Q488.5125 139.24803 489.79376 139.24803Q491.04376 139.24803 491.825 140.09178Q492.6219 140.93553 492.6219 142.4824Q492.6219 142.57616 492.6219 142.76366L487.98126 142.76366Q488.04376 143.7949 488.5594 144.34178Q489.075 144.87303 489.85626 144.87303Q490.4344 144.87303 490.84064 144.57616Q491.2625 144.26366 491.4969 143.6074ZM488.04376 141.90428L491.5125 141.90428Q491.45 141.1074 491.1219 140.71678Q490.60626 140.1074 489.8094 140.1074Q489.075 140.1074 488.575 140.59178Q488.09064 141.07616 488.04376 141.90428ZM498.4969 143.6074L499.59064 143.7324Q499.34064 144.68553 498.6375 145.21678Q497.9344 145.74803 496.85626 145.74803Q495.4969 145.74803 494.6844 144.90428Q493.8875 144.06053 493.8875 142.5449Q493.8875 140.9824 494.7 140.12303Q495.5125 139.24803 496.79376 139.24803Q498.04376 139.24803 498.825 140.09178Q499.6219 140.93553 499.6219 142.4824Q499.6219 142.57616 499.6219 142.76366L494.98126 142.76366Q495.04376 143.7949 495.5594 144.34178Q496.075 144.87303 496.85626 144.87303Q497.4344 144.87303 497.84064 144.57616Q498.2625 144.26366 498.4969 143.6074ZM495.04376 141.90428L498.5125 141.90428Q498.45 141.1074 498.1219 140.71678Q497.60626 140.1074 496.8094 140.1074Q496.075 140.1074 495.575 140.59178Q495.09064 141.07616 495.04376 141.90428ZM501.2469 145.6074L501.2469 139.38866L502.1844 139.38866L502.1844 140.26366Q502.8719 139.24803 504.16876 139.24803Q504.73126 139.24803 505.2 139.45116Q505.6844 139.65428 505.91876 139.9824Q506.15314 140.31053 506.2469 140.74803Q506.29376 141.0449 506.29376 141.77928L506.29376 145.6074L505.2469 145.6074L505.2469 141.82616Q505.2469 141.1699 505.1219 140.8574Q504.9969 140.5449 504.6844 140.3574Q504.3719 140.15428 503.95 140.15428Q503.27814 140.15428 502.77814 140.59178Q502.29376 141.01366 502.29376 142.20116L502.29376 145.6074L501.2469 145.6074ZM514.91876 145.6074L513.8719 145.6074L513.8719 138.88866Q513.48126 139.24803 512.85626 139.62303Q512.2469 139.9824 511.7625 140.15428L511.7625 139.13866Q512.6375 138.71678 513.29376 138.13866Q513.96564 137.5449 514.2469 136.9824L514.91876 136.9824L514.91876 145.6074ZM520.825 143.02928L520.825 141.96678L524.075 141.96678L524.075 143.02928L520.825 143.02928ZM531.325 145.6074L531.325 143.5449L527.60626 143.5449L527.60626 142.57616L531.52814 137.01366L532.3875 137.01366L532.3875 142.57616L533.54376 142.57616L533.54376 143.5449L532.3875 143.5449L532.3875 145.6074L531.325 145.6074ZM531.325 142.57616L531.325 138.71678L528.6375 142.57616L531.325 142.57616ZM538.2469 145.6074L538.2469 137.01366L539.29376 137.01366L539.29376 140.09178Q540.02814 139.24803 541.15314 139.24803Q541.85626 139.24803 542.35626 139.52928Q542.8719 139.7949 543.09064 140.27928Q543.3094 140.74803 543.3094 141.6699L543.3094 145.6074L542.2625 145.6074L542.2625 141.6699Q542.2625 140.87303 541.91876 140.51366Q541.575 140.15428 540.95 140.15428Q540.48126 140.15428 540.0594 140.40428Q539.65314 140.63866 539.46564 141.06053Q539.29376 141.46678 539.29376 142.20116L539.29376 145.6074L538.2469 145.6074ZM544.85626 142.49803Q544.85626 140.76366 545.8094 139.93553Q546.60626 139.24803 547.7625 139.24803Q549.04376 139.24803 549.85626 140.09178Q550.6844 140.9199 550.6844 142.40428Q550.6844 143.6074 550.325 144.2949Q549.96564 144.9824 549.2625 145.37303Q548.575 145.74803 547.7625 145.74803Q546.46564 145.74803 545.65314 144.9199Q544.85626 144.07616 544.85626 142.49803ZM545.9344 142.49803Q545.9344 143.68553 546.45 144.27928Q546.98126 144.87303 547.7625 144.87303Q548.5594 144.87303 549.075 144.27928Q549.59064 143.68553 549.59064 142.46678Q549.59064 141.31053 549.0594 140.71678Q548.54376 140.12303 547.7625 140.12303Q546.98126 140.12303 546.45 140.71678Q545.9344 141.2949 545.9344 142.49803ZM556.325 145.6074L556.325 144.68553Q555.59064 145.74803 554.34064 145.74803Q553.79376 145.74803 553.3094 145.5449Q552.84064 145.32616 552.60626 145.01366Q552.3719 144.68553 552.27814 144.21678Q552.21564 143.9199 552.21564 143.2324L552.21564 139.38866L553.27814 139.38866L553.27814 142.84178Q553.27814 143.65428 553.34064 143.95116Q553.4344 144.3574 553.7469 144.6074Q554.075 144.84178 554.5594 144.84178Q555.02814 144.84178 555.4344 144.6074Q555.85626 144.3574 556.02814 143.93553Q556.21564 143.51366 556.21564 142.71678L556.21564 139.38866L557.2625 139.38866L557.2625 145.6074L556.325 145.6074ZM559.23126 145.6074L559.23126 139.38866L560.1844 139.38866L560.1844 140.32616Q560.54376 139.6699 560.84064 139.46678Q561.15314 139.24803 561.52814 139.24803Q562.0594 139.24803 562.60626 139.57616L562.2469 140.56053Q561.85626 140.32616 561.48126 140.32616Q561.1219 140.32616 560.84064 140.5449Q560.575 140.74803 560.46564 141.12303Q560.27814 141.68553 560.27814 142.34178L560.27814 145.6074L559.23126 145.6074ZM562.825 143.74803L563.85626 143.59178Q563.95 144.21678 564.34064 144.5449Q564.7469 144.87303 565.48126 144.87303Q566.2 144.87303 566.54376 144.59178Q566.90314 144.2949 566.90314 143.88866Q566.90314 143.52928 566.59064 143.32616Q566.3719 143.18553 565.5125 142.96678Q564.35626 142.6699 563.90314 142.46678Q563.46564 142.24803 563.23126 141.87303Q562.9969 141.49803 562.9969 141.02928Q562.9969 140.62303 563.1844 140.26366Q563.3719 139.90428 563.7 139.6699Q563.95 139.49803 564.3719 139.37303Q564.79376 139.24803 565.29376 139.24803Q566.0125 139.24803 566.5594 139.46678Q567.1219 139.6699 567.3875 140.02928Q567.65314 140.38866 567.7469 140.9824L566.71564 141.12303Q566.65314 140.65428 566.3094 140.38866Q565.98126 140.1074 565.35626 140.1074Q564.6375 140.1074 564.325 140.3574Q564.0125 140.59178 564.0125 140.9199Q564.0125 141.12303 564.1375 141.27928Q564.27814 141.45116 564.54376 141.56053Q564.7 141.62303 565.48126 141.82616Q566.60626 142.13866 567.04376 142.32616Q567.48126 142.51366 567.73126 142.87303Q567.98126 143.2324 567.98126 143.77928Q567.98126 144.31053 567.66876 144.77928Q567.3719 145.2324 566.79376 145.49803Q566.21564 145.74803 565.48126 145.74803Q564.2625 145.74803 563.6219 145.24803Q562.9969 144.7324 562.825 143.74803ZM571.85626 142.49803Q571.85626 140.76366 572.8094 139.93553Q573.60626 139.24803 574.7625 139.24803Q576.04376 139.24803 576.85626 140.09178Q577.6844 140.9199 577.6844 142.40428Q577.6844 143.6074 577.325 144.2949Q576.96564 144.9824 576.2625 145.37303Q575.575 145.74803 574.7625 145.74803Q573.46564 145.74803 572.65314 144.9199Q571.85626 144.07616 571.85626 142.49803ZM572.9344 142.49803Q572.9344 143.68553 573.45 144.27928Q573.98126 144.87303 574.7625 144.87303Q575.5594 144.87303 576.075 144.27928Q576.59064 143.68553 576.59064 142.46678Q576.59064 141.31053 576.0594 140.71678Q575.54376 140.12303 574.7625 140.12303Q573.98126 140.12303 573.45 140.71678Q572.9344 141.2949 572.9344 142.49803ZM579.4969 145.6074L579.4969 140.20116L578.5594 140.20116L578.5594 139.38866L579.4969 139.38866L579.4969 138.71678Q579.4969 138.09178 579.60626 137.7949Q579.7625 137.37303 580.1375 137.12303Q580.52814 136.87303 581.21564 136.87303Q581.66876 136.87303 582.2 136.9824L582.04376 137.88866Q581.71564 137.84178 581.41876 137.84178Q580.9344 137.84178 580.73126 138.0449Q580.54376 138.24803 580.54376 138.81053L580.54376 139.38866L581.7625 139.38866L581.7625 140.20116L580.54376 140.20116L580.54376 145.6074L579.4969 145.6074Z" fill-rule="nonzero"></path>
  <path fill="#9e9e9e" d="M550.91876 162.6074L549.8719 162.6074L549.8719 155.88866Q549.48126 156.24803 548.85626 156.62303Q548.2469 156.9824 547.7625 157.15428L547.7625 156.13866Q548.6375 155.71678 549.29376 155.13866Q549.96564 154.5449 550.2469 153.9824L550.91876 153.9824L550.91876 162.6074ZM553.95 160.34178L555.0125 160.20116Q555.1844 161.09178 555.6219 161.49803Q556.0594 161.88866 556.6844 161.88866Q557.4344 161.88866 557.95 161.37303Q558.46564 160.8574 558.46564 160.09178Q558.46564 159.37303 557.98126 158.90428Q557.5125 158.4199 556.77814 158.4199Q556.48126 158.4199 556.02814 158.5449L556.15314 157.6074Q556.2625 157.62303 556.325 157.62303Q556.9969 157.62303 557.52814 157.27928Q558.075 156.9199 558.075 156.18553Q558.075 155.6074 557.6844 155.2324Q557.29376 154.84178 556.66876 154.84178Q556.0594 154.84178 555.6375 155.2324Q555.23126 155.62303 555.1219 156.38866L554.0594 156.20116Q554.2469 155.15428 554.9344 154.57616Q555.6219 153.9824 556.6375 153.9824Q557.34064 153.9824 557.9344 154.2949Q558.52814 154.59178 558.84064 155.1074Q559.15314 155.62303 559.15314 156.21678Q559.15314 156.76366 558.85626 157.2324Q558.5594 157.68553 557.98126 157.95116Q558.73126 158.12303 559.15314 158.68553Q559.575 159.2324 559.575 160.07616Q559.575 161.20116 558.7469 161.9824Q557.9344 162.76366 556.6844 162.76366Q555.5594 162.76366 554.8094 162.09178Q554.0594 161.40428 553.95 160.34178ZM561.54376 162.6074L561.54376 161.40428L562.7469 161.40428L562.7469 162.6074L561.54376 162.6074ZM567.91876 162.6074L566.8719 162.6074L566.8719 155.88866Q566.48126 156.24803 565.85626 156.62303Q565.2469 156.9824 564.7625 157.15428L564.7625 156.13866Q565.6375 155.71678 566.29376 155.13866Q566.96564 154.5449 567.2469 153.9824L567.91876 153.9824L567.91876 162.6074ZM571.15314 156.07616Q571.15314 155.15428 571.60626 154.51366Q572.075 153.87303 572.95 153.87303Q573.7625 153.87303 574.29376 154.45116Q574.825 155.02928 574.825 156.13866Q574.825 157.2324 574.27814 157.82616Q573.7469 158.40428 572.96564 158.40428Q572.1844 158.40428 571.66876 157.82616Q571.15314 157.24803 571.15314 156.07616ZM572.98126 154.59178Q572.59064 154.59178 572.325 154.93553Q572.075 155.27928 572.075 156.18553Q572.075 157.01366 572.325 157.3574Q572.59064 157.68553 572.98126 157.68553Q573.3875 157.68553 573.6375 157.34178Q573.90314 156.99803 573.90314 156.1074Q573.90314 155.26366 573.6375 154.93553Q573.3719 154.59178 572.98126 154.59178ZM572.98126 162.9199L577.6844 153.87303L578.54376 153.87303L573.85626 162.9199L572.98126 162.9199ZM576.7 160.59178Q576.7 159.6699 577.15314 159.02928Q577.6219 158.38866 578.5125 158.38866Q579.325 158.38866 579.85626 158.96678Q580.3875 159.52928 580.3875 160.65428Q580.3875 161.74803 579.84064 162.34178Q579.3094 162.9199 578.5125 162.9199Q577.7469 162.9199 577.21564 162.34178Q576.7 161.76366 576.7 160.59178ZM578.54376 159.1074Q578.1375 159.1074 577.8719 159.45116Q577.6219 159.7949 577.6219 160.70116Q577.6219 161.51366 577.8875 161.8574Q578.15314 162.20116 578.54376 162.20116Q578.9344 162.20116 579.2 161.8574Q579.46564 161.51366 579.46564 160.6074Q579.46564 159.77928 579.2 159.45116Q578.9344 159.1074 578.54376 159.1074Z" fill-rule="nonzero"></path>
  <path stroke="#757575" stroke-width="1.0" stroke-linecap="butt" d="M581.45 150.1074L454.76666 150.1074L430.77966 150.1074" fill-rule="nonzero"></path>
  <path fill="#9e9e9e" d="M432.77966 150.1074C432.77966 149.00284 431.88422 148.1074 430.77966 148.1074C429.67508 148.1074 428.77966 149.00284 428.77966 150.1074C428.77966 151.21198 429.67508 152.1074 430.77966 152.1074C431.88422 152.1074 432.77966 151.21198 432.77966 150.1074" fill-rule="nonzero"></path>
  <path fill="#1a1a1a" d="M466.325 262.51132L466.325 253.91757L469.5594 253.91757Q470.54376 253.91757 471.1375 254.1832Q471.73126 254.44882 472.0594 254.9957Q472.40314 255.52695 472.40314 256.1207Q472.40314 256.66757 472.10626 257.15195Q471.8094 257.63632 471.2 257.9332Q471.98126 258.16757 472.3875 258.73007Q472.8094 259.27695 472.8094 260.02695Q472.8094 260.6207 472.5594 261.15195Q472.3094 261.66757 471.9344 261.94882Q471.5594 262.23007 470.98126 262.3707Q470.41876 262.51132 469.60626 262.51132L466.325 262.51132ZM467.46564 257.52695L469.325 257.52695Q470.075 257.52695 470.40314 257.4332Q470.84064 257.3082 471.0594 257.01132Q471.27814 256.69882 471.27814 256.2457Q471.27814 255.82382 471.075 255.4957Q470.8719 255.16757 470.48126 255.0582Q470.10626 254.9332 469.1844 254.9332L467.46564 254.9332L467.46564 257.52695ZM467.46564 261.4957L469.60626 261.4957Q470.15314 261.4957 470.3719 261.44882Q470.77814 261.38632 471.02814 261.23007Q471.29376 261.0582 471.46564 260.7457Q471.6375 260.4332 471.6375 260.02695Q471.6375 259.54257 471.3875 259.1832Q471.15314 258.82382 470.71564 258.6832Q470.27814 258.54257 469.45 258.54257L467.46564 258.54257L467.46564 261.4957ZM478.4969 260.51132L479.59064 260.63632Q479.34064 261.58945 478.6375 262.1207Q477.9344 262.65195 476.85626 262.65195Q475.4969 262.65195 474.6844 261.8082Q473.8875 260.96445 473.8875 259.44882Q473.8875 257.88632 474.7 257.02695Q475.5125 256.15195 476.79376 256.15195Q478.04376 256.15195 478.825 256.9957Q479.6219 257.83945 479.6219 259.38632Q479.6219 259.48007 479.6219 259.66757L474.98126 259.66757Q475.04376 260.69882 475.5594 261.2457Q476.075 261.77695 476.85626 261.77695Q477.4344 261.77695 477.84064 261.48007Q478.2625 261.16757 478.4969 260.51132ZM475.04376 258.8082L478.5125 258.8082Q478.45 258.01132 478.1219 257.6207Q477.60626 257.01132 476.8094 257.01132Q476.075 257.01132 475.575 257.4957Q475.09064 257.98007 475.04376 258.8082ZM483.54376 261.57382L483.7 262.4957Q483.2469 262.58945 482.90314 262.58945Q482.325 262.58945 482.0125 262.41757Q481.7 262.23007 481.5594 261.9332Q481.4344 261.63632 481.4344 260.6832L481.4344 257.10507L480.66876 257.10507L480.66876 256.29257L481.4344 256.29257L481.4344 254.7457L482.48126 254.1207L482.48126 256.29257L483.54376 256.29257L483.54376 257.10507L482.48126 257.10507L482.48126 260.7457Q482.48126 261.19882 482.52814 261.32382Q482.59064 261.44882 482.71564 261.52695Q482.84064 261.60507 483.075 261.60507Q483.2625 261.60507 483.54376 261.57382ZM485.3875 262.51132L483.48126 256.29257L484.575 256.29257L485.5594 259.88632L485.9344 261.21445Q485.96564 261.1207 486.2625 259.9332L487.2469 256.29257L488.325 256.29257L489.2625 259.90195L489.575 261.08945L489.9344 259.88632L490.9969 256.29257L492.02814 256.29257L490.075 262.51132L488.98126 262.51132L487.9969 258.77695L487.7469 257.73007L486.4969 262.51132L485.3875 262.51132ZM497.4969 260.51132L498.59064 260.63632Q498.34064 261.58945 497.6375 262.1207Q496.9344 262.65195 495.85626 262.65195Q494.4969 262.65195 493.6844 261.8082Q492.8875 260.96445 492.8875 259.44882Q492.8875 257.88632 493.7 257.02695Q494.5125 256.15195 495.79376 256.15195Q497.04376 256.15195 497.825 256.9957Q498.6219 257.83945 498.6219 259.38632Q498.6219 259.48007 498.6219 259.66757L493.98126 259.66757Q494.04376 260.69882 494.5594 261.2457Q495.075 261.77695 495.85626 261.77695Q496.4344 261.77695 496.84064 261.48007Q497.2625 261.16757 497.4969 260.51132ZM494.04376 258.8082L497.5125 258.8082Q497.45 258.01132 497.1219 257.6207Q496.60626 257.01132 495.8094 257.01132Q495.075 257.01132 494.575 257.4957Q494.09064 257.98007 494.04376 258.8082ZM504.4969 260.51132L505.59064 260.63632Q505.34064 261.58945 504.6375 262.1207Q503.9344 262.65195 502.85626 262.65195Q501.4969 262.65195 500.6844 261.8082Q499.8875 260.96445 499.8875 259.44882Q499.8875 257.88632 500.7 257.02695Q501.5125 256.15195 502.79376 256.15195Q504.04376 256.15195 504.825 256.9957Q505.6219 257.83945 505.6219 259.38632Q505.6219 259.48007 505.6219 259.66757L500.98126 259.66757Q501.04376 260.69882 501.5594 261.2457Q502.075 261.77695 502.85626 261.77695Q503.4344 261.77695 503.84064 261.48007Q504.2625 261.16757 504.4969 260.51132ZM501.04376 258.8082L504.5125 258.8082Q504.45 258.01132 504.1219 257.6207Q503.60626 257.01132 502.8094 257.01132Q502.075 257.01132 501.575 257.4957Q501.09064 257.98007 501.04376 258.8082ZM507.2469 262.51132L507.2469 256.29257L508.1844 256.29257L508.1844 257.16757Q508.8719 256.15195 510.16876 256.15195Q510.73126 256.15195 511.2 256.35507Q511.6844 256.5582 511.91876 256.88632Q512.15314 257.21445 512.2469 257.65195Q512.29376 257.94882 512.29376 258.6832L512.29376 262.51132L511.2469 262.51132L511.2469 258.73007Q511.2469 258.07382 511.1219 257.76132Q510.9969 257.44882 510.6844 257.26132Q510.3719 257.0582 509.95 257.0582Q509.27814 257.0582 508.77814 257.4957Q508.29376 257.91757 508.29376 259.10507L508.29376 262.51132L507.2469 262.51132ZM516.95 260.26132L518.0594 260.16757Q518.1844 260.98007 518.6219 261.38632Q519.075 261.79257 519.71564 261.79257Q520.46564 261.79257 520.9969 261.21445Q521.52814 260.63632 521.52814 259.69882Q521.52814 258.79257 521.0125 258.27695Q520.5125 257.7457 519.6844 257.7457Q519.1844 257.7457 518.7625 257.98007Q518.35626 258.21445 518.1219 258.57382L517.1375 258.44882L517.96564 254.04257L522.2469 254.04257L522.2469 255.04257L518.8094 255.04257L518.35626 257.35507Q519.1219 256.8082 519.96564 256.8082Q521.09064 256.8082 521.85626 257.58945Q522.6375 258.3707 522.6375 259.60507Q522.6375 260.76132 521.96564 261.6207Q521.1375 262.65195 519.71564 262.65195Q518.54376 262.65195 517.79376 261.9957Q517.0594 261.33945 516.95 260.26132ZM526.825 259.9332L526.825 258.8707L530.075 258.8707L530.075 259.9332L526.825 259.9332ZM537.91876 262.51132L536.8719 262.51132L536.8719 255.79257Q536.48126 256.15195 535.85626 256.52695Q535.2469 256.88632 534.7625 257.0582L534.7625 256.04257Q535.6375 255.6207 536.29376 255.04257Q536.96564 254.44882 537.2469 253.88632L537.91876 253.88632L537.91876 262.51132ZM540.95 258.27695Q540.95 256.7457 541.2625 255.82382Q541.575 254.88632 542.1844 254.38632Q542.8094 253.88632 543.7469 253.88632Q544.4344 253.88632 544.95 254.16757Q545.48126 254.44882 545.825 254.98007Q546.16876 255.4957 546.35626 256.2457Q546.54376 256.9957 546.54376 258.27695Q546.54376 259.79257 546.23126 260.71445Q545.9344 261.63632 545.3094 262.15195Q544.7 262.65195 543.7469 262.65195Q542.5125 262.65195 541.79376 261.76132Q540.95 260.69882 540.95 258.27695ZM542.02814 258.27695Q542.02814 260.38632 542.52814 261.08945Q543.02814 261.79257 543.7469 261.79257Q544.48126 261.79257 544.96564 261.08945Q545.46564 260.38632 545.46564 258.27695Q545.46564 256.15195 544.96564 255.46445Q544.48126 254.76132 543.73126 254.76132Q543.0125 254.76132 542.575 255.3707Q542.02814 256.15195 542.02814 258.27695ZM551.2469 262.51132L551.2469 253.91757L552.29376 253.91757L552.29376 256.9957Q553.02814 256.15195 554.15314 256.15195Q554.85626 256.15195 555.35626 256.4332Q555.8719 256.69882 556.09064 257.1832Q556.3094 257.65195 556.3094 258.57382L556.3094 262.51132L555.2625 262.51132L555.2625 258.57382Q555.2625 257.77695 554.91876 257.41757Q554.575 257.0582 553.95 257.0582Q553.48126 257.0582 553.0594 257.3082Q552.65314 257.54257 552.46564 257.96445Q552.29376 258.3707 552.29376 259.10507L552.29376 262.51132L551.2469 262.51132ZM557.85626 259.40195Q557.85626 257.66757 558.8094 256.83945Q559.60626 256.15195 560.7625 256.15195Q562.04376 256.15195 562.85626 256.9957Q563.6844 257.82382 563.6844 259.3082Q563.6844 260.51132 563.325 261.19882Q562.96564 261.88632 562.2625 262.27695Q561.575 262.65195 560.7625 262.65195Q559.46564 262.65195 558.65314 261.82382Q557.85626 260.98007 557.85626 259.40195ZM558.9344 259.40195Q558.9344 260.58945 559.45 261.1832Q559.98126 261.77695 560.7625 261.77695Q561.5594 261.77695 562.075 261.1832Q562.59064 260.58945 562.59064 259.3707Q562.59064 258.21445 562.0594 257.6207Q561.54376 257.02695 560.7625 257.02695Q559.98126 257.02695 559.45 257.6207Q558.9344 258.19882 558.9344 259.40195ZM569.325 262.51132L569.325 261.58945Q568.59064 262.65195 567.34064 262.65195Q566.79376 262.65195 566.3094 262.44882Q565.84064 262.23007 565.60626 261.91757Q565.3719 261.58945 565.27814 261.1207Q565.21564 260.82382 565.21564 260.13632L565.21564 256.29257L566.27814 256.29257L566.27814 259.7457Q566.27814 260.5582 566.34064 260.85507Q566.4344 261.26132 566.7469 261.51132Q567.075 261.7457 567.5594 261.7457Q568.02814 261.7457 568.4344 261.51132Q568.85626 261.26132 569.02814 260.83945Q569.21564 260.41757 569.21564 259.6207L569.21564 256.29257L570.2625 256.29257L570.2625 262.51132L569.325 262.51132ZM572.23126 262.51132L572.23126 256.29257L573.1844 256.29257L573.1844 257.23007Q573.54376 256.57382 573.84064 256.3707Q574.15314 256.15195 574.52814 256.15195Q575.0594 256.15195 575.60626 256.48007L575.2469 257.46445Q574.85626 257.23007 574.48126 257.23007Q574.1219 257.23007 573.84064 257.44882Q573.575 257.65195 573.46564 258.02695Q573.27814 258.58945 573.27814 259.2457L573.27814 262.51132L572.23126 262.51132ZM575.825 260.65195L576.85626 260.4957Q576.95 261.1207 577.34064 261.44882Q577.7469 261.77695 578.48126 261.77695Q579.2 261.77695 579.54376 261.4957Q579.90314 261.19882 579.90314 260.79257Q579.90314 260.4332 579.59064 260.23007Q579.3719 260.08945 578.5125 259.8707Q577.35626 259.57382 576.90314 259.3707Q576.46564 259.15195 576.23126 258.77695Q575.9969 258.40195 575.9969 257.9332Q575.9969 257.52695 576.1844 257.16757Q576.3719 256.8082 576.7 256.57382Q576.95 256.40195 577.3719 256.27695Q577.79376 256.15195 578.29376 256.15195Q579.0125 256.15195 579.5594 256.3707Q580.1219 256.57382 580.3875 256.9332Q580.65314 257.29257 580.7469 257.88632L579.71564 258.02695Q579.65314 257.5582 579.3094 257.29257Q578.98126 257.01132 578.35626 257.01132Q577.6375 257.01132 577.325 257.26132Q577.0125 257.4957 577.0125 257.82382Q577.0125 258.02695 577.1375 258.1832Q577.27814 258.35507 577.54376 258.46445Q577.7 258.52695 578.48126 258.73007Q579.60626 259.04257 580.04376 259.23007Q580.48126 259.41757 580.73126 259.77695Q580.98126 260.13632 580.98126 260.6832Q580.98126 261.21445 580.66876 261.6832Q580.3719 262.13632 579.79376 262.40195Q579.21564 262.65195 578.48126 262.65195Q577.2625 262.65195 576.6219 262.15195Q575.9969 261.63632 575.825 260.65195Z" fill-rule="nonzero"></path>
  <path fill="#9e9e9e" d="M550.91876 279.51132L549.8719 279.51132L549.8719 272.79257Q549.48126 273.15195 548.85626 273.52695Q548.2469 273.88632 547.7625 274.0582L547.7625 273.04257Q548.6375 272.6207 549.29376 272.04257Q549.96564 271.44882 550.2469 270.88632L550.91876 270.88632L550.91876 279.51132ZM557.325 279.51132L557.325 277.44882L553.60626 277.44882L553.60626 276.48007L557.52814 270.91757L558.3875 270.91757L558.3875 276.48007L559.54376 276.48007L559.54376 277.44882L558.3875 277.44882L558.3875 279.51132L557.325 279.51132ZM557.325 276.48007L557.325 272.6207L554.6375 276.48007L557.325 276.48007ZM561.54376 279.51132L561.54376 278.3082L562.7469 278.3082L562.7469 279.51132L561.54376 279.51132ZM563.95 275.27695Q563.95 273.7457 564.2625 272.82382Q564.575 271.88632 565.1844 271.38632Q565.8094 270.88632 566.7469 270.88632Q567.4344 270.88632 567.95 271.16757Q568.48126 271.44882 568.825 271.98007Q569.16876 272.4957 569.35626 273.2457Q569.54376 273.9957 569.54376 275.27695Q569.54376 276.79257 569.23126 277.71445Q568.9344 278.63632 568.3094 279.15195Q567.7 279.65195 566.7469 279.65195Q565.5125 279.65195 564.79376 278.76132Q563.95 277.69882 563.95 275.27695ZM565.02814 275.27695Q565.02814 277.38632 565.52814 278.08945Q566.02814 278.79257 566.7469 278.79257Q567.48126 278.79257 567.96564 278.08945Q568.46564 277.38632 568.46564 275.27695Q568.46564 273.15195 567.96564 272.46445Q567.48126 271.76132 566.73126 271.76132Q566.0125 271.76132 565.575 272.3707Q565.02814 273.15195 565.02814 275.27695ZM571.15314 272.98007Q571.15314 272.0582 571.60626 271.41757Q572.075 270.77695 572.95 270.77695Q573.7625 270.77695 574.29376 271.35507Q574.825 271.9332 574.825 273.04257Q574.825 274.13632 574.27814 274.73007Q573.7469 275.3082 572.96564 275.3082Q572.1844 275.3082 571.66876 274.73007Q571.15314 274.15195 571.15314 272.98007ZM572.98126 271.4957Q572.59064 271.4957 572.325 271.83945Q572.075 272.1832 572.075 273.08945Q572.075 273.91757 572.325 274.26132Q572.59064 274.58945 572.98126 274.58945Q573.3875 274.58945 573.6375 274.2457Q573.90314 273.90195 573.90314 273.01132Q573.90314 272.16757 573.6375 271.83945Q573.3719 271.4957 572.98126 271.4957ZM572.98126 279.82382L577.6844 270.77695L578.54376 270.77695L573.85626 279.82382L572.98126 279.82382ZM576.7 277.4957Q576.7 276.57382 577.15314 275.9332Q577.6219 275.29257 578.5125 275.29257Q579.325 275.29257 579.85626 275.8707Q580.3875 276.4332 580.3875 277.5582Q580.3875 278.65195 579.84064 279.2457Q579.3094 279.82382 578.5125 279.82382Q577.7469 279.82382 577.21564 279.2457Q576.7 278.66757 576.7 277.4957ZM578.54376 276.01132Q578.1375 276.01132 577.8719 276.35507Q577.6219 276.69882 577.6219 277.60507Q577.6219 278.41757 577.8875 278.76132Q578.15314 279.10507 578.54376 279.10507Q578.9344 279.10507 579.2 278.76132Q579.46564 278.41757 579.46564 277.51132Q579.46564 276.6832 579.2 276.35507Q578.9344 276.01132 578.54376 276.01132Z" fill-rule="nonzero"></path>
  <path stroke="#757575" stroke-width="1.0" stroke-linecap="butt" d="M581.45 267.01132L454.76666 267.01132L426.3458 267.01132" fill-rule="nonzero"></path>
  <path fill="#9e9e9e" d="M428.3458 267.01132C428.3458 265.90677 427.45038 265.01132 426.3458 265.01132C425.24124 265.01132 424.3458 265.90677 424.3458 267.01132C424.3458 268.1159 425.24124 269.01132 426.3458 269.01132C427.45038 269.01132 428.3458 268.1159 428.3458 267.01132" fill-rule="nonzero"></path>
  <path fill="#1a1a1a" d="M465.325 332.45L465.325 323.85626L468.5594 323.85626Q469.54376 323.85626 470.1375 324.1219Q470.73126 324.3875 471.0594 324.9344Q471.40314 325.46564 471.40314 326.0594Q471.40314 326.60626 471.10626 327.09064Q470.8094 327.575 470.2 327.8719Q470.98126 328.10626 471.3875 328.66876Q471.8094 329.21564 471.8094 329.96564Q471.8094 330.5594 471.5594 331.09064Q471.3094 331.60626 470.9344 331.8875Q470.5594 332.16876 469.98126 332.3094Q469.41876 332.45 468.60626 332.45L465.325 332.45ZM466.46564 327.46564L468.325 327.46564Q469.075 327.46564 469.40314 327.3719Q469.84064 327.2469 470.0594 326.95Q470.27814 326.6375 470.27814 326.1844Q470.27814 325.7625 470.075 325.4344Q469.8719 325.10626 469.48126 324.9969Q469.10626 324.8719 468.1844 324.8719L466.46564 324.8719L466.46564 327.46564ZM466.46564 331.4344L468.60626 331.4344Q469.15314 331.4344 469.3719 331.3875Q469.77814 331.325 470.02814 331.16876Q470.29376 330.9969 470.46564 330.6844Q470.6375 330.3719 470.6375 329.96564Q470.6375 329.48126 470.3875 329.1219Q470.15314 328.7625 469.71564 328.6219Q469.27814 328.48126 468.45 328.48126L466.46564 328.48126L466.46564 331.4344ZM477.4969 330.45L478.59064 330.575Q478.34064 331.52814 477.6375 332.0594Q476.9344 332.59064 475.85626 332.59064Q474.4969 332.59064 473.6844 331.7469Q472.8875 330.90314 472.8875 329.3875Q472.8875 327.825 473.7 326.96564Q474.5125 326.09064 475.79376 326.09064Q477.04376 326.09064 477.825 326.9344Q478.6219 327.77814 478.6219 329.325Q478.6219 329.41876 478.6219 329.60626L473.98126 329.60626Q474.04376 330.6375 474.5594 331.1844Q475.075 331.71564 475.85626 331.71564Q476.4344 331.71564 476.84064 331.41876Q477.2625 331.10626 477.4969 330.45ZM474.04376 328.7469L477.5125 328.7469Q477.45 327.95 477.1219 327.5594Q476.60626 326.95 475.8094 326.95Q475.075 326.95 474.575 327.4344Q474.09064 327.91876 474.04376 328.7469ZM482.54376 331.5125L482.7 332.4344Q482.2469 332.52814 481.90314 332.52814Q481.325 332.52814 481.0125 332.35626Q480.7 332.16876 480.5594 331.8719Q480.4344 331.575 480.4344 330.6219L480.4344 327.04376L479.66876 327.04376L479.66876 326.23126L480.4344 326.23126L480.4344 324.6844L481.48126 324.0594L481.48126 326.23126L482.54376 326.23126L482.54376 327.04376L481.48126 327.04376L481.48126 330.6844Q481.48126 331.1375 481.52814 331.2625Q481.59064 331.3875 481.71564 331.46564Q481.84064 331.54376 482.075 331.54376Q482.2625 331.54376 482.54376 331.5125ZM484.3875 332.45L482.48126 326.23126L483.575 326.23126L484.5594 329.825L484.9344 331.15314Q484.96564 331.0594 485.2625 329.8719L486.2469 326.23126L487.325 326.23126L488.2625 329.84064L488.575 331.02814L488.9344 329.825L489.9969 326.23126L491.02814 326.23126L489.075 332.45L487.98126 332.45L486.9969 328.71564L486.7469 327.66876L485.4969 332.45L484.3875 332.45ZM496.4969 330.45L497.59064 330.575Q497.34064 331.52814 496.6375 332.0594Q495.9344 332.59064 494.85626 332.59064Q493.4969 332.59064 492.6844 331.7469Q491.8875 330.90314 491.8875 329.3875Q491.8875 327.825 492.7 326.96564Q493.5125 326.09064 494.79376 326.09064Q496.04376 326.09064 496.825 326.9344Q497.6219 327.77814 497.6219 329.325Q497.6219 329.41876 497.6219 329.60626L492.98126 329.60626Q493.04376 330.6375 493.5594 331.1844Q494.075 331.71564 494.85626 331.71564Q495.4344 331.71564 495.84064 331.41876Q496.2625 331.10626 496.4969 330.45ZM493.04376 328.7469L496.5125 328.7469Q496.45 327.95 496.1219 327.5594Q495.60626 326.95 494.8094 326.95Q494.075 326.95 493.575 327.4344Q493.09064 327.91876 493.04376 328.7469ZM503.4969 330.45L504.59064 330.575Q504.34064 331.52814 503.6375 332.0594Q502.9344 332.59064 501.85626 332.59064Q500.4969 332.59064 499.6844 331.7469Q498.8875 330.90314 498.8875 329.3875Q498.8875 327.825 499.7 326.96564Q500.5125 326.09064 501.79376 326.09064Q503.04376 326.09064 503.825 326.9344Q504.6219 327.77814 504.6219 329.325Q504.6219 329.41876 504.6219 329.60626L499.98126 329.60626Q500.04376 330.6375 500.5594 331.1844Q501.075 331.71564 501.85626 331.71564Q502.4344 331.71564 502.84064 331.41876Q503.2625 331.10626 503.4969 330.45ZM500.04376 328.7469L503.5125 328.7469Q503.45 327.95 503.1219 327.5594Q502.60626 326.95 501.8094 326.95Q501.075 326.95 500.575 327.4344Q500.09064 327.91876 500.04376 328.7469ZM506.2469 332.45L506.2469 326.23126L507.1844 326.23126L507.1844 327.10626Q507.8719 326.09064 509.16876 326.09064Q509.73126 326.09064 510.2 326.29376Q510.6844 326.4969 510.91876 326.825Q511.15314 327.15314 511.2469 327.59064Q511.29376 327.8875 511.29376 328.6219L511.29376 332.45L510.2469 332.45L510.2469 328.66876Q510.2469 328.0125 510.1219 327.7Q509.9969 327.3875 509.6844 327.2Q509.3719 326.9969 508.95 326.9969Q508.27814 326.9969 507.77814 327.4344Q507.29376 327.85626 507.29376 329.04376L507.29376 332.45L506.2469 332.45ZM519.91876 332.45L518.8719 332.45L518.8719 325.73126Q518.48126 326.09064 517.85626 326.46564Q517.2469 326.825 516.7625 326.9969L516.7625 325.98126Q517.6375 325.5594 518.29376 324.98126Q518.96564 324.3875 519.2469 323.825L519.91876 323.825L519.91876 332.45ZM526.91876 332.45L525.8719 332.45L525.8719 325.73126Q525.48126 326.09064 524.85626 326.46564Q524.2469 326.825 523.7625 326.9969L523.7625 325.98126Q524.6375 325.5594 525.29376 324.98126Q525.96564 324.3875 526.2469 323.825L526.91876 323.825L526.91876 332.45ZM529.825 329.8719L529.825 328.8094L533.075 328.8094L533.075 329.8719L529.825 329.8719ZM539.4969 331.4344L539.4969 332.45L533.8094 332.45Q533.8094 332.075 533.9344 331.71564Q534.15314 331.1375 534.6219 330.575Q535.10626 330.0125 536.0125 329.27814Q537.41876 328.1219 537.90314 327.45Q538.40314 326.77814 538.40314 326.1844Q538.40314 325.5594 537.95 325.1375Q537.4969 324.7 536.77814 324.7Q536.0125 324.7 535.5594 325.15314Q535.10626 325.60626 535.09064 326.41876L534.0125 326.3094Q534.1219 325.09064 534.84064 324.46564Q535.575 323.825 536.8094 323.825Q538.04376 323.825 538.7625 324.5125Q539.48126 325.2 539.48126 326.21564Q539.48126 326.73126 539.2625 327.23126Q539.0594 327.71564 538.5594 328.27814Q538.075 328.825 536.95 329.77814Q535.9969 330.575 535.71564 330.8719Q535.45 331.15314 535.27814 331.4344L539.4969 331.4344ZM540.95 328.21564Q540.95 326.6844 541.2625 325.7625Q541.575 324.825 542.1844 324.325Q542.8094 323.825 543.7469 323.825Q544.4344 323.825 544.95 324.10626Q545.48126 324.3875 545.825 324.91876Q546.16876 325.4344 546.35626 326.1844Q546.54376 326.9344 546.54376 328.21564Q546.54376 329.73126 546.23126 330.65314Q545.9344 331.575 545.3094 332.09064Q544.7 332.59064 543.7469 332.59064Q542.5125 332.59064 541.79376 331.7Q540.95 330.6375 540.95 328.21564ZM542.02814 328.21564Q542.02814 330.325 542.52814 331.02814Q543.02814 331.73126 543.7469 331.73126Q544.48126 331.73126 544.96564 331.02814Q545.46564 330.325 545.46564 328.21564Q545.46564 326.09064 544.96564 325.40314Q544.48126 324.7 543.73126 324.7Q543.0125 324.7 542.575 325.3094Q542.02814 326.09064 542.02814 328.21564ZM551.2469 332.45L551.2469 323.85626L552.29376 323.85626L552.29376 326.9344Q553.02814 326.09064 554.15314 326.09064Q554.85626 326.09064 555.35626 326.3719Q555.8719 326.6375 556.09064 327.1219Q556.3094 327.59064 556.3094 328.5125L556.3094 332.45L555.2625 332.45L555.2625 328.5125Q555.2625 327.71564 554.91876 327.35626Q554.575 326.9969 553.95 326.9969Q553.48126 326.9969 553.0594 327.2469Q552.65314 327.48126 552.46564 327.90314Q552.29376 328.3094 552.29376 329.04376L552.29376 332.45L551.2469 332.45ZM557.85626 329.34064Q557.85626 327.60626 558.8094 326.77814Q559.60626 326.09064 560.7625 326.09064Q562.04376 326.09064 562.85626 326.9344Q563.6844 327.7625 563.6844 329.2469Q563.6844 330.45 563.325 331.1375Q562.96564 331.825 562.2625 332.21564Q561.575 332.59064 560.7625 332.59064Q559.46564 332.59064 558.65314 331.7625Q557.85626 330.91876 557.85626 329.34064ZM558.9344 329.34064Q558.9344 330.52814 559.45 331.1219Q559.98126 331.71564 560.7625 331.71564Q561.5594 331.71564 562.075 331.1219Q562.59064 330.52814 562.59064 329.3094Q562.59064 328.15314 562.0594 327.5594Q561.54376 326.96564 560.7625 326.96564Q559.98126 326.96564 559.45 327.5594Q558.9344 328.1375 558.9344 329.34064ZM569.325 332.45L569.325 331.52814Q568.59064 332.59064 567.34064 332.59064Q566.79376 332.59064 566.3094 332.3875Q565.84064 332.16876 565.60626 331.85626Q565.3719 331.52814 565.27814 331.0594Q565.21564 330.7625 565.21564 330.075L565.21564 326.23126L566.27814 326.23126L566.27814 329.6844Q566.27814 330.4969 566.34064 330.79376Q566.4344 331.2 566.7469 331.45Q567.075 331.6844 567.5594 331.6844Q568.02814 331.6844 568.4344 331.45Q568.85626 331.2 569.02814 330.77814Q569.21564 330.35626 569.21564 329.5594L569.21564 326.23126L570.2625 326.23126L570.2625 332.45L569.325 332.45ZM572.23126 332.45L572.23126 326.23126L573.1844 326.23126L573.1844 327.16876Q573.54376 326.5125 573.84064 326.3094Q574.15314 326.09064 574.52814 326.09064Q575.0594 326.09064 575.60626 326.41876L575.2469 327.40314Q574.85626 327.16876 574.48126 327.16876Q574.1219 327.16876 573.84064 327.3875Q573.575 327.59064 573.46564 327.96564Q573.27814 328.52814 573.27814 329.1844L573.27814 332.45L572.23126 332.45ZM575.825 330.59064L576.85626 330.4344Q576.95 331.0594 577.34064 331.3875Q577.7469 331.71564 578.48126 331.71564Q579.2 331.71564 579.54376 331.4344Q579.90314 331.1375 579.90314 330.73126Q579.90314 330.3719 579.59064 330.16876Q579.3719 330.02814 578.5125 329.8094Q577.35626 329.5125 576.90314 329.3094Q576.46564 329.09064 576.23126 328.71564Q575.9969 328.34064 575.9969 327.8719Q575.9969 327.46564 576.1844 327.10626Q576.3719 326.7469 576.7 326.5125Q576.95 326.34064 577.3719 326.21564Q577.79376 326.09064 578.29376 326.09064Q579.0125 326.09064 579.5594 326.3094Q580.1219 326.5125 580.3875 326.8719Q580.65314 327.23126 580.7469 327.825L579.71564 327.96564Q579.65314 327.4969 579.3094 327.23126Q578.98126 326.95 578.35626 326.95Q577.6375 326.95 577.325 327.2Q577.0125 327.4344 577.0125 327.7625Q577.0125 327.96564 577.1375 328.1219Q577.27814 328.29376 577.54376 328.40314Q577.7 328.46564 578.48126 328.66876Q579.60626 328.98126 580.04376 329.16876Q580.48126 329.35626 580.73126 329.71564Q580.98126 330.075 580.98126 330.6219Q580.98126 331.15314 580.66876 331.6219Q580.3719 332.075 579.79376 332.34064Q579.21564 332.59064 578.48126 332.59064Q577.2625 332.59064 576.6219 332.09064Q575.9969 331.575 575.825 330.59064Z" fill-rule="nonzero"></path>
  <path fill="#9e9e9e" d="M550.91876 349.45L549.8719 349.45L549.8719 342.73126Q549.48126 343.09064 548.85626 343.46564Q548.2469 343.825 547.7625 343.9969L547.7625 342.98126Q548.6375 342.5594 549.29376 341.98126Q549.96564 341.3875 550.2469 340.825L550.91876 340.825L550.91876 349.45ZM559.4969 348.4344L559.4969 349.45L553.8094 349.45Q553.8094 349.075 553.9344 348.71564Q554.15314 348.1375 554.6219 347.575Q555.10626 347.0125 556.0125 346.27814Q557.41876 345.1219 557.90314 344.45Q558.40314 343.77814 558.40314 343.1844Q558.40314 342.5594 557.95 342.1375Q557.4969 341.7 556.77814 341.7Q556.0125 341.7 555.5594 342.15314Q555.10626 342.60626 555.09064 343.41876L554.0125 343.3094Q554.1219 342.09064 554.84064 341.46564Q555.575 340.825 556.8094 340.825Q558.04376 340.825 558.7625 341.5125Q559.48126 342.2 559.48126 343.21564Q559.48126 343.73126 559.2625 344.23126Q559.0594 344.71564 558.5594 345.27814Q558.075 345.825 556.95 346.77814Q555.9969 347.575 555.71564 347.8719Q555.45 348.15314 555.27814 348.4344L559.4969 348.4344ZM561.54376 349.45L561.54376 348.2469L562.7469 348.2469L562.7469 349.45L561.54376 349.45ZM564.0125 341.98126L564.0125 340.96564L569.575 340.96564L569.575 341.79376Q568.7625 342.66876 567.95 344.1219Q567.15314 345.5594 566.71564 347.09064Q566.3875 348.16876 566.3094 349.45L565.21564 349.45Q565.23126 348.4344 565.60626 346.9969Q565.9969 345.5594 566.7 344.23126Q567.41876 342.90314 568.23126 341.98126L564.0125 341.98126ZM571.15314 342.91876Q571.15314 341.9969 571.60626 341.35626Q572.075 340.71564 572.95 340.71564Q573.7625 340.71564 574.29376 341.29376Q574.825 341.8719 574.825 342.98126Q574.825 344.075 574.27814 344.66876Q573.7469 345.2469 572.96564 345.2469Q572.1844 345.2469 571.66876 344.66876Q571.15314 344.09064 571.15314 342.91876ZM572.98126 341.4344Q572.59064 341.4344 572.325 341.77814Q572.075 342.1219 572.075 343.02814Q572.075 343.85626 572.325 344.2Q572.59064 344.52814 572.98126 344.52814Q573.3875 344.52814 573.6375 344.1844Q573.90314 343.84064 573.90314 342.95Q573.90314 342.10626 573.6375 341.77814Q573.3719 341.4344 572.98126 341.4344ZM572.98126 349.7625L577.6844 340.71564L578.54376 340.71564L573.85626 349.7625L572.98126 349.7625ZM576.7 347.4344Q576.7 346.5125 577.15314 345.8719Q577.6219 345.23126 578.5125 345.23126Q579.325 345.23126 579.85626 345.8094Q580.3875 346.3719 580.3875 347.4969Q580.3875 348.59064 579.84064 349.1844Q579.3094 349.7625 578.5125 349.7625Q577.7469 349.7625 577.21564 349.1844Q576.7 348.60626 576.7 347.4344ZM578.54376 345.95Q578.1375 345.95 577.8719 346.29376Q577.6219 346.6375 577.6219 347.54376Q577.6219 348.35626 577.8875 348.7Q578.15314 349.04376 578.54376 349.04376Q578.9344 349.04376 579.2 348.7Q579.46564 348.35626 579.46564 347.45Q579.46564 346.6219 579.2 346.29376Q578.9344 345.95 578.54376 345.95Z" fill-rule="nonzero"></path>
  <path stroke="#757575" stroke-width="1.0" stroke-linecap="butt" d="M581.45 336.95L454.76666 336.95L337.32983 339.99246" fill-rule="nonzero"></path>
  <path fill="#9e9e9e" d="M339.32983 339.99246C339.32983 338.8879 338.43442 337.99246 337.32983 337.99246C336.22528 337.99246 335.32983 338.8879 335.32983 339.99246C335.32983 341.09705 336.22528 341.99246 337.32983 341.99246C338.43442 341.99246 339.32983 341.09705 339.32983 339.99246" fill-rule="nonzero"></path>
  <path fill="#757575" d="M20.159374 37.55L20.159374 23.2375L22.05 23.2375L22.05 29.1125L29.4875 29.1125L29.4875 23.2375L31.378124 23.2375L31.378124 37.55L29.4875 37.55L29.4875 30.8L22.05 30.8L22.05 37.55L20.159374 37.55ZM33.221874 32.3625Q33.221874 29.4875 34.815624 28.096874Q36.159374 26.940624 38.08125 26.940624Q40.221874 26.940624 41.565624 28.346874Q42.925 29.753124 42.925 32.221874Q42.925 34.221874 42.33125 35.378124Q41.7375 36.51875 40.58125 37.159374Q39.440624 37.784374 38.08125 37.784374Q35.89375 37.784374 34.55 36.39375Q33.221874 34.9875 33.221874 32.3625ZM35.01875 32.3625Q35.01875 34.3625 35.878124 35.346874Q36.753124 36.33125 38.08125 36.33125Q39.39375 36.33125 40.253124 35.346874Q41.128124 34.346874 41.128124 32.3Q41.128124 30.378124 40.253124 29.39375Q39.378124 28.39375 38.08125 28.39375Q36.753124 28.39375 35.878124 29.39375Q35.01875 30.378124 35.01875 32.3625ZM51.659374 37.55L51.659374 36.01875Q50.45625 37.784374 48.378124 37.784374Q47.45625 37.784374 46.659374 37.440624Q45.8625 37.08125 45.471874 36.55Q45.096874 36.01875 44.940624 35.2375Q44.83125 34.721874 44.83125 33.596874L44.83125 27.175L46.58125 27.175L46.58125 32.925Q46.58125 34.3 46.690624 34.784374Q46.8625 35.471874 47.39375 35.878124Q47.940624 36.26875 48.721874 36.26875Q49.51875 36.26875 50.20625 35.8625Q50.909374 35.45625 51.190624 34.76875Q51.4875 34.065624 51.4875 32.7375L51.4875 27.175L53.2375 27.175L53.2375 37.55L51.659374 37.55ZM55.846874 37.55L55.846874 27.175L57.425 27.175L57.425 28.753124Q58.034374 27.64375 58.55 27.3Q59.065624 26.940624 59.675 26.940624Q60.565624 26.940624 61.4875 27.503124L60.878124 29.14375Q60.2375 28.753124 59.596874 28.753124Q59.01875 28.753124 58.55 29.1125Q58.096874 29.45625 57.89375 30.065624Q57.6125 31.003124 57.6125 32.1125L57.6125 37.55L55.846874 37.55ZM62.159374 34.45625L63.909374 34.175Q64.05 35.221874 64.72188 35.784374Q65.39375 36.33125 66.59688 36.33125Q67.8 36.33125 68.37813 35.846874Q68.97188 35.346874 68.97188 34.690624Q68.97188 34.096874 68.45625 33.753124Q68.09688 33.51875 66.65938 33.159374Q64.72188 32.659374 63.971874 32.315624Q63.2375 31.95625 62.846874 31.33125Q62.45625 30.690624 62.45625 29.925Q62.45625 29.2375 62.76875 28.64375Q63.096874 28.05 63.64375 27.659374Q64.05 27.3625 64.75313 27.159374Q65.47188 26.940624 66.28438 26.940624Q67.50313 26.940624 68.425 27.3Q69.34688 27.64375 69.78438 28.253124Q70.22188 28.846874 70.39375 29.846874L68.675 30.08125Q68.55 29.284374 67.9875 28.846874Q67.425 28.39375 66.40938 28.39375Q65.19063 28.39375 64.675 28.8Q64.15938 29.190624 64.15938 29.721874Q64.15938 30.065624 64.37813 30.346874Q64.58125 30.628124 65.05 30.815624Q65.31563 30.909374 66.59688 31.253124Q68.47188 31.753124 69.20625 32.08125Q69.94063 32.39375 70.3625 33.003124Q70.78438 33.596874 70.78438 34.503124Q70.78438 35.378124 70.26875 36.159374Q69.75313 36.940624 68.78438 37.3625Q67.81563 37.784374 66.59688 37.784374Q64.58125 37.784374 63.51875 36.940624Q62.45625 36.096874 62.159374 34.45625ZM79.09688 37.55L79.09688 23.2375L84.4875 23.2375Q85.925 23.2375 86.675 23.3625Q87.72188 23.55 88.44063 24.05Q89.15938 24.534374 89.58125 25.425Q90.01875 26.315624 90.01875 27.378124Q90.01875 29.20625 88.84688 30.471874Q87.69063 31.721874 84.65938 31.721874L80.9875 31.721874L80.9875 37.55L79.09688 37.55ZM80.9875 30.034374L84.69063 30.034374Q86.51875 30.034374 87.28438 29.3625Q88.06563 28.675 88.06563 27.425Q88.06563 26.534374 87.6125 25.89375Q87.15938 25.253124 86.425 25.05Q85.94063 24.925 84.64375 24.925L80.9875 24.925L80.9875 30.034374ZM98.97188 34.20625L100.78438 34.440624Q100.3625 36.01875 99.19063 36.909374Q98.03438 37.784374 96.22188 37.784374Q93.95625 37.784374 92.6125 36.39375Q91.28438 34.9875 91.28438 32.45625Q91.28438 29.83125 92.62813 28.39375Q93.97188 26.940624 96.12813 26.940624Q98.20625 26.940624 99.51875 28.3625Q100.84688 29.76875 100.84688 32.346874Q100.84688 32.503124 100.83125 32.815624L93.09688 32.815624Q93.19063 34.51875 94.06563 35.425Q94.94063 36.33125 96.2375 36.33125Q97.20625 36.33125 97.87813 35.83125Q98.56563 35.315624 98.97188 34.20625ZM93.19063 31.3625L98.9875 31.3625Q98.87813 30.065624 98.33125 29.409374Q97.4875 28.39375 96.14375 28.39375Q94.94063 28.39375 94.1125 29.20625Q93.28438 30.003124 93.19063 31.3625ZM102.84688 37.55L102.84688 27.175L104.425 27.175L104.425 28.753124Q105.03438 27.64375 105.55 27.3Q106.06563 26.940624 106.675 26.940624Q107.56563 26.940624 108.4875 27.503124L107.87813 29.14375Q107.2375 28.753124 106.59688 28.753124Q106.01875 28.753124 105.55 29.1125Q105.09688 29.45625 104.89375 30.065624Q104.6125 31.003124 104.6125 32.1125L104.6125 37.55L102.84688 37.55ZM118.59688 37.55L114.8 23.2375L116.7375 23.2375L118.90938 32.6125Q119.26875 34.096874 119.51875 35.55Q120.06563 33.253124 120.15938 32.89375L122.89375 23.2375L125.175 23.2375L127.22188 30.471874Q128.00313 33.175 128.34688 35.55Q128.6125 34.190624 129.05 32.425L131.3 23.2375L133.20625 23.2375L129.28438 37.55L127.45625 37.55L124.44063 26.64375Q124.05 25.26875 123.9875 24.95625Q123.75313 25.940624 123.56563 26.64375L120.53438 37.55L118.59688 37.55ZM141.97188 34.20625L143.78438 34.440624Q143.3625 36.01875 142.19063 36.909374Q141.03438 37.784374 139.22188 37.784374Q136.95625 37.784374 135.6125 36.39375Q134.28438 34.9875 134.28438 32.45625Q134.28438 29.83125 135.62813 28.39375Q136.97188 26.940624 139.12813 26.940624Q141.20625 26.940624 142.51875 28.3625Q143.84688 29.76875 143.84688 32.346874Q143.84688 32.503124 143.83125 32.815624L136.09688 32.815624Q136.19063 34.51875 137.06563 35.425Q137.94063 36.33125 139.2375 36.33125Q140.20625 36.33125 140.87813 35.83125Q141.56563 35.315624 141.97188 34.20625ZM136.19063 31.3625L141.9875 31.3625Q141.87813 30.065624 141.33125 29.409374Q140.4875 28.39375 139.14375 28.39375Q137.94063 28.39375 137.1125 29.20625Q136.28438 30.003124 136.19063 31.3625ZM152.97188 34.20625L154.78438 34.440624Q154.3625 36.01875 153.19063 36.909374Q152.03438 37.784374 150.22188 37.784374Q147.95625 37.784374 146.6125 36.39375Q145.28438 34.9875 145.28438 32.45625Q145.28438 29.83125 146.62813 28.39375Q147.97188 26.940624 150.12813 26.940624Q152.20625 26.940624 153.51875 28.3625Q154.84688 29.76875 154.84688 32.346874Q154.84688 32.503124 154.83125 32.815624L147.09688 32.815624Q147.19063 34.51875 148.06563 35.425Q148.94063 36.33125 150.2375 36.33125Q151.20625 36.33125 151.87813 35.83125Q152.56563 35.315624 152.97188 34.20625ZM147.19063 31.3625L152.9875 31.3625Q152.87813 30.065624 152.33125 29.409374Q151.4875 28.39375 150.14375 28.39375Q148.94063 28.39375 148.1125 29.20625Q147.28438 30.003124 147.19063 31.3625ZM156.87813 37.55L156.87813 23.2375L158.64375 23.2375L158.64375 31.39375L162.8 27.175L165.06563 27.175L161.1125 31.01875L165.47188 37.55L163.3 37.55L159.87813 32.253124L158.64375 33.440624L158.64375 37.55L156.87813 37.55ZM172.45625 32.95625L174.2375 32.8Q174.3625 33.8625 174.81563 34.55Q175.28438 35.2375 176.25313 35.675Q177.2375 36.096874 178.47188 36.096874Q179.55 36.096874 180.37813 35.784374Q181.20625 35.45625 181.6125 34.89375Q182.01875 34.33125 182.01875 33.659374Q182.01875 32.9875 181.62813 32.4875Q181.2375 31.9875 180.34688 31.64375Q179.76875 31.409374 177.78438 30.940624Q175.81563 30.471874 175.03438 30.05Q174.00313 29.51875 173.50313 28.721874Q173.00313 27.925 173.00313 26.940624Q173.00313 25.846874 173.6125 24.909374Q174.22188 23.971874 175.40938 23.4875Q176.59688 22.9875 178.03438 22.9875Q179.62813 22.9875 180.84688 23.503124Q182.06563 24.01875 182.70625 25.01875Q183.3625 26.003124 183.40938 27.26875L181.59688 27.409374Q181.45625 26.05 180.6125 25.3625Q179.76875 24.659374 178.1125 24.659374Q176.39375 24.659374 175.59688 25.3Q174.81563 25.925 174.81563 26.8Q174.81563 27.58125 175.37813 28.08125Q175.925 28.58125 178.2375 29.096874Q180.55 29.6125 181.40938 30.003124Q182.65938 30.58125 183.25313 31.471874Q183.84688 32.346874 183.84688 33.503124Q183.84688 34.64375 183.19063 35.659374Q182.53438 36.675 181.3 37.2375Q180.08125 37.8 178.55 37.8Q176.6125 37.8 175.3 37.2375Q173.9875 36.659374 173.2375 35.51875Q172.4875 34.378124 172.45625 32.95625ZM185.8625 41.51875L185.8625 27.175L187.47188 27.175L187.47188 28.51875Q188.03438 27.7375 188.7375 27.346874Q189.45625 26.940624 190.47188 26.940624Q191.8 26.940624 192.81563 27.628124Q193.83125 28.315624 194.34688 29.565624Q194.87813 30.8 194.87813 32.284374Q194.87813 33.878124 194.3 35.159374Q193.7375 36.425 192.64375 37.1125Q191.55 37.784374 190.34688 37.784374Q189.47188 37.784374 188.76875 37.409374Q188.08125 37.034374 187.62813 36.471874L187.62813 41.51875L185.8625 41.51875ZM187.45625 32.425Q187.45625 34.425 188.26875 35.378124Q189.08125 36.33125 190.2375 36.33125Q191.40938 36.33125 192.2375 35.346874Q193.08125 34.3625 193.08125 32.26875Q193.08125 30.3 192.25313 29.315624Q191.44063 28.315624 190.31563 28.315624Q189.19063 28.315624 188.31563 29.378124Q187.45625 30.425 187.45625 32.425ZM203.97188 34.20625L205.78438 34.440624Q205.3625 36.01875 204.19063 36.909374Q203.03438 37.784374 201.22188 37.784374Q198.95625 37.784374 197.6125 36.39375Q196.28438 34.9875 196.28438 32.45625Q196.28438 29.83125 197.62813 28.39375Q198.97188 26.940624 201.12813 26.940624Q203.20625 26.940624 204.51875 28.3625Q205.84688 29.76875 205.84688 32.346874Q205.84688 32.503124 205.83125 32.815624L198.09688 32.815624Q198.19063 34.51875 199.06563 35.425Q199.94063 36.33125 201.2375 36.33125Q202.20625 36.33125 202.87813 35.83125Q203.56563 35.315624 203.97188 34.20625ZM198.19063 31.3625L203.9875 31.3625Q203.87813 30.065624 203.33125 29.409374Q202.4875 28.39375 201.14375 28.39375Q199.94063 28.39375 199.1125 29.20625Q198.28438 30.003124 198.19063 31.3625ZM207.8625 37.55L207.8625 27.175L209.45625 27.175L209.45625 28.659374Q210.59688 26.940624 212.75313 26.940624Q213.69063 26.940624 214.47188 27.284374Q215.26875 27.6125 215.65938 28.159374Q216.05 28.70625 216.20625 29.45625Q216.3 29.95625 216.3 31.175L216.3 37.55L214.53438 37.55L214.53438 31.2375Q214.53438 30.159374 214.33125 29.628124Q214.12813 29.096874 213.59688 28.784374Q213.08125 28.471874 212.37813 28.471874Q211.25313 28.471874 210.44063 29.190624Q209.62813 29.89375 209.62813 31.878124L209.62813 37.55L207.8625 37.55ZM222.70625 35.971874L222.95625 37.534374Q222.22188 37.690624 221.62813 37.690624Q220.675 37.690624 220.14375 37.39375Q219.62813 37.08125 219.40938 36.596874Q219.19063 36.096874 219.19063 34.51875L219.19063 28.55L217.90938 28.55L217.90938 27.175L219.19063 27.175L219.19063 24.6125L220.94063 23.55L220.94063 27.175L222.70625 27.175L222.70625 28.55L220.94063 28.55L220.94063 34.6125Q220.94063 35.3625 221.03438 35.58125Q221.12813 35.784374 221.33125 35.925Q221.55 36.05 221.94063 36.05Q222.22188 36.05 222.70625 35.971874ZM241.31563 32.534374L243.20625 33.003124Q242.6125 35.346874 241.06563 36.58125Q239.51875 37.8 237.26875 37.8Q234.95625 37.8 233.50313 36.8625Q232.06563 35.909374 231.3 34.128124Q230.55 32.33125 230.55 30.284374Q230.55 28.05 231.39375 26.39375Q232.25313 24.721874 233.83125 23.8625Q235.40938 22.9875 237.3 22.9875Q239.45625 22.9875 240.90938 24.08125Q242.37813 25.175 242.95625 27.159374L241.09688 27.596874Q240.59688 26.034374 239.64375 25.33125Q238.70625 24.6125 237.26875 24.6125Q235.6125 24.6125 234.50313 25.409374Q233.39375 26.190624 232.94063 27.534374Q232.50313 28.8625 232.50313 30.26875Q232.50313 32.096874 233.03438 33.471874Q233.56563 34.83125 234.69063 35.503124Q235.81563 36.175 237.1125 36.175Q238.70625 36.175 239.81563 35.253124Q240.925 34.33125 241.31563 32.534374ZM244.22188 32.3625Q244.22188 29.4875 245.81563 28.096874Q247.15938 26.940624 249.08125 26.940624Q251.22188 26.940624 252.56563 28.346874Q253.925 29.753124 253.925 32.221874Q253.925 34.221874 253.33125 35.378124Q252.7375 36.51875 251.58125 37.159374Q250.44063 37.784374 249.08125 37.784374Q246.89375 37.784374 245.55 36.39375Q244.22188 34.9875 244.22188 32.3625ZM246.01875 32.3625Q246.01875 34.3625 246.87813 35.346874Q247.75313 36.33125 249.08125 36.33125Q250.39375 36.33125 251.25313 35.346874Q252.12813 34.346874 252.12813 32.3Q252.12813 30.378124 251.25313 29.39375Q250.37813 28.39375 249.08125 28.39375Q247.75313 28.39375 246.87813 29.39375Q246.01875 30.378124 246.01875 32.3625ZM262.59686 37.55L262.59686 36.2375Q261.6125 37.784374 259.6906 37.784374Q258.45624 37.784374 257.40936 37.096874Q256.3781 36.409374 255.8 35.190624Q255.2375 33.971874 255.2375 32.378124Q255.2375 30.815624 255.75313 29.55Q256.26874 28.284374 257.3 27.6125Q258.34686 26.940624 259.6125 26.940624Q260.55 26.940624 261.28436 27.346874Q262.01874 27.7375 262.4875 28.3625L262.4875 23.2375L264.22186 23.2375L264.22186 37.55L262.59686 37.55ZM257.03436 32.378124Q257.03436 34.3625 257.8781 35.346874Q258.72186 36.33125 259.8625 36.33125Q261.01874 36.33125 261.8156 35.39375Q262.6281 34.45625 262.6281 32.51875Q262.6281 30.39375 261.8 29.39375Q260.9875 28.39375 259.78436 28.39375Q258.6125 28.39375 257.8156 29.3625Q257.03436 30.315624 257.03436 32.378124ZM266.8781 25.253124L266.8781 23.2375L268.64374 23.2375L268.64374 25.253124L266.8781 25.253124ZM266.8781 37.55L266.8781 27.175L268.64374 27.175L268.64374 37.55L266.8781 37.55ZM270.8625 37.55L270.8625 27.175L272.45624 27.175L272.45624 28.659374Q273.59686 26.940624 275.7531 26.940624Q276.6906 26.940624 277.47186 27.284374Q278.26874 27.6125 278.65936 28.159374Q279.05 28.70625 279.20624 29.45625Q279.3 29.95625 279.3 31.175L279.3 37.55L277.53436 37.55L277.53436 31.2375Q277.53436 30.159374 277.33124 29.628124Q277.1281 29.096874 276.59686 28.784374Q276.08124 28.471874 275.3781 28.471874Q274.2531 28.471874 273.4406 29.190624Q272.6281 29.89375 272.6281 31.878124L272.6281 37.55L270.8625 37.55ZM281.55 38.409374L283.2531 38.659374Q283.3625 39.45625 283.84686 39.815624Q284.5031 40.3 285.64374 40.3Q286.8625 40.3 287.51874 39.815624Q288.1906 39.33125 288.425 38.45625Q288.5656 37.909374 288.55 36.190624Q287.39374 37.55 285.675 37.55Q283.53436 37.55 282.3625 36.003124Q281.1906 34.45625 281.1906 32.3Q281.1906 30.815624 281.72186 29.565624Q282.26874 28.315624 283.28436 27.628124Q284.3156 26.940624 285.6906 26.940624Q287.51874 26.940624 288.72186 28.425L288.72186 27.175L290.33124 27.175L290.33124 36.14375Q290.33124 38.565624 289.83124 39.565624Q289.34686 40.58125 288.26874 41.159374Q287.20624 41.753124 285.64374 41.753124Q283.8 41.753124 282.64374 40.925Q281.5031 40.096874 281.55 38.409374ZM283.0031 32.175Q283.0031 34.221874 283.8156 35.159374Q284.6281 36.096874 285.84686 36.096874Q287.05 36.096874 287.8625 35.159374Q288.6906 34.221874 288.6906 32.2375Q288.6906 30.33125 287.84686 29.3625Q287.0031 28.39375 285.8156 28.39375Q284.64374 28.39375 283.8156 29.346874Q283.0031 30.3 283.0031 32.175ZM293.33124 37.55L293.33124 35.55L295.33124 35.55L295.33124 37.55Q295.33124 38.659374 294.9406 39.33125Q294.55 40.01875 293.70624 40.378124L293.20624 39.628124Q293.76874 39.39375 294.03436 38.909374Q294.3 38.440624 294.33124 37.55L293.33124 37.55ZM311.97186 34.20625L313.78436 34.440624Q313.3625 36.01875 312.1906 36.909374Q311.03436 37.784374 309.22186 37.784374Q306.95624 37.784374 305.6125 36.39375Q304.28436 34.9875 304.28436 32.45625Q304.28436 29.83125 305.6281 28.39375Q306.97186 26.940624 309.1281 26.940624Q311.20624 26.940624 312.51874 28.3625Q313.84686 29.76875 313.84686 32.346874Q313.84686 32.503124 313.83124 32.815624L306.09686 32.815624Q306.1906 34.51875 307.0656 35.425Q307.9406 36.33125 309.2375 36.33125Q310.20624 36.33125 310.8781 35.83125Q311.5656 35.315624 311.97186 34.20625ZM306.1906 31.3625L311.9875 31.3625Q311.8781 30.065624 311.33124 29.409374Q310.4875 28.39375 309.14374 28.39375Q307.9406 28.39375 307.1125 29.20625Q306.28436 30.003124 306.1906 31.3625ZM319.70624 35.971874L319.95624 37.534374Q319.22186 37.690624 318.6281 37.690624Q317.675 37.690624 317.14374 37.39375Q316.6281 37.08125 316.40936 36.596874Q316.1906 36.096874 316.1906 34.51875L316.1906 28.55L314.90936 28.55L314.90936 27.175L316.1906 27.175L316.1906 24.6125L317.9406 23.55L317.9406 27.175L319.70624 27.175L319.70624 28.55L317.9406 28.55L317.9406 34.6125Q317.9406 35.3625 318.03436 35.58125Q318.1281 35.784374 318.33124 35.925Q318.55 36.05 318.9406 36.05Q319.22186 36.05 319.70624 35.971874ZM328.64374 33.753124L330.3625 33.971874Q330.08124 35.76875 328.90936 36.784374Q327.7531 37.784374 326.05 37.784374Q323.925 37.784374 322.6281 36.39375Q321.33124 35.003124 321.33124 32.409374Q321.33124 30.721874 321.8781 29.471874Q322.4406 28.20625 323.58124 27.58125Q324.72186 26.940624 326.0656 26.940624Q327.7531 26.940624 328.8156 27.8Q329.89374 28.659374 330.20624 30.221874L328.4875 30.4875Q328.2531 29.440624 327.6281 28.925Q327.0031 28.39375 326.1281 28.39375Q324.8 28.39375 323.97186 29.346874Q323.14374 30.3 323.14374 32.346874Q323.14374 34.440624 323.9406 35.39375Q324.7375 36.33125 326.03436 36.33125Q327.0656 36.33125 327.7531 35.70625Q328.45624 35.065624 328.64374 33.753124ZM332.3625 37.55L332.3625 35.55L334.3625 35.55L334.3625 37.55L332.3625 37.55Z" fill-rule="nonzero"></path>
</svg>
