<?xml version="1.0" encoding="UTF-8"?>
<svg xmlns:xlink="http://www.w3.org/1999/xlink" xmlns="http://www.w3.org/2000/svg" version="1.1" viewBox="0.0 0.0 600.0 371.0" fill="none" stroke="none" stroke-linecap="square" stroke-miterlimit="10" width="600" height="371">
  <path fill="#ffffff" d="M0 0L600.0 0L600.0 371.0L0 371.0L0 0Z" fill-rule="nonzero"></path>
  <path fill="#34a853" d="M300.0 54.916668C355.72116 54.916668 406.7706 86.055084 432.2722 135.59818L300.0 203.68333Z" fill-rule="nonzero"></path>
  <path fill="#ea4335" d="M230.05908 72.38295C251.5882 60.91486 275.60696 54.916668 300.0 54.916668L300.0 203.68333Z" fill-rule="nonzero"></path>
  <path fill="#ff6d01" d="M177.02704 119.962524C190.58957 100.04127 208.78882 83.71317 230.05908 72.38295L300.0 203.68333Z" fill-rule="nonzero"></path>
  <path fill="#fbbc04" d="M175.5033 285.121C142.59723 234.81628 143.19843 169.65154 177.02704 119.962524L300.0 203.68333Z" fill-rule="nonzero"></path>
  <path fill="#4285f4" d="M432.2722 135.59818C468.50046 205.98053 443.2684 292.40677 374.86243 332.24124C306.45645 372.0757 218.83647 351.366 175.5033 285.121L300.0 203.68333Z" fill-rule="nonzero"></path>
  <path fill="#1a1a1a" d="M21.925 65.916664L18.596874 57.322914L19.83125 57.322914L22.065624 63.572914Q22.33125 64.322914 22.51875 64.979164Q22.721874 64.27604 22.9875 63.572914L25.3 57.322914L26.45625 57.322914L23.096874 65.916664L21.925 65.916664ZM31.596874 63.916664L32.690624 64.041664Q32.440624 64.99479 31.7375 65.52604Q31.034374 66.05729 29.95625 66.05729Q28.596874 66.05729 27.784374 65.21354Q26.9875 64.36979 26.9875 62.854164Q26.9875 61.291664 27.8 60.43229Q28.6125 59.55729 29.89375 59.55729Q31.14375 59.55729 31.925 60.40104Q32.721874 61.24479 32.721874 62.791664Q32.721874 62.885414 32.721874 63.072914L28.08125 63.072914Q28.14375 64.104164 28.659374 64.65104Q29.175 65.18229 29.95625 65.18229Q30.534374 65.18229 30.940624 64.885414Q31.3625 64.572914 31.596874 63.916664ZM28.14375 62.21354L31.6125 62.21354Q31.55 61.416664 31.221874 61.02604Q30.70625 60.416664 29.909374 60.416664Q29.175 60.416664 28.675 60.90104Q28.190624 61.385414 28.14375 62.21354ZM34.33125 65.916664L34.33125 59.697914L35.284374 59.697914L35.284374 60.635414Q35.64375 59.979164 35.940624 59.77604Q36.253124 59.55729 36.628124 59.55729Q37.159374 59.55729 37.70625 59.885414L37.346874 60.86979Q36.95625 60.635414 36.58125 60.635414Q36.221874 60.635414 35.940624 60.854164Q35.675 61.05729 35.565624 61.43229Q35.378124 61.99479 35.378124 62.65104L35.378124 65.916664L34.33125 65.916664ZM38.3 68.30729L38.175 67.322914Q38.51875 67.416664 38.784374 67.416664Q39.128124 67.416664 39.33125 67.291664Q39.55 67.18229 39.690624 66.979164Q39.784374 66.80729 40.01875 66.18229Q40.034374 66.104164 40.1125 65.93229L37.7375 59.697914L38.878124 59.697914L40.175 63.291664Q40.425 63.979164 40.628124 64.74479Q40.815624 64.010414 41.065624 63.322914L42.39375 59.697914L43.440624 59.697914L41.08125 66.02604Q40.690624 67.041664 40.4875 67.43229Q40.20625 67.96354 39.83125 68.197914Q39.471874 68.447914 38.971874 68.447914Q38.675 68.447914 38.3 68.30729ZM47.471874 65.916664L47.471874 57.322914L50.440624 57.322914Q51.440624 57.322914 51.971874 57.447914Q52.70625 57.61979 53.221874 58.05729Q53.909374 58.635414 54.2375 59.541664Q54.58125 60.43229 54.58125 61.572914Q54.58125 62.55729 54.346874 63.30729Q54.128124 64.05729 53.76875 64.55729Q53.409374 65.05729 52.971874 65.33854Q52.55 65.61979 51.95625 65.77604Q51.3625 65.916664 50.58125 65.916664L47.471874 65.916664ZM48.6125 64.90104L50.440624 64.90104Q51.3 64.90104 51.784374 64.74479Q52.26875 64.58854 52.55 64.291664Q52.95625 63.90104 53.175 63.21354Q53.409374 62.52604 53.409374 61.55729Q53.409374 60.21354 52.95625 59.49479Q52.51875 58.760414 51.89375 58.510414Q51.425 58.33854 50.425 58.33854L48.6125 58.33854L48.6125 64.90104ZM56.346874 58.541664L56.346874 57.322914L57.409374 57.322914L57.409374 58.541664L56.346874 58.541664ZM56.346874 65.916664L56.346874 59.697914L57.409374 59.697914L57.409374 65.916664L56.346874 65.916664ZM58.925 64.05729L59.95625 63.90104Q60.05 64.52604 60.440624 64.854164Q60.846874 65.18229 61.58125 65.18229Q62.3 65.18229 62.64375 64.90104Q63.003124 64.604164 63.003124 64.197914Q63.003124 63.83854 62.690624 63.635414Q62.471874 63.49479 61.6125 63.27604Q60.45625 62.979164 60.003124 62.77604Q59.565624 62.55729 59.33125 62.18229Q59.096874 61.80729 59.096874 61.33854Q59.096874 60.93229 59.284374 60.572914Q59.471874 60.21354 59.8 59.979164Q60.05 59.80729 60.471874 59.68229Q60.89375 59.55729 61.39375 59.55729Q62.1125 59.55729 62.659374 59.77604Q63.221874 59.979164 63.4875 60.33854Q63.753124 60.697914 63.846874 61.291664L62.815624 61.43229Q62.753124 60.96354 62.409374 60.697914Q62.08125 60.416664 61.45625 60.416664Q60.7375 60.416664 60.425 60.666664Q60.1125 60.90104 60.1125 61.229164Q60.1125 61.43229 60.2375 61.58854Q60.378124 61.760414 60.64375 61.86979Q60.8 61.93229 61.58125 62.135414Q62.70625 62.447914 63.14375 62.635414Q63.58125 62.822914 63.83125 63.18229Q64.08125 63.541664 64.08125 64.08854Q64.08125 64.61979 63.76875 65.08854Q63.471874 65.541664 62.89375 65.80729Q62.315624 66.05729 61.58125 66.05729Q60.3625 66.05729 59.721874 65.55729Q59.096874 65.041664 58.925 64.05729ZM64.925 64.05729L65.95625 63.90104Q66.05 64.52604 66.44063 64.854164Q66.84688 65.18229 67.58125 65.18229Q68.3 65.18229 68.64375 64.90104Q69.00313 64.604164 69.00313 64.197914Q69.00313 63.83854 68.69063 63.635414Q68.47188 63.49479 67.6125 63.27604Q66.45625 62.979164 66.00313 62.77604Q65.56563 62.55729 65.33125 62.18229Q65.09688 61.80729 65.09688 61.33854Q65.09688 60.93229 65.28438 60.572914Q65.47188 60.21354 65.8 59.979164Q66.05 59.80729 66.47188 59.68229Q66.89375 59.55729 67.39375 59.55729Q68.1125 59.55729 68.65938 59.77604Q69.22188 59.979164 69.4875 60.33854Q69.75313 60.697914 69.84688 61.291664L68.81563 61.43229Q68.75313 60.96354 68.40938 60.697914Q68.08125 60.416664 67.45625 60.416664Q66.7375 60.416664 66.425 60.666664Q66.1125 60.90104 66.1125 61.229164Q66.1125 61.43229 66.2375 61.58854Q66.37813 61.760414 66.64375 61.86979Q66.8 61.93229 67.58125 62.135414Q68.70625 62.447914 69.14375 62.635414Q69.58125 62.822914 69.83125 63.18229Q70.08125 63.541664 70.08125 64.08854Q70.08125 64.61979 69.76875 65.08854Q69.47188 65.541664 68.89375 65.80729Q68.31563 66.05729 67.58125 66.05729Q66.3625 66.05729 65.72188 65.55729Q65.09688 65.041664 64.925 64.05729ZM75.40938 65.15104Q74.81563 65.65104 74.26875 65.854164Q73.7375 66.05729 73.1125 66.05729Q72.08125 66.05729 71.53438 65.55729Q70.9875 65.05729 70.9875 64.27604Q70.9875 63.822914 71.19063 63.447914Q71.39375 63.05729 71.7375 62.83854Q72.08125 62.604164 72.50313 62.49479Q72.8 62.40104 73.44063 62.322914Q74.70625 62.18229 75.31563 61.96354Q75.31563 61.74479 75.31563 61.697914Q75.31563 61.041664 75.01875 60.77604Q74.6125 60.43229 73.81563 60.43229Q73.08125 60.43229 72.72188 60.697914Q72.3625 60.947914 72.19063 61.604164L71.15938 61.46354Q71.3 60.80729 71.62813 60.40104Q71.95625 59.99479 72.56563 59.77604Q73.175 59.55729 73.97188 59.55729Q74.76875 59.55729 75.26875 59.74479Q75.76875 59.93229 76.00313 60.21354Q76.2375 60.49479 76.33125 60.93229Q76.37813 61.197914 76.37813 61.90104L76.37813 63.30729Q76.37813 64.77604 76.44063 65.166664Q76.51875 65.55729 76.72188 65.916664L75.6125 65.916664Q75.45625 65.58854 75.40938 65.15104ZM75.31563 62.791664Q74.7375 63.02604 73.59688 63.197914Q72.94063 63.291664 72.675 63.416664Q72.40938 63.52604 72.25313 63.74479Q72.1125 63.96354 72.1125 64.24479Q72.1125 64.666664 72.425 64.947914Q72.75313 65.229164 73.3625 65.229164Q73.97188 65.229164 74.44063 64.96354Q74.925 64.697914 75.14375 64.229164Q75.31563 63.86979 75.31563 63.18229L75.31563 62.791664ZM80.64375 64.979164L80.8 65.90104Q80.34688 65.99479 80.00313 65.99479Q79.425 65.99479 79.1125 65.822914Q78.8 65.635414 78.65938 65.33854Q78.53438 65.041664 78.53438 64.08854L78.53438 60.510414L77.76875 60.510414L77.76875 59.697914L78.53438 59.697914L78.53438 58.15104L79.58125 57.52604L79.58125 59.697914L80.64375 59.697914L80.64375 60.510414L79.58125 60.510414L79.58125 64.15104Q79.58125 64.604164 79.62813 64.729164Q79.69063 64.854164 79.81563 64.93229Q79.94063 65.010414 80.175 65.010414Q80.3625 65.010414 80.64375 64.979164ZM81.34688 58.541664L81.34688 57.322914L82.40938 57.322914L82.40938 58.541664L81.34688 58.541664ZM81.34688 65.916664L81.34688 59.697914L82.40938 59.697914L82.40938 65.916664L81.34688 65.916664ZM83.925 64.05729L84.95625 63.90104Q85.05 64.52604 85.44063 64.854164Q85.84688 65.18229 86.58125 65.18229Q87.3 65.18229 87.64375 64.90104Q88.00313 64.604164 88.00313 64.197914Q88.00313 63.83854 87.69063 63.635414Q87.47188 63.49479 86.6125 63.27604Q85.45625 62.979164 85.00313 62.77604Q84.56563 62.55729 84.33125 62.18229Q84.09688 61.80729 84.09688 61.33854Q84.09688 60.93229 84.28438 60.572914Q84.47188 60.21354 84.8 59.979164Q85.05 59.80729 85.47188 59.68229Q85.89375 59.55729 86.39375 59.55729Q87.1125 59.55729 87.65938 59.77604Q88.22188 59.979164 88.4875 60.33854Q88.75313 60.697914 88.84688 61.291664L87.81563 61.43229Q87.75313 60.96354 87.40938 60.697914Q87.08125 60.416664 86.45625 60.416664Q85.7375 60.416664 85.425 60.666664Q85.1125 60.90104 85.1125 61.229164Q85.1125 61.43229 85.2375 61.58854Q85.37813 61.760414 85.64375 61.86979Q85.8 61.93229 86.58125 62.135414Q87.70625 62.447914 88.14375 62.635414Q88.58125 62.822914 88.83125 63.18229Q89.08125 63.541664 89.08125 64.08854Q89.08125 64.61979 88.76875 65.08854Q88.47188 65.541664 87.89375 65.80729Q87.31563 66.05729 86.58125 66.05729Q85.3625 66.05729 84.72188 65.55729Q84.09688 65.041664 83.925 64.05729ZM90.59688 65.916664L90.59688 60.510414L89.65938 60.510414L89.65938 59.697914L90.59688 59.697914L90.59688 59.02604Q90.59688 58.40104 90.70625 58.104164Q90.8625 57.68229 91.2375 57.43229Q91.62813 57.18229 92.31563 57.18229Q92.76875 57.18229 93.3 57.291664L93.14375 58.197914Q92.81563 58.15104 92.51875 58.15104Q92.03438 58.15104 91.83125 58.354164Q91.64375 58.55729 91.64375 59.11979L91.64375 59.697914L92.8625 59.697914L92.8625 60.510414L91.64375 60.510414L91.64375 65.916664L90.59688 65.916664ZM93.34688 58.541664L93.34688 57.322914L94.40938 57.322914L94.40938 58.541664L93.34688 58.541664ZM93.34688 65.916664L93.34688 59.697914L94.40938 59.697914L94.40938 65.916664L93.34688 65.916664ZM100.59688 63.916664L101.69063 64.041664Q101.44063 64.99479 100.7375 65.52604Q100.03438 66.05729 98.95625 66.05729Q97.59688 66.05729 96.78438 65.21354Q95.9875 64.36979 95.9875 62.854164Q95.9875 61.291664 96.8 60.43229Q97.6125 59.55729 98.89375 59.55729Q100.14375 59.55729 100.925 60.40104Q101.72188 61.24479 101.72188 62.791664Q101.72188 62.885414 101.72188 63.072914L97.08125 63.072914Q97.14375 64.104164 97.65938 64.65104Q98.175 65.18229 98.95625 65.18229Q99.53438 65.18229 99.94063 64.885414Q100.3625 64.572914 100.59688 63.916664ZM97.14375 62.21354L100.6125 62.21354Q100.55 61.416664 100.22188 61.02604Q99.70625 60.416664 98.90938 60.416664Q98.175 60.416664 97.675 60.90104Q97.19063 61.385414 97.14375 62.21354ZM107.37813 65.916664L107.37813 65.135414Q106.78438 66.05729 105.64375 66.05729Q104.89375 66.05729 104.26875 65.65104Q103.64375 65.229164 103.3 64.49479Q102.95625 63.760414 102.95625 62.80729Q102.95625 61.885414 103.26875 61.11979Q103.58125 60.354164 104.20625 59.96354Q104.83125 59.55729 105.59688 59.55729Q106.15938 59.55729 106.59688 59.791664Q107.03438 60.02604 107.31563 60.40104L107.31563 57.322914L108.3625 57.322914L108.3625 65.916664L107.37813 65.916664ZM104.05 62.80729Q104.05 64.010414 104.55 64.604164Q105.05 65.18229 105.7375 65.18229Q106.425 65.18229 106.90938 64.61979Q107.39375 64.05729 107.39375 62.90104Q107.39375 61.61979 106.89375 61.02604Q106.40938 60.43229 105.69063 60.43229Q104.9875 60.43229 104.51875 61.010414Q104.05 61.572914 104.05 62.80729Z" fill-rule="nonzero"></path>
  <path fill="#9e9e9e" d="M19.1125 75.447914L19.1125 74.43229L24.675 74.43229L24.675 75.260414Q23.8625 76.135414 23.05 77.58854Q22.253124 79.02604 21.815624 80.55729Q21.4875 81.635414 21.409374 82.916664L20.315624 82.916664Q20.33125 81.90104 20.70625 80.46354Q21.096874 79.02604 21.8 77.697914Q22.51875 76.36979 23.33125 75.447914L19.1125 75.447914ZM26.64375 82.916664L26.64375 81.71354L27.846874 81.71354L27.846874 82.916664L26.64375 82.916664ZM30.675 78.260414Q30.01875 78.010414 29.690624 77.572914Q29.378124 77.11979 29.378124 76.510414Q29.378124 75.572914 30.05 74.93229Q30.7375 74.291664 31.846874 74.291664Q32.971874 74.291664 33.659374 74.947914Q34.346874 75.604164 34.346874 76.541664Q34.346874 77.135414 34.034374 77.572914Q33.721874 78.010414 33.08125 78.260414Q33.878124 78.510414 34.284374 79.08854Q34.690624 79.666664 34.690624 80.46354Q34.690624 81.55729 33.909374 82.30729Q33.14375 83.05729 31.8625 83.05729Q30.596874 83.05729 29.815624 82.30729Q29.034374 81.55729 29.034374 80.43229Q29.034374 79.58854 29.45625 79.02604Q29.89375 78.46354 30.675 78.260414ZM30.45625 76.46354Q30.45625 77.072914 30.846874 77.46354Q31.253124 77.854164 31.878124 77.854164Q32.4875 77.854164 32.878124 77.479164Q33.26875 77.08854 33.26875 76.52604Q33.26875 75.947914 32.8625 75.55729Q32.45625 75.15104 31.8625 75.15104Q31.253124 75.15104 30.846874 75.541664Q30.45625 75.93229 30.45625 76.46354ZM30.128124 80.43229Q30.128124 80.885414 30.33125 81.30729Q30.55 81.729164 30.971874 81.96354Q31.39375 82.197914 31.878124 82.197914Q32.628124 82.197914 33.1125 81.71354Q33.6125 81.229164 33.6125 80.479164Q33.6125 79.71354 33.1125 79.21354Q32.6125 78.71354 31.846874 78.71354Q31.096874 78.71354 30.6125 79.21354Q30.128124 79.697914 30.128124 80.43229ZM36.253124 76.385414Q36.253124 75.46354 36.70625 74.822914Q37.175 74.18229 38.05 74.18229Q38.8625 74.18229 39.39375 74.760414Q39.925 75.33854 39.925 76.447914Q39.925 77.541664 39.378124 78.135414Q38.846874 78.71354 38.065624 78.71354Q37.284374 78.71354 36.76875 78.135414Q36.253124 77.55729 36.253124 76.385414ZM38.08125 74.90104Q37.690624 74.90104 37.425 75.24479Q37.175 75.58854 37.175 76.49479Q37.175 77.322914 37.425 77.666664Q37.690624 77.99479 38.08125 77.99479Q38.4875 77.99479 38.7375 77.65104Q39.003124 77.30729 39.003124 76.416664Q39.003124 75.572914 38.7375 75.24479Q38.471874 74.90104 38.08125 74.90104ZM38.08125 83.229164L42.784374 74.18229L43.64375 74.18229L38.95625 83.229164L38.08125 83.229164ZM41.8 80.90104Q41.8 79.979164 42.253124 79.33854Q42.721874 78.697914 43.6125 78.697914Q44.425 78.697914 44.95625 79.27604Q45.4875 79.83854 45.4875 80.96354Q45.4875 82.05729 44.940624 82.65104Q44.409374 83.229164 43.6125 83.229164Q42.846874 83.229164 42.315624 82.65104Q41.8 82.072914 41.8 80.90104ZM43.64375 79.416664Q43.2375 79.416664 42.971874 79.760414Q42.721874 80.104164 42.721874 81.010414Q42.721874 81.822914 42.9875 82.166664Q43.253124 82.510414 43.64375 82.510414Q44.034374 82.510414 44.3 82.166664Q44.565624 81.822914 44.565624 80.916664Q44.565624 80.08854 44.3 79.760414Q44.034374 79.416664 43.64375 79.416664Z" fill-rule="nonzero"></path>
  <path stroke="#757575" stroke-width="1.0" stroke-linecap="butt" d="M18.55 70.416664L145.23334 70.416664L265.75778 66.56598" fill-rule="nonzero"></path>
  <path fill="#9e9e9e" d="M267.75778 66.56598C267.75778 65.46141 266.86237 64.56598 265.75778 64.56598C264.65323 64.56598 263.75778 65.46141 263.75778 66.56598C263.75778 67.67055 264.65323 68.56598 265.75778 68.56598C266.86237 68.56598 267.75778 67.67055 267.75778 66.56598" fill-rule="nonzero"></path>
  <path fill="#1a1a1a" d="M19.471874 96.916664L19.471874 88.322914L22.440624 88.322914Q23.440624 88.322914 23.971874 88.447914Q24.70625 88.61979 25.221874 89.05729Q25.909374 89.635414 26.2375 90.541664Q26.58125 91.43229 26.58125 92.572914Q26.58125 93.55729 26.346874 94.30729Q26.128124 95.05729 25.76875 95.55729Q25.409374 96.05729 24.971874 96.33854Q24.55 96.61979 23.95625 96.77604Q23.3625 96.916664 22.58125 96.916664L19.471874 96.916664ZM20.6125 95.90104L22.440624 95.90104Q23.3 95.90104 23.784374 95.74479Q24.26875 95.58854 24.55 95.291664Q24.95625 94.90104 25.175 94.21354Q25.409374 93.52604 25.409374 92.55729Q25.409374 91.21354 24.95625 90.49479Q24.51875 89.760414 23.89375 89.510414Q23.425 89.33854 22.425 89.33854L20.6125 89.33854L20.6125 95.90104ZM28.346874 89.541664L28.346874 88.322914L29.409374 88.322914L29.409374 89.541664L28.346874 89.541664ZM28.346874 96.916664L28.346874 90.697914L29.409374 90.697914L29.409374 96.916664L28.346874 96.916664ZM30.925 95.05729L31.95625 94.90104Q32.05 95.52604 32.440624 95.854164Q32.846874 96.18229 33.58125 96.18229Q34.3 96.18229 34.64375 95.90104Q35.003124 95.604164 35.003124 95.197914Q35.003124 94.83854 34.690624 94.635414Q34.471874 94.49479 33.6125 94.27604Q32.45625 93.979164 32.003124 93.77604Q31.565624 93.55729 31.33125 93.18229Q31.096874 92.80729 31.096874 92.33854Q31.096874 91.93229 31.284374 91.572914Q31.471874 91.21354 31.8 90.979164Q32.05 90.80729 32.471874 90.68229Q32.89375 90.55729 33.39375 90.55729Q34.1125 90.55729 34.659374 90.77604Q35.221874 90.979164 35.4875 91.33854Q35.753124 91.697914 35.846874 92.291664L34.815624 92.43229Q34.753124 91.96354 34.409374 91.697914Q34.08125 91.416664 33.45625 91.416664Q32.7375 91.416664 32.425 91.666664Q32.1125 91.90104 32.1125 92.229164Q32.1125 92.43229 32.2375 92.58854Q32.378124 92.760414 32.64375 92.86979Q32.8 92.93229 33.58125 93.135414Q34.70625 93.447914 35.14375 93.635414Q35.58125 93.822914 35.83125 94.18229Q36.08125 94.541664 36.08125 95.08854Q36.08125 95.61979 35.76875 96.08854Q35.471874 96.541664 34.89375 96.80729Q34.315624 97.05729 33.58125 97.05729Q32.3625 97.05729 31.721874 96.55729Q31.096874 96.041664 30.925 95.05729ZM36.925 95.05729L37.95625 94.90104Q38.05 95.52604 38.440624 95.854164Q38.846874 96.18229 39.58125 96.18229Q40.3 96.18229 40.64375 95.90104Q41.003124 95.604164 41.003124 95.197914Q41.003124 94.83854 40.690624 94.635414Q40.471874 94.49479 39.6125 94.27604Q38.45625 93.979164 38.003124 93.77604Q37.565624 93.55729 37.33125 93.18229Q37.096874 92.80729 37.096874 92.33854Q37.096874 91.93229 37.284374 91.572914Q37.471874 91.21354 37.8 90.979164Q38.05 90.80729 38.471874 90.68229Q38.89375 90.55729 39.39375 90.55729Q40.1125 90.55729 40.659374 90.77604Q41.221874 90.979164 41.4875 91.33854Q41.753124 91.697914 41.846874 92.291664L40.815624 92.43229Q40.753124 91.96354 40.409374 91.697914Q40.08125 91.416664 39.45625 91.416664Q38.7375 91.416664 38.425 91.666664Q38.1125 91.90104 38.1125 92.229164Q38.1125 92.43229 38.2375 92.58854Q38.378124 92.760414 38.64375 92.86979Q38.8 92.93229 39.58125 93.135414Q40.70625 93.447914 41.14375 93.635414Q41.58125 93.822914 41.83125 94.18229Q42.08125 94.541664 42.08125 95.08854Q42.08125 95.61979 41.76875 96.08854Q41.471874 96.541664 40.89375 96.80729Q40.315624 97.05729 39.58125 97.05729Q38.3625 97.05729 37.721874 96.55729Q37.096874 96.041664 36.925 95.05729ZM47.409374 96.15104Q46.815624 96.65104 46.26875 96.854164Q45.7375 97.05729 45.1125 97.05729Q44.08125 97.05729 43.534374 96.55729Q42.9875 96.05729 42.9875 95.27604Q42.9875 94.822914 43.190624 94.447914Q43.39375 94.05729 43.7375 93.83854Q44.08125 93.604164 44.503124 93.49479Q44.8 93.40104 45.440624 93.322914Q46.70625 93.18229 47.315624 92.96354Q47.315624 92.74479 47.315624 92.697914Q47.315624 92.041664 47.01875 91.77604Q46.6125 91.43229 45.815624 91.43229Q45.08125 91.43229 44.721874 91.697914Q44.3625 91.947914 44.190624 92.604164L43.159374 92.46354Q43.3 91.80729 43.628124 91.40104Q43.95625 90.99479 44.565624 90.77604Q45.175 90.55729 45.971874 90.55729Q46.76875 90.55729 47.26875 90.74479Q47.76875 90.93229 48.003124 91.21354Q48.2375 91.49479 48.33125 91.93229Q48.378124 92.197914 48.378124 92.90104L48.378124 94.30729Q48.378124 95.77604 48.440624 96.166664Q48.51875 96.55729 48.721874 96.916664L47.6125 96.916664Q47.45625 96.58854 47.409374 96.15104ZM47.315624 93.791664Q46.7375 94.02604 45.596874 94.197914Q44.940624 94.291664 44.675 94.416664Q44.409374 94.52604 44.253124 94.74479Q44.1125 94.96354 44.1125 95.24479Q44.1125 95.666664 44.425 95.947914Q44.753124 96.229164 45.3625 96.229164Q45.971874 96.229164 46.440624 95.96354Q46.925 95.697914 47.14375 95.229164Q47.315624 94.86979 47.315624 94.18229L47.315624 93.791664ZM52.64375 95.979164L52.8 96.90104Q52.346874 96.99479 52.003124 96.99479Q51.425 96.99479 51.1125 96.822914Q50.8 96.635414 50.659374 96.33854Q50.534374 96.041664 50.534374 95.08854L50.534374 91.510414L49.76875 91.510414L49.76875 90.697914L50.534374 90.697914L50.534374 89.15104L51.58125 88.52604L51.58125 90.697914L52.64375 90.697914L52.64375 91.510414L51.58125 91.510414L51.58125 95.15104Q51.58125 95.604164 51.628124 95.729164Q51.690624 95.854164 51.815624 95.93229Q51.940624 96.010414 52.175 96.010414Q52.3625 96.010414 52.64375 95.979164ZM53.346874 89.541664L53.346874 88.322914L54.409374 88.322914L54.409374 89.541664L53.346874 89.541664ZM53.346874 96.916664L53.346874 90.697914L54.409374 90.697914L54.409374 96.916664L53.346874 96.916664ZM55.925 95.05729L56.95625 94.90104Q57.05 95.52604 57.440624 95.854164Q57.846874 96.18229 58.58125 96.18229Q59.3 96.18229 59.64375 95.90104Q60.003124 95.604164 60.003124 95.197914Q60.003124 94.83854 59.690624 94.635414Q59.471874 94.49479 58.6125 94.27604Q57.45625 93.979164 57.003124 93.77604Q56.565624 93.55729 56.33125 93.18229Q56.096874 92.80729 56.096874 92.33854Q56.096874 91.93229 56.284374 91.572914Q56.471874 91.21354 56.8 90.979164Q57.05 90.80729 57.471874 90.68229Q57.89375 90.55729 58.39375 90.55729Q59.1125 90.55729 59.659374 90.77604Q60.221874 90.979164 60.4875 91.33854Q60.753124 91.697914 60.846874 92.291664L59.815624 92.43229Q59.753124 91.96354 59.409374 91.697914Q59.08125 91.416664 58.45625 91.416664Q57.7375 91.416664 57.425 91.666664Q57.1125 91.90104 57.1125 92.229164Q57.1125 92.43229 57.2375 92.58854Q57.378124 92.760414 57.64375 92.86979Q57.8 92.93229 58.58125 93.135414Q59.70625 93.447914 60.14375 93.635414Q60.58125 93.822914 60.83125 94.18229Q61.08125 94.541664 61.08125 95.08854Q61.08125 95.61979 60.76875 96.08854Q60.471874 96.541664 59.89375 96.80729Q59.315624 97.05729 58.58125 97.05729Q57.3625 97.05729 56.721874 96.55729Q56.096874 96.041664 55.925 95.05729ZM62.596874 96.916664L62.596874 91.510414L61.659374 91.510414L61.659374 90.697914L62.596874 90.697914L62.596874 90.02604Q62.596874 89.40104 62.70625 89.104164Q62.8625 88.68229 63.2375 88.43229Q63.628124 88.18229 64.31563 88.18229Q64.76875 88.18229 65.3 88.291664L65.14375 89.197914Q64.81563 89.15104 64.51875 89.15104Q64.03438 89.15104 63.83125 89.354164Q63.64375 89.55729 63.64375 90.11979L63.64375 90.697914L64.8625 90.697914L64.8625 91.510414L63.64375 91.510414L63.64375 96.916664L62.596874 96.916664ZM65.34688 89.541664L65.34688 88.322914L66.40938 88.322914L66.40938 89.541664L65.34688 89.541664ZM65.34688 96.916664L65.34688 90.697914L66.40938 90.697914L66.40938 96.916664L65.34688 96.916664ZM72.59688 94.916664L73.69063 95.041664Q73.44063 95.99479 72.7375 96.52604Q72.03438 97.05729 70.95625 97.05729Q69.59688 97.05729 68.78438 96.21354Q67.9875 95.36979 67.9875 93.854164Q67.9875 92.291664 68.8 91.43229Q69.6125 90.55729 70.89375 90.55729Q72.14375 90.55729 72.925 91.40104Q73.72188 92.24479 73.72188 93.791664Q73.72188 93.885414 73.72188 94.072914L69.08125 94.072914Q69.14375 95.104164 69.65938 95.65104Q70.175 96.18229 70.95625 96.18229Q71.53438 96.18229 71.94063 95.885414Q72.3625 95.572914 72.59688 94.916664ZM69.14375 93.21354L72.6125 93.21354Q72.55 92.416664 72.22188 92.02604Q71.70625 91.416664 70.90938 91.416664Q70.175 91.416664 69.675 91.90104Q69.19063 92.385414 69.14375 93.21354ZM79.37813 96.916664L79.37813 96.135414Q78.78438 97.05729 77.64375 97.05729Q76.89375 97.05729 76.26875 96.65104Q75.64375 96.229164 75.3 95.49479Q74.95625 94.760414 74.95625 93.80729Q74.95625 92.885414 75.26875 92.11979Q75.58125 91.354164 76.20625 90.96354Q76.83125 90.55729 77.59688 90.55729Q78.15938 90.55729 78.59688 90.791664Q79.03438 91.02604 79.31563 91.40104L79.31563 88.322914L80.3625 88.322914L80.3625 96.916664L79.37813 96.916664ZM76.05 93.80729Q76.05 95.010414 76.55 95.604164Q77.05 96.18229 77.7375 96.18229Q78.425 96.18229 78.90938 95.61979Q79.39375 95.05729 79.39375 93.90104Q79.39375 92.61979 78.89375 92.02604Q78.40938 91.43229 77.69063 91.43229Q76.9875 91.43229 76.51875 92.010414Q76.05 92.572914 76.05 93.80729Z" fill-rule="nonzero"></path>
  <path fill="#9e9e9e" d="M19.1125 106.447914L19.1125 105.43229L24.675 105.43229L24.675 106.260414Q23.8625 107.135414 23.05 108.58854Q22.253124 110.02604 21.815624 111.55729Q21.4875 112.635414 21.409374 113.916664L20.315624 113.916664Q20.33125 112.90104 20.70625 111.46354Q21.096874 110.02604 21.8 108.697914Q22.51875 107.36979 23.33125 106.447914L19.1125 106.447914ZM26.64375 113.916664L26.64375 112.71354L27.846874 112.71354L27.846874 113.916664L26.64375 113.916664ZM29.1125 106.447914L29.1125 105.43229L34.675 105.43229L34.675 106.260414Q33.8625 107.135414 33.05 108.58854Q32.253124 110.02604 31.815624 111.55729Q31.4875 112.635414 31.409374 113.916664L30.315624 113.916664Q30.33125 112.90104 30.70625 111.46354Q31.096874 110.02604 31.8 108.697914Q32.51875 107.36979 33.33125 106.447914L29.1125 106.447914ZM36.253124 107.385414Q36.253124 106.46354 36.70625 105.822914Q37.175 105.18229 38.05 105.18229Q38.8625 105.18229 39.39375 105.760414Q39.925 106.33854 39.925 107.447914Q39.925 108.541664 39.378124 109.135414Q38.846874 109.71354 38.065624 109.71354Q37.284374 109.71354 36.76875 109.135414Q36.253124 108.55729 36.253124 107.385414ZM38.08125 105.90104Q37.690624 105.90104 37.425 106.24479Q37.175 106.58854 37.175 107.49479Q37.175 108.322914 37.425 108.666664Q37.690624 108.99479 38.08125 108.99479Q38.4875 108.99479 38.7375 108.65104Q39.003124 108.30729 39.003124 107.416664Q39.003124 106.572914 38.7375 106.24479Q38.471874 105.90104 38.08125 105.90104ZM38.08125 114.229164L42.784374 105.18229L43.64375 105.18229L38.95625 114.229164L38.08125 114.229164ZM41.8 111.90104Q41.8 110.979164 42.253124 110.33854Q42.721874 109.697914 43.6125 109.697914Q44.425 109.697914 44.95625 110.27604Q45.4875 110.83854 45.4875 111.96354Q45.4875 113.05729 44.940624 113.65104Q44.409374 114.229164 43.6125 114.229164Q42.846874 114.229164 42.315624 113.65104Q41.8 113.072914 41.8 111.90104ZM43.64375 110.416664Q43.2375 110.416664 42.971874 110.760414Q42.721874 111.104164 42.721874 112.010414Q42.721874 112.822914 42.9875 113.166664Q43.253124 113.510414 43.64375 113.510414Q44.034374 113.510414 44.3 113.166664Q44.565624 112.822914 44.565624 111.916664Q44.565624 111.08854 44.3 110.760414Q44.034374 110.416664 43.64375 110.416664Z" fill-rule="nonzero"></path>
  <path stroke="#757575" stroke-width="1.0" stroke-linecap="butt" d="M18.55 101.416664L145.23334 101.416664L205.62003 98.48772" fill-rule="nonzero"></path>
  <path fill="#9e9e9e" d="M207.62003 98.48772C207.62003 97.38314 206.7246 96.48772 205.62003 96.48772C204.51546 96.48772 203.62003 97.38314 203.62003 98.48772C203.62003 99.592285 204.51546 100.48772 205.62003 100.48772C206.7246 100.48772 207.62003 99.592285 207.62003 98.48772" fill-rule="nonzero"></path>
  <path fill="#1a1a1a" d="M19.471874 197.8795L19.471874 189.28575L20.628124 189.28575L25.14375 196.03575L25.14375 189.28575L26.2375 189.28575L26.2375 197.8795L25.065624 197.8795L20.55 191.1295L20.55 197.8795L19.471874 197.8795ZM32.596874 195.8795L33.690624 196.0045Q33.440624 196.95763 32.7375 197.48888Q32.034374 198.02013 30.95625 198.02013Q29.596874 198.02013 28.784374 197.17638Q27.9875 196.33263 27.9875 194.817Q27.9875 193.2545 28.8 192.39513Q29.6125 191.52013 30.89375 191.52013Q32.14375 191.52013 32.925 192.36388Q33.721874 193.20763 33.721874 194.7545Q33.721874 194.84825 33.721874 195.03575L29.08125 195.03575Q29.14375 196.067 29.659374 196.61388Q30.175 197.14513 30.95625 197.14513Q31.534374 197.14513 31.940624 196.84825Q32.3625 196.53575 32.596874 195.8795ZM29.14375 194.17638L32.6125 194.17638Q32.55 193.3795 32.221874 192.98888Q31.70625 192.3795 30.909374 192.3795Q30.175 192.3795 29.675 192.86388Q29.190624 193.34825 29.14375 194.17638ZM35.346874 190.5045L35.346874 189.28575L36.409374 189.28575L36.409374 190.5045L35.346874 190.5045ZM35.346874 197.8795L35.346874 191.66075L36.409374 191.66075L36.409374 197.8795L35.346874 197.8795ZM40.64375 196.942L40.8 197.86388Q40.346874 197.95763 40.003124 197.95763Q39.425 197.95763 39.1125 197.78575Q38.8 197.59825 38.659374 197.30138Q38.534374 197.0045 38.534374 196.05138L38.534374 192.47325L37.76875 192.47325L37.76875 191.66075L38.534374 191.66075L38.534374 190.11388L39.58125 189.48888L39.58125 191.66075L40.64375 191.66075L40.64375 192.47325L39.58125 192.47325L39.58125 196.11388Q39.58125 196.567 39.628124 196.692Q39.690624 196.817 39.815624 196.89513Q39.940624 196.97325 40.175 196.97325Q40.3625 196.97325 40.64375 196.942ZM41.346874 197.8795L41.346874 189.28575L42.39375 189.28575L42.39375 192.36388Q43.128124 191.52013 44.253124 191.52013Q44.95625 191.52013 45.45625 191.80138Q45.971874 192.067 46.190624 192.55138Q46.409374 193.02013 46.409374 193.942L46.409374 197.8795L45.3625 197.8795L45.3625 193.942Q45.3625 193.14513 45.01875 192.78575Q44.675 192.42638 44.05 192.42638Q43.58125 192.42638 43.159374 192.67638Q42.753124 192.91075 42.565624 193.33263Q42.39375 193.73888 42.39375 194.47325L42.39375 197.8795L41.346874 197.8795ZM52.596874 195.8795L53.690624 196.0045Q53.440624 196.95763 52.7375 197.48888Q52.034374 198.02013 50.95625 198.02013Q49.596874 198.02013 48.784374 197.17638Q47.9875 196.33263 47.9875 194.817Q47.9875 193.2545 48.8 192.39513Q49.6125 191.52013 50.89375 191.52013Q52.14375 191.52013 52.925 192.36388Q53.721874 193.20763 53.721874 194.7545Q53.721874 194.84825 53.721874 195.03575L49.08125 195.03575Q49.14375 196.067 49.659374 196.61388Q50.175 197.14513 50.95625 197.14513Q51.534374 197.14513 51.940624 196.84825Q52.3625 196.53575 52.596874 195.8795ZM49.14375 194.17638L52.6125 194.17638Q52.55 193.3795 52.221874 192.98888Q51.70625 192.3795 50.909374 192.3795Q50.175 192.3795 49.675 192.86388Q49.190624 193.34825 49.14375 194.17638ZM55.33125 197.8795L55.33125 191.66075L56.284374 191.66075L56.284374 192.59825Q56.64375 191.942 56.940624 191.73888Q57.253124 191.52013 57.628124 191.52013Q58.159374 191.52013 58.70625 191.84825L58.346874 192.83263Q57.95625 192.59825 57.58125 192.59825Q57.221874 192.59825 56.940624 192.817Q56.675 193.02013 56.565624 193.39513Q56.378124 193.95763 56.378124 194.61388L56.378124 197.8795L55.33125 197.8795ZM62.096874 195.11388L63.159374 195.02013Q63.2375 195.67638 63.51875 196.08263Q63.8 196.48888 64.37813 196.7545Q64.97188 197.0045 65.70625 197.0045Q66.34688 197.0045 66.84688 196.817Q67.34688 196.61388 67.58125 196.28575Q67.83125 195.942 67.83125 195.55138Q67.83125 195.14513 67.59688 194.84825Q67.3625 194.53575 66.83125 194.33263Q66.47188 194.192 65.28438 193.91075Q64.1125 193.6295 63.64375 193.3795Q63.01875 193.05138 62.721874 192.58263Q62.425 192.09825 62.425 191.5045Q62.425 190.86388 62.784374 190.30138Q63.159374 189.72325 63.8625 189.442Q64.58125 189.14513 65.44063 189.14513Q66.39375 189.14513 67.12813 189.45763Q67.8625 189.7545 68.25313 190.36388Q68.64375 190.95763 68.675 191.70763L67.58125 191.78575Q67.4875 190.97325 66.97188 190.567Q66.47188 190.14513 65.4875 190.14513Q64.45625 190.14513 63.9875 190.52013Q63.51875 190.89513 63.51875 191.42638Q63.51875 191.89513 63.846874 192.192Q64.175 192.48888 65.55 192.80138Q66.94063 193.11388 67.45625 193.34825Q68.20625 193.70763 68.56563 194.23888Q68.925 194.7545 68.925 195.45763Q68.925 196.14513 68.53438 196.7545Q68.14375 197.34825 67.40938 197.692Q66.675 198.02013 65.75313 198.02013Q64.58125 198.02013 63.784374 197.692Q63.003124 197.34825 62.55 196.66075Q62.1125 195.97325 62.096874 195.11388ZM74.40938 197.11388Q73.81563 197.61388 73.26875 197.817Q72.7375 198.02013 72.1125 198.02013Q71.08125 198.02013 70.53438 197.52013Q69.9875 197.02013 69.9875 196.23888Q69.9875 195.78575 70.19063 195.41075Q70.39375 195.02013 70.7375 194.80138Q71.08125 194.567 71.50313 194.45763Q71.8 194.36388 72.44063 194.28575Q73.70625 194.14513 74.31563 193.92638Q74.31563 193.70763 74.31563 193.66075Q74.31563 193.0045 74.01875 192.73888Q73.6125 192.39513 72.81563 192.39513Q72.08125 192.39513 71.72188 192.66075Q71.3625 192.91075 71.19063 193.567L70.15938 193.42638Q70.3 192.77013 70.62813 192.36388Q70.95625 191.95763 71.56563 191.73888Q72.175 191.52013 72.97188 191.52013Q73.76875 191.52013 74.26875 191.70763Q74.76875 191.89513 75.00313 192.17638Q75.2375 192.45763 75.33125 192.89513Q75.37813 193.16075 75.37813 193.86388L75.37813 195.27013Q75.37813 196.73888 75.44063 197.1295Q75.51875 197.52013 75.72188 197.8795L74.6125 197.8795Q74.45625 197.55138 74.40938 197.11388ZM74.31563 194.7545Q73.7375 194.98888 72.59688 195.16075Q71.94063 195.2545 71.675 195.3795Q71.40938 195.48888 71.25313 195.70763Q71.1125 195.92638 71.1125 196.20763Q71.1125 196.6295 71.425 196.91075Q71.75313 197.192 72.3625 197.192Q72.97188 197.192 73.44063 196.92638Q73.925 196.66075 74.14375 196.192Q74.31563 195.83263 74.31563 195.14513L74.31563 194.7545ZM79.64375 196.942L79.8 197.86388Q79.34688 197.95763 79.00313 197.95763Q78.425 197.95763 78.1125 197.78575Q77.8 197.59825 77.65938 197.30138Q77.53438 197.0045 77.53438 196.05138L77.53438 192.47325L76.76875 192.47325L76.76875 191.66075L77.53438 191.66075L77.53438 190.11388L78.58125 189.48888L78.58125 191.66075L79.64375 191.66075L79.64375 192.47325L78.58125 192.47325L78.58125 196.11388Q78.58125 196.567 78.62813 196.692Q78.69063 196.817 78.81563 196.89513Q78.94063 196.97325 79.175 196.97325Q79.3625 196.97325 79.64375 196.942ZM80.34688 190.5045L80.34688 189.28575L81.40938 189.28575L81.40938 190.5045L80.34688 190.5045ZM80.34688 197.8795L80.34688 191.66075L81.40938 191.66075L81.40938 197.8795L80.34688 197.8795ZM82.925 196.02013L83.95625 195.86388Q84.05 196.48888 84.44063 196.817Q84.84688 197.14513 85.58125 197.14513Q86.3 197.14513 86.64375 196.86388Q87.00313 196.567 87.00313 196.16075Q87.00313 195.80138 86.69063 195.59825Q86.47188 195.45763 85.6125 195.23888Q84.45625 194.942 84.00313 194.73888Q83.56563 194.52013 83.33125 194.14513Q83.09688 193.77013 83.09688 193.30138Q83.09688 192.89513 83.28438 192.53575Q83.47188 192.17638 83.8 191.942Q84.05 191.77013 84.47188 191.64513Q84.89375 191.52013 85.39375 191.52013Q86.1125 191.52013 86.65938 191.73888Q87.22188 191.942 87.4875 192.30138Q87.75313 192.66075 87.84688 193.2545L86.81563 193.39513Q86.75313 192.92638 86.40938 192.66075Q86.08125 192.3795 85.45625 192.3795Q84.7375 192.3795 84.425 192.6295Q84.1125 192.86388 84.1125 193.192Q84.1125 193.39513 84.2375 193.55138Q84.37813 193.72325 84.64375 193.83263Q84.8 193.89513 85.58125 194.09825Q86.70625 194.41075 87.14375 194.59825Q87.58125 194.78575 87.83125 195.14513Q88.08125 195.5045 88.08125 196.05138Q88.08125 196.58263 87.76875 197.05138Q87.47188 197.5045 86.89375 197.77013Q86.31563 198.02013 85.58125 198.02013Q84.3625 198.02013 83.72188 197.52013Q83.09688 197.0045 82.925 196.02013ZM89.59688 197.8795L89.59688 192.47325L88.65938 192.47325L88.65938 191.66075L89.59688 191.66075L89.59688 190.98888Q89.59688 190.36388 89.70625 190.067Q89.8625 189.64513 90.2375 189.39513Q90.62813 189.14513 91.31563 189.14513Q91.76875 189.14513 92.3 189.2545L92.14375 190.16075Q91.81563 190.11388 91.51875 190.11388Q91.03438 190.11388 90.83125 190.317Q90.64375 190.52013 90.64375 191.08263L90.64375 191.66075L91.8625 191.66075L91.8625 192.47325L90.64375 192.47325L90.64375 197.8795L89.59688 197.8795ZM92.34688 190.5045L92.34688 189.28575L93.40938 189.28575L93.40938 190.5045L92.34688 190.5045ZM92.34688 197.8795L92.34688 191.66075L93.40938 191.66075L93.40938 197.8795L92.34688 197.8795ZM99.59688 195.8795L100.69063 196.0045Q100.44063 196.95763 99.7375 197.48888Q99.03438 198.02013 97.95625 198.02013Q96.59688 198.02013 95.78438 197.17638Q94.9875 196.33263 94.9875 194.817Q94.9875 193.2545 95.8 192.39513Q96.6125 191.52013 97.89375 191.52013Q99.14375 191.52013 99.925 192.36388Q100.72188 193.20763 100.72188 194.7545Q100.72188 194.84825 100.72188 195.03575L96.08125 195.03575Q96.14375 196.067 96.65938 196.61388Q97.175 197.14513 97.95625 197.14513Q98.53438 197.14513 98.94063 196.84825Q99.3625 196.53575 99.59688 195.8795ZM96.14375 194.17638L99.6125 194.17638Q99.55 193.3795 99.22188 192.98888Q98.70625 192.3795 97.90938 192.3795Q97.175 192.3795 96.675 192.86388Q96.19063 193.34825 96.14375 194.17638ZM106.37813 197.8795L106.37813 197.09825Q105.78438 198.02013 104.64375 198.02013Q103.89375 198.02013 103.26875 197.61388Q102.64375 197.192 102.3 196.45763Q101.95625 195.72325 101.95625 194.77013Q101.95625 193.84825 102.26875 193.08263Q102.58125 192.317 103.20625 191.92638Q103.83125 191.52013 104.59688 191.52013Q105.15938 191.52013 105.59688 191.7545Q106.03438 191.98888 106.31563 192.36388L106.31563 189.28575L107.3625 189.28575L107.3625 197.8795L106.37813 197.8795ZM103.05 194.77013Q103.05 195.97325 103.55 196.567Q104.05 197.14513 104.7375 197.14513Q105.425 197.14513 105.90938 196.58263Q106.39375 196.02013 106.39375 194.86388Q106.39375 193.58263 105.89375 192.98888Q105.40938 192.39513 104.69063 192.39513Q103.9875 192.39513 103.51875 192.97325Q103.05 193.53575 103.05 194.77013ZM112.34688 197.8795L112.34688 191.66075L113.28438 191.66075L113.28438 192.53575Q113.97188 191.52013 115.26875 191.52013Q115.83125 191.52013 116.3 191.72325Q116.78438 191.92638 117.01875 192.2545Q117.25313 192.58263 117.34688 193.02013Q117.39375 193.317 117.39375 194.05138L117.39375 197.8795L116.34688 197.8795L116.34688 194.09825Q116.34688 193.442 116.22188 193.1295Q116.09688 192.817 115.78438 192.6295Q115.47188 192.42638 115.05 192.42638Q114.37813 192.42638 113.87813 192.86388Q113.39375 193.28575 113.39375 194.47325L113.39375 197.8795L112.34688 197.8795ZM118.95625 194.77013Q118.95625 193.03575 119.90938 192.20763Q120.70625 191.52013 121.8625 191.52013Q123.14375 191.52013 123.95625 192.36388Q124.78438 193.192 124.78438 194.67638Q124.78438 195.8795 124.425 196.567Q124.06563 197.2545 123.3625 197.64513Q122.675 198.02013 121.8625 198.02013Q120.56563 198.02013 119.75313 197.192Q118.95625 196.34825 118.95625 194.77013ZM120.03438 194.77013Q120.03438 195.95763 120.55 196.55138Q121.08125 197.14513 121.8625 197.14513Q122.65938 197.14513 123.175 196.55138Q123.69063 195.95763 123.69063 194.73888Q123.69063 193.58263 123.15938 192.98888Q122.64375 192.39513 121.8625 192.39513Q121.08125 192.39513 120.55 192.98888Q120.03438 193.567 120.03438 194.77013ZM126.33125 197.8795L126.33125 191.66075L127.28438 191.66075L127.28438 192.59825Q127.64375 191.942 127.94063 191.73888Q128.25313 191.52013 128.62813 191.52013Q129.15938 191.52013 129.70625 191.84825L129.34688 192.83263Q128.95625 192.59825 128.58125 192.59825Q128.22188 192.59825 127.94063 192.817Q127.675 193.02013 127.56563 193.39513Q127.37813 193.95763 127.37813 194.61388L127.37813 197.8795L126.33125 197.8795Z" fill-rule="nonzero"></path>
  <path fill="#9e9e9e" d="M23.01875 214.8795L21.971874 214.8795L21.971874 208.16075Q21.58125 208.52013 20.95625 208.89513Q20.346874 209.2545 19.8625 209.42638L19.8625 208.41075Q20.7375 207.98888 21.39375 207.41075Q22.065624 206.817 22.346874 206.2545L23.01875 206.2545L23.01875 214.8795ZM27.675 210.22325Q27.01875 209.97325 26.690624 209.53575Q26.378124 209.08263 26.378124 208.47325Q26.378124 207.53575 27.05 206.89513Q27.7375 206.2545 28.846874 206.2545Q29.971874 206.2545 30.659374 206.91075Q31.346874 207.567 31.346874 208.5045Q31.346874 209.09825 31.034374 209.53575Q30.721874 209.97325 30.08125 210.22325Q30.878124 210.47325 31.284374 211.05138Q31.690624 211.6295 31.690624 212.42638Q31.690624 213.52013 30.909374 214.27013Q30.14375 215.02013 28.8625 215.02013Q27.596874 215.02013 26.815624 214.27013Q26.034374 213.52013 26.034374 212.39513Q26.034374 211.55138 26.45625 210.98888Q26.89375 210.42638 27.675 210.22325ZM27.45625 208.42638Q27.45625 209.03575 27.846874 209.42638Q28.253124 209.817 28.878124 209.817Q29.4875 209.817 29.878124 209.442Q30.26875 209.05138 30.26875 208.48888Q30.26875 207.91075 29.8625 207.52013Q29.45625 207.11388 28.8625 207.11388Q28.253124 207.11388 27.846874 207.5045Q27.45625 207.89513 27.45625 208.42638ZM27.128124 212.39513Q27.128124 212.84825 27.33125 213.27013Q27.55 213.692 27.971874 213.92638Q28.39375 214.16075 28.878124 214.16075Q29.628124 214.16075 30.1125 213.67638Q30.6125 213.192 30.6125 212.442Q30.6125 211.67638 30.1125 211.17638Q29.6125 210.67638 28.846874 210.67638Q28.096874 210.67638 27.6125 211.17638Q27.128124 211.66075 27.128124 212.39513ZM33.64375 214.8795L33.64375 213.67638L34.846874 213.67638L34.846874 214.8795L33.64375 214.8795ZM36.1125 207.41075L36.1125 206.39513L41.675 206.39513L41.675 207.22325Q40.8625 208.09825 40.05 209.55138Q39.253124 210.98888 38.815624 212.52013Q38.4875 213.59825 38.409374 214.8795L37.315624 214.8795Q37.33125 213.86388 37.70625 212.42638Q38.096874 210.98888 38.8 209.66075Q39.51875 208.33263 40.33125 207.41075L36.1125 207.41075ZM43.253124 208.34825Q43.253124 207.42638 43.70625 206.78575Q44.175 206.14513 45.05 206.14513Q45.8625 206.14513 46.39375 206.72325Q46.925 207.30138 46.925 208.41075Q46.925 209.5045 46.378124 210.09825Q45.846874 210.67638 45.065624 210.67638Q44.284374 210.67638 43.76875 210.09825Q43.253124 209.52013 43.253124 208.34825ZM45.08125 206.86388Q44.690624 206.86388 44.425 207.20763Q44.175 207.55138 44.175 208.45763Q44.175 209.28575 44.425 209.6295Q44.690624 209.95763 45.08125 209.95763Q45.4875 209.95763 45.7375 209.61388Q46.003124 209.27013 46.003124 208.3795Q46.003124 207.53575 45.7375 207.20763Q45.471874 206.86388 45.08125 206.86388ZM45.08125 215.192L49.784374 206.14513L50.64375 206.14513L45.95625 215.192L45.08125 215.192ZM48.8 212.86388Q48.8 211.942 49.253124 211.30138Q49.721874 210.66075 50.6125 210.66075Q51.425 210.66075 51.95625 211.23888Q52.4875 211.80138 52.4875 212.92638Q52.4875 214.02013 51.940624 214.61388Q51.409374 215.192 50.6125 215.192Q49.846874 215.192 49.315624 214.61388Q48.8 214.03575 48.8 212.86388ZM50.64375 211.3795Q50.2375 211.3795 49.971874 211.72325Q49.721874 212.067 49.721874 212.97325Q49.721874 213.78575 49.9875 214.1295Q50.253124 214.47325 50.64375 214.47325Q51.034374 214.47325 51.3 214.1295Q51.565624 213.78575 51.565624 212.8795Q51.565624 212.05138 51.3 211.72325Q51.034374 211.3795 50.64375 211.3795Z" fill-rule="nonzero"></path>
  <path stroke="#757575" stroke-width="1.0" stroke-linecap="butt" d="M18.55 202.3795L145.23334 202.3795L158.67769 202.3795" fill-rule="nonzero"></path>
  <path fill="#9e9e9e" d="M160.67769 202.3795C160.67769 201.27493 159.78226 200.3795 158.67769 200.3795C157.5731 200.3795 156.67769 201.27493 156.67769 202.3795C156.67769 203.48407 157.5731 204.3795 158.67769 204.3795C159.78226 204.3795 160.67769 203.48407 160.67769 202.3795" fill-rule="nonzero"></path>
  <path fill="#1a1a1a" d="M509.825 78.52899L506.4969 69.93524L507.73126 69.93524L509.96564 76.18524Q510.23126 76.93524 510.41876 77.59149Q510.6219 76.88837 510.8875 76.18524L513.2 69.93524L514.35626 69.93524L510.9969 78.52899L509.825 78.52899ZM519.4969 76.52899L520.59064 76.65399Q520.34064 77.60712 519.6375 78.13837Q518.9344 78.66962 517.85626 78.66962Q516.4969 78.66962 515.6844 77.82587Q514.8875 76.98212 514.8875 75.46649Q514.8875 73.90399 515.7 73.04462Q516.5125 72.16962 517.79376 72.16962Q519.04376 72.16962 519.825 73.01337Q520.6219 73.85712 520.6219 75.40399Q520.6219 75.49774 520.6219 75.68524L515.98126 75.68524Q516.04376 76.71649 516.5594 77.26337Q517.075 77.79462 517.85626 77.79462Q518.4344 77.79462 518.84064 77.49774Q519.2625 77.18524 519.4969 76.52899ZM516.04376 74.82587L519.5125 74.82587Q519.45 74.02899 519.1219 73.63837Q518.60626 73.02899 517.8094 73.02899Q517.075 73.02899 516.575 73.51337Q516.09064 73.99774 516.04376 74.82587ZM522.23126 78.52899L522.23126 72.31024L523.1844 72.31024L523.1844 73.24774Q523.54376 72.59149 523.84064 72.38837Q524.15314 72.16962 524.52814 72.16962Q525.0594 72.16962 525.60626 72.49774L525.2469 73.48212Q524.85626 73.24774 524.48126 73.24774Q524.1219 73.24774 523.84064 73.46649Q523.575 73.66962 523.46564 74.04462Q523.27814 74.60712 523.27814 75.26337L523.27814 78.52899L522.23126 78.52899ZM526.2 80.91962L526.075 79.93524Q526.41876 80.02899 526.6844 80.02899Q527.02814 80.02899 527.23126 79.90399Q527.45 79.79462 527.59064 79.59149Q527.6844 79.41962 527.91876 78.79462Q527.9344 78.71649 528.0125 78.54462L525.6375 72.31024L526.77814 72.31024L528.075 75.90399Q528.325 76.59149 528.52814 77.35712Q528.71564 76.62274 528.96564 75.93524L530.29376 72.31024L531.34064 72.31024L528.98126 78.63837Q528.59064 79.65399 528.3875 80.04462Q528.10626 80.57587 527.73126 80.81024Q527.3719 81.06024 526.8719 81.06024Q526.575 81.06024 526.2 80.91962ZM534.9969 75.76337L536.0594 75.66962Q536.1375 76.32587 536.41876 76.73212Q536.7 77.13837 537.27814 77.40399Q537.8719 77.65399 538.60626 77.65399Q539.2469 77.65399 539.7469 77.46649Q540.2469 77.26337 540.48126 76.93524Q540.73126 76.59149 540.73126 76.20087Q540.73126 75.79462 540.4969 75.49774Q540.2625 75.18524 539.73126 74.98212Q539.3719 74.84149 538.1844 74.56024Q537.0125 74.27899 536.54376 74.02899Q535.91876 73.70087 535.6219 73.23212Q535.325 72.74774 535.325 72.15399Q535.325 71.51337 535.6844 70.95087Q536.0594 70.37274 536.7625 70.09149Q537.48126 69.79462 538.34064 69.79462Q539.29376 69.79462 540.02814 70.10712Q540.7625 70.40399 541.15314 71.01337Q541.54376 71.60712 541.575 72.35712L540.48126 72.43524Q540.3875 71.62274 539.8719 71.21649Q539.3719 70.79462 538.3875 70.79462Q537.35626 70.79462 536.8875 71.16962Q536.41876 71.54462 536.41876 72.07587Q536.41876 72.54462 536.7469 72.84149Q537.075 73.13837 538.45 73.45087Q539.84064 73.76337 540.35626 73.99774Q541.10626 74.35712 541.46564 74.88837Q541.825 75.40399 541.825 76.10712Q541.825 76.79462 541.4344 77.40399Q541.04376 77.99774 540.3094 78.34149Q539.575 78.66962 538.65314 78.66962Q537.48126 78.66962 536.6844 78.34149Q535.90314 77.99774 535.45 77.31024Q535.0125 76.62274 534.9969 75.76337ZM547.3094 77.76337Q546.71564 78.26337 546.16876 78.46649Q545.6375 78.66962 545.0125 78.66962Q543.98126 78.66962 543.4344 78.16962Q542.8875 77.66962 542.8875 76.88837Q542.8875 76.43524 543.09064 76.06024Q543.29376 75.66962 543.6375 75.45087Q543.98126 75.21649 544.40314 75.10712Q544.7 75.01337 545.34064 74.93524Q546.60626 74.79462 547.21564 74.57587Q547.21564 74.35712 547.21564 74.31024Q547.21564 73.65399 546.91876 73.38837Q546.5125 73.04462 545.71564 73.04462Q544.98126 73.04462 544.6219 73.31024Q544.2625 73.56024 544.09064 74.21649L543.0594 74.07587Q543.2 73.41962 543.52814 73.01337Q543.85626 72.60712 544.46564 72.38837Q545.075 72.16962 545.8719 72.16962Q546.66876 72.16962 547.16876 72.35712Q547.66876 72.54462 547.90314 72.82587Q548.1375 73.10712 548.23126 73.54462Q548.27814 73.81024 548.27814 74.51337L548.27814 75.91962Q548.27814 77.38837 548.34064 77.77899Q548.41876 78.16962 548.6219 78.52899L547.5125 78.52899Q547.35626 78.20087 547.3094 77.76337ZM547.21564 75.40399Q546.6375 75.63837 545.4969 75.81024Q544.84064 75.90399 544.575 76.02899Q544.3094 76.13837 544.15314 76.35712Q544.0125 76.57587 544.0125 76.85712Q544.0125 77.27899 544.325 77.56024Q544.65314 77.84149 545.2625 77.84149Q545.8719 77.84149 546.34064 77.57587Q546.825 77.31024 547.04376 76.84149Q547.21564 76.48212 547.21564 75.79462L547.21564 75.40399ZM552.54376 77.59149L552.7 78.51337Q552.2469 78.60712 551.90314 78.60712Q551.325 78.60712 551.0125 78.43524Q550.7 78.24774 550.5594 77.95087Q550.4344 77.65399 550.4344 76.70087L550.4344 73.12274L549.66876 73.12274L549.66876 72.31024L550.4344 72.31024L550.4344 70.76337L551.48126 70.13837L551.48126 72.31024L552.54376 72.31024L552.54376 73.12274L551.48126 73.12274L551.48126 76.76337Q551.48126 77.21649 551.52814 77.34149Q551.59064 77.46649 551.71564 77.54462Q551.84064 77.62274 552.075 77.62274Q552.2625 77.62274 552.54376 77.59149ZM553.2469 71.15399L553.2469 69.93524L554.3094 69.93524L554.3094 71.15399L553.2469 71.15399ZM553.2469 78.52899L553.2469 72.31024L554.3094 72.31024L554.3094 78.52899L553.2469 78.52899ZM555.825 76.66962L556.85626 76.51337Q556.95 77.13837 557.34064 77.46649Q557.7469 77.79462 558.48126 77.79462Q559.2 77.79462 559.54376 77.51337Q559.90314 77.21649 559.90314 76.81024Q559.90314 76.45087 559.59064 76.24774Q559.3719 76.10712 558.5125 75.88837Q557.35626 75.59149 556.90314 75.38837Q556.46564 75.16962 556.23126 74.79462Q555.9969 74.41962 555.9969 73.95087Q555.9969 73.54462 556.1844 73.18524Q556.3719 72.82587 556.7 72.59149Q556.95 72.41962 557.3719 72.29462Q557.79376 72.16962 558.29376 72.16962Q559.0125 72.16962 559.5594 72.38837Q560.1219 72.59149 560.3875 72.95087Q560.65314 73.31024 560.7469 73.90399L559.71564 74.04462Q559.65314 73.57587 559.3094 73.31024Q558.98126 73.02899 558.35626 73.02899Q557.6375 73.02899 557.325 73.27899Q557.0125 73.51337 557.0125 73.84149Q557.0125 74.04462 557.1375 74.20087Q557.27814 74.37274 557.54376 74.48212Q557.7 74.54462 558.48126 74.74774Q559.60626 75.06024 560.04376 75.24774Q560.48126 75.43524 560.73126 75.79462Q560.98126 76.15399 560.98126 76.70087Q560.98126 77.23212 560.66876 77.70087Q560.3719 78.15399 559.79376 78.41962Q559.21564 78.66962 558.48126 78.66962Q557.2625 78.66962 556.6219 78.16962Q555.9969 77.65399 555.825 76.66962ZM562.4969 78.52899L562.4969 73.12274L561.5594 73.12274L561.5594 72.31024L562.4969 72.31024L562.4969 71.63837Q562.4969 71.01337 562.60626 70.71649Q562.7625 70.29462 563.1375 70.04462Q563.52814 69.79462 564.21564 69.79462Q564.66876 69.79462 565.2 69.90399L565.04376 70.81024Q564.71564 70.76337 564.41876 70.76337Q563.9344 70.76337 563.73126 70.96649Q563.54376 71.16962 563.54376 71.73212L563.54376 72.31024L564.7625 72.31024L564.7625 73.12274L563.54376 73.12274L563.54376 78.52899L562.4969 78.52899ZM565.2469 71.15399L565.2469 69.93524L566.3094 69.93524L566.3094 71.15399L565.2469 71.15399ZM565.2469 78.52899L565.2469 72.31024L566.3094 72.31024L566.3094 78.52899L565.2469 78.52899ZM572.4969 76.52899L573.59064 76.65399Q573.34064 77.60712 572.6375 78.13837Q571.9344 78.66962 570.85626 78.66962Q569.4969 78.66962 568.6844 77.82587Q567.8875 76.98212 567.8875 75.46649Q567.8875 73.90399 568.7 73.04462Q569.5125 72.16962 570.79376 72.16962Q572.04376 72.16962 572.825 73.01337Q573.6219 73.85712 573.6219 75.40399Q573.6219 75.49774 573.6219 75.68524L568.98126 75.68524Q569.04376 76.71649 569.5594 77.26337Q570.075 77.79462 570.85626 77.79462Q571.4344 77.79462 571.84064 77.49774Q572.2625 77.18524 572.4969 76.52899ZM569.04376 74.82587L572.5125 74.82587Q572.45 74.02899 572.1219 73.63837Q571.60626 73.02899 570.8094 73.02899Q570.075 73.02899 569.575 73.51337Q569.09064 73.99774 569.04376 74.82587ZM579.27814 78.52899L579.27814 77.74774Q578.6844 78.66962 577.54376 78.66962Q576.79376 78.66962 576.16876 78.26337Q575.54376 77.84149 575.2 77.10712Q574.85626 76.37274 574.85626 75.41962Q574.85626 74.49774 575.16876 73.73212Q575.48126 72.96649 576.10626 72.57587Q576.73126 72.16962 577.4969 72.16962Q578.0594 72.16962 578.4969 72.40399Q578.9344 72.63837 579.21564 73.01337L579.21564 69.93524L580.2625 69.93524L580.2625 78.52899L579.27814 78.52899ZM575.95 75.41962Q575.95 76.62274 576.45 77.21649Q576.95 77.79462 577.6375 77.79462Q578.325 77.79462 578.8094 77.23212Q579.29376 76.66962 579.29376 75.51337Q579.29376 74.23212 578.79376 73.63837Q578.3094 73.04462 577.59064 73.04462Q576.8875 73.04462 576.41876 73.62274Q575.95 74.18524 575.95 75.41962Z" fill-rule="nonzero"></path>
  <path fill="#9e9e9e" d="M550.91876 95.52899L549.8719 95.52899L549.8719 88.81024Q549.48126 89.16962 548.85626 89.54462Q548.2469 89.90399 547.7625 90.07587L547.7625 89.06024Q548.6375 88.63837 549.29376 88.06024Q549.96564 87.46649 550.2469 86.90399L550.91876 86.90399L550.91876 95.52899ZM554.0125 88.06024L554.0125 87.04462L559.575 87.04462L559.575 87.87274Q558.7625 88.74774 557.95 90.20087Q557.15314 91.63837 556.71564 93.16962Q556.3875 94.24774 556.3094 95.52899L555.21564 95.52899Q555.23126 94.51337 555.60626 93.07587Q555.9969 91.63837 556.7 90.31024Q557.41876 88.98212 558.23126 88.06024L554.0125 88.06024ZM561.54376 95.52899L561.54376 94.32587L562.7469 94.32587L562.7469 95.52899L561.54376 95.52899ZM567.325 95.52899L567.325 93.46649L563.60626 93.46649L563.60626 92.49774L567.52814 86.93524L568.3875 86.93524L568.3875 92.49774L569.54376 92.49774L569.54376 93.46649L568.3875 93.46649L568.3875 95.52899L567.325 95.52899ZM567.325 92.49774L567.325 88.63837L564.6375 92.49774L567.325 92.49774ZM571.15314 88.99774Q571.15314 88.07587 571.60626 87.43524Q572.075 86.79462 572.95 86.79462Q573.7625 86.79462 574.29376 87.37274Q574.825 87.95087 574.825 89.06024Q574.825 90.15399 574.27814 90.74774Q573.7469 91.32587 572.96564 91.32587Q572.1844 91.32587 571.66876 90.74774Q571.15314 90.16962 571.15314 88.99774ZM572.98126 87.51337Q572.59064 87.51337 572.325 87.85712Q572.075 88.20087 572.075 89.10712Q572.075 89.93524 572.325 90.27899Q572.59064 90.60712 572.98126 90.60712Q573.3875 90.60712 573.6375 90.26337Q573.90314 89.91962 573.90314 89.02899Q573.90314 88.18524 573.6375 87.85712Q573.3719 87.51337 572.98126 87.51337ZM572.98126 95.84149L577.6844 86.79462L578.54376 86.79462L573.85626 95.84149L572.98126 95.84149ZM576.7 93.51337Q576.7 92.59149 577.15314 91.95087Q577.6219 91.31024 578.5125 91.31024Q579.325 91.31024 579.85626 91.88837Q580.3875 92.45087 580.3875 93.57587Q580.3875 94.66962 579.84064 95.26337Q579.3094 95.84149 578.5125 95.84149Q577.7469 95.84149 577.21564 95.26337Q576.7 94.68524 576.7 93.51337ZM578.54376 92.02899Q578.1375 92.02899 577.8719 92.37274Q577.6219 92.71649 577.6219 93.62274Q577.6219 94.43524 577.8875 94.77899Q578.15314 95.12274 578.54376 95.12274Q578.9344 95.12274 579.2 94.77899Q579.46564 94.43524 579.46564 93.52899Q579.46564 92.70087 579.2 92.37274Q578.9344 92.02899 578.54376 92.02899Z" fill-rule="nonzero"></path>
  <path stroke="#757575" stroke-width="1.0" stroke-linecap="butt" d="M581.45 83.02899L454.76666 83.02899L373.59503 83.02899" fill-rule="nonzero"></path>
  <path fill="#9e9e9e" d="M375.59503 83.02899C375.59503 81.92442 374.6996 81.02899 373.59503 81.02899C372.49045 81.02899 371.59503 81.92442 371.59503 83.02899C371.59503 84.13356 372.49045 85.02899 373.59503 85.02899C374.6996 85.02899 375.59503 84.13356 375.59503 83.02899" fill-rule="nonzero"></path>
  <path fill="#1a1a1a" d="M534.9969 318.54773L536.0594 318.45398Q536.1375 319.11023 536.41876 319.51648Q536.7 319.92273 537.27814 320.18835Q537.8719 320.43835 538.60626 320.43835Q539.2469 320.43835 539.7469 320.25085Q540.2469 320.04773 540.48126 319.7196Q540.73126 319.37585 540.73126 318.98523Q540.73126 318.57898 540.4969 318.2821Q540.2625 317.9696 539.73126 317.76648Q539.3719 317.62585 538.1844 317.3446Q537.0125 317.06335 536.54376 316.81335Q535.91876 316.48523 535.6219 316.01648Q535.325 315.5321 535.325 314.93835Q535.325 314.29773 535.6844 313.73523Q536.0594 313.1571 536.7625 312.87585Q537.48126 312.57898 538.34064 312.57898Q539.29376 312.57898 540.02814 312.89148Q540.7625 313.18835 541.15314 313.79773Q541.54376 314.39148 541.575 315.14148L540.48126 315.2196Q540.3875 314.4071 539.8719 314.00085Q539.3719 313.57898 538.3875 313.57898Q537.35626 313.57898 536.8875 313.95398Q536.41876 314.32898 536.41876 314.86023Q536.41876 315.32898 536.7469 315.62585Q537.075 315.92273 538.45 316.23523Q539.84064 316.54773 540.35626 316.7821Q541.10626 317.14148 541.46564 317.67273Q541.825 318.18835 541.825 318.89148Q541.825 319.57898 541.4344 320.18835Q541.04376 320.7821 540.3094 321.12585Q539.575 321.45398 538.65314 321.45398Q537.48126 321.45398 536.6844 321.12585Q535.90314 320.7821 535.45 320.0946Q535.0125 319.4071 534.9969 318.54773ZM547.3094 320.54773Q546.71564 321.04773 546.16876 321.25085Q545.6375 321.45398 545.0125 321.45398Q543.98126 321.45398 543.4344 320.95398Q542.8875 320.45398 542.8875 319.67273Q542.8875 319.2196 543.09064 318.8446Q543.29376 318.45398 543.6375 318.23523Q543.98126 318.00085 544.40314 317.89148Q544.7 317.79773 545.34064 317.7196Q546.60626 317.57898 547.21564 317.36023Q547.21564 317.14148 547.21564 317.0946Q547.21564 316.43835 546.91876 316.17273Q546.5125 315.82898 545.71564 315.82898Q544.98126 315.82898 544.6219 316.0946Q544.2625 316.3446 544.09064 317.00085L543.0594 316.86023Q543.2 316.20398 543.52814 315.79773Q543.85626 315.39148 544.46564 315.17273Q545.075 314.95398 545.8719 314.95398Q546.66876 314.95398 547.16876 315.14148Q547.66876 315.32898 547.90314 315.61023Q548.1375 315.89148 548.23126 316.32898Q548.27814 316.5946 548.27814 317.29773L548.27814 318.70398Q548.27814 320.17273 548.34064 320.56335Q548.41876 320.95398 548.6219 321.31335L547.5125 321.31335Q547.35626 320.98523 547.3094 320.54773ZM547.21564 318.18835Q546.6375 318.42273 545.4969 318.5946Q544.84064 318.68835 544.575 318.81335Q544.3094 318.92273 544.15314 319.14148Q544.0125 319.36023 544.0125 319.64148Q544.0125 320.06335 544.325 320.3446Q544.65314 320.62585 545.2625 320.62585Q545.8719 320.62585 546.34064 320.36023Q546.825 320.0946 547.04376 319.62585Q547.21564 319.26648 547.21564 318.57898L547.21564 318.18835ZM552.54376 320.37585L552.7 321.29773Q552.2469 321.39148 551.90314 321.39148Q551.325 321.39148 551.0125 321.2196Q550.7 321.0321 550.5594 320.73523Q550.4344 320.43835 550.4344 319.48523L550.4344 315.9071L549.66876 315.9071L549.66876 315.0946L550.4344 315.0946L550.4344 313.54773L551.48126 312.92273L551.48126 315.0946L552.54376 315.0946L552.54376 315.9071L551.48126 315.9071L551.48126 319.54773Q551.48126 320.00085 551.52814 320.12585Q551.59064 320.25085 551.71564 320.32898Q551.84064 320.4071 552.075 320.4071Q552.2625 320.4071 552.54376 320.37585ZM553.2469 313.93835L553.2469 312.7196L554.3094 312.7196L554.3094 313.93835L553.2469 313.93835ZM553.2469 321.31335L553.2469 315.0946L554.3094 315.0946L554.3094 321.31335L553.2469 321.31335ZM555.825 319.45398L556.85626 319.29773Q556.95 319.92273 557.34064 320.25085Q557.7469 320.57898 558.48126 320.57898Q559.2 320.57898 559.54376 320.29773Q559.90314 320.00085 559.90314 319.5946Q559.90314 319.23523 559.59064 319.0321Q559.3719 318.89148 558.5125 318.67273Q557.35626 318.37585 556.90314 318.17273Q556.46564 317.95398 556.23126 317.57898Q555.9969 317.20398 555.9969 316.73523Q555.9969 316.32898 556.1844 315.9696Q556.3719 315.61023 556.7 315.37585Q556.95 315.20398 557.3719 315.07898Q557.79376 314.95398 558.29376 314.95398Q559.0125 314.95398 559.5594 315.17273Q560.1219 315.37585 560.3875 315.73523Q560.65314 316.0946 560.7469 316.68835L559.71564 316.82898Q559.65314 316.36023 559.3094 316.0946Q558.98126 315.81335 558.35626 315.81335Q557.6375 315.81335 557.325 316.06335Q557.0125 316.29773 557.0125 316.62585Q557.0125 316.82898 557.1375 316.98523Q557.27814 317.1571 557.54376 317.26648Q557.7 317.32898 558.48126 317.5321Q559.60626 317.8446 560.04376 318.0321Q560.48126 318.2196 560.73126 318.57898Q560.98126 318.93835 560.98126 319.48523Q560.98126 320.01648 560.66876 320.48523Q560.3719 320.93835 559.79376 321.20398Q559.21564 321.45398 558.48126 321.45398Q557.2625 321.45398 556.6219 320.95398Q555.9969 320.43835 555.825 319.45398ZM562.4969 321.31335L562.4969 315.9071L561.5594 315.9071L561.5594 315.0946L562.4969 315.0946L562.4969 314.42273Q562.4969 313.79773 562.60626 313.50085Q562.7625 313.07898 563.1375 312.82898Q563.52814 312.57898 564.21564 312.57898Q564.66876 312.57898 565.2 312.68835L565.04376 313.5946Q564.71564 313.54773 564.41876 313.54773Q563.9344 313.54773 563.73126 313.75085Q563.54376 313.95398 563.54376 314.51648L563.54376 315.0946L564.7625 315.0946L564.7625 315.9071L563.54376 315.9071L563.54376 321.31335L562.4969 321.31335ZM565.2469 313.93835L565.2469 312.7196L566.3094 312.7196L566.3094 313.93835L565.2469 313.93835ZM565.2469 321.31335L565.2469 315.0946L566.3094 315.0946L566.3094 321.31335L565.2469 321.31335ZM572.4969 319.31335L573.59064 319.43835Q573.34064 320.39148 572.6375 320.92273Q571.9344 321.45398 570.85626 321.45398Q569.4969 321.45398 568.6844 320.61023Q567.8875 319.76648 567.8875 318.25085Q567.8875 316.68835 568.7 315.82898Q569.5125 314.95398 570.79376 314.95398Q572.04376 314.95398 572.825 315.79773Q573.6219 316.64148 573.6219 318.18835Q573.6219 318.2821 573.6219 318.4696L568.98126 318.4696Q569.04376 319.50085 569.5594 320.04773Q570.075 320.57898 570.85626 320.57898Q571.4344 320.57898 571.84064 320.2821Q572.2625 319.9696 572.4969 319.31335ZM569.04376 317.61023L572.5125 317.61023Q572.45 316.81335 572.1219 316.42273Q571.60626 315.81335 570.8094 315.81335Q570.075 315.81335 569.575 316.29773Q569.09064 316.7821 569.04376 317.61023ZM579.27814 321.31335L579.27814 320.5321Q578.6844 321.45398 577.54376 321.45398Q576.79376 321.45398 576.16876 321.04773Q575.54376 320.62585 575.2 319.89148Q574.85626 319.1571 574.85626 318.20398Q574.85626 317.2821 575.16876 316.51648Q575.48126 315.75085 576.10626 315.36023Q576.73126 314.95398 577.4969 314.95398Q578.0594 314.95398 578.4969 315.18835Q578.9344 315.42273 579.21564 315.79773L579.21564 312.7196L580.2625 312.7196L580.2625 321.31335L579.27814 321.31335ZM575.95 318.20398Q575.95 319.4071 576.45 320.00085Q576.95 320.57898 577.6375 320.57898Q578.325 320.57898 578.8094 320.01648Q579.29376 319.45398 579.29376 318.29773Q579.29376 317.01648 578.79376 316.42273Q578.3094 315.82898 577.59064 315.82898Q576.8875 315.82898 576.41876 316.4071Q575.95 316.9696 575.95 318.20398Z" fill-rule="nonzero"></path>
  <path fill="#9e9e9e" d="M550.325 338.31335L550.325 336.25085L546.60626 336.25085L546.60626 335.2821L550.52814 329.7196L551.3875 329.7196L551.3875 335.2821L552.54376 335.2821L552.54376 336.25085L551.3875 336.25085L551.3875 338.31335L550.325 338.31335ZM550.325 335.2821L550.325 331.42273L547.6375 335.2821L550.325 335.2821ZM555.575 333.6571Q554.91876 333.4071 554.59064 332.9696Q554.27814 332.51648 554.27814 331.9071Q554.27814 330.9696 554.95 330.32898Q555.6375 329.68835 556.7469 329.68835Q557.8719 329.68835 558.5594 330.3446Q559.2469 331.00085 559.2469 331.93835Q559.2469 332.5321 558.9344 332.9696Q558.6219 333.4071 557.98126 333.6571Q558.77814 333.9071 559.1844 334.48523Q559.59064 335.06335 559.59064 335.86023Q559.59064 336.95398 558.8094 337.70398Q558.04376 338.45398 556.7625 338.45398Q555.4969 338.45398 554.71564 337.70398Q553.9344 336.95398 553.9344 335.82898Q553.9344 334.98523 554.35626 334.42273Q554.79376 333.86023 555.575 333.6571ZM555.35626 331.86023Q555.35626 332.4696 555.7469 332.86023Q556.15314 333.25085 556.77814 333.25085Q557.3875 333.25085 557.77814 332.87585Q558.16876 332.48523 558.16876 331.92273Q558.16876 331.3446 557.7625 330.95398Q557.35626 330.54773 556.7625 330.54773Q556.15314 330.54773 555.7469 330.93835Q555.35626 331.32898 555.35626 331.86023ZM555.02814 335.82898Q555.02814 336.2821 555.23126 336.70398Q555.45 337.12585 555.8719 337.36023Q556.29376 337.5946 556.77814 337.5946Q557.52814 337.5946 558.0125 337.11023Q558.5125 336.62585 558.5125 335.87585Q558.5125 335.11023 558.0125 334.61023Q557.5125 334.11023 556.7469 334.11023Q555.9969 334.11023 555.5125 334.61023Q555.02814 335.0946 555.02814 335.82898ZM561.54376 338.31335L561.54376 337.11023L562.7469 337.11023L562.7469 338.31335L561.54376 338.31335ZM563.95 336.04773L565.0125 335.9071Q565.1844 336.79773 565.6219 337.20398Q566.0594 337.5946 566.6844 337.5946Q567.4344 337.5946 567.95 337.07898Q568.46564 336.56335 568.46564 335.79773Q568.46564 335.07898 567.98126 334.61023Q567.5125 334.12585 566.77814 334.12585Q566.48126 334.12585 566.02814 334.25085L566.15314 333.31335Q566.2625 333.32898 566.325 333.32898Q566.9969 333.32898 567.52814 332.98523Q568.075 332.62585 568.075 331.89148Q568.075 331.31335 567.6844 330.93835Q567.29376 330.54773 566.66876 330.54773Q566.0594 330.54773 565.6375 330.93835Q565.23126 331.32898 565.1219 332.0946L564.0594 331.9071Q564.2469 330.86023 564.9344 330.2821Q565.6219 329.68835 566.6375 329.68835Q567.34064 329.68835 567.9344 330.00085Q568.52814 330.29773 568.84064 330.81335Q569.15314 331.32898 569.15314 331.92273Q569.15314 332.4696 568.85626 332.93835Q568.5594 333.39148 567.98126 333.6571Q568.73126 333.82898 569.15314 334.39148Q569.575 334.93835 569.575 335.7821Q569.575 336.9071 568.7469 337.68835Q567.9344 338.4696 566.6844 338.4696Q565.5594 338.4696 564.8094 337.79773Q564.0594 337.11023 563.95 336.04773ZM571.15314 331.7821Q571.15314 330.86023 571.60626 330.2196Q572.075 329.57898 572.95 329.57898Q573.7625 329.57898 574.29376 330.1571Q574.825 330.73523 574.825 331.8446Q574.825 332.93835 574.27814 333.5321Q573.7469 334.11023 572.96564 334.11023Q572.1844 334.11023 571.66876 333.5321Q571.15314 332.95398 571.15314 331.7821ZM572.98126 330.29773Q572.59064 330.29773 572.325 330.64148Q572.075 330.98523 572.075 331.89148Q572.075 332.7196 572.325 333.06335Q572.59064 333.39148 572.98126 333.39148Q573.3875 333.39148 573.6375 333.04773Q573.90314 332.70398 573.90314 331.81335Q573.90314 330.9696 573.6375 330.64148Q573.3719 330.29773 572.98126 330.29773ZM572.98126 338.62585L577.6844 329.57898L578.54376 329.57898L573.85626 338.62585L572.98126 338.62585ZM576.7 336.29773Q576.7 335.37585 577.15314 334.73523Q577.6219 334.0946 578.5125 334.0946Q579.325 334.0946 579.85626 334.67273Q580.3875 335.23523 580.3875 336.36023Q580.3875 337.45398 579.84064 338.04773Q579.3094 338.62585 578.5125 338.62585Q577.7469 338.62585 577.21564 338.04773Q576.7 337.4696 576.7 336.29773ZM578.54376 334.81335Q578.1375 334.81335 577.8719 335.1571Q577.6219 335.50085 577.6219 336.4071Q577.6219 337.2196 577.8875 337.56335Q578.15314 337.9071 578.54376 337.9071Q578.9344 337.9071 579.2 337.56335Q579.46564 337.2196 579.46564 336.31335Q579.46564 335.48523 579.2 335.1571Q578.9344 334.81335 578.54376 334.81335Z" fill-rule="nonzero"></path>
  <path stroke="#757575" stroke-width="1.0" stroke-linecap="butt" d="M581.45 325.81335L454.76666 325.81335L371.1193 325.81335" fill-rule="nonzero"></path>
  <path fill="#9e9e9e" d="M373.1193 325.81335C373.1193 324.70877 372.22388 323.81335 371.1193 323.81335C370.01474 323.81335 369.1193 324.70877 369.1193 325.81335C369.1193 326.91794 370.01474 327.81335 371.1193 327.81335C372.22388 327.81335 373.1193 326.91794 373.1193 325.81335" fill-rule="nonzero"></path>
  <path fill="#757575" d="M19.51875 30.58125Q19.51875 27.01875 21.425 25.003124Q23.346874 22.971874 26.378124 22.971874Q28.3625 22.971874 29.940624 23.925Q31.534374 24.878124 32.3625 26.58125Q33.20625 28.26875 33.20625 30.409374Q33.20625 32.58125 32.33125 34.3Q31.45625 36.01875 29.83125 36.909374Q28.221874 37.8 26.3625 37.8Q24.346874 37.8 22.753124 36.83125Q21.159374 35.846874 20.33125 34.159374Q19.51875 32.45625 19.51875 30.58125ZM21.471874 30.6125Q21.471874 33.190624 22.8625 34.690624Q24.253124 36.175 26.346874 36.175Q28.4875 36.175 29.8625 34.675Q31.253124 33.159374 31.253124 30.39375Q31.253124 28.659374 30.659374 27.3625Q30.08125 26.05 28.940624 25.33125Q27.8 24.6125 26.378124 24.6125Q24.378124 24.6125 22.925 26.003124Q21.471874 27.378124 21.471874 30.6125ZM38.753124 37.55L34.8 27.175L36.659374 27.175L38.89375 33.39375Q39.253124 34.39375 39.55 35.471874Q39.784374 34.659374 40.20625 33.503124L42.503124 27.175L44.315624 27.175L40.39375 37.55L38.753124 37.55ZM52.971874 34.20625L54.784374 34.440624Q54.3625 36.01875 53.190624 36.909374Q52.034374 37.784374 50.221874 37.784374Q47.95625 37.784374 46.6125 36.39375Q45.284374 34.9875 45.284374 32.45625Q45.284374 29.83125 46.628124 28.39375Q47.971874 26.940624 50.128124 26.940624Q52.20625 26.940624 53.51875 28.3625Q54.846874 29.76875 54.846874 32.346874Q54.846874 32.503124 54.83125 32.815624L47.096874 32.815624Q47.190624 34.51875 48.065624 35.425Q48.940624 36.33125 50.2375 36.33125Q51.20625 36.33125 51.878124 35.83125Q52.565624 35.315624 52.971874 34.20625ZM47.190624 31.3625L52.9875 31.3625Q52.878124 30.065624 52.33125 29.409374Q51.4875 28.39375 50.14375 28.39375Q48.940624 28.39375 48.1125 29.20625Q47.284374 30.003124 47.190624 31.3625ZM56.846874 37.55L56.846874 27.175L58.425 27.175L58.425 28.753124Q59.034374 27.64375 59.55 27.3Q60.065624 26.940624 60.675 26.940624Q61.565624 26.940624 62.4875 27.503124L61.878124 29.14375Q61.2375 28.753124 60.596874 28.753124Q60.01875 28.753124 59.55 29.1125Q59.096874 29.45625 58.89375 30.065624Q58.6125 31.003124 58.6125 32.1125L58.6125 37.55L56.846874 37.55ZM70.64375 36.26875Q69.65938 37.096874 68.75313 37.440624Q67.84688 37.784374 66.81563 37.784374Q65.1125 37.784374 64.19063 36.95625Q63.26875 36.1125 63.26875 34.815624Q63.26875 34.05 63.6125 33.425Q63.971874 32.8 64.53438 32.425Q65.09688 32.034374 65.8 31.83125Q66.31563 31.70625 67.3625 31.565624Q69.4875 31.315624 70.4875 30.971874Q70.50313 30.6125 70.50313 30.503124Q70.50313 29.440624 70.00313 28.9875Q69.33125 28.39375 68.00313 28.39375Q66.75313 28.39375 66.15938 28.83125Q65.58125 29.26875 65.3 30.378124L63.58125 30.14375Q63.815624 29.034374 64.34688 28.3625Q64.87813 27.675 65.89375 27.315624Q66.90938 26.940624 68.25313 26.940624Q69.58125 26.940624 70.40938 27.253124Q71.2375 27.565624 71.62813 28.05Q72.01875 28.51875 72.175 29.2375Q72.26875 29.690624 72.26875 30.8625L72.26875 33.20625Q72.26875 35.659374 72.37813 36.315624Q72.4875 36.95625 72.83125 37.55L70.9875 37.55Q70.72188 37.003124 70.64375 36.26875ZM70.4875 32.346874Q69.53438 32.7375 67.6125 33.003124Q66.53438 33.159374 66.08125 33.3625Q65.64375 33.55 65.39375 33.925Q65.14375 34.3 65.14375 34.76875Q65.14375 35.471874 65.675 35.940624Q66.20625 36.409374 67.2375 36.409374Q68.25313 36.409374 69.03438 35.971874Q69.83125 35.51875 70.20625 34.753124Q70.4875 34.14375 70.4875 32.9875L70.4875 32.346874ZM74.83125 37.55L74.83125 23.2375L76.58125 23.2375L76.58125 37.55L74.83125 37.55ZM78.83125 37.55L78.83125 23.2375L80.58125 23.2375L80.58125 37.55L78.83125 37.55ZM88.45625 32.95625L90.2375 32.8Q90.3625 33.8625 90.81563 34.55Q91.28438 35.2375 92.25313 35.675Q93.2375 36.096874 94.47188 36.096874Q95.55 36.096874 96.37813 35.784374Q97.20625 35.45625 97.6125 34.89375Q98.01875 34.33125 98.01875 33.659374Q98.01875 32.9875 97.62813 32.4875Q97.2375 31.9875 96.34688 31.64375Q95.76875 31.409374 93.78438 30.940624Q91.81563 30.471874 91.03438 30.05Q90.00313 29.51875 89.50313 28.721874Q89.00313 27.925 89.00313 26.940624Q89.00313 25.846874 89.6125 24.909374Q90.22188 23.971874 91.40938 23.4875Q92.59688 22.9875 94.03438 22.9875Q95.62813 22.9875 96.84688 23.503124Q98.06563 24.01875 98.70625 25.01875Q99.3625 26.003124 99.40938 27.26875L97.59688 27.409374Q97.45625 26.05 96.6125 25.3625Q95.76875 24.659374 94.1125 24.659374Q92.39375 24.659374 91.59688 25.3Q90.81563 25.925 90.81563 26.8Q90.81563 27.58125 91.37813 28.08125Q91.925 28.58125 94.2375 29.096874Q96.55 29.6125 97.40938 30.003124Q98.65938 30.58125 99.25313 31.471874Q99.84688 32.346874 99.84688 33.503124Q99.84688 34.64375 99.19063 35.659374Q98.53438 36.675 97.3 37.2375Q96.08125 37.8 94.55 37.8Q92.6125 37.8 91.3 37.2375Q89.9875 36.659374 89.2375 35.51875Q88.4875 34.378124 88.45625 32.95625ZM108.64375 36.26875Q107.65938 37.096874 106.75313 37.440624Q105.84688 37.784374 104.81563 37.784374Q103.1125 37.784374 102.19063 36.95625Q101.26875 36.1125 101.26875 34.815624Q101.26875 34.05 101.6125 33.425Q101.97188 32.8 102.53438 32.425Q103.09688 32.034374 103.8 31.83125Q104.31563 31.70625 105.3625 31.565624Q107.4875 31.315624 108.4875 30.971874Q108.50313 30.6125 108.50313 30.503124Q108.50313 29.440624 108.00313 28.9875Q107.33125 28.39375 106.00313 28.39375Q104.75313 28.39375 104.15938 28.83125Q103.58125 29.26875 103.3 30.378124L101.58125 30.14375Q101.81563 29.034374 102.34688 28.3625Q102.87813 27.675 103.89375 27.315624Q104.90938 26.940624 106.25313 26.940624Q107.58125 26.940624 108.40938 27.253124Q109.2375 27.565624 109.62813 28.05Q110.01875 28.51875 110.175 29.2375Q110.26875 29.690624 110.26875 30.8625L110.26875 33.20625Q110.26875 35.659374 110.37813 36.315624Q110.4875 36.95625 110.83125 37.55L108.9875 37.55Q108.72188 37.003124 108.64375 36.26875ZM108.4875 32.346874Q107.53438 32.7375 105.6125 33.003124Q104.53438 33.159374 104.08125 33.3625Q103.64375 33.55 103.39375 33.925Q103.14375 34.3 103.14375 34.76875Q103.14375 35.471874 103.675 35.940624Q104.20625 36.409374 105.2375 36.409374Q106.25313 36.409374 107.03438 35.971874Q107.83125 35.51875 108.20625 34.753124Q108.4875 34.14375 108.4875 32.9875L108.4875 32.346874ZM116.70625 35.971874L116.95625 37.534374Q116.22188 37.690624 115.62813 37.690624Q114.675 37.690624 114.14375 37.39375Q113.62813 37.08125 113.40938 36.596874Q113.19063 36.096874 113.19063 34.51875L113.19063 28.55L111.90938 28.55L111.90938 27.175L113.19063 27.175L113.19063 24.6125L114.94063 23.55L114.94063 27.175L116.70625 27.175L116.70625 28.55L114.94063 28.55L114.94063 34.6125Q114.94063 35.3625 115.03438 35.58125Q115.12813 35.784374 115.33125 35.925Q115.55 36.05 115.94063 36.05Q116.22188 36.05 116.70625 35.971874ZM118.87813 25.253124L118.87813 23.2375L120.64375 23.2375L120.64375 25.253124L118.87813 25.253124ZM118.87813 37.55L118.87813 27.175L120.64375 27.175L120.64375 37.55L118.87813 37.55ZM122.15938 34.45625L123.90938 34.175Q124.05 35.221874 124.72188 35.784374Q125.39375 36.33125 126.59688 36.33125Q127.8 36.33125 128.37813 35.846874Q128.97188 35.346874 128.97188 34.690624Q128.97188 34.096874 128.45625 33.753124Q128.09688 33.51875 126.65938 33.159374Q124.72188 32.659374 123.97188 32.315624Q123.2375 31.95625 122.84688 31.33125Q122.45625 30.690624 122.45625 29.925Q122.45625 29.2375 122.76875 28.64375Q123.09688 28.05 123.64375 27.659374Q124.05 27.3625 124.75313 27.159374Q125.47188 26.940624 126.28438 26.940624Q127.50313 26.940624 128.425 27.3Q129.34688 27.64375 129.78438 28.253124Q130.22188 28.846874 130.39375 29.846874L128.675 30.08125Q128.55 29.284374 127.9875 28.846874Q127.425 28.39375 126.40938 28.39375Q125.19063 28.39375 124.675 28.8Q124.15938 29.190624 124.15938 29.721874Q124.15938 30.065624 124.37813 30.346874Q124.58125 30.628124 125.05 30.815624Q125.31563 30.909374 126.59688 31.253124Q128.47188 31.753124 129.20625 32.08125Q129.94063 32.39375 130.3625 33.003124Q130.78438 33.596874 130.78438 34.503124Q130.78438 35.378124 130.26875 36.159374Q129.75313 36.940624 128.78438 37.3625Q127.81563 37.784374 126.59688 37.784374Q124.58125 37.784374 123.51875 36.940624Q122.45625 36.096874 122.15938 34.45625ZM133.28438 37.55L133.28438 28.55L131.7375 28.55L131.7375 27.175L133.28438 27.175L133.28438 26.08125Q133.28438 25.034374 133.47188 24.51875Q133.72188 23.83125 134.3625 23.409374Q135.00313 22.9875 136.15938 22.9875Q136.90938 22.9875 137.8 23.159374L137.53438 24.690624Q136.9875 24.596874 136.50313 24.596874Q135.70625 24.596874 135.3625 24.940624Q135.03438 25.284374 135.03438 26.221874L135.03438 27.175L137.06563 27.175L137.06563 28.55L135.03438 28.55L135.03438 37.55L133.28438 37.55ZM145.64375 36.26875Q144.65938 37.096874 143.75313 37.440624Q142.84688 37.784374 141.81563 37.784374Q140.1125 37.784374 139.19063 36.95625Q138.26875 36.1125 138.26875 34.815624Q138.26875 34.05 138.6125 33.425Q138.97188 32.8 139.53438 32.425Q140.09688 32.034374 140.8 31.83125Q141.31563 31.70625 142.3625 31.565624Q144.4875 31.315624 145.4875 30.971874Q145.50313 30.6125 145.50313 30.503124Q145.50313 29.440624 145.00313 28.9875Q144.33125 28.39375 143.00313 28.39375Q141.75313 28.39375 141.15938 28.83125Q140.58125 29.26875 140.3 30.378124L138.58125 30.14375Q138.81563 29.034374 139.34688 28.3625Q139.87813 27.675 140.89375 27.315624Q141.90938 26.940624 143.25313 26.940624Q144.58125 26.940624 145.40938 27.253124Q146.2375 27.565624 146.62813 28.05Q147.01875 28.51875 147.175 29.2375Q147.26875 29.690624 147.26875 30.8625L147.26875 33.20625Q147.26875 35.659374 147.37813 36.315624Q147.4875 36.95625 147.83125 37.55L145.9875 37.55Q145.72188 37.003124 145.64375 36.26875ZM145.4875 32.346874Q144.53438 32.7375 142.6125 33.003124Q141.53438 33.159374 141.08125 33.3625Q140.64375 33.55 140.39375 33.925Q140.14375 34.3 140.14375 34.76875Q140.14375 35.471874 140.675 35.940624Q141.20625 36.409374 142.2375 36.409374Q143.25313 36.409374 144.03438 35.971874Q144.83125 35.51875 145.20625 34.753124Q145.4875 34.14375 145.4875 32.9875L145.4875 32.346874ZM156.64375 33.753124L158.3625 33.971874Q158.08125 35.76875 156.90938 36.784374Q155.75313 37.784374 154.05 37.784374Q151.925 37.784374 150.62813 36.39375Q149.33125 35.003124 149.33125 32.409374Q149.33125 30.721874 149.87813 29.471874Q150.44063 28.20625 151.58125 27.58125Q152.72188 26.940624 154.06563 26.940624Q155.75313 26.940624 156.81563 27.8Q157.89375 28.659374 158.20625 30.221874L156.4875 30.4875Q156.25313 29.440624 155.62813 28.925Q155.00313 28.39375 154.12813 28.39375Q152.8 28.39375 151.97188 29.346874Q151.14375 30.3 151.14375 32.346874Q151.14375 34.440624 151.94063 35.39375Q152.7375 36.33125 154.03438 36.33125Q155.06563 36.33125 155.75313 35.70625Q156.45625 35.065624 156.64375 33.753124ZM163.70625 35.971874L163.95625 37.534374Q163.22188 37.690624 162.62813 37.690624Q161.675 37.690624 161.14375 37.39375Q160.62813 37.08125 160.40938 36.596874Q160.19063 36.096874 160.19063 34.51875L160.19063 28.55L158.90938 28.55L158.90938 27.175L160.19063 27.175L160.19063 24.6125L161.94063 23.55L161.94063 27.175L163.70625 27.175L163.70625 28.55L161.94063 28.55L161.94063 34.6125Q161.94063 35.3625 162.03438 35.58125Q162.12813 35.784374 162.33125 35.925Q162.55 36.05 162.94063 36.05Q163.22188 36.05 163.70625 35.971874ZM165.87813 25.253124L165.87813 23.2375L167.64375 23.2375L167.64375 25.253124L165.87813 25.253124ZM165.87813 37.55L165.87813 27.175L167.64375 27.175L167.64375 37.55L165.87813 37.55ZM169.22188 32.3625Q169.22188 29.4875 170.81563 28.096874Q172.15938 26.940624 174.08125 26.940624Q176.22188 26.940624 177.56563 28.346874Q178.925 29.753124 178.925 32.221874Q178.925 34.221874 178.33125 35.378124Q177.7375 36.51875 176.58125 37.159374Q175.44063 37.784374 174.08125 37.784374Q171.89375 37.784374 170.55 36.39375Q169.22188 34.9875 169.22188 32.3625ZM171.01875 32.3625Q171.01875 34.3625 171.87813 35.346874Q172.75313 36.33125 174.08125 36.33125Q175.39375 36.33125 176.25313 35.346874Q177.12813 34.346874 177.12813 32.3Q177.12813 30.378124 176.25313 29.39375Q175.37813 28.39375 174.08125 28.39375Q172.75313 28.39375 171.87813 29.39375Q171.01875 30.378124 171.01875 32.3625ZM180.8625 37.55L180.8625 27.175L182.45625 27.175L182.45625 28.659374Q183.59688 26.940624 185.75313 26.940624Q186.69063 26.940624 187.47188 27.284374Q188.26875 27.6125 188.65938 28.159374Q189.05 28.70625 189.20625 29.45625Q189.3 29.95625 189.3 31.175L189.3 37.55L187.53438 37.55L187.53438 31.2375Q187.53438 30.159374 187.33125 29.628124Q187.12813 29.096874 186.59688 28.784374Q186.08125 28.471874 185.37813 28.471874Q184.25313 28.471874 183.44063 29.190624Q182.62813 29.89375 182.62813 31.878124L182.62813 37.55L180.8625 37.55ZM200.59688 37.55L196.8 23.2375L198.7375 23.2375L200.90938 32.6125Q201.26875 34.096874 201.51875 35.55Q202.06563 33.253124 202.15938 32.89375L204.89375 23.2375L207.175 23.2375L209.22188 30.471874Q210.00313 33.175 210.34688 35.55Q210.6125 34.190624 211.05 32.425L213.3 23.2375L215.20625 23.2375L211.28438 37.55L209.45625 37.55L206.44063 26.64375Q206.05 25.26875 205.9875 24.95625Q205.75313 25.940624 205.56563 26.64375L202.53438 37.55L200.59688 37.55ZM216.87813 25.253124L216.87813 23.2375L218.64375 23.2375L218.64375 25.253124L216.87813 25.253124ZM216.87813 37.55L216.87813 27.175L218.64375 27.175L218.64375 37.55L216.87813 37.55ZM224.70625 35.971874L224.95625 37.534374Q224.22188 37.690624 223.62813 37.690624Q222.675 37.690624 222.14375 37.39375Q221.62813 37.08125 221.40938 36.596874Q221.19063 36.096874 221.19063 34.51875L221.19063 28.55L219.90938 28.55L219.90938 27.175L221.19063 27.175L221.19063 24.6125L222.94063 23.55L222.94063 27.175L224.70625 27.175L224.70625 28.55L222.94063 28.55L222.94063 34.6125Q222.94063 35.3625 223.03438 35.58125Q223.12813 35.784374 223.33125 35.925Q223.55 36.05 223.94063 36.05Q224.22188 36.05 224.70625 35.971874ZM226.8625 37.55L226.8625 23.2375L228.62813 23.2375L228.62813 28.3625Q229.8625 26.940624 231.7375 26.940624Q232.87813 26.940624 233.72188 27.39375Q234.58125 27.846874 234.94063 28.659374Q235.31563 29.45625 235.31563 30.971874L235.31563 37.55L233.56563 37.55L233.56563 30.971874Q233.56563 29.659374 232.9875 29.065624Q232.40938 28.45625 231.37813 28.45625Q230.59688 28.45625 229.89375 28.8625Q229.20625 29.26875 228.90938 29.971874Q228.62813 30.659374 228.62813 31.878124L228.62813 37.55L226.8625 37.55ZM247.70625 35.971874L247.95625 37.534374Q247.22188 37.690624 246.62813 37.690624Q245.675 37.690624 245.14375 37.39375Q244.62813 37.08125 244.40938 36.596874Q244.19063 36.096874 244.19063 34.51875L244.19063 28.55L242.90938 28.55L242.90938 27.175L244.19063 27.175L244.19063 24.6125L245.94063 23.55L245.94063 27.175L247.70625 27.175L247.70625 28.55L245.94063 28.55L245.94063 34.6125Q245.94063 35.3625 246.03438 35.58125Q246.12813 35.784374 246.33125 35.925Q246.55 36.05 246.94063 36.05Q247.22188 36.05 247.70625 35.971874ZM249.8625 37.55L249.8625 23.2375L251.62813 23.2375L251.62813 28.3625Q252.8625 26.940624 254.7375 26.940624Q255.87813 26.940624 256.72186 27.39375Q257.58124 27.846874 257.9406 28.659374Q258.3156 29.45625 258.3156 30.971874L258.3156 37.55L256.5656 37.55L256.5656 30.971874Q256.5656 29.659374 255.9875 29.065624Q255.40938 28.45625 254.37813 28.45625Q253.59688 28.45625 252.89375 28.8625Q252.20625 29.26875 251.90938 29.971874Q251.62813 30.659374 251.62813 31.878124L251.62813 37.55L249.8625 37.55ZM267.97186 34.20625L269.78436 34.440624Q269.3625 36.01875 268.1906 36.909374Q267.03436 37.784374 265.22186 37.784374Q262.95624 37.784374 261.6125 36.39375Q260.28436 34.9875 260.28436 32.45625Q260.28436 29.83125 261.6281 28.39375Q262.97186 26.940624 265.1281 26.940624Q267.20624 26.940624 268.51874 28.3625Q269.84686 29.76875 269.84686 32.346874Q269.84686 32.503124 269.83124 32.815624L262.09686 32.815624Q262.1906 34.51875 263.0656 35.425Q263.9406 36.33125 265.2375 36.33125Q266.20624 36.33125 266.8781 35.83125Q267.5656 35.315624 267.97186 34.20625ZM262.1906 31.3625L267.9875 31.3625Q267.8781 30.065624 267.33124 29.409374Q266.4875 28.39375 265.14374 28.39375Q263.9406 28.39375 263.1125 29.20625Q262.28436 30.003124 262.1906 31.3625ZM280.59686 37.55L276.8 23.2375L278.7375 23.2375L280.90936 32.6125Q281.26874 34.096874 281.51874 35.55Q282.0656 33.253124 282.15936 32.89375L284.89374 23.2375L287.175 23.2375L289.22186 30.471874Q290.0031 33.175 290.34686 35.55Q290.6125 34.190624 291.05 32.425L293.3 23.2375L295.20624 23.2375L291.28436 37.55L289.45624 37.55L286.4406 26.64375Q286.05 25.26875 285.9875 24.95625Q285.7531 25.940624 285.5656 26.64375L282.53436 37.55L280.59686 37.55ZM303.97186 34.20625L305.78436 34.440624Q305.3625 36.01875 304.1906 36.909374Q303.03436 37.784374 301.22186 37.784374Q298.95624 37.784374 297.6125 36.39375Q296.28436 34.9875 296.28436 32.45625Q296.28436 29.83125 297.6281 28.39375Q298.97186 26.940624 301.1281 26.940624Q303.20624 26.940624 304.51874 28.3625Q305.84686 29.76875 305.84686 32.346874Q305.84686 32.503124 305.83124 32.815624L298.09686 32.815624Q298.1906 34.51875 299.0656 35.425Q299.9406 36.33125 301.2375 36.33125Q302.20624 36.33125 302.8781 35.83125Q303.5656 35.315624 303.97186 34.20625ZM298.1906 31.3625L303.9875 31.3625Q303.8781 30.065624 303.33124 29.409374Q302.4875 28.39375 301.14374 28.39375Q299.9406 28.39375 299.1125 29.20625Q298.28436 30.003124 298.1906 31.3625ZM309.4875 37.55L307.8625 37.55L307.8625 23.2375L309.6125 23.2375L309.6125 28.346874Q310.7375 26.940624 312.45624 26.940624Q313.40936 26.940624 314.26874 27.33125Q315.1281 27.721874 315.675 28.425Q316.22186 29.1125 316.53436 30.096874Q316.84686 31.08125 316.84686 32.20625Q316.84686 34.878124 315.53436 36.33125Q314.22186 37.784374 312.3781 37.784374Q310.53436 37.784374 309.4875 36.253124L309.4875 37.55ZM309.47186 32.284374Q309.47186 34.14375 309.97186 34.9875Q310.8156 36.33125 312.22186 36.33125Q313.3781 36.33125 314.20624 35.33125Q315.05 34.33125 315.05 32.346874Q315.05 30.315624 314.2375 29.3625Q313.4406 28.39375 312.3 28.39375Q311.14374 28.39375 310.3 29.39375Q309.47186 30.39375 309.47186 32.284374Z" fill-rule="nonzero"></path>
</svg>
