<?xml version="1.0" encoding="UTF-8"?>
<svg xmlns:xlink="http://www.w3.org/1999/xlink" xmlns="http://www.w3.org/2000/svg" version="1.1" viewBox="0.0 0.0 600.0 371.0" fill="none" stroke="none" stroke-linecap="square" stroke-miterlimit="10" width="600" height="371">
  <path fill="#ffffff" d="M0 0L600.0 0L600.0 371.0L0 371.0L0 0Z" fill-rule="nonzero"></path>
  <path fill="#4285f4" d="M300.0 54.916668C351.10767 54.916668 398.6375 81.15108 425.87643 124.39498C453.11536 167.63889 456.2496 221.83768 434.17703 267.9332L300.0 203.68333Z" fill-rule="nonzero"></path>
  <path fill="#ea4335" d="M434.17703 267.9332C402.37286 334.35187 326.76166 367.50726 256.3606 345.90543C185.95956 324.3036 141.95686 254.44588 152.87857 181.61963C163.80028 108.79337 226.35934 54.916668 300.0 54.916668L300.0 203.68333Z" fill-rule="nonzero"></path>
  <path fill="#1a1a1a" d="M19.503124 274.50726L19.503124 265.9135L25.70625 265.9135L25.70625 266.92914L20.64375 266.92914L20.64375 269.55414L25.39375 269.55414L25.39375 270.56976L20.64375 270.56976L20.64375 273.49164L25.909374 273.49164L25.909374 274.50726L19.503124 274.50726ZM26.64375 274.50726L28.909374 271.2729L26.815624 268.2885L28.128124 268.2885L29.08125 269.74164Q29.346874 270.1635 29.51875 270.44476Q29.76875 270.05414 29.9875 269.75726L31.034374 268.2885L32.3 268.2885L30.14375 271.2104L32.45625 274.50726L31.175 274.50726L29.89375 272.56976L29.55 272.05414L27.909374 274.50726L26.64375 274.50726ZM35.64375 273.56976L35.8 274.49164Q35.346874 274.5854 35.003124 274.5854Q34.425 274.5854 34.1125 274.4135Q33.8 274.226 33.659374 273.92914Q33.534374 273.63226 33.534374 272.67914L33.534374 269.101L32.76875 269.101L32.76875 268.2885L33.534374 268.2885L33.534374 266.74164L34.58125 266.11664L34.58125 268.2885L35.64375 268.2885L35.64375 269.101L34.58125 269.101L34.58125 272.74164Q34.58125 273.19476 34.628124 273.31976Q34.690624 273.44476 34.815624 273.5229Q34.940624 273.601 35.175 273.601Q35.3625 273.601 35.64375 273.56976ZM40.596874 272.50726L41.690624 272.63226Q41.440624 273.5854 40.7375 274.11664Q40.034374 274.6479 38.95625 274.6479Q37.596874 274.6479 36.784374 273.80414Q35.9875 272.9604 35.9875 271.44476Q35.9875 269.88226 36.8 269.0229Q37.6125 268.1479 38.89375 268.1479Q40.14375 268.1479 40.925 268.99164Q41.721874 269.8354 41.721874 271.38226Q41.721874 271.476 41.721874 271.6635L37.08125 271.6635Q37.14375 272.69476 37.659374 273.24164Q38.175 273.7729 38.95625 273.7729Q39.534374 273.7729 39.940624 273.476Q40.3625 273.1635 40.596874 272.50726ZM37.14375 270.80414L40.6125 270.80414Q40.55 270.00726 40.221874 269.61664Q39.70625 269.00726 38.909374 269.00726Q38.175 269.00726 37.675 269.49164Q37.190624 269.976 37.14375 270.80414ZM43.33125 274.50726L43.33125 268.2885L44.284374 268.2885L44.284374 269.226Q44.64375 268.56976 44.940624 268.36664Q45.253124 268.1479 45.628124 268.1479Q46.159374 268.1479 46.70625 268.476L46.346874 269.4604Q45.95625 269.226 45.58125 269.226Q45.221874 269.226 44.940624 269.44476Q44.675 269.6479 44.565624 270.0229Q44.378124 270.5854 44.378124 271.24164L44.378124 274.50726L43.33125 274.50726ZM47.346874 274.50726L47.346874 268.2885L48.284374 268.2885L48.284374 269.1635Q48.971874 268.1479 50.26875 268.1479Q50.83125 268.1479 51.3 268.351Q51.784374 268.55414 52.01875 268.88226Q52.253124 269.2104 52.346874 269.6479Q52.39375 269.94476 52.39375 270.67914L52.39375 274.50726L51.346874 274.50726L51.346874 270.726Q51.346874 270.06976 51.221874 269.75726Q51.096874 269.44476 50.784374 269.25726Q50.471874 269.05414 50.05 269.05414Q49.378124 269.05414 48.878124 269.49164Q48.39375 269.9135 48.39375 271.101L48.39375 274.50726L47.346874 274.50726ZM58.409374 273.74164Q57.815624 274.24164 57.26875 274.44476Q56.7375 274.6479 56.1125 274.6479Q55.08125 274.6479 54.534374 274.1479Q53.9875 273.6479 53.9875 272.86664Q53.9875 272.4135 54.190624 272.0385Q54.39375 271.6479 54.7375 271.42914Q55.08125 271.19476 55.503124 271.0854Q55.8 270.99164 56.440624 270.9135Q57.70625 270.7729 58.315624 270.55414Q58.315624 270.3354 58.315624 270.2885Q58.315624 269.63226 58.01875 269.36664Q57.6125 269.0229 56.815624 269.0229Q56.08125 269.0229 55.721874 269.2885Q55.3625 269.5385 55.190624 270.19476L54.159374 270.05414Q54.3 269.3979 54.628124 268.99164Q54.95625 268.5854 55.565624 268.36664Q56.175 268.1479 56.971874 268.1479Q57.76875 268.1479 58.26875 268.3354Q58.76875 268.5229 59.003124 268.80414Q59.2375 269.0854 59.33125 269.5229Q59.378124 269.7885 59.378124 270.49164L59.378124 271.8979Q59.378124 273.36664 59.440624 273.75726Q59.51875 274.1479 59.721874 274.50726L58.6125 274.50726Q58.45625 274.17914 58.409374 273.74164ZM58.315624 271.38226Q57.7375 271.61664 56.596874 271.7885Q55.940624 271.88226 55.675 272.00726Q55.409374 272.11664 55.253124 272.3354Q55.1125 272.55414 55.1125 272.8354Q55.1125 273.25726 55.425 273.5385Q55.753124 273.81976 56.3625 273.81976Q56.971874 273.81976 57.440624 273.55414Q57.925 273.2885 58.14375 272.81976Q58.315624 272.4604 58.315624 271.7729L58.315624 271.38226ZM61.315624 274.50726L61.315624 265.9135L62.378124 265.9135L62.378124 274.50726L61.315624 274.50726Z" fill-rule="nonzero"></path>
  <path fill="#9e9e9e" d="M24.51875 285.0229L23.471874 285.101Q23.33125 284.476 23.08125 284.19476Q22.64375 283.74164 22.01875 283.74164Q21.51875 283.74164 21.128124 284.0229Q20.64375 284.3979 20.346874 285.101Q20.065624 285.7885 20.05 287.06976Q20.425 286.49164 20.971874 286.2104Q21.534374 285.92914 22.14375 285.92914Q23.190624 285.92914 23.925 286.7104Q24.675 287.49164 24.675 288.7104Q24.675 289.5229 24.315624 290.226Q23.971874 290.9135 23.3625 291.2885Q22.753124 291.6479 21.9875 291.6479Q20.659374 291.6479 19.83125 290.67914Q19.003124 289.7104 19.003124 287.49164Q19.003124 284.99164 19.925 283.86664Q20.721874 282.88226 22.08125 282.88226Q23.096874 282.88226 23.7375 283.4604Q24.39375 284.0229 24.51875 285.0229ZM20.221874 288.726Q20.221874 289.2729 20.440624 289.7729Q20.675 290.25726 21.08125 290.5229Q21.503124 290.7885 21.971874 290.7885Q22.628124 290.7885 23.1125 290.25726Q23.596874 289.7104 23.596874 288.7885Q23.596874 287.8979 23.1125 287.38226Q22.64375 286.86664 21.925 286.86664Q21.20625 286.86664 20.70625 287.38226Q20.221874 287.8979 20.221874 288.726ZM26.1125 284.0385L26.1125 283.0229L31.675 283.0229L31.675 283.851Q30.8625 284.726 30.05 286.17914Q29.253124 287.61664 28.815624 289.1479Q28.4875 290.226 28.409374 291.50726L27.315624 291.50726Q27.33125 290.49164 27.70625 289.05414Q28.096874 287.61664 28.8 286.2885Q29.51875 284.9604 30.33125 284.0385L26.1125 284.0385ZM33.64375 291.50726L33.64375 290.30414L34.846874 290.30414L34.846874 291.50726L33.64375 291.50726ZM36.20625 289.5229L37.221874 289.42914Q37.346874 290.1479 37.70625 290.476Q38.08125 290.7885 38.64375 290.7885Q39.128124 290.7885 39.4875 290.56976Q39.8625 290.3354 40.096874 289.976Q40.33125 289.601 40.4875 288.976Q40.64375 288.3354 40.64375 287.67914Q40.64375 287.601 40.64375 287.4604Q40.33125 287.9604 39.784374 288.2885Q39.2375 288.601 38.596874 288.601Q37.51875 288.601 36.784374 287.8354Q36.05 287.05414 36.05 285.7885Q36.05 284.476 36.815624 283.67914Q37.596874 282.88226 38.753124 282.88226Q39.58125 282.88226 40.26875 283.3354Q40.971874 283.7885 41.33125 284.63226Q41.690624 285.4604 41.690624 287.0385Q41.690624 288.67914 41.33125 289.6635Q40.9875 290.63226 40.26875 291.1479Q39.565624 291.6479 38.628124 291.6479Q37.6125 291.6479 36.971874 291.101Q36.33125 290.5385 36.20625 289.5229ZM40.51875 285.726Q40.51875 284.81976 40.034374 284.2885Q39.565624 283.75726 38.878124 283.75726Q38.175 283.75726 37.64375 284.3354Q37.128124 284.8979 37.128124 285.81976Q37.128124 286.63226 37.628124 287.1479Q38.128124 287.6635 38.846874 287.6635Q39.58125 287.6635 40.05 287.1479Q40.51875 286.63226 40.51875 285.726ZM43.253124 284.976Q43.253124 284.05414 43.70625 283.4135Q44.175 282.7729 45.05 282.7729Q45.8625 282.7729 46.39375 283.351Q46.925 283.92914 46.925 285.0385Q46.925 286.13226 46.378124 286.726Q45.846874 287.30414 45.065624 287.30414Q44.284374 287.30414 43.76875 286.726Q43.253124 286.1479 43.253124 284.976ZM45.08125 283.49164Q44.690624 283.49164 44.425 283.8354Q44.175 284.17914 44.175 285.0854Q44.175 285.9135 44.425 286.25726Q44.690624 286.5854 45.08125 286.5854Q45.4875 286.5854 45.7375 286.24164Q46.003124 285.8979 46.003124 285.00726Q46.003124 284.1635 45.7375 283.8354Q45.471874 283.49164 45.08125 283.49164ZM45.08125 291.81976L49.784374 282.7729L50.64375 282.7729L45.95625 291.81976L45.08125 291.81976ZM48.8 289.49164Q48.8 288.56976 49.253124 287.92914Q49.721874 287.2885 50.6125 287.2885Q51.425 287.2885 51.95625 287.86664Q52.4875 288.42914 52.4875 289.55414Q52.4875 290.6479 51.940624 291.24164Q51.409374 291.81976 50.6125 291.81976Q49.846874 291.81976 49.315624 291.24164Q48.8 290.6635 48.8 289.49164ZM50.64375 288.00726Q50.2375 288.00726 49.971874 288.351Q49.721874 288.69476 49.721874 289.601Q49.721874 290.4135 49.9875 290.75726Q50.253124 291.101 50.64375 291.101Q51.034374 291.101 51.3 290.75726Q51.565624 290.4135 51.565624 289.50726Q51.565624 288.67914 51.3 288.351Q51.034374 288.00726 50.64375 288.00726Z" fill-rule="nonzero"></path>
  <path stroke="#757575" stroke-width="1.0" stroke-linecap="butt" d="M18.55 279.00726L145.23334 279.00726L180.41737 279.00726" fill-rule="nonzero"></path>
  <path fill="#9e9e9e" d="M182.41737 279.00726C182.41737 277.9027 181.52194 277.00726 180.41737 277.00726C179.3128 277.00726 178.41737 277.9027 178.41737 279.00726C178.41737 280.11185 179.3128 281.00726 180.41737 281.00726C181.52194 281.00726 182.41737 280.11185 182.41737 279.00726" fill-rule="nonzero"></path>
  <path fill="#1a1a1a" d="M554.34064 123.8594L554.34064 115.26565L556.0594 115.26565L558.09064 121.34377Q558.3719 122.20315 558.4969 122.62502Q558.6375 122.15627 558.95 121.25002L561.0125 115.26565L562.54376 115.26565L562.54376 123.8594L561.45 123.8594L561.45 116.6719L558.95 123.8594L557.91876 123.8594L555.4344 116.5469L555.4344 123.8594L554.34064 123.8594ZM564.3719 123.8594L564.3719 115.26565L567.34064 115.26565Q568.34064 115.26565 568.8719 115.39065Q569.60626 115.56252 570.1219 116.00002Q570.8094 116.57815 571.1375 117.4844Q571.48126 118.37502 571.48126 119.51565Q571.48126 120.50002 571.2469 121.25002Q571.02814 122.00002 570.66876 122.50002Q570.3094 123.00002 569.8719 123.28127Q569.45 123.56252 568.85626 123.71877Q568.2625 123.8594 567.48126 123.8594L564.3719 123.8594ZM565.5125 122.84377L567.34064 122.84377Q568.2 122.84377 568.6844 122.68752Q569.16876 122.53127 569.45 122.2344Q569.85626 121.84377 570.075 121.15627Q570.3094 120.46877 570.3094 119.50002Q570.3094 118.15627 569.85626 117.43752Q569.41876 116.70315 568.79376 116.45315Q568.325 116.28127 567.325 116.28127L565.5125 116.28127L565.5125 122.84377ZM573.3719 123.8594L573.3719 115.26565L574.52814 115.26565L579.04376 122.01565L579.04376 115.26565L580.1375 115.26565L580.1375 123.8594L578.96564 123.8594L574.45 117.1094L574.45 123.8594L573.3719 123.8594Z" fill-rule="nonzero"></path>
  <path fill="#9e9e9e" d="M546.95 138.59378L548.0125 138.45316Q548.1844 139.34378 548.6219 139.75003Q549.0594 140.14066 549.6844 140.14066Q550.4344 140.14066 550.95 139.62503Q551.46564 139.1094 551.46564 138.34378Q551.46564 137.62503 550.98126 137.15628Q550.5125 136.6719 549.77814 136.6719Q549.48126 136.6719 549.02814 136.7969L549.15314 135.8594Q549.2625 135.87503 549.325 135.87503Q549.9969 135.87503 550.52814 135.53128Q551.075 135.1719 551.075 134.43753Q551.075 133.8594 550.6844 133.4844Q550.29376 133.09378 549.66876 133.09378Q549.0594 133.09378 548.6375 133.4844Q548.23126 133.87503 548.1219 134.64066L547.0594 134.45316Q547.2469 133.40628 547.9344 132.82816Q548.6219 132.2344 549.6375 132.2344Q550.34064 132.2344 550.9344 132.5469Q551.52814 132.84378 551.84064 133.3594Q552.15314 133.87503 552.15314 134.46878Q552.15314 135.01566 551.85626 135.4844Q551.5594 135.93753 550.98126 136.20316Q551.73126 136.37503 552.15314 136.93753Q552.575 137.4844 552.575 138.32816Q552.575 139.45316 551.7469 140.2344Q550.9344 141.01566 549.6844 141.01566Q548.5594 141.01566 547.8094 140.34378Q547.0594 139.65628 546.95 138.59378ZM559.4969 139.84378L559.4969 140.8594L553.8094 140.8594Q553.8094 140.4844 553.9344 140.12503Q554.15314 139.5469 554.6219 138.9844Q555.10626 138.4219 556.0125 137.68753Q557.41876 136.53128 557.90314 135.8594Q558.40314 135.18753 558.40314 134.59378Q558.40314 133.96878 557.95 133.5469Q557.4969 133.1094 556.77814 133.1094Q556.0125 133.1094 555.5594 133.56253Q555.10626 134.01566 555.09064 134.82816L554.0125 134.71878Q554.1219 133.50003 554.84064 132.87503Q555.575 132.2344 556.8094 132.2344Q558.04376 132.2344 558.7625 132.9219Q559.48126 133.6094 559.48126 134.62503Q559.48126 135.14066 559.2625 135.64066Q559.0594 136.12503 558.5594 136.68753Q558.075 137.2344 556.95 138.18753Q555.9969 138.9844 555.71564 139.28128Q555.45 139.56253 555.27814 139.84378L559.4969 139.84378ZM561.54376 140.8594L561.54376 139.65628L562.7469 139.65628L562.7469 140.8594L561.54376 140.8594ZM567.91876 140.8594L566.8719 140.8594L566.8719 134.14066Q566.48126 134.50003 565.85626 134.87503Q565.2469 135.2344 564.7625 135.40628L564.7625 134.39066Q565.6375 133.96878 566.29376 133.39066Q566.96564 132.7969 567.2469 132.2344L567.91876 132.2344L567.91876 140.8594ZM571.15314 134.32816Q571.15314 133.40628 571.60626 132.76566Q572.075 132.12503 572.95 132.12503Q573.7625 132.12503 574.29376 132.70316Q574.825 133.28128 574.825 134.39066Q574.825 135.4844 574.27814 136.07816Q573.7469 136.65628 572.96564 136.65628Q572.1844 136.65628 571.66876 136.07816Q571.15314 135.50003 571.15314 134.32816ZM572.98126 132.84378Q572.59064 132.84378 572.325 133.18753Q572.075 133.53128 572.075 134.43753Q572.075 135.26566 572.325 135.6094Q572.59064 135.93753 572.98126 135.93753Q573.3875 135.93753 573.6375 135.59378Q573.90314 135.25003 573.90314 134.3594Q573.90314 133.51566 573.6375 133.18753Q573.3719 132.84378 572.98126 132.84378ZM572.98126 141.1719L577.6844 132.12503L578.54376 132.12503L573.85626 141.1719L572.98126 141.1719ZM576.7 138.84378Q576.7 137.9219 577.15314 137.28128Q577.6219 136.64066 578.5125 136.64066Q579.325 136.64066 579.85626 137.21878Q580.3875 137.78128 580.3875 138.90628Q580.3875 140.00003 579.84064 140.59378Q579.3094 141.1719 578.5125 141.1719Q577.7469 141.1719 577.21564 140.59378Q576.7 140.01566 576.7 138.84378ZM578.54376 137.3594Q578.1375 137.3594 577.8719 137.70316Q577.6219 138.0469 577.6219 138.95316Q577.6219 139.76566 577.8875 140.1094Q578.15314 140.45316 578.54376 140.45316Q578.9344 140.45316 579.2 140.1094Q579.46564 139.76566 579.46564 138.8594Q579.46564 138.03128 579.2 137.70316Q578.9344 137.3594 578.54376 137.3594Z" fill-rule="nonzero"></path>
  <path stroke="#757575" stroke-width="1.0" stroke-linecap="butt" d="M581.45 128.3594L454.76666 128.3594L419.5826 128.3594" fill-rule="nonzero"></path>
  <path fill="#9e9e9e" d="M421.5826 128.3594C421.5826 127.25483 420.6872 126.3594 419.5826 126.3594C418.47806 126.3594 417.5826 127.25483 417.5826 128.3594C417.5826 129.46397 418.47806 130.3594 419.5826 130.3594C420.6872 130.3594 421.5826 129.46397 421.5826 128.3594" fill-rule="nonzero"></path>
  <path fill="#757575" d="M22.596874 37.55L18.8 23.2375L20.7375 23.2375L22.909374 32.6125Q23.26875 34.096874 23.51875 35.55Q24.065624 33.253124 24.159374 32.89375L26.89375 23.2375L29.175 23.2375L31.221874 30.471874Q32.003124 33.175 32.346874 35.55Q32.6125 34.190624 33.05 32.425L35.3 23.2375L37.20625 23.2375L33.284374 37.55L31.45625 37.55L28.440624 26.64375Q28.05 25.26875 27.9875 24.95625Q27.753124 25.940624 27.565624 26.64375L24.534374 37.55L22.596874 37.55ZM38.8625 37.55L38.8625 23.2375L40.628124 23.2375L40.628124 28.3625Q41.8625 26.940624 43.7375 26.940624Q44.878124 26.940624 45.721874 27.39375Q46.58125 27.846874 46.940624 28.659374Q47.315624 29.45625 47.315624 30.971874L47.315624 37.55L45.565624 37.55L45.565624 30.971874Q45.565624 29.659374 44.9875 29.065624Q44.409374 28.45625 43.378124 28.45625Q42.596874 28.45625 41.89375 28.8625Q41.20625 29.26875 40.909374 29.971874Q40.628124 30.659374 40.628124 31.878124L40.628124 37.55L38.8625 37.55ZM49.221874 32.3625Q49.221874 29.4875 50.815624 28.096874Q52.159374 26.940624 54.08125 26.940624Q56.221874 26.940624 57.565624 28.346874Q58.925 29.753124 58.925 32.221874Q58.925 34.221874 58.33125 35.378124Q57.7375 36.51875 56.58125 37.159374Q55.440624 37.784374 54.08125 37.784374Q51.89375 37.784374 50.55 36.39375Q49.221874 34.9875 49.221874 32.3625ZM51.01875 32.3625Q51.01875 34.3625 51.878124 35.346874Q52.753124 36.33125 54.08125 36.33125Q55.39375 36.33125 56.253124 35.346874Q57.128124 34.346874 57.128124 32.3Q57.128124 30.378124 56.253124 29.39375Q55.378124 28.39375 54.08125 28.39375Q52.753124 28.39375 51.878124 29.39375Q51.01875 30.378124 51.01875 32.3625ZM70.7375 37.55L70.7375 24.925L66.01875 24.925L66.01875 23.2375L77.3625 23.2375L77.3625 24.925L72.62813 24.925L72.62813 37.55L70.7375 37.55ZM78.22188 32.3625Q78.22188 29.4875 79.81563 28.096874Q81.15938 26.940624 83.08125 26.940624Q85.22188 26.940624 86.56563 28.346874Q87.925 29.753124 87.925 32.221874Q87.925 34.221874 87.33125 35.378124Q86.7375 36.51875 85.58125 37.159374Q84.44063 37.784374 83.08125 37.784374Q80.89375 37.784374 79.55 36.39375Q78.22188 34.9875 78.22188 32.3625ZM80.01875 32.3625Q80.01875 34.3625 80.87813 35.346874Q81.75313 36.33125 83.08125 36.33125Q84.39375 36.33125 85.25313 35.346874Q86.12813 34.346874 86.12813 32.3Q86.12813 30.378124 85.25313 29.39375Q84.37813 28.39375 83.08125 28.39375Q81.75313 28.39375 80.87813 29.39375Q80.01875 30.378124 80.01875 32.3625ZM89.22188 32.3625Q89.22188 29.4875 90.81563 28.096874Q92.15938 26.940624 94.08125 26.940624Q96.22188 26.940624 97.56563 28.346874Q98.925 29.753124 98.925 32.221874Q98.925 34.221874 98.33125 35.378124Q97.7375 36.51875 96.58125 37.159374Q95.44063 37.784374 94.08125 37.784374Q91.89375 37.784374 90.55 36.39375Q89.22188 34.9875 89.22188 32.3625ZM91.01875 32.3625Q91.01875 34.3625 91.87813 35.346874Q92.75313 36.33125 94.08125 36.33125Q95.39375 36.33125 96.25313 35.346874Q97.12813 34.346874 97.12813 32.3Q97.12813 30.378124 96.25313 29.39375Q95.37813 28.39375 94.08125 28.39375Q92.75313 28.39375 91.87813 29.39375Q91.01875 30.378124 91.01875 32.3625ZM100.87813 37.55L100.87813 23.2375L102.64375 23.2375L102.64375 31.39375L106.8 27.175L109.06563 27.175L105.1125 31.01875L109.47188 37.55L107.3 37.55L103.87813 32.253124L102.64375 33.440624L102.64375 37.55L100.87813 37.55ZM120.70625 35.971874L120.95625 37.534374Q120.22188 37.690624 119.62813 37.690624Q118.675 37.690624 118.14375 37.39375Q117.62813 37.08125 117.40938 36.596874Q117.19063 36.096874 117.19063 34.51875L117.19063 28.55L115.90938 28.55L115.90938 27.175L117.19063 27.175L117.19063 24.6125L118.94063 23.55L118.94063 27.175L120.70625 27.175L120.70625 28.55L118.94063 28.55L118.94063 34.6125Q118.94063 35.3625 119.03438 35.58125Q119.12813 35.784374 119.33125 35.925Q119.55 36.05 119.94063 36.05Q120.22188 36.05 120.70625 35.971874ZM122.8625 37.55L122.8625 23.2375L124.62813 23.2375L124.62813 28.3625Q125.8625 26.940624 127.7375 26.940624Q128.87813 26.940624 129.72188 27.39375Q130.58125 27.846874 130.94063 28.659374Q131.31563 29.45625 131.31563 30.971874L131.31563 37.55L129.56563 37.55L129.56563 30.971874Q129.56563 29.659374 128.9875 29.065624Q128.40938 28.45625 127.37813 28.45625Q126.59688 28.45625 125.89375 28.8625Q125.20625 29.26875 124.90938 29.971874Q124.62813 30.659374 124.62813 31.878124L124.62813 37.55L122.8625 37.55ZM140.97188 34.20625L142.78438 34.440624Q142.3625 36.01875 141.19063 36.909374Q140.03438 37.784374 138.22188 37.784374Q135.95625 37.784374 134.6125 36.39375Q133.28438 34.9875 133.28438 32.45625Q133.28438 29.83125 134.62813 28.39375Q135.97188 26.940624 138.12813 26.940624Q140.20625 26.940624 141.51875 28.3625Q142.84688 29.76875 142.84688 32.346874Q142.84688 32.503124 142.83125 32.815624L135.09688 32.815624Q135.19063 34.51875 136.06563 35.425Q136.94063 36.33125 138.2375 36.33125Q139.20625 36.33125 139.87813 35.83125Q140.56563 35.315624 140.97188 34.20625ZM135.19063 31.3625L140.9875 31.3625Q140.87813 30.065624 140.33125 29.409374Q139.4875 28.39375 138.14375 28.39375Q136.94063 28.39375 136.1125 29.20625Q135.28438 30.003124 135.19063 31.3625ZM150.45625 32.95625L152.2375 32.8Q152.3625 33.8625 152.81563 34.55Q153.28438 35.2375 154.25313 35.675Q155.2375 36.096874 156.47188 36.096874Q157.55 36.096874 158.37813 35.784374Q159.20625 35.45625 159.6125 34.89375Q160.01875 34.33125 160.01875 33.659374Q160.01875 32.9875 159.62813 32.4875Q159.2375 31.9875 158.34688 31.64375Q157.76875 31.409374 155.78438 30.940624Q153.81563 30.471874 153.03438 30.05Q152.00313 29.51875 151.50313 28.721874Q151.00313 27.925 151.00313 26.940624Q151.00313 25.846874 151.6125 24.909374Q152.22188 23.971874 153.40938 23.4875Q154.59688 22.9875 156.03438 22.9875Q157.62813 22.9875 158.84688 23.503124Q160.06563 24.01875 160.70625 25.01875Q161.3625 26.003124 161.40938 27.26875L159.59688 27.409374Q159.45625 26.05 158.6125 25.3625Q157.76875 24.659374 156.1125 24.659374Q154.39375 24.659374 153.59688 25.3Q152.81563 25.925 152.81563 26.8Q152.81563 27.58125 153.37813 28.08125Q153.925 28.58125 156.2375 29.096874Q158.55 29.6125 159.40938 30.003124Q160.65938 30.58125 161.25313 31.471874Q161.84688 32.346874 161.84688 33.503124Q161.84688 34.64375 161.19063 35.659374Q160.53438 36.675 159.3 37.2375Q158.08125 37.8 156.55 37.8Q154.6125 37.8 153.3 37.2375Q151.9875 36.659374 151.2375 35.51875Q150.4875 34.378124 150.45625 32.95625ZM170.65938 37.55L170.65938 36.01875Q169.45625 37.784374 167.37813 37.784374Q166.45625 37.784374 165.65938 37.440624Q164.8625 37.08125 164.47188 36.55Q164.09688 36.01875 163.94063 35.2375Q163.83125 34.721874 163.83125 33.596874L163.83125 27.175L165.58125 27.175L165.58125 32.925Q165.58125 34.3 165.69063 34.784374Q165.8625 35.471874 166.39375 35.878124Q166.94063 36.26875 167.72188 36.26875Q168.51875 36.26875 169.20625 35.8625Q169.90938 35.45625 170.19063 34.76875Q170.4875 34.065624 170.4875 32.7375L170.4875 27.175L172.2375 27.175L172.2375 37.55L170.65938 37.55ZM174.84688 37.55L174.84688 27.175L176.425 27.175L176.425 28.753124Q177.03438 27.64375 177.55 27.3Q178.06563 26.940624 178.675 26.940624Q179.56563 26.940624 180.4875 27.503124L179.87813 29.14375Q179.2375 28.753124 178.59688 28.753124Q178.01875 28.753124 177.55 29.1125Q177.09688 29.45625 176.89375 30.065624Q176.6125 31.003124 176.6125 32.1125L176.6125 37.55L174.84688 37.55ZM184.75313 37.55L180.8 27.175L182.65938 27.175L184.89375 33.39375Q185.25313 34.39375 185.55 35.471874Q185.78438 34.659374 186.20625 33.503124L188.50313 27.175L190.31563 27.175L186.39375 37.55L184.75313 37.55ZM198.97188 34.20625L200.78438 34.440624Q200.3625 36.01875 199.19063 36.909374Q198.03438 37.784374 196.22188 37.784374Q193.95625 37.784374 192.6125 36.39375Q191.28438 34.9875 191.28438 32.45625Q191.28438 29.83125 192.62813 28.39375Q193.97188 26.940624 196.12813 26.940624Q198.20625 26.940624 199.51875 28.3625Q200.84688 29.76875 200.84688 32.346874Q200.84688 32.503124 200.83125 32.815624L193.09688 32.815624Q193.19063 34.51875 194.06563 35.425Q194.94063 36.33125 196.2375 36.33125Q197.20625 36.33125 197.87813 35.83125Q198.56563 35.315624 198.97188 34.20625ZM193.19063 31.3625L198.9875 31.3625Q198.87813 30.065624 198.33125 29.409374Q197.4875 28.39375 196.14375 28.39375Q194.94063 28.39375 194.1125 29.20625Q193.28438 30.003124 193.19063 31.3625ZM202.78438 41.55L202.59688 39.89375Q203.175 40.05 203.59688 40.05Q204.19063 40.05 204.53438 39.846874Q204.89375 39.659374 205.1125 39.315624Q205.28438 39.05 205.65938 38.003124Q205.70625 37.846874 205.81563 37.565624L201.87813 27.175L203.76875 27.175L205.925 33.190624Q206.34688 34.33125 206.675 35.58125Q206.9875 34.378124 207.39375 33.221874L209.6125 27.175L211.37813 27.175L207.425 37.721874Q206.8 39.440624 206.44063 40.08125Q205.97188 40.95625 205.3625 41.346874Q204.76875 41.753124 203.925 41.753124Q203.40938 41.753124 202.78438 41.55ZM216.15938 34.01875Q216.14375 33.675 216.14375 33.503124Q216.14375 32.45625 216.44063 31.70625Q216.65938 31.14375 217.14375 30.565624Q217.4875 30.14375 218.39375 29.346874Q219.31563 28.534374 219.58125 28.065624Q219.8625 27.58125 219.8625 27.01875Q219.8625 25.9875 219.05 25.221874Q218.25313 24.440624 217.09688 24.440624Q215.97188 24.440624 215.22188 25.14375Q214.47188 25.846874 214.2375 27.33125L212.425 27.1125Q212.675 25.1125 213.87813 24.05Q215.08125 22.9875 217.06563 22.9875Q219.175 22.9875 220.425 24.128124Q221.675 25.26875 221.675 26.89375Q221.675 27.83125 221.22188 28.628124Q220.78438 29.409374 219.50313 30.55Q218.64375 31.315624 218.37813 31.675Q218.12813 32.034374 217.9875 32.503124Q217.8625 32.971874 217.84688 34.01875L216.15938 34.01875ZM216.05 37.55L216.05 35.55L218.05 35.55L218.05 37.55L216.05 37.55Z" fill-rule="nonzero"></path>
</svg>
