<?xml version="1.0" encoding="UTF-8"?>
<svg xmlns:xlink="http://www.w3.org/1999/xlink" xmlns="http://www.w3.org/2000/svg" version="1.1" viewBox="0.0 0.0 600.0 371.0" fill="none" stroke="none" stroke-linecap="square" stroke-miterlimit="10" width="600" height="371">
  <path fill="#ffffff" d="M0 0L600.0 0L600.0 371.0L0 371.0L0 0Z" fill-rule="nonzero"></path>
  <path fill="#4285f4" d="M300.0 54.916668C371.39062 54.916668 432.71625 105.62957 446.12076 175.75047C459.52527 245.87138 421.229 315.6283 354.8721 341.96048L300.0 203.68333Z" fill-rule="nonzero"></path>
  <path fill="#ea4335" d="M354.8721 341.96048C299.19464 364.0548 235.69696 350.60092 193.7642 307.82495C151.83145 265.04898 139.64426 201.29607 162.84256 146.06944C186.04086 90.842834 240.0989 54.916668 300.0 54.916668L300.0 203.68333Z" fill-rule="nonzero"></path>
  <path fill="#1a1a1a" d="M19.471874 225.71954L19.471874 217.1258L22.440624 217.1258Q23.440624 217.1258 23.971874 217.2508Q24.70625 217.42267 25.221874 217.86017Q25.909374 218.4383 26.2375 219.34454Q26.58125 220.23517 26.58125 221.3758Q26.58125 222.36017 26.346874 223.11017Q26.128124 223.86017 25.76875 224.36017Q25.409374 224.86017 24.971874 225.14142Q24.55 225.42267 23.95625 225.57892Q23.3625 225.71954 22.58125 225.71954L19.471874 225.71954ZM20.6125 224.70392L22.440624 224.70392Q23.3 224.70392 23.784374 224.54767Q24.26875 224.39142 24.55 224.09454Q24.95625 223.70392 25.175 223.01642Q25.409374 222.32892 25.409374 221.36017Q25.409374 220.01642 24.95625 219.29767Q24.51875 218.5633 23.89375 218.3133Q23.425 218.14142 22.425 218.14142L20.6125 218.14142L20.6125 224.70392ZM32.596874 223.71954L33.690624 223.84454Q33.440624 224.79767 32.7375 225.32892Q32.034374 225.86017 30.95625 225.86017Q29.596874 225.86017 28.784374 225.01642Q27.9875 224.17267 27.9875 222.65704Q27.9875 221.09454 28.8 220.23517Q29.6125 219.36017 30.89375 219.36017Q32.14375 219.36017 32.925 220.20392Q33.721874 221.04767 33.721874 222.59454Q33.721874 222.6883 33.721874 222.8758L29.08125 222.8758Q29.14375 223.90704 29.659374 224.45392Q30.175 224.98517 30.95625 224.98517Q31.534374 224.98517 31.940624 224.6883Q32.3625 224.3758 32.596874 223.71954ZM29.14375 222.01642L32.6125 222.01642Q32.55 221.21954 32.221874 220.82892Q31.70625 220.21954 30.909374 220.21954Q30.175 220.21954 29.675 220.70392Q29.190624 221.1883 29.14375 222.01642ZM34.925 223.86017L35.95625 223.70392Q36.05 224.32892 36.440624 224.65704Q36.846874 224.98517 37.58125 224.98517Q38.3 224.98517 38.64375 224.70392Q39.003124 224.40704 39.003124 224.0008Q39.003124 223.64142 38.690624 223.4383Q38.471874 223.29767 37.6125 223.07892Q36.45625 222.78204 36.003124 222.57892Q35.565624 222.36017 35.33125 221.98517Q35.096874 221.61017 35.096874 221.14142Q35.096874 220.73517 35.284374 220.3758Q35.471874 220.01642 35.8 219.78204Q36.05 219.61017 36.471874 219.48517Q36.89375 219.36017 37.39375 219.36017Q38.1125 219.36017 38.659374 219.57892Q39.221874 219.78204 39.4875 220.14142Q39.753124 220.5008 39.846874 221.09454L38.815624 221.23517Q38.753124 220.76642 38.409374 220.5008Q38.08125 220.21954 37.45625 220.21954Q36.7375 220.21954 36.425 220.46954Q36.1125 220.70392 36.1125 221.03204Q36.1125 221.23517 36.2375 221.39142Q36.378124 221.5633 36.64375 221.67267Q36.8 221.73517 37.58125 221.9383Q38.70625 222.2508 39.14375 222.4383Q39.58125 222.6258 39.83125 222.98517Q40.08125 223.34454 40.08125 223.89142Q40.08125 224.42267 39.76875 224.89142Q39.471874 225.34454 38.89375 225.61017Q38.315624 225.86017 37.58125 225.86017Q36.3625 225.86017 35.721874 225.36017Q35.096874 224.84454 34.925 223.86017ZM41.346874 218.34454L41.346874 217.1258L42.409374 217.1258L42.409374 218.34454L41.346874 218.34454ZM41.346874 225.71954L41.346874 219.5008L42.409374 219.5008L42.409374 225.71954L41.346874 225.71954ZM44.14375 226.23517L45.175 226.39142Q45.2375 226.86017 45.534374 227.07892Q45.925 227.3758 46.596874 227.3758Q47.33125 227.3758 47.721874 227.07892Q48.128124 226.78204 48.26875 226.26642Q48.3625 225.9383 48.346874 224.90704Q47.659374 225.71954 46.628124 225.71954Q45.346874 225.71954 44.64375 224.79767Q43.940624 223.86017 43.940624 222.57892Q43.940624 221.6883 44.253124 220.9383Q44.58125 220.17267 45.190624 219.76642Q45.8 219.36017 46.628124 219.36017Q47.7375 219.36017 48.45625 220.2508L48.45625 219.5008L49.425 219.5008L49.425 224.8758Q49.425 226.32892 49.128124 226.9383Q48.83125 227.54767 48.190624 227.89142Q47.55 228.2508 46.6125 228.2508Q45.503124 228.2508 44.815624 227.7508Q44.128124 227.2508 44.14375 226.23517ZM45.01875 222.5008Q45.01875 223.71954 45.503124 224.28204Q45.9875 224.84454 46.721874 224.84454Q47.45625 224.84454 47.940624 224.28204Q48.440624 223.71954 48.440624 222.53204Q48.440624 221.39142 47.925 220.8133Q47.425 220.23517 46.70625 220.23517Q46.003124 220.23517 45.503124 220.8133Q45.01875 221.3758 45.01875 222.5008ZM51.346874 225.71954L51.346874 219.5008L52.284374 219.5008L52.284374 220.3758Q52.971874 219.36017 54.26875 219.36017Q54.83125 219.36017 55.3 219.5633Q55.784374 219.76642 56.01875 220.09454Q56.253124 220.42267 56.346874 220.86017Q56.39375 221.15704 56.39375 221.89142L56.39375 225.71954L55.346874 225.71954L55.346874 221.9383Q55.346874 221.28204 55.221874 220.96954Q55.096874 220.65704 54.784374 220.46954Q54.471874 220.26642 54.05 220.26642Q53.378124 220.26642 52.878124 220.70392Q52.39375 221.1258 52.39375 222.3133L52.39375 225.71954L51.346874 225.71954ZM65.40938 224.95392Q64.81563 225.45392 64.26875 225.65704Q63.7375 225.86017 63.1125 225.86017Q62.08125 225.86017 61.534374 225.36017Q60.9875 224.86017 60.9875 224.07892Q60.9875 223.6258 61.190624 223.2508Q61.39375 222.86017 61.7375 222.64142Q62.08125 222.40704 62.503124 222.29767Q62.8 222.20392 63.440624 222.1258Q64.70625 221.98517 65.31563 221.76642Q65.31563 221.54767 65.31563 221.5008Q65.31563 220.84454 65.01875 220.57892Q64.6125 220.23517 63.815624 220.23517Q63.08125 220.23517 62.721874 220.5008Q62.3625 220.7508 62.190624 221.40704L61.159374 221.26642Q61.3 220.61017 61.628124 220.20392Q61.95625 219.79767 62.565624 219.57892Q63.175 219.36017 63.971874 219.36017Q64.76875 219.36017 65.26875 219.54767Q65.76875 219.73517 66.00313 220.01642Q66.2375 220.29767 66.33125 220.73517Q66.37813 221.0008 66.37813 221.70392L66.37813 223.11017Q66.37813 224.57892 66.44063 224.96954Q66.51875 225.36017 66.72188 225.71954L65.6125 225.71954Q65.45625 225.39142 65.40938 224.95392ZM65.31563 222.59454Q64.7375 222.82892 63.596874 223.0008Q62.940624 223.09454 62.675 223.21954Q62.409374 223.32892 62.253124 223.54767Q62.1125 223.76642 62.1125 224.04767Q62.1125 224.46954 62.425 224.7508Q62.753124 225.03204 63.3625 225.03204Q63.971874 225.03204 64.44063 224.76642Q64.925 224.5008 65.14375 224.03204Q65.31563 223.67267 65.31563 222.98517L65.31563 222.59454ZM68.34688 225.71954L68.34688 219.5008L69.28438 219.5008L69.28438 220.3758Q69.97188 219.36017 71.26875 219.36017Q71.83125 219.36017 72.3 219.5633Q72.78438 219.76642 73.01875 220.09454Q73.25313 220.42267 73.34688 220.86017Q73.39375 221.15704 73.39375 221.89142L73.39375 225.71954L72.34688 225.71954L72.34688 221.9383Q72.34688 221.28204 72.22188 220.96954Q72.09688 220.65704 71.78438 220.46954Q71.47188 220.26642 71.05 220.26642Q70.37813 220.26642 69.87813 220.70392Q69.39375 221.1258 69.39375 222.3133L69.39375 225.71954L68.34688 225.71954ZM79.37813 225.71954L79.37813 224.9383Q78.78438 225.86017 77.64375 225.86017Q76.89375 225.86017 76.26875 225.45392Q75.64375 225.03204 75.3 224.29767Q74.95625 223.5633 74.95625 222.61017Q74.95625 221.6883 75.26875 220.92267Q75.58125 220.15704 76.20625 219.76642Q76.83125 219.36017 77.59688 219.36017Q78.15938 219.36017 78.59688 219.59454Q79.03438 219.82892 79.31563 220.20392L79.31563 217.1258L80.3625 217.1258L80.3625 225.71954L79.37813 225.71954ZM76.05 222.61017Q76.05 223.8133 76.55 224.40704Q77.05 224.98517 77.7375 224.98517Q78.425 224.98517 78.90938 224.42267Q79.39375 223.86017 79.39375 222.70392Q79.39375 221.42267 78.89375 220.82892Q78.40938 220.23517 77.69063 220.23517Q76.9875 220.23517 76.51875 220.8133Q76.05 221.3758 76.05 222.61017ZM89.40938 223.4383L90.44063 223.57892Q90.26875 224.64142 89.56563 225.2508Q88.8625 225.86017 87.84688 225.86017Q86.56563 225.86017 85.78438 225.03204Q85.01875 224.1883 85.01875 222.6258Q85.01875 221.6258 85.34688 220.8758Q85.69063 220.11017 86.3625 219.73517Q87.05 219.36017 87.8625 219.36017Q88.8625 219.36017 89.50313 219.8758Q90.15938 220.3758 90.34688 221.32892L89.31563 221.48517Q89.175 220.86017 88.8 220.54767Q88.425 220.21954 87.89375 220.21954Q87.09688 220.21954 86.59688 220.79767Q86.09688 221.36017 86.09688 222.59454Q86.09688 223.86017 86.58125 224.42267Q87.06563 224.98517 87.83125 224.98517Q88.45625 224.98517 88.8625 224.61017Q89.28438 224.23517 89.40938 223.4383ZM90.95625 222.61017Q90.95625 220.8758 91.90938 220.04767Q92.70625 219.36017 93.8625 219.36017Q95.14375 219.36017 95.95625 220.20392Q96.78438 221.03204 96.78438 222.51642Q96.78438 223.71954 96.425 224.40704Q96.06563 225.09454 95.3625 225.48517Q94.675 225.86017 93.8625 225.86017Q92.56563 225.86017 91.75313 225.03204Q90.95625 224.1883 90.95625 222.61017ZM92.03438 222.61017Q92.03438 223.79767 92.55 224.39142Q93.08125 224.98517 93.8625 224.98517Q94.65938 224.98517 95.175 224.39142Q95.69063 223.79767 95.69063 222.57892Q95.69063 221.42267 95.15938 220.82892Q94.64375 220.23517 93.8625 220.23517Q93.08125 220.23517 92.55 220.82892Q92.03438 221.40704 92.03438 222.61017ZM102.37813 225.71954L102.37813 224.9383Q101.78438 225.86017 100.64375 225.86017Q99.89375 225.86017 99.26875 225.45392Q98.64375 225.03204 98.3 224.29767Q97.95625 223.5633 97.95625 222.61017Q97.95625 221.6883 98.26875 220.92267Q98.58125 220.15704 99.20625 219.76642Q99.83125 219.36017 100.59688 219.36017Q101.15938 219.36017 101.59688 219.59454Q102.03438 219.82892 102.31563 220.20392L102.31563 217.1258L103.3625 217.1258L103.3625 225.71954L102.37813 225.71954ZM99.05 222.61017Q99.05 223.8133 99.55 224.40704Q100.05 224.98517 100.7375 224.98517Q101.425 224.98517 101.90938 224.42267Q102.39375 223.86017 102.39375 222.70392Q102.39375 221.42267 101.89375 220.82892Q101.40938 220.23517 100.69063 220.23517Q99.9875 220.23517 99.51875 220.8133Q99.05 221.3758 99.05 222.61017ZM109.59688 223.71954L110.69063 223.84454Q110.44063 224.79767 109.7375 225.32892Q109.03438 225.86017 107.95625 225.86017Q106.59688 225.86017 105.78438 225.01642Q104.9875 224.17267 104.9875 222.65704Q104.9875 221.09454 105.8 220.23517Q106.6125 219.36017 107.89375 219.36017Q109.14375 219.36017 109.925 220.20392Q110.72188 221.04767 110.72188 222.59454Q110.72188 222.6883 110.72188 222.8758L106.08125 222.8758Q106.14375 223.90704 106.65938 224.45392Q107.175 224.98517 107.95625 224.98517Q108.53438 224.98517 108.94063 224.6883Q109.3625 224.3758 109.59688 223.71954ZM106.14375 222.01642L109.6125 222.01642Q109.55 221.21954 109.22188 220.82892Q108.70625 220.21954 107.90938 220.21954Q107.175 220.21954 106.675 220.70392Q106.19063 221.1883 106.14375 222.01642Z" fill-rule="nonzero"></path>
  <path fill="#9e9e9e" d="M19.05 240.46954L20.159374 240.3758Q20.284374 241.1883 20.721874 241.59454Q21.175 242.0008 21.815624 242.0008Q22.565624 242.0008 23.096874 241.42267Q23.628124 240.84454 23.628124 239.90704Q23.628124 239.0008 23.1125 238.48517Q22.6125 237.95392 21.784374 237.95392Q21.284374 237.95392 20.8625 238.1883Q20.45625 238.42267 20.221874 238.78204L19.2375 238.65704L20.065624 234.2508L24.346874 234.2508L24.346874 235.2508L20.909374 235.2508L20.45625 237.5633Q21.221874 237.01642 22.065624 237.01642Q23.190624 237.01642 23.95625 237.79767Q24.7375 238.57892 24.7375 239.8133Q24.7375 240.96954 24.065624 241.82892Q23.2375 242.86017 21.815624 242.86017Q20.64375 242.86017 19.89375 242.20392Q19.159374 241.54767 19.05 240.46954ZM31.51875 236.23517L30.471874 236.3133Q30.33125 235.6883 30.08125 235.40704Q29.64375 234.95392 29.01875 234.95392Q28.51875 234.95392 28.128124 235.23517Q27.64375 235.61017 27.346874 236.3133Q27.065624 237.0008 27.05 238.28204Q27.425 237.70392 27.971874 237.42267Q28.534374 237.14142 29.14375 237.14142Q30.190624 237.14142 30.925 237.92267Q31.675 238.70392 31.675 239.92267Q31.675 240.73517 31.315624 241.4383Q30.971874 242.1258 30.3625 242.5008Q29.753124 242.86017 28.9875 242.86017Q27.659374 242.86017 26.83125 241.89142Q26.003124 240.92267 26.003124 238.70392Q26.003124 236.20392 26.925 235.07892Q27.721874 234.09454 29.08125 234.09454Q30.096874 234.09454 30.7375 234.67267Q31.39375 235.23517 31.51875 236.23517ZM27.221874 239.9383Q27.221874 240.48517 27.440624 240.98517Q27.675 241.46954 28.08125 241.73517Q28.503124 242.0008 28.971874 242.0008Q29.628124 242.0008 30.1125 241.46954Q30.596874 240.92267 30.596874 240.0008Q30.596874 239.11017 30.1125 238.59454Q29.64375 238.07892 28.925 238.07892Q28.20625 238.07892 27.70625 238.59454Q27.221874 239.11017 27.221874 239.9383ZM33.64375 242.71954L33.64375 241.51642L34.846874 241.51642L34.846874 242.71954L33.64375 242.71954ZM36.05 238.48517Q36.05 236.95392 36.3625 236.03204Q36.675 235.09454 37.284374 234.59454Q37.909374 234.09454 38.846874 234.09454Q39.534374 234.09454 40.05 234.3758Q40.58125 234.65704 40.925 235.1883Q41.26875 235.70392 41.45625 236.45392Q41.64375 237.20392 41.64375 238.48517Q41.64375 240.0008 41.33125 240.92267Q41.034374 241.84454 40.409374 242.36017Q39.8 242.86017 38.846874 242.86017Q37.6125 242.86017 36.89375 241.96954Q36.05 240.90704 36.05 238.48517ZM37.128124 238.48517Q37.128124 240.59454 37.628124 241.29767Q38.128124 242.0008 38.846874 242.0008Q39.58125 242.0008 40.065624 241.29767Q40.565624 240.59454 40.565624 238.48517Q40.565624 236.36017 40.065624 235.67267Q39.58125 234.96954 38.83125 234.96954Q38.1125 234.96954 37.675 235.57892Q37.128124 236.36017 37.128124 238.48517ZM43.253124 236.1883Q43.253124 235.26642 43.70625 234.6258Q44.175 233.98517 45.05 233.98517Q45.8625 233.98517 46.39375 234.5633Q46.925 235.14142 46.925 236.2508Q46.925 237.34454 46.378124 237.9383Q45.846874 238.51642 45.065624 238.51642Q44.284374 238.51642 43.76875 237.9383Q43.253124 237.36017 43.253124 236.1883ZM45.08125 234.70392Q44.690624 234.70392 44.425 235.04767Q44.175 235.39142 44.175 236.29767Q44.175 237.1258 44.425 237.46954Q44.690624 237.79767 45.08125 237.79767Q45.4875 237.79767 45.7375 237.45392Q46.003124 237.11017 46.003124 236.21954Q46.003124 235.3758 45.7375 235.04767Q45.471874 234.70392 45.08125 234.70392ZM45.08125 243.03204L49.784374 233.98517L50.64375 233.98517L45.95625 243.03204L45.08125 243.03204ZM48.8 240.70392Q48.8 239.78204 49.253124 239.14142Q49.721874 238.5008 50.6125 238.5008Q51.425 238.5008 51.95625 239.07892Q52.4875 239.64142 52.4875 240.76642Q52.4875 241.86017 51.940624 242.45392Q51.409374 243.03204 50.6125 243.03204Q49.846874 243.03204 49.315624 242.45392Q48.8 241.8758 48.8 240.70392ZM50.64375 239.21954Q50.2375 239.21954 49.971874 239.5633Q49.721874 239.90704 49.721874 240.8133Q49.721874 241.6258 49.9875 241.96954Q50.253124 242.3133 50.64375 242.3133Q51.034374 242.3133 51.3 241.96954Q51.565624 241.6258 51.565624 240.71954Q51.565624 239.89142 51.3 239.5633Q51.034374 239.21954 50.64375 239.21954Z" fill-rule="nonzero"></path>
  <path stroke="#757575" stroke-width="1.0" stroke-linecap="butt" d="M18.55 230.21954L145.23334 230.21954L161.18527 230.21954" fill-rule="nonzero"></path>
  <path fill="#9e9e9e" d="M163.18527 230.21954C163.18527 229.11497 162.28984 228.21954 161.18527 228.21954C160.0807 228.21954 159.18527 229.11497 159.18527 230.21954C159.18527 231.32411 160.0807 232.21954 161.18527 232.21954C162.28984 232.21954 163.18527 231.32411 163.18527 230.21954" fill-rule="nonzero"></path>
  <path fill="#1a1a1a" d="M558.5125 169.6315L559.6375 169.92838Q559.27814 171.319 558.35626 172.05338Q557.4344 172.78775 556.09064 172.78775Q554.7 172.78775 553.825 172.22525Q552.95 171.66275 552.4969 170.60025Q552.04376 169.52213 552.04376 168.28775Q552.04376 166.944 552.5594 165.944Q553.075 164.944 554.0125 164.42838Q554.96564 163.91275 556.10626 163.91275Q557.3875 163.91275 558.2625 164.569Q559.15314 165.22525 559.4969 166.41275L558.3719 166.67838Q558.075 165.74088 557.4969 165.319Q556.9344 164.8815 556.075 164.8815Q555.09064 164.8815 554.41876 165.36588Q553.7625 165.83463 553.48126 166.6315Q553.21564 167.42838 553.21564 168.28775Q553.21564 169.3815 553.52814 170.194Q553.85626 171.0065 554.52814 171.41275Q555.2 171.819 555.9969 171.819Q556.95 171.819 557.60626 171.27213Q558.27814 170.72525 558.5125 169.6315ZM560.85626 169.53775Q560.85626 167.80338 561.8094 166.97525Q562.60626 166.28775 563.7625 166.28775Q565.04376 166.28775 565.85626 167.1315Q566.6844 167.95963 566.6844 169.444Q566.6844 170.64713 566.325 171.33463Q565.96564 172.02213 565.2625 172.41275Q564.575 172.78775 563.7625 172.78775Q562.46564 172.78775 561.65314 171.95963Q560.85626 171.11588 560.85626 169.53775ZM561.9344 169.53775Q561.9344 170.72525 562.45 171.319Q562.98126 171.91275 563.7625 171.91275Q564.5594 171.91275 565.075 171.319Q565.59064 170.72525 565.59064 169.5065Q565.59064 168.35025 565.0594 167.7565Q564.54376 167.16275 563.7625 167.16275Q562.98126 167.16275 562.45 167.7565Q561.9344 168.33463 561.9344 169.53775ZM572.27814 172.64713L572.27814 171.86588Q571.6844 172.78775 570.54376 172.78775Q569.79376 172.78775 569.16876 172.3815Q568.54376 171.95963 568.2 171.22525Q567.85626 170.49088 567.85626 169.53775Q567.85626 168.61588 568.16876 167.85025Q568.48126 167.08463 569.10626 166.694Q569.73126 166.28775 570.4969 166.28775Q571.0594 166.28775 571.4969 166.52213Q571.9344 166.7565 572.21564 167.1315L572.21564 164.05338L573.2625 164.05338L573.2625 172.64713L572.27814 172.64713ZM568.95 169.53775Q568.95 170.74088 569.45 171.33463Q569.95 171.91275 570.6375 171.91275Q571.325 171.91275 571.8094 171.35025Q572.29376 170.78775 572.29376 169.6315Q572.29376 168.35025 571.79376 167.7565Q571.3094 167.16275 570.59064 167.16275Q569.8875 167.16275 569.41876 167.74088Q568.95 168.30338 568.95 169.53775ZM579.4969 170.64713L580.59064 170.77213Q580.34064 171.72525 579.6375 172.2565Q578.9344 172.78775 577.85626 172.78775Q576.4969 172.78775 575.6844 171.944Q574.8875 171.10025 574.8875 169.58463Q574.8875 168.02213 575.7 167.16275Q576.5125 166.28775 577.79376 166.28775Q579.04376 166.28775 579.825 167.1315Q580.6219 167.97525 580.6219 169.52213Q580.6219 169.61588 580.6219 169.80338L575.98126 169.80338Q576.04376 170.83463 576.5594 171.3815Q577.075 171.91275 577.85626 171.91275Q578.4344 171.91275 578.84064 171.61588Q579.2625 171.30338 579.4969 170.64713ZM576.04376 168.944L579.5125 168.944Q579.45 168.14713 579.1219 167.7565Q578.60626 167.14713 577.8094 167.14713Q577.075 167.14713 576.575 167.6315Q576.09064 168.11588 576.04376 168.944Z" fill-rule="nonzero"></path>
  <path fill="#9e9e9e" d="M550.325 189.64713L550.325 187.58463L546.60626 187.58463L546.60626 186.61588L550.52814 181.05338L551.3875 181.05338L551.3875 186.61588L552.54376 186.61588L552.54376 187.58463L551.3875 187.58463L551.3875 189.64713L550.325 189.64713ZM550.325 186.61588L550.325 182.7565L547.6375 186.61588L550.325 186.61588ZM557.325 189.64713L557.325 187.58463L553.60626 187.58463L553.60626 186.61588L557.52814 181.05338L558.3875 181.05338L558.3875 186.61588L559.54376 186.61588L559.54376 187.58463L558.3875 187.58463L558.3875 189.64713L557.325 189.64713ZM557.325 186.61588L557.325 182.7565L554.6375 186.61588L557.325 186.61588ZM561.54376 189.64713L561.54376 188.444L562.7469 188.444L562.7469 189.64713L561.54376 189.64713ZM563.95 185.41275Q563.95 183.8815 564.2625 182.95963Q564.575 182.02213 565.1844 181.52213Q565.8094 181.02213 566.7469 181.02213Q567.4344 181.02213 567.95 181.30338Q568.48126 181.58463 568.825 182.11588Q569.16876 182.6315 569.35626 183.3815Q569.54376 184.1315 569.54376 185.41275Q569.54376 186.92838 569.23126 187.85025Q568.9344 188.77213 568.3094 189.28775Q567.7 189.78775 566.7469 189.78775Q565.5125 189.78775 564.79376 188.89713Q563.95 187.83463 563.95 185.41275ZM565.02814 185.41275Q565.02814 187.52213 565.52814 188.22525Q566.02814 188.92838 566.7469 188.92838Q567.48126 188.92838 567.96564 188.22525Q568.46564 187.52213 568.46564 185.41275Q568.46564 183.28775 567.96564 182.60025Q567.48126 181.89713 566.73126 181.89713Q566.0125 181.89713 565.575 182.5065Q565.02814 183.28775 565.02814 185.41275ZM571.15314 183.11588Q571.15314 182.194 571.60626 181.55338Q572.075 180.91275 572.95 180.91275Q573.7625 180.91275 574.29376 181.49088Q574.825 182.069 574.825 183.17838Q574.825 184.27213 574.27814 184.86588Q573.7469 185.444 572.96564 185.444Q572.1844 185.444 571.66876 184.86588Q571.15314 184.28775 571.15314 183.11588ZM572.98126 181.6315Q572.59064 181.6315 572.325 181.97525Q572.075 182.319 572.075 183.22525Q572.075 184.05338 572.325 184.39713Q572.59064 184.72525 572.98126 184.72525Q573.3875 184.72525 573.6375 184.3815Q573.90314 184.03775 573.90314 183.14713Q573.90314 182.30338 573.6375 181.97525Q573.3719 181.6315 572.98126 181.6315ZM572.98126 189.95963L577.6844 180.91275L578.54376 180.91275L573.85626 189.95963L572.98126 189.95963ZM576.7 187.6315Q576.7 186.70963 577.15314 186.069Q577.6219 185.42838 578.5125 185.42838Q579.325 185.42838 579.85626 186.0065Q580.3875 186.569 580.3875 187.694Q580.3875 188.78775 579.84064 189.3815Q579.3094 189.95963 578.5125 189.95963Q577.7469 189.95963 577.21564 189.3815Q576.7 188.80338 576.7 187.6315ZM578.54376 186.14713Q578.1375 186.14713 577.8719 186.49088Q577.6219 186.83463 577.6219 187.74088Q577.6219 188.55338 577.8875 188.89713Q578.15314 189.24088 578.54376 189.24088Q578.9344 189.24088 579.2 188.89713Q579.46564 188.55338 579.46564 187.64713Q579.46564 186.819 579.2 186.49088Q578.9344 186.14713 578.54376 186.14713Z" fill-rule="nonzero"></path>
  <path stroke="#757575" stroke-width="1.0" stroke-linecap="butt" d="M581.45 177.14713L454.76666 177.14713L438.81473 177.14713" fill-rule="nonzero"></path>
  <path fill="#9e9e9e" d="M440.81473 177.14713C440.81473 176.04256 439.91928 175.14713 438.81473 175.14713C437.71014 175.14713 436.81473 176.04256 436.81473 177.14713C436.81473 178.2517 437.71014 179.14713 438.81473 179.14713C439.91928 179.14713 440.81473 178.2517 440.81473 177.14713" fill-rule="nonzero"></path>
  <path fill="#757575" d="M20.096874 37.55L20.096874 23.2375L25.01875 23.2375Q26.690624 23.2375 27.58125 23.440624Q28.8 23.721874 29.675 24.45625Q30.8 25.425 31.3625 26.909374Q31.925 28.39375 31.925 30.315624Q31.925 31.940624 31.55 33.20625Q31.175 34.45625 30.565624 35.284374Q29.971874 36.1125 29.26875 36.596874Q28.565624 37.065624 27.565624 37.315624Q26.565624 37.55 25.253124 37.55L20.096874 37.55ZM21.9875 35.8625L25.05 35.8625Q26.45625 35.8625 27.253124 35.596874Q28.065624 35.33125 28.55 34.846874Q29.221874 34.175 29.596874 33.05Q29.971874 31.909374 29.971874 30.284374Q29.971874 28.034374 29.2375 26.83125Q28.503124 25.628124 27.440624 25.221874Q26.690624 24.925 25.003124 24.925L21.9875 24.925L21.9875 35.8625ZM40.971874 34.20625L42.784374 34.440624Q42.3625 36.01875 41.190624 36.909374Q40.034374 37.784374 38.221874 37.784374Q35.95625 37.784374 34.6125 36.39375Q33.284374 34.9875 33.284374 32.45625Q33.284374 29.83125 34.628124 28.39375Q35.971874 26.940624 38.128124 26.940624Q40.20625 26.940624 41.51875 28.3625Q42.846874 29.76875 42.846874 32.346874Q42.846874 32.503124 42.83125 32.815624L35.096874 32.815624Q35.190624 34.51875 36.065624 35.425Q36.940624 36.33125 38.2375 36.33125Q39.20625 36.33125 39.878124 35.83125Q40.565624 35.315624 40.971874 34.20625ZM35.190624 31.3625L40.9875 31.3625Q40.878124 30.065624 40.33125 29.409374Q39.4875 28.39375 38.14375 28.39375Q36.940624 28.39375 36.1125 29.20625Q35.284374 30.003124 35.190624 31.3625ZM44.159374 34.45625L45.909374 34.175Q46.05 35.221874 46.721874 35.784374Q47.39375 36.33125 48.596874 36.33125Q49.8 36.33125 50.378124 35.846874Q50.971874 35.346874 50.971874 34.690624Q50.971874 34.096874 50.45625 33.753124Q50.096874 33.51875 48.659374 33.159374Q46.721874 32.659374 45.971874 32.315624Q45.2375 31.95625 44.846874 31.33125Q44.45625 30.690624 44.45625 29.925Q44.45625 29.2375 44.76875 28.64375Q45.096874 28.05 45.64375 27.659374Q46.05 27.3625 46.753124 27.159374Q47.471874 26.940624 48.284374 26.940624Q49.503124 26.940624 50.425 27.3Q51.346874 27.64375 51.784374 28.253124Q52.221874 28.846874 52.39375 29.846874L50.675 30.08125Q50.55 29.284374 49.9875 28.846874Q49.425 28.39375 48.409374 28.39375Q47.190624 28.39375 46.675 28.8Q46.159374 29.190624 46.159374 29.721874Q46.159374 30.065624 46.378124 30.346874Q46.58125 30.628124 47.05 30.815624Q47.315624 30.909374 48.596874 31.253124Q50.471874 31.753124 51.20625 32.08125Q51.940624 32.39375 52.3625 33.003124Q52.784374 33.596874 52.784374 34.503124Q52.784374 35.378124 52.26875 36.159374Q51.753124 36.940624 50.784374 37.3625Q49.815624 37.784374 48.596874 37.784374Q46.58125 37.784374 45.51875 36.940624Q44.45625 36.096874 44.159374 34.45625ZM54.878124 25.253124L54.878124 23.2375L56.64375 23.2375L56.64375 25.253124L54.878124 25.253124ZM54.878124 37.55L54.878124 27.175L56.64375 27.175L56.64375 37.55L54.878124 37.55ZM58.55 38.409374L60.253124 38.659374Q60.3625 39.45625 60.846874 39.815624Q61.503124 40.3 62.64375 40.3Q63.8625 40.3 64.51875 39.815624Q65.19063 39.33125 65.425 38.45625Q65.56563 37.909374 65.55 36.190624Q64.39375 37.55 62.675 37.55Q60.534374 37.55 59.3625 36.003124Q58.190624 34.45625 58.190624 32.3Q58.190624 30.815624 58.721874 29.565624Q59.26875 28.315624 60.284374 27.628124Q61.315624 26.940624 62.690624 26.940624Q64.51875 26.940624 65.72188 28.425L65.72188 27.175L67.33125 27.175L67.33125 36.14375Q67.33125 38.565624 66.83125 39.565624Q66.34688 40.58125 65.26875 41.159374Q64.20625 41.753124 62.64375 41.753124Q60.8 41.753124 59.64375 40.925Q58.503124 40.096874 58.55 38.409374ZM60.003124 32.175Q60.003124 34.221874 60.815624 35.159374Q61.628124 36.096874 62.846874 36.096874Q64.05 36.096874 64.8625 35.159374Q65.69063 34.221874 65.69063 32.2375Q65.69063 30.33125 64.84688 29.3625Q64.00313 28.39375 62.815624 28.39375Q61.64375 28.39375 60.815624 29.346874Q60.003124 30.3 60.003124 32.175ZM69.8625 37.55L69.8625 27.175L71.45625 27.175L71.45625 28.659374Q72.59688 26.940624 74.75313 26.940624Q75.69063 26.940624 76.47188 27.284374Q77.26875 27.6125 77.65938 28.159374Q78.05 28.70625 78.20625 29.45625Q78.3 29.95625 78.3 31.175L78.3 37.55L76.53438 37.55L76.53438 31.2375Q76.53438 30.159374 76.33125 29.628124Q76.12813 29.096874 75.59688 28.784374Q75.08125 28.471874 74.37813 28.471874Q73.25313 28.471874 72.44063 29.190624Q71.62813 29.89375 71.62813 31.878124L71.62813 37.55L69.8625 37.55ZM81.33125 37.55L81.33125 35.55L83.33125 35.55L83.33125 37.55Q83.33125 38.659374 82.94063 39.33125Q82.55 40.01875 81.70625 40.378124L81.20625 39.628124Q81.76875 39.39375 82.03438 38.909374Q82.3 38.440624 82.33125 37.55L81.33125 37.55ZM103.31563 32.534374L105.20625 33.003124Q104.6125 35.346874 103.06563 36.58125Q101.51875 37.8 99.26875 37.8Q96.95625 37.8 95.50313 36.8625Q94.06563 35.909374 93.3 34.128124Q92.55 32.33125 92.55 30.284374Q92.55 28.05 93.39375 26.39375Q94.25313 24.721874 95.83125 23.8625Q97.40938 22.9875 99.3 22.9875Q101.45625 22.9875 102.90938 24.08125Q104.37813 25.175 104.95625 27.159374L103.09688 27.596874Q102.59688 26.034374 101.64375 25.33125Q100.70625 24.6125 99.26875 24.6125Q97.6125 24.6125 96.50313 25.409374Q95.39375 26.190624 94.94063 27.534374Q94.50313 28.8625 94.50313 30.26875Q94.50313 32.096874 95.03438 33.471874Q95.56563 34.83125 96.69063 35.503124Q97.81563 36.175 99.1125 36.175Q100.70625 36.175 101.81563 35.253124Q102.925 34.33125 103.31563 32.534374ZM106.22188 32.3625Q106.22188 29.4875 107.81563 28.096874Q109.15938 26.940624 111.08125 26.940624Q113.22188 26.940624 114.56563 28.346874Q115.925 29.753124 115.925 32.221874Q115.925 34.221874 115.33125 35.378124Q114.7375 36.51875 113.58125 37.159374Q112.44063 37.784374 111.08125 37.784374Q108.89375 37.784374 107.55 36.39375Q106.22188 34.9875 106.22188 32.3625ZM108.01875 32.3625Q108.01875 34.3625 108.87813 35.346874Q109.75313 36.33125 111.08125 36.33125Q112.39375 36.33125 113.25313 35.346874Q114.12813 34.346874 114.12813 32.3Q114.12813 30.378124 113.25313 29.39375Q112.37813 28.39375 111.08125 28.39375Q109.75313 28.39375 108.87813 29.39375Q108.01875 30.378124 108.01875 32.3625ZM124.59688 37.55L124.59688 36.2375Q123.6125 37.784374 121.69063 37.784374Q120.45625 37.784374 119.40938 37.096874Q118.37813 36.409374 117.8 35.190624Q117.2375 33.971874 117.2375 32.378124Q117.2375 30.815624 117.75313 29.55Q118.26875 28.284374 119.3 27.6125Q120.34688 26.940624 121.6125 26.940624Q122.55 26.940624 123.28438 27.346874Q124.01875 27.7375 124.4875 28.3625L124.4875 23.2375L126.22188 23.2375L126.22188 37.55L124.59688 37.55ZM119.03438 32.378124Q119.03438 34.3625 119.87813 35.346874Q120.72188 36.33125 121.8625 36.33125Q123.01875 36.33125 123.81563 35.39375Q124.62813 34.45625 124.62813 32.51875Q124.62813 30.39375 123.8 29.39375Q122.9875 28.39375 121.78438 28.39375Q120.6125 28.39375 119.81563 29.3625Q119.03438 30.315624 119.03438 32.378124ZM135.97188 34.20625L137.78438 34.440624Q137.3625 36.01875 136.19063 36.909374Q135.03438 37.784374 133.22188 37.784374Q130.95625 37.784374 129.6125 36.39375Q128.28438 34.9875 128.28438 32.45625Q128.28438 29.83125 129.62813 28.39375Q130.97188 26.940624 133.12813 26.940624Q135.20625 26.940624 136.51875 28.3625Q137.84688 29.76875 137.84688 32.346874Q137.84688 32.503124 137.83125 32.815624L130.09688 32.815624Q130.19063 34.51875 131.06563 35.425Q131.94063 36.33125 133.2375 36.33125Q134.20625 36.33125 134.87813 35.83125Q135.56563 35.315624 135.97188 34.20625ZM130.19063 31.3625L135.9875 31.3625Q135.87813 30.065624 135.33125 29.409374Q134.4875 28.39375 133.14375 28.39375Q131.94063 28.39375 131.1125 29.20625Q130.28438 30.003124 130.19063 31.3625ZM140.33125 37.55L140.33125 35.55L142.33125 35.55L142.33125 37.55Q142.33125 38.659374 141.94063 39.33125Q141.55 40.01875 140.70625 40.378124L140.20625 39.628124Q140.76875 39.39375 141.03438 38.909374Q141.3 38.440624 141.33125 37.55L140.33125 37.55ZM151.22188 32.3625Q151.22188 29.4875 152.81563 28.096874Q154.15938 26.940624 156.08125 26.940624Q158.22188 26.940624 159.56563 28.346874Q160.925 29.753124 160.925 32.221874Q160.925 34.221874 160.33125 35.378124Q159.7375 36.51875 158.58125 37.159374Q157.44063 37.784374 156.08125 37.784374Q153.89375 37.784374 152.55 36.39375Q151.22188 34.9875 151.22188 32.3625ZM153.01875 32.3625Q153.01875 34.3625 153.87813 35.346874Q154.75313 36.33125 156.08125 36.33125Q157.39375 36.33125 158.25313 35.346874Q159.12813 34.346874 159.12813 32.3Q159.12813 30.378124 158.25313 29.39375Q157.37813 28.39375 156.08125 28.39375Q154.75313 28.39375 153.87813 29.39375Q153.01875 30.378124 153.01875 32.3625ZM162.84688 37.55L162.84688 27.175L164.425 27.175L164.425 28.753124Q165.03438 27.64375 165.55 27.3Q166.06563 26.940624 166.675 26.940624Q167.56563 26.940624 168.4875 27.503124L167.87813 29.14375Q167.2375 28.753124 166.59688 28.753124Q166.01875 28.753124 165.55 29.1125Q165.09688 29.45625 164.89375 30.065624Q164.6125 31.003124 164.6125 32.1125L164.6125 37.55L162.84688 37.55ZM176.01875 37.55L176.01875 23.2375L181.39375 23.2375Q183.03438 23.2375 184.01875 23.675Q185.00313 24.096874 185.56563 25.003124Q186.12813 25.909374 186.12813 26.89375Q186.12813 27.815624 185.62813 28.628124Q185.14375 29.440624 184.12813 29.925Q185.425 30.315624 186.12813 31.2375Q186.83125 32.14375 186.83125 33.39375Q186.83125 34.409374 186.39375 35.26875Q185.97188 36.128124 185.34688 36.596874Q184.72188 37.065624 183.78438 37.315624Q182.84688 37.55 181.47188 37.55L176.01875 37.55ZM177.90938 29.253124L181.00313 29.253124Q182.26875 29.253124 182.81563 29.08125Q183.53438 28.8625 183.89375 28.378124Q184.26875 27.878124 184.26875 27.1125Q184.26875 26.409374 183.925 25.8625Q183.58125 25.315624 182.94063 25.128124Q182.31563 24.925 180.76875 24.925L177.90938 24.925L177.90938 29.253124ZM177.90938 35.8625L181.47188 35.8625Q182.39375 35.8625 182.76875 35.784374Q183.425 35.675 183.8625 35.409374Q184.3 35.128124 184.58125 34.6125Q184.8625 34.08125 184.8625 33.39375Q184.8625 32.596874 184.45625 32.003124Q184.05 31.409374 183.31563 31.175Q182.58125 30.940624 181.22188 30.940624L177.90938 30.940624L177.90938 35.8625ZM188.22188 32.3625Q188.22188 29.4875 189.81563 28.096874Q191.15938 26.940624 193.08125 26.940624Q195.22188 26.940624 196.56563 28.346874Q197.925 29.753124 197.925 32.221874Q197.925 34.221874 197.33125 35.378124Q196.7375 36.51875 195.58125 37.159374Q194.44063 37.784374 193.08125 37.784374Q190.89375 37.784374 189.55 36.39375Q188.22188 34.9875 188.22188 32.3625ZM190.01875 32.3625Q190.01875 34.3625 190.87813 35.346874Q191.75313 36.33125 193.08125 36.33125Q194.39375 36.33125 195.25313 35.346874Q196.12813 34.346874 196.12813 32.3Q196.12813 30.378124 195.25313 29.39375Q194.37813 28.39375 193.08125 28.39375Q191.75313 28.39375 190.87813 29.39375Q190.01875 30.378124 190.01875 32.3625ZM203.70625 35.971874L203.95625 37.534374Q203.22188 37.690624 202.62813 37.690624Q201.675 37.690624 201.14375 37.39375Q200.62813 37.08125 200.40938 36.596874Q200.19063 36.096874 200.19063 34.51875L200.19063 28.55L198.90938 28.55L198.90938 27.175L200.19063 27.175L200.19063 24.6125L201.94063 23.55L201.94063 27.175L203.70625 27.175L203.70625 28.55L201.94063 28.55L201.94063 34.6125Q201.94063 35.3625 202.03438 35.58125Q202.12813 35.784374 202.33125 35.925Q202.55 36.05 202.94063 36.05Q203.22188 36.05 203.70625 35.971874ZM205.8625 37.55L205.8625 23.2375L207.62813 23.2375L207.62813 28.3625Q208.8625 26.940624 210.7375 26.940624Q211.87813 26.940624 212.72188 27.39375Q213.58125 27.846874 213.94063 28.659374Q214.31563 29.45625 214.31563 30.971874L214.31563 37.55L212.56563 37.55L212.56563 30.971874Q212.56563 29.659374 211.9875 29.065624Q211.40938 28.45625 210.37813 28.45625Q209.59688 28.45625 208.89375 28.8625Q208.20625 29.26875 207.90938 29.971874Q207.62813 30.659374 207.62813 31.878124L207.62813 37.55L205.8625 37.55ZM220.15938 34.01875Q220.14375 33.675 220.14375 33.503124Q220.14375 32.45625 220.44063 31.70625Q220.65938 31.14375 221.14375 30.565624Q221.4875 30.14375 222.39375 29.346874Q223.31563 28.534374 223.58125 28.065624Q223.8625 27.58125 223.8625 27.01875Q223.8625 25.9875 223.05 25.221874Q222.25313 24.440624 221.09688 24.440624Q219.97188 24.440624 219.22188 25.14375Q218.47188 25.846874 218.2375 27.33125L216.425 27.1125Q216.675 25.1125 217.87813 24.05Q219.08125 22.9875 221.06563 22.9875Q223.175 22.9875 224.425 24.128124Q225.675 25.26875 225.675 26.89375Q225.675 27.83125 225.22188 28.628124Q224.78438 29.409374 223.50313 30.55Q222.64375 31.315624 222.37813 31.675Q222.12813 32.034374 221.9875 32.503124Q221.8625 32.971874 221.84688 34.01875L220.15938 34.01875ZM220.05 37.55L220.05 35.55L222.05 35.55L222.05 37.55L220.05 37.55Z" fill-rule="nonzero"></path>
</svg>
