<?xml version="1.0" encoding="UTF-8"?>
<svg xmlns:xlink="http://www.w3.org/1999/xlink" xmlns="http://www.w3.org/2000/svg" version="1.1" viewBox="0.0 0.0 600.0 371.0" fill="none" stroke="none" stroke-linecap="square" stroke-miterlimit="10" width="600" height="371">
  <path fill="#ffffff" d="M0 0L600.0 0L600.0 371.0L0 371.0L0 0Z" fill-rule="nonzero"></path>
  <path fill="#34a853" d="M300.0 54.916668C332.88284 54.916668 364.83914 65.811325 390.87402 85.89779L300.0 203.68333Z" fill-rule="nonzero"></path>
  <path fill="#4285f4" d="M390.87402 85.89779C440.00092 123.800224 460.4439 188.21327 442.16495 247.50851C423.88602 306.80377 370.7245 348.52676 308.784 352.19046L300.0 203.68333Z" fill-rule="nonzero"></path>
  <path fill="#ea4335" d="M222.06267 76.96596C245.50246 62.54935 272.4816 54.916668 300.0 54.916668L300.0 203.68333Z" fill-rule="nonzero"></path>
  <path fill="#ff6d01" d="M151.56566 213.62149C147.87611 158.51515 175.01877 105.900246 222.06267 76.96596L300.0 203.68333Z" fill-rule="nonzero"></path>
  <path fill="#fbbc04" d="M308.784 352.19046C227.21625 357.01508 157.0242 295.14926 151.56566 213.62149L300.0 203.68333Z" fill-rule="nonzero"></path>
  <path fill="#1a1a1a" d="M21.925 65.916664L18.596874 57.322914L19.83125 57.322914L22.065624 63.572914Q22.33125 64.322914 22.51875 64.979164Q22.721874 64.27604 22.9875 63.572914L25.3 57.322914L26.45625 57.322914L23.096874 65.916664L21.925 65.916664ZM31.596874 63.916664L32.690624 64.041664Q32.440624 64.99479 31.7375 65.52604Q31.034374 66.05729 29.95625 66.05729Q28.596874 66.05729 27.784374 65.21354Q26.9875 64.36979 26.9875 62.854164Q26.9875 61.291664 27.8 60.43229Q28.6125 59.55729 29.89375 59.55729Q31.14375 59.55729 31.925 60.40104Q32.721874 61.24479 32.721874 62.791664Q32.721874 62.885414 32.721874 63.072914L28.08125 63.072914Q28.14375 64.104164 28.659374 64.65104Q29.175 65.18229 29.95625 65.18229Q30.534374 65.18229 30.940624 64.885414Q31.3625 64.572914 31.596874 63.916664ZM28.14375 62.21354L31.6125 62.21354Q31.55 61.416664 31.221874 61.02604Q30.70625 60.416664 29.909374 60.416664Q29.175 60.416664 28.675 60.90104Q28.190624 61.385414 28.14375 62.21354ZM34.33125 65.916664L34.33125 59.697914L35.284374 59.697914L35.284374 60.635414Q35.64375 59.979164 35.940624 59.77604Q36.253124 59.55729 36.628124 59.55729Q37.159374 59.55729 37.70625 59.885414L37.346874 60.86979Q36.95625 60.635414 36.58125 60.635414Q36.221874 60.635414 35.940624 60.854164Q35.675 61.05729 35.565624 61.43229Q35.378124 61.99479 35.378124 62.65104L35.378124 65.916664L34.33125 65.916664ZM38.3 68.30729L38.175 67.322914Q38.51875 67.416664 38.784374 67.416664Q39.128124 67.416664 39.33125 67.291664Q39.55 67.18229 39.690624 66.979164Q39.784374 66.80729 40.01875 66.18229Q40.034374 66.104164 40.1125 65.93229L37.7375 59.697914L38.878124 59.697914L40.175 63.291664Q40.425 63.979164 40.628124 64.74479Q40.815624 64.010414 41.065624 63.322914L42.39375 59.697914L43.440624 59.697914L41.08125 66.02604Q40.690624 67.041664 40.4875 67.43229Q40.20625 67.96354 39.83125 68.197914Q39.471874 68.447914 38.971874 68.447914Q38.675 68.447914 38.3 68.30729ZM47.471874 65.916664L47.471874 57.322914L50.440624 57.322914Q51.440624 57.322914 51.971874 57.447914Q52.70625 57.61979 53.221874 58.05729Q53.909374 58.635414 54.2375 59.541664Q54.58125 60.43229 54.58125 61.572914Q54.58125 62.55729 54.346874 63.30729Q54.128124 64.05729 53.76875 64.55729Q53.409374 65.05729 52.971874 65.33854Q52.55 65.61979 51.95625 65.77604Q51.3625 65.916664 50.58125 65.916664L47.471874 65.916664ZM48.6125 64.90104L50.440624 64.90104Q51.3 64.90104 51.784374 64.74479Q52.26875 64.58854 52.55 64.291664Q52.95625 63.90104 53.175 63.21354Q53.409374 62.52604 53.409374 61.55729Q53.409374 60.21354 52.95625 59.49479Q52.51875 58.760414 51.89375 58.510414Q51.425 58.33854 50.425 58.33854L48.6125 58.33854L48.6125 64.90104ZM56.346874 58.541664L56.346874 57.322914L57.409374 57.322914L57.409374 58.541664L56.346874 58.541664ZM56.346874 65.916664L56.346874 59.697914L57.409374 59.697914L57.409374 65.916664L56.346874 65.916664ZM58.925 64.05729L59.95625 63.90104Q60.05 64.52604 60.440624 64.854164Q60.846874 65.18229 61.58125 65.18229Q62.3 65.18229 62.64375 64.90104Q63.003124 64.604164 63.003124 64.197914Q63.003124 63.83854 62.690624 63.635414Q62.471874 63.49479 61.6125 63.27604Q60.45625 62.979164 60.003124 62.77604Q59.565624 62.55729 59.33125 62.18229Q59.096874 61.80729 59.096874 61.33854Q59.096874 60.93229 59.284374 60.572914Q59.471874 60.21354 59.8 59.979164Q60.05 59.80729 60.471874 59.68229Q60.89375 59.55729 61.39375 59.55729Q62.1125 59.55729 62.659374 59.77604Q63.221874 59.979164 63.4875 60.33854Q63.753124 60.697914 63.846874 61.291664L62.815624 61.43229Q62.753124 60.96354 62.409374 60.697914Q62.08125 60.416664 61.45625 60.416664Q60.7375 60.416664 60.425 60.666664Q60.1125 60.90104 60.1125 61.229164Q60.1125 61.43229 60.2375 61.58854Q60.378124 61.760414 60.64375 61.86979Q60.8 61.93229 61.58125 62.135414Q62.70625 62.447914 63.14375 62.635414Q63.58125 62.822914 63.83125 63.18229Q64.08125 63.541664 64.08125 64.08854Q64.08125 64.61979 63.76875 65.08854Q63.471874 65.541664 62.89375 65.80729Q62.315624 66.05729 61.58125 66.05729Q60.3625 66.05729 59.721874 65.55729Q59.096874 65.041664 58.925 64.05729ZM64.925 64.05729L65.95625 63.90104Q66.05 64.52604 66.44063 64.854164Q66.84688 65.18229 67.58125 65.18229Q68.3 65.18229 68.64375 64.90104Q69.00313 64.604164 69.00313 64.197914Q69.00313 63.83854 68.69063 63.635414Q68.47188 63.49479 67.6125 63.27604Q66.45625 62.979164 66.00313 62.77604Q65.56563 62.55729 65.33125 62.18229Q65.09688 61.80729 65.09688 61.33854Q65.09688 60.93229 65.28438 60.572914Q65.47188 60.21354 65.8 59.979164Q66.05 59.80729 66.47188 59.68229Q66.89375 59.55729 67.39375 59.55729Q68.1125 59.55729 68.65938 59.77604Q69.22188 59.979164 69.4875 60.33854Q69.75313 60.697914 69.84688 61.291664L68.81563 61.43229Q68.75313 60.96354 68.40938 60.697914Q68.08125 60.416664 67.45625 60.416664Q66.7375 60.416664 66.425 60.666664Q66.1125 60.90104 66.1125 61.229164Q66.1125 61.43229 66.2375 61.58854Q66.37813 61.760414 66.64375 61.86979Q66.8 61.93229 67.58125 62.135414Q68.70625 62.447914 69.14375 62.635414Q69.58125 62.822914 69.83125 63.18229Q70.08125 63.541664 70.08125 64.08854Q70.08125 64.61979 69.76875 65.08854Q69.47188 65.541664 68.89375 65.80729Q68.31563 66.05729 67.58125 66.05729Q66.3625 66.05729 65.72188 65.55729Q65.09688 65.041664 64.925 64.05729ZM75.40938 65.15104Q74.81563 65.65104 74.26875 65.854164Q73.7375 66.05729 73.1125 66.05729Q72.08125 66.05729 71.53438 65.55729Q70.9875 65.05729 70.9875 64.27604Q70.9875 63.822914 71.19063 63.447914Q71.39375 63.05729 71.7375 62.83854Q72.08125 62.604164 72.50313 62.49479Q72.8 62.40104 73.44063 62.322914Q74.70625 62.18229 75.31563 61.96354Q75.31563 61.74479 75.31563 61.697914Q75.31563 61.041664 75.01875 60.77604Q74.6125 60.43229 73.81563 60.43229Q73.08125 60.43229 72.72188 60.697914Q72.3625 60.947914 72.19063 61.604164L71.15938 61.46354Q71.3 60.80729 71.62813 60.40104Q71.95625 59.99479 72.56563 59.77604Q73.175 59.55729 73.97188 59.55729Q74.76875 59.55729 75.26875 59.74479Q75.76875 59.93229 76.00313 60.21354Q76.2375 60.49479 76.33125 60.93229Q76.37813 61.197914 76.37813 61.90104L76.37813 63.30729Q76.37813 64.77604 76.44063 65.166664Q76.51875 65.55729 76.72188 65.916664L75.6125 65.916664Q75.45625 65.58854 75.40938 65.15104ZM75.31563 62.791664Q74.7375 63.02604 73.59688 63.197914Q72.94063 63.291664 72.675 63.416664Q72.40938 63.52604 72.25313 63.74479Q72.1125 63.96354 72.1125 64.24479Q72.1125 64.666664 72.425 64.947914Q72.75313 65.229164 73.3625 65.229164Q73.97188 65.229164 74.44063 64.96354Q74.925 64.697914 75.14375 64.229164Q75.31563 63.86979 75.31563 63.18229L75.31563 62.791664ZM80.64375 64.979164L80.8 65.90104Q80.34688 65.99479 80.00313 65.99479Q79.425 65.99479 79.1125 65.822914Q78.8 65.635414 78.65938 65.33854Q78.53438 65.041664 78.53438 64.08854L78.53438 60.510414L77.76875 60.510414L77.76875 59.697914L78.53438 59.697914L78.53438 58.15104L79.58125 57.52604L79.58125 59.697914L80.64375 59.697914L80.64375 60.510414L79.58125 60.510414L79.58125 64.15104Q79.58125 64.604164 79.62813 64.729164Q79.69063 64.854164 79.81563 64.93229Q79.94063 65.010414 80.175 65.010414Q80.3625 65.010414 80.64375 64.979164ZM81.34688 58.541664L81.34688 57.322914L82.40938 57.322914L82.40938 58.541664L81.34688 58.541664ZM81.34688 65.916664L81.34688 59.697914L82.40938 59.697914L82.40938 65.916664L81.34688 65.916664ZM83.925 64.05729L84.95625 63.90104Q85.05 64.52604 85.44063 64.854164Q85.84688 65.18229 86.58125 65.18229Q87.3 65.18229 87.64375 64.90104Q88.00313 64.604164 88.00313 64.197914Q88.00313 63.83854 87.69063 63.635414Q87.47188 63.49479 86.6125 63.27604Q85.45625 62.979164 85.00313 62.77604Q84.56563 62.55729 84.33125 62.18229Q84.09688 61.80729 84.09688 61.33854Q84.09688 60.93229 84.28438 60.572914Q84.47188 60.21354 84.8 59.979164Q85.05 59.80729 85.47188 59.68229Q85.89375 59.55729 86.39375 59.55729Q87.1125 59.55729 87.65938 59.77604Q88.22188 59.979164 88.4875 60.33854Q88.75313 60.697914 88.84688 61.291664L87.81563 61.43229Q87.75313 60.96354 87.40938 60.697914Q87.08125 60.416664 86.45625 60.416664Q85.7375 60.416664 85.425 60.666664Q85.1125 60.90104 85.1125 61.229164Q85.1125 61.43229 85.2375 61.58854Q85.37813 61.760414 85.64375 61.86979Q85.8 61.93229 86.58125 62.135414Q87.70625 62.447914 88.14375 62.635414Q88.58125 62.822914 88.83125 63.18229Q89.08125 63.541664 89.08125 64.08854Q89.08125 64.61979 88.76875 65.08854Q88.47188 65.541664 87.89375 65.80729Q87.31563 66.05729 86.58125 66.05729Q85.3625 66.05729 84.72188 65.55729Q84.09688 65.041664 83.925 64.05729ZM90.59688 65.916664L90.59688 60.510414L89.65938 60.510414L89.65938 59.697914L90.59688 59.697914L90.59688 59.02604Q90.59688 58.40104 90.70625 58.104164Q90.8625 57.68229 91.2375 57.43229Q91.62813 57.18229 92.31563 57.18229Q92.76875 57.18229 93.3 57.291664L93.14375 58.197914Q92.81563 58.15104 92.51875 58.15104Q92.03438 58.15104 91.83125 58.354164Q91.64375 58.55729 91.64375 59.11979L91.64375 59.697914L92.8625 59.697914L92.8625 60.510414L91.64375 60.510414L91.64375 65.916664L90.59688 65.916664ZM93.34688 58.541664L93.34688 57.322914L94.40938 57.322914L94.40938 58.541664L93.34688 58.541664ZM93.34688 65.916664L93.34688 59.697914L94.40938 59.697914L94.40938 65.916664L93.34688 65.916664ZM100.59688 63.916664L101.69063 64.041664Q101.44063 64.99479 100.7375 65.52604Q100.03438 66.05729 98.95625 66.05729Q97.59688 66.05729 96.78438 65.21354Q95.9875 64.36979 95.9875 62.854164Q95.9875 61.291664 96.8 60.43229Q97.6125 59.55729 98.89375 59.55729Q100.14375 59.55729 100.925 60.40104Q101.72188 61.24479 101.72188 62.791664Q101.72188 62.885414 101.72188 63.072914L97.08125 63.072914Q97.14375 64.104164 97.65938 64.65104Q98.175 65.18229 98.95625 65.18229Q99.53438 65.18229 99.94063 64.885414Q100.3625 64.572914 100.59688 63.916664ZM97.14375 62.21354L100.6125 62.21354Q100.55 61.416664 100.22188 61.02604Q99.70625 60.416664 98.90938 60.416664Q98.175 60.416664 97.675 60.90104Q97.19063 61.385414 97.14375 62.21354ZM107.37813 65.916664L107.37813 65.135414Q106.78438 66.05729 105.64375 66.05729Q104.89375 66.05729 104.26875 65.65104Q103.64375 65.229164 103.3 64.49479Q102.95625 63.760414 102.95625 62.80729Q102.95625 61.885414 103.26875 61.11979Q103.58125 60.354164 104.20625 59.96354Q104.83125 59.55729 105.59688 59.55729Q106.15938 59.55729 106.59688 59.791664Q107.03438 60.02604 107.31563 60.40104L107.31563 57.322914L108.3625 57.322914L108.3625 65.916664L107.37813 65.916664ZM104.05 62.80729Q104.05 64.010414 104.55 64.604164Q105.05 65.18229 105.7375 65.18229Q106.425 65.18229 106.90938 64.61979Q107.39375 64.05729 107.39375 62.90104Q107.39375 61.61979 106.89375 61.02604Q106.40938 60.43229 105.69063 60.43229Q104.9875 60.43229 104.51875 61.010414Q104.05 61.572914 104.05 62.80729Z" fill-rule="nonzero"></path>
  <path fill="#9e9e9e" d="M20.675 78.260414Q20.01875 78.010414 19.690624 77.572914Q19.378124 77.11979 19.378124 76.510414Q19.378124 75.572914 20.05 74.93229Q20.7375 74.291664 21.846874 74.291664Q22.971874 74.291664 23.659374 74.947914Q24.346874 75.604164 24.346874 76.541664Q24.346874 77.135414 24.034374 77.572914Q23.721874 78.010414 23.08125 78.260414Q23.878124 78.510414 24.284374 79.08854Q24.690624 79.666664 24.690624 80.46354Q24.690624 81.55729 23.909374 82.30729Q23.14375 83.05729 21.8625 83.05729Q20.596874 83.05729 19.815624 82.30729Q19.034374 81.55729 19.034374 80.43229Q19.034374 79.58854 19.45625 79.02604Q19.89375 78.46354 20.675 78.260414ZM20.45625 76.46354Q20.45625 77.072914 20.846874 77.46354Q21.253124 77.854164 21.878124 77.854164Q22.4875 77.854164 22.878124 77.479164Q23.26875 77.08854 23.26875 76.52604Q23.26875 75.947914 22.8625 75.55729Q22.45625 75.15104 21.8625 75.15104Q21.253124 75.15104 20.846874 75.541664Q20.45625 75.93229 20.45625 76.46354ZM20.128124 80.43229Q20.128124 80.885414 20.33125 81.30729Q20.55 81.729164 20.971874 81.96354Q21.39375 82.197914 21.878124 82.197914Q22.628124 82.197914 23.1125 81.71354Q23.6125 81.229164 23.6125 80.479164Q23.6125 79.71354 23.1125 79.21354Q22.6125 78.71354 21.846874 78.71354Q21.096874 78.71354 20.6125 79.21354Q20.128124 79.697914 20.128124 80.43229ZM26.64375 82.916664L26.64375 81.71354L27.846874 81.71354L27.846874 82.916664L26.64375 82.916664ZM30.675 78.260414Q30.01875 78.010414 29.690624 77.572914Q29.378124 77.11979 29.378124 76.510414Q29.378124 75.572914 30.05 74.93229Q30.7375 74.291664 31.846874 74.291664Q32.971874 74.291664 33.659374 74.947914Q34.346874 75.604164 34.346874 76.541664Q34.346874 77.135414 34.034374 77.572914Q33.721874 78.010414 33.08125 78.260414Q33.878124 78.510414 34.284374 79.08854Q34.690624 79.666664 34.690624 80.46354Q34.690624 81.55729 33.909374 82.30729Q33.14375 83.05729 31.8625 83.05729Q30.596874 83.05729 29.815624 82.30729Q29.034374 81.55729 29.034374 80.43229Q29.034374 79.58854 29.45625 79.02604Q29.89375 78.46354 30.675 78.260414ZM30.45625 76.46354Q30.45625 77.072914 30.846874 77.46354Q31.253124 77.854164 31.878124 77.854164Q32.4875 77.854164 32.878124 77.479164Q33.26875 77.08854 33.26875 76.52604Q33.26875 75.947914 32.8625 75.55729Q32.45625 75.15104 31.8625 75.15104Q31.253124 75.15104 30.846874 75.541664Q30.45625 75.93229 30.45625 76.46354ZM30.128124 80.43229Q30.128124 80.885414 30.33125 81.30729Q30.55 81.729164 30.971874 81.96354Q31.39375 82.197914 31.878124 82.197914Q32.628124 82.197914 33.1125 81.71354Q33.6125 81.229164 33.6125 80.479164Q33.6125 79.71354 33.1125 79.21354Q32.6125 78.71354 31.846874 78.71354Q31.096874 78.71354 30.6125 79.21354Q30.128124 79.697914 30.128124 80.43229ZM36.253124 76.385414Q36.253124 75.46354 36.70625 74.822914Q37.175 74.18229 38.05 74.18229Q38.8625 74.18229 39.39375 74.760414Q39.925 75.33854 39.925 76.447914Q39.925 77.541664 39.378124 78.135414Q38.846874 78.71354 38.065624 78.71354Q37.284374 78.71354 36.76875 78.135414Q36.253124 77.55729 36.253124 76.385414ZM38.08125 74.90104Q37.690624 74.90104 37.425 75.24479Q37.175 75.58854 37.175 76.49479Q37.175 77.322914 37.425 77.666664Q37.690624 77.99479 38.08125 77.99479Q38.4875 77.99479 38.7375 77.65104Q39.003124 77.30729 39.003124 76.416664Q39.003124 75.572914 38.7375 75.24479Q38.471874 74.90104 38.08125 74.90104ZM38.08125 83.229164L42.784374 74.18229L43.64375 74.18229L38.95625 83.229164L38.08125 83.229164ZM41.8 80.90104Q41.8 79.979164 42.253124 79.33854Q42.721874 78.697914 43.6125 78.697914Q44.425 78.697914 44.95625 79.27604Q45.4875 79.83854 45.4875 80.96354Q45.4875 82.05729 44.940624 82.65104Q44.409374 83.229164 43.6125 83.229164Q42.846874 83.229164 42.315624 82.65104Q41.8 82.072914 41.8 80.90104ZM43.64375 79.416664Q43.2375 79.416664 42.971874 79.760414Q42.721874 80.104164 42.721874 81.010414Q42.721874 81.822914 42.9875 82.166664Q43.253124 82.510414 43.64375 82.510414Q44.034374 82.510414 44.3 82.166664Q44.565624 81.822914 44.565624 80.916664Q44.565624 80.08854 44.3 79.760414Q44.034374 79.416664 43.64375 79.416664Z" fill-rule="nonzero"></path>
  <path stroke="#757575" stroke-width="1.0" stroke-linecap="butt" d="M18.55 70.416664L145.23334 70.416664L261.52676 67.6925" fill-rule="nonzero"></path>
  <path fill="#9e9e9e" d="M263.52676 67.6925C263.52676 66.58793 262.63132 65.6925 261.52676 65.6925C260.42218 65.6925 259.52676 66.58793 259.52676 67.6925C259.52676 68.797066 260.42218 69.6925 261.52676 69.6925C262.63132 69.6925 263.52676 68.797066 263.52676 67.6925" fill-rule="nonzero"></path>
  <path fill="#1a1a1a" d="M19.471874 134.3894L19.471874 125.795654L22.440624 125.795654Q23.440624 125.795654 23.971874 125.920654Q24.70625 126.09253 25.221874 126.53003Q25.909374 127.108154 26.2375 128.0144Q26.58125 128.90503 26.58125 130.04565Q26.58125 131.03003 26.346874 131.78003Q26.128124 132.53003 25.76875 133.03003Q25.409374 133.53003 24.971874 133.81128Q24.55 134.09253 23.95625 134.24878Q23.3625 134.3894 22.58125 134.3894L19.471874 134.3894ZM20.6125 133.37378L22.440624 133.37378Q23.3 133.37378 23.784374 133.21753Q24.26875 133.06128 24.55 132.7644Q24.95625 132.37378 25.175 131.68628Q25.409374 130.99878 25.409374 130.03003Q25.409374 128.68628 24.95625 127.96753Q24.51875 127.233154 23.89375 126.983154Q23.425 126.81128 22.425 126.81128L20.6125 126.81128L20.6125 133.37378ZM28.346874 127.014404L28.346874 125.795654L29.409374 125.795654L29.409374 127.014404L28.346874 127.014404ZM28.346874 134.3894L28.346874 128.17065L29.409374 128.17065L29.409374 134.3894L28.346874 134.3894ZM30.925 132.53003L31.95625 132.37378Q32.05 132.99878 32.440624 133.3269Q32.846874 133.65503 33.58125 133.65503Q34.3 133.65503 34.64375 133.37378Q35.003124 133.0769 35.003124 132.67065Q35.003124 132.31128 34.690624 132.10815Q34.471874 131.96753 33.6125 131.74878Q32.45625 131.4519 32.003124 131.24878Q31.565624 131.03003 31.33125 130.65503Q31.096874 130.28003 31.096874 129.81128Q31.096874 129.40503 31.284374 129.04565Q31.471874 128.68628 31.8 128.4519Q32.05 128.28003 32.471874 128.15503Q32.89375 128.03003 33.39375 128.03003Q34.1125 128.03003 34.659374 128.24878Q35.221874 128.4519 35.4875 128.81128Q35.753124 129.17065 35.846874 129.7644L34.815624 129.90503Q34.753124 129.43628 34.409374 129.17065Q34.08125 128.8894 33.45625 128.8894Q32.7375 128.8894 32.425 129.1394Q32.1125 129.37378 32.1125 129.7019Q32.1125 129.90503 32.2375 130.06128Q32.378124 130.23315 32.64375 130.34253Q32.8 130.40503 33.58125 130.60815Q34.70625 130.92065 35.14375 131.10815Q35.58125 131.29565 35.83125 131.65503Q36.08125 132.0144 36.08125 132.56128Q36.08125 133.09253 35.76875 133.56128Q35.471874 134.0144 34.89375 134.28003Q34.315624 134.53003 33.58125 134.53003Q32.3625 134.53003 31.721874 134.03003Q31.096874 133.5144 30.925 132.53003ZM36.925 132.53003L37.95625 132.37378Q38.05 132.99878 38.440624 133.3269Q38.846874 133.65503 39.58125 133.65503Q40.3 133.65503 40.64375 133.37378Q41.003124 133.0769 41.003124 132.67065Q41.003124 132.31128 40.690624 132.10815Q40.471874 131.96753 39.6125 131.74878Q38.45625 131.4519 38.003124 131.24878Q37.565624 131.03003 37.33125 130.65503Q37.096874 130.28003 37.096874 129.81128Q37.096874 129.40503 37.284374 129.04565Q37.471874 128.68628 37.8 128.4519Q38.05 128.28003 38.471874 128.15503Q38.89375 128.03003 39.39375 128.03003Q40.1125 128.03003 40.659374 128.24878Q41.221874 128.4519 41.4875 128.81128Q41.753124 129.17065 41.846874 129.7644L40.815624 129.90503Q40.753124 129.43628 40.409374 129.17065Q40.08125 128.8894 39.45625 128.8894Q38.7375 128.8894 38.425 129.1394Q38.1125 129.37378 38.1125 129.7019Q38.1125 129.90503 38.2375 130.06128Q38.378124 130.23315 38.64375 130.34253Q38.8 130.40503 39.58125 130.60815Q40.70625 130.92065 41.14375 131.10815Q41.58125 131.29565 41.83125 131.65503Q42.08125 132.0144 42.08125 132.56128Q42.08125 133.09253 41.76875 133.56128Q41.471874 134.0144 40.89375 134.28003Q40.315624 134.53003 39.58125 134.53003Q38.3625 134.53003 37.721874 134.03003Q37.096874 133.5144 36.925 132.53003ZM47.409374 133.62378Q46.815624 134.12378 46.26875 134.3269Q45.7375 134.53003 45.1125 134.53003Q44.08125 134.53003 43.534374 134.03003Q42.9875 133.53003 42.9875 132.74878Q42.9875 132.29565 43.190624 131.92065Q43.39375 131.53003 43.7375 131.31128Q44.08125 131.0769 44.503124 130.96753Q44.8 130.87378 45.440624 130.79565Q46.70625 130.65503 47.315624 130.43628Q47.315624 130.21753 47.315624 130.17065Q47.315624 129.5144 47.01875 129.24878Q46.6125 128.90503 45.815624 128.90503Q45.08125 128.90503 44.721874 129.17065Q44.3625 129.42065 44.190624 130.0769L43.159374 129.93628Q43.3 129.28003 43.628124 128.87378Q43.95625 128.46753 44.565624 128.24878Q45.175 128.03003 45.971874 128.03003Q46.76875 128.03003 47.26875 128.21753Q47.76875 128.40503 48.003124 128.68628Q48.2375 128.96753 48.33125 129.40503Q48.378124 129.67065 48.378124 130.37378L48.378124 131.78003Q48.378124 133.24878 48.440624 133.6394Q48.51875 134.03003 48.721874 134.3894L47.6125 134.3894Q47.45625 134.06128 47.409374 133.62378ZM47.315624 131.2644Q46.7375 131.49878 45.596874 131.67065Q44.940624 131.7644 44.675 131.8894Q44.409374 131.99878 44.253124 132.21753Q44.1125 132.43628 44.1125 132.71753Q44.1125 133.1394 44.425 133.42065Q44.753124 133.7019 45.3625 133.7019Q45.971874 133.7019 46.440624 133.43628Q46.925 133.17065 47.14375 132.7019Q47.315624 132.34253 47.315624 131.65503L47.315624 131.2644ZM52.64375 133.4519L52.8 134.37378Q52.346874 134.46753 52.003124 134.46753Q51.425 134.46753 51.1125 134.29565Q50.8 134.10815 50.659374 133.81128Q50.534374 133.5144 50.534374 132.56128L50.534374 128.98315L49.76875 128.98315L49.76875 128.17065L50.534374 128.17065L50.534374 126.62378L51.58125 125.99878L51.58125 128.17065L52.64375 128.17065L52.64375 128.98315L51.58125 128.98315L51.58125 132.62378Q51.58125 133.0769 51.628124 133.2019Q51.690624 133.3269 51.815624 133.40503Q51.940624 133.48315 52.175 133.48315Q52.3625 133.48315 52.64375 133.4519ZM53.346874 127.014404L53.346874 125.795654L54.409374 125.795654L54.409374 127.014404L53.346874 127.014404ZM53.346874 134.3894L53.346874 128.17065L54.409374 128.17065L54.409374 134.3894L53.346874 134.3894ZM55.925 132.53003L56.95625 132.37378Q57.05 132.99878 57.440624 133.3269Q57.846874 133.65503 58.58125 133.65503Q59.3 133.65503 59.64375 133.37378Q60.003124 133.0769 60.003124 132.67065Q60.003124 132.31128 59.690624 132.10815Q59.471874 131.96753 58.6125 131.74878Q57.45625 131.4519 57.003124 131.24878Q56.565624 131.03003 56.33125 130.65503Q56.096874 130.28003 56.096874 129.81128Q56.096874 129.40503 56.284374 129.04565Q56.471874 128.68628 56.8 128.4519Q57.05 128.28003 57.471874 128.15503Q57.89375 128.03003 58.39375 128.03003Q59.1125 128.03003 59.659374 128.24878Q60.221874 128.4519 60.4875 128.81128Q60.753124 129.17065 60.846874 129.7644L59.815624 129.90503Q59.753124 129.43628 59.409374 129.17065Q59.08125 128.8894 58.45625 128.8894Q57.7375 128.8894 57.425 129.1394Q57.1125 129.37378 57.1125 129.7019Q57.1125 129.90503 57.2375 130.06128Q57.378124 130.23315 57.64375 130.34253Q57.8 130.40503 58.58125 130.60815Q59.70625 130.92065 60.14375 131.10815Q60.58125 131.29565 60.83125 131.65503Q61.08125 132.0144 61.08125 132.56128Q61.08125 133.09253 60.76875 133.56128Q60.471874 134.0144 59.89375 134.28003Q59.315624 134.53003 58.58125 134.53003Q57.3625 134.53003 56.721874 134.03003Q56.096874 133.5144 55.925 132.53003ZM62.596874 134.3894L62.596874 128.98315L61.659374 128.98315L61.659374 128.17065L62.596874 128.17065L62.596874 127.49878Q62.596874 126.87378 62.70625 126.576904Q62.8625 126.15503 63.2375 125.90503Q63.628124 125.65503 64.31563 125.65503Q64.76875 125.65503 65.3 125.764404L65.14375 126.670654Q64.81563 126.62378 64.51875 126.62378Q64.03438 126.62378 63.83125 126.826904Q63.64375 127.03003 63.64375 127.59253L63.64375 128.17065L64.8625 128.17065L64.8625 128.98315L63.64375 128.98315L63.64375 134.3894L62.596874 134.3894ZM65.34688 127.014404L65.34688 125.795654L66.40938 125.795654L66.40938 127.014404L65.34688 127.014404ZM65.34688 134.3894L65.34688 128.17065L66.40938 128.17065L66.40938 134.3894L65.34688 134.3894ZM72.59688 132.3894L73.69063 132.5144Q73.44063 133.46753 72.7375 133.99878Q72.03438 134.53003 70.95625 134.53003Q69.59688 134.53003 68.78438 133.68628Q67.9875 132.84253 67.9875 131.3269Q67.9875 129.7644 68.8 128.90503Q69.6125 128.03003 70.89375 128.03003Q72.14375 128.03003 72.925 128.87378Q73.72188 129.71753 73.72188 131.2644Q73.72188 131.35815 73.72188 131.54565L69.08125 131.54565Q69.14375 132.5769 69.65938 133.12378Q70.175 133.65503 70.95625 133.65503Q71.53438 133.65503 71.94063 133.35815Q72.3625 133.04565 72.59688 132.3894ZM69.14375 130.68628L72.6125 130.68628Q72.55 129.8894 72.22188 129.49878Q71.70625 128.8894 70.90938 128.8894Q70.175 128.8894 69.675 129.37378Q69.19063 129.85815 69.14375 130.68628ZM79.37813 134.3894L79.37813 133.60815Q78.78438 134.53003 77.64375 134.53003Q76.89375 134.53003 76.26875 134.12378Q75.64375 133.7019 75.3 132.96753Q74.95625 132.23315 74.95625 131.28003Q74.95625 130.35815 75.26875 129.59253Q75.58125 128.8269 76.20625 128.43628Q76.83125 128.03003 77.59688 128.03003Q78.15938 128.03003 78.59688 128.2644Q79.03438 128.49878 79.31563 128.87378L79.31563 125.795654L80.3625 125.795654L80.3625 134.3894L79.37813 134.3894ZM76.05 131.28003Q76.05 132.48315 76.55 133.0769Q77.05 133.65503 77.7375 133.65503Q78.425 133.65503 78.90938 133.09253Q79.39375 132.53003 79.39375 131.37378Q79.39375 130.09253 78.89375 129.49878Q78.40938 128.90503 77.69063 128.90503Q76.9875 128.90503 76.51875 129.48315Q76.05 130.04565 76.05 131.28003Z" fill-rule="nonzero"></path>
  <path fill="#9e9e9e" d="M23.01875 151.3894L21.971874 151.3894L21.971874 144.67065Q21.58125 145.03003 20.95625 145.40503Q20.346874 145.7644 19.8625 145.93628L19.8625 144.92065Q20.7375 144.49878 21.39375 143.92065Q22.065624 143.3269 22.346874 142.7644L23.01875 142.7644L23.01875 151.3894ZM26.1125 143.92065L26.1125 142.90503L31.675 142.90503L31.675 143.73315Q30.8625 144.60815 30.05 146.06128Q29.253124 147.49878 28.815624 149.03003Q28.4875 150.10815 28.409374 151.3894L27.315624 151.3894Q27.33125 150.37378 27.70625 148.93628Q28.096874 147.49878 28.8 146.17065Q29.51875 144.84253 30.33125 143.92065L26.1125 143.92065ZM33.64375 151.3894L33.64375 150.18628L34.846874 150.18628L34.846874 151.3894L33.64375 151.3894ZM36.05 149.12378L37.1125 148.98315Q37.284374 149.87378 37.721874 150.28003Q38.159374 150.67065 38.784374 150.67065Q39.534374 150.67065 40.05 150.15503Q40.565624 149.6394 40.565624 148.87378Q40.565624 148.15503 40.08125 147.68628Q39.6125 147.2019 38.878124 147.2019Q38.58125 147.2019 38.128124 147.3269L38.253124 146.3894Q38.3625 146.40503 38.425 146.40503Q39.096874 146.40503 39.628124 146.06128Q40.175 145.7019 40.175 144.96753Q40.175 144.3894 39.784374 144.0144Q39.39375 143.62378 38.76875 143.62378Q38.159374 143.62378 37.7375 144.0144Q37.33125 144.40503 37.221874 145.17065L36.159374 144.98315Q36.346874 143.93628 37.034374 143.35815Q37.721874 142.7644 38.7375 142.7644Q39.440624 142.7644 40.034374 143.0769Q40.628124 143.37378 40.940624 143.8894Q41.253124 144.40503 41.253124 144.99878Q41.253124 145.54565 40.95625 146.0144Q40.659374 146.46753 40.08125 146.73315Q40.83125 146.90503 41.253124 147.46753Q41.675 148.0144 41.675 148.85815Q41.675 149.98315 40.846874 150.7644Q40.034374 151.54565 38.784374 151.54565Q37.659374 151.54565 36.909374 150.87378Q36.159374 150.18628 36.05 149.12378ZM43.253124 144.85815Q43.253124 143.93628 43.70625 143.29565Q44.175 142.65503 45.05 142.65503Q45.8625 142.65503 46.39375 143.23315Q46.925 143.81128 46.925 144.92065Q46.925 146.0144 46.378124 146.60815Q45.846874 147.18628 45.065624 147.18628Q44.284374 147.18628 43.76875 146.60815Q43.253124 146.03003 43.253124 144.85815ZM45.08125 143.37378Q44.690624 143.37378 44.425 143.71753Q44.175 144.06128 44.175 144.96753Q44.175 145.79565 44.425 146.1394Q44.690624 146.46753 45.08125 146.46753Q45.4875 146.46753 45.7375 146.12378Q46.003124 145.78003 46.003124 144.8894Q46.003124 144.04565 45.7375 143.71753Q45.471874 143.37378 45.08125 143.37378ZM45.08125 151.7019L49.784374 142.65503L50.64375 142.65503L45.95625 151.7019L45.08125 151.7019ZM48.8 149.37378Q48.8 148.4519 49.253124 147.81128Q49.721874 147.17065 50.6125 147.17065Q51.425 147.17065 51.95625 147.74878Q52.4875 148.31128 52.4875 149.43628Q52.4875 150.53003 51.940624 151.12378Q51.409374 151.7019 50.6125 151.7019Q49.846874 151.7019 49.315624 151.12378Q48.8 150.54565 48.8 149.37378ZM50.64375 147.8894Q50.2375 147.8894 49.971874 148.23315Q49.721874 148.5769 49.721874 149.48315Q49.721874 150.29565 49.9875 150.6394Q50.253124 150.98315 50.64375 150.98315Q51.034374 150.98315 51.3 150.6394Q51.565624 150.29565 51.565624 149.3894Q51.565624 148.56128 51.3 148.23315Q51.034374 147.8894 50.64375 147.8894Z" fill-rule="nonzero"></path>
  <path stroke="#757575" stroke-width="1.0" stroke-linecap="butt" d="M18.55 138.8894L145.23334 138.8894L174.39966 138.8894" fill-rule="nonzero"></path>
  <path fill="#9e9e9e" d="M176.39966 138.8894C176.39966 137.78484 175.50423 136.8894 174.39966 136.8894C173.29509 136.8894 172.39966 137.78484 172.39966 138.8894C172.39966 139.99397 173.29509 140.8894 174.39966 140.8894C175.50423 140.8894 176.39966 139.99397 176.39966 138.8894" fill-rule="nonzero"></path>
  <path fill="#1a1a1a" d="M19.471874 305.2079L19.471874 296.61414L20.628124 296.61414L25.14375 303.36414L25.14375 296.61414L26.2375 296.61414L26.2375 305.2079L25.065624 305.2079L20.55 298.4579L20.55 305.2079L19.471874 305.2079ZM32.596874 303.2079L33.690624 303.3329Q33.440624 304.286 32.7375 304.81726Q32.034374 305.3485 30.95625 305.3485Q29.596874 305.3485 28.784374 304.50476Q27.9875 303.661 27.9875 302.1454Q27.9875 300.5829 28.8 299.7235Q29.6125 298.8485 30.89375 298.8485Q32.14375 298.8485 32.925 299.69226Q33.721874 300.536 33.721874 302.0829Q33.721874 302.17664 33.721874 302.36414L29.08125 302.36414Q29.14375 303.3954 29.659374 303.94226Q30.175 304.4735 30.95625 304.4735Q31.534374 304.4735 31.940624 304.17664Q32.3625 303.86414 32.596874 303.2079ZM29.14375 301.50476L32.6125 301.50476Q32.55 300.7079 32.221874 300.31726Q31.70625 299.7079 30.909374 299.7079Q30.175 299.7079 29.675 300.19226Q29.190624 300.67664 29.14375 301.50476ZM35.346874 297.8329L35.346874 296.61414L36.409374 296.61414L36.409374 297.8329L35.346874 297.8329ZM35.346874 305.2079L35.346874 298.98914L36.409374 298.98914L36.409374 305.2079L35.346874 305.2079ZM40.64375 304.2704L40.8 305.19226Q40.346874 305.286 40.003124 305.286Q39.425 305.286 39.1125 305.11414Q38.8 304.92664 38.659374 304.62976Q38.534374 304.3329 38.534374 303.37976L38.534374 299.80164L37.76875 299.80164L37.76875 298.98914L38.534374 298.98914L38.534374 297.44226L39.58125 296.81726L39.58125 298.98914L40.64375 298.98914L40.64375 299.80164L39.58125 299.80164L39.58125 303.44226Q39.58125 303.8954 39.628124 304.0204Q39.690624 304.1454 39.815624 304.2235Q39.940624 304.30164 40.175 304.30164Q40.3625 304.30164 40.64375 304.2704ZM41.346874 305.2079L41.346874 296.61414L42.39375 296.61414L42.39375 299.69226Q43.128124 298.8485 44.253124 298.8485Q44.95625 298.8485 45.45625 299.12976Q45.971874 299.3954 46.190624 299.87976Q46.409374 300.3485 46.409374 301.2704L46.409374 305.2079L45.3625 305.2079L45.3625 301.2704Q45.3625 300.4735 45.01875 300.11414Q44.675 299.75476 44.05 299.75476Q43.58125 299.75476 43.159374 300.00476Q42.753124 300.23914 42.565624 300.661Q42.39375 301.06726 42.39375 301.80164L42.39375 305.2079L41.346874 305.2079ZM52.596874 303.2079L53.690624 303.3329Q53.440624 304.286 52.7375 304.81726Q52.034374 305.3485 50.95625 305.3485Q49.596874 305.3485 48.784374 304.50476Q47.9875 303.661 47.9875 302.1454Q47.9875 300.5829 48.8 299.7235Q49.6125 298.8485 50.89375 298.8485Q52.14375 298.8485 52.925 299.69226Q53.721874 300.536 53.721874 302.0829Q53.721874 302.17664 53.721874 302.36414L49.08125 302.36414Q49.14375 303.3954 49.659374 303.94226Q50.175 304.4735 50.95625 304.4735Q51.534374 304.4735 51.940624 304.17664Q52.3625 303.86414 52.596874 303.2079ZM49.14375 301.50476L52.6125 301.50476Q52.55 300.7079 52.221874 300.31726Q51.70625 299.7079 50.909374 299.7079Q50.175 299.7079 49.675 300.19226Q49.190624 300.67664 49.14375 301.50476ZM55.33125 305.2079L55.33125 298.98914L56.284374 298.98914L56.284374 299.92664Q56.64375 299.2704 56.940624 299.06726Q57.253124 298.8485 57.628124 298.8485Q58.159374 298.8485 58.70625 299.17664L58.346874 300.161Q57.95625 299.92664 57.58125 299.92664Q57.221874 299.92664 56.940624 300.1454Q56.675 300.3485 56.565624 300.7235Q56.378124 301.286 56.378124 301.94226L56.378124 305.2079L55.33125 305.2079ZM62.096874 302.44226L63.159374 302.3485Q63.2375 303.00476 63.51875 303.411Q63.8 303.81726 64.37813 304.0829Q64.97188 304.3329 65.70625 304.3329Q66.34688 304.3329 66.84688 304.1454Q67.34688 303.94226 67.58125 303.61414Q67.83125 303.2704 67.83125 302.87976Q67.83125 302.4735 67.59688 302.17664Q67.3625 301.86414 66.83125 301.661Q66.47188 301.5204 65.28438 301.23914Q64.1125 300.9579 63.64375 300.7079Q63.01875 300.37976 62.721874 299.911Q62.425 299.42664 62.425 298.8329Q62.425 298.19226 62.784374 297.62976Q63.159374 297.05164 63.8625 296.7704Q64.58125 296.4735 65.44063 296.4735Q66.39375 296.4735 67.12813 296.786Q67.8625 297.0829 68.25313 297.69226Q68.64375 298.286 68.675 299.036L67.58125 299.11414Q67.4875 298.30164 66.97188 297.8954Q66.47188 297.4735 65.4875 297.4735Q64.45625 297.4735 63.9875 297.8485Q63.51875 298.2235 63.51875 298.75476Q63.51875 299.2235 63.846874 299.5204Q64.175 299.81726 65.55 300.12976Q66.94063 300.44226 67.45625 300.67664Q68.20625 301.036 68.56563 301.56726Q68.925 302.0829 68.925 302.786Q68.925 303.4735 68.53438 304.0829Q68.14375 304.67664 67.40938 305.0204Q66.675 305.3485 65.75313 305.3485Q64.58125 305.3485 63.784374 305.0204Q63.003124 304.67664 62.55 303.98914Q62.1125 303.30164 62.096874 302.44226ZM74.40938 304.44226Q73.81563 304.94226 73.26875 305.1454Q72.7375 305.3485 72.1125 305.3485Q71.08125 305.3485 70.53438 304.8485Q69.9875 304.3485 69.9875 303.56726Q69.9875 303.11414 70.19063 302.73914Q70.39375 302.3485 70.7375 302.12976Q71.08125 301.8954 71.50313 301.786Q71.8 301.69226 72.44063 301.61414Q73.70625 301.4735 74.31563 301.25476Q74.31563 301.036 74.31563 300.98914Q74.31563 300.3329 74.01875 300.06726Q73.6125 299.7235 72.81563 299.7235Q72.08125 299.7235 71.72188 299.98914Q71.3625 300.23914 71.19063 300.8954L70.15938 300.75476Q70.3 300.0985 70.62813 299.69226Q70.95625 299.286 71.56563 299.06726Q72.175 298.8485 72.97188 298.8485Q73.76875 298.8485 74.26875 299.036Q74.76875 299.2235 75.00313 299.50476Q75.2375 299.786 75.33125 300.2235Q75.37813 300.48914 75.37813 301.19226L75.37813 302.5985Q75.37813 304.06726 75.44063 304.4579Q75.51875 304.8485 75.72188 305.2079L74.6125 305.2079Q74.45625 304.87976 74.40938 304.44226ZM74.31563 302.0829Q73.7375 302.31726 72.59688 302.48914Q71.94063 302.5829 71.675 302.7079Q71.40938 302.81726 71.25313 303.036Q71.1125 303.25476 71.1125 303.536Q71.1125 303.9579 71.425 304.23914Q71.75313 304.5204 72.3625 304.5204Q72.97188 304.5204 73.44063 304.25476Q73.925 303.98914 74.14375 303.5204Q74.31563 303.161 74.31563 302.4735L74.31563 302.0829ZM79.64375 304.2704L79.8 305.19226Q79.34688 305.286 79.00313 305.286Q78.425 305.286 78.1125 305.11414Q77.8 304.92664 77.65938 304.62976Q77.53438 304.3329 77.53438 303.37976L77.53438 299.80164L76.76875 299.80164L76.76875 298.98914L77.53438 298.98914L77.53438 297.44226L78.58125 296.81726L78.58125 298.98914L79.64375 298.98914L79.64375 299.80164L78.58125 299.80164L78.58125 303.44226Q78.58125 303.8954 78.62813 304.0204Q78.69063 304.1454 78.81563 304.2235Q78.94063 304.30164 79.175 304.30164Q79.3625 304.30164 79.64375 304.2704ZM80.34688 297.8329L80.34688 296.61414L81.40938 296.61414L81.40938 297.8329L80.34688 297.8329ZM80.34688 305.2079L80.34688 298.98914L81.40938 298.98914L81.40938 305.2079L80.34688 305.2079ZM82.925 303.3485L83.95625 303.19226Q84.05 303.81726 84.44063 304.1454Q84.84688 304.4735 85.58125 304.4735Q86.3 304.4735 86.64375 304.19226Q87.00313 303.8954 87.00313 303.48914Q87.00313 303.12976 86.69063 302.92664Q86.47188 302.786 85.6125 302.56726Q84.45625 302.2704 84.00313 302.06726Q83.56563 301.8485 83.33125 301.4735Q83.09688 301.0985 83.09688 300.62976Q83.09688 300.2235 83.28438 299.86414Q83.47188 299.50476 83.8 299.2704Q84.05 299.0985 84.47188 298.9735Q84.89375 298.8485 85.39375 298.8485Q86.1125 298.8485 86.65938 299.06726Q87.22188 299.2704 87.4875 299.62976Q87.75313 299.98914 87.84688 300.5829L86.81563 300.7235Q86.75313 300.25476 86.40938 299.98914Q86.08125 299.7079 85.45625 299.7079Q84.7375 299.7079 84.425 299.9579Q84.1125 300.19226 84.1125 300.5204Q84.1125 300.7235 84.2375 300.87976Q84.37813 301.05164 84.64375 301.161Q84.8 301.2235 85.58125 301.42664Q86.70625 301.73914 87.14375 301.92664Q87.58125 302.11414 87.83125 302.4735Q88.08125 302.8329 88.08125 303.37976Q88.08125 303.911 87.76875 304.37976Q87.47188 304.8329 86.89375 305.0985Q86.31563 305.3485 85.58125 305.3485Q84.3625 305.3485 83.72188 304.8485Q83.09688 304.3329 82.925 303.3485ZM89.59688 305.2079L89.59688 299.80164L88.65938 299.80164L88.65938 298.98914L89.59688 298.98914L89.59688 298.31726Q89.59688 297.69226 89.70625 297.3954Q89.8625 296.9735 90.2375 296.7235Q90.62813 296.4735 91.31563 296.4735Q91.76875 296.4735 92.3 296.5829L92.14375 297.48914Q91.81563 297.44226 91.51875 297.44226Q91.03438 297.44226 90.83125 297.6454Q90.64375 297.8485 90.64375 298.411L90.64375 298.98914L91.8625 298.98914L91.8625 299.80164L90.64375 299.80164L90.64375 305.2079L89.59688 305.2079ZM92.34688 297.8329L92.34688 296.61414L93.40938 296.61414L93.40938 297.8329L92.34688 297.8329ZM92.34688 305.2079L92.34688 298.98914L93.40938 298.98914L93.40938 305.2079L92.34688 305.2079ZM99.59688 303.2079L100.69063 303.3329Q100.44063 304.286 99.7375 304.81726Q99.03438 305.3485 97.95625 305.3485Q96.59688 305.3485 95.78438 304.50476Q94.9875 303.661 94.9875 302.1454Q94.9875 300.5829 95.8 299.7235Q96.6125 298.8485 97.89375 298.8485Q99.14375 298.8485 99.925 299.69226Q100.72188 300.536 100.72188 302.0829Q100.72188 302.17664 100.72188 302.36414L96.08125 302.36414Q96.14375 303.3954 96.65938 303.94226Q97.175 304.4735 97.95625 304.4735Q98.53438 304.4735 98.94063 304.17664Q99.3625 303.86414 99.59688 303.2079ZM96.14375 301.50476L99.6125 301.50476Q99.55 300.7079 99.22188 300.31726Q98.70625 299.7079 97.90938 299.7079Q97.175 299.7079 96.675 300.19226Q96.19063 300.67664 96.14375 301.50476ZM106.37813 305.2079L106.37813 304.42664Q105.78438 305.3485 104.64375 305.3485Q103.89375 305.3485 103.26875 304.94226Q102.64375 304.5204 102.3 303.786Q101.95625 303.05164 101.95625 302.0985Q101.95625 301.17664 102.26875 300.411Q102.58125 299.6454 103.20625 299.25476Q103.83125 298.8485 104.59688 298.8485Q105.15938 298.8485 105.59688 299.0829Q106.03438 299.31726 106.31563 299.69226L106.31563 296.61414L107.3625 296.61414L107.3625 305.2079L106.37813 305.2079ZM103.05 302.0985Q103.05 303.30164 103.55 303.8954Q104.05 304.4735 104.7375 304.4735Q105.425 304.4735 105.90938 303.911Q106.39375 303.3485 106.39375 302.19226Q106.39375 300.911 105.89375 300.31726Q105.40938 299.7235 104.69063 299.7235Q103.9875 299.7235 103.51875 300.30164Q103.05 300.86414 103.05 302.0985ZM112.34688 305.2079L112.34688 298.98914L113.28438 298.98914L113.28438 299.86414Q113.97188 298.8485 115.26875 298.8485Q115.83125 298.8485 116.3 299.05164Q116.78438 299.25476 117.01875 299.5829Q117.25313 299.911 117.34688 300.3485Q117.39375 300.6454 117.39375 301.37976L117.39375 305.2079L116.34688 305.2079L116.34688 301.42664Q116.34688 300.7704 116.22188 300.4579Q116.09688 300.1454 115.78438 299.9579Q115.47188 299.75476 115.05 299.75476Q114.37813 299.75476 113.87813 300.19226Q113.39375 300.61414 113.39375 301.80164L113.39375 305.2079L112.34688 305.2079ZM118.95625 302.0985Q118.95625 300.36414 119.90938 299.536Q120.70625 298.8485 121.8625 298.8485Q123.14375 298.8485 123.95625 299.69226Q124.78438 300.5204 124.78438 302.00476Q124.78438 303.2079 124.425 303.8954Q124.06563 304.5829 123.3625 304.9735Q122.675 305.3485 121.8625 305.3485Q120.56563 305.3485 119.75313 304.5204Q118.95625 303.67664 118.95625 302.0985ZM120.03438 302.0985Q120.03438 303.286 120.55 303.87976Q121.08125 304.4735 121.8625 304.4735Q122.65938 304.4735 123.175 303.87976Q123.69063 303.286 123.69063 302.06726Q123.69063 300.911 123.15938 300.31726Q122.64375 299.7235 121.8625 299.7235Q121.08125 299.7235 120.55 300.31726Q120.03438 300.8954 120.03438 302.0985ZM126.33125 305.2079L126.33125 298.98914L127.28438 298.98914L127.28438 299.92664Q127.64375 299.2704 127.94063 299.06726Q128.25313 298.8485 128.62813 298.8485Q129.15938 298.8485 129.70625 299.17664L129.34688 300.161Q128.95625 299.92664 128.58125 299.92664Q128.22188 299.92664 127.94063 300.1454Q127.675 300.3485 127.56563 300.7235Q127.37813 301.286 127.37813 301.94226L127.37813 305.2079L126.33125 305.2079Z" fill-rule="nonzero"></path>
  <path fill="#9e9e9e" d="M24.596874 321.19226L24.596874 322.2079L18.909374 322.2079Q18.909374 321.8329 19.034374 321.4735Q19.253124 320.8954 19.721874 320.3329Q20.20625 319.7704 21.1125 319.036Q22.51875 317.87976 23.003124 317.2079Q23.503124 316.536 23.503124 315.94226Q23.503124 315.31726 23.05 314.8954Q22.596874 314.4579 21.878124 314.4579Q21.1125 314.4579 20.659374 314.911Q20.20625 315.36414 20.190624 316.17664L19.1125 316.06726Q19.221874 314.8485 19.940624 314.2235Q20.675 313.5829 21.909374 313.5829Q23.14375 313.5829 23.8625 314.2704Q24.58125 314.9579 24.58125 315.9735Q24.58125 316.48914 24.3625 316.98914Q24.159374 317.4735 23.659374 318.036Q23.175 318.5829 22.05 319.536Q21.096874 320.3329 20.815624 320.62976Q20.55 320.911 20.378124 321.19226L24.596874 321.19226ZM29.425 322.2079L29.425 320.1454L25.70625 320.1454L25.70625 319.17664L29.628124 313.61414L30.4875 313.61414L30.4875 319.17664L31.64375 319.17664L31.64375 320.1454L30.4875 320.1454L30.4875 322.2079L29.425 322.2079ZM29.425 319.17664L29.425 315.31726L26.7375 319.17664L29.425 319.17664ZM33.64375 322.2079L33.64375 321.00476L34.846874 321.00476L34.846874 322.2079L33.64375 322.2079ZM36.20625 320.2235L37.221874 320.12976Q37.346874 320.8485 37.70625 321.17664Q38.08125 321.48914 38.64375 321.48914Q39.128124 321.48914 39.4875 321.2704Q39.8625 321.036 40.096874 320.67664Q40.33125 320.30164 40.4875 319.67664Q40.64375 319.036 40.64375 318.37976Q40.64375 318.30164 40.64375 318.161Q40.33125 318.661 39.784374 318.98914Q39.2375 319.30164 38.596874 319.30164Q37.51875 319.30164 36.784374 318.536Q36.05 317.75476 36.05 316.48914Q36.05 315.17664 36.815624 314.37976Q37.596874 313.5829 38.753124 313.5829Q39.58125 313.5829 40.26875 314.036Q40.971874 314.48914 41.33125 315.3329Q41.690624 316.161 41.690624 317.73914Q41.690624 319.37976 41.33125 320.36414Q40.9875 321.3329 40.26875 321.8485Q39.565624 322.3485 38.628124 322.3485Q37.6125 322.3485 36.971874 321.80164Q36.33125 321.23914 36.20625 320.2235ZM40.51875 316.42664Q40.51875 315.5204 40.034374 314.98914Q39.565624 314.4579 38.878124 314.4579Q38.175 314.4579 37.64375 315.036Q37.128124 315.5985 37.128124 316.5204Q37.128124 317.3329 37.628124 317.8485Q38.128124 318.36414 38.846874 318.36414Q39.58125 318.36414 40.05 317.8485Q40.51875 317.3329 40.51875 316.42664ZM43.253124 315.67664Q43.253124 314.75476 43.70625 314.11414Q44.175 313.4735 45.05 313.4735Q45.8625 313.4735 46.39375 314.05164Q46.925 314.62976 46.925 315.73914Q46.925 316.8329 46.378124 317.42664Q45.846874 318.00476 45.065624 318.00476Q44.284374 318.00476 43.76875 317.42664Q43.253124 316.8485 43.253124 315.67664ZM45.08125 314.19226Q44.690624 314.19226 44.425 314.536Q44.175 314.87976 44.175 315.786Q44.175 316.61414 44.425 316.9579Q44.690624 317.286 45.08125 317.286Q45.4875 317.286 45.7375 316.94226Q46.003124 316.5985 46.003124 315.7079Q46.003124 314.86414 45.7375 314.536Q45.471874 314.19226 45.08125 314.19226ZM45.08125 322.5204L49.784374 313.4735L50.64375 313.4735L45.95625 322.5204L45.08125 322.5204ZM48.8 320.19226Q48.8 319.2704 49.253124 318.62976Q49.721874 317.98914 50.6125 317.98914Q51.425 317.98914 51.95625 318.56726Q52.4875 319.12976 52.4875 320.25476Q52.4875 321.3485 51.940624 321.94226Q51.409374 322.5204 50.6125 322.5204Q49.846874 322.5204 49.315624 321.94226Q48.8 321.36414 48.8 320.19226ZM50.64375 318.7079Q50.2375 318.7079 49.971874 319.05164Q49.721874 319.3954 49.721874 320.30164Q49.721874 321.11414 49.9875 321.4579Q50.253124 321.80164 50.64375 321.80164Q51.034374 321.80164 51.3 321.4579Q51.565624 321.11414 51.565624 320.2079Q51.565624 319.37976 51.3 319.05164Q51.034374 318.7079 50.64375 318.7079Z" fill-rule="nonzero"></path>
  <path stroke="#757575" stroke-width="1.0" stroke-linecap="butt" d="M18.55 309.7079L145.23334 309.7079L206.55219 309.7079" fill-rule="nonzero"></path>
  <path fill="#9e9e9e" d="M208.55219 309.7079C208.55219 308.6033 207.65675 307.7079 206.55219 307.7079C205.44762 307.7079 204.55219 308.6033 204.55219 309.7079C204.55219 310.81244 205.44762 311.7079 206.55219 311.7079C207.65675 311.7079 208.55219 310.81244 208.55219 309.7079" fill-rule="nonzero"></path>
  <path fill="#1a1a1a" d="M509.825 65.916664L506.4969 57.322914L507.73126 57.322914L509.96564 63.572914Q510.23126 64.322914 510.41876 64.979164Q510.6219 64.27604 510.8875 63.572914L513.2 57.322914L514.35626 57.322914L510.9969 65.916664L509.825 65.916664ZM519.4969 63.916664L520.59064 64.041664Q520.34064 64.99479 519.6375 65.52604Q518.9344 66.05729 517.85626 66.05729Q516.4969 66.05729 515.6844 65.21354Q514.8875 64.36979 514.8875 62.854164Q514.8875 61.291664 515.7 60.43229Q516.5125 59.55729 517.79376 59.55729Q519.04376 59.55729 519.825 60.40104Q520.6219 61.24479 520.6219 62.791664Q520.6219 62.885414 520.6219 63.072914L515.98126 63.072914Q516.04376 64.104164 516.5594 64.65104Q517.075 65.18229 517.85626 65.18229Q518.4344 65.18229 518.84064 64.885414Q519.2625 64.572914 519.4969 63.916664ZM516.04376 62.21354L519.5125 62.21354Q519.45 61.416664 519.1219 61.02604Q518.60626 60.416664 517.8094 60.416664Q517.075 60.416664 516.575 60.90104Q516.09064 61.385414 516.04376 62.21354ZM522.23126 65.916664L522.23126 59.697914L523.1844 59.697914L523.1844 60.635414Q523.54376 59.979164 523.84064 59.77604Q524.15314 59.55729 524.52814 59.55729Q525.0594 59.55729 525.60626 59.885414L525.2469 60.86979Q524.85626 60.635414 524.48126 60.635414Q524.1219 60.635414 523.84064 60.854164Q523.575 61.05729 523.46564 61.43229Q523.27814 61.99479 523.27814 62.65104L523.27814 65.916664L522.23126 65.916664ZM526.2 68.30729L526.075 67.322914Q526.41876 67.416664 526.6844 67.416664Q527.02814 67.416664 527.23126 67.291664Q527.45 67.18229 527.59064 66.979164Q527.6844 66.80729 527.91876 66.18229Q527.9344 66.104164 528.0125 65.93229L525.6375 59.697914L526.77814 59.697914L528.075 63.291664Q528.325 63.979164 528.52814 64.74479Q528.71564 64.010414 528.96564 63.322914L530.29376 59.697914L531.34064 59.697914L528.98126 66.02604Q528.59064 67.041664 528.3875 67.43229Q528.10626 67.96354 527.73126 68.197914Q527.3719 68.447914 526.8719 68.447914Q526.575 68.447914 526.2 68.30729ZM534.9969 63.15104L536.0594 63.05729Q536.1375 63.71354 536.41876 64.11979Q536.7 64.52604 537.27814 64.791664Q537.8719 65.041664 538.60626 65.041664Q539.2469 65.041664 539.7469 64.854164Q540.2469 64.65104 540.48126 64.322914Q540.73126 63.979164 540.73126 63.58854Q540.73126 63.18229 540.4969 62.885414Q540.2625 62.572914 539.73126 62.36979Q539.3719 62.229164 538.1844 61.947914Q537.0125 61.666664 536.54376 61.416664Q535.91876 61.08854 535.6219 60.61979Q535.325 60.135414 535.325 59.541664Q535.325 58.90104 535.6844 58.33854Q536.0594 57.760414 536.7625 57.479164Q537.48126 57.18229 538.34064 57.18229Q539.29376 57.18229 540.02814 57.49479Q540.7625 57.791664 541.15314 58.40104Q541.54376 58.99479 541.575 59.74479L540.48126 59.822914Q540.3875 59.010414 539.8719 58.604164Q539.3719 58.18229 538.3875 58.18229Q537.35626 58.18229 536.8875 58.55729Q536.41876 58.93229 536.41876 59.46354Q536.41876 59.93229 536.7469 60.229164Q537.075 60.52604 538.45 60.83854Q539.84064 61.15104 540.35626 61.385414Q541.10626 61.74479 541.46564 62.27604Q541.825 62.791664 541.825 63.49479Q541.825 64.18229 541.4344 64.791664Q541.04376 65.385414 540.3094 65.729164Q539.575 66.05729 538.65314 66.05729Q537.48126 66.05729 536.6844 65.729164Q535.90314 65.385414 535.45 64.697914Q535.0125 64.010414 534.9969 63.15104ZM547.3094 65.15104Q546.71564 65.65104 546.16876 65.854164Q545.6375 66.05729 545.0125 66.05729Q543.98126 66.05729 543.4344 65.55729Q542.8875 65.05729 542.8875 64.27604Q542.8875 63.822914 543.09064 63.447914Q543.29376 63.05729 543.6375 62.83854Q543.98126 62.604164 544.40314 62.49479Q544.7 62.40104 545.34064 62.322914Q546.60626 62.18229 547.21564 61.96354Q547.21564 61.74479 547.21564 61.697914Q547.21564 61.041664 546.91876 60.77604Q546.5125 60.43229 545.71564 60.43229Q544.98126 60.43229 544.6219 60.697914Q544.2625 60.947914 544.09064 61.604164L543.0594 61.46354Q543.2 60.80729 543.52814 60.40104Q543.85626 59.99479 544.46564 59.77604Q545.075 59.55729 545.8719 59.55729Q546.66876 59.55729 547.16876 59.74479Q547.66876 59.93229 547.90314 60.21354Q548.1375 60.49479 548.23126 60.93229Q548.27814 61.197914 548.27814 61.90104L548.27814 63.30729Q548.27814 64.77604 548.34064 65.166664Q548.41876 65.55729 548.6219 65.916664L547.5125 65.916664Q547.35626 65.58854 547.3094 65.15104ZM547.21564 62.791664Q546.6375 63.02604 545.4969 63.197914Q544.84064 63.291664 544.575 63.416664Q544.3094 63.52604 544.15314 63.74479Q544.0125 63.96354 544.0125 64.24479Q544.0125 64.666664 544.325 64.947914Q544.65314 65.229164 545.2625 65.229164Q545.8719 65.229164 546.34064 64.96354Q546.825 64.697914 547.04376 64.229164Q547.21564 63.86979 547.21564 63.18229L547.21564 62.791664ZM552.54376 64.979164L552.7 65.90104Q552.2469 65.99479 551.90314 65.99479Q551.325 65.99479 551.0125 65.822914Q550.7 65.635414 550.5594 65.33854Q550.4344 65.041664 550.4344 64.08854L550.4344 60.510414L549.66876 60.510414L549.66876 59.697914L550.4344 59.697914L550.4344 58.15104L551.48126 57.52604L551.48126 59.697914L552.54376 59.697914L552.54376 60.510414L551.48126 60.510414L551.48126 64.15104Q551.48126 64.604164 551.52814 64.729164Q551.59064 64.854164 551.71564 64.93229Q551.84064 65.010414 552.075 65.010414Q552.2625 65.010414 552.54376 64.979164ZM553.2469 58.541664L553.2469 57.322914L554.3094 57.322914L554.3094 58.541664L553.2469 58.541664ZM553.2469 65.916664L553.2469 59.697914L554.3094 59.697914L554.3094 65.916664L553.2469 65.916664ZM555.825 64.05729L556.85626 63.90104Q556.95 64.52604 557.34064 64.854164Q557.7469 65.18229 558.48126 65.18229Q559.2 65.18229 559.54376 64.90104Q559.90314 64.604164 559.90314 64.197914Q559.90314 63.83854 559.59064 63.635414Q559.3719 63.49479 558.5125 63.27604Q557.35626 62.979164 556.90314 62.77604Q556.46564 62.55729 556.23126 62.18229Q555.9969 61.80729 555.9969 61.33854Q555.9969 60.93229 556.1844 60.572914Q556.3719 60.21354 556.7 59.979164Q556.95 59.80729 557.3719 59.68229Q557.79376 59.55729 558.29376 59.55729Q559.0125 59.55729 559.5594 59.77604Q560.1219 59.979164 560.3875 60.33854Q560.65314 60.697914 560.7469 61.291664L559.71564 61.43229Q559.65314 60.96354 559.3094 60.697914Q558.98126 60.416664 558.35626 60.416664Q557.6375 60.416664 557.325 60.666664Q557.0125 60.90104 557.0125 61.229164Q557.0125 61.43229 557.1375 61.58854Q557.27814 61.760414 557.54376 61.86979Q557.7 61.93229 558.48126 62.135414Q559.60626 62.447914 560.04376 62.635414Q560.48126 62.822914 560.73126 63.18229Q560.98126 63.541664 560.98126 64.08854Q560.98126 64.61979 560.66876 65.08854Q560.3719 65.541664 559.79376 65.80729Q559.21564 66.05729 558.48126 66.05729Q557.2625 66.05729 556.6219 65.55729Q555.9969 65.041664 555.825 64.05729ZM562.4969 65.916664L562.4969 60.510414L561.5594 60.510414L561.5594 59.697914L562.4969 59.697914L562.4969 59.02604Q562.4969 58.40104 562.60626 58.104164Q562.7625 57.68229 563.1375 57.43229Q563.52814 57.18229 564.21564 57.18229Q564.66876 57.18229 565.2 57.291664L565.04376 58.197914Q564.71564 58.15104 564.41876 58.15104Q563.9344 58.15104 563.73126 58.354164Q563.54376 58.55729 563.54376 59.11979L563.54376 59.697914L564.7625 59.697914L564.7625 60.510414L563.54376 60.510414L563.54376 65.916664L562.4969 65.916664ZM565.2469 58.541664L565.2469 57.322914L566.3094 57.322914L566.3094 58.541664L565.2469 58.541664ZM565.2469 65.916664L565.2469 59.697914L566.3094 59.697914L566.3094 65.916664L565.2469 65.916664ZM572.4969 63.916664L573.59064 64.041664Q573.34064 64.99479 572.6375 65.52604Q571.9344 66.05729 570.85626 66.05729Q569.4969 66.05729 568.6844 65.21354Q567.8875 64.36979 567.8875 62.854164Q567.8875 61.291664 568.7 60.43229Q569.5125 59.55729 570.79376 59.55729Q572.04376 59.55729 572.825 60.40104Q573.6219 61.24479 573.6219 62.791664Q573.6219 62.885414 573.6219 63.072914L568.98126 63.072914Q569.04376 64.104164 569.5594 64.65104Q570.075 65.18229 570.85626 65.18229Q571.4344 65.18229 571.84064 64.885414Q572.2625 64.572914 572.4969 63.916664ZM569.04376 62.21354L572.5125 62.21354Q572.45 61.416664 572.1219 61.02604Q571.60626 60.416664 570.8094 60.416664Q570.075 60.416664 569.575 60.90104Q569.09064 61.385414 569.04376 62.21354ZM579.27814 65.916664L579.27814 65.135414Q578.6844 66.05729 577.54376 66.05729Q576.79376 66.05729 576.16876 65.65104Q575.54376 65.229164 575.2 64.49479Q574.85626 63.760414 574.85626 62.80729Q574.85626 61.885414 575.16876 61.11979Q575.48126 60.354164 576.10626 59.96354Q576.73126 59.55729 577.4969 59.55729Q578.0594 59.55729 578.4969 59.791664Q578.9344 60.02604 579.21564 60.40104L579.21564 57.322914L580.2625 57.322914L580.2625 65.916664L579.27814 65.916664ZM575.95 62.80729Q575.95 64.010414 576.45 64.604164Q576.95 65.18229 577.6375 65.18229Q578.325 65.18229 578.8094 64.61979Q579.29376 64.05729 579.29376 62.90104Q579.29376 61.61979 578.79376 61.02604Q578.3094 60.43229 577.59064 60.43229Q576.8875 60.43229 576.41876 61.010414Q575.95 61.572914 575.95 62.80729Z" fill-rule="nonzero"></path>
  <path fill="#9e9e9e" d="M550.91876 82.916664L549.8719 82.916664L549.8719 76.197914Q549.48126 76.55729 548.85626 76.93229Q548.2469 77.291664 547.7625 77.46354L547.7625 76.447914Q548.6375 76.02604 549.29376 75.447914Q549.96564 74.854164 550.2469 74.291664L550.91876 74.291664L550.91876 82.916664ZM553.95 78.68229Q553.95 77.15104 554.2625 76.229164Q554.575 75.291664 555.1844 74.791664Q555.8094 74.291664 556.7469 74.291664Q557.4344 74.291664 557.95 74.572914Q558.48126 74.854164 558.825 75.385414Q559.16876 75.90104 559.35626 76.65104Q559.54376 77.40104 559.54376 78.68229Q559.54376 80.197914 559.23126 81.11979Q558.9344 82.041664 558.3094 82.55729Q557.7 83.05729 556.7469 83.05729Q555.5125 83.05729 554.79376 82.166664Q553.95 81.104164 553.95 78.68229ZM555.02814 78.68229Q555.02814 80.791664 555.52814 81.49479Q556.02814 82.197914 556.7469 82.197914Q557.48126 82.197914 557.96564 81.49479Q558.46564 80.791664 558.46564 78.68229Q558.46564 76.55729 557.96564 75.86979Q557.48126 75.166664 556.73126 75.166664Q556.0125 75.166664 555.575 75.77604Q555.02814 76.55729 555.02814 78.68229ZM561.54376 82.916664L561.54376 81.71354L562.7469 81.71354L562.7469 82.916664L561.54376 82.916664ZM563.95 80.666664L565.0594 80.572914Q565.1844 81.385414 565.6219 81.791664Q566.075 82.197914 566.71564 82.197914Q567.46564 82.197914 567.9969 81.61979Q568.52814 81.041664 568.52814 80.104164Q568.52814 79.197914 568.0125 78.68229Q567.5125 78.15104 566.6844 78.15104Q566.1844 78.15104 565.7625 78.385414Q565.35626 78.61979 565.1219 78.979164L564.1375 78.854164L564.96564 74.447914L569.2469 74.447914L569.2469 75.447914L565.8094 75.447914L565.35626 77.760414Q566.1219 77.21354 566.96564 77.21354Q568.09064 77.21354 568.85626 77.99479Q569.6375 78.77604 569.6375 80.010414Q569.6375 81.166664 568.96564 82.02604Q568.1375 83.05729 566.71564 83.05729Q565.54376 83.05729 564.79376 82.40104Q564.0594 81.74479 563.95 80.666664ZM571.15314 76.385414Q571.15314 75.46354 571.60626 74.822914Q572.075 74.18229 572.95 74.18229Q573.7625 74.18229 574.29376 74.760414Q574.825 75.33854 574.825 76.447914Q574.825 77.541664 574.27814 78.135414Q573.7469 78.71354 572.96564 78.71354Q572.1844 78.71354 571.66876 78.135414Q571.15314 77.55729 571.15314 76.385414ZM572.98126 74.90104Q572.59064 74.90104 572.325 75.24479Q572.075 75.58854 572.075 76.49479Q572.075 77.322914 572.325 77.666664Q572.59064 77.99479 572.98126 77.99479Q573.3875 77.99479 573.6375 77.65104Q573.90314 77.30729 573.90314 76.416664Q573.90314 75.572914 573.6375 75.24479Q573.3719 74.90104 572.98126 74.90104ZM572.98126 83.229164L577.6844 74.18229L578.54376 74.18229L573.85626 83.229164L572.98126 83.229164ZM576.7 80.90104Q576.7 79.979164 577.15314 79.33854Q577.6219 78.697914 578.5125 78.697914Q579.325 78.697914 579.85626 79.27604Q580.3875 79.83854 580.3875 80.96354Q580.3875 82.05729 579.84064 82.65104Q579.3094 83.229164 578.5125 83.229164Q577.7469 83.229164 577.21564 82.65104Q576.7 82.072914 576.7 80.90104ZM578.54376 79.416664Q578.1375 79.416664 577.8719 79.760414Q577.6219 80.104164 577.6219 81.010414Q577.6219 81.822914 577.8875 82.166664Q578.15314 82.510414 578.54376 82.510414Q578.9344 82.510414 579.2 82.166664Q579.46564 81.822914 579.46564 80.916664Q579.46564 80.08854 579.2 79.760414Q578.9344 79.416664 578.54376 79.416664Z" fill-rule="nonzero"></path>
  <path stroke="#757575" stroke-width="1.0" stroke-linecap="butt" d="M581.45 70.416664L454.76666 70.416664L345.60474 69.91523" fill-rule="nonzero"></path>
  <path fill="#9e9e9e" d="M347.60474 69.91523C347.60474 68.81066 346.70932 67.91523 345.60474 67.91523C344.50018 67.91523 343.60474 68.81066 343.60474 69.91523C343.60474 71.0198 344.50018 71.91523 345.60474 71.91523C346.70932 71.91523 347.60474 71.0198 347.60474 69.91523" fill-rule="nonzero"></path>
  <path fill="#1a1a1a" d="M534.9969 238.05164L536.0594 237.95789Q536.1375 238.61414 536.41876 239.02039Q536.7 239.42664 537.27814 239.69226Q537.8719 239.94226 538.60626 239.94226Q539.2469 239.94226 539.7469 239.75476Q540.2469 239.55164 540.48126 239.22351Q540.73126 238.87976 540.73126 238.48914Q540.73126 238.08289 540.4969 237.78601Q540.2625 237.47351 539.73126 237.27039Q539.3719 237.12976 538.1844 236.84851Q537.0125 236.56726 536.54376 236.31726Q535.91876 235.98914 535.6219 235.52039Q535.325 235.03601 535.325 234.44226Q535.325 233.80164 535.6844 233.23914Q536.0594 232.66101 536.7625 232.37976Q537.48126 232.08289 538.34064 232.08289Q539.29376 232.08289 540.02814 232.39539Q540.7625 232.69226 541.15314 233.30164Q541.54376 233.89539 541.575 234.64539L540.48126 234.72351Q540.3875 233.91101 539.8719 233.50476Q539.3719 233.08289 538.3875 233.08289Q537.35626 233.08289 536.8875 233.45789Q536.41876 233.83289 536.41876 234.36414Q536.41876 234.83289 536.7469 235.12976Q537.075 235.42664 538.45 235.73914Q539.84064 236.05164 540.35626 236.28601Q541.10626 236.64539 541.46564 237.17664Q541.825 237.69226 541.825 238.39539Q541.825 239.08289 541.4344 239.69226Q541.04376 240.28601 540.3094 240.62976Q539.575 240.95789 538.65314 240.95789Q537.48126 240.95789 536.6844 240.62976Q535.90314 240.28601 535.45 239.59851Q535.0125 238.91101 534.9969 238.05164ZM547.3094 240.05164Q546.71564 240.55164 546.16876 240.75476Q545.6375 240.95789 545.0125 240.95789Q543.98126 240.95789 543.4344 240.45789Q542.8875 239.95789 542.8875 239.17664Q542.8875 238.72351 543.09064 238.34851Q543.29376 237.95789 543.6375 237.73914Q543.98126 237.50476 544.40314 237.39539Q544.7 237.30164 545.34064 237.22351Q546.60626 237.08289 547.21564 236.86414Q547.21564 236.64539 547.21564 236.59851Q547.21564 235.94226 546.91876 235.67664Q546.5125 235.33289 545.71564 235.33289Q544.98126 235.33289 544.6219 235.59851Q544.2625 235.84851 544.09064 236.50476L543.0594 236.36414Q543.2 235.70789 543.52814 235.30164Q543.85626 234.89539 544.46564 234.67664Q545.075 234.45789 545.8719 234.45789Q546.66876 234.45789 547.16876 234.64539Q547.66876 234.83289 547.90314 235.11414Q548.1375 235.39539 548.23126 235.83289Q548.27814 236.09851 548.27814 236.80164L548.27814 238.20789Q548.27814 239.67664 548.34064 240.06726Q548.41876 240.45789 548.6219 240.81726L547.5125 240.81726Q547.35626 240.48914 547.3094 240.05164ZM547.21564 237.69226Q546.6375 237.92664 545.4969 238.09851Q544.84064 238.19226 544.575 238.31726Q544.3094 238.42664 544.15314 238.64539Q544.0125 238.86414 544.0125 239.14539Q544.0125 239.56726 544.325 239.84851Q544.65314 240.12976 545.2625 240.12976Q545.8719 240.12976 546.34064 239.86414Q546.825 239.59851 547.04376 239.12976Q547.21564 238.77039 547.21564 238.08289L547.21564 237.69226ZM552.54376 239.87976L552.7 240.80164Q552.2469 240.89539 551.90314 240.89539Q551.325 240.89539 551.0125 240.72351Q550.7 240.53601 550.5594 240.23914Q550.4344 239.94226 550.4344 238.98914L550.4344 235.41101L549.66876 235.41101L549.66876 234.59851L550.4344 234.59851L550.4344 233.05164L551.48126 232.42664L551.48126 234.59851L552.54376 234.59851L552.54376 235.41101L551.48126 235.41101L551.48126 239.05164Q551.48126 239.50476 551.52814 239.62976Q551.59064 239.75476 551.71564 239.83289Q551.84064 239.91101 552.075 239.91101Q552.2625 239.91101 552.54376 239.87976ZM553.2469 233.44226L553.2469 232.22351L554.3094 232.22351L554.3094 233.44226L553.2469 233.44226ZM553.2469 240.81726L553.2469 234.59851L554.3094 234.59851L554.3094 240.81726L553.2469 240.81726ZM555.825 238.95789L556.85626 238.80164Q556.95 239.42664 557.34064 239.75476Q557.7469 240.08289 558.48126 240.08289Q559.2 240.08289 559.54376 239.80164Q559.90314 239.50476 559.90314 239.09851Q559.90314 238.73914 559.59064 238.53601Q559.3719 238.39539 558.5125 238.17664Q557.35626 237.87976 556.90314 237.67664Q556.46564 237.45789 556.23126 237.08289Q555.9969 236.70789 555.9969 236.23914Q555.9969 235.83289 556.1844 235.47351Q556.3719 235.11414 556.7 234.87976Q556.95 234.70789 557.3719 234.58289Q557.79376 234.45789 558.29376 234.45789Q559.0125 234.45789 559.5594 234.67664Q560.1219 234.87976 560.3875 235.23914Q560.65314 235.59851 560.7469 236.19226L559.71564 236.33289Q559.65314 235.86414 559.3094 235.59851Q558.98126 235.31726 558.35626 235.31726Q557.6375 235.31726 557.325 235.56726Q557.0125 235.80164 557.0125 236.12976Q557.0125 236.33289 557.1375 236.48914Q557.27814 236.66101 557.54376 236.77039Q557.7 236.83289 558.48126 237.03601Q559.60626 237.34851 560.04376 237.53601Q560.48126 237.72351 560.73126 238.08289Q560.98126 238.44226 560.98126 238.98914Q560.98126 239.52039 560.66876 239.98914Q560.3719 240.44226 559.79376 240.70789Q559.21564 240.95789 558.48126 240.95789Q557.2625 240.95789 556.6219 240.45789Q555.9969 239.94226 555.825 238.95789ZM562.4969 240.81726L562.4969 235.41101L561.5594 235.41101L561.5594 234.59851L562.4969 234.59851L562.4969 233.92664Q562.4969 233.30164 562.60626 233.00476Q562.7625 232.58289 563.1375 232.33289Q563.52814 232.08289 564.21564 232.08289Q564.66876 232.08289 565.2 232.19226L565.04376 233.09851Q564.71564 233.05164 564.41876 233.05164Q563.9344 233.05164 563.73126 233.25476Q563.54376 233.45789 563.54376 234.02039L563.54376 234.59851L564.7625 234.59851L564.7625 235.41101L563.54376 235.41101L563.54376 240.81726L562.4969 240.81726ZM565.2469 233.44226L565.2469 232.22351L566.3094 232.22351L566.3094 233.44226L565.2469 233.44226ZM565.2469 240.81726L565.2469 234.59851L566.3094 234.59851L566.3094 240.81726L565.2469 240.81726ZM572.4969 238.81726L573.59064 238.94226Q573.34064 239.89539 572.6375 240.42664Q571.9344 240.95789 570.85626 240.95789Q569.4969 240.95789 568.6844 240.11414Q567.8875 239.27039 567.8875 237.75476Q567.8875 236.19226 568.7 235.33289Q569.5125 234.45789 570.79376 234.45789Q572.04376 234.45789 572.825 235.30164Q573.6219 236.14539 573.6219 237.69226Q573.6219 237.78601 573.6219 237.97351L568.98126 237.97351Q569.04376 239.00476 569.5594 239.55164Q570.075 240.08289 570.85626 240.08289Q571.4344 240.08289 571.84064 239.78601Q572.2625 239.47351 572.4969 238.81726ZM569.04376 237.11414L572.5125 237.11414Q572.45 236.31726 572.1219 235.92664Q571.60626 235.31726 570.8094 235.31726Q570.075 235.31726 569.575 235.80164Q569.09064 236.28601 569.04376 237.11414ZM579.27814 240.81726L579.27814 240.03601Q578.6844 240.95789 577.54376 240.95789Q576.79376 240.95789 576.16876 240.55164Q575.54376 240.12976 575.2 239.39539Q574.85626 238.66101 574.85626 237.70789Q574.85626 236.78601 575.16876 236.02039Q575.48126 235.25476 576.10626 234.86414Q576.73126 234.45789 577.4969 234.45789Q578.0594 234.45789 578.4969 234.69226Q578.9344 234.92664 579.21564 235.30164L579.21564 232.22351L580.2625 232.22351L580.2625 240.81726L579.27814 240.81726ZM575.95 237.70789Q575.95 238.91101 576.45 239.50476Q576.95 240.08289 577.6375 240.08289Q578.325 240.08289 578.8094 239.52039Q579.29376 238.95789 579.29376 237.80164Q579.29376 236.52039 578.79376 235.92664Q578.3094 235.33289 577.59064 235.33289Q576.8875 235.33289 576.41876 235.91101Q575.95 236.47351 575.95 237.70789Z" fill-rule="nonzero"></path>
  <path fill="#9e9e9e" d="M546.95 255.55164L548.0125 255.41101Q548.1844 256.30164 548.6219 256.7079Q549.0594 257.0985 549.6844 257.0985Q550.4344 257.0985 550.95 256.5829Q551.46564 256.06726 551.46564 255.30164Q551.46564 254.58289 550.98126 254.11414Q550.5125 253.62976 549.77814 253.62976Q549.48126 253.62976 549.02814 253.75476L549.15314 252.81726Q549.2625 252.83289 549.325 252.83289Q549.9969 252.83289 550.52814 252.48914Q551.075 252.12976 551.075 251.39539Q551.075 250.81726 550.6844 250.44226Q550.29376 250.05164 549.66876 250.05164Q549.0594 250.05164 548.6375 250.44226Q548.23126 250.83289 548.1219 251.59851L547.0594 251.41101Q547.2469 250.36414 547.9344 249.78601Q548.6219 249.19226 549.6375 249.19226Q550.34064 249.19226 550.9344 249.50476Q551.52814 249.80164 551.84064 250.31726Q552.15314 250.83289 552.15314 251.42664Q552.15314 251.97351 551.85626 252.44226Q551.5594 252.89539 550.98126 253.16101Q551.73126 253.33289 552.15314 253.89539Q552.575 254.44226 552.575 255.28601Q552.575 256.411 551.7469 257.19226Q550.9344 257.9735 549.6844 257.9735Q548.5594 257.9735 547.8094 257.30164Q547.0594 256.61414 546.95 255.55164ZM555.575 253.16101Q554.91876 252.91101 554.59064 252.47351Q554.27814 252.02039 554.27814 251.41101Q554.27814 250.47351 554.95 249.83289Q555.6375 249.19226 556.7469 249.19226Q557.8719 249.19226 558.5594 249.84851Q559.2469 250.50476 559.2469 251.44226Q559.2469 252.03601 558.9344 252.47351Q558.6219 252.91101 557.98126 253.16101Q558.77814 253.41101 559.1844 253.98914Q559.59064 254.56726 559.59064 255.36414Q559.59064 256.4579 558.8094 257.2079Q558.04376 257.9579 556.7625 257.9579Q555.4969 257.9579 554.71564 257.2079Q553.9344 256.4579 553.9344 255.33289Q553.9344 254.48914 554.35626 253.92664Q554.79376 253.36414 555.575 253.16101ZM555.35626 251.36414Q555.35626 251.97351 555.7469 252.36414Q556.15314 252.75476 556.77814 252.75476Q557.3875 252.75476 557.77814 252.37976Q558.16876 251.98914 558.16876 251.42664Q558.16876 250.84851 557.7625 250.45789Q557.35626 250.05164 556.7625 250.05164Q556.15314 250.05164 555.7469 250.44226Q555.35626 250.83289 555.35626 251.36414ZM555.02814 255.33289Q555.02814 255.78601 555.23126 256.2079Q555.45 256.62976 555.8719 256.86414Q556.29376 257.0985 556.77814 257.0985Q557.52814 257.0985 558.0125 256.61414Q558.5125 256.12976 558.5125 255.37976Q558.5125 254.61414 558.0125 254.11414Q557.5125 253.61414 556.7469 253.61414Q555.9969 253.61414 555.5125 254.11414Q555.02814 254.59851 555.02814 255.33289ZM561.54376 257.81726L561.54376 256.61414L562.7469 256.61414L562.7469 257.81726L561.54376 257.81726ZM569.41876 251.33289L568.3719 251.41101Q568.23126 250.78601 567.98126 250.50476Q567.54376 250.05164 566.91876 250.05164Q566.41876 250.05164 566.02814 250.33289Q565.54376 250.70789 565.2469 251.41101Q564.96564 252.09851 564.95 253.37976Q565.325 252.80164 565.8719 252.52039Q566.4344 252.23914 567.04376 252.23914Q568.09064 252.23914 568.825 253.02039Q569.575 253.80164 569.575 255.02039Q569.575 255.83289 569.21564 256.536Q568.8719 257.2235 568.2625 257.5985Q567.65314 257.9579 566.8875 257.9579Q565.5594 257.9579 564.73126 256.98914Q563.90314 256.0204 563.90314 253.80164Q563.90314 251.30164 564.825 250.17664Q565.6219 249.19226 566.98126 249.19226Q567.9969 249.19226 568.6375 249.77039Q569.29376 250.33289 569.41876 251.33289ZM565.1219 255.03601Q565.1219 255.58289 565.34064 256.0829Q565.575 256.56726 565.98126 256.8329Q566.40314 257.0985 566.8719 257.0985Q567.52814 257.0985 568.0125 256.56726Q568.4969 256.0204 568.4969 255.09851Q568.4969 254.20789 568.0125 253.69226Q567.54376 253.17664 566.825 253.17664Q566.10626 253.17664 565.60626 253.69226Q565.1219 254.20789 565.1219 255.03601ZM571.15314 251.28601Q571.15314 250.36414 571.60626 249.72351Q572.075 249.08289 572.95 249.08289Q573.7625 249.08289 574.29376 249.66101Q574.825 250.23914 574.825 251.34851Q574.825 252.44226 574.27814 253.03601Q573.7469 253.61414 572.96564 253.61414Q572.1844 253.61414 571.66876 253.03601Q571.15314 252.45789 571.15314 251.28601ZM572.98126 249.80164Q572.59064 249.80164 572.325 250.14539Q572.075 250.48914 572.075 251.39539Q572.075 252.22351 572.325 252.56726Q572.59064 252.89539 572.98126 252.89539Q573.3875 252.89539 573.6375 252.55164Q573.90314 252.20789 573.90314 251.31726Q573.90314 250.47351 573.6375 250.14539Q573.3719 249.80164 572.98126 249.80164ZM572.98126 258.12976L577.6844 249.08289L578.54376 249.08289L573.85626 258.12976L572.98126 258.12976ZM576.7 255.80164Q576.7 254.87976 577.15314 254.23914Q577.6219 253.59851 578.5125 253.59851Q579.325 253.59851 579.85626 254.17664Q580.3875 254.73914 580.3875 255.86414Q580.3875 256.9579 579.84064 257.55164Q579.3094 258.12976 578.5125 258.12976Q577.7469 258.12976 577.21564 257.55164Q576.7 256.9735 576.7 255.80164ZM578.54376 254.31726Q578.1375 254.31726 577.8719 254.66101Q577.6219 255.00476 577.6219 255.91101Q577.6219 256.7235 577.8875 257.06726Q578.15314 257.411 578.54376 257.411Q578.9344 257.411 579.2 257.06726Q579.46564 256.7235 579.46564 255.81726Q579.46564 254.98914 579.2 254.66101Q578.9344 254.31726 578.54376 254.31726Z" fill-rule="nonzero"></path>
  <path stroke="#757575" stroke-width="1.0" stroke-linecap="butt" d="M581.45 245.31726L454.76666 245.31726L435.0567 245.31726" fill-rule="nonzero"></path>
  <path fill="#9e9e9e" d="M437.0567 245.31726C437.0567 244.21269 436.1613 243.31726 435.0567 243.31726C433.95215 243.31726 433.0567 244.21269 433.0567 245.31726C433.0567 246.42183 433.95215 247.31726 435.0567 247.31726C436.1613 247.31726 437.0567 246.42183 437.0567 245.31726" fill-rule="nonzero"></path>
  <path fill="#757575" d="M19.51875 30.58125Q19.51875 27.01875 21.425 25.003124Q23.346874 22.971874 26.378124 22.971874Q28.3625 22.971874 29.940624 23.925Q31.534374 24.878124 32.3625 26.58125Q33.20625 28.26875 33.20625 30.409374Q33.20625 32.58125 32.33125 34.3Q31.45625 36.01875 29.83125 36.909374Q28.221874 37.8 26.3625 37.8Q24.346874 37.8 22.753124 36.83125Q21.159374 35.846874 20.33125 34.159374Q19.51875 32.45625 19.51875 30.58125ZM21.471874 30.6125Q21.471874 33.190624 22.8625 34.690624Q24.253124 36.175 26.346874 36.175Q28.4875 36.175 29.8625 34.675Q31.253124 33.159374 31.253124 30.39375Q31.253124 28.659374 30.659374 27.3625Q30.08125 26.05 28.940624 25.33125Q27.8 24.6125 26.378124 24.6125Q24.378124 24.6125 22.925 26.003124Q21.471874 27.378124 21.471874 30.6125ZM38.753124 37.55L34.8 27.175L36.659374 27.175L38.89375 33.39375Q39.253124 34.39375 39.55 35.471874Q39.784374 34.659374 40.20625 33.503124L42.503124 27.175L44.315624 27.175L40.39375 37.55L38.753124 37.55ZM52.971874 34.20625L54.784374 34.440624Q54.3625 36.01875 53.190624 36.909374Q52.034374 37.784374 50.221874 37.784374Q47.95625 37.784374 46.6125 36.39375Q45.284374 34.9875 45.284374 32.45625Q45.284374 29.83125 46.628124 28.39375Q47.971874 26.940624 50.128124 26.940624Q52.20625 26.940624 53.51875 28.3625Q54.846874 29.76875 54.846874 32.346874Q54.846874 32.503124 54.83125 32.815624L47.096874 32.815624Q47.190624 34.51875 48.065624 35.425Q48.940624 36.33125 50.2375 36.33125Q51.20625 36.33125 51.878124 35.83125Q52.565624 35.315624 52.971874 34.20625ZM47.190624 31.3625L52.9875 31.3625Q52.878124 30.065624 52.33125 29.409374Q51.4875 28.39375 50.14375 28.39375Q48.940624 28.39375 48.1125 29.20625Q47.284374 30.003124 47.190624 31.3625ZM56.846874 37.55L56.846874 27.175L58.425 27.175L58.425 28.753124Q59.034374 27.64375 59.55 27.3Q60.065624 26.940624 60.675 26.940624Q61.565624 26.940624 62.4875 27.503124L61.878124 29.14375Q61.2375 28.753124 60.596874 28.753124Q60.01875 28.753124 59.55 29.1125Q59.096874 29.45625 58.89375 30.065624Q58.6125 31.003124 58.6125 32.1125L58.6125 37.55L56.846874 37.55ZM70.64375 36.26875Q69.65938 37.096874 68.75313 37.440624Q67.84688 37.784374 66.81563 37.784374Q65.1125 37.784374 64.19063 36.95625Q63.26875 36.1125 63.26875 34.815624Q63.26875 34.05 63.6125 33.425Q63.971874 32.8 64.53438 32.425Q65.09688 32.034374 65.8 31.83125Q66.31563 31.70625 67.3625 31.565624Q69.4875 31.315624 70.4875 30.971874Q70.50313 30.6125 70.50313 30.503124Q70.50313 29.440624 70.00313 28.9875Q69.33125 28.39375 68.00313 28.39375Q66.75313 28.39375 66.15938 28.83125Q65.58125 29.26875 65.3 30.378124L63.58125 30.14375Q63.815624 29.034374 64.34688 28.3625Q64.87813 27.675 65.89375 27.315624Q66.90938 26.940624 68.25313 26.940624Q69.58125 26.940624 70.40938 27.253124Q71.2375 27.565624 71.62813 28.05Q72.01875 28.51875 72.175 29.2375Q72.26875 29.690624 72.26875 30.8625L72.26875 33.20625Q72.26875 35.659374 72.37813 36.315624Q72.4875 36.95625 72.83125 37.55L70.9875 37.55Q70.72188 37.003124 70.64375 36.26875ZM70.4875 32.346874Q69.53438 32.7375 67.6125 33.003124Q66.53438 33.159374 66.08125 33.3625Q65.64375 33.55 65.39375 33.925Q65.14375 34.3 65.14375 34.76875Q65.14375 35.471874 65.675 35.940624Q66.20625 36.409374 67.2375 36.409374Q68.25313 36.409374 69.03438 35.971874Q69.83125 35.51875 70.20625 34.753124Q70.4875 34.14375 70.4875 32.9875L70.4875 32.346874ZM74.83125 37.55L74.83125 23.2375L76.58125 23.2375L76.58125 37.55L74.83125 37.55ZM78.83125 37.55L78.83125 23.2375L80.58125 23.2375L80.58125 37.55L78.83125 37.55ZM88.45625 32.95625L90.2375 32.8Q90.3625 33.8625 90.81563 34.55Q91.28438 35.2375 92.25313 35.675Q93.2375 36.096874 94.47188 36.096874Q95.55 36.096874 96.37813 35.784374Q97.20625 35.45625 97.6125 34.89375Q98.01875 34.33125 98.01875 33.659374Q98.01875 32.9875 97.62813 32.4875Q97.2375 31.9875 96.34688 31.64375Q95.76875 31.409374 93.78438 30.940624Q91.81563 30.471874 91.03438 30.05Q90.00313 29.51875 89.50313 28.721874Q89.00313 27.925 89.00313 26.940624Q89.00313 25.846874 89.6125 24.909374Q90.22188 23.971874 91.40938 23.4875Q92.59688 22.9875 94.03438 22.9875Q95.62813 22.9875 96.84688 23.503124Q98.06563 24.01875 98.70625 25.01875Q99.3625 26.003124 99.40938 27.26875L97.59688 27.409374Q97.45625 26.05 96.6125 25.3625Q95.76875 24.659374 94.1125 24.659374Q92.39375 24.659374 91.59688 25.3Q90.81563 25.925 90.81563 26.8Q90.81563 27.58125 91.37813 28.08125Q91.925 28.58125 94.2375 29.096874Q96.55 29.6125 97.40938 30.003124Q98.65938 30.58125 99.25313 31.471874Q99.84688 32.346874 99.84688 33.503124Q99.84688 34.64375 99.19063 35.659374Q98.53438 36.675 97.3 37.2375Q96.08125 37.8 94.55 37.8Q92.6125 37.8 91.3 37.2375Q89.9875 36.659374 89.2375 35.51875Q88.4875 34.378124 88.45625 32.95625ZM108.64375 36.26875Q107.65938 37.096874 106.75313 37.440624Q105.84688 37.784374 104.81563 37.784374Q103.1125 37.784374 102.19063 36.95625Q101.26875 36.1125 101.26875 34.815624Q101.26875 34.05 101.6125 33.425Q101.97188 32.8 102.53438 32.425Q103.09688 32.034374 103.8 31.83125Q104.31563 31.70625 105.3625 31.565624Q107.4875 31.315624 108.4875 30.971874Q108.50313 30.6125 108.50313 30.503124Q108.50313 29.440624 108.00313 28.9875Q107.33125 28.39375 106.00313 28.39375Q104.75313 28.39375 104.15938 28.83125Q103.58125 29.26875 103.3 30.378124L101.58125 30.14375Q101.81563 29.034374 102.34688 28.3625Q102.87813 27.675 103.89375 27.315624Q104.90938 26.940624 106.25313 26.940624Q107.58125 26.940624 108.40938 27.253124Q109.2375 27.565624 109.62813 28.05Q110.01875 28.51875 110.175 29.2375Q110.26875 29.690624 110.26875 30.8625L110.26875 33.20625Q110.26875 35.659374 110.37813 36.315624Q110.4875 36.95625 110.83125 37.55L108.9875 37.55Q108.72188 37.003124 108.64375 36.26875ZM108.4875 32.346874Q107.53438 32.7375 105.6125 33.003124Q104.53438 33.159374 104.08125 33.3625Q103.64375 33.55 103.39375 33.925Q103.14375 34.3 103.14375 34.76875Q103.14375 35.471874 103.675 35.940624Q104.20625 36.409374 105.2375 36.409374Q106.25313 36.409374 107.03438 35.971874Q107.83125 35.51875 108.20625 34.753124Q108.4875 34.14375 108.4875 32.9875L108.4875 32.346874ZM116.70625 35.971874L116.95625 37.534374Q116.22188 37.690624 115.62813 37.690624Q114.675 37.690624 114.14375 37.39375Q113.62813 37.08125 113.40938 36.596874Q113.19063 36.096874 113.19063 34.51875L113.19063 28.55L111.90938 28.55L111.90938 27.175L113.19063 27.175L113.19063 24.6125L114.94063 23.55L114.94063 27.175L116.70625 27.175L116.70625 28.55L114.94063 28.55L114.94063 34.6125Q114.94063 35.3625 115.03438 35.58125Q115.12813 35.784374 115.33125 35.925Q115.55 36.05 115.94063 36.05Q116.22188 36.05 116.70625 35.971874ZM118.87813 25.253124L118.87813 23.2375L120.64375 23.2375L120.64375 25.253124L118.87813 25.253124ZM118.87813 37.55L118.87813 27.175L120.64375 27.175L120.64375 37.55L118.87813 37.55ZM122.15938 34.45625L123.90938 34.175Q124.05 35.221874 124.72188 35.784374Q125.39375 36.33125 126.59688 36.33125Q127.8 36.33125 128.37813 35.846874Q128.97188 35.346874 128.97188 34.690624Q128.97188 34.096874 128.45625 33.753124Q128.09688 33.51875 126.65938 33.159374Q124.72188 32.659374 123.97188 32.315624Q123.2375 31.95625 122.84688 31.33125Q122.45625 30.690624 122.45625 29.925Q122.45625 29.2375 122.76875 28.64375Q123.09688 28.05 123.64375 27.659374Q124.05 27.3625 124.75313 27.159374Q125.47188 26.940624 126.28438 26.940624Q127.50313 26.940624 128.425 27.3Q129.34688 27.64375 129.78438 28.253124Q130.22188 28.846874 130.39375 29.846874L128.675 30.08125Q128.55 29.284374 127.9875 28.846874Q127.425 28.39375 126.40938 28.39375Q125.19063 28.39375 124.675 28.8Q124.15938 29.190624 124.15938 29.721874Q124.15938 30.065624 124.37813 30.346874Q124.58125 30.628124 125.05 30.815624Q125.31563 30.909374 126.59688 31.253124Q128.47188 31.753124 129.20625 32.08125Q129.94063 32.39375 130.3625 33.003124Q130.78438 33.596874 130.78438 34.503124Q130.78438 35.378124 130.26875 36.159374Q129.75313 36.940624 128.78438 37.3625Q127.81563 37.784374 126.59688 37.784374Q124.58125 37.784374 123.51875 36.940624Q122.45625 36.096874 122.15938 34.45625ZM133.28438 37.55L133.28438 28.55L131.7375 28.55L131.7375 27.175L133.28438 27.175L133.28438 26.08125Q133.28438 25.034374 133.47188 24.51875Q133.72188 23.83125 134.3625 23.409374Q135.00313 22.9875 136.15938 22.9875Q136.90938 22.9875 137.8 23.159374L137.53438 24.690624Q136.9875 24.596874 136.50313 24.596874Q135.70625 24.596874 135.3625 24.940624Q135.03438 25.284374 135.03438 26.221874L135.03438 27.175L137.06563 27.175L137.06563 28.55L135.03438 28.55L135.03438 37.55L133.28438 37.55ZM145.64375 36.26875Q144.65938 37.096874 143.75313 37.440624Q142.84688 37.784374 141.81563 37.784374Q140.1125 37.784374 139.19063 36.95625Q138.26875 36.1125 138.26875 34.815624Q138.26875 34.05 138.6125 33.425Q138.97188 32.8 139.53438 32.425Q140.09688 32.034374 140.8 31.83125Q141.31563 31.70625 142.3625 31.565624Q144.4875 31.315624 145.4875 30.971874Q145.50313 30.6125 145.50313 30.503124Q145.50313 29.440624 145.00313 28.9875Q144.33125 28.39375 143.00313 28.39375Q141.75313 28.39375 141.15938 28.83125Q140.58125 29.26875 140.3 30.378124L138.58125 30.14375Q138.81563 29.034374 139.34688 28.3625Q139.87813 27.675 140.89375 27.315624Q141.90938 26.940624 143.25313 26.940624Q144.58125 26.940624 145.40938 27.253124Q146.2375 27.565624 146.62813 28.05Q147.01875 28.51875 147.175 29.2375Q147.26875 29.690624 147.26875 30.8625L147.26875 33.20625Q147.26875 35.659374 147.37813 36.315624Q147.4875 36.95625 147.83125 37.55L145.9875 37.55Q145.72188 37.003124 145.64375 36.26875ZM145.4875 32.346874Q144.53438 32.7375 142.6125 33.003124Q141.53438 33.159374 141.08125 33.3625Q140.64375 33.55 140.39375 33.925Q140.14375 34.3 140.14375 34.76875Q140.14375 35.471874 140.675 35.940624Q141.20625 36.409374 142.2375 36.409374Q143.25313 36.409374 144.03438 35.971874Q144.83125 35.51875 145.20625 34.753124Q145.4875 34.14375 145.4875 32.9875L145.4875 32.346874ZM156.64375 33.753124L158.3625 33.971874Q158.08125 35.76875 156.90938 36.784374Q155.75313 37.784374 154.05 37.784374Q151.925 37.784374 150.62813 36.39375Q149.33125 35.003124 149.33125 32.409374Q149.33125 30.721874 149.87813 29.471874Q150.44063 28.20625 151.58125 27.58125Q152.72188 26.940624 154.06563 26.940624Q155.75313 26.940624 156.81563 27.8Q157.89375 28.659374 158.20625 30.221874L156.4875 30.4875Q156.25313 29.440624 155.62813 28.925Q155.00313 28.39375 154.12813 28.39375Q152.8 28.39375 151.97188 29.346874Q151.14375 30.3 151.14375 32.346874Q151.14375 34.440624 151.94063 35.39375Q152.7375 36.33125 154.03438 36.33125Q155.06563 36.33125 155.75313 35.70625Q156.45625 35.065624 156.64375 33.753124ZM163.70625 35.971874L163.95625 37.534374Q163.22188 37.690624 162.62813 37.690624Q161.675 37.690624 161.14375 37.39375Q160.62813 37.08125 160.40938 36.596874Q160.19063 36.096874 160.19063 34.51875L160.19063 28.55L158.90938 28.55L158.90938 27.175L160.19063 27.175L160.19063 24.6125L161.94063 23.55L161.94063 27.175L163.70625 27.175L163.70625 28.55L161.94063 28.55L161.94063 34.6125Q161.94063 35.3625 162.03438 35.58125Q162.12813 35.784374 162.33125 35.925Q162.55 36.05 162.94063 36.05Q163.22188 36.05 163.70625 35.971874ZM165.87813 25.253124L165.87813 23.2375L167.64375 23.2375L167.64375 25.253124L165.87813 25.253124ZM165.87813 37.55L165.87813 27.175L167.64375 27.175L167.64375 37.55L165.87813 37.55ZM169.22188 32.3625Q169.22188 29.4875 170.81563 28.096874Q172.15938 26.940624 174.08125 26.940624Q176.22188 26.940624 177.56563 28.346874Q178.925 29.753124 178.925 32.221874Q178.925 34.221874 178.33125 35.378124Q177.7375 36.51875 176.58125 37.159374Q175.44063 37.784374 174.08125 37.784374Q171.89375 37.784374 170.55 36.39375Q169.22188 34.9875 169.22188 32.3625ZM171.01875 32.3625Q171.01875 34.3625 171.87813 35.346874Q172.75313 36.33125 174.08125 36.33125Q175.39375 36.33125 176.25313 35.346874Q177.12813 34.346874 177.12813 32.3Q177.12813 30.378124 176.25313 29.39375Q175.37813 28.39375 174.08125 28.39375Q172.75313 28.39375 171.87813 29.39375Q171.01875 30.378124 171.01875 32.3625ZM180.8625 37.55L180.8625 27.175L182.45625 27.175L182.45625 28.659374Q183.59688 26.940624 185.75313 26.940624Q186.69063 26.940624 187.47188 27.284374Q188.26875 27.6125 188.65938 28.159374Q189.05 28.70625 189.20625 29.45625Q189.3 29.95625 189.3 31.175L189.3 37.55L187.53438 37.55L187.53438 31.2375Q187.53438 30.159374 187.33125 29.628124Q187.12813 29.096874 186.59688 28.784374Q186.08125 28.471874 185.37813 28.471874Q184.25313 28.471874 183.44063 29.190624Q182.62813 29.89375 182.62813 31.878124L182.62813 37.55L180.8625 37.55ZM200.59688 37.55L196.8 23.2375L198.7375 23.2375L200.90938 32.6125Q201.26875 34.096874 201.51875 35.55Q202.06563 33.253124 202.15938 32.89375L204.89375 23.2375L207.175 23.2375L209.22188 30.471874Q210.00313 33.175 210.34688 35.55Q210.6125 34.190624 211.05 32.425L213.3 23.2375L215.20625 23.2375L211.28438 37.55L209.45625 37.55L206.44063 26.64375Q206.05 25.26875 205.9875 24.95625Q205.75313 25.940624 205.56563 26.64375L202.53438 37.55L200.59688 37.55ZM216.87813 25.253124L216.87813 23.2375L218.64375 23.2375L218.64375 25.253124L216.87813 25.253124ZM216.87813 37.55L216.87813 27.175L218.64375 27.175L218.64375 37.55L216.87813 37.55ZM224.70625 35.971874L224.95625 37.534374Q224.22188 37.690624 223.62813 37.690624Q222.675 37.690624 222.14375 37.39375Q221.62813 37.08125 221.40938 36.596874Q221.19063 36.096874 221.19063 34.51875L221.19063 28.55L219.90938 28.55L219.90938 27.175L221.19063 27.175L221.19063 24.6125L222.94063 23.55L222.94063 27.175L224.70625 27.175L224.70625 28.55L222.94063 28.55L222.94063 34.6125Q222.94063 35.3625 223.03438 35.58125Q223.12813 35.784374 223.33125 35.925Q223.55 36.05 223.94063 36.05Q224.22188 36.05 224.70625 35.971874ZM226.8625 37.55L226.8625 23.2375L228.62813 23.2375L228.62813 28.3625Q229.8625 26.940624 231.7375 26.940624Q232.87813 26.940624 233.72188 27.39375Q234.58125 27.846874 234.94063 28.659374Q235.31563 29.45625 235.31563 30.971874L235.31563 37.55L233.56563 37.55L233.56563 30.971874Q233.56563 29.659374 232.9875 29.065624Q232.40938 28.45625 231.37813 28.45625Q230.59688 28.45625 229.89375 28.8625Q229.20625 29.26875 228.90938 29.971874Q228.62813 30.659374 228.62813 31.878124L228.62813 37.55L226.8625 37.55ZM244.01875 37.55L244.01875 23.2375L249.39375 23.2375Q251.03438 23.2375 252.01875 23.675Q253.00313 24.096874 253.56563 25.003124Q254.12813 25.909374 254.12813 26.89375Q254.12813 27.815624 253.62813 28.628124Q253.14375 29.440624 252.12813 29.925Q253.425 30.315624 254.12813 31.2375Q254.83125 32.14375 254.83125 33.39375Q254.83125 34.409374 254.39375 35.26875Q253.97188 36.128124 253.34688 36.596874Q252.72188 37.065624 251.78438 37.315624Q250.84688 37.55 249.47188 37.55L244.01875 37.55ZM245.90938 29.253124L249.00313 29.253124Q250.26875 29.253124 250.81563 29.08125Q251.53438 28.8625 251.89375 28.378124Q252.26875 27.878124 252.26875 27.1125Q252.26875 26.409374 251.925 25.8625Q251.58125 25.315624 250.94063 25.128124Q250.31563 24.925 248.76875 24.925L245.90938 24.925L245.90938 29.253124ZM245.90938 35.8625L249.47188 35.8625Q250.39375 35.8625 250.76875 35.784374Q251.425 35.675 251.8625 35.409374Q252.3 35.128124 252.58125 34.6125Q252.8625 34.08125 252.8625 33.39375Q252.8625 32.596874 252.45625 32.003124Q252.05 31.409374 251.31563 31.175Q250.58125 30.940624 249.22188 30.940624L245.90938 30.940624L245.90938 35.8625ZM256.84686 37.55L256.84686 27.175L258.425 27.175L258.425 28.753124Q259.03436 27.64375 259.55 27.3Q260.0656 26.940624 260.675 26.940624Q261.5656 26.940624 262.4875 27.503124L261.8781 29.14375Q261.2375 28.753124 260.59686 28.753124Q260.01874 28.753124 259.55 29.1125Q259.09686 29.45625 258.89374 30.065624Q258.6125 31.003124 258.6125 32.1125L258.6125 37.55L256.84686 37.55ZM263.22186 32.3625Q263.22186 29.4875 264.8156 28.096874Q266.15936 26.940624 268.08124 26.940624Q270.22186 26.940624 271.5656 28.346874Q272.925 29.753124 272.925 32.221874Q272.925 34.221874 272.33124 35.378124Q271.7375 36.51875 270.58124 37.159374Q269.4406 37.784374 268.08124 37.784374Q265.89374 37.784374 264.55 36.39375Q263.22186 34.9875 263.22186 32.3625ZM265.01874 32.3625Q265.01874 34.3625 265.8781 35.346874Q266.7531 36.33125 268.08124 36.33125Q269.39374 36.33125 270.2531 35.346874Q271.1281 34.346874 271.1281 32.3Q271.1281 30.378124 270.2531 29.39375Q269.3781 28.39375 268.08124 28.39375Q266.7531 28.39375 265.8781 29.39375Q265.01874 30.378124 265.01874 32.3625ZM276.78436 37.55L273.6125 27.175L275.425 27.175L277.08124 33.159374L277.6906 35.39375Q277.7375 35.221874 278.22186 33.253124L279.8781 27.175L281.6906 27.175L283.2375 33.190624L283.7531 35.175L284.34686 33.175L286.1281 27.175L287.83124 27.175L284.59686 37.55L282.76874 37.55L281.1125 31.33125L280.72186 29.565624L278.6125 37.55L276.78436 37.55ZM288.15936 34.45625L289.90936 34.175Q290.05 35.221874 290.72186 35.784374Q291.39374 36.33125 292.59686 36.33125Q293.8 36.33125 294.3781 35.846874Q294.97186 35.346874 294.97186 34.690624Q294.97186 34.096874 294.45624 33.753124Q294.09686 33.51875 292.65936 33.159374Q290.72186 32.659374 289.97186 32.315624Q289.2375 31.95625 288.84686 31.33125Q288.45624 30.690624 288.45624 29.925Q288.45624 29.2375 288.76874 28.64375Q289.09686 28.05 289.64374 27.659374Q290.05 27.3625 290.7531 27.159374Q291.47186 26.940624 292.28436 26.940624Q293.5031 26.940624 294.425 27.3Q295.34686 27.64375 295.78436 28.253124Q296.22186 28.846874 296.39374 29.846874L294.675 30.08125Q294.55 29.284374 293.9875 28.846874Q293.425 28.39375 292.40936 28.39375Q291.1906 28.39375 290.675 28.8Q290.15936 29.190624 290.15936 29.721874Q290.15936 30.065624 290.3781 30.346874Q290.58124 30.628124 291.05 30.815624Q291.3156 30.909374 292.59686 31.253124Q294.47186 31.753124 295.20624 32.08125Q295.9406 32.39375 296.3625 33.003124Q296.78436 33.596874 296.78436 34.503124Q296.78436 35.378124 296.26874 36.159374Q295.7531 36.940624 294.78436 37.3625Q293.8156 37.784374 292.59686 37.784374Q290.58124 37.784374 289.51874 36.940624Q288.45624 36.096874 288.15936 34.45625ZM305.97186 34.20625L307.78436 34.440624Q307.3625 36.01875 306.1906 36.909374Q305.03436 37.784374 303.22186 37.784374Q300.95624 37.784374 299.6125 36.39375Q298.28436 34.9875 298.28436 32.45625Q298.28436 29.83125 299.6281 28.39375Q300.97186 26.940624 303.1281 26.940624Q305.20624 26.940624 306.51874 28.3625Q307.84686 29.76875 307.84686 32.346874Q307.84686 32.503124 307.83124 32.815624L300.09686 32.815624Q300.1906 34.51875 301.0656 35.425Q301.9406 36.33125 303.2375 36.33125Q304.20624 36.33125 304.8781 35.83125Q305.5656 35.315624 305.97186 34.20625ZM300.1906 31.3625L305.9875 31.3625Q305.8781 30.065624 305.33124 29.409374Q304.4875 28.39375 303.14374 28.39375Q301.9406 28.39375 301.1125 29.20625Q300.28436 30.003124 300.1906 31.3625ZM309.84686 37.55L309.84686 27.175L311.425 27.175L311.425 28.753124Q312.03436 27.64375 312.55 27.3Q313.0656 26.940624 313.675 26.940624Q314.5656 26.940624 315.4875 27.503124L314.8781 29.14375Q314.2375 28.753124 313.59686 28.753124Q313.01874 28.753124 312.55 29.1125Q312.09686 29.45625 311.89374 30.065624Q311.6125 31.003124 311.6125 32.1125L311.6125 37.55L309.84686 37.55ZM333.3156 32.534374L335.20624 33.003124Q334.6125 35.346874 333.0656 36.58125Q331.51874 37.8 329.26874 37.8Q326.95624 37.8 325.5031 36.8625Q324.0656 35.909374 323.3 34.128124Q322.55 32.33125 322.55 30.284374Q322.55 28.05 323.39374 26.39375Q324.2531 24.721874 325.83124 23.8625Q327.40936 22.9875 329.3 22.9875Q331.45624 22.9875 332.90936 24.08125Q334.3781 25.175 334.95624 27.159374L333.09686 27.596874Q332.59686 26.034374 331.64374 25.33125Q330.70624 24.6125 329.26874 24.6125Q327.6125 24.6125 326.5031 25.409374Q325.39374 26.190624 324.9406 27.534374Q324.5031 28.8625 324.5031 30.26875Q324.5031 32.096874 325.03436 33.471874Q325.5656 34.83125 326.6906 35.503124Q327.8156 36.175 329.1125 36.175Q330.70624 36.175 331.8156 35.253124Q332.925 34.33125 333.3156 32.534374ZM336.22186 32.3625Q336.22186 29.4875 337.8156 28.096874Q339.15936 26.940624 341.08124 26.940624Q343.22186 26.940624 344.5656 28.346874Q345.925 29.753124 345.925 32.221874Q345.925 34.221874 345.33124 35.378124Q344.7375 36.51875 343.58124 37.159374Q342.4406 37.784374 341.08124 37.784374Q338.89374 37.784374 337.55 36.39375Q336.22186 34.9875 336.22186 32.3625ZM338.01874 32.3625Q338.01874 34.3625 338.8781 35.346874Q339.7531 36.33125 341.08124 36.33125Q342.39374 36.33125 343.2531 35.346874Q344.1281 34.346874 344.1281 32.3Q344.1281 30.378124 343.2531 29.39375Q342.3781 28.39375 341.08124 28.39375Q339.7531 28.39375 338.8781 29.39375Q338.01874 30.378124 338.01874 32.3625ZM347.8625 37.55L347.8625 27.175L349.4406 27.175L349.4406 28.628124Q349.925 27.878124 350.7375 27.409374Q351.55 26.940624 352.58124 26.940624Q353.7375 26.940624 354.47186 27.425Q355.20624 27.89375 355.51874 28.753124Q356.7531 26.940624 358.72186 26.940624Q360.26874 26.940624 361.09686 27.8Q361.925 28.659374 361.925 30.425L361.925 37.55L360.175 37.55L360.175 31.01875Q360.175 29.95625 360.0031 29.503124Q359.83124 29.034374 359.3781 28.753124Q358.9406 28.471874 358.33124 28.471874Q357.2375 28.471874 356.5031 29.20625Q355.78436 29.925 355.78436 31.51875L355.78436 37.55L354.03436 37.55L354.03436 30.815624Q354.03436 29.64375 353.59686 29.065624Q353.175 28.471874 352.1906 28.471874Q351.45624 28.471874 350.8156 28.8625Q350.1906 29.253124 349.90936 30.003124Q349.6281 30.753124 349.6281 32.175L349.6281 37.55L347.8625 37.55ZM364.8625 41.51875L364.8625 27.175L366.47186 27.175L366.47186 28.51875Q367.03436 27.7375 367.7375 27.346874Q368.45624 26.940624 369.47186 26.940624Q370.8 26.940624 371.8156 27.628124Q372.83124 28.315624 373.34686 29.565624Q373.8781 30.8 373.8781 32.284374Q373.8781 33.878124 373.3 35.159374Q372.7375 36.425 371.64374 37.1125Q370.55 37.784374 369.34686 37.784374Q368.47186 37.784374 367.76874 37.409374Q367.08124 37.034374 366.6281 36.471874L366.6281 41.51875L364.8625 41.51875ZM366.45624 32.425Q366.45624 34.425 367.26874 35.378124Q368.08124 36.33125 369.2375 36.33125Q370.40936 36.33125 371.2375 35.346874Q372.08124 34.3625 372.08124 32.26875Q372.08124 30.3 371.2531 29.315624Q370.4406 28.315624 369.3156 28.315624Q368.1906 28.315624 367.3156 29.378124Q366.45624 30.425 366.45624 32.425ZM382.64374 36.26875Q381.65936 37.096874 380.7531 37.440624Q379.84686 37.784374 378.8156 37.784374Q377.1125 37.784374 376.1906 36.95625Q375.26874 36.1125 375.26874 34.815624Q375.26874 34.05 375.6125 33.425Q375.97186 32.8 376.53436 32.425Q377.09686 32.034374 377.8 31.83125Q378.3156 31.70625 379.3625 31.565624Q381.4875 31.315624 382.4875 30.971874Q382.5031 30.6125 382.5031 30.503124Q382.5031 29.440624 382.0031 28.9875Q381.33124 28.39375 380.0031 28.39375Q378.7531 28.39375 378.15936 28.83125Q377.58124 29.26875 377.3 30.378124L375.58124 30.14375Q375.8156 29.034374 376.34686 28.3625Q376.8781 27.675 377.89374 27.315624Q378.90936 26.940624 380.2531 26.940624Q381.58124 26.940624 382.40936 27.253124Q383.2375 27.565624 383.6281 28.05Q384.01874 28.51875 384.175 29.2375Q384.26874 29.690624 384.26874 30.8625L384.26874 33.20625Q384.26874 35.659374 384.3781 36.315624Q384.4875 36.95625 384.83124 37.55L382.9875 37.55Q382.72186 37.003124 382.64374 36.26875ZM382.4875 32.346874Q381.53436 32.7375 379.6125 33.003124Q378.53436 33.159374 378.08124 33.3625Q377.64374 33.55 377.39374 33.925Q377.14374 34.3 377.14374 34.76875Q377.14374 35.471874 377.675 35.940624Q378.20624 36.409374 379.2375 36.409374Q380.2531 36.409374 381.03436 35.971874Q381.83124 35.51875 382.20624 34.753124Q382.4875 34.14375 382.4875 32.9875L382.4875 32.346874ZM390.70624 35.971874L390.95624 37.534374Q390.22186 37.690624 389.6281 37.690624Q388.675 37.690624 388.14374 37.39375Q387.6281 37.08125 387.40936 36.596874Q387.1906 36.096874 387.1906 34.51875L387.1906 28.55L385.90936 28.55L385.90936 27.175L387.1906 27.175L387.1906 24.6125L388.9406 23.55L388.9406 27.175L390.70624 27.175L390.70624 28.55L388.9406 28.55L388.9406 34.6125Q388.9406 35.3625 389.03436 35.58125Q389.1281 35.784374 389.33124 35.925Q389.55 36.05 389.9406 36.05Q390.22186 36.05 390.70624 35.971874ZM392.8781 25.253124L392.8781 23.2375L394.64374 23.2375L394.64374 25.253124L392.8781 25.253124ZM392.8781 37.55L392.8781 27.175L394.64374 27.175L394.64374 37.55L392.8781 37.55ZM398.4875 37.55L396.8625 37.55L396.8625 23.2375L398.6125 23.2375L398.6125 28.346874Q399.7375 26.940624 401.45624 26.940624Q402.40936 26.940624 403.26874 27.33125Q404.1281 27.721874 404.675 28.425Q405.22186 29.1125 405.53436 30.096874Q405.84686 31.08125 405.84686 32.20625Q405.84686 34.878124 404.53436 36.33125Q403.22186 37.784374 401.3781 37.784374Q399.53436 37.784374 398.4875 36.253124L398.4875 37.55ZM398.47186 32.284374Q398.47186 34.14375 398.97186 34.9875Q399.8156 36.33125 401.22186 36.33125Q402.3781 36.33125 403.20624 35.33125Q404.05 34.33125 404.05 32.346874Q404.05 30.315624 403.2375 29.3625Q402.4406 28.39375 401.3 28.39375Q400.14374 28.39375 399.3 29.39375Q398.47186 30.39375 398.47186 32.284374ZM407.8781 25.253124L407.8781 23.2375L409.64374 23.2375L409.64374 25.253124L407.8781 25.253124ZM407.8781 37.55L407.8781 27.175L409.64374 27.175L409.64374 37.55L407.8781 37.55ZM411.83124 37.55L411.83124 23.2375L413.58124 23.2375L413.58124 37.55L411.83124 37.55ZM415.8781 25.253124L415.8781 23.2375L417.64374 23.2375L417.64374 25.253124L415.8781 25.253124ZM415.8781 37.55L415.8781 27.175L417.64374 27.175L417.64374 37.55L415.8781 37.55ZM423.70624 35.971874L423.95624 37.534374Q423.22186 37.690624 422.6281 37.690624Q421.675 37.690624 421.14374 37.39375Q420.6281 37.08125 420.40936 36.596874Q420.1906 36.096874 420.1906 34.51875L420.1906 28.55L418.90936 28.55L418.90936 27.175L420.1906 27.175L420.1906 24.6125L421.9406 23.55L421.9406 27.175L423.70624 27.175L423.70624 28.55L421.9406 28.55L421.9406 34.6125Q421.9406 35.3625 422.03436 35.58125Q422.1281 35.784374 422.33124 35.925Q422.55 36.05 422.9406 36.05Q423.22186 36.05 423.70624 35.971874ZM425.78436 41.55L425.59686 39.89375Q426.175 40.05 426.59686 40.05Q427.1906 40.05 427.53436 39.846874Q427.89374 39.659374 428.1125 39.315624Q428.28436 39.05 428.65936 38.003124Q428.70624 37.846874 428.8156 37.565624L424.8781 27.175L426.76874 27.175L428.925 33.190624Q429.34686 34.33125 429.675 35.58125Q429.9875 34.378124 430.39374 33.221874L432.6125 27.175L434.3781 27.175L430.425 37.721874Q429.8 39.440624 429.4406 40.08125Q428.97186 40.95625 428.3625 41.346874Q427.76874 41.753124 426.925 41.753124Q426.40936 41.753124 425.78436 41.55Z" fill-rule="nonzero"></path>
</svg>
