<?xml version="1.0" encoding="UTF-8"?>
<svg xmlns="http://www.w3.org/2000/svg" viewBox="0 0 354.24 134.82">
  <defs>
    <style>.cls-1{fill:#f2f2f2;}.cls-2{font-size:10px;font-family:ArialMT, Arial;}.cls-3{letter-spacing:-0.02em;}.cls-4{letter-spacing:-0.04em;}.cls-5{letter-spacing:-0.02em;}.cls-6{fill:#fff;}.cls-7{letter-spacing:-0.01em;}.cls-8{letter-spacing:-0.02em;}.cls-9{letter-spacing:-0.02em;}.cls-10{letter-spacing:-0.03em;}.cls-11{letter-spacing:-0.02em;}.cls-12{letter-spacing:-0.03em;}.cls-13{letter-spacing:-0.02em;}.cls-14{letter-spacing:-0.04em;}.cls-15{letter-spacing:-0.05em;}.cls-16{fill:#00458b;}.cls-17{fill:none;stroke:#fff;}</style>
  </defs>
  <g id="Layer_2" data-name="Layer 2">
    <g id="Layer_1-2" data-name="Layer 1">
      <rect class="cls-1" y="0.04" width="354.24" height="27"></rect>
      <text class="cls-2" transform="translate(4.5 17.48)">Full stack <tspan class="cls-3" x="45.01" y="0">(</tspan><tspan x="48.12" y="0">front-end and bac</tspan><tspan class="cls-4" x="126.51" y="0">k</tspan><tspan x="131.14" y="0">-en</tspan><tspan class="cls-5" x="145.59" y="0">d</tspan><tspan x="150.98" y="0">)</tspan></text>
      <rect class="cls-6" y="27.04" width="354.24" height="27"></rect>
      <text class="cls-2" transform="translate(4.5 44.48)">Front end (primari<tspan class="cls-7" x="79.47" y="0">l</tspan><tspan class="cls-8" x="81.56" y="0">y</tspan><tspan class="cls-9" x="86.33" y="0"> </tspan><tspan class="cls-10" x="88.93" y="0">J</tspan><tspan class="cls-11" x="93.67" y="0">a</tspan><tspan x="99.03" y="0">vaScrip</tspan><tspan class="cls-12" x="132.37" y="0">t</tspan><tspan x="134.85" y="0">)</tspan></text>
      <rect class="cls-6" y="80.72" width="354.24" height="27"></rect>
      <text class="cls-2" transform="translate(4.5 98.15)">Back end</text>
      <rect class="cls-1" y="54.04" width="354.24" height="27"></rect>
      <text class="cls-2" transform="translate(4.5 71.48)">Front end (primari<tspan class="cls-7" x="79.47" y="0">l</tspan><tspan class="cls-8" x="81.56" y="0">y</tspan><tspan x="86.33" y="0" xml:space="preserve"> CSS &amp; HTM</tspan><tspan class="cls-13" x="143.56" y="0">L</tspan><tspan x="148.93" y="0">)</tspan></text>
      <rect class="cls-1" y="107.68" width="354.24" height="27"></rect>
      <text class="cls-2" transform="translate(4.5 125.11)">Other</text>
      <text class="cls-2" transform="translate(225.6 44.28)">43.1%</text>
      <text class="cls-2" transform="translate(221.04 71.44)">33.3%</text>
      <text class="cls-2" transform="translate(193.92 125.25)">3.4%</text>
      <text class="cls-2" transform="translate(237.12 17.44)">5<tspan class="cls-14" x="5.56" y="0">7</tspan><tspan x="10.67" y="0">.1%</tspan></text>
      <text class="cls-2" transform="translate(200.76 98.44)">11<tspan class="cls-15" x="11.12" y="0">.</tspan><tspan x="13.42" y="0">7%</tspan></text>
      <rect class="cls-16" x="183.26" y="0.5" width="44.46" height="26"></rect>
      <rect class="cls-17" x="183.26" y="0.5" width="44.46" height="26"></rect>
      <rect class="cls-16" x="183.26" y="27.34" width="33.32" height="26"></rect>
      <rect class="cls-17" x="183.26" y="27.34" width="33.32" height="26"></rect>
      <rect class="cls-16" x="183.26" y="54.5" width="25.51" height="26"></rect>
      <rect class="cls-17" x="183.26" y="54.5" width="25.51" height="26"></rect>
      <rect class="cls-16" x="183.26" y="81.5" width="8.32" height="26"></rect>
      <rect class="cls-17" x="183.26" y="81.5" width="8.32" height="26"></rect>
      <rect class="cls-16" x="183.26" y="108.32" width="1.71" height="26"></rect>
      <rect class="cls-17" x="183.26" y="108.32" width="1.71" height="26"></rect>
    </g>
  </g>
</svg>
