<?xml version="1.0" encoding="UTF-8"?>
<svg xmlns="http://www.w3.org/2000/svg" viewBox="0 0 76.17 53.32">
  <defs>
    <style>.cls-1{fill:#e7e5e2;}.cls-2{fill:#101010;}.cls-3{fill:#fff;}.cls-4{fill:#ff4f5e;}.cls-5{fill:#959595;}</style>
  </defs>
  <g id="Layer_2" data-name="Layer 2">
    <g id="Layer_1-2" data-name="Layer 1">
      <path class="cls-1" d="M28.22,52.56H1.27a.51.51,0,0,1-.51-.51V1.27A.51.51,0,0,1,1.27.76H42.1Zm46.68,0H33.74L47.62.76H74.9a.51.51,0,0,1,.51.51V52.05a.51.51,0,0,1-.51.51"></path>
      <path class="cls-2" d="M74.9,53.32H32.74L47,0H74.9a1.27,1.27,0,0,1,1.27,1.27V52.05a1.27,1.27,0,0,1-1.27,1.27m-46.1,0H1.27A1.27,1.27,0,0,1,0,52.05V1.27A1.27,1.27,0,0,1,1.27,0H43.09ZM74.65,51.8V1.52H48.2L34.73,51.8H74.65m-47,0L41.1,1.52H1.52V51.8H27.63"></path>
      <path class="cls-2" d="M40,11.43H0V1.27A1.27,1.27,0,0,1,1.27,0H43.09Zm36.14,0H44L47,0H74.9a1.27,1.27,0,0,1,1.27,1.27Z"></path>
      <path class="cls-3" d="M67.79,3.81a2.29,2.29,0,1,1-2.28,2.28,2.29,2.29,0,0,1,2.28-2.28"></path>
      <path class="cls-3" d="M61.7,3.81a2.29,2.29,0,1,1-2.29,2.28A2.28,2.28,0,0,1,61.7,3.81"></path>
      <path class="cls-3" d="M55.61,3.81a2.29,2.29,0,1,1-2.29,2.28,2.28,2.28,0,0,1,2.29-2.28"></path>
      <path class="cls-4" d="M36.56,18.29H8.38v6.1l26.57,0Z"></path>
      <path class="cls-4" d="M33.89,28.21l-25.51,0v6.1l23.91,0Z"></path>
      <path class="cls-4" d="M31.29,38.1H8.38v6.09l21.26,0Z"></path>
      <path class="cls-5" d="M36.85,44.21l28.58,0V38.09l-26.94,0Z"></path>
      <path class="cls-5" d="M39.49,34.38l25.94-.1v-6.1l-24.3.05Z"></path>
      <path class="cls-5" d="M42.17,24.35l23.26,0V18.28H43.8Z"></path>
    </g>
  </g>
</svg>
