<?xml version="1.0" encoding="UTF-8"?>
<svg xmlns="http://www.w3.org/2000/svg" viewBox="0 0 359.32 326.19">
  <defs>
    <style>.cls-1{fill:none;stroke:#000;stroke-width:0.78px;}.cls-2,.cls-3{font-size:10px;font-family:ArialMT, Arial;}.cls-3{fill:#959595;}.cls-4{letter-spacing:-0.01em;}.cls-5{letter-spacing:-0.07em;}.cls-6{letter-spacing:-0.02em;}.cls-7{letter-spacing:-0.02em;}.cls-8{letter-spacing:-0.02em;}.cls-9{fill:#fff44f;}.cls-10{fill:#ffa356;}.cls-11{fill:#f96282;}.cls-12{fill:#9f4e9d;}.cls-13{fill:#00458b;}</style>
  </defs>
  <g id="Layer_2" data-name="Layer 2">
    <g id="Layer_1-2" data-name="Layer 1">
      <line class="cls-1" x1="156.35" y1="75.3" x2="141.6" y2="51.93"></line>
      <text class="cls-2" transform="translate(318.83 305.08)">Satisﬁed</text>
      <text class="cls-3" transform="translate(330.97 322.95)">59.8%</text>
      <text class="cls-3" transform="translate(313 26.56)">2.2%</text>
      <text class="cls-3" transform="translate(81 31.5)">
        <tspan class="cls-4">6</tspan>
        <tspan x="5.43" y="0">.8%</tspan>
      </text>
      <text class="cls-3" transform="translate(33.48 255.98)">1<tspan class="cls-4" x="5.56" y="0">6</tspan><tspan x="10.99" y="0">.3%</tspan></text>
      <text class="cls-3" transform="translate(0 63.81)">14.9%</text>
      <text class="cls-2" transform="translate(81 13.41)">Dissatisﬁed</text>
      <text class="cls-2" transform="translate(33.48 237.89)">
        <tspan class="cls-5">V</tspan>
        <tspan x="6.01" y="0">er</tspan>
        <tspan class="cls-6" x="14.9" y="0">y</tspan>
        <tspan x="19.67" y="0" xml:space="preserve"> Satisﬁed</tspan>
      </text>
      <text class="cls-2" transform="translate(0 47.17)">
        <tspan class="cls-7">N</tspan>
        <tspan x="7.01" y="0">eithe</tspan>
        <tspan class="cls-8" x="28.7" y="0">r</tspan>
        <tspan x="31.87" y="0" xml:space="preserve"> Satisﬁed no</tspan>
        <tspan class="cls-8" x="86.9" y="0">r</tspan>
        <tspan x="90.07" y="0" xml:space="preserve"> Dissatisﬁed</tspan>
      </text>
      <text class="cls-2" transform="translate(260.21 8.58)">
        <tspan class="cls-5">V</tspan>
        <tspan x="6.01" y="0">er</tspan>
        <tspan class="cls-6" x="14.9" y="0">y</tspan>
        <tspan x="19.67" y="0" xml:space="preserve"> Dissatisﬁed</tspan>
      </text>
      <path class="cls-9" d="M229.51,157.32l.18-127.24c-2.67,0-5.35.09-8,.27s-5.38.41-8.11.71Z"></path>
      <path class="cls-10" d="M213.56,31.06a127.78,127.78,0,0,0-26.78,6.33,123,123,0,0,0-25.43,12.47l68.16,107.46Z"></path>
      <path class="cls-11" d="M229.51,157.32,161.26,50a126.93,126.93,0,0,0-22.82,18.53A127.15,127.15,0,0,0,108.15,119a125,125,0,0,0-5.62,30.29Z"></path>
      <path class="cls-12" d="M229.51,157.32l-127-8A127.48,127.48,0,0,0,114,210.56a129,129,0,0,0,16.85,27.05,124.81,124.81,0,0,0,23.92,22.63Z"></path>
      <path class="cls-13" d="M263.33,279.67a127.84,127.84,0,0,0,56.14-32.57,125.44,125.44,0,0,0,19.91-25.67,127.39,127.39,0,0,0,12.84-30.34,128,128,0,0,0,0-67.58,127.46,127.46,0,0,0-88.89-88.89,125,125,0,0,0-33.81-4.54V157.32L154.84,260a127.75,127.75,0,0,0,34.67,17.87,128.53,128.53,0,0,0,73.82,1.83"></path>
      <path d="M249.71,288.62a3,3,0,1,0-3-3,3,3,0,0,0,3,3"></path>
      <path d="M220.78,30.08a3,3,0,1,0-3-3,3,3,0,0,0,3,3"></path>
      <line class="cls-1" x1="242.17" y1="13.63" x2="218.81" y2="28.39"></line>
      <line class="cls-1" x1="250.24" y1="286.5" x2="264.99" y2="309.87"></line>
      <line class="cls-1" x1="355.04" y1="309.68" x2="264.66" y2="309.68"></line>
      <line class="cls-1" x1="332.1" y1="13.69" x2="241.72" y2="13.69"></line>
      <line class="cls-1" x1="171.34" y1="18.97" x2="194.7" y2="33.73"></line>
      <line class="cls-1" x1="123.75" y1="242.86" x2="147.12" y2="257.62"></line>
      <line class="cls-1" x1="81.22" y1="19.03" x2="171.6" y2="19.03"></line>
      <line class="cls-1" x1="33.64" y1="242.92" x2="124.02" y2="242.92"></line>
      <line class="cls-1" x1="1.4" y1="52.09" x2="141.95" y2="52.09"></line>
    </g>
  </g>
</svg>
