<svg xmlns="http://www.w3.org/2000/svg" width="778.73" height="152.94" viewBox="0 0 778.73 152.94"><rect y="97.85" width="778.73" height="24.23" opacity="0.05"/><rect y="73.62" width="778.73" height="24.23" fill="#fff" opacity="0.05"/><rect y="49.4" width="778.73" height="24.23" opacity="0.05"/><rect y="25.17" width="778.73" height="24.23" fill="#fff" opacity="0.05"/><rect y="0.94" width="778.73" height="24.23" opacity="0.05"/><text transform="translate(14.45 89.71)" font-size="13.42" font-family="ZillaSlab-Regular, Zilla Slab">Disagree that needs are represented</text><text transform="translate(14.45 65.49)" font-size="13.42" font-family="ZillaSlab-Regular, Zilla Slab">Strong<tspan x="39.69" y="0" letter-spacing="-0.01em">l</tspan><tspan x="43.09" y="0" letter-spacing="-0.02em">y</tspan><tspan x="49.62" y="0" xml:space="preserve"> agree that needs are represented</tspan></text><text transform="translate(14.45 41.26)" font-size="13.42" font-family="ZillaSlab-Regular, Zilla Slab"><tspan letter-spacing="-0.02em">N</tspan><tspan x="9.61" y="0">eithe</tspan><tspan x="38.47" y="0" letter-spacing="-0.02em">r</tspan><tspan x="43.89" y="0" xml:space="preserve"> agree no</tspan><tspan x="96.64" y="0" letter-spacing="-0.02em">r</tspan><tspan x="102.06" y="0" xml:space="preserve" letter-spacing="0em"> disagree that needs are represented</tspan></text><text transform="translate(14.45 16.7)" font-size="13.42" font-family="ZillaSlab-Regular, Zilla Slab" letter-spacing="-0.01em">A<tspan x="8.51" y="0" letter-spacing="0em">gree that needs are represented</tspan></text><text transform="translate(14.45 113.94)" font-size="13.42" font-family="ZillaSlab-Regular, Zilla Slab">Strong<tspan x="39.69" y="0" letter-spacing="-0.01em">l</tspan><tspan x="43.09" y="0" letter-spacing="-0.02em">y</tspan><tspan x="49.62" y="0" xml:space="preserve"> disagree that needs are represented</tspan></text><text transform="translate(14.7 149.85)" font-size="13.77" font-family="ZillaSlab-Italic, Zilla Slab" font-style="italic"><tspan letter-spacing="-0.01em">n</tspan><tspan x="7.07" y="0" xml:space="preserve"> = </tspan><tspan x="20.91" y="0" letter-spacing="-0.01em">6</tspan><tspan x="28.01" y="0" letter-spacing="-0.02em">,</tspan><tspan x="30.46" y="0">645</tspan></text><rect x="351.2" y="73.62" width="15" height="24.23" fill="#00458b" stroke="#fff" stroke-miterlimit="10" stroke-width="0.32"/><rect x="351.2" y="97.85" width="6" height="24.23" fill="#00458b" stroke="#fff" stroke-miterlimit="10" stroke-width="0.21"/><rect x="351.2" y="49.4" width="33" height="24.23" fill="#00458b" stroke="#fff" stroke-miterlimit="10" stroke-width="0.48"/><rect x="351.2" y="25.17" width="40.2" height="24.23" fill="#00458b" stroke="#fff" stroke-miterlimit="10" stroke-width="0.5"/><rect x="351.2" y="0.62" width="205.8" height="24.23" fill="#00458b" stroke="#fff" stroke-miterlimit="10" stroke-width="0.96"/><text transform="translate(719.71 65.65)" font-size="13.42" font-family="ZillaSlab-Regular, Zilla Slab">11<tspan x="10.33" y="0" letter-spacing="-0.01em">.</tspan><tspan x="12.99" y="0">0%</tspan></text><text transform="translate(719.71 89.88)" font-size="13.42" font-family="ZillaSlab-Regular, Zilla Slab">5<tspan x="6.87" y="0" letter-spacing="-0.01em">.</tspan><tspan x="9.53" y="0">0%</tspan></text><text transform="translate(719.71 114.1)" font-size="13.42" font-family="ZillaSlab-Regular, Zilla Slab">2<tspan x="6.91" y="0" letter-spacing="-0.01em">.</tspan><tspan x="9.57" y="0" letter-spacing="0em">0%</tspan></text><text transform="translate(719.71 16.87)" font-size="13.42" font-family="ZillaSlab-Regular, Zilla Slab">6<tspan x="7.13" y="0" letter-spacing="-0.01em">8</tspan><tspan x="14.21" y="0" letter-spacing="-0.02em">.</tspan><tspan x="16.79" y="0">6%</tspan></text><text transform="translate(719.71 41.42)" font-size="13.42" font-family="ZillaSlab-Regular, Zilla Slab">13.4%</text></svg>
