<?xml version="1.0" encoding="UTF-8"?>
<svg xmlns="http://www.w3.org/2000/svg" viewBox="0 0 1192.38 725.39">
  <defs>
    <style>.cls-1,.cls-22,.cls-23,.cls-24,.cls-25,.cls-26,.cls-27{fill:#fff;}.cls-1,.cls-2{opacity:0.05;}.cls-3,.cls-7{font-size:13.42px;}.cls-15,.cls-3{fill:#f96282;}.cls-17,.cls-23,.cls-3,.cls-7{font-family:ArialMT, Arial;}.cls-4{letter-spacing:-0.11em;}.cls-5{letter-spacing:-0.02em;}.cls-6{letter-spacing:-0.07em;}.cls-8{letter-spacing:-0.02em;}.cls-9{letter-spacing:-0.06em;}.cls-10{letter-spacing:-0.02em;}.cls-11{letter-spacing:0em;}.cls-12{letter-spacing:-0.06em;}.cls-13{letter-spacing:-0.04em;}.cls-14{letter-spacing:0em;}.cls-16,.cls-18,.cls-19,.cls-20,.cls-21{fill:#00458b;}.cls-17{font-size:13.77px;}.cls-18,.cls-19,.cls-20,.cls-21,.cls-22,.cls-24,.cls-25,.cls-26,.cls-27{stroke:#fff;stroke-miterlimit:10;}.cls-18{stroke-width:1.3px;}.cls-19{stroke-width:1.3px;}.cls-20{stroke-width:1.06px;}.cls-21{stroke-width:1.3px;}.cls-22{stroke-width:1.36px;}.cls-23{font-size:10.72px;}.cls-24{stroke-width:1.27px;}.cls-25{stroke-width:1.27px;}.cls-26{stroke-width:1.27px;}.cls-27{stroke-width:1.27px;}</style>
  </defs>
  <g id="Layer_2" data-name="Layer 2">
    <g id="Needs_Segmentation_Differences" data-name="Needs Segmentation Differences">
      <rect class="cls-1" y="654.15" width="1190.29" height="24.23"></rect>
      <rect class="cls-2" y="629.92" width="1190.29" height="24.23"></rect>
      <rect class="cls-1" y="605.7" width="1190.29" height="24.23"></rect>
      <rect class="cls-2" y="581.47" width="1190.29" height="24.23"></rect>
      <rect class="cls-1" y="557.24" width="1190.29" height="24.23"></rect>
      <rect class="cls-2" y="533.01" width="1190.29" height="24.23"></rect>
      <rect class="cls-1" y="508.78" width="1190.29" height="24.23"></rect>
      <rect class="cls-2" y="484.56" width="1190.29" height="24.23"></rect>
      <rect class="cls-1" y="460.33" width="1190.29" height="24.23"></rect>
      <rect class="cls-2" y="436.1" width="1190.29" height="24.23"></rect>
      <rect class="cls-1" y="411.87" width="1190.29" height="24.23"></rect>
      <rect class="cls-2" y="387.64" width="1190.29" height="24.23"></rect>
      <rect class="cls-1" y="363.42" width="1190.29" height="24.23"></rect>
      <rect class="cls-2" y="339.19" width="1190.29" height="24.23"></rect>
      <rect class="cls-1" y="314.96" width="1190.29" height="24.23"></rect>
      <rect class="cls-2" y="290.73" width="1190.29" height="24.23"></rect>
      <rect class="cls-1" y="266.51" width="1190.29" height="24.23"></rect>
      <rect class="cls-2" y="242.28" width="1190.29" height="24.23"></rect>
      <rect class="cls-1" y="218.05" width="1190.29" height="24.23"></rect>
      <rect class="cls-2" y="193.82" width="1190.29" height="24.23"></rect>
      <rect class="cls-1" y="169.59" width="1190.29" height="24.23"></rect>
      <rect class="cls-2" y="145.37" width="1190.29" height="24.23"></rect>
      <rect class="cls-1" y="121.14" width="1190.29" height="24.23"></rect>
      <rect class="cls-2" y="96.91" width="1190.29" height="24.23"></rect>
      <rect class="cls-1" y="72.68" width="1190.29" height="24.23"></rect>
      <rect class="cls-2" y="48.46" width="1190.29" height="24.23"></rect>
      <rect class="cls-1" y="24.23" width="1190.29" height="24.23"></rect>
      <rect class="cls-2" width="1190.29" height="24.23"></rect>
      <text class="cls-3" transform="translate(12.45 88.77)">
        <tspan class="cls-4">T</tspan>
        <tspan x="6.71" y="0">esting across browsers</tspan>
      </text>
      <text class="cls-3" transform="translate(14.45 64.55)">Making a design look/work the same across browsers</text>
      <text class="cls-3" transform="translate(14.45 40.32)">
        <tspan class="cls-5">A</tspan>
        <tspan x="8.71" y="0">voiding or removing a feature that doesn't work across browsers</tspan>
      </text>
      <text class="cls-3" transform="translate(14.45 15.76)">Having to support specific browsers (e.g., IE<tspan class="cls-6" x="262.52" y="0">1</tspan><tspan x="268.99" y="0">1)</tspan></text>
      <text class="cls-7" transform="translate(14.45 113)">Discovering bugs not caught during testing</text>
      <text class="cls-7" transform="translate(14.45 209.91)">Supporting multiple frameworks in the same code base</text>
      <text class="cls-7" transform="translate(14.45 185.68)">Managing user data to comply with laws and regulations</text>
      <text class="cls-7" transform="translate(14.45 161.45)">Keeping up with a large number of new and existing tools or frameworks</text>
      <text class="cls-7" transform="translate(14.45 137.23)">Outdated or inaccurate documentation for frameworks and libraries</text>
      <text class="cls-3" transform="translate(14.45 549.1)">Knowing what browsers support a specific technology</text>
      <text class="cls-7" transform="translate(14.45 524.87)">Implementing performance optimizations</text>
      <text class="cls-7" transform="translate(14.45 500.64)">Making web sites/applications accessible</text>
      <text class="cls-7" transform="translate(14.45 476.42)">Running front-end tests</text>
      <text class="cls-7" transform="translate(14.45 573.33)">Keeping up with changes to the web platform</text>
      <text class="cls-7" transform="translate(14.45 597.56)">Outdated documentation for HTML, CSS, and JavaScript</text>
      <text class="cls-7" transform="translate(14.45 670.24)">Getting users to grant permissions to <tspan class="cls-8" x="223" y="0">W</tspan><tspan x="235.42" y="0">eb</tspan><tspan class="cls-9" x="250.34" y="0"> </tspan><tspan x="253.33" y="0">APIs (e.g., Geolocation)</tspan></text>
      <text class="cls-7" transform="translate(14.45 646.01)">Implementing localization</text>
      <text class="cls-7" transform="translate(14.45 621.79)">Capability of the web to support a specified layout</text>
      <text class="cls-7" transform="translate(14.45 234.14)">Understanding and implementing security measures</text>
      <text class="cls-7" transform="translate(14.45 331.05)">Running end-to-end tests</text>
      <text class="cls-7" transform="translate(14.45 306.82)">Determining the root cause of a bug</text>
      <text class="cls-7" transform="translate(14.45 282.59)">
        <tspan class="cls-10">W</tspan>
        <tspan class="cls-11" x="12.42" y="0">orking with di</tspan>
        <tspan class="cls-5" x="90.73" y="0">f</tspan>
        <tspan x="94.22" y="0">ferent tracking protection and data storage policies in browsers</tspan>
      </text>
      <text class="cls-7" transform="translate(14.45 355.28)">Lack of<tspan class="cls-12" x="43.26" y="0"> </tspan><tspan x="46.25" y="0">APIs to take advantage of device capabilities (e.g, sensors, OS and hardware features, etc.)</tspan></text>
      <text class="cls-7" transform="translate(14.45 452.19)">Lack of support for progressive web apps (P<tspan class="cls-13" x="262.54" y="0">W</tspan><tspan class="cls-14" x="274.71" y="0">As)</tspan></text>
      <text class="cls-7" transform="translate(14.45 427.96)">Using web technologies in a native or hybrid context (e.g, using <tspan class="cls-10" x="379.66" y="0">W</tspan><tspan class="cls-11" x="392.08" y="0">eb</tspan><tspan class="cls-5" x="407.01" y="0">V</tspan><tspan x="415.72" y="0">iews, Electron, CEF)</tspan></text>
      <text class="cls-7" transform="translate(14.45 403.73)">Achieving visual precision on stylized elements (e.g., buttons)</text>
      <text class="cls-7" transform="translate(14.45 379.47)">Integrating with third parties for authentication</text>
      <text class="cls-7" transform="translate(14.45 258.37)">Pinpointing existing performance issues</text>
      <circle class="cls-15" cx="20.74" cy="716.77" r="6.32"></circle>
      <circle class="cls-16" cx="20.74" cy="700.74" r="6.32"></circle>
      <text class="cls-17" transform="translate(31.9 720.92)">n = 1370</text>
      <text class="cls-17" transform="translate(31.9 703.97)">n = 6,645</text>
      <rect class="cls-18" x="617.93" y="96.91" width="236.5" height="24.23"></rect>
      <rect class="cls-18" x="617.93" y="193.82" width="196.5" height="24.23"></rect>
      <rect class="cls-19" x="617.93" y="218.05" width="193.5" height="24.23"></rect>
      <rect class="cls-18" x="617.93" y="169.59" width="200.5" height="24.23"></rect>
      <rect class="cls-18" x="617.93" y="145.37" width="231.5" height="24.23"></rect>
      <rect class="cls-20" x="617.93" y="121.14" width="234.5" height="24.23"></rect>
      <rect class="cls-18" x="617.93" y="314.96" width="173.5" height="24.23"></rect>
      <rect class="cls-18" x="617.93" y="339.19" width="169" height="24.23"></rect>
      <rect class="cls-18" x="617.93" y="363.39" width="165.5" height="24.23"></rect>
      <rect class="cls-18" x="617.93" y="387.64" width="151" height="24.23"></rect>
      <rect class="cls-18" x="617.93" y="290.73" width="177" height="24.23"></rect>
      <rect class="cls-18" x="617.93" y="266.51" width="177.5" height="24.23"></rect>
      <rect class="cls-18" x="617.93" y="242.28" width="188" height="24.23"></rect>
      <rect class="cls-18" x="617.93" y="484.56" width="134.5" height="24.23"></rect>
      <rect class="cls-19" x="617.93" y="508.78" width="134" height="24.23"></rect>
      <rect class="cls-19" x="617.93" y="460.33" width="139.5" height="24.23"></rect>
      <rect class="cls-18" x="617.93" y="436.1" width="143" height="24.23"></rect>
      <rect class="cls-18" x="617.93" y="411.87" width="145" height="24.23"></rect>
      <rect class="cls-18" x="617.93" y="605.7" width="112.5" height="24.23"></rect>
      <rect class="cls-21" x="617.93" y="629.92" width="108.5" height="24.23"></rect>
      <rect class="cls-19" x="617.93" y="581.47" width="122.5" height="24.23"></rect>
      <rect class="cls-19" x="617.93" y="557.24" width="124" height="24.23"></rect>
      <rect class="cls-21" x="617.93" y="654.15" width="79.5" height="24.23"></rect>
      <text class="cls-7" transform="translate(1154.59 113)">4.73</text>
      <text class="cls-7" transform="translate(1154.59 185.68)">4.01</text>
      <text class="cls-7" transform="translate(1154.59 209.91)">3.93</text>
      <text class="cls-7" transform="translate(1154.59 234.14)">3.87</text>
      <text class="cls-7" transform="translate(1154.59 161.45)">4.63</text>
      <text class="cls-7" transform="translate(1154.59 137.23)">4.69</text>
      <text class="cls-7" transform="translate(1154.59 306.82)">3.54</text>
      <text class="cls-7" transform="translate(1154.59 331.05)">3.47</text>
      <text class="cls-7" transform="translate(1154.59 355.28)">3.38</text>
      <text class="cls-7" transform="translate(1154.59 282.59)">3.55</text>
      <text class="cls-7" transform="translate(1154.59 258.37)">3.76</text>
      <text class="cls-7" transform="translate(1154.59 427.96)">2.90</text>
      <text class="cls-7" transform="translate(1154.59 452.19)">2.86</text>
      <text class="cls-7" transform="translate(1154.59 476.42)">2.79</text>
      <text class="cls-7" transform="translate(1154.59 403.73)">3.02</text>
      <text class="cls-7" transform="translate(1154.59 379.47)">3.31</text>
      <text class="cls-7" transform="translate(1154.59 573.33)">2.48</text>
      <text class="cls-7" transform="translate(1154.59 597.56)">2.45</text>
      <text class="cls-7" transform="translate(1154.59 524.87)">2.68</text>
      <text class="cls-7" transform="translate(1154.59 500.65)">2.69</text>
      <text class="cls-7" transform="translate(1154.59 670.24)">1.59</text>
      <text class="cls-7" transform="translate(1154.59 646.01)">2.17</text>
      <text class="cls-7" transform="translate(1154.59 621.79)">2.25</text>
      <path class="cls-22" d="M1187.44,48.74H617.53V22.49h569.91Zm-569-1.05h568.13V23.53H618.42Z"></path>
      <rect class="cls-15" x="618.53" y="36.2" width="435" height="10.93"></rect>
      <rect class="cls-16" x="618.53" y="24.09" width="275" height="12.11"></rect>
      <text class="cls-23" transform="translate(868.84 34.37)">5.50</text>
      <text class="cls-3" transform="translate(1153.53 42.82)">8.70</text>
      <path class="cls-24" d="M1187.44,47.14H617.53V24.32h569.91Zm-569-.91h568.13v-21H618.42Z"></path>
      <rect class="cls-15" x="618.53" y="85.39" width="361" height="10.93"></rect>
      <rect class="cls-16" x="618.53" y="73.27" width="241" height="12.11"></rect>
      <text class="cls-23" transform="translate(835.61 83.56)">4.82</text>
      <text class="cls-3" transform="translate(1153.53 92)">7.22</text>
      <path class="cls-24" d="M1187.44,96.32H617.53V73.51h569.91Zm-569-.9h568.13v-21H618.42Z"></path>
      <rect class="cls-15" x="618.53" y="61.16" width="483" height="10.93"></rect>
      <rect class="cls-16" x="618.53" y="49.05" width="243" height="12.11"></rect>
      <text class="cls-23" transform="translate(836.61 59.33)">4.86</text>
      <text class="cls-3" transform="translate(1153.53 67.77)">9.66</text>
      <path class="cls-25" d="M1191.74,72.09H617.53V49.28h574.21Zm-573.31-.9h572.41v-21H618.43Z"></path>
      <rect class="cls-15" x="618.53" y="545.72" width="222" height="10.93"></rect>
      <rect class="cls-16" x="618.53" y="533.6" width="125" height="12.11"></rect>
      <text class="cls-23" transform="translate(719.36 543.88)">2.50</text>
      <text class="cls-3" transform="translate(1153.53 551.33)">4.44</text>
      <path class="cls-26" d="M1191.7,556.65H617.53V533.84H1191.7Zm-573.27-.91H1190.8v-21H618.43Z"></path>
      <rect class="cls-15" x="618.53" y="12.55" width="507" height="10.93"></rect>
      <rect class="cls-16" x="618.53" y="0.44" width="377" height="12.11"></rect>
      <text class="cls-23" transform="translate(973 10.72)">7.54</text>
      <text class="cls-3" transform="translate(1153.53 18.17)">10.14</text>
      <path class="cls-27" d="M1191.74,23.49H617.53V.68h574.21Zm-573.31-.91h572.41v-21H618.43Z"></path>
    </g>
  </g>
</svg>
