<?xml version="1.0" encoding="UTF-8"?>
<svg xmlns="http://www.w3.org/2000/svg" viewBox="0 0 1193.22 727.46">
  <defs>
    <style>.cls-1,.cls-22,.cls-23,.cls-24{fill:#fff;}.cls-1,.cls-2{opacity:0.05;}.cls-3,.cls-7{font-size:13.42px;}.cls-17,.cls-22,.cls-3,.cls-7{font-family:ArialMT, Arial;}.cls-4{letter-spacing:-0.11em;}.cls-5{letter-spacing:-0.02em;}.cls-6{letter-spacing:-0.07em;}.cls-15,.cls-7{fill:#f96282;}.cls-8{letter-spacing:-0.02em;}.cls-9{letter-spacing:-0.06em;}.cls-10{letter-spacing:-0.02em;}.cls-11{letter-spacing:0em;}.cls-12{letter-spacing:-0.06em;}.cls-13{letter-spacing:-0.04em;}.cls-14{letter-spacing:0em;}.cls-16,.cls-18,.cls-19,.cls-20,.cls-21{fill:#00458b;}.cls-17{font-size:13.77px;}.cls-18,.cls-19,.cls-20,.cls-21,.cls-23,.cls-24{stroke:#fff;stroke-miterlimit:10;}.cls-18{stroke-width:1.3px;}.cls-19{stroke-width:1.3px;}.cls-20{stroke-width:1.06px;}.cls-21{stroke-width:1.3px;}.cls-22{font-size:10.72px;}.cls-23{stroke-width:1.28px;}.cls-24{stroke-width:1.27px;}</style>
  </defs>
  <g id="Layer_2" data-name="Layer 2">
    <g id="Needs_Segmentation_Differences" data-name="Needs Segmentation Differences">
      <rect class="cls-1" y="655.12" width="1190.29" height="24.23"></rect>
      <rect class="cls-2" y="630.89" width="1190.29" height="24.23"></rect>
      <rect class="cls-1" y="606.67" width="1190.29" height="24.23"></rect>
      <rect class="cls-2" y="582.44" width="1190.29" height="24.23"></rect>
      <rect class="cls-1" y="558.21" width="1190.29" height="24.23"></rect>
      <rect class="cls-2" y="533.98" width="1190.29" height="24.23"></rect>
      <rect class="cls-1" y="509.76" width="1190.29" height="24.23"></rect>
      <rect class="cls-2" y="485.53" width="1190.29" height="24.23"></rect>
      <rect class="cls-1" y="461.3" width="1190.29" height="24.23"></rect>
      <rect class="cls-2" y="437.07" width="1190.29" height="24.23"></rect>
      <rect class="cls-1" y="412.84" width="1190.29" height="24.23"></rect>
      <rect class="cls-2" y="388.62" width="1190.29" height="24.23"></rect>
      <rect class="cls-1" y="364.39" width="1190.29" height="24.23"></rect>
      <rect class="cls-2" y="340.16" width="1190.29" height="24.23"></rect>
      <rect class="cls-1" y="315.93" width="1190.29" height="24.23"></rect>
      <rect class="cls-2" y="291.7" width="1190.29" height="24.23"></rect>
      <rect class="cls-1" y="267.48" width="1190.29" height="24.23"></rect>
      <rect class="cls-2" y="243.25" width="1190.29" height="24.23"></rect>
      <rect class="cls-1" y="219.02" width="1190.29" height="24.23"></rect>
      <rect class="cls-2" y="194.79" width="1190.29" height="24.23"></rect>
      <rect class="cls-1" y="170.57" width="1190.29" height="24.23"></rect>
      <rect class="cls-2" y="146.34" width="1190.29" height="24.23"></rect>
      <rect class="cls-1" y="122.11" width="1190.29" height="24.23"></rect>
      <rect class="cls-2" y="97.88" width="1190.29" height="24.23"></rect>
      <rect class="cls-1" y="73.65" width="1190.29" height="24.23"></rect>
      <rect class="cls-2" y="49.43" width="1190.29" height="24.23"></rect>
      <rect class="cls-1" y="25.2" width="1190.29" height="24.23"></rect>
      <rect class="cls-2" y="0.97" width="1190.29" height="24.23"></rect>
      <text class="cls-3" transform="translate(12.45 89.74)">
        <tspan class="cls-4">T</tspan>
        <tspan x="6.71" y="0">esting across browsers</tspan>
      </text>
      <text class="cls-3" transform="translate(14.45 65.52)">Making a design look/work the same across browsers</text>
      <text class="cls-3" transform="translate(14.45 41.29)">
        <tspan class="cls-5">A</tspan>
        <tspan x="8.71" y="0">voiding or removing a feature that doesn't work across browsers</tspan>
      </text>
      <text class="cls-3" transform="translate(14.45 16.73)">Having to support specific browsers (e.g., IE<tspan class="cls-6" x="262.52" y="0">1</tspan><tspan x="268.99" y="0">1)</tspan></text>
      <text class="cls-3" transform="translate(14.45 113.97)">Discovering bugs not caught during testing</text>
      <text class="cls-3" transform="translate(14.45 210.88)">Supporting multiple frameworks in the same code base</text>
      <text class="cls-3" transform="translate(14.45 186.66)">Managing user data to comply with laws and regulations</text>
      <text class="cls-7" transform="translate(14.45 162.43)">Keeping up with a large number of new and existing tools or frameworks</text>
      <text class="cls-3" transform="translate(14.45 138.2)">Outdated or inaccurate documentation for frameworks and libraries</text>
      <text class="cls-3" transform="translate(14.45 550.07)">Knowing what browsers support a specific technology</text>
      <text class="cls-3" transform="translate(14.45 525.84)">Implementing performance optimizations</text>
      <text class="cls-3" transform="translate(14.45 501.62)">Making web sites/applications accessible</text>
      <text class="cls-3" transform="translate(14.45 477.39)">Running front-end tests</text>
      <text class="cls-7" transform="translate(14.45 574.3)">Keeping up with changes to the web platform</text>
      <text class="cls-3" transform="translate(14.45 598.53)">Outdated documentation for HTML, CSS, and JavaScript</text>
      <text class="cls-3" transform="translate(14.45 671.21)">Getting users to grant permissions to <tspan class="cls-8" x="223" y="0">W</tspan><tspan x="235.42" y="0">eb</tspan><tspan class="cls-9" x="250.34" y="0"> </tspan><tspan x="253.33" y="0">APIs (e.g., Geolocation)</tspan></text>
      <text class="cls-3" transform="translate(14.45 646.98)">Implementing localization</text>
      <text class="cls-3" transform="translate(14.45 622.76)">Capability of the web to support a specified layout</text>
      <text class="cls-3" transform="translate(14.45 235.11)">Understanding and implementing security measures</text>
      <text class="cls-3" transform="translate(14.45 332.02)">Running end-to-end tests</text>
      <text class="cls-3" transform="translate(14.45 307.8)">Determining the root cause of a bug</text>
      <text class="cls-3" transform="translate(14.45 283.57)">
        <tspan class="cls-10">W</tspan>
        <tspan class="cls-11" x="12.42" y="0">orking with di</tspan>
        <tspan class="cls-5" x="90.73" y="0">f</tspan>
        <tspan x="94.22" y="0">ferent tracking protection and data storage policies in browsers</tspan>
      </text>
      <text class="cls-3" transform="translate(14.45 356.25)">Lack of<tspan class="cls-12" x="43.26" y="0"> </tspan><tspan x="46.25" y="0">APIs to take advantage of device capabilities (e.g, sensors, OS and hardware features, etc.)</tspan></text>
      <text class="cls-3" transform="translate(14.45 453.16)">Lack of support for progressive web apps (P<tspan class="cls-13" x="262.54" y="0">W</tspan><tspan class="cls-14" x="274.71" y="0">As)</tspan></text>
      <text class="cls-3" transform="translate(14.45 428.93)">Using web technologies in a native or hybrid context (e.g, using <tspan class="cls-10" x="379.66" y="0">W</tspan><tspan class="cls-11" x="392.08" y="0">eb</tspan><tspan class="cls-5" x="407.01" y="0">V</tspan><tspan x="415.72" y="0">iews, Electron, CEF)</tspan></text>
      <text class="cls-3" transform="translate(14.45 404.7)">Achieving visual precision on stylized elements (e.g., buttons)</text>
      <text class="cls-3" transform="translate(14.45 380.45)">Integrating with third parties for authentication</text>
      <text class="cls-3" transform="translate(14.45 259.34)">Pinpointing existing performance issues</text>
      <circle class="cls-15" cx="10.03" cy="718.84" r="6.32"></circle>
      <circle class="cls-16" cx="10.03" cy="702.81" r="6.32"></circle>
      <text class="cls-17" transform="translate(21.18 722.98)">n = 838</text>
      <text class="cls-17" transform="translate(21.18 706.04)">n = 6,645</text>
      <rect class="cls-18" x="617.93" y="73.65" width="241" height="24.23"></rect>
      <rect class="cls-18" x="617.93" y="97.88" width="236.5" height="24.23"></rect>
      <rect class="cls-18" x="617.93" y="49.43" width="243" height="24.23"></rect>
      <rect class="cls-18" x="617.93" y="25.2" width="275" height="24.23"></rect>
      <rect class="cls-18" x="617.93" y="0.65" width="377" height="24.23"></rect>
      <rect class="cls-18" x="617.93" y="194.79" width="196.5" height="24.23"></rect>
      <rect class="cls-19" x="617.93" y="219.02" width="193.5" height="24.23"></rect>
      <rect class="cls-18" x="617.93" y="170.57" width="200.5" height="24.23"></rect>
      <rect class="cls-20" x="617.93" y="122.11" width="234.5" height="24.23"></rect>
      <rect class="cls-18" x="617.93" y="315.93" width="173.5" height="24.23"></rect>
      <rect class="cls-18" x="617.93" y="340.16" width="169" height="24.23"></rect>
      <rect class="cls-18" x="617.93" y="364.36" width="165.5" height="24.23"></rect>
      <rect class="cls-18" x="617.93" y="388.62" width="151" height="24.23"></rect>
      <rect class="cls-18" x="617.93" y="291.7" width="177" height="24.23"></rect>
      <rect class="cls-18" x="617.93" y="267.48" width="177.5" height="24.23"></rect>
      <rect class="cls-18" x="617.93" y="243.25" width="188" height="24.23"></rect>
      <rect class="cls-18" x="617.93" y="485.53" width="134.5" height="24.23"></rect>
      <rect class="cls-19" x="617.93" y="509.76" width="134" height="24.23"></rect>
      <rect class="cls-19" x="617.93" y="461.3" width="139.5" height="24.23"></rect>
      <rect class="cls-18" x="617.93" y="437.07" width="143" height="24.23"></rect>
      <rect class="cls-18" x="617.93" y="412.84" width="145" height="24.23"></rect>
      <rect class="cls-18" x="617.93" y="606.67" width="112.5" height="24.23"></rect>
      <rect class="cls-21" x="617.93" y="630.89" width="108.5" height="24.23"></rect>
      <rect class="cls-19" x="617.93" y="582.44" width="122.5" height="24.23"></rect>
      <rect class="cls-18" x="617.93" y="533.98" width="125" height="24.23"></rect>
      <rect class="cls-21" x="617.93" y="655.12" width="79.5" height="24.23"></rect>
      <text class="cls-3" transform="translate(1154.59 65.52)">4.86</text>
      <text class="cls-3" transform="translate(1154.59 89.74)">4.82</text>
      <text class="cls-3" transform="translate(1154.59 113.97)">4.73</text>
      <text class="cls-3" transform="translate(1154.59 16.73)">7.54</text>
      <text class="cls-3" transform="translate(1154.59 41.29)">5.50</text>
      <text class="cls-3" transform="translate(1154.59 186.66)">4.01</text>
      <text class="cls-3" transform="translate(1154.59 210.88)">3.93</text>
      <text class="cls-3" transform="translate(1154.59 235.11)">3.87</text>
      <text class="cls-3" transform="translate(1154.59 138.2)">4.69</text>
      <text class="cls-3" transform="translate(1154.59 307.8)">3.54</text>
      <text class="cls-3" transform="translate(1154.59 332.02)">3.47</text>
      <text class="cls-3" transform="translate(1154.59 356.25)">3.38</text>
      <text class="cls-3" transform="translate(1154.59 283.57)">3.55</text>
      <text class="cls-3" transform="translate(1154.59 259.34)">3.76</text>
      <text class="cls-3" transform="translate(1154.59 428.93)">2.90</text>
      <text class="cls-3" transform="translate(1154.59 453.16)">2.86</text>
      <text class="cls-3" transform="translate(1154.59 477.39)">2.79</text>
      <text class="cls-3" transform="translate(1154.59 404.71)">3.02</text>
      <text class="cls-3" transform="translate(1154.59 380.45)">3.31</text>
      <text class="cls-3" transform="translate(1154.59 550.07)">2.50</text>
      <text class="cls-3" transform="translate(1154.59 598.53)">2.45</text>
      <text class="cls-3" transform="translate(1154.59 525.84)">2.68</text>
      <text class="cls-3" transform="translate(1154.59 501.62)">2.69</text>
      <text class="cls-3" transform="translate(1154.59 671.21)">1.59</text>
      <text class="cls-3" transform="translate(1154.59 646.98)">2.17</text>
      <text class="cls-3" transform="translate(1154.59 622.76)">2.25</text>
      <rect class="cls-15" x="618.05" y="159.04" width="522" height="10.93"></rect>
      <rect class="cls-16" x="618.05" y="146.93" width="231.5" height="12.11"></rect>
      <text class="cls-22" transform="translate(825.69 157.21)">4.63</text>
      <text class="cls-7" transform="translate(1154.62 163.34)">10.44</text>
      <path class="cls-23" d="M1192.58,170H617.05V147.16h575.53ZM618,169.07h573.73v-21H618Z"></path>
      <rect class="cls-15" x="617.85" y="570.46" width="376.5" height="10.93"></rect>
      <rect class="cls-16" x="617.85" y="558.34" width="124" height="12.11"></rect>
      <text class="cls-22" transform="translate(718 568.63)">2.48</text>
      <text class="cls-7" transform="translate(1154.41 574.75)">7.53</text>
      <path class="cls-24" d="M1189.27,581.39H616.85V558.58h572.42Zm-571.52-.9h570.62v-21H617.75Z"></path>
    </g>
  </g>
</svg>
