<svg xmlns="http://www.w3.org/2000/svg" width="610.43" height="132.82" viewBox="0 0 610.43 132.82"><rect y="73.37" width="610.43" height="24.23" fill="#fff" opacity="0.05"/><rect y="49.14" width="610.43" height="24.23" opacity="0.05"/><rect y="24.91" width="610.43" height="24.23" fill="#fff" opacity="0.05"/><rect y="0.68" width="610.43" height="24.23" opacity="0.05"/><text transform="translate(12.45 89.46)" font-size="13.42" font-family="ZillaSlab-Regular, Zilla Slab">Decline to state</text><text transform="translate(14.45 65.23)" font-size="13.42" font-family="ZillaSlab-Regular, Zilla Slab"><tspan letter-spacing="-0.02em">N</tspan><tspan x="9.61" y="0">eithe</tspan><tspan x="38.47" y="0" letter-spacing="-0.02em">r</tspan><tspan x="43.89" y="0" xml:space="preserve"> of these describe me</tspan></text><text transform="translate(14.45 41)" font-size="13.42" font-family="ZillaSlab-Regular, Zilla Slab"><tspan letter-spacing="-0.02em">I</tspan><tspan x="4.04" y="0" letter-spacing="0em">dentif</tspan><tspan x="38.42" y="0" letter-spacing="-0.02em">y</tspan><tspan x="44.95" y="0" xml:space="preserve"> as</tspan><tspan x="60.36" y="0" letter-spacing="-0.02em"> </tspan><tspan x="63.09" y="0" letter-spacing="-0.01em">w</tspan><tspan x="73.22" y="0" letter-spacing="0em">oman</tspan></text><text transform="translate(14.45 16.45)" font-size="13.42" font-family="ZillaSlab-Regular, Zilla Slab"><tspan letter-spacing="-0.02em">I</tspan><tspan x="4.04" y="0" letter-spacing="0em">dentif</tspan><tspan x="38.42" y="0" letter-spacing="-0.02em">y</tspan><tspan x="44.95" y="0" xml:space="preserve"> as man</tspan></text><rect x="246.96" y="73.53" width="5.4" height="24.23" fill="#00458b" stroke="#fff" stroke-miterlimit="10" stroke-width="0.19"/><rect x="246.96" y="49.3" width="12.9" height="24.23" fill="#00458b" stroke="#fff" stroke-miterlimit="10" stroke-width="0.3"/><rect x="246.96" y="25.07" width="20.4" height="24.23" fill="#00458b" stroke="#fff" stroke-miterlimit="10" stroke-width="0.35"/><rect x="246.96" y="0.52" width="261" height="24.23" fill="#00458b" stroke="#fff" stroke-miterlimit="10" stroke-width="1.08"/><text transform="translate(560.45 65.23)" font-size="13.42" font-family="ZillaSlab-Regular, Zilla Slab">4.3%</text><text transform="translate(560.45 89.46)" font-size="13.42" font-family="ZillaSlab-Regular, Zilla Slab">1.8%</text><text transform="translate(560.45 16.45)" font-size="13.42" font-family="ZillaSlab-Regular, Zilla Slab">8<tspan x="7.22" y="0" letter-spacing="-0.05em">7</tspan><tspan x="12.92" y="0" letter-spacing="-0.01em">.</tspan><tspan x="15.58" y="0" letter-spacing="0em">0%</tspan></text><text transform="translate(560.45 41)" font-size="13.42" font-family="ZillaSlab-Regular, Zilla Slab"><tspan letter-spacing="-0.01em">6</tspan><tspan x="6.94" y="0">.8%</tspan></text><text transform="translate(14.45 129.74)" font-size="13.77" font-family="ZillaSlab-Italic, Zilla Slab" font-style="italic"><tspan letter-spacing="-0.01em">n</tspan><tspan x="7.07" y="0" xml:space="preserve"> = 6645</tspan></text></svg>