<svg xmlns="http://www.w3.org/2000/svg" width="610.91" height="178.14" viewBox="0 0 610.91 178.14"><rect y="121.66" width="610.91" height="24.23" fill="#fff" opacity="0.05"/><rect y="97.43" width="595.15" height="24.23" opacity="0.05"/><rect y="73.2" width="595.15" height="24.23" fill="#fff" opacity="0.05"/><rect y="48.98" width="595.15" height="24.23" opacity="0.05"/><rect y="0.52" width="595.15" height="24.23" opacity="0.05"/><rect y="24.75" width="595.15" height="24.23" fill="#fff" opacity="0.05"/><text transform="translate(14.45 16.61)" font-size="13.42" font-family="ZillaSlab-Regular, Zilla Slab">Full stack <tspan x="58.76" y="0" letter-spacing="-0.02em">(</tspan><tspan x="62.14" y="0" letter-spacing="0em">front-end and bac</tspan><tspan x="165.11" y="0" letter-spacing="-0.04em">k</tspan><tspan x="171.59" y="0">-en</tspan><tspan x="190.26" y="0" letter-spacing="-0.02em">d</tspan><tspan x="197.4" y="0">)</tspan></text><text transform="translate(14.45 113.52)" font-size="13.42" font-family="ZillaSlab-Regular, Zilla Slab">Othe<tspan x="28.58" y="0" letter-spacing="-0.02em">r</tspan><tspan x="34" y="0" xml:space="preserve"> type of</tspan><tspan x="76.78" y="0" letter-spacing="-0.02em"> </tspan><tspan x="79.52" y="0" letter-spacing="-0.01em">w</tspan><tspan x="89.65" y="0">eb d</tspan><tspan x="113.53" y="0" letter-spacing="-0.02em">e</tspan><tspan x="119.6" y="0" letter-spacing="-0.02em">v</tspan><tspan x="126.2" y="0">elope</tspan><tspan x="156.64" y="0" letter-spacing="-0.02em">r</tspan></text><text transform="translate(14.45 89.29)" font-size="13.42" font-family="ZillaSlab-Regular, Zilla Slab">Bac<tspan x="20.78" y="0" letter-spacing="-0.04em">k</tspan><tspan x="27.27" y="0">-end</tspan></text><text transform="translate(14.45 65.06)" font-size="13.42" font-family="ZillaSlab-Regular, Zilla Slab">Front-end (primari<tspan x="109.65" y="0" letter-spacing="-0.01em">l</tspan><tspan x="113.05" y="0" letter-spacing="-0.02em">y</tspan><tspan x="119.58" y="0" xml:space="preserve" letter-spacing="0em"> CSS and HTM</tspan><tspan x="203.52" y="0" letter-spacing="-0.02em">L</tspan><tspan x="210.57" y="0" letter-spacing="0em">)</tspan></text><text transform="translate(14.45 40.84)" font-size="13.42" font-family="ZillaSlab-Regular, Zilla Slab">Front-end (primari<tspan x="109.65" y="0" letter-spacing="-0.01em">l</tspan><tspan x="113.05" y="0" letter-spacing="-0.02em">y</tspan><tspan x="119.58" y="0" letter-spacing="-0.02em"> </tspan><tspan x="122.37" y="0" letter-spacing="-0.03em">J</tspan><tspan x="128.13" y="0" letter-spacing="-0.02em">a</tspan><tspan x="134.33" y="0">vaScrip</tspan><tspan x="177.77" y="0" letter-spacing="-0.03em">t</tspan><tspan x="182.34" y="0">)</tspan></text><text transform="translate(14.45 137.75)" font-size="13.42" font-family="ZillaSlab-Regular, Zilla Slab"><tspan letter-spacing="-0.06em">T</tspan><tspan x="7.46" y="0">est Enginee</tspan><tspan x="74.66" y="0" letter-spacing="-0.02em">r</tspan></text><text transform="translate(14.45 175.06)" font-size="13.77" font-family="ZillaSlab-Italic, Zilla Slab" font-style="italic"><tspan letter-spacing="-0.01em">n</tspan><tspan x="7.07" y="0" xml:space="preserve"> = 6645</tspan></text><rect x="246.76" y="0.52" width="177.3" height="24.23" fill="#00458b" stroke="#fff" stroke-miterlimit="10" stroke-width="0.81"/><rect x="246.76" y="97.43" width="7.5" height="24.23" fill="#00458b" stroke="#fff" stroke-miterlimit="10" stroke-width="0.81"/><rect x="246.76" y="121.66" width="1.5" height="24.23" fill="#00458b" stroke="#fff" stroke-miterlimit="10" stroke-width="0.32"/><rect x="246.76" y="73.2" width="12.3" height="24.23" fill="#00458b" stroke="#fff" stroke-miterlimit="10" stroke-width="0.81"/><rect x="246.76" y="48.98" width="28.8" height="24.23" fill="#00458b" stroke="#fff" stroke-miterlimit="10" stroke-width="0.81"/><rect x="246.76" y="24.75" width="72.6" height="24.23" fill="#00458b" stroke="#fff" stroke-miterlimit="10" stroke-width="0.81"/><text transform="translate(559.14 16.37)" font-size="13.42" font-family="ZillaSlab-Regular, Zilla Slab">59.1%</text><text transform="translate(559.14 89.05)" font-size="13.42" font-family="ZillaSlab-Regular, Zilla Slab">4.1%</text><text transform="translate(559.14 113.28)" font-size="13.42" font-family="ZillaSlab-Regular, Zilla Slab">2.5%</text><text transform="translate(559.14 137.51)" font-size="13.42" font-family="ZillaSlab-Regular, Zilla Slab" letter-spacing="-0.01em">0<tspan x="7.54" y="0" letter-spacing="0em">.5%</tspan></text><text transform="translate(559.14 64.82)" font-size="13.42" font-family="ZillaSlab-Regular, Zilla Slab">9<tspan x="7.13" y="0" letter-spacing="-0.02em">.</tspan><tspan x="9.7" y="0">6%</tspan></text><text transform="translate(559.14 40.6)" font-size="13.42" font-family="ZillaSlab-Regular, Zilla Slab">24.2%</text></svg>
