<svg xmlns="http://www.w3.org/2000/svg" width="610.91" height="154.01" viewBox="0 0 610.91 154.01"><rect y="97.29" width="610.91" height="24.23" opacity="0.05"/><rect y="73.06" width="610.91" height="24.23" fill="#fff" opacity="0.05"/><rect y="48.83" width="610.91" height="24.23" opacity="0.05"/><rect y="0.38" width="610.91" height="24.23" opacity="0.05"/><rect y="24.6" width="610.91" height="24.23" fill="#fff" opacity="0.05"/><text transform="translate(14.45 16.47)" font-size="13.42" font-family="ZillaSlab-Regular, Zilla Slab">D<tspan x="9.46" y="0" letter-spacing="-0.02em">e</tspan><tspan x="15.52" y="0" letter-spacing="-0.02em">v</tspan><tspan x="22.13" y="0" letter-spacing="0em">eloping 10+</tspan><tspan x="86.65" y="0" letter-spacing="-0.02em"> </tspan><tspan x="89.38" y="0" letter-spacing="-0.01em">y</tspan><tspan x="96.06" y="0">ears</tspan></text><text transform="translate(14.45 113.38)" font-size="13.42" font-family="ZillaSlab-Regular, Zilla Slab">D<tspan x="9.46" y="0" letter-spacing="-0.02em">e</tspan><tspan x="15.52" y="0" letter-spacing="-0.02em">v</tspan><tspan x="22.13" y="0" letter-spacing="0em">eloping less than 1</tspan><tspan x="127.66" y="0" letter-spacing="-0.02em"> </tspan><tspan x="130.38" y="0" letter-spacing="-0.01em">y</tspan><tspan x="137.07" y="0">ea</tspan><tspan x="149.85" y="0" letter-spacing="-0.02em">r</tspan></text><text transform="translate(14.45 89.15)" font-size="13.42" font-family="ZillaSlab-Regular, Zilla Slab">D<tspan x="9.46" y="0" letter-spacing="-0.02em">e</tspan><tspan x="15.52" y="0" letter-spacing="-0.02em">v</tspan><tspan x="22.13" y="0" letter-spacing="0em">eloping 6-9</tspan><tspan x="87.03" y="0" letter-spacing="-0.02em"> </tspan><tspan x="89.75" y="0" letter-spacing="-0.01em">y</tspan><tspan x="96.44" y="0">ears</tspan></text><text transform="translate(14.45 64.92)" font-size="13.42" font-family="ZillaSlab-Regular, Zilla Slab">D<tspan x="9.46" y="0" letter-spacing="-0.02em">e</tspan><tspan x="15.52" y="0" letter-spacing="-0.02em">v</tspan><tspan x="22.13" y="0" letter-spacing="0em">eloping </tspan><tspan x="68.11" y="0" letter-spacing="-0.01em">1</tspan><tspan x="73.13" y="0" letter-spacing="-0.01em">-</tspan><tspan x="77.61" y="0">2</tspan><tspan x="84.52" y="0" letter-spacing="-0.02em"> </tspan><tspan x="87.25" y="0" letter-spacing="-0.01em">y</tspan><tspan x="93.93" y="0">ears</tspan></text><text transform="translate(14.45 40.69)" font-size="13.42" font-family="ZillaSlab-Regular, Zilla Slab">D<tspan x="9.46" y="0" letter-spacing="-0.02em">e</tspan><tspan x="15.52" y="0" letter-spacing="-0.02em">v</tspan><tspan x="22.13" y="0" letter-spacing="0em">eloping </tspan><tspan x="68.11" y="0" letter-spacing="-0.02em">3</tspan><tspan x="74.47" y="0" letter-spacing="-0.01em">-</tspan><tspan x="78.98" y="0">5</tspan><tspan x="85.85" y="0" letter-spacing="-0.02em"> </tspan><tspan x="88.57" y="0" letter-spacing="-0.01em">y</tspan><tspan x="95.26" y="0">ears</tspan></text><text transform="translate(14.45 150.93)" font-size="13.77" font-family="ZillaSlab-Italic, Zilla Slab" font-style="italic"><tspan letter-spacing="-0.01em">n</tspan><tspan x="7.07" y="0" xml:space="preserve"> = 6645</tspan></text><rect x="246.76" y="97.29" width="25.2" height="24.23" fill="#00458b" stroke="#fff" stroke-miterlimit="10" stroke-width="1.48"/><rect x="246.76" y="0.38" width="92.7" height="24.23" fill="#00458b" stroke="#fff" stroke-miterlimit="10" stroke-width="0.58"/><rect x="246.76" y="73.06" width="50.4" height="24.23" fill="#00458b" stroke="#fff" stroke-miterlimit="10" stroke-width="1.63"/><rect x="246.76" y="48.83" width="54.3" height="24.23" fill="#00458b" stroke="#fff" stroke-miterlimit="10" stroke-width="1.11"/><rect x="246.76" y="24.6" width="77.1" height="24.23" fill="#00458b" stroke="#fff" stroke-miterlimit="10" stroke-width="0.83"/><text transform="translate(559.14 16.47)" font-size="13.42" font-family="ZillaSlab-Regular, Zilla Slab">3<tspan x="6.56" y="0" letter-spacing="-0.01em">0</tspan><tspan x="14.1" y="0">.9%</tspan></text><text transform="translate(559.14 89.15)" font-size="13.42" font-family="ZillaSlab-Regular, Zilla Slab">1<tspan x="5.17" y="0" letter-spacing="-0.01em">6</tspan><tspan x="12.1" y="0">.8%</tspan></text><text transform="translate(559.14 113.38)" font-size="13.42" font-family="ZillaSlab-Regular, Zilla Slab"><tspan letter-spacing="-0.01em">8</tspan><tspan x="7.08" y="0">.4%</tspan></text><text transform="translate(559.14 64.92)" font-size="13.42" font-family="ZillaSlab-Regular, Zilla Slab">1<tspan x="5.17" y="0" letter-spacing="-0.01em">8</tspan><tspan x="12.25" y="0">.1%</tspan></text><text transform="translate(559.14 40.69)" font-size="13.42" font-family="ZillaSlab-Regular, Zilla Slab">25<tspan x="13.78" y="0" letter-spacing="-0.05em">.</tspan><tspan x="15.95" y="0" letter-spacing="0em">7%</tspan></text></svg>