<svg xmlns="http://www.w3.org/2000/svg" width="684.84" height="152.77" viewBox="0 0 684.84 152.77"><rect y="97.68" width="684.84" height="24.23" opacity="0.05"/><rect y="73.46" width="684.84" height="24.23" fill="#fff" opacity="0.05"/><rect y="49.23" width="684.84" height="24.23" opacity="0.05"/><rect y="25" width="684.84" height="24.23" fill="#fff" opacity="0.05"/><rect y="0.77" width="684.84" height="24.23" opacity="0.05"/><text transform="translate(14.45 89.55)" font-size="13.42" font-family="ZillaSlab-Regular, Zilla Slab">Dissatisfied</text><text transform="translate(14.45 65.32)" font-size="13.42" font-family="ZillaSlab-Regular, Zilla Slab"><tspan letter-spacing="-0.02em">N</tspan><tspan x="9.61" y="0">eithe</tspan><tspan x="38.47" y="0" letter-spacing="-0.02em">r</tspan><tspan x="43.89" y="0" xml:space="preserve"> satisfied no</tspan><tspan x="113.24" y="0" letter-spacing="-0.02em">r</tspan><tspan x="118.66" y="0" xml:space="preserve"> dissatisfied</tspan></text><text transform="translate(14.45 41.09)" font-size="13.42" font-family="ZillaSlab-Regular, Zilla Slab">Strong<tspan x="39.69" y="0" letter-spacing="-0.01em">l</tspan><tspan x="43.09" y="0" letter-spacing="-0.02em">y</tspan><tspan x="49.62" y="0" xml:space="preserve"> satisfied</tspan></text><text transform="translate(14.45 16.54)" font-size="13.42" font-family="ZillaSlab-Regular, Zilla Slab">Satisfied</text><text transform="translate(14.45 113.77)" font-size="13.42" font-family="ZillaSlab-Regular, Zilla Slab">Strong<tspan x="39.69" y="0" letter-spacing="-0.01em">l</tspan><tspan x="43.09" y="0" letter-spacing="-0.02em">y</tspan><tspan x="49.62" y="0" xml:space="preserve"> dissatisfied</tspan></text><text transform="translate(14.7 149.68)" font-size="13.77" font-family="ZillaSlab-Italic, Zilla Slab" font-style="italic"><tspan letter-spacing="-0.01em">n</tspan><tspan x="7.07" y="0" xml:space="preserve"> = </tspan><tspan x="20.91" y="0" letter-spacing="-0.01em">6</tspan><tspan x="28.01" y="0" letter-spacing="-0.02em">,</tspan><tspan x="30.46" y="0">645</tspan></text><rect x="288.84" y="73.46" width="16.8" height="24.23" fill="#00458b" stroke="#fff" stroke-miterlimit="10" stroke-width="0.34"/><rect x="288.84" y="97.68" width="3.3" height="24.23" fill="#00458b" stroke="#fff" stroke-miterlimit="10" stroke-width="0.15"/><rect x="288.84" y="49.23" width="46.5" height="24.23" fill="#00458b" stroke="#fff" stroke-miterlimit="10" stroke-width="0.57"/><rect x="288.84" y="25" width="51.3" height="24.23" fill="#00458b" stroke="#fff" stroke-miterlimit="10" stroke-width="0.56"/><rect x="288.84" y="0.45" width="181.8" height="24.23" fill="#00458b" stroke="#fff" stroke-miterlimit="10" stroke-width="0.9"/><text transform="translate(617.55 65.32)" font-size="13.42" font-family="ZillaSlab-Regular, Zilla Slab">15.5%</text><text transform="translate(617.55 89.55)" font-size="13.42" font-family="ZillaSlab-Regular, Zilla Slab">5<tspan x="6.87" y="0" letter-spacing="-0.02em">.</tspan><tspan x="9.45" y="0">6%</tspan></text><text transform="translate(617.55 113.77)" font-size="13.42" font-family="ZillaSlab-Regular, Zilla Slab">1.1%</text><text transform="translate(617.55 16.54)" font-size="13.42" font-family="ZillaSlab-Regular, Zilla Slab">6<tspan x="7.13" y="0" letter-spacing="-0.01em">0</tspan><tspan x="14.67" y="0" letter-spacing="-0.02em">.</tspan><tspan x="17.24" y="0">6%</tspan></text><text transform="translate(617.55 41.09)" font-size="13.42" font-family="ZillaSlab-Regular, Zilla Slab"><tspan letter-spacing="-0.02em">1</tspan><tspan x="4.94" y="0" letter-spacing="-0.05em">7</tspan><tspan x="10.64" y="0">.1%</tspan></text></svg>