<svg xmlns="http://www.w3.org/2000/svg" width="791.87" height="271.6" viewBox="0 0 791.87 271.6"><rect y="122.12" width="791.82" height="24.23" fill="#fff" opacity="0.05"/><rect x="0.04" y="97.89" width="791.82" height="24.23" opacity="0.05"/><rect x="0.04" y="73.66" width="791.82" height="24.23" fill="#fff" opacity="0.05"/><rect y="122.12" width="791.82" height="24.23" fill="#fff" opacity="0.05"/><rect x="0.04" y="49.44" width="791.82" height="24.23" opacity="0.05"/><rect x="0.04" y="194.56" width="791.82" height="24.23" opacity="0.05"/><rect x="0.04" y="170.34" width="791.82" height="24.23" fill="#fff" opacity="0.05"/><rect x="0.04" y="218.79" width="791.82" height="24.23" fill="#fff" opacity="0.05"/><rect x="0.04" y="146.11" width="791.82" height="24.23" opacity="0.05"/><rect x="0.04" y="25.21" width="791.82" height="24.23" fill="#fff" opacity="0.05"/><rect x="0.04" y="0.98" width="791.82" height="24.23" opacity="0.05"/><text transform="translate(14.7 113.98)" font-size="13.42" fill="#f96282" font-family="ZillaSlab-Regular, Zilla Slab">Documentation <tspan x="93.46" y="0" letter-spacing="-0.01em">f</tspan><tspan x="97.64" y="0">o</tspan><tspan x="104.53" y="0" letter-spacing="-0.02em">r</tspan><tspan x="109.95" y="0" xml:space="preserve" letter-spacing="0em"> fram</tspan><tspan x="140.97" y="0" letter-spacing="-0.01em">e</tspan><tspan x="147.16" y="0" letter-spacing="-0.01em">w</tspan><tspan x="157.29" y="0">o</tspan><tspan x="164.17" y="0" letter-spacing="-0.01em">r</tspan><tspan x="169.73" y="0" letter-spacing="0em">ks &amp; libraries</tspan></text><text transform="translate(14.7 88.78)" font-size="13.42" fill="#f96282" font-family="ZillaSlab-Regular, Zilla Slab">I<tspan x="4.32" y="0" letter-spacing="-0.01em">D</tspan><tspan x="13.62" y="0">Es</tspan></text><text transform="translate(14.51 65.52)" font-size="13.42" fill="#f96282" font-family="ZillaSlab-Regular, Zilla Slab">Br<tspan x="13.74" y="0" letter-spacing="-0.01em">o</tspan><tspan x="20.49" y="0" letter-spacing="-0.01em">w</tspan><tspan x="30.62" y="0" letter-spacing="0em">se</tspan><tspan x="42.8" y="0" letter-spacing="-0.02em">r</tspan><tspan x="48.23" y="0" xml:space="preserve" letter-spacing="0em"> d</tspan><tspan x="58.64" y="0" letter-spacing="-0.02em">e</tspan><tspan x="64.7" y="0" letter-spacing="-0.02em">v</tspan><tspan x="71.21" y="0" xml:space="preserve" letter-spacing="0em"> tools</tspan></text><text transform="translate(14.51 41.3)" font-size="13.42" fill="#f96282" font-family="ZillaSlab-Regular, Zilla Slab">HTML, CS<tspan x="59.16" y="0" letter-spacing="-0.01em">S</tspan><tspan x="66.18" y="0" letter-spacing="0em">,</tspan><tspan x="68.88" y="0" letter-spacing="-0.02em"> </tspan><tspan x="71.67" y="0" letter-spacing="-0.03em">J</tspan><tspan x="77.42" y="0" letter-spacing="-0.02em">a</tspan><tspan x="83.62" y="0">vaScript, etc. documentation</tspan></text><text transform="translate(14.51 16.74)" font-size="13.42" font-family="ZillaSlab-Regular, Zilla Slab"><tspan letter-spacing="-0.02em">M</tspan><tspan x="11.53" y="0">ean </tspan><tspan x="35.05" y="0" letter-spacing="-0.02em">o</tspan><tspan x="41.72" y="0" letter-spacing="-0.02em">v</tspan><tspan x="48.32" y="0">erall satisfaction</tspan></text><text transform="translate(14.7 162.2)" font-size="13.42" fill="#f96282" font-family="ZillaSlab-Regular, Zilla Slab"><tspan letter-spacing="-0.02em">A</tspan><tspan x="8.47" y="0">utomated br</tspan><tspan x="80.42" y="0" letter-spacing="-0.01em">o</tspan><tspan x="87.16" y="0" letter-spacing="-0.01em">w</tspan><tspan x="97.3" y="0" letter-spacing="0em">se</tspan><tspan x="109.48" y="0" letter-spacing="-0.02em">r</tspan><tspan x="114.9" y="0" xml:space="preserve" letter-spacing="0em"> testing tools</tspan></text><text transform="translate(14.7 137.93)" font-size="13.42" fill="#f96282" font-family="ZillaSlab-Regular, Zilla Slab"><tspan letter-spacing="-0.02em">P</tspan><tspan x="7.41" y="0">er</tspan><tspan x="19.35" y="0" letter-spacing="-0.01em">f</tspan><tspan x="23.54" y="0" letter-spacing="0em">ormance tools </tspan></text><text transform="translate(14.45 268.52)" font-size="13.77" font-family="ZillaSlab-Italic, Zilla Slab" font-style="italic"><tspan letter-spacing="-0.01em">n</tspan><tspan x="7.07" y="0" xml:space="preserve"> = </tspan><tspan x="20.91" y="0" letter-spacing="-0.01em">6</tspan><tspan x="28.01" y="0" letter-spacing="-0.02em">,</tspan><tspan x="30.46" y="0">645</tspan></text><text transform="translate(14.7 210.65)" font-size="13.42" fill="#f96282" font-family="ZillaSlab-Regular, Zilla Slab">Br<tspan x="13.74" y="0" letter-spacing="-0.01em">o</tspan><tspan x="20.49" y="0" letter-spacing="-0.01em">w</tspan><tspan x="30.62" y="0" letter-spacing="0em">se</tspan><tspan x="42.8" y="0" letter-spacing="-0.02em">r</tspan><tspan x="48.23" y="0" xml:space="preserve" letter-spacing="0em"> compatibilit</tspan><tspan x="121.76" y="0" letter-spacing="-0.02em">y</tspan></text><text transform="translate(14.7 186.42)" font-size="13.42" fill="#f96282" font-family="ZillaSlab-Regular, Zilla Slab"><tspan letter-spacing="-0.01em">A</tspan><tspan x="8.51" y="0">ccessibilit</tspan><tspan x="65.95" y="0" letter-spacing="-0.02em">y</tspan><tspan x="72.49" y="0" xml:space="preserve"> tools</tspan></text><text transform="translate(14.7 234.88)" font-size="13.42" fill="#f96282" font-family="ZillaSlab-Regular, Zilla Slab">Pr<tspan x="13.34" y="0" letter-spacing="-0.01em">i</tspan><tspan x="16.92" y="0">vac</tspan><tspan x="36.43" y="0" letter-spacing="-0.02em">y</tspan><tspan x="42.97" y="0" xml:space="preserve"> and securit</tspan><tspan x="110.88" y="0" letter-spacing="-0.02em">y</tspan><tspan x="117.41" y="0" xml:space="preserve"> tools</tspan></text><rect x="288.84" y="73.66" width="396" height="24.23" fill="#f96282" stroke="#fff" stroke-miterlimit="10" stroke-width="1.66"/><rect x="288.77" y="146.11" width="304" height="24.23" fill="#f96282" stroke="#fff" stroke-miterlimit="10" stroke-width="1.45"/><rect x="288.84" y="97.89" width="363" height="24.23" fill="#f96282" stroke="#fff" stroke-miterlimit="10" stroke-width="1.6"/><rect x="288.84" y="49.44" width="401" height="24.23" fill="#f96282" stroke="#fff" stroke-miterlimit="10" stroke-width="1.66"/><rect x="288.84" y="170.34" width="302" height="24.23" fill="#f96282" stroke="#fff" stroke-miterlimit="10" stroke-width="1.45"/><rect x="288.84" y="218.79" width="287" height="24.23" fill="#f96282" stroke="#fff" stroke-miterlimit="10" stroke-width="1.41"/><rect x="288.84" y="194.56" width="298" height="24.23" fill="#f96282" stroke="#fff" stroke-miterlimit="10" stroke-width="1.45"/><rect x="288.84" y="121.85" width="327" height="24.23" fill="#f96282" stroke="#fff" stroke-miterlimit="10" stroke-width="1.5"/><rect x="288.84" y="25.21" width="423" height="24.23" fill="#f96282" stroke="#fff" stroke-miterlimit="10" stroke-width="1.61"/><rect x="288.84" y="0.66" width="387" height="24.23" fill="#00458b" stroke="#fff" stroke-miterlimit="10" stroke-width="1.31"/><text transform="translate(739.08 65.52)" font-size="13.42" fill="#f96282" font-family="ZillaSlab-Regular, Zilla Slab">4<tspan x="7.23" y="0" letter-spacing="-0.01em">.</tspan><tspan x="9.89" y="0">01</tspan></text><text transform="translate(739.26 113.98)" font-size="13.42" fill="#f96282" font-family="ZillaSlab-Regular, Zilla Slab">3<tspan x="6.56" y="0" letter-spacing="-0.02em">.</tspan><tspan x="9.14" y="0">63</tspan></text><text transform="translate(739.26 88.78)" font-size="13.42" fill="#f96282" font-family="ZillaSlab-Regular, Zilla Slab">3.96</text><text transform="translate(739.26 137.93)" font-size="13.42" fill="#f96282" font-family="ZillaSlab-Regular, Zilla Slab">3.27</text><text transform="translate(739.26 162.2)" font-size="13.42" fill="#f96282" font-family="ZillaSlab-Regular, Zilla Slab">3<tspan x="6.56" y="0" letter-spacing="-0.01em">.</tspan><tspan x="9.22" y="0" letter-spacing="0em">04</tspan></text><text transform="translate(739.26 186.42)" font-size="13.42" fill="#f96282" font-family="ZillaSlab-Regular, Zilla Slab">3<tspan x="6.56" y="0" letter-spacing="-0.01em">.</tspan><tspan x="9.22" y="0" letter-spacing="0em">02</tspan></text><text transform="translate(739.26 210.65)" font-size="13.42" fill="#f96282" font-family="ZillaSlab-Regular, Zilla Slab">2.98</text><text transform="translate(739.26 234.88)" font-size="13.42" fill="#f96282" font-family="ZillaSlab-Regular, Zilla Slab">2.87</text><text transform="translate(739.08 16.74)" font-size="13.42" font-family="ZillaSlab-Regular, Zilla Slab">3.87</text><text transform="translate(739.08 41.3)" font-size="13.42" fill="#f96282" font-family="ZillaSlab-Regular, Zilla Slab">4.23</text></svg>
