<svg xmlns="http://www.w3.org/2000/svg" width="861.93" height="169.27" viewBox="0 0 861.93 169.27"><rect y="121.96" width="861.93" height="24.23" fill="#fff" opacity="0.05"/><rect y="97.73" width="861.93" height="24.23" opacity="0.05"/><rect y="73.51" width="861.93" height="24.23" fill="#fff" opacity="0.05"/><rect y="49.28" width="861.93" height="24.23" opacity="0.05"/><rect y="25.05" width="861.93" height="24.23" fill="#fff" opacity="0.05"/><rect y="0.82" width="861.93" height="24.23" opacity="0.05"/><text transform="translate(807.58 65.37)" font-size="13.42" font-family="ZillaSlab-Regular, Zilla Slab">11<tspan x="10.33" y="0" letter-spacing="-0.01em">.</tspan><tspan x="12.99" y="0">0%</tspan></text><text transform="translate(807.58 16.58)" font-size="13.42" font-family="ZillaSlab-Regular, Zilla Slab">44<tspan x="14.46" y="0" letter-spacing="-0.02em">.</tspan><tspan x="17.04" y="0" letter-spacing="0em">6%</tspan></text><text transform="translate(807.58 41.14)" font-size="13.42" font-family="ZillaSlab-Regular, Zilla Slab">2<tspan x="6.91" y="0" letter-spacing="-0.01em">0</tspan><tspan x="14.45" y="0" letter-spacing="-0.02em">.</tspan><tspan x="17.03" y="0">6%</tspan></text><text transform="translate(807.58 113.82)" font-size="13.42" font-family="ZillaSlab-Regular, Zilla Slab">1<tspan x="5.17" y="0" letter-spacing="-0.01em">0</tspan><tspan x="12.71" y="0">.4%</tspan></text><text transform="translate(807.58 138.05)" font-size="13.42" font-family="ZillaSlab-Regular, Zilla Slab">2.8%</text><text transform="translate(807.58 89.59)" font-size="13.42" font-family="ZillaSlab-Regular, Zilla Slab">1<tspan x="5.17" y="0" letter-spacing="-0.01em">0</tspan><tspan x="12.71" y="0" letter-spacing="-0.02em">.</tspan><tspan x="15.28" y="0" letter-spacing="0em">6%</tspan></text><rect x="563.31" y="49.28" width="33" height="24.23" fill="#00458b" stroke="#fff" stroke-miterlimit="10" stroke-width="0.48"/><rect x="563.31" y="25.05" width="61.8" height="24.23" fill="#00458b" stroke="#fff" stroke-miterlimit="10" stroke-width="0.61"/><rect x="563.31" y="0.5" width="133.8" height="24.23" fill="#00458b" stroke="#fff" stroke-miterlimit="10" stroke-width="0.77"/><rect x="563.31" y="121.96" width="8.4" height="24.23" fill="#00458b" stroke="#fff" stroke-miterlimit="10" stroke-width="0.27"/><rect x="563.31" y="97.73" width="31.2" height="24.23" fill="#00458b" stroke="#fff" stroke-miterlimit="10" stroke-width="0.51"/><rect x="563.31" y="73.51" width="31.8" height="24.23" fill="#00458b" stroke="#fff" stroke-miterlimit="10" stroke-width="0.48"/><text transform="translate(14.45 65.37)" font-size="13.42" font-family="ZillaSlab-Regular, Zilla Slab">Documentation of<tspan x="104.62" y="0" letter-spacing="-0.02em"> </tspan><tspan x="107.36" y="0" letter-spacing="-0.01em">w</tspan><tspan x="117.49" y="0">eb accessibilit</tspan><tspan x="197.93" y="0" letter-spacing="-0.02em">y</tspan><tspan x="204.47" y="0" letter-spacing="-0.03em"> </tspan><tspan x="207.11" y="0">A</tspan><tspan x="215.81" y="0" letter-spacing="-0.01em">PI</tspan><tspan x="227.64" y="0">s</tspan></text><text transform="translate(14.45 41.14)" font-size="13.42" font-family="ZillaSlab-Regular, Zilla Slab">Lack of support from <tspan x="124.36" y="0" letter-spacing="-0.02em">m</tspan><tspan x="135.63" y="0" letter-spacing="-0.02em">y</tspan><tspan x="142.17" y="0" xml:space="preserve"> empl</tspan><tspan x="174.05" y="0" letter-spacing="-0.01em">o</tspan><tspan x="180.73" y="0" letter-spacing="-0.01em">y</tspan><tspan x="187.41" y="0">e</tspan><tspan x="193.72" y="0" letter-spacing="-0.02em">r</tspan><tspan x="199.14" y="0" xml:space="preserve"> regarding accessibilit</tspan><tspan x="326.73" y="0" letter-spacing="-0.02em">y</tspan></text><text transform="translate(14.45 16.58)" font-size="13.42" font-family="ZillaSlab-Regular, Zilla Slab">Learning h<tspan x="62.78" y="0" letter-spacing="-0.01em">o</tspan><tspan x="69.53" y="0" letter-spacing="-0.02em">w</tspan><tspan x="79.5" y="0" xml:space="preserve" letter-spacing="0em"> to design and build accessible </tspan><tspan x="256.65" y="0" letter-spacing="-0.01em">e</tspan><tspan x="262.82" y="0">xperiences</tspan></text><text transform="translate(14.45 138.05)" font-size="13.42" font-family="ZillaSlab-Regular, Zilla Slab">Othe<tspan x="28.58" y="0" letter-spacing="-0.02em">r</tspan></text><text transform="translate(14.45 113.82)" font-size="13.42" font-family="ZillaSlab-Regular, Zilla Slab">Support in<tspan x="61.43" y="0" letter-spacing="-0.02em"> </tspan><tspan x="64.17" y="0" letter-spacing="-0.01em">w</tspan><tspan x="74.3" y="0">eb fram</tspan><tspan x="118.79" y="0" letter-spacing="-0.01em">e</tspan><tspan x="124.98" y="0" letter-spacing="-0.01em">w</tspan><tspan x="135.11" y="0">o</tspan><tspan x="141.99" y="0" letter-spacing="-0.01em">r</tspan><tspan x="147.55" y="0">ks</tspan></text><text transform="translate(14.45 89.59)" font-size="13.42" font-family="ZillaSlab-Regular, Zilla Slab">Interoperabilit<tspan x="84.84" y="0" letter-spacing="-0.02em">y</tspan><tspan x="91.38" y="0" xml:space="preserve" letter-spacing="0em"> bet</tspan><tspan x="112.87" y="0" letter-spacing="-0.01em">w</tspan><tspan x="123.01" y="0">een assist</tspan><tspan x="179.2" y="0" letter-spacing="-0.01em">i</tspan><tspan x="182.78" y="0" letter-spacing="-0.02em">v</tspan><tspan x="189.38" y="0">e technologies li</tspan><tspan x="282.43" y="0" letter-spacing="-0.02em">k</tspan><tspan x="289.18" y="0" letter-spacing="0em">e screen readers</tspan></text><text transform="translate(14.59 166.19)" font-size="13.77" font-family="ZillaSlab-Italic, Zilla Slab" font-style="italic"><tspan letter-spacing="-0.01em">n</tspan><tspan x="7.07" y="0" xml:space="preserve"> = 5,526</tspan></text></svg>