<svg xmlns="http://www.w3.org/2000/svg" width="862.7" height="172.78" viewBox="0 0 862.7 172.78"><rect y="121.86" width="862.66" height="24.23" fill="#fff" opacity="0.05"/><rect x="0.05" y="97.64" width="862.66" height="24.23" opacity="0.05"/><rect x="0.05" y="73.41" width="862.66" height="24.23" fill="#fff" opacity="0.05"/><rect y="121.86" width="862.66" height="24.23" fill="#fff" opacity="0.05"/><rect x="0.05" y="49.18" width="862.66" height="24.23" opacity="0.05"/><rect x="0.05" y="24.95" width="862.66" height="24.23" fill="#fff" opacity="0.05"/><rect x="0.05" y="0.73" width="862.66" height="24.23" opacity="0.05"/><text transform="translate(12.51 89.5)" font-size="13.42" font-family="ZillaSlab-Regular, Zilla Slab">Lack of interoperabilit<tspan x="128.51" y="0" letter-spacing="-0.02em">y</tspan><tspan x="135.04" y="0" xml:space="preserve"> bet</tspan><tspan x="156.54" y="0" letter-spacing="-0.01em">w</tspan><tspan x="166.67" y="0">een implementations</tspan></text><text transform="translate(14.51 65.27)" font-size="13.42" font-family="ZillaSlab-Regular, Zilla Slab"><tspan letter-spacing="-0.02em">N</tspan><tspan x="9.61" y="0" letter-spacing="0em">ot enoug</tspan><tspan x="60.27" y="0" letter-spacing="-0.01em">h</tspan><tspan x="67.65" y="0" xml:space="preserve"> components built into HTM</tspan><tspan x="231.89" y="0" letter-spacing="-0.02em">L</tspan></text><text transform="translate(14.51 41.04)" font-size="13.42" font-family="ZillaSlab-Regular, Zilla Slab">Inabilit<tspan x="41.72" y="0" letter-spacing="-0.02em">y</tspan><tspan x="48.25" y="0" xml:space="preserve" letter-spacing="0em"> to customize components built into HTM</tspan><tspan x="289.78" y="0" letter-spacing="-0.02em">L</tspan></text><text transform="translate(14.51 16.49)" font-size="13.42" font-family="ZillaSlab-Regular, Zilla Slab">Lack of br<tspan x="57.03" y="0" letter-spacing="-0.01em">o</tspan><tspan x="63.78" y="0" letter-spacing="-0.01em">w</tspan><tspan x="73.91" y="0">serengine adoption</tspan><tspan x="185.29" y="0" letter-spacing="-0.04em">/</tspan><tspan x="189.36" y="0">support </tspan><tspan x="238.07" y="0" letter-spacing="-0.01em">f</tspan><tspan x="242.25" y="0" letter-spacing="0em">o</tspan><tspan x="249.14" y="0" letter-spacing="-0.02em">r</tspan><tspan x="254.56" y="0" xml:space="preserve" letter-spacing="0em"> a g</tspan><tspan x="274.48" y="0" letter-spacing="-0.01em">i</tspan><tspan x="278.07" y="0" letter-spacing="-0.02em">v</tspan><tspan x="284.67" y="0">en </tspan><tspan x="301.71" y="0" letter-spacing="-0.01em">f</tspan><tspan x="305.9" y="0">eature</tspan></text><text transform="translate(14.51 113.73)" font-size="13.42" font-family="ZillaSlab-Regular, Zilla Slab">The qualit<tspan x="58.66" y="0" letter-spacing="-0.02em">y</tspan><tspan x="65.2" y="0" xml:space="preserve"> of components built into HTM</tspan><tspan x="243.65" y="0" letter-spacing="-0.02em">L</tspan></text><text transform="translate(14.51 137.95)" font-size="13.42" font-family="ZillaSlab-Regular, Zilla Slab">Othe<tspan x="28.58" y="0" letter-spacing="-0.02em">r</tspan></text><text transform="translate(14.7 169.7)" font-size="13.77" font-family="ZillaSlab-Italic, Zilla Slab" font-style="italic"><tspan letter-spacing="-0.01em">n</tspan><tspan x="7.07" y="0" xml:space="preserve"> = 4</tspan><tspan x="28.19" y="0" letter-spacing="-0.01em">,</tspan><tspan x="30.74" y="0">063</tspan></text><rect x="563.53" y="73.41" width="36.6" height="24.23" fill="#00458b" stroke="#fff" stroke-miterlimit="10" stroke-width="0.5"/><rect x="563.46" y="121.86" width="22.8" height="24.23" fill="#00458b" stroke="#fff" stroke-miterlimit="10" stroke-width="0.4"/><rect x="563.53" y="97.64" width="33.3" height="24.23" fill="#00458b" stroke="#fff" stroke-miterlimit="10" stroke-width="0.49"/><rect x="563.53" y="49.18" width="40.5" height="24.23" fill="#00458b" stroke="#fff" stroke-miterlimit="10" stroke-width="0.53"/><rect x="563.53" y="24.95" width="79.8" height="24.23" fill="#00458b" stroke="#fff" stroke-miterlimit="10" stroke-width="0.7"/><rect x="563.53" y="0.4" width="87" height="24.23" fill="#00458b" stroke="#fff" stroke-miterlimit="10" stroke-width="0.62"/><text transform="translate(809.71 65.27)" font-size="13.42" font-family="ZillaSlab-Regular, Zilla Slab">13.5%</text><text transform="translate(809.71 89.5)" font-size="13.42" font-family="ZillaSlab-Regular, Zilla Slab">12.2%</text><text transform="translate(809.64 137.95)" font-size="13.42" font-family="ZillaSlab-Regular, Zilla Slab"><tspan letter-spacing="-0.05em">7</tspan><tspan x="5.7" y="0" letter-spacing="-0.02em">.</tspan><tspan x="8.28" y="0">6%</tspan></text><text transform="translate(809.71 113.73)" font-size="13.42" font-family="ZillaSlab-Regular, Zilla Slab">11.1%</text><text transform="translate(809.71 16.49)" font-size="13.42" font-family="ZillaSlab-Regular, Zilla Slab">29<tspan x="14.04" y="0" letter-spacing="-0.01em">.</tspan><tspan x="16.69" y="0" letter-spacing="0em">0%</tspan></text><text transform="translate(809.71 41.04)" font-size="13.42" font-family="ZillaSlab-Regular, Zilla Slab">2<tspan x="6.91" y="0" letter-spacing="-0.01em">6</tspan><tspan x="13.85" y="0" letter-spacing="-0.02em">.</tspan><tspan x="16.42" y="0">6%</tspan></text></svg>