<svg xmlns="http://www.w3.org/2000/svg" viewBox="0 0 862.7 251.75"><defs><style>.cls-1,.cls-2{opacity:0.05;}.cls-2{fill:#fff;}.cls-3{font-size:13.42px;}.cls-3,.cls-7{font-family:ArialMT, Arial;}.cls-4{letter-spacing:-0.06em;}.cls-5{letter-spacing:0em;}.cls-6{letter-spacing:-0.07em;}.cls-7{font-size:13.77px;}.cls-10,.cls-11,.cls-12,.cls-13,.cls-14,.cls-15,.cls-16,.cls-8,.cls-9{fill:#00458b;stroke:#fff;stroke-miterlimit:10;}.cls-8{stroke-width:0.6px;}.cls-9{stroke-width:0.57px;}.cls-10{stroke-width:0.66px;}.cls-11{stroke-width:0.75px;}.cls-12{stroke-width:0.68px;}.cls-13{stroke-width:0.49px;}.cls-14{stroke-width:0.52px;}.cls-15{stroke-width:0.53px;}.cls-16{stroke-width:0.46px;}</style></defs><g id="Layer_2" data-name="Layer 2"><g id="JavaScript"><g id="barTextPercentages"><rect class="cls-1" y="194.49" width="862.7" height="24.23"/><rect class="cls-2" y="170.26" width="862.7" height="24.23"/><rect class="cls-1" y="146.03" width="862.7" height="24.23"/><rect class="cls-2" y="121.8" width="862.7" height="24.23"/><rect class="cls-1" y="97.57" width="862.7" height="24.23"/><rect class="cls-2" y="73.35" width="862.7" height="24.23"/><rect class="cls-1" y="49.12" width="862.7" height="24.23"/><rect class="cls-2" y="24.89" width="862.7" height="24.23"/><rect class="cls-1" y="0.66" width="862.7" height="24.23"/><text class="cls-3" transform="translate(14.45 89.44)">Lack of interoperability between implementations</text><text class="cls-3" transform="translate(14.45 65.21)">Other</text><text class="cls-3" transform="translate(14.45 40.98)">Inadequate performance (speed and size), particularly on low-end devices</text><text class="cls-3" transform="translate(14.45 16.43)">Lack of browser/engine adoption/support for a given language feature</text><text class="cls-3" transform="translate(14.45 113.66)">Lack of debug tooling support (browser dev tools)</text><text class="cls-3" transform="translate(14.45 210.57)">Lack of internationalization<tspan class="cls-4" x="158.89" y="0"> </tspan><tspan class="cls-5" x="161.87" y="0">APIs or localization support</tspan></text><text class="cls-3" transform="translate(14.45 186.35)">Browser updates causing things to break</text><text class="cls-3" transform="translate(14.45 162.12)">Lack of perfomance (speed and size) profiling support</text><text class="cls-3" transform="translate(14.45 137.89)">Lack of build tooling support (in Babel/webpack/uglif<tspan class="cls-6" x="308.81" y="0">y</tspan><tspan x="314.53" y="0">.js/etc.)</tspan></text><text class="cls-7" transform="translate(14.7 247.28)">n = 5,472</text><rect class="cls-8" x="563.53" y="73.35" width="51.5" height="24.23"/><rect class="cls-9" x="563.53" y="97.57" width="45.5" height="24.23"/><rect class="cls-10" x="563.53" y="49.12" width="63.5" height="24.23"/><rect class="cls-11" x="563.53" y="24.89" width="92" height="24.23"/><rect class="cls-12" x="563.53" y="0.34" width="104" height="24.23"/><rect class="cls-13" x="563.53" y="194.49" width="28.5" height="24.23"/><rect class="cls-14" x="563.53" y="170.26" width="32.5" height="24.23"/><rect class="cls-15" x="563.53" y="146.03" width="38.5" height="24.23"/><rect class="cls-16" x="563.53" y="121.8" width="44.5" height="24.23"/><text class="cls-3" transform="translate(809.71 65.21)">12.7%</text><text class="cls-3" transform="translate(809.71 89.44)">10.3%</text><text class="cls-3" transform="translate(809.71 113.66)">9.1%</text><text class="cls-3" transform="translate(809.71 16.43)">20.8%</text><text class="cls-3" transform="translate(809.71 40.98)">18.4%</text><text class="cls-3" transform="translate(809.71 186.35)">6.5%</text><text class="cls-3" transform="translate(809.71 210.57)">5.7%</text><text class="cls-3" transform="translate(809.71 162.12)">7.7%</text><text class="cls-3" transform="translate(809.71 137.89)">8.9%</text></g></g></g></svg>