<svg xmlns="http://www.w3.org/2000/svg" width="861.93" height="203.02" viewBox="0 0 861.93 203.02"><rect y="121.96" width="861.93" height="24.23" fill="#fff" opacity="0.05"/><rect y="97.73" width="861.93" height="24.23" opacity="0.05"/><rect y="146.19" width="861.93" height="24.23" opacity="0.05"/><rect y="73.51" width="861.93" height="24.23" fill="#fff" opacity="0.05"/><rect y="49.28" width="861.93" height="24.23" opacity="0.05"/><rect y="25.05" width="861.93" height="24.23" fill="#fff" opacity="0.05"/><rect y="0.82" width="861.93" height="24.23" opacity="0.05"/><text transform="translate(807.58 65.37)" font-size="13.42" font-family="ZillaSlab-Regular, Zilla Slab">1<tspan x="5.17" y="0" letter-spacing="-0.01em">6</tspan><tspan x="12.1" y="0">.2%</tspan></text><text transform="translate(807.58 16.58)" font-size="13.42" font-family="ZillaSlab-Regular, Zilla Slab">24.9%</text><text transform="translate(807.58 41.14)" font-size="13.42" font-family="ZillaSlab-Regular, Zilla Slab">23.5%</text><text transform="translate(807.58 113.82)" font-size="13.42" font-family="ZillaSlab-Regular, Zilla Slab">11.3%</text><text transform="translate(807.58 162.28)" font-size="13.42" font-family="ZillaSlab-Regular, Zilla Slab">3.3%</text><text transform="translate(807.58 138.05)" font-size="13.42" font-family="ZillaSlab-Regular, Zilla Slab"><tspan letter-spacing="-0.01em">8</tspan><tspan x="7.08" y="0">.9%</tspan></text><text transform="translate(807.58 89.59)" font-size="13.42" font-family="ZillaSlab-Regular, Zilla Slab">11.9%</text><rect x="563.31" y="49.28" width="48.6" height="24.23" fill="#00458b" stroke="#fff" stroke-miterlimit="10" stroke-width="0.58"/><rect x="563.31" y="25.05" width="70.5" height="24.23" fill="#00458b" stroke="#fff" stroke-miterlimit="10" stroke-width="0.66"/><rect x="563.31" y="0.5" width="74.7" height="24.23" fill="#00458b" stroke="#fff" stroke-miterlimit="10" stroke-width="0.58"/><rect x="563.31" y="121.96" width="26.7" height="24.23" fill="#00458b" stroke="#fff" stroke-miterlimit="10" stroke-width="0.48"/><rect x="563.31" y="97.73" width="33.9" height="24.23" fill="#00458b" stroke="#fff" stroke-miterlimit="10" stroke-width="0.53"/><rect x="563.31" y="146.19" width="9.9" height="24.23" fill="#00458b" stroke="#fff" stroke-miterlimit="10" stroke-width="0.29"/><rect x="563.31" y="73.51" width="35.7" height="24.23" fill="#00458b" stroke="#fff" stroke-miterlimit="10" stroke-width="0.51"/><text transform="translate(14.45 65.37)" font-size="13.42" font-family="ZillaSlab-Regular, Zilla Slab">Documentation and training</text><text transform="translate(14.45 41.14)" font-size="13.42" font-family="ZillaSlab-Regular, Zilla Slab">Support <tspan x="49.98" y="0" letter-spacing="-0.01em">f</tspan><tspan x="54.17" y="0" letter-spacing="0em">o</tspan><tspan x="61.05" y="0" letter-spacing="-0.02em">r</tspan><tspan x="66.47" y="0" xml:space="preserve"> legac</tspan><tspan x="99.43" y="0" letter-spacing="-0.02em">y</tspan><tspan x="105.96" y="0" xml:space="preserve" letter-spacing="0em"> br</tspan><tspan x="121.81" y="0" letter-spacing="-0.01em">o</tspan><tspan x="128.56" y="0" letter-spacing="-0.01em">w</tspan><tspan x="138.69" y="0">sers</tspan></text><text transform="translate(14.45 16.58)" font-size="13.42" font-family="ZillaSlab-Regular, Zilla Slab">Broad interoperabilit<tspan x="121.8" y="0" letter-spacing="-0.02em">y</tspan><tspan x="128.33" y="0" xml:space="preserve"> across br</tspan><tspan x="184.18" y="0" letter-spacing="-0.01em">o</tspan><tspan x="190.93" y="0" letter-spacing="-0.01em">w</tspan><tspan x="201.06" y="0" letter-spacing="0em">sers</tspan></text><text transform="translate(14.45 138.05)" font-size="13.42" font-family="ZillaSlab-Regular, Zilla Slab">Organization appr<tspan x="106.63" y="0" letter-spacing="-0.02em">o</tspan><tspan x="113.3" y="0">val</tspan></text><text transform="translate(14.45 113.82)" font-size="13.42" font-family="ZillaSlab-Regular, Zilla Slab">Finding out about the n<tspan x="136.19" y="0" letter-spacing="-0.01em">e</tspan><tspan x="142.38" y="0" letter-spacing="-0.02em">w</tspan><tspan x="152.35" y="0" xml:space="preserve"> technolog</tspan><tspan x="212.77" y="0" letter-spacing="-0.02em">y</tspan></text><text transform="translate(14.45 162.28)" font-size="13.42" font-family="ZillaSlab-Regular, Zilla Slab"><tspan letter-spacing="-0.02em">N</tspan><tspan x="9.61" y="0" letter-spacing="0em">one of the ab</tspan><tspan x="83.23" y="0" letter-spacing="-0.02em">o</tspan><tspan x="89.9" y="0" letter-spacing="-0.02em">v</tspan><tspan x="96.5" y="0">e</tspan></text><text transform="translate(14.45 89.59)" font-size="13.42" font-family="ZillaSlab-Regular, Zilla Slab"><tspan letter-spacing="-0.06em">T</tspan><tspan x="7.46" y="0" letter-spacing="0em">ooling support and d</tspan><tspan x="127.3" y="0" letter-spacing="-0.02em">e</tspan><tspan x="133.36" y="0" letter-spacing="-0.02em">v</tspan><tspan x="139.87" y="0" xml:space="preserve" letter-spacing="0em"> ecos</tspan><tspan x="168.18" y="0" letter-spacing="-0.01em">y</tspan><tspan x="174.87" y="0">stem</tspan></text><text transform="translate(14.75 199.93)" font-size="13.77" font-family="ZillaSlab-Italic, Zilla Slab" font-style="italic"><tspan letter-spacing="-0.01em">n</tspan><tspan x="7.07" y="0" xml:space="preserve"> = 5,526</tspan></text></svg>
