<svg xmlns="http://www.w3.org/2000/svg" width="862.49" height="217.67" viewBox="0 0 862.49 217.67"><rect y="170.36" width="862.49" height="24.23" fill="#fff" opacity="0.05"/><rect y="146.13" width="862.49" height="24.23" opacity="0.05"/><rect y="121.9" width="862.49" height="24.23" fill="#fff" opacity="0.05"/><rect y="97.68" width="862.49" height="24.23" opacity="0.05"/><rect y="73.45" width="862.49" height="24.23" fill="#fff" opacity="0.05"/><rect y="49.22" width="862.49" height="24.23" opacity="0.05"/><rect y="24.99" width="862.49" height="24.23" fill="#fff" opacity="0.05"/><rect y="0.76" width="862.49" height="24.23" opacity="0.05"/><text transform="translate(12.45 89.54)" font-size="13.42" font-family="ZillaSlab-Regular, Zilla Slab">Othe<tspan x="28.58" y="0" letter-spacing="-0.02em">r</tspan></text><text transform="translate(14.45 65.31)" font-size="13.42" font-family="ZillaSlab-Regular, Zilla Slab">Lack of build tooling support <tspan x="169.53" y="0" letter-spacing="-0.02em">(</tspan><tspan x="172.92" y="0" letter-spacing="0em">in Emscripten/Babel</tspan><tspan x="290.88" y="0" letter-spacing="-0.01em">/</tspan><tspan x="295.24" y="0" letter-spacing="-0.01em">w</tspan><tspan x="305.37" y="0">ebpack</tspan><tspan x="345.88" y="0" letter-spacing="-0.04em">/</tspan><tspan x="349.88" y="0">etc.)</tspan></text><text transform="translate(14.45 41.08)" font-size="13.42" font-family="ZillaSlab-Regular, Zilla Slab">Lack of br<tspan x="57.03" y="0" letter-spacing="-0.01em">o</tspan><tspan x="63.78" y="0" letter-spacing="-0.01em">w</tspan><tspan x="73.91" y="0">se</tspan><tspan x="86.09" y="0" letter-spacing="-0.02em">r</tspan><tspan x="91.46" y="0" letter-spacing="-0.04em">/</tspan><tspan x="95.46" y="0">engine support </tspan><tspan x="186.31" y="0" letter-spacing="-0.01em">f</tspan><tspan x="190.5" y="0">o</tspan><tspan x="197.38" y="0" letter-spacing="-0.02em">r</tspan><tspan x="202.8" y="0" xml:space="preserve" letter-spacing="0em"> a g</tspan><tspan x="222.73" y="0" letter-spacing="-0.01em">i</tspan><tspan x="226.31" y="0" letter-spacing="-0.02em">v</tspan><tspan x="232.91" y="0">en language </tspan><tspan x="305.76" y="0" letter-spacing="-0.01em">f</tspan><tspan x="309.95" y="0">eature</tspan></text><text transform="translate(14.45 16.53)" font-size="13.42" font-family="ZillaSlab-Regular, Zilla Slab">Lack of debug tooling support <tspan x="175.86" y="0" letter-spacing="0.01em">(</tspan><tspan x="179.66" y="0">br</tspan><tspan x="192.46" y="0" letter-spacing="-0.01em">o</tspan><tspan x="199.21" y="0" letter-spacing="-0.01em">w</tspan><tspan x="209.34" y="0" letter-spacing="0em">se</tspan><tspan x="221.52" y="0" letter-spacing="-0.02em">r</tspan><tspan x="226.94" y="0" xml:space="preserve" letter-spacing="0em"> d</tspan><tspan x="237.35" y="0" letter-spacing="-0.02em">e</tspan><tspan x="243.42" y="0" letter-spacing="-0.02em">v</tspan><tspan x="249.93" y="0" xml:space="preserve" letter-spacing="0em"> tools o</tspan><tspan x="291.09" y="0" letter-spacing="-0.02em">r</tspan><tspan x="296.52" y="0" xml:space="preserve"> I</tspan><tspan x="303.88" y="0" letter-spacing="-0.01em">D</tspan><tspan x="313.18" y="0">E integratio</tspan><tspan x="381.94" y="0" letter-spacing="-0.03em">n</tspan><tspan x="389.25" y="0" letter-spacing="0em">)</tspan></text><text transform="translate(14.45 113.76)" font-size="13.42" font-family="ZillaSlab-Regular, Zilla Slab">Lack of interoperabilit<tspan x="128.51" y="0" letter-spacing="-0.02em">y</tspan><tspan x="135.04" y="0" xml:space="preserve"> bet</tspan><tspan x="156.54" y="0" letter-spacing="-0.01em">w</tspan><tspan x="166.67" y="0">een implementations</tspan></text><text transform="translate(14.45 186.45)" font-size="13.42" font-family="ZillaSlab-Regular, Zilla Slab">Br<tspan x="13.74" y="0" letter-spacing="-0.01em">o</tspan><tspan x="20.49" y="0" letter-spacing="-0.01em">w</tspan><tspan x="30.62" y="0" letter-spacing="0em">se</tspan><tspan x="42.8" y="0" letter-spacing="-0.02em">r</tspan><tspan x="48.23" y="0" xml:space="preserve" letter-spacing="0em"> updates causing things to break</tspan></text><text transform="translate(14.45 162.22)" font-size="13.42" font-family="ZillaSlab-Regular, Zilla Slab">Lack of per<tspan x="63.55" y="0" letter-spacing="-0.01em">f</tspan><tspan x="67.73" y="0">omance </tspan><tspan x="115.92" y="0" letter-spacing="-0.03em">(</tspan><tspan x="119.14" y="0" letter-spacing="0em">speed and siz</tspan><tspan x="195.87" y="0" letter-spacing="-0.04em">e</tspan><tspan x="201.58" y="0" letter-spacing="0em">) profiling support </tspan><tspan x="310.38" y="0" letter-spacing="0.01em">(</tspan><tspan x="314.17" y="0">br</tspan><tspan x="326.97" y="0" letter-spacing="-0.01em">o</tspan><tspan x="333.72" y="0" letter-spacing="-0.01em">w</tspan><tspan x="343.85" y="0" letter-spacing="0em">se</tspan><tspan x="356.04" y="0" letter-spacing="-0.02em">r</tspan><tspan x="361.46" y="0" xml:space="preserve"> d</tspan><tspan x="371.87" y="0" letter-spacing="-0.02em">e</tspan><tspan x="377.94" y="0" letter-spacing="-0.02em">v</tspan><tspan x="384.44" y="0" xml:space="preserve" letter-spacing="0em"> tools o</tspan><tspan x="425.61" y="0" letter-spacing="-0.02em">r</tspan><tspan x="431.03" y="0" xml:space="preserve" letter-spacing="0em"> I</tspan><tspan x="438.4" y="0" letter-spacing="-0.01em">D</tspan><tspan x="447.7" y="0" letter-spacing="0em">E integratio</tspan><tspan x="516.45" y="0" letter-spacing="-0.03em">n</tspan><tspan x="523.77" y="0">)</tspan></text><text transform="translate(14.45 137.99)" font-size="13.42" font-family="ZillaSlab-Regular, Zilla Slab">Inadequate per<tspan x="86.99" y="0" letter-spacing="-0.01em">f</tspan><tspan x="91.18" y="0">ormance </tspan><tspan x="145" y="0" letter-spacing="-0.03em">(</tspan><tspan x="148.22" y="0" letter-spacing="0em">speed and siz</tspan><tspan x="224.94" y="0" letter-spacing="-0.04em">e</tspan><tspan x="230.66" y="0" letter-spacing="0em">), particula</tspan><tspan x="292.1" y="0" letter-spacing="-0.01em">r</tspan><tspan x="297.64" y="0" letter-spacing="-0.01em">l</tspan><tspan x="301.04" y="0" letter-spacing="-0.02em">y</tspan><tspan x="307.57" y="0" xml:space="preserve"> on l</tspan><tspan x="331.81" y="0" letter-spacing="-0.01em">o</tspan><tspan x="338.55" y="0" letter-spacing="-0.02em">w</tspan><tspan x="348.55" y="0">-end d</tspan><tspan x="385" y="0" letter-spacing="-0.02em">e</tspan><tspan x="391.06" y="0">vices</tspan></text><text transform="translate(14.75 214.59)" font-size="13.77" font-family="ZillaSlab-Italic, Zilla Slab" font-style="italic"><tspan letter-spacing="-0.01em">n</tspan><tspan x="7.07" y="0" xml:space="preserve"> = 229</tspan></text><rect x="563.46" y="73.45" width="30" height="24.23" fill="#00458b" stroke="#fff" stroke-miterlimit="10" stroke-width="0.46"/><rect x="563.46" y="97.68" width="18.3" height="24.23" fill="#00458b" stroke="#fff" stroke-miterlimit="10" stroke-width="0.36"/><rect x="563.46" y="49.22" width="42" height="24.23" fill="#00458b" stroke="#fff" stroke-miterlimit="10" stroke-width="0.54"/><rect x="563.46" y="24.99" width="57.6" height="24.23" fill="#00458b" stroke="#fff" stroke-miterlimit="10" stroke-width="0.59"/><rect x="563.46" y="0.44" width="104.7" height="24.23" fill="#00458b" stroke="#fff" stroke-miterlimit="10" stroke-width="0.68"/><rect x="563.46" y="170.36" width="14.4" height="24.23" fill="#00458b" stroke="#fff" stroke-miterlimit="10" stroke-width="0.35"/><rect x="563.46" y="146.13" width="15.6" height="24.23" fill="#00458b" stroke="#fff" stroke-miterlimit="10" stroke-width="0.34"/><rect x="563.46" y="121.9" width="17.1" height="24.23" fill="#00458b" stroke="#fff" stroke-miterlimit="10" stroke-width="0.29"/><text transform="translate(809.67 65.31)" font-size="13.42" font-family="ZillaSlab-Regular, Zilla Slab">14<tspan x="12.4" y="0" letter-spacing="-0.01em">.</tspan><tspan x="15.06" y="0">0%</tspan></text><text transform="translate(809.67 89.54)" font-size="13.42" font-family="ZillaSlab-Regular, Zilla Slab">1<tspan x="5.17" y="0" letter-spacing="-0.01em">0</tspan><tspan x="12.71" y="0" letter-spacing="-0.01em">.</tspan><tspan x="15.36" y="0" letter-spacing="0em">0%</tspan></text><text transform="translate(809.67 113.76)" font-size="13.42" font-family="ZillaSlab-Regular, Zilla Slab"><tspan letter-spacing="-0.01em">6</tspan><tspan x="6.94" y="0">.1%</tspan></text><text transform="translate(809.67 16.53)" font-size="13.42" font-family="ZillaSlab-Regular, Zilla Slab">34.9%</text><text transform="translate(809.67 41.08)" font-size="13.42" font-family="ZillaSlab-Regular, Zilla Slab">19.2%</text><text transform="translate(809.67 186.45)" font-size="13.42" font-family="ZillaSlab-Regular, Zilla Slab">4.8%</text><text transform="translate(809.67 162.22)" font-size="13.42" font-family="ZillaSlab-Regular, Zilla Slab">5.2%</text><text transform="translate(809.67 137.99)" font-size="13.42" font-family="ZillaSlab-Regular, Zilla Slab">5<tspan x="6.87" y="0" letter-spacing="-0.05em">.</tspan><tspan x="9.04" y="0">7%</tspan></text></svg>
