<?xml version="1.0" encoding="UTF-8"?>
<svg xmlns="http://www.w3.org/2000/svg" viewBox="0 0 862.45 252.96">
  <defs>
    <style>.cls-1,.cls-2{opacity:0.05;}.cls-2{fill:#fff;}.cls-3{font-size:13.42px;}.cls-3,.cls-5{font-family:ArialMT, Arial;}.cls-4{letter-spacing:-0.07em;}.cls-5{font-size:13.77px;}.cls-10,.cls-11,.cls-12,.cls-13,.cls-14,.cls-6,.cls-7,.cls-8,.cls-9{fill:#00458b;stroke:#fff;stroke-miterlimit:10;}.cls-6{stroke-width:1.07px;}.cls-7{stroke-width:0.53px;}.cls-8{stroke-width:0.51px;}.cls-9{stroke-width:0.53px;}.cls-10{stroke-width:0.64px;}.cls-11{stroke-width:0.8px;}.cls-12{stroke-width:0.36px;}.cls-13{stroke-width:0.42px;}.cls-14{stroke-width:0.41px;}</style>
  </defs>
  <g id="Layer_2" data-name="Layer 2">
    <g id="JavaScript">
      <g id="barTextPercentages">
        <rect class="cls-1" y="194.36" width="862.45" height="24.23"></rect>
        <rect class="cls-2" y="170.13" width="862.45" height="24.23"></rect>
        <rect class="cls-1" y="145.9" width="862.45" height="24.23"></rect>
        <rect class="cls-2" y="121.68" width="862.45" height="24.23"></rect>
        <rect class="cls-1" y="97.45" width="862.45" height="24.23"></rect>
        <rect class="cls-2" y="73.22" width="862.45" height="24.23"></rect>
        <rect class="cls-1" y="48.99" width="862.45" height="24.23"></rect>
        <rect class="cls-2" y="24.76" width="862.45" height="24.23"></rect>
        <rect class="cls-1" y="0.54" width="862.45" height="24.23"></rect>
        <text class="cls-3" transform="translate(14.45 16.63)">Challenges creating the layout desired</text>
        <text class="cls-3" transform="translate(14.45 113.54)">Inadequate progressive enhancement strategy</text>
        <text class="cls-3" transform="translate(14.45 89.31)">Other</text>
        <text class="cls-3" transform="translate(14.45 65.08)">Lack of interoperability between implementations</text>
        <text class="cls-3" transform="translate(14.45 40.85)">Lack of browser/engine support for a given language feature</text>
        <text class="cls-3" transform="translate(14.45 137.76)">Lack of debug tooling support (browser dev tools)</text>
        <text class="cls-3" transform="translate(14.45 210.45)">Lack of build tooling support (in Babel/webpack/uglif<tspan class="cls-4" x="308.81" y="0">y</tspan><tspan x="314.53" y="0">.js/etc.)</tspan></text>
        <text class="cls-3" transform="translate(14.45 186.22)">Lack of perfomance (speed and size) profiling support</text>
        <text class="cls-3" transform="translate(14.45 161.99)">Browser updates causing things to break</text>
        <text class="cls-5" transform="translate(14.45 248.49)">n = 5,017</text>
        <rect class="cls-6" x="563.21" y="0.54" width="162.5" height="24.23"></rect>
        <rect class="cls-7" x="563.21" y="97.45" width="33.5" height="24.23"></rect>
        <rect class="cls-8" x="563.21" y="121.68" width="30" height="24.23"></rect>
        <rect class="cls-9" x="563.21" y="73.22" width="34" height="24.23"></rect>
        <rect class="cls-10" x="563.21" y="48.99" width="56.5" height="24.23"></rect>
        <rect class="cls-11" x="563.21" y="24.76" width="132" height="24.23"></rect>
        <rect class="cls-12" x="563.21" y="194.36" width="14" height="24.23"></rect>
        <rect class="cls-13" x="563.21" y="170.13" width="18.5" height="24.23"></rect>
        <rect class="cls-14" x="563.21" y="145.9" width="19" height="24.23"></rect>
        <text class="cls-3" transform="translate(809.42 16.63)">32.5%</text>
        <text class="cls-3" transform="translate(809.42 89.31)">6.8%</text>
        <text class="cls-3" transform="translate(809.42 113.54)">6.7%</text>
        <text class="cls-3" transform="translate(809.42 137.76)">6.0%</text>
        <text class="cls-3" transform="translate(809.42 65.08)">
          <tspan class="cls-4">1</tspan>
          <tspan x="6.47" y="0">1.3%</tspan>
        </text>
        <text class="cls-3" transform="translate(809.42 40.85)">26.4%</text>
        <text class="cls-3" transform="translate(809.42 210.45)">2.8%</text>
        <text class="cls-3" transform="translate(809.42 186.22)">3.7%</text>
        <text class="cls-3" transform="translate(809.42 161.99)">3.8%</text>
      </g>
    </g>
  </g>
</svg>
