<svg xmlns="http://www.w3.org/2000/svg" viewBox="0 0 862.7 419.56"><defs><style>.cls-1,.cls-2{opacity:0.05;}.cls-2{fill:#fff;}.cls-3{font-size:13.42px;}.cls-22,.cls-3{font-family:ArialMT, Arial;}.cls-4{letter-spacing:-0.06em;}.cls-5{letter-spacing:0em;}.cls-10,.cls-11,.cls-12,.cls-13,.cls-14,.cls-15,.cls-16,.cls-17,.cls-18,.cls-19,.cls-20,.cls-21,.cls-6,.cls-7,.cls-8,.cls-9{fill:#00458b;stroke:#fff;stroke-miterlimit:10;}.cls-6{stroke-width:1.48px;}.cls-7{stroke-width:1.46px;}.cls-8{stroke-width:1.55px;}.cls-9{stroke-width:1.64px;}.cls-10{stroke-width:1.46px;}.cls-11{stroke-width:1.1px;}.cls-12{stroke-width:1.15px;}.cls-13{stroke-width:1.35px;}.cls-14{stroke-width:1.14px;}.cls-15{stroke-width:0.43px;}.cls-16{stroke-width:0.36px;}.cls-17{stroke-width:0.51px;}.cls-18{stroke-width:0.59px;}.cls-19{stroke-width:0.11px;}.cls-20{stroke-width:0.25px;}.cls-21{stroke-width:0.23px;}.cls-22{font-size:13.77px;}.cls-23{letter-spacing:-0.07em;}</style></defs><g id="Layer_2" data-name="Layer 2"><g id="JavaScript"><g id="barTextPercentages"><rect class="cls-1" y="194.88" width="862.7" height="24.23"/><rect class="cls-2" y="170.65" width="862.7" height="24.23"/><rect class="cls-1" y="146.42" width="862.7" height="24.23"/><rect class="cls-2" y="122.19" width="862.7" height="24.23"/><rect class="cls-1" y="97.97" width="862.7" height="24.23"/><rect class="cls-2" y="73.74" width="862.7" height="24.23"/><rect class="cls-1" y="49.51" width="862.7" height="24.23"/><rect class="cls-2" y="25.28" width="862.7" height="24.23"/><rect class="cls-2" y="364.47" width="862.7" height="24.23"/><rect class="cls-1" y="340.24" width="862.7" height="24.23"/><rect class="cls-2" y="316.02" width="862.7" height="24.23"/><rect class="cls-1" y="291.79" width="862.7" height="24.23"/><rect class="cls-2" y="267.56" width="862.7" height="24.23"/><rect class="cls-1" y="243.33" width="862.7" height="24.23"/><rect class="cls-2" y="219.1" width="862.7" height="24.23"/><rect class="cls-1" y="1.05" width="862.7" height="24.23"/><text class="cls-3" transform="translate(14.45 89.83)">Edge (Chromium)</text><text class="cls-3" transform="translate(14.45 65.6)">Chrome for<tspan class="cls-4" x="67.11" y="0"> </tspan><tspan class="cls-5" x="70.1" y="0">Android</tspan></text><text class="cls-3" transform="translate(14.45 41.37)">Firefox for Desktop</text><text class="cls-3" transform="translate(14.45 16.82)">Chrome for Desktop</text><text class="cls-3" transform="translate(14.45 114.05)">Safari</text><text class="cls-3" transform="translate(14.45 210.97)">Internet Explorer</text><text class="cls-3" transform="translate(14.45 186.74)">Edge (EdgeHTML)</text><text class="cls-3" transform="translate(12.67 162.51)">Firefox for<tspan class="cls-4" x="60.4" y="0"> </tspan><tspan x="63.38" y="0">Android</tspan></text><text class="cls-3" transform="translate(14.45 138.28)">Safari on iOS</text><text class="cls-3" transform="translate(14.45 283.65)">Other browser</text><text class="cls-3" transform="translate(14.45 259.42)">Opera Mini</text><text class="cls-3" transform="translate(14.45 235.19)">Samsung Internet</text><text class="cls-3" transform="translate(14.45 307.88)">UC Browser</text><text class="cls-3" transform="translate(14.45 380.56)">None of the above</text><text class="cls-3" transform="translate(14.45 356.33)">Baidu</text><text class="cls-3" transform="translate(14.45 332.1)">QQ Browser</text><rect class="cls-6" x="306.96" y="73.74" width="314" height="24.23"/><rect class="cls-7" x="306.96" y="97.97" width="300.5" height="24.23"/><rect class="cls-8" x="306.96" y="49.51" width="350" height="24.23"/><rect class="cls-9" x="306.96" y="25.28" width="443.5" height="24.23"/><rect class="cls-10" x="306.96" y="0.73" width="479.5" height="24.23"/><rect class="cls-11" x="306.96" y="194.88" width="141.5" height="24.23"/><rect class="cls-12" x="306.96" y="170.65" width="157.5" height="24.23"/><rect class="cls-13" x="306.96" y="146.42" width="250" height="24.23"/><rect class="cls-14" x="306.96" y="122.19" width="268" height="24.23"/><rect class="cls-15" x="306.96" y="267.56" width="27" height="24.23"/><rect class="cls-16" x="306.96" y="291.79" width="18.5" height="24.23"/><rect class="cls-17" x="306.96" y="243.33" width="37" height="24.23"/><rect class="cls-18" x="306.96" y="219.1" width="56.5" height="24.23"/><rect class="cls-19" x="306.96" y="364.47" width="1.5" height="24.23"/><rect class="cls-20" x="306.96" y="340.24" width="8.5" height="24.23"/><rect class="cls-21" x="306.96" y="316.02" width="11" height="24.23"/><text class="cls-22" transform="translate(14.9 415.09)">n = 6,645</text><text class="cls-3" transform="translate(809.71 65.6)">70.0%</text><text class="cls-3" transform="translate(809.71 89.83)">62.8%</text><text class="cls-3" transform="translate(809.71 114.05)">60.1%</text><text class="cls-3" transform="translate(809.71 16.82)">95.9%</text><text class="cls-3" transform="translate(809.71 41.37)">88.7%</text><text class="cls-3" transform="translate(809.71 186.74)">31.5%</text><text class="cls-3" transform="translate(809.71 210.97)">28.3%</text><text class="cls-3" transform="translate(809.71 162.51)">50.0%</text><text class="cls-3" transform="translate(809.71 138.28)">53.6%</text><text class="cls-3" transform="translate(809.71 259.42)">7.4%</text><text class="cls-3" transform="translate(809.71 283.65)">5.4%</text><text class="cls-3" transform="translate(809.71 307.88)">3.7%</text><text class="cls-3" transform="translate(809.71 235.19)"><tspan class="cls-23">1</tspan><tspan x="6.47" y="0">1.3%</tspan></text><text class="cls-3" transform="translate(809.71 380.56)">0.3%</text><text class="cls-3" transform="translate(809.71 356.33)">1.7%</text><text class="cls-3" transform="translate(809.71 332.1)">2.2%</text></g></g></g></svg>