<svg xmlns="http://www.w3.org/2000/svg" width="862.7" height="250.37" viewBox="0 0 862.7 250.37"><rect y="194.49" width="862.7" height="24.23" opacity="0.05"/><rect y="170.26" width="862.7" height="24.23" fill="#fff" opacity="0.05"/><rect y="146.03" width="862.7" height="24.23" opacity="0.05"/><rect y="121.8" width="862.7" height="24.23" fill="#fff" opacity="0.05"/><rect y="97.57" width="862.7" height="24.23" opacity="0.05"/><rect y="73.35" width="862.7" height="24.23" fill="#fff" opacity="0.05"/><rect y="49.12" width="862.7" height="24.23" opacity="0.05"/><rect y="24.89" width="862.7" height="24.23" fill="#fff" opacity="0.05"/><rect y="0.66" width="862.7" height="24.23" opacity="0.05"/><text transform="translate(14.45 89.44)" font-size="13.42" font-family="ZillaSlab-Regular, Zilla Slab">Lack of interoperabilit<tspan x="128.51" y="0" letter-spacing="-0.02em">y</tspan><tspan x="135.04" y="0" xml:space="preserve"> bet</tspan><tspan x="156.54" y="0" letter-spacing="-0.01em">w</tspan><tspan x="166.67" y="0">een implementations</tspan></text><text transform="translate(14.45 65.21)" font-size="13.42" font-family="ZillaSlab-Regular, Zilla Slab">Othe<tspan x="28.58" y="0" letter-spacing="-0.02em">r</tspan></text><text transform="translate(14.45 40.98)" font-size="13.42" font-family="ZillaSlab-Regular, Zilla Slab">Inadequate per<tspan x="86.99" y="0" letter-spacing="-0.01em">f</tspan><tspan x="91.18" y="0">ormance </tspan><tspan x="145" y="0" letter-spacing="-0.03em">(</tspan><tspan x="148.22" y="0" letter-spacing="0em">speed and siz</tspan><tspan x="224.94" y="0" letter-spacing="-0.04em">e</tspan><tspan x="230.66" y="0" letter-spacing="0em">), particula</tspan><tspan x="292.1" y="0" letter-spacing="-0.01em">r</tspan><tspan x="297.64" y="0" letter-spacing="-0.01em">l</tspan><tspan x="301.04" y="0" letter-spacing="-0.02em">y</tspan><tspan x="307.57" y="0" xml:space="preserve"> on l</tspan><tspan x="331.81" y="0" letter-spacing="-0.01em">o</tspan><tspan x="338.55" y="0" letter-spacing="-0.02em">w</tspan><tspan x="348.55" y="0">-end d</tspan><tspan x="385" y="0" letter-spacing="-0.02em">e</tspan><tspan x="391.06" y="0">vices</tspan></text><text transform="translate(14.45 16.43)" font-size="13.42" font-family="ZillaSlab-Regular, Zilla Slab">Lack of br<tspan x="57.03" y="0" letter-spacing="-0.01em">o</tspan><tspan x="63.78" y="0" letter-spacing="-0.01em">w</tspan><tspan x="73.91" y="0">se</tspan><tspan x="86.09" y="0" letter-spacing="-0.02em">r</tspan><tspan x="91.46" y="0" letter-spacing="-0.04em">/</tspan><tspan x="95.46" y="0">engine adoption</tspan><tspan x="189.02" y="0" letter-spacing="-0.04em">/</tspan><tspan x="193.09" y="0">support </tspan><tspan x="241.8" y="0" letter-spacing="-0.01em">f</tspan><tspan x="245.98" y="0">o</tspan><tspan x="252.87" y="0" letter-spacing="-0.02em">r</tspan><tspan x="258.29" y="0" xml:space="preserve"> a g</tspan><tspan x="278.21" y="0" letter-spacing="-0.01em">i</tspan><tspan x="281.8" y="0" letter-spacing="-0.02em">v</tspan><tspan x="288.4" y="0">en language </tspan><tspan x="361.25" y="0" letter-spacing="-0.01em">f</tspan><tspan x="365.43" y="0">eature</tspan></text><text transform="translate(14.45 113.66)" font-size="13.42" font-family="ZillaSlab-Regular, Zilla Slab">Lack of debug tooling support <tspan x="175.86" y="0" letter-spacing="0.01em">(</tspan><tspan x="179.66" y="0">br</tspan><tspan x="192.46" y="0" letter-spacing="-0.01em">o</tspan><tspan x="199.21" y="0" letter-spacing="-0.01em">w</tspan><tspan x="209.34" y="0" letter-spacing="0em">se</tspan><tspan x="221.52" y="0" letter-spacing="-0.02em">r</tspan><tspan x="226.94" y="0" xml:space="preserve" letter-spacing="0em"> d</tspan><tspan x="237.35" y="0" letter-spacing="-0.02em">e</tspan><tspan x="243.42" y="0" letter-spacing="-0.02em">v</tspan><tspan x="249.93" y="0" xml:space="preserve" letter-spacing="0em"> tool</tspan><tspan x="275.29" y="0" letter-spacing="-0.04em">s</tspan><tspan x="280.64" y="0">)</tspan></text><text transform="translate(14.45 210.57)" font-size="13.42" font-family="ZillaSlab-Regular, Zilla Slab">Lack of internationalization<tspan x="159.89" y="0" letter-spacing="-0.03em"> </tspan><tspan x="162.53" y="0">A</tspan><tspan x="171.23" y="0" letter-spacing="-0.01em">PI</tspan><tspan x="183.06" y="0">s o</tspan><tspan x="198.87" y="0" letter-spacing="-0.02em">r</tspan><tspan x="204.29" y="0" xml:space="preserve"> localization support</tspan></text><text transform="translate(14.45 186.35)" font-size="13.42" font-family="ZillaSlab-Regular, Zilla Slab">Br<tspan x="13.74" y="0" letter-spacing="-0.01em">o</tspan><tspan x="20.49" y="0" letter-spacing="-0.01em">w</tspan><tspan x="30.62" y="0" letter-spacing="0em">se</tspan><tspan x="42.8" y="0" letter-spacing="-0.02em">r</tspan><tspan x="48.23" y="0" xml:space="preserve" letter-spacing="0em"> updates causing things to break</tspan></text><text transform="translate(14.45 162.12)" font-size="13.42" font-family="ZillaSlab-Regular, Zilla Slab">Lack of per<tspan x="63.55" y="0" letter-spacing="-0.01em">f</tspan><tspan x="67.73" y="0">omance </tspan><tspan x="115.92" y="0" letter-spacing="-0.03em">(</tspan><tspan x="119.14" y="0" letter-spacing="0em">speed and siz</tspan><tspan x="195.87" y="0" letter-spacing="-0.04em">e</tspan><tspan x="201.58" y="0" letter-spacing="0em">) profiling support</tspan></text><text transform="translate(14.45 137.89)" font-size="13.42" font-family="ZillaSlab-Regular, Zilla Slab">Lack of build tooling support <tspan x="169.53" y="0" letter-spacing="-0.02em">(</tspan><tspan x="172.92" y="0" letter-spacing="0em">in Babel</tspan><tspan x="219.04" y="0" letter-spacing="-0.01em">/</tspan><tspan x="223.4" y="0" letter-spacing="-0.01em">w</tspan><tspan x="233.53" y="0">ebpack</tspan><tspan x="274.04" y="0" letter-spacing="-0.01em">/</tspan><tspan x="278.4" y="0">uglif</tspan><tspan x="304.89" y="0" letter-spacing="-0.05em">y</tspan><tspan x="311.06" y="0" letter-spacing="-0.02em">.</tspan><tspan x="313.61" y="0" letter-spacing="0em">js</tspan><tspan x="322.87" y="0" letter-spacing="-0.04em">/</tspan><tspan x="326.87" y="0">etc.)</tspan></text><text transform="translate(14.7 247.28)" font-size="13.77" font-family="ZillaSlab-Italic, Zilla Slab" font-style="italic"><tspan letter-spacing="-0.01em">n</tspan><tspan x="7.07" y="0" xml:space="preserve"> = 5,</tspan><tspan x="30.59" y="0" letter-spacing="-0.01em">4</tspan><tspan x="37.67" y="0" letter-spacing="0em">72</tspan></text><rect x="563.53" y="73.35" width="30.9" height="24.23" fill="#00458b" stroke="#fff" stroke-miterlimit="10" stroke-width="0.46"/><rect x="563.53" y="97.57" width="27.3" height="24.23" fill="#00458b" stroke="#fff" stroke-miterlimit="10" stroke-width="0.44"/><rect x="563.53" y="49.12" width="38.1" height="24.23" fill="#00458b" stroke="#fff" stroke-miterlimit="10" stroke-width="0.51"/><rect x="563.53" y="24.89" width="55.2" height="24.23" fill="#00458b" stroke="#fff" stroke-miterlimit="10" stroke-width="0.58"/><rect x="563.53" y="0.34" width="62.4" height="24.23" fill="#00458b" stroke="#fff" stroke-miterlimit="10" stroke-width="0.53"/><rect x="563.53" y="194.49" width="17.1" height="24.23" fill="#00458b" stroke="#fff" stroke-miterlimit="10" stroke-width="0.38"/><rect x="563.53" y="170.26" width="19.5" height="24.23" fill="#00458b" stroke="#fff" stroke-miterlimit="10" stroke-width="0.4"/><rect x="563.53" y="146.03" width="23.1" height="24.23" fill="#00458b" stroke="#fff" stroke-miterlimit="10" stroke-width="0.41"/><rect x="563.53" y="121.8" width="26.7" height="24.23" fill="#00458b" stroke="#fff" stroke-miterlimit="10" stroke-width="0.36"/><text transform="translate(809.71 65.21)" font-size="13.42" font-family="ZillaSlab-Regular, Zilla Slab">12<tspan x="12.08" y="0" letter-spacing="-0.05em">.</tspan><tspan x="14.25" y="0" letter-spacing="0em">7%</tspan></text><text transform="translate(809.71 89.44)" font-size="13.42" font-family="ZillaSlab-Regular, Zilla Slab">1<tspan x="5.17" y="0" letter-spacing="-0.01em">0</tspan><tspan x="12.71" y="0">.3%</tspan></text><text transform="translate(809.71 113.66)" font-size="13.42" font-family="ZillaSlab-Regular, Zilla Slab">9.1%</text><text transform="translate(809.71 16.43)" font-size="13.42" font-family="ZillaSlab-Regular, Zilla Slab">2<tspan x="6.91" y="0" letter-spacing="-0.01em">0</tspan><tspan x="14.45" y="0">.8%</tspan></text><text transform="translate(809.71 40.98)" font-size="13.42" font-family="ZillaSlab-Regular, Zilla Slab">1<tspan x="5.17" y="0" letter-spacing="-0.01em">8</tspan><tspan x="12.25" y="0">.4%</tspan></text><text transform="translate(809.71 186.35)" font-size="13.42" font-family="ZillaSlab-Regular, Zilla Slab"><tspan letter-spacing="-0.01em">6</tspan><tspan x="6.94" y="0">.5%</tspan></text><text transform="translate(809.71 210.57)" font-size="13.42" font-family="ZillaSlab-Regular, Zilla Slab">5<tspan x="6.87" y="0" letter-spacing="-0.05em">.</tspan><tspan x="9.04" y="0">7%</tspan></text><text transform="translate(809.71 162.12)" font-size="13.42" font-family="ZillaSlab-Regular, Zilla Slab"><tspan letter-spacing="-0.05em">7</tspan><tspan x="5.7" y="0" letter-spacing="-0.05em">.</tspan><tspan x="7.88" y="0">7%</tspan></text><text transform="translate(809.71 137.89)" font-size="13.42" font-family="ZillaSlab-Regular, Zilla Slab"><tspan letter-spacing="-0.01em">8</tspan><tspan x="7.08" y="0">.9%</tspan></text></svg>