<svg xmlns="http://www.w3.org/2000/svg" width="862.45" height="251.57" viewBox="0 0 862.45 251.57"><rect y="194.36" width="862.45" height="24.23" opacity="0.05"/><rect y="170.13" width="862.45" height="24.23" fill="#fff" opacity="0.05"/><rect y="145.9" width="862.45" height="24.23" opacity="0.05"/><rect y="121.68" width="862.45" height="24.23" fill="#fff" opacity="0.05"/><rect y="97.45" width="862.45" height="24.23" opacity="0.05"/><rect y="73.22" width="862.45" height="24.23" fill="#fff" opacity="0.05"/><rect y="48.99" width="862.45" height="24.23" opacity="0.05"/><rect y="24.76" width="862.45" height="24.23" fill="#fff" opacity="0.05"/><rect y="0.54" width="862.45" height="24.23" opacity="0.05"/><text transform="translate(14.45 16.63)" font-size="13.42" font-family="ZillaSlab-Regular, Zilla Slab">Challenges creating the l<tspan x="143.24" y="0" letter-spacing="-0.02em">a</tspan><tspan x="149.44" y="0" letter-spacing="-0.01em">y</tspan><tspan x="156.12" y="0" letter-spacing="0em">out desired</tspan></text><text transform="translate(14.45 113.54)" font-size="13.42" font-family="ZillaSlab-Regular, Zilla Slab">Inadequate progress<tspan x="118.62" y="0" letter-spacing="-0.01em">i</tspan><tspan x="122.2" y="0" letter-spacing="-0.02em">v</tspan><tspan x="128.8" y="0">e enhancement strateg</tspan><tspan x="261.55" y="0" letter-spacing="-0.02em">y</tspan></text><text transform="translate(14.45 89.31)" font-size="13.42" font-family="ZillaSlab-Regular, Zilla Slab">Othe<tspan x="28.58" y="0" letter-spacing="-0.02em">r</tspan></text><text transform="translate(14.45 65.08)" font-size="13.42" font-family="ZillaSlab-Regular, Zilla Slab">Lack of interoperabilit<tspan x="128.51" y="0" letter-spacing="-0.02em">y</tspan><tspan x="135.04" y="0" xml:space="preserve"> bet</tspan><tspan x="156.54" y="0" letter-spacing="-0.01em">w</tspan><tspan x="166.67" y="0">een implementations</tspan></text><text transform="translate(14.45 40.85)" font-size="13.42" font-family="ZillaSlab-Regular, Zilla Slab">Lack of br<tspan x="57.03" y="0" letter-spacing="-0.01em">o</tspan><tspan x="63.78" y="0" letter-spacing="-0.01em">w</tspan><tspan x="73.91" y="0">se</tspan><tspan x="86.09" y="0" letter-spacing="-0.02em">r</tspan><tspan x="91.46" y="0" letter-spacing="-0.04em">/</tspan><tspan x="95.46" y="0">engine support </tspan><tspan x="186.31" y="0" letter-spacing="-0.01em">f</tspan><tspan x="190.5" y="0">o</tspan><tspan x="197.38" y="0" letter-spacing="-0.02em">r</tspan><tspan x="202.8" y="0" xml:space="preserve" letter-spacing="0em"> a g</tspan><tspan x="222.73" y="0" letter-spacing="-0.01em">i</tspan><tspan x="226.31" y="0" letter-spacing="-0.02em">v</tspan><tspan x="232.91" y="0">en language </tspan><tspan x="305.76" y="0" letter-spacing="-0.01em">f</tspan><tspan x="309.95" y="0">eature</tspan></text><text transform="translate(14.45 137.76)" font-size="13.42" font-family="ZillaSlab-Regular, Zilla Slab">Lack of debug tooling support <tspan x="175.86" y="0" letter-spacing="0.01em">(</tspan><tspan x="179.66" y="0">br</tspan><tspan x="192.46" y="0" letter-spacing="-0.01em">o</tspan><tspan x="199.21" y="0" letter-spacing="-0.01em">w</tspan><tspan x="209.34" y="0" letter-spacing="0em">se</tspan><tspan x="221.52" y="0" letter-spacing="-0.02em">r</tspan><tspan x="226.94" y="0" xml:space="preserve" letter-spacing="0em"> d</tspan><tspan x="237.35" y="0" letter-spacing="-0.02em">e</tspan><tspan x="243.42" y="0" letter-spacing="-0.02em">v</tspan><tspan x="249.93" y="0" xml:space="preserve" letter-spacing="0em"> tool</tspan><tspan x="275.29" y="0" letter-spacing="-0.04em">s</tspan><tspan x="280.64" y="0">)</tspan></text><text transform="translate(14.45 210.45)" font-size="13.42" font-family="ZillaSlab-Regular, Zilla Slab">Lack of build tooling support <tspan x="169.53" y="0" letter-spacing="-0.02em">(</tspan><tspan x="172.92" y="0" letter-spacing="0em">in Babel</tspan><tspan x="219.04" y="0" letter-spacing="-0.01em">/</tspan><tspan x="223.4" y="0" letter-spacing="-0.01em">w</tspan><tspan x="233.53" y="0">ebpack</tspan><tspan x="274.04" y="0" letter-spacing="-0.01em">/</tspan><tspan x="278.4" y="0">uglif</tspan><tspan x="304.89" y="0" letter-spacing="-0.05em">y</tspan><tspan x="311.06" y="0" letter-spacing="-0.02em">.</tspan><tspan x="313.61" y="0" letter-spacing="0em">js</tspan><tspan x="322.87" y="0" letter-spacing="-0.04em">/</tspan><tspan x="326.87" y="0">etc.)</tspan></text><text transform="translate(14.45 186.22)" font-size="13.42" font-family="ZillaSlab-Regular, Zilla Slab">Lack of per<tspan x="63.55" y="0" letter-spacing="-0.01em">f</tspan><tspan x="67.73" y="0">omance </tspan><tspan x="115.92" y="0" letter-spacing="-0.03em">(</tspan><tspan x="119.14" y="0" letter-spacing="0em">speed and siz</tspan><tspan x="195.87" y="0" letter-spacing="-0.04em">e</tspan><tspan x="201.58" y="0" letter-spacing="0em">) profiling support</tspan></text><text transform="translate(14.45 161.99)" font-size="13.42" font-family="ZillaSlab-Regular, Zilla Slab">Br<tspan x="13.74" y="0" letter-spacing="-0.01em">o</tspan><tspan x="20.49" y="0" letter-spacing="-0.01em">w</tspan><tspan x="30.62" y="0" letter-spacing="0em">se</tspan><tspan x="42.8" y="0" letter-spacing="-0.02em">r</tspan><tspan x="48.23" y="0" xml:space="preserve" letter-spacing="0em"> updates causing things to break</tspan></text><text transform="translate(14.45 248.49)" font-size="13.77" font-family="ZillaSlab-Italic, Zilla Slab" font-style="italic"><tspan letter-spacing="-0.01em">n</tspan><tspan x="7.07" y="0" xml:space="preserve"> = 5</tspan><tspan x="27.83" y="0" letter-spacing="-0.01em">,</tspan><tspan x="30.38" y="0" letter-spacing="0em">0</tspan><tspan x="38.18" y="0" letter-spacing="-0.02em">1</tspan><tspan x="43.12" y="0">7</tspan></text><rect x="563.21" y="0.54" width="97.5" height="24.23" fill="#00458b" stroke="#fff" stroke-miterlimit="10" stroke-width="0.83"/><rect x="563.21" y="97.45" width="20.1" height="24.23" fill="#00458b" stroke="#fff" stroke-miterlimit="10" stroke-width="0.41"/><rect x="563.21" y="121.68" width="18" height="24.23" fill="#00458b" stroke="#fff" stroke-miterlimit="10" stroke-width="0.4"/><rect x="563.21" y="73.22" width="20.4" height="24.23" fill="#00458b" stroke="#fff" stroke-miterlimit="10" stroke-width="0.41"/><rect x="563.21" y="48.99" width="33.9" height="24.23" fill="#00458b" stroke="#fff" stroke-miterlimit="10" stroke-width="0.5"/><rect x="563.21" y="24.76" width="79.2" height="24.23" fill="#00458b" stroke="#fff" stroke-miterlimit="10" stroke-width="0.62"/><rect x="563.21" y="194.36" width="8.4" height="24.23" fill="#00458b" stroke="#fff" stroke-miterlimit="10" stroke-width="0.28"/><rect x="563.21" y="170.13" width="11.1" height="24.23" fill="#00458b" stroke="#fff" stroke-miterlimit="10" stroke-width="0.32"/><rect x="563.21" y="145.9" width="11.4" height="24.23" fill="#00458b" stroke="#fff" stroke-miterlimit="10" stroke-width="0.32"/><text transform="translate(809.42 16.63)" font-size="13.42" font-family="ZillaSlab-Regular, Zilla Slab">32.5%</text><text transform="translate(809.42 89.31)" font-size="13.42" font-family="ZillaSlab-Regular, Zilla Slab"><tspan letter-spacing="-0.01em">6</tspan><tspan x="6.94" y="0">.8%</tspan></text><text transform="translate(809.42 113.54)" font-size="13.42" font-family="ZillaSlab-Regular, Zilla Slab"><tspan letter-spacing="-0.01em">6</tspan><tspan x="6.94" y="0" letter-spacing="-0.05em">.</tspan><tspan x="9.11" y="0">7%</tspan></text><text transform="translate(809.42 137.76)" font-size="13.42" font-family="ZillaSlab-Regular, Zilla Slab"><tspan letter-spacing="-0.01em">6</tspan><tspan x="6.94" y="0" letter-spacing="-0.01em">.</tspan><tspan x="9.59" y="0">0%</tspan></text><text transform="translate(809.42 65.08)" font-size="13.42" font-family="ZillaSlab-Regular, Zilla Slab">11.3%</text><text transform="translate(809.42 40.85)" font-size="13.42" font-family="ZillaSlab-Regular, Zilla Slab">2<tspan x="6.91" y="0" letter-spacing="-0.01em">6</tspan><tspan x="13.85" y="0">.4%</tspan></text><text transform="translate(809.42 210.45)" font-size="13.42" font-family="ZillaSlab-Regular, Zilla Slab">2.8%</text><text transform="translate(809.42 186.22)" font-size="13.42" font-family="ZillaSlab-Regular, Zilla Slab">3<tspan x="6.56" y="0" letter-spacing="-0.05em">.</tspan><tspan x="8.74" y="0">7%</tspan></text><text transform="translate(809.42 161.99)" font-size="13.42" font-family="ZillaSlab-Regular, Zilla Slab">3.8%</text></svg>