<?xml version="1.0" encoding="UTF-8"?>
<svg xmlns="http://www.w3.org/2000/svg" viewBox="0 0 542.75 272.94">
  <defs>
    <style>.cls-1,.cls-2{opacity:0.05;}.cls-2{fill:#fff;}.cls-3{font-size:13.42px;}.cls-3,.cls-8{font-family:ArialMT, Arial;}.cls-4{letter-spacing:-0.04em;}.cls-5{letter-spacing:-0.06em;}.cls-6{letter-spacing:0em;}.cls-7{letter-spacing:-0.02em;}.cls-8{font-size:13.77px;}.cls-10,.cls-11,.cls-9{fill:#00458b;stroke:#fff;stroke-miterlimit:10;}.cls-9{stroke-width:1.04px;}.cls-10{stroke-width:0.38px;}.cls-11{stroke-width:0.31px;}</style>
  </defs>
  <g id="Layer_2" data-name="Layer 2">
    <g id="Open_Text_What_s_Missing" data-name="Open Text What's Missing">
      <g id="barTextPercentages">
        <rect class="cls-1" y="194.34" width="542.75" height="24.23"></rect>
        <rect class="cls-2" y="170.12" width="542.75" height="24.23"></rect>
        <rect class="cls-2" y="218.57" width="542.75" height="24.23"></rect>
        <rect class="cls-1" y="145.89" width="542.75" height="24.23"></rect>
        <rect class="cls-2" y="121.66" width="542.75" height="24.23"></rect>
        <rect class="cls-1" y="97.43" width="542.75" height="24.23"></rect>
        <rect class="cls-2" y="73.2" width="542.75" height="24.23"></rect>
        <rect class="cls-1" y="48.98" width="542.75" height="24.23"></rect>
        <rect class="cls-2" y="24.75" width="542.75" height="24.23"></rect>
        <rect class="cls-1" y="0.52" width="542.75" height="24.23"></rect>
        <text class="cls-3" transform="translate(14.45 16.61)">Browser Compatibility</text>
        <text class="cls-3" transform="translate(14.45 113.52)">Access to Filesystem</text>
        <text class="cls-3" transform="translate(14.45 89.29)">P<tspan class="cls-4" x="8.95" y="0">W</tspan><tspan class="cls-5" x="21.12" y="0">A</tspan><tspan class="cls-6" x="29.33" y="0" xml:space="preserve"> support</tspan></text>
        <text class="cls-3" transform="translate(14.45 65.06)">CSS</text>
        <text class="cls-3" transform="translate(14.45 40.84)">Access to Hardware</text>
        <text class="cls-3" transform="translate(14.45 137.75)">
          <tspan class="cls-7">A</tspan>
          <tspan x="8.71" y="0">void JavaScript</tspan>
        </text>
        <text class="cls-3" transform="translate(14.45 210.43)">Accessibility</text>
        <text class="cls-3" transform="translate(14.45 186.2)">Performance</text>
        <text class="cls-3" transform="translate(14.45 234.66)">Security</text>
        <text class="cls-3" transform="translate(14.45 161.98)">Debugging</text>
        <text class="cls-8" transform="translate(14.45 268.47)">n = 648</text>
        <rect class="cls-9" x="214.46" y="0.52" width="53.25" height="24.23"></rect>
        <rect class="cls-10" x="214.46" y="97.43" width="18.8" height="24.23"></rect>
        <rect class="cls-9" x="214.46" y="121.66" width="16.35" height="24.23"></rect>
        <rect class="cls-9" x="214.46" y="73.2" width="18.8" height="24.23"></rect>
        <rect class="cls-9" x="214.46" y="48.98" width="23.65" height="24.23"></rect>
        <rect class="cls-9" x="214.46" y="24.75" width="50.1" height="24.23"></rect>
        <rect class="cls-9" x="214.46" y="194.34" width="10.1" height="24.23"></rect>
        <rect class="cls-9" x="214.46" y="170.12" width="12.2" height="24.23"></rect>
        <rect class="cls-11" x="214.46" y="218.57" width="10.1" height="24.23"></rect>
        <rect class="cls-9" x="214.46" y="145.89" width="12.2" height="24.23"></rect>
        <text class="cls-3" transform="translate(481.32 16.61)">10.65%</text>
        <text class="cls-3" transform="translate(481.32 89.29)">3.76%</text>
        <text class="cls-3" transform="translate(481.32 113.52)">3.76%</text>
        <text class="cls-3" transform="translate(481.32 137.75)">3.27%</text>
        <text class="cls-3" transform="translate(481.32 65.06)">4.73%</text>
        <text class="cls-3" transform="translate(481.32 40.84)">10.02%</text>
        <text class="cls-3" transform="translate(481.32 210.43)">2.02%</text>
        <text class="cls-3" transform="translate(481.32 186.2)">2.44%</text>
        <text class="cls-3" transform="translate(481.32 234.66)">2.02%</text>
        <text class="cls-3" transform="translate(481.32 161.98)">2.44%</text>
      </g>
    </g>
  </g>
</svg>
