<svg xmlns="http://www.w3.org/2000/svg" width="542.78" height="249.74" viewBox="0 0 542.78 249.74"><rect y="170.44" width="542.78" height="24.23" fill="#fff" opacity="0.05"/><rect y="146.21" width="542.78" height="24.23" opacity="0.05"/><rect y="194.67" width="542.78" height="24.23" opacity="0.05"/><rect y="121.98" width="542.78" height="24.23" fill="#fff" opacity="0.05"/><rect y="97.76" width="542.78" height="24.23" opacity="0.05"/><rect y="73.53" width="542.78" height="24.23" fill="#fff" opacity="0.05"/><rect y="49.3" width="542.78" height="24.23" opacity="0.05"/><rect y="25.07" width="542.78" height="24.23" fill="#fff" opacity="0.05"/><rect y="0.84" width="542.78" height="24.23" opacity="0.05"/><text transform="translate(12.45 89.62)" font-size="13.42" font-family="ZillaSlab-Regular, Zilla Slab">A<tspan x="8.7" y="0" letter-spacing="-0.01em">PI</tspan><tspan x="20.53" y="0" letter-spacing="0em">s g</tspan><tspan x="36.81" y="0" letter-spacing="-0.01em">i</tspan><tspan x="40.39" y="0">ving access to har</tspan><tspan x="143.59" y="0" letter-spacing="-0.01em">d</tspan><tspan x="150.85" y="0">ware</tspan></text><text transform="translate(14.45 65.39)" font-size="13.42" font-family="ZillaSlab-Regular, Zilla Slab"><tspan letter-spacing="-0.01em">A</tspan><tspan x="8.51" y="0">ccess to nat</tspan><tspan x="76.07" y="0" letter-spacing="-0.01em">i</tspan><tspan x="79.65" y="0" letter-spacing="-0.02em">v</tspan><tspan x="86.25" y="0">e</tspan><tspan x="92.56" y="0" letter-spacing="-0.03em"> </tspan><tspan x="95.2" y="0">A</tspan><tspan x="103.9" y="0" letter-spacing="-0.01em">PI</tspan><tspan x="115.73" y="0" letter-spacing="0em">s</tspan></text><text transform="translate(14.45 41.16)" font-size="13.42" font-family="ZillaSlab-Regular, Zilla Slab"><tspan letter-spacing="-0.02em">P</tspan><tspan x="7.41" y="0">er</tspan><tspan x="19.35" y="0" letter-spacing="-0.01em">f</tspan><tspan x="23.54" y="0" letter-spacing="0em">ormance</tspan></text><text transform="translate(14.45 16.61)" font-size="13.42" font-family="ZillaSlab-Regular, Zilla Slab">Br<tspan x="13.74" y="0" letter-spacing="-0.01em">o</tspan><tspan x="20.49" y="0" letter-spacing="-0.01em">w</tspan><tspan x="30.62" y="0" letter-spacing="0em">se</tspan><tspan x="42.8" y="0" letter-spacing="-0.02em">r</tspan><tspan x="48.23" y="0" xml:space="preserve" letter-spacing="0em"> compatibilit</tspan><tspan x="121.76" y="0" letter-spacing="-0.02em">y</tspan></text><text transform="translate(14.45 113.84)" font-size="13.42" font-family="ZillaSlab-Regular, Zilla Slab">Debugging</text><text transform="translate(14.45 186.53)" font-size="13.42" font-family="ZillaSlab-Regular, Zilla Slab">CSS support</text><text transform="translate(14.45 162.3)" font-size="13.42" font-family="ZillaSlab-Regular, Zilla Slab"><tspan letter-spacing="-0.01em">A</tspan><tspan x="8.51" y="0">ccess to files</tspan><tspan x="80.71" y="0" letter-spacing="-0.01em">y</tspan><tspan x="87.39" y="0">stem</tspan></text><text transform="translate(14.45 210.75)" font-size="13.42" font-family="ZillaSlab-Regular, Zilla Slab" letter-spacing="-0.02em">N<tspan x="9.61" y="0" letter-spacing="0em">one of these</tspan></text><text transform="translate(14.45 138.07)" font-size="13.42" font-family="ZillaSlab-Regular, Zilla Slab">P<tspan x="7.7" y="0" letter-spacing="-0.06em">W</tspan><tspan x="19.43" y="0" letter-spacing="-0.03em">A</tspan><tspan x="27.68" y="0" xml:space="preserve"> support</tspan></text><text transform="translate(14.45 246.66)" font-size="13.77" font-family="ZillaSlab-Italic, Zilla Slab" font-style="italic"><tspan letter-spacing="-0.01em">n</tspan><tspan x="7.07" y="0" xml:space="preserve"> = 6645</tspan></text><rect x="214.46" y="73.53" width="86.4" height="24.23" fill="#00458b" stroke="#fff" stroke-miterlimit="10" stroke-width="0.78"/><rect x="214.46" y="97.76" width="60.9" height="24.23" fill="#00458b" stroke="#fff" stroke-miterlimit="10" stroke-width="0.66"/><rect x="214.46" y="49.3" width="90.6" height="24.23" fill="#00458b" stroke="#fff" stroke-miterlimit="10" stroke-width="0.79"/><rect x="214.46" y="25.07" width="92.7" height="24.23" fill="#00458b" stroke="#fff" stroke-miterlimit="10" stroke-width="0.75"/><rect x="214.46" y="0.52" width="146.4" height="24.23" fill="#00458b" stroke="#fff" stroke-miterlimit="10" stroke-width="0.81"/><rect x="214.46" y="170.44" width="47.4" height="24.23" fill="#00458b" stroke="#fff" stroke-miterlimit="10" stroke-width="0.63"/><rect x="214.46" y="146.21" width="58.2" height="24.23" fill="#00458b" stroke="#fff" stroke-miterlimit="10" stroke-width="0.65"/><rect x="214.46" y="194.67" width="22.8" height="24.23" fill="#00458b" stroke="#fff" stroke-miterlimit="10" stroke-width="0.41"/><rect x="214.46" y="121.98" width="59.7" height="24.23" fill="#00458b" stroke="#fff" stroke-miterlimit="10" stroke-width="0.54"/><text transform="translate(481.57 65.39)" font-size="13.42" font-family="ZillaSlab-Regular, Zilla Slab">3<tspan x="6.56" y="0" letter-spacing="-0.01em">0</tspan><tspan x="14.1" y="0">.2%</tspan></text><text transform="translate(481.57 89.62)" font-size="13.42" font-family="ZillaSlab-Regular, Zilla Slab">2<tspan x="6.91" y="0" letter-spacing="-0.01em">8</tspan><tspan x="14" y="0">.8%</tspan></text><text transform="translate(481.57 113.84)" font-size="13.42" font-family="ZillaSlab-Regular, Zilla Slab">2<tspan x="6.91" y="0" letter-spacing="-0.01em">0</tspan><tspan x="14.45" y="0">.3%</tspan></text><text transform="translate(481.57 16.61)" font-size="13.42" font-family="ZillaSlab-Regular, Zilla Slab">4<tspan x="7.23" y="0" letter-spacing="-0.01em">8</tspan><tspan x="14.32" y="0">.8%</tspan></text><text transform="translate(481.57 41.16)" font-size="13.42" font-family="ZillaSlab-Regular, Zilla Slab">3<tspan x="6.56" y="0" letter-spacing="-0.01em">0</tspan><tspan x="14.1" y="0">.9%</tspan></text><text transform="translate(481.57 186.53)" font-size="13.42" font-family="ZillaSlab-Regular, Zilla Slab">15.8%</text><text transform="translate(481.57 162.3)" font-size="13.42" font-family="ZillaSlab-Regular, Zilla Slab">19.4%</text><text transform="translate(481.57 210.75)" font-size="13.42" font-family="ZillaSlab-Regular, Zilla Slab"><tspan letter-spacing="-0.05em">7</tspan><tspan x="5.7" y="0" letter-spacing="-0.02em">.</tspan><tspan x="8.28" y="0">6%</tspan></text><text transform="translate(481.57 138.07)" font-size="13.42" font-family="ZillaSlab-Regular, Zilla Slab">19.9%</text></svg>
