<svg xmlns="http://www.w3.org/2000/svg" width="542.75" height="271.56" viewBox="0 0 542.75 271.56"><rect y="194.34" width="542.75" height="24.23" opacity="0.05"/><rect y="170.12" width="542.75" height="24.23" fill="#fff" opacity="0.05"/><rect y="218.57" width="542.75" height="24.23" fill="#fff" opacity="0.05"/><rect y="145.89" width="542.75" height="24.23" opacity="0.05"/><rect y="121.66" width="542.75" height="24.23" fill="#fff" opacity="0.05"/><rect y="97.43" width="542.75" height="24.23" opacity="0.05"/><rect y="73.2" width="542.75" height="24.23" fill="#fff" opacity="0.05"/><rect y="48.98" width="542.75" height="24.23" opacity="0.05"/><rect y="24.75" width="542.75" height="24.23" fill="#fff" opacity="0.05"/><rect y="0.52" width="542.75" height="24.23" opacity="0.05"/><text transform="translate(14.45 16.61)" font-size="13.42" font-family="ZillaSlab-Regular, Zilla Slab">Br<tspan x="13.74" y="0" letter-spacing="-0.01em">o</tspan><tspan x="20.49" y="0" letter-spacing="-0.01em">w</tspan><tspan x="30.62" y="0" letter-spacing="0em">se</tspan><tspan x="42.8" y="0" letter-spacing="-0.02em">r</tspan><tspan x="48.23" y="0" xml:space="preserve" letter-spacing="0em"> Compatibilit</tspan><tspan x="124.23" y="0" letter-spacing="-0.02em">y</tspan></text><text transform="translate(14.45 113.52)" font-size="13.42" font-family="ZillaSlab-Regular, Zilla Slab"><tspan letter-spacing="-0.01em">A</tspan><tspan x="8.51" y="0">ccess to Files</tspan><tspan x="83.92" y="0" letter-spacing="-0.01em">y</tspan><tspan x="90.6" y="0">stem</tspan></text><text transform="translate(14.45 89.29)" font-size="13.42" font-family="ZillaSlab-Regular, Zilla Slab">P<tspan x="7.7" y="0" letter-spacing="-0.06em">W</tspan><tspan x="19.43" y="0" letter-spacing="-0.03em">A</tspan><tspan x="27.68" y="0" xml:space="preserve"> support</tspan></text><text transform="translate(14.45 65.06)" font-size="13.42" font-family="ZillaSlab-Regular, Zilla Slab">CSS</text><text transform="translate(14.45 40.84)" font-size="13.42" font-family="ZillaSlab-Regular, Zilla Slab"><tspan letter-spacing="-0.01em">A</tspan><tspan x="8.51" y="0">ccess to </tspan><tspan x="56.92" y="0" letter-spacing="-0.01em">H</tspan><tspan x="66.92" y="0">ar</tspan><tspan x="79.03" y="0" letter-spacing="-0.01em">d</tspan><tspan x="86.29" y="0">ware</tspan></text><text transform="translate(14.45 137.75)" font-size="13.42" font-family="ZillaSlab-Regular, Zilla Slab"><tspan letter-spacing="-0.05em">A</tspan><tspan x="8.08" y="0" letter-spacing="-0.02em">v</tspan><tspan x="14.68" y="0">oid</tspan><tspan x="32.69" y="0" letter-spacing="-0.02em"> </tspan><tspan x="35.48" y="0" letter-spacing="-0.03em">J</tspan><tspan x="41.23" y="0" letter-spacing="-0.02em">a</tspan><tspan x="47.43" y="0">vaScript</tspan></text><text transform="translate(14.45 210.43)" font-size="13.42" font-family="ZillaSlab-Regular, Zilla Slab"><tspan letter-spacing="-0.01em">A</tspan><tspan x="8.51" y="0">ccessibilit</tspan><tspan x="65.95" y="0" letter-spacing="-0.02em">y</tspan></text><text transform="translate(14.45 186.2)" font-size="13.42" font-family="ZillaSlab-Regular, Zilla Slab"><tspan letter-spacing="-0.02em">P</tspan><tspan x="7.41" y="0">er</tspan><tspan x="19.35" y="0" letter-spacing="-0.01em">f</tspan><tspan x="23.54" y="0" letter-spacing="0em">ormance</tspan></text><text transform="translate(14.45 234.66)" font-size="13.42" font-family="ZillaSlab-Regular, Zilla Slab">Securit<tspan x="41.56" y="0" letter-spacing="-0.02em">y</tspan></text><text transform="translate(14.45 161.98)" font-size="13.42" font-family="ZillaSlab-Regular, Zilla Slab">Debugging</text><text transform="translate(14.45 268.47)" font-size="13.77" font-family="ZillaSlab-Italic, Zilla Slab" font-style="italic"><tspan letter-spacing="-0.01em">n</tspan><tspan x="7.07" y="0" xml:space="preserve"> = 648</tspan></text><rect x="214.46" y="0.52" width="31.95" height="24.23" fill="#00458b" stroke="#fff" stroke-miterlimit="10" stroke-width="0.81"/><rect x="214.46" y="97.43" width="11.28" height="24.23" fill="#00458b" stroke="#fff" stroke-miterlimit="10" stroke-width="0.29"/><rect x="214.46" y="121.66" width="9.81" height="24.23" fill="#00458b" stroke="#fff" stroke-miterlimit="10" stroke-width="0.81"/><rect x="214.46" y="73.2" width="11.28" height="24.23" fill="#00458b" stroke="#fff" stroke-miterlimit="10" stroke-width="0.81"/><rect x="214.46" y="48.98" width="14.19" height="24.23" fill="#00458b" stroke="#fff" stroke-miterlimit="10" stroke-width="0.81"/><rect x="214.46" y="24.75" width="30.06" height="24.23" fill="#00458b" stroke="#fff" stroke-miterlimit="10" stroke-width="0.81"/><rect x="214.46" y="194.34" width="6.06" height="24.23" fill="#00458b" stroke="#fff" stroke-miterlimit="10" stroke-width="0.81"/><rect x="214.46" y="170.12" width="7.32" height="24.23" fill="#00458b" stroke="#fff" stroke-miterlimit="10" stroke-width="0.81"/><rect x="214.46" y="218.57" width="6.06" height="24.23" fill="#00458b" stroke="#fff" stroke-miterlimit="10" stroke-width="0.24"/><rect x="214.46" y="145.89" width="7.32" height="24.23" fill="#00458b" stroke="#fff" stroke-miterlimit="10" stroke-width="0.81"/><text transform="translate(481.32 16.61)" font-size="13.42" font-family="ZillaSlab-Regular, Zilla Slab">1<tspan x="5.17" y="0" letter-spacing="-0.01em">0</tspan><tspan x="12.71" y="0" letter-spacing="-0.02em">.</tspan><tspan x="15.28" y="0" letter-spacing="0em">65%</tspan></text><text transform="translate(481.32 89.29)" font-size="13.42" font-family="ZillaSlab-Regular, Zilla Slab">3<tspan x="6.56" y="0" letter-spacing="-0.05em">.</tspan><tspan x="8.74" y="0">76%</tspan></text><text transform="translate(481.32 113.52)" font-size="13.42" font-family="ZillaSlab-Regular, Zilla Slab">3<tspan x="6.56" y="0" letter-spacing="-0.05em">.</tspan><tspan x="8.74" y="0">76%</tspan></text><text transform="translate(481.32 137.75)" font-size="13.42" font-family="ZillaSlab-Regular, Zilla Slab">3.27%</text><text transform="translate(481.32 65.06)" font-size="13.42" font-family="ZillaSlab-Regular, Zilla Slab">4<tspan x="7.23" y="0" letter-spacing="-0.05em">.</tspan><tspan x="9.41" y="0">73%</tspan></text><text transform="translate(481.32 40.84)" font-size="13.42" font-family="ZillaSlab-Regular, Zilla Slab">1<tspan x="5.17" y="0" letter-spacing="-0.01em">0</tspan><tspan x="12.71" y="0" letter-spacing="-0.01em">.</tspan><tspan x="15.36" y="0" letter-spacing="0em">02%</tspan></text><text transform="translate(481.32 210.43)" font-size="13.42" font-family="ZillaSlab-Regular, Zilla Slab">2<tspan x="6.91" y="0" letter-spacing="-0.01em">.</tspan><tspan x="9.57" y="0" letter-spacing="0em">02%</tspan></text><text transform="translate(481.32 186.2)" font-size="13.42" font-family="ZillaSlab-Regular, Zilla Slab">2.44%</text><text transform="translate(481.32 234.66)" font-size="13.42" font-family="ZillaSlab-Regular, Zilla Slab">2<tspan x="6.91" y="0" letter-spacing="-0.01em">.</tspan><tspan x="9.57" y="0" letter-spacing="0em">02%</tspan></text><text transform="translate(481.32 161.98)" font-size="13.42" font-family="ZillaSlab-Regular, Zilla Slab">2.44%</text></svg>
