<?xml version="1.0" encoding="UTF-8"?>
<svg xmlns="http://www.w3.org/2000/svg" viewBox="0 0 361.59 305.49">
  <defs>
    <style>.cls-1{fill:#fff44f;}.cls-2{fill:#ffa356;}.cls-3{fill:#f96282;}.cls-4{fill:#9f4e9d;}.cls-5{fill:#00458b;}.cls-6,.cls-9{font-size:10px;font-family:ArialMT, Arial;}.cls-7{letter-spacing:-0.03em;}.cls-8{letter-spacing:-0.08em;}.cls-9{fill:#959595;}.cls-10{letter-spacing:-0.01em;}.cls-11{letter-spacing:-0.01em;}.cls-12{letter-spacing:-0.02em;}.cls-13{letter-spacing:-0.02em;}.cls-14{letter-spacing:-0.02em;}.cls-15{letter-spacing:-0.03em;}.cls-16{letter-spacing:-0.01em;}.cls-17{letter-spacing:-0.01em;}.cls-18{fill:none;stroke:#000;}</style>
  </defs>
  <g id="Layer_2" data-name="Layer 2">
    <g id="Layer_1-2" data-name="Layer 1">
      <path class="cls-1" d="M215.29,143.88V33.72A111.12,111.12,0,0,0,178.6,40,108.11,108.11,0,0,0,145.08,59Z"></path>
      <path class="cls-2" d="M215.29,143.88,145.08,59a111.19,111.19,0,0,0-31.86,43.54,112,112,0,0,0-7.13,26.66,107.29,107.29,0,0,0-.12,28.54Z"></path>
      <path class="cls-3" d="M215.29,143.88,106,157.69a108,108,0,0,0,6.1,24.77,110.46,110.46,0,0,0,47.32,56.39,109.6,109.6,0,0,0,49,15Z"></path>
      <path class="cls-4" d="M215.29,143.88l-6.95,109.94a105.65,105.65,0,0,0,26.77-1.55,111.58,111.58,0,0,0,25-7.79A110.71,110.71,0,0,0,301.07,213a111.56,111.56,0,0,0,14-22.41,106.8,106.8,0,0,0,8.41-26Z"></path>
      <path class="cls-5" d="M215.29,143.88l108.24,20.68A97.82,97.82,0,0,0,325,154.38q.47-5.17.46-10.5a108.31,108.31,0,0,0-3.93-29.27,110.39,110.39,0,0,0-76.95-77,108.44,108.44,0,0,0-29.28-3.93Z"></path>
      <text class="cls-6" transform="translate(316.82 284.37)">10+<tspan class="cls-7" x="16.96" y="0"> </tspan><tspan class="cls-8" x="19.41" y="0">Y</tspan><tspan x="25.32" y="0">ears</tspan></text>
      <text class="cls-9" transform="translate(331.63 302.24)">23.4%</text>
      <text class="cls-9" transform="translate(329.97 22.8)">2<tspan class="cls-10" x="5.56" y="0">8</tspan><tspan x="11.02" y="0">.1%</tspan></text>
      <text class="cls-9" transform="translate(51.55 28.55)">1<tspan class="cls-11" x="5.56" y="0">0</tspan><tspan class="cls-12" x="10.99" y="0">.</tspan><tspan x="13.59" y="0">6%</tspan></text>
      <text class="cls-9" transform="translate(0 100.36)">15<tspan class="cls-13" x="11.12" y="0">.</tspan><tspan x="13.71" y="0">6%</tspan></text>
      <text class="cls-9" transform="translate(0 266.44)">22.2%</text>
      <text class="cls-6" transform="translate(51.55 10.46)">Less<tspan class="cls-14" x="21.12" y="0"> </tspan><tspan x="23.73" y="0">Than 1</tspan><tspan class="cls-15" x="54.86" y="0"> </tspan><tspan class="cls-8" x="57.3" y="0">Y</tspan><tspan x="63.21" y="0">ear</tspan></text>
      <text class="cls-6" transform="translate(0 248.35)">
        <tspan class="cls-10">1</tspan>
        <tspan class="cls-11" x="5.46" y="0">-</tspan>
        <tspan x="8.66" y="0">2</tspan>
        <tspan class="cls-7" x="14.22" y="0"> </tspan>
        <tspan class="cls-8" x="16.67" y="0">Y</tspan>
        <tspan x="22.58" y="0">ears</tspan>
      </text>
      <text class="cls-6" transform="translate(0 82.15)">6-9<tspan class="cls-7" x="14.45" y="0"> </tspan><tspan class="cls-8" x="16.9" y="0">Y</tspan><tspan x="22.81" y="0">ears</tspan></text>
      <text class="cls-6" transform="translate(315.61 8.58)">
        <tspan class="cls-16">3</tspan>
        <tspan class="cls-17" x="5.42" y="0">-</tspan>
        <tspan x="8.64" y="0">5</tspan>
        <tspan class="cls-7" x="14.2" y="0"> </tspan>
        <tspan class="cls-8" x="16.65" y="0">Y</tspan>
        <tspan x="22.56" y="0">ears</tspan>
      </text>
      <line class="cls-18" x1="79.07" y1="252.93" x2="139.29" y2="230.67"></line>
      <line class="cls-18" x1="240.79" y1="289.31" x2="236.8" y2="256.37"></line>
      <line class="cls-18" x1="239.23" y1="13.24" x2="227.87" y2="29.64"></line>
      <line class="cls-18" x1="355.96" y1="288.87" x2="240.56" y2="288.87"></line>
      <line class="cls-18" x1="354.23" y1="13.39" x2="238.83" y2="13.39"></line>
      <line class="cls-18" x1="166.42" y1="15.58" x2="196.26" y2="34.42"></line>
      <line class="cls-18" x1="78.72" y1="86.74" x2="111.17" y2="107.14"></line>
      <line class="cls-18" x1="51.36" y1="15.66" x2="166.76" y2="15.66"></line>
      <line class="cls-18" x1="0.49" y1="86.82" x2="79.34" y2="86.82"></line>
      <line class="cls-18" x1="0.49" y1="252.9" x2="79.34" y2="252.9"></line>
    </g>
  </g>
</svg>
