<?xml version="1.0" encoding="UTF-8"?>
<svg xmlns="http://www.w3.org/2000/svg" viewBox="0 0 73.66 62.73">
  <defs>
    <style>.cls-1{fill:#101010;}.cls-2{fill:#fff;}.cls-3{fill:none;stroke:#fff;stroke-width:1.64px;}.cls-4{fill:#e7e5e2;}.cls-5{fill:#ff4f5e;}</style>
  </defs>
  <g id="Layer_2" data-name="Layer 2">
    <g id="Layer_1-2" data-name="Layer 1">
      <path class="cls-1" d="M63,61.56,55.49,54a25.36,25.36,0,1,0-42-7.32A25,25,0,0,0,18.18,54l-7.53,7.53A36,36,0,0,1,22.82,3.65a36,36,0,0,1,50,33.18A35.9,35.9,0,0,1,63,61.56"></path>
      <path class="cls-2" d="M63,62.73h0l-8.68-8.68a24.51,24.51,0,0,0-.15-34.58,24.53,24.53,0,0,0-34.72,0,24.58,24.58,0,0,0-5.26,26.92,24.54,24.54,0,0,0,5.11,7.66l-8.68,8.68a36.86,36.86,0,1,1,52.38,0Zm0-2.36a35.21,35.21,0,0,0-12.46-56,35.18,35.18,0,0,0-39.85,56L17,54a26.22,26.22,0,1,1,39.58,0L63,60.37"></path>
      <line class="cls-3" x1="36.83" y1="36.83" x2="36.83" y2="1.64"></line>
      <line class="cls-3" x1="36.83" y1="36.83" x2="1.64" y2="36.83"></line>
      <line class="cls-3" x1="36.42" y1="36.42" x2="11.36" y2="11.36"></line>
      <line class="cls-3" x1="37.24" y1="37.24" x2="62.61" y2="11.36"></line>
      <line class="cls-3" x1="72.03" y1="36.83" x2="36.83" y2="36.83"></line>
      <path class="cls-4" d="M36.83,12.28A24.56,24.56,0,1,1,12.28,36.83,24.56,24.56,0,0,1,36.83,12.28"></path>
      <path class="cls-5" d="M36.83,32.74a4.09,4.09,0,1,1-4.09,4.09,4.09,4.09,0,0,1,4.09-4.09"></path>
      <polygon class="cls-5" points="69.57 36.83 37.65 39.29 37.65 34.38 69.57 36.83"></polygon>
    </g>
  </g>
</svg>
