<?xml version="1.0" encoding="UTF-8"?>
<svg xmlns="http://www.w3.org/2000/svg" viewBox="0 0 70.2 73.8">
  <defs>
    <style>.cls-1{fill:#00458b;}.cls-2{fill:#e7e5e2;}.cls-3{fill:none;stroke:#fff;stroke-width:1.57px;}.cls-4{fill:#ff4f5e;}.cls-5{fill:#fff;}</style>
  </defs>
  <g id="Layer_2" data-name="Layer 2">
    <g id="Layer_1-2" data-name="Layer 1">
      <path class="cls-1" d="M35,3.88a35,35,0,1,1-35,35,35,35,0,0,1,35-35"></path>
      <path class="cls-2" d="M44.48,37.39c-.72,1.79-14.23,18-16.21,18s-8.8,4.22-7.41-6.64c.31-3.5,4.4-10.6,2.08-13.65-2.6-3.44-9.3-2.36-9.15-4.6a32,32,0,0,1,2.6-9.08c1-1.82,5.83-8.65,8.06-8.13s6,9.47,8.47,9.73,3.06-1.13,1-4.59-5.09-5.63-4.38-8.2,6.4-2.54,10.07-2.59,12.72.52,17.53,4.79,7.41,7.45,9.64,12.6,3.61,14.59,1.83,13.72-6.52-7-6.52-7-2.3,7.4-2.3,11.3-3.7-4.7-7.47-8-16.72-1.35-13.78,0,6.66.45,5.94,2.25"></path>
      <path class="cls-3" d="M44.48,37.39c-.72,1.79-14.23,18-16.21,18s-8.8,4.22-7.41-6.64c.31-3.5,4.4-10.6,2.08-13.65-2.6-3.44-9.3-2.36-9.15-4.6a32,32,0,0,1,2.6-9.08c1-1.82,5.83-8.65,8.06-8.13s6,9.47,8.47,9.73,3.06-1.13,1-4.59-5.09-5.63-4.38-8.2,6.4-2.54,10.07-2.59,12.72.52,17.53,4.79,7.41,7.45,9.64,12.6,3.61,14.59,1.83,13.72-6.52-7-6.52-7-2.3,7.4-2.3,11.3-3.7-4.7-7.47-8-16.72-1.35-13.78,0S45.2,35.59,44.48,37.39Z"></path>
      <path class="cls-4" d="M53,30.19,44.8,19.28a11.65,11.65,0,1,1,17.27.38L54.23,30.19a.77.77,0,0,1-1.26,0"></path>
      <path class="cls-5" d="M53.6,7a4.67,4.67,0,1,1-4.66,4.66A4.66,4.66,0,0,1,53.6,7"></path>
    </g>
  </g>
</svg>
