<?xml version="1.0" encoding="UTF-8"?>
<svg xmlns="http://www.w3.org/2000/svg" viewBox="0 0 110.77 73.8">
  <defs>
    <style>.cls-1{fill:#101010;}.cls-2{fill:#ff4f5e;}.cls-3{fill:#959595;}</style>
  </defs>
  <g id="Layer_2" data-name="Layer 2">
    <g id="Layer_1-2" data-name="Layer 1">
      <path class="cls-1" d="M1.7,55.54C-1,55.06-.62,51.43,3.74,49c2.33-1.29,4.84-1.16,7.17-1,2.56.14,4.9.28,6.53-1.46,2.65-2.84,7.41-15.18,10.5-20.4a5.85,5.85,0,0,1-1.51-.07A5.11,5.11,0,0,1,22,20.39a5.12,5.12,0,0,1,6.12-3.81,5.11,5.11,0,0,1,4.44,5.67,5.45,5.45,0,0,1-.14.58c6.11-1.62,19.08-2.17,27.75-2.19A68.93,68.93,0,0,1,74.05,22a18.91,18.91,0,0,0,4,.51,1.62,1.62,0,0,0,.74-.24,47.09,47.09,0,0,1-7.71-3.61C63.6,14.3,58.56,9,59.82,6.86c.79-1.36,3.84-1.2,7.85.17C65.5,4.12,64.59,1.69,65.5.59c1.62-1.93,8.29,1,14.9,6.55a41.59,41.59,0,0,1,7.54,8,12.06,12.06,0,0,1,3.44.26c9.36,2,17,8.25,17.75,12.52s-6,5.44-6,5.44C91.23,38,85.83,37.22,83.72,38.55s8,2,14.2,4.34,8.16,6.78,7.89,8.72-6.62-.84-8.94-1.25-16.44-4-21.8-6.75c-3.56-1.8-6.95-1.29-11.36-.78a56.12,56.12,0,0,1-7.56.48c-8.59-.11-13.39-.56-13.39-.56S24,52.17,20.45,53,6.65,55.15,2.82,55.56a4.19,4.19,0,0,1-.5,0,4.32,4.32,0,0,1-.62-.05"></path>
      <path class="cls-2" d="M92.23,20.46c1.77.31,3.06,1.42,2.87,2.49s-1.78,1.66-3.55,1.35-3-1.43-2.86-2.49,1.77-1.67,3.54-1.35"></path>
      <path class="cls-3" d="M55.44,63.39c30.56,0,55.33,2.33,55.33,5.2S86,73.8,55.44,73.8.11,71.47.11,68.59s24.77-5.2,55.33-5.2"></path>
    </g>
  </g>
</svg>
