<?xml version="1.0" encoding="UTF-8"?>
<svg xmlns="http://www.w3.org/2000/svg" viewBox="0 0 63.38 73.8">
  <defs>
    <style>.cls-1{fill:#ff4f5e;}.cls-2{fill:#e7e5e2;}.cls-3{fill:#fff;}.cls-4{fill:#101010;}</style>
  </defs>
  <g id="Layer_2" data-name="Layer 2">
    <g id="Layer_1-2" data-name="Layer 1">
      <rect class="cls-1" x="4.92" y="1.64" width="34.44" height="70.52"></rect>
      <path class="cls-2" d="M5.85,73h-5V.82H25.18Zm50.73,0H11.79L31.13.82H56.58Z"></path>
      <path class="cls-3" d="M6.48,73.8Zm50.92,0ZM1.64,72.16V1.64H24.11L5.22,72.16ZM0,0V73.8H6.48L26.25,0ZM12.86,72.16,31.76,1.64h24V72.16ZM30.5,0,10.72,73.8H57.4V0Z"></path>
      <path class="cls-4" d="M63.38,15.88,34.74,56.06a10.93,10.93,0,0,0-2.35-2.89,15.83,15.83,0,0,0-3.62-2.12Z"></path>
      <path class="cls-1" d="M28,51.71a12,12,0,0,1,3.48,2,6.53,6.53,0,0,1,2.33,3c.37.94-4.17,3.88-6.07,4s-5.09.17-6.26,2a5.08,5.08,0,0,0-1,2.87A9.72,9.72,0,0,1,21.16,59C22.85,55.72,28,51.71,28,51.71"></path>
    </g>
  </g>
</svg>
