<?xml version="1.0" encoding="UTF-8"?>
<svg xmlns="http://www.w3.org/2000/svg" viewBox="0 0 84.41 53.17">
  <defs>
    <style>.cls-1{fill:#101010;}.cls-2{fill:#fff;}.cls-3{fill:#ff4f5e;}</style>
  </defs>
  <g id="Layer_2" data-name="Layer 2">
    <g id="Layer_1-2" data-name="Layer 1">
      <path class="cls-1" d="M.09,0S24.56,4.69,42.54,4.69s0,25.15,0,25.15a71.63,71.63,0,0,1-7.81,9.3c-4.64,4.64-7.81,14-7.81,14A53.1,53.1,0,0,1,6.64,33.42C-1.27,19.73.09,0,.09,0"></path>
      <path class="cls-2" d="M31.79,20c-6.09-4.49-7.66-5-10.79-5.22s-8.28,2.1-8.28,2.1,4.17,5.81,8.28,5.77S31.79,20,31.79,20"></path>
      <path class="cls-1" d="M84.33,0S59.85,4.69,41.88,4.69s0,25.15,0,25.15a71.63,71.63,0,0,0,7.81,9.3c4.63,4.64,7.8,14,7.8,14A53.16,53.16,0,0,0,77.78,33.42C85.68,19.73,84.33,0,84.33,0"></path>
      <path class="cls-3" d="M52.63,20c6.08-4.49,7.65-5,10.78-5.22s8.29,2.1,8.29,2.1-4.18,5.81-8.29,5.77S52.63,20,52.63,20"></path>
    </g>
  </g>
</svg>
