<?xml version="1.0" encoding="UTF-8"?>
<svg xmlns="http://www.w3.org/2000/svg" viewBox="0 0 56.05 73.8">
  <defs>
    <style>.cls-1{fill:#101010;}.cls-2{fill:#fff;}.cls-3{fill:#e7e5e2;}.cls-4{fill:#ff4f5e;}</style>
  </defs>
  <g id="Layer_2" data-name="Layer 2">
    <g id="Layer_1-2" data-name="Layer 1">
      <path class="cls-1" d="M9.34,18.68V45.15H46.71V18.68a18.69,18.69,0,0,0-37.37,0"></path>
      <path class="cls-2" d="M14,45.31V18.68a14,14,0,0,1,28-.13V45.31Z"></path>
      <path class="cls-3" d="M28,72.87a26.92,26.92,0,0,1-15.15-4.63A27.23,27.23,0,0,1,3.06,56.32a27.19,27.19,0,0,1-1.58-5.08,27.43,27.43,0,0,1,0-10.93,27.19,27.19,0,0,1,1.58-5.08,27.27,27.27,0,0,1,9.82-11.92,27.07,27.07,0,0,1,25.69-2.5A27.23,27.23,0,0,1,53,35.23a27.19,27.19,0,0,1,1.58,5.08,27.43,27.43,0,0,1,0,10.93A27.19,27.19,0,0,1,53,56.32,27.23,27.23,0,0,1,38.57,70.74,26.91,26.91,0,0,1,28,72.87"></path>
      <path class="cls-2" d="M28,17.75a28,28,0,1,1-28,28,28,28,0,0,1,28-28m0,1.86A26.17,26.17,0,1,0,54.19,45.78,26.2,26.2,0,0,0,28,19.61"></path>
      <polygon class="cls-4" points="40.57 36.66 44.52 41.38 23.05 59.4 11.04 45.08 15.49 41.35 23.55 50.95 40.57 36.66"></polygon>
    </g>
  </g>
</svg>
