<?xml version="1.0" encoding="UTF-8"?>
<svg xmlns="http://www.w3.org/2000/svg" viewBox="0 0 47.16 56.18">
  <defs>
    <style>.cls-1{fill:#e7e5e2;}.cls-2{fill:none;stroke:#101010;stroke-linecap:round;stroke-width:1.53px;}</style>
  </defs>
  <g id="Layer_2" data-name="Layer 2">
    <g id="Layer_1-2" data-name="Layer 1">
      <path class="cls-1" d="M23.69.25c12.66,0,22.93,12.32,22.93,27.52S36.35,55.29,23.69,55.29.75,43,.75,27.77,11,.25,23.69.25"></path>
      <path class="cls-2" d="M18.82,40.11a42,42,0,0,1-.77,8.13,24.84,24.84,0,0,1-2.29,6.31"></path>
      <path class="cls-2" d="M9.44,49.42S11.05,46.8,11.5,41s3.13-8.65,7.28-8.63,7.42,4.35,7.81,9.45a26.34,26.34,0,0,1-2.72,13.64"></path>
      <path class="cls-2" d="M2.42,39c0-.62,3.7-12.76,13.29-14.26S31.15,29.07,33.5,35.24s0,13.18,0,18.35"></path>
      <path class="cls-2" d="M.76,24.93S6.26,19,13,17.42A25.61,25.61,0,0,1,30.2,19.3a20.88,20.88,0,0,1,9.87,10.41c2.18,4.71,2.63,12.1,2.21,16.31"></path>
      <path class="cls-2" d="M3,13.57s8-4.69,15.57-4.73A29.48,29.48,0,0,1,37,14.52c5.84,3.95,9.37,13,9.37,13"></path>
      <path class="cls-2" d="M12.58,2.18a30,30,0,0,1,15.68-.76c10,2.65,13.14,7.64,14.62,9.23"></path>
    </g>
  </g>
</svg>
