<?xml version="1.0" encoding="UTF-8"?>
<svg xmlns="http://www.w3.org/2000/svg" viewBox="0 0 74.26 73.34">
  <defs>
    <style>.cls-1,.cls-2,.cls-6{fill:none;stroke-width:2.22px;}.cls-1,.cls-2{stroke:#707070;stroke-linecap:round;}.cls-1{stroke-linejoin:round;}.cls-3{fill:#ff4f5e;}.cls-4{fill:#fff;}.cls-5{fill:#101010;}.cls-6{stroke:#fff;}</style>
  </defs>
  <g id="Layer_2" data-name="Layer 2">
    <g id="Layer_1-2" data-name="Layer 1">
      <polyline class="cls-1" points="16.27 40.26 10.27 36.24 1.11 41.61"></polyline>
      <polyline class="cls-1" points="16.27 50.06 9.51 49.04 3.22 53.77"></polyline>
      <polyline class="cls-1" points="22.63 63.94 14.63 62.15 9.91 66.97"></polyline>
      <polyline class="cls-1" points="20.8 30.51 13.73 24.07 1.4 30.51"></polyline>
      <path class="cls-2" d="M39.68,11a31,31,0,0,1,2.65-4.33,47.2,47.2,0,0,1,5-5.55"></path>
      <path class="cls-2" d="M34.19,11a32,32,0,0,0-2.65-4.33,46.9,46.9,0,0,0-5-5.55"></path>
      <path class="cls-3" d="M37.12,30.5A11,11,0,0,1,27,23.8a11,11,0,0,1,2.35-12,11,11,0,0,1,3.49-2.35,10.94,10.94,0,0,1,12,2.35,11,11,0,0,1,2.36,3.49,11,11,0,0,1,0,8.54,11,11,0,0,1-2.36,3.49,10.81,10.81,0,0,1-3.48,2.35,11,11,0,0,1-4.27.86"></path>
      <path class="cls-4" d="M37.12,7.45A12.08,12.08,0,1,1,25,19.53,12.08,12.08,0,0,1,37.12,7.45m0,2.22A9.87,9.87,0,1,0,47,19.53a9.88,9.88,0,0,0-9.86-9.86"></path>
      <polyline class="cls-1" points="57.99 40.26 63.98 36.24 73.15 41.61"></polyline>
      <polyline class="cls-1" points="57.99 50.06 64.75 49.04 71.04 53.77"></polyline>
      <polyline class="cls-1" points="51.62 63.94 59.62 62.15 64.35 66.97"></polyline>
      <polyline class="cls-1" points="53.45 30.51 60.52 24.07 72.86 30.51"></polyline>
      <path class="cls-5" d="M37.12,18.43c12.13,0,22,12.3,22,27.46s-9.83,27.45-22,27.45-22-12.29-22-27.45,9.84-27.46,22-27.46"></path>
      <path class="cls-6" d="M37.12,19.54C48.63,19.54,58,31.34,58,45.89S48.63,72.23,37.12,72.23,16.26,60.44,16.26,45.89,25.6,19.54,37.12,19.54Z"></path>
      <line class="cls-6" x1="37.12" y1="20.08" x2="37.12" y2="71.69"></line>
    </g>
  </g>
</svg>
