<?xml version="1.0" encoding="UTF-8"?>
<svg xmlns="http://www.w3.org/2000/svg" viewBox="0 0 124.86 492.71">
  <defs>
    <style>.cls-1{fill:#ff4f5e;}.cls-2{font-size:10px;font-family:ArialMT, Arial;}.cls-3{fill:#ff5564;}.cls-4{fill:#ff5c6a;}.cls-5{fill:#ff6875;}.cls-6{fill:#ff6e7b;}.cls-7{fill:#ff7581;}.cls-8{fill:#ff7b86;}.cls-9{fill:#ff818c;}.cls-10{fill:#ff8892;}.cls-11{fill:#ff8e98;}.cls-12{fill:#ff949d;}.cls-13{fill:#ff9ba3;}.cls-14{fill:#ffa1a9;}.cls-15{fill:#ffa7af;}.cls-16{fill:#ffadb5;}.cls-17{fill:#ffb4ba;}.cls-18{fill:#ffbac0;}.cls-19{letter-spacing:-0.02em;}.cls-20{fill:#ffc1c6;}.cls-21{fill:#ffc7cb;}.cls-22{fill:#ffcdd1;}.cls-23{fill:#ffd3d7;}.cls-24{fill:#ffdadd;}.cls-25{fill:#ffe0e3;}.cls-26{fill:#ffe6e8;}.cls-27{fill:#ffecee;}.cls-28{fill:#fff3f4;}.cls-29{fill:#fff9fa;}.cls-30{fill:#fff;}.cls-31{font-size:12px;}.cls-31,.cls-33{font-family:Arial-BoldMT, Arial;font-weight:700;}.cls-32{letter-spacing:-0.02em;}.cls-33{font-size:11px;}.cls-34{letter-spacing:-0.01em;}</style>
  </defs>
  <g id="Layer_2" data-name="Layer 2">
    <g id="Layer_1-2" data-name="Layer 1">
      <rect class="cls-1" x="78.16" y="16.71" width="46.7" height="17"></rect>
      <text class="cls-2" transform="translate(99.59 29.14)">1</text>
      <rect class="cls-3" x="78.16" y="33.71" width="46.7" height="17"></rect>
      <text class="cls-2" transform="translate(98.94 46.14)">2</text>
      <rect class="cls-4" x="78.16" y="50.68" width="46.7" height="17"></rect>
      <text class="cls-2" transform="translate(99.07 63.11)">3</text>
      <rect class="cls-5" x="78.16" y="67.68" width="46.7" height="17"></rect>
      <text class="cls-2" transform="translate(98.82 80.11)">4</text>
      <rect class="cls-6" x="78.16" y="84.68" width="46.7" height="17"></rect>
      <text class="cls-2" transform="translate(98.95 97.11)">5</text>
      <rect class="cls-7" x="78.16" y="101.68" width="46.7" height="17"></rect>
      <text class="cls-2" transform="translate(98.86 114.11)">6</text>
      <rect class="cls-8" x="78.16" y="118.68" width="46.7" height="17"></rect>
      <text class="cls-2" transform="translate(99.16 131.11)">7</text>
      <rect class="cls-9" x="78.16" y="135.67" width="46.7" height="17"></rect>
      <text class="cls-2" transform="translate(98.82 148.11)">8</text>
      <rect class="cls-10" x="78.16" y="152.68" width="46.7" height="17"></rect>
      <text class="cls-2" transform="translate(98.86 165.12)">9</text>
      <rect class="cls-11" x="78.16" y="169.68" width="46.7" height="17"></rect>
      <text class="cls-2" transform="translate(96.71 182.11)">10</text>
      <rect class="cls-12" x="78.16" y="186.68" width="46.7" height="17"></rect>
      <text class="cls-2" transform="translate(97.66 199.11)">11</text>
      <rect class="cls-13" x="78.16" y="203.68" width="46.7" height="17"></rect>
      <text class="cls-2" transform="translate(97.01 216.11)">12</text>
      <rect class="cls-14" x="78.16" y="220.68" width="46.7" height="17"></rect>
      <text class="cls-2" transform="translate(97.14 233.11)">13</text>
      <rect class="cls-15" x="78.16" y="237.68" width="46.7" height="17"></rect>
      <text class="cls-2" transform="translate(96.89 250.11)">14</text>
      <rect class="cls-16" x="78.16" y="254.68" width="46.7" height="17"></rect>
      <text class="cls-2" transform="translate(97.03 267.11)">15</text>
      <rect class="cls-17" x="78.16" y="271.68" width="46.7" height="17"></rect>
      <text class="cls-2" transform="translate(96.93 284.11)">16</text>
      <rect class="cls-18" x="78.16" y="288.67" width="46.7" height="17"></rect>
      <text class="cls-2" transform="translate(97.32 301.11)">
        <tspan class="cls-19">1</tspan>
        <tspan x="5.39" y="0">7</tspan>
      </text>
      <rect class="cls-20" x="78.16" y="305.68" width="46.7" height="17"></rect>
      <text class="cls-2" transform="translate(96.9 318.12)">18</text>
      <rect class="cls-21" x="78.16" y="322.68" width="46.7" height="17"></rect>
      <text class="cls-2" transform="translate(96.93 335.11)">19</text>
      <rect class="cls-22" x="78.16" y="339.68" width="46.7" height="17"></rect>
      <text class="cls-2" transform="translate(96.06 352.11)">20</text>
      <rect class="cls-23" x="78.16" y="356.68" width="46.7" height="17"></rect>
      <text class="cls-2" transform="translate(97.01 369.11)">21</text>
      <rect class="cls-24" x="78.16" y="373.68" width="46.7" height="17"></rect>
      <text class="cls-2" transform="translate(96.36 386.11)">22</text>
      <rect class="cls-25" x="78.16" y="390.68" width="46.7" height="17"></rect>
      <text class="cls-2" transform="translate(96.49 403.11)">23</text>
      <rect class="cls-26" x="78.16" y="407.68" width="46.7" height="17"></rect>
      <text class="cls-2" transform="translate(96.24 420.11)">24</text>
      <rect class="cls-27" x="78.16" y="424.68" width="46.7" height="17"></rect>
      <text class="cls-2" transform="translate(96.38 437.11)">25</text>
      <rect class="cls-28" x="78.16" y="441.67" width="46.7" height="17"></rect>
      <text class="cls-2" transform="translate(96.28 454.11)">26</text>
      <rect class="cls-29" x="78.16" y="458.68" width="46.7" height="17"></rect>
      <text class="cls-2" transform="translate(96.58 471.12)">27</text>
      <rect class="cls-30" x="78.16" y="475.68" width="46.7" height="17"></rect>
      <text class="cls-2" transform="translate(96.25 488.11)">28</text>
      <text class="cls-31" transform="translate(89.23 10.31)">
        <tspan class="cls-32">M</tspan>
        <tspan x="9.74" y="0">ale</tspan>
      </text>
      <rect class="cls-9" x="22.48" y="84.67" width="46.7" height="17"></rect>
      <text class="cls-2" transform="translate(43.14 97.11)">8</text>
      <rect class="cls-16" x="22.48" y="254.59" width="46.7" height="17"></rect>
      <text class="cls-2" transform="translate(41.35 267.03)">15</text>
      <rect class="cls-17" x="22.48" y="220.59" width="46.7" height="17"></rect>
      <text class="cls-2" transform="translate(41.25 233.03)">16</text>
      <rect class="cls-23" x="22.48" y="424.67" width="46.7" height="17"></rect>
      <text class="cls-2" transform="translate(41.33 437.11)">21</text>
      <rect class="cls-10" x="22.48" y="169.68" width="46.7" height="17"></rect>
      <text class="cls-2" transform="translate(43.18 182.11)">9</text>
      <rect class="cls-15" x="22.48" y="152.68" width="46.7" height="17"></rect>
      <text class="cls-2" transform="translate(41.21 165.11)">14</text>
      <rect class="cls-18" x="22.48" y="271.67" width="46.7" height="17"></rect>
      <text class="cls-2" transform="translate(41.64 284.11)">
        <tspan class="cls-19">1</tspan>
        <tspan x="5.39" y="0">7</tspan>
      </text>
      <rect class="cls-21" x="22.48" y="305.68" width="46.7" height="17"></rect>
      <text class="cls-2" transform="translate(41.25 318.11)">19</text>
      <rect class="cls-22" x="22.48" y="288.67" width="46.7" height="17"></rect>
      <text class="cls-2" transform="translate(40.38 301.11)">20</text>
      <rect class="cls-24" x="22.48" y="356.68" width="46.7" height="17"></rect>
      <text class="cls-2" transform="translate(40.68 369.11)">22</text>
      <rect class="cls-26" x="22.48" y="441.67" width="46.7" height="17"></rect>
      <text class="cls-2" transform="translate(40.56 454.11)">24</text>
      <rect class="cls-27" x="22.48" y="322.68" width="46.7" height="17"></rect>
      <text class="cls-2" transform="translate(40.7 335.11)">25</text>
      <rect class="cls-28" x="22.48" y="407.67" width="46.7" height="17"></rect>
      <text class="cls-2" transform="translate(40.6 420.11)">26</text>
      <rect class="cls-29" x="22.48" y="458.68" width="46.7" height="17"></rect>
      <text class="cls-2" transform="translate(40.9 471.11)">27</text>
      <rect class="cls-30" x="22.48" y="475.68" width="46.7" height="17"></rect>
      <text class="cls-2" transform="translate(40.57 488.11)">28</text>
      <rect class="cls-12" x="22.48" y="186.68" width="46.7" height="17"></rect>
      <text class="cls-2" transform="translate(41.98 199.11)">11</text>
      <rect class="cls-11" x="22.48" y="203.68" width="46.7" height="17"></rect>
      <text class="cls-2" transform="translate(41.03 216.11)">10</text>
      <rect class="cls-14" x="22.48" y="390.67" width="46.7" height="17"></rect>
      <text class="cls-2" transform="translate(41.46 403.11)">13</text>
      <rect class="cls-13" x="22.48" y="237.59" width="46.7" height="17"></rect>
      <text class="cls-2" transform="translate(41.33 250.03)">12</text>
      <rect class="cls-20" x="22.48" y="373.68" width="46.7" height="17"></rect>
      <text class="cls-2" transform="translate(41.22 386.11)">18</text>
      <rect class="cls-3" x="22.48" y="33.7" width="46.7" height="17"></rect>
      <text class="cls-2" transform="translate(43.26 46.14)">2</text>
      <rect class="cls-4" x="22.48" y="50.68" width="46.7" height="17"></rect>
      <text class="cls-2" transform="translate(43.39 63.11)">3</text>
      <rect class="cls-7" x="22.48" y="67.68" width="46.7" height="17"></rect>
      <text class="cls-2" transform="translate(43.18 80.11)">6</text>
      <rect class="cls-1" x="22.48" y="16.71" width="46.7" height="17"></rect>
      <text class="cls-2" transform="translate(43.91 29.14)">1</text>
      <rect class="cls-6" x="22.48" y="118.67" width="46.7" height="17"></rect>
      <text class="cls-2" transform="translate(43.27 131.11)">5</text>
      <rect class="cls-8" x="22.48" y="135.67" width="46.7" height="17"></rect>
      <text class="cls-2" transform="translate(43.48 148.11)">7</text>
      <rect class="cls-25" x="22.48" y="339.68" width="46.7" height="17"></rect>
      <text class="cls-2" transform="translate(40.81 352.11)">23</text>
      <rect class="cls-30" x="22.48" y="0.78" width="46.7" height="15.92"></rect>
      <text class="cls-33" transform="translate(29.49 9.44)">
        <tspan class="cls-34">F</tspan>
        <tspan x="6.55" y="0">emale</tspan>
      </text>
      <rect class="cls-5" x="22.48" y="101.67" width="46.7" height="17"></rect>
      <text class="cls-2" transform="translate(43.14 114.11)">4</text>
      <rect class="cls-1" y="16.71" width="13.5" height="17"></rect>
      <text class="cls-2" transform="translate(4.83 29.14)">1</text>
      <rect class="cls-3" y="33.71" width="13.5" height="17"></rect>
      <text class="cls-2" transform="translate(4.18 46.14)">2</text>
      <rect class="cls-4" y="50.71" width="13.5" height="17"></rect>
      <text class="cls-2" transform="translate(4.31 63.14)">3</text>
      <rect class="cls-5" y="67.71" width="13.5" height="17"></rect>
      <text class="cls-2" transform="translate(4.06 80.14)">4</text>
      <rect class="cls-6" y="84.71" width="13.5" height="17"></rect>
      <text class="cls-2" transform="translate(4.19 97.14)">5</text>
      <rect class="cls-7" y="101.71" width="13.5" height="17"></rect>
      <text class="cls-2" transform="translate(4.1 114.14)">6</text>
      <rect class="cls-8" y="118.71" width="13.5" height="17"></rect>
      <text class="cls-2" transform="translate(4.4 131.14)">7</text>
      <rect class="cls-9" y="135.71" width="13.5" height="17"></rect>
      <text class="cls-2" transform="translate(4.06 148.14)">8</text>
      <rect class="cls-10" y="152.71" width="13.5" height="17"></rect>
      <text class="cls-2" transform="translate(4.1 165.14)">9</text>
      <rect class="cls-11" y="169.71" width="13.5" height="17"></rect>
      <text class="cls-2" transform="translate(1.95 182.14)">10</text>
      <rect class="cls-12" y="186.71" width="13.5" height="17"></rect>
      <text class="cls-2" transform="translate(2.9 199.14)">11</text>
      <rect class="cls-13" y="203.71" width="13.5" height="17"></rect>
      <text class="cls-2" transform="translate(2.25 216.14)">12</text>
      <rect class="cls-14" y="220.71" width="13.5" height="17"></rect>
      <text class="cls-2" transform="translate(2.38 233.14)">13</text>
      <rect class="cls-15" y="237.71" width="13.5" height="17"></rect>
      <text class="cls-2" transform="translate(2.13 250.14)">14</text>
      <rect class="cls-16" y="254.71" width="13.5" height="17"></rect>
      <text class="cls-2" transform="translate(2.27 267.14)">15</text>
      <rect class="cls-17" y="271.71" width="13.5" height="17"></rect>
      <text class="cls-2" transform="translate(2.17 284.14)">16</text>
      <rect class="cls-18" y="288.71" width="13.5" height="17"></rect>
      <text class="cls-2" transform="translate(2.56 301.14)">
        <tspan class="cls-19">1</tspan>
        <tspan x="5.39" y="0">7</tspan>
      </text>
      <rect class="cls-20" y="305.71" width="13.5" height="17"></rect>
      <text class="cls-2" transform="translate(2.14 318.14)">18</text>
      <rect class="cls-21" y="322.71" width="13.5" height="17"></rect>
      <text class="cls-2" transform="translate(2.17 335.14)">19</text>
      <rect class="cls-22" y="339.71" width="13.5" height="17"></rect>
      <text class="cls-2" transform="translate(1.3 352.14)">20</text>
      <rect class="cls-23" y="356.71" width="13.5" height="17"></rect>
      <text class="cls-2" transform="translate(2.25 369.14)">21</text>
      <rect class="cls-24" y="373.71" width="13.5" height="17"></rect>
      <text class="cls-2" transform="translate(1.6 386.14)">22</text>
      <rect class="cls-25" y="390.71" width="13.5" height="17"></rect>
      <text class="cls-2" transform="translate(1.73 403.14)">23</text>
      <rect class="cls-26" y="407.71" width="13.5" height="17"></rect>
      <text class="cls-2" transform="translate(1.48 420.14)">24</text>
      <rect class="cls-27" y="424.71" width="13.5" height="17"></rect>
      <text class="cls-2" transform="translate(1.62 437.14)">25</text>
      <rect class="cls-28" y="441.71" width="13.5" height="17"></rect>
      <text class="cls-2" transform="translate(1.52 454.14)">26</text>
      <rect class="cls-29" y="458.71" width="13.5" height="17"></rect>
      <text class="cls-2" transform="translate(1.82 471.14)">27</text>
      <rect class="cls-30" y="475.71" width="13.5" height="17"></rect>
      <text class="cls-2" transform="translate(1.49 488.14)">28</text>
    </g>
  </g>
</svg>
