<?xml version="1.0" encoding="UTF-8"?>
<svg xmlns="http://www.w3.org/2000/svg" viewBox="0 0 136.39 492.63">
  <defs>
    <style>.cls-1{fill:#ff4f5e;}.cls-2{font-size:10px;font-family:ArialMT, Arial;}.cls-3{fill:#ff5564;}.cls-4{fill:#ff5c6a;}.cls-5{fill:#ff6875;}.cls-6{fill:#ff6e7b;}.cls-7{fill:#ff7581;}.cls-8{fill:#ff7b86;}.cls-9{fill:#ff818c;}.cls-10{fill:#ff8892;}.cls-11{fill:#ff8e98;}.cls-12{fill:#ff949d;}.cls-13{fill:#ff9ba3;}.cls-14{fill:#ffa1a9;}.cls-15{fill:#ffa7af;}.cls-16{fill:#ffadb5;}.cls-17{fill:#ffb4ba;}.cls-18{fill:#ffbac0;}.cls-19{letter-spacing:-0.02em;}.cls-20{fill:#ffc1c6;}.cls-21{fill:#ffc7cb;}.cls-22{fill:#ffcdd1;}.cls-23{fill:#ffd3d7;}.cls-24{fill:#ffdadd;}.cls-25{fill:#ffe0e3;}.cls-26{fill:#ffe6e8;}.cls-27{fill:#ffecee;}.cls-28{fill:#fff3f4;}.cls-29{fill:#fff9fa;}.cls-30{fill:#fff;}.cls-31{font-size:11px;font-family:Arial-BoldMT, Arial;font-weight:700;}</style>
  </defs>
  <g id="Layer_2" data-name="Layer 2">
    <g id="Layer_1-2" data-name="Layer 1">
      <rect class="cls-1" x="22.6" y="16.63" width="46.7" height="17"></rect>
      <text class="cls-2" transform="translate(44.02 29.06)">1</text>
      <rect class="cls-3" x="22.6" y="33.62" width="46.7" height="17"></rect>
      <text class="cls-2" transform="translate(43.37 46.06)">2</text>
      <rect class="cls-4" x="22.6" y="50.7" width="46.7" height="17"></rect>
      <text class="cls-2" transform="translate(43.5 63.14)">3</text>
      <rect class="cls-4" x="22.6" y="50.59" width="46.7" height="17"></rect>
      <text class="cls-2" transform="translate(43.5 63.03)">3</text>
      <rect class="cls-5" x="22.6" y="67.62" width="46.7" height="17"></rect>
      <text class="cls-2" transform="translate(43.25 80.06)">4</text>
      <rect class="cls-5" x="22.6" y="67.51" width="46.7" height="17"></rect>
      <text class="cls-2" transform="translate(43.25 79.95)">4</text>
      <rect class="cls-6" x="22.6" y="84.62" width="46.7" height="17"></rect>
      <text class="cls-2" transform="translate(43.39 97.06)">5</text>
      <rect class="cls-6" x="22.6" y="84.51" width="46.7" height="17"></rect>
      <text class="cls-2" transform="translate(43.39 96.95)">5</text>
      <rect class="cls-7" x="22.6" y="101.62" width="46.7" height="17"></rect>
      <text class="cls-2" transform="translate(43.29 114.06)">6</text>
      <rect class="cls-7" x="22.6" y="101.51" width="46.7" height="17"></rect>
      <text class="cls-2" transform="translate(43.29 113.95)">6</text>
      <rect class="cls-8" x="22.6" y="118.62" width="46.7" height="17"></rect>
      <text class="cls-2" transform="translate(43.59 131.06)">7</text>
      <rect class="cls-8" x="22.6" y="118.51" width="46.7" height="17"></rect>
      <text class="cls-2" transform="translate(43.59 130.95)">7</text>
      <rect class="cls-9" x="22.6" y="135.62" width="46.7" height="17"></rect>
      <text class="cls-2" transform="translate(43.26 148.05)">8</text>
      <rect class="cls-9" x="22.6" y="135.51" width="46.7" height="17"></rect>
      <text class="cls-2" transform="translate(43.26 147.95)">8</text>
      <rect class="cls-10" x="22.6" y="152.63" width="46.7" height="17"></rect>
      <text class="cls-2" transform="translate(43.29 165.06)">9</text>
      <rect class="cls-10" x="22.6" y="152.52" width="46.7" height="17"></rect>
      <text class="cls-2" transform="translate(43.29 164.95)">9</text>
      <rect class="cls-11" x="22.6" y="169.63" width="46.7" height="17"></rect>
      <text class="cls-2" transform="translate(41.14 182.06)">10</text>
      <rect class="cls-11" x="22.6" y="169.52" width="46.7" height="17"></rect>
      <text class="cls-2" transform="translate(41.14 181.95)">10</text>
      <rect class="cls-12" x="22.6" y="203.62" width="46.7" height="17"></rect>
      <text class="cls-2" transform="translate(42.1 216.06)">11</text>
      <rect class="cls-12" x="22.6" y="203.52" width="46.7" height="17"></rect>
      <text class="cls-2" transform="translate(42.1 215.95)">11</text>
      <rect class="cls-13" x="22.6" y="186.62" width="46.7" height="17"></rect>
      <text class="cls-2" transform="translate(41.45 199.06)">12</text>
      <rect class="cls-13" x="22.6" y="186.51" width="46.7" height="17"></rect>
      <text class="cls-2" transform="translate(41.45 198.95)">12</text>
      <rect class="cls-14" x="22.6" y="220.62" width="46.7" height="17"></rect>
      <text class="cls-2" transform="translate(41.58 233.06)">13</text>
      <rect class="cls-14" x="22.6" y="220.51" width="46.7" height="17"></rect>
      <text class="cls-2" transform="translate(41.58 232.95)">13</text>
      <rect class="cls-15" x="22.6" y="237.62" width="46.7" height="17"></rect>
      <text class="cls-2" transform="translate(41.33 250.06)">14</text>
      <rect class="cls-15" x="22.6" y="237.51" width="46.7" height="17"></rect>
      <text class="cls-2" transform="translate(41.33 249.95)">14</text>
      <rect class="cls-16" x="22.6" y="254.62" width="46.7" height="17"></rect>
      <text class="cls-2" transform="translate(41.46 267.06)">15</text>
      <rect class="cls-16" x="22.6" y="254.51" width="46.7" height="17"></rect>
      <text class="cls-2" transform="translate(41.46 266.95)">15</text>
      <rect class="cls-17" x="22.6" y="271.62" width="46.7" height="17"></rect>
      <text class="cls-2" transform="translate(41.37 284.06)">16</text>
      <rect class="cls-17" x="22.6" y="271.51" width="46.7" height="17"></rect>
      <text class="cls-2" transform="translate(41.37 283.95)">16</text>
      <rect class="cls-18" x="22.6" y="305.63" width="46.7" height="17"></rect>
      <text class="cls-2" transform="translate(41.75 318.06)">
        <tspan class="cls-19">1</tspan>
        <tspan x="5.39" y="0">7</tspan>
      </text>
      <rect class="cls-18" x="22.6" y="305.52" width="46.7" height="17"></rect>
      <text class="cls-2" transform="translate(41.75 317.95)">
        <tspan class="cls-19">1</tspan>
        <tspan x="5.39" y="0">7</tspan>
      </text>
      <rect class="cls-20" x="22.6" y="288.62" width="46.7" height="17"></rect>
      <text class="cls-2" transform="translate(41.33 301.06)">18</text>
      <rect class="cls-20" x="22.6" y="288.51" width="46.7" height="17"></rect>
      <text class="cls-2" transform="translate(41.33 300.95)">18</text>
      <rect class="cls-21" x="22.6" y="339.62" width="46.7" height="17"></rect>
      <text class="cls-2" transform="translate(41.37 352.06)">19</text>
      <rect class="cls-21" x="22.6" y="339.51" width="46.7" height="17"></rect>
      <text class="cls-2" transform="translate(41.37 351.95)">19</text>
      <rect class="cls-22" x="22.6" y="356.62" width="46.7" height="17"></rect>
      <text class="cls-2" transform="translate(40.49 369.06)">20</text>
      <rect class="cls-22" x="22.6" y="356.51" width="46.7" height="17"></rect>
      <text class="cls-2" transform="translate(40.49 368.95)">20</text>
      <rect class="cls-23" x="22.6" y="322.71" width="46.7" height="17"></rect>
      <text class="cls-2" transform="translate(41.45 335.14)">21</text>
      <rect class="cls-23" x="22.6" y="322.6" width="46.7" height="17"></rect>
      <text class="cls-2" transform="translate(41.45 335.03)">21</text>
      <rect class="cls-24" x="22.6" y="390.62" width="46.7" height="17"></rect>
      <text class="cls-2" transform="translate(40.8 403.06)">22</text>
      <rect class="cls-24" x="22.6" y="390.51" width="46.7" height="17"></rect>
      <text class="cls-2" transform="translate(40.8 402.95)">22</text>
      <rect class="cls-25" x="22.6" y="373.62" width="46.7" height="17"></rect>
      <text class="cls-2" transform="translate(40.93 386.06)">23</text>
      <rect class="cls-25" x="22.6" y="373.51" width="46.7" height="17"></rect>
      <text class="cls-2" transform="translate(40.93 385.95)">23</text>
      <rect class="cls-26" x="22.6" y="424.62" width="46.7" height="17"></rect>
      <text class="cls-2" transform="translate(40.68 437.06)">24</text>
      <rect class="cls-26" x="22.6" y="424.51" width="46.7" height="17"></rect>
      <text class="cls-2" transform="translate(40.68 436.95)">24</text>
      <rect class="cls-27" x="22.6" y="407.7" width="46.7" height="17"></rect>
      <text class="cls-2" transform="translate(40.81 420.14)">25</text>
      <rect class="cls-27" x="22.6" y="407.6" width="46.7" height="17"></rect>
      <text class="cls-2" transform="translate(40.81 420.03)">25</text>
      <rect class="cls-28" x="22.6" y="441.62" width="46.7" height="17"></rect>
      <text class="cls-2" transform="translate(40.72 454.05)">26</text>
      <rect class="cls-28" x="22.6" y="441.51" width="46.7" height="17"></rect>
      <text class="cls-2" transform="translate(40.72 453.95)">26</text>
      <rect class="cls-29" x="22.6" y="458.63" width="46.7" height="17"></rect>
      <text class="cls-2" transform="translate(41.02 471.06)">27</text>
      <rect class="cls-29" x="22.6" y="458.52" width="46.7" height="17"></rect>
      <text class="cls-2" transform="translate(41.02 470.95)">27</text>
      <rect class="cls-30" x="22.6" y="475.63" width="46.7" height="17"></rect>
      <text class="cls-2" transform="translate(40.68 488.06)">28</text>
      <rect class="cls-30" x="22.6" y="475.52" width="46.7" height="17"></rect>
      <text class="cls-2" transform="translate(40.68 487.95)">28</text>
      <text class="cls-31" transform="translate(22.2 9.44)">Satisﬁed</text>
      <rect class="cls-9" x="77.98" y="101.7" width="46.7" height="17"></rect>
      <text class="cls-2" transform="translate(98.64 114.14)">8</text>
      <rect class="cls-9" x="77.98" y="101.6" width="46.7" height="17"></rect>
      <text class="cls-2" transform="translate(98.64 114.03)">8</text>
      <rect class="cls-16" x="77.98" y="203.62" width="46.7" height="17"></rect>
      <text class="cls-2" transform="translate(96.85 216.06)">15</text>
      <rect class="cls-16" x="77.98" y="203.52" width="46.7" height="17"></rect>
      <text class="cls-2" transform="translate(96.85 215.95)">15</text>
      <rect class="cls-17" x="77.98" y="152.71" width="46.7" height="17"></rect>
      <text class="cls-2" transform="translate(96.75 165.14)">16</text>
      <rect class="cls-17" x="77.98" y="152.6" width="46.7" height="17"></rect>
      <text class="cls-2" transform="translate(96.75 165.04)">16</text>
      <rect class="cls-23" x="77.98" y="339.62" width="46.7" height="17"></rect>
      <text class="cls-2" transform="translate(96.83 352.06)">21</text>
      <rect class="cls-23" x="77.98" y="339.51" width="46.7" height="17"></rect>
      <text class="cls-2" transform="translate(96.83 351.95)">21</text>
      <rect class="cls-10" x="77.98" y="288.62" width="46.7" height="17"></rect>
      <text class="cls-2" transform="translate(98.68 301.06)">9</text>
      <rect class="cls-10" x="77.98" y="288.51" width="46.7" height="17"></rect>
      <text class="cls-2" transform="translate(98.68 300.95)">9</text>
      <rect class="cls-15" x="77.98" y="220.62" width="46.7" height="17"></rect>
      <text class="cls-2" transform="translate(96.71 233.06)">14</text>
      <rect class="cls-15" x="77.98" y="220.51" width="46.7" height="17"></rect>
      <text class="cls-2" transform="translate(96.71 232.95)">14</text>
      <rect class="cls-18" x="77.98" y="254.63" width="46.7" height="17"></rect>
      <text class="cls-2" transform="translate(97.14 267.06)">
        <tspan class="cls-19">1</tspan>
        <tspan x="5.39" y="0">7</tspan>
      </text>
      <rect class="cls-18" x="77.98" y="254.52" width="46.7" height="17"></rect>
      <text class="cls-2" transform="translate(97.14 266.95)">
        <tspan class="cls-19">1</tspan>
        <tspan x="5.39" y="0">7</tspan>
      </text>
      <rect class="cls-21" x="77.98" y="237.62" width="46.7" height="17"></rect>
      <text class="cls-2" transform="translate(96.75 250.06)">19</text>
      <rect class="cls-21" x="77.98" y="237.51" width="46.7" height="17"></rect>
      <text class="cls-2" transform="translate(96.75 249.95)">19</text>
      <rect class="cls-22" x="77.98" y="271.62" width="46.7" height="17"></rect>
      <text class="cls-2" transform="translate(95.88 284.06)">20</text>
      <rect class="cls-22" x="77.98" y="271.51" width="46.7" height="17"></rect>
      <text class="cls-2" transform="translate(95.88 283.95)">20</text>
      <rect class="cls-24" x="77.98" y="356.62" width="46.7" height="17"></rect>
      <text class="cls-2" transform="translate(96.18 369.06)">22</text>
      <rect class="cls-24" x="77.98" y="356.51" width="46.7" height="17"></rect>
      <text class="cls-2" transform="translate(96.18 368.95)">22</text>
      <rect class="cls-26" x="77.98" y="441.62" width="46.7" height="17"></rect>
      <text class="cls-2" transform="translate(96.06 454.05)">24</text>
      <rect class="cls-26" x="77.98" y="441.51" width="46.7" height="17"></rect>
      <text class="cls-2" transform="translate(96.06 453.95)">24</text>
      <rect class="cls-27" x="77.98" y="390.62" width="46.7" height="17"></rect>
      <text class="cls-2" transform="translate(96.2 403.06)">25</text>
      <rect class="cls-27" x="77.98" y="390.51" width="46.7" height="17"></rect>
      <text class="cls-2" transform="translate(96.2 402.95)">25</text>
      <rect class="cls-28" x="77.98" y="424.62" width="46.7" height="17"></rect>
      <text class="cls-2" transform="translate(96.1 437.06)">26</text>
      <rect class="cls-28" x="77.98" y="424.51" width="46.7" height="17"></rect>
      <text class="cls-2" transform="translate(96.1 436.95)">26</text>
      <rect class="cls-29" x="77.98" y="458.63" width="46.7" height="17"></rect>
      <text class="cls-2" transform="translate(96.4 471.06)">27</text>
      <rect class="cls-29" x="77.98" y="458.52" width="46.7" height="17"></rect>
      <text class="cls-2" transform="translate(96.4 470.95)">27</text>
      <rect class="cls-30" x="77.98" y="475.63" width="46.7" height="17"></rect>
      <text class="cls-2" transform="translate(96.07 488.06)">28</text>
      <rect class="cls-30" x="77.98" y="475.52" width="46.7" height="17"></rect>
      <text class="cls-2" transform="translate(96.07 487.95)">28</text>
      <rect class="cls-12" x="77.98" y="322.63" width="46.7" height="17"></rect>
      <text class="cls-2" transform="translate(97.48 335.06)">11</text>
      <rect class="cls-12" x="77.98" y="322.52" width="46.7" height="17"></rect>
      <text class="cls-2" transform="translate(97.48 334.95)">11</text>
      <rect class="cls-11" x="77.98" y="186.62" width="46.7" height="17"></rect>
      <text class="cls-2" transform="translate(96.53 199.06)">10</text>
      <rect class="cls-11" x="77.98" y="186.51" width="46.7" height="17"></rect>
      <text class="cls-2" transform="translate(96.53 198.95)">10</text>
      <rect class="cls-14" x="77.98" y="169.63" width="46.7" height="17"></rect>
      <text class="cls-2" transform="translate(96.96 182.06)">13</text>
      <rect class="cls-14" x="77.98" y="169.52" width="46.7" height="17"></rect>
      <text class="cls-2" transform="translate(96.96 181.95)">13</text>
      <rect class="cls-13" x="77.98" y="373.62" width="46.7" height="17"></rect>
      <text class="cls-2" transform="translate(96.83 386.06)">12</text>
      <rect class="cls-13" x="77.98" y="373.51" width="46.7" height="17"></rect>
      <text class="cls-2" transform="translate(96.83 385.95)">12</text>
      <rect class="cls-20" x="77.98" y="305.71" width="46.7" height="17"></rect>
      <text class="cls-2" transform="translate(96.72 318.14)">18</text>
      <rect class="cls-20" x="77.98" y="305.6" width="46.7" height="17"></rect>
      <text class="cls-2" transform="translate(96.72 318.04)">18</text>
      <rect class="cls-3" x="77.98" y="33.62" width="46.7" height="17"></rect>
      <text class="cls-2" transform="translate(98.76 46.06)">2</text>
      <rect class="cls-4" x="77.98" y="84.7" width="46.7" height="17"></rect>
      <text class="cls-2" transform="translate(98.89 97.14)">3</text>
      <rect class="cls-4" x="77.98" y="84.6" width="46.7" height="17"></rect>
      <text class="cls-2" transform="translate(98.89 97.03)">3</text>
      <rect class="cls-7" x="77.98" y="50.71" width="46.7" height="17"></rect>
      <text class="cls-2" transform="translate(98.68 63.14)">6</text>
      <rect class="cls-7" x="77.98" y="50.6" width="46.7" height="17"></rect>
      <text class="cls-2" transform="translate(98.68 63.03)">6</text>
      <rect class="cls-1" x="77.98" y="16.62" width="46.7" height="17"></rect>
      <text class="cls-2" transform="translate(99.41 29.06)">1</text>
      <rect class="cls-6" x="77.98" y="135.7" width="46.7" height="17"></rect>
      <text class="cls-2" transform="translate(98.77 148.14)">5</text>
      <rect class="cls-6" x="77.98" y="135.59" width="46.7" height="17"></rect>
      <text class="cls-2" transform="translate(98.77 148.03)">5</text>
      <rect class="cls-8" x="77.98" y="118.62" width="46.7" height="17"></rect>
      <text class="cls-2" transform="translate(98.98 131.06)">7</text>
      <rect class="cls-8" x="77.98" y="118.51" width="46.7" height="17"></rect>
      <text class="cls-2" transform="translate(98.98 130.95)">7</text>
      <rect class="cls-25" x="77.98" y="407.62" width="46.7" height="17"></rect>
      <text class="cls-2" transform="translate(96.31 420.06)">23</text>
      <rect class="cls-25" x="77.98" y="407.51" width="46.7" height="17"></rect>
      <text class="cls-2" transform="translate(96.31 419.95)">23</text>
      <rect class="cls-30" x="70.95" y="0.78" width="60.92" height="15.92"></rect>
      <text class="cls-31" transform="translate(74.64 9.44)">Dissatisﬁed</text>
      <rect class="cls-5" x="77.98" y="67.7" width="46.7" height="17"></rect>
      <text class="cls-2" transform="translate(98.64 80.14)">4</text>
      <rect class="cls-5" x="77.98" y="67.59" width="46.7" height="17"></rect>
      <text class="cls-2" transform="translate(98.64 80.03)">4</text>
      <rect class="cls-1" y="16.62" width="13.5" height="17"></rect>
      <text class="cls-2" transform="translate(4.83 29.06)">1</text>
      <rect class="cls-3" y="33.62" width="13.5" height="17"></rect>
      <text class="cls-2" transform="translate(4.18 46.06)">2</text>
      <rect class="cls-4" y="50.62" width="13.5" height="17"></rect>
      <text class="cls-2" transform="translate(4.31 63.06)">3</text>
      <rect class="cls-5" y="67.62" width="13.5" height="17"></rect>
      <text class="cls-2" transform="translate(4.06 80.06)">4</text>
      <rect class="cls-6" y="84.62" width="13.5" height="17"></rect>
      <text class="cls-2" transform="translate(4.19 97.06)">5</text>
      <rect class="cls-7" y="101.62" width="13.5" height="17"></rect>
      <text class="cls-2" transform="translate(4.1 114.06)">6</text>
      <rect class="cls-8" y="118.62" width="13.5" height="17"></rect>
      <text class="cls-2" transform="translate(4.4 131.06)">7</text>
      <rect class="cls-9" y="135.62" width="13.5" height="17"></rect>
      <text class="cls-2" transform="translate(4.06 148.06)">8</text>
      <rect class="cls-10" y="152.62" width="13.5" height="17"></rect>
      <text class="cls-2" transform="translate(4.1 165.06)">9</text>
      <rect class="cls-11" y="169.62" width="13.5" height="17"></rect>
      <text class="cls-2" transform="translate(1.95 182.06)">10</text>
      <rect class="cls-12" y="186.62" width="13.5" height="17"></rect>
      <text class="cls-2" transform="translate(2.9 199.06)">11</text>
      <rect class="cls-13" y="203.62" width="13.5" height="17"></rect>
      <text class="cls-2" transform="translate(2.25 216.06)">12</text>
      <rect class="cls-14" y="220.62" width="13.5" height="17"></rect>
      <text class="cls-2" transform="translate(2.38 233.06)">13</text>
      <rect class="cls-15" y="237.62" width="13.5" height="17"></rect>
      <text class="cls-2" transform="translate(2.13 250.06)">14</text>
      <rect class="cls-16" y="254.62" width="13.5" height="17"></rect>
      <text class="cls-2" transform="translate(2.27 267.06)">15</text>
      <rect class="cls-17" y="271.62" width="13.5" height="17"></rect>
      <text class="cls-2" transform="translate(2.17 284.06)">16</text>
      <rect class="cls-18" y="288.62" width="13.5" height="17"></rect>
      <text class="cls-2" transform="translate(2.56 301.06)">
        <tspan class="cls-19">1</tspan>
        <tspan x="5.39" y="0">7</tspan>
      </text>
      <rect class="cls-20" y="305.62" width="13.5" height="17"></rect>
      <text class="cls-2" transform="translate(2.14 318.06)">18</text>
      <rect class="cls-21" y="322.62" width="13.5" height="17"></rect>
      <text class="cls-2" transform="translate(2.17 335.06)">19</text>
      <rect class="cls-22" y="339.62" width="13.5" height="17"></rect>
      <text class="cls-2" transform="translate(1.3 352.06)">20</text>
      <rect class="cls-23" y="356.62" width="13.5" height="17"></rect>
      <text class="cls-2" transform="translate(2.25 369.06)">21</text>
      <rect class="cls-24" y="373.62" width="13.5" height="17"></rect>
      <text class="cls-2" transform="translate(1.6 386.06)">22</text>
      <rect class="cls-25" y="390.62" width="13.5" height="17"></rect>
      <text class="cls-2" transform="translate(1.73 403.06)">23</text>
      <rect class="cls-26" y="407.62" width="13.5" height="17"></rect>
      <text class="cls-2" transform="translate(1.48 420.06)">24</text>
      <rect class="cls-27" y="424.62" width="13.5" height="17"></rect>
      <text class="cls-2" transform="translate(1.62 437.06)">25</text>
      <rect class="cls-28" y="441.62" width="13.5" height="17"></rect>
      <text class="cls-2" transform="translate(1.52 454.06)">26</text>
      <rect class="cls-29" y="458.62" width="13.5" height="17"></rect>
      <text class="cls-2" transform="translate(1.82 471.06)">27</text>
      <rect class="cls-30" y="475.62" width="13.5" height="17"></rect>
      <text class="cls-2" transform="translate(1.49 488.06)">28</text>
    </g>
  </g>
</svg>
