<?xml version="1.0" encoding="UTF-8"?>
<svg xmlns="http://www.w3.org/2000/svg" viewBox="0 0 124.68 492.71">
  <defs>
    <style>.cls-1{fill:#ff4f5e;}.cls-2{font-size:10px;font-family:ArialMT, Arial;}.cls-3{fill:#ff5564;}.cls-4{fill:#ff5c6a;}.cls-5{fill:#ff6875;}.cls-6{fill:#ff6e7b;}.cls-7{fill:#ff7581;}.cls-8{fill:#ff7b86;}.cls-9{fill:#ff818c;}.cls-10{fill:#ff8892;}.cls-11{fill:#ff8e98;}.cls-12{fill:#ff949d;}.cls-13{fill:#ff9ba3;}.cls-14{fill:#ffa1a9;}.cls-15{fill:#ffa7af;}.cls-16{fill:#ffadb5;}.cls-17{fill:#ffb4ba;}.cls-18{fill:#ffbac0;}.cls-19{letter-spacing:-0.02em;}.cls-20{fill:#ffc1c6;}.cls-21{fill:#ffc7cb;}.cls-22{fill:#ffcdd1;}.cls-23{fill:#ffd3d7;}.cls-24{fill:#ffdadd;}.cls-25{fill:#ffe0e3;}.cls-26{fill:#ffe6e8;}.cls-27{fill:#ffecee;}.cls-28{fill:#fff3f4;}.cls-29{fill:#fff9fa;}.cls-30{fill:#fff;}.cls-31{font-size:11px;font-family:Arial-BoldMT, Arial;font-weight:700;}</style>
  </defs>
  <g id="Layer_2" data-name="Layer 2">
    <g id="Layer_1-2" data-name="Layer 1">
      <rect class="cls-1" x="22.49" y="16.71" width="46.7" height="17"></rect>
      <text class="cls-2" transform="translate(43.92 29.14)">1</text>
      <rect class="cls-3" x="22.49" y="33.71" width="46.7" height="17"></rect>
      <text class="cls-2" transform="translate(43.27 46.14)">2</text>
      <rect class="cls-4" x="22.49" y="50.68" width="46.7" height="17"></rect>
      <text class="cls-2" transform="translate(43.4 63.11)">3</text>
      <rect class="cls-5" x="22.49" y="84.68" width="46.7" height="17"></rect>
      <text class="cls-2" transform="translate(43.15 97.11)">4</text>
      <rect class="cls-6" x="22.49" y="67.68" width="46.7" height="17"></rect>
      <text class="cls-2" transform="translate(43.28 80.11)">5</text>
      <rect class="cls-7" x="22.49" y="101.6" width="46.7" height="17"></rect>
      <text class="cls-2" transform="translate(43.19 114.03)">6</text>
      <rect class="cls-8" x="22.49" y="118.6" width="46.7" height="17"></rect>
      <text class="cls-2" transform="translate(43.49 131.03)">7</text>
      <rect class="cls-9" x="22.49" y="135.59" width="46.7" height="17"></rect>
      <text class="cls-2" transform="translate(43.15 148.03)">8</text>
      <rect class="cls-10" x="22.49" y="169.6" width="46.7" height="17"></rect>
      <text class="cls-2" transform="translate(43.19 182.03)">9</text>
      <rect class="cls-11" x="22.49" y="237.6" width="46.7" height="17"></rect>
      <text class="cls-2" transform="translate(41.04 250.03)">10</text>
      <rect class="cls-12" x="22.49" y="152.6" width="46.7" height="17"></rect>
      <text class="cls-2" transform="translate(41.99 165.04)">11</text>
      <rect class="cls-13" x="22.49" y="203.6" width="46.7" height="17"></rect>
      <text class="cls-2" transform="translate(41.34 216.03)">12</text>
      <rect class="cls-14" x="22.49" y="271.6" width="46.7" height="17"></rect>
      <text class="cls-2" transform="translate(41.47 284.03)">13</text>
      <rect class="cls-15" x="22.49" y="254.6" width="46.7" height="17"></rect>
      <text class="cls-2" transform="translate(41.22 267.03)">14</text>
      <rect class="cls-16" x="22.49" y="186.6" width="46.7" height="17"></rect>
      <text class="cls-2" transform="translate(41.36 199.03)">15</text>
      <rect class="cls-17" x="22.49" y="305.6" width="46.7" height="17"></rect>
      <text class="cls-2" transform="translate(41.26 318.04)">16</text>
      <rect class="cls-18" x="22.49" y="220.6" width="46.7" height="17"></rect>
      <text class="cls-2" transform="translate(41.65 233.03)">
        <tspan class="cls-19">1</tspan>
        <tspan x="5.39" y="0">7</tspan>
      </text>
      <rect class="cls-20" x="22.49" y="288.59" width="46.7" height="17"></rect>
      <text class="cls-2" transform="translate(41.23 301.03)">18</text>
      <rect class="cls-21" x="22.49" y="322.6" width="46.7" height="17"></rect>
      <text class="cls-2" transform="translate(41.26 335.03)">19</text>
      <rect class="cls-22" x="22.49" y="390.6" width="46.7" height="17"></rect>
      <text class="cls-2" transform="translate(40.39 403.03)">20</text>
      <rect class="cls-23" x="22.49" y="373.6" width="46.7" height="17"></rect>
      <text class="cls-2" transform="translate(41.34 386.03)">21</text>
      <rect class="cls-24" x="22.49" y="356.6" width="46.7" height="17"></rect>
      <text class="cls-2" transform="translate(40.69 369.03)">22</text>
      <rect class="cls-25" x="22.49" y="424.6" width="46.7" height="17"></rect>
      <text class="cls-2" transform="translate(40.82 437.03)">23</text>
      <rect class="cls-26" x="22.49" y="339.6" width="46.7" height="17"></rect>
      <text class="cls-2" transform="translate(40.57 352.03)">24</text>
      <rect class="cls-27" x="22.49" y="441.59" width="46.7" height="17"></rect>
      <text class="cls-2" transform="translate(40.71 454.03)">25</text>
      <rect class="cls-28" x="22.49" y="407.6" width="46.7" height="17"></rect>
      <text class="cls-2" transform="translate(40.61 420.03)">26</text>
      <rect class="cls-29" x="22.49" y="458.6" width="46.7" height="17"></rect>
      <text class="cls-2" transform="translate(40.91 471.04)">27</text>
      <rect class="cls-30" x="22.49" y="475.6" width="46.7" height="17"></rect>
      <text class="cls-2" transform="translate(40.58 488.03)">28</text>
      <text class="cls-31" transform="translate(27.71 9.52)">2 or less</text>
      <rect class="cls-9" x="77.98" y="84.68" width="46.7" height="17"></rect>
      <text class="cls-2" transform="translate(98.64 97.11)">8</text>
      <rect class="cls-16" x="77.98" y="271.6" width="46.7" height="17"></rect>
      <text class="cls-2" transform="translate(96.85 284.03)">15</text>
      <rect class="cls-17" x="77.98" y="288.59" width="46.7" height="17"></rect>
      <text class="cls-2" transform="translate(96.75 301.03)">16</text>
      <rect class="cls-23" x="77.98" y="407.6" width="46.7" height="17"></rect>
      <text class="cls-2" transform="translate(96.83 420.03)">21</text>
      <rect class="cls-10" x="77.98" y="152.6" width="46.7" height="17"></rect>
      <text class="cls-2" transform="translate(98.68 165.04)">9</text>
      <rect class="cls-15" x="77.98" y="339.6" width="46.7" height="17"></rect>
      <text class="cls-2" transform="translate(96.71 352.03)">14</text>
      <rect class="cls-18" x="77.98" y="254.6" width="46.7" height="17"></rect>
      <text class="cls-2" transform="translate(97.14 267.03)">
        <tspan class="cls-19">1</tspan>
        <tspan x="5.39" y="0">7</tspan>
      </text>
      <rect class="cls-21" x="77.98" y="373.6" width="46.7" height="17"></rect>
      <text class="cls-2" transform="translate(96.75 386.03)">19</text>
      <rect class="cls-22" x="77.98" y="322.6" width="46.7" height="17"></rect>
      <text class="cls-2" transform="translate(95.88 335.03)">20</text>
      <rect class="cls-24" x="77.98" y="356.6" width="46.7" height="17"></rect>
      <text class="cls-2" transform="translate(96.18 369.03)">22</text>
      <rect class="cls-26" x="77.98" y="390.6" width="46.7" height="17"></rect>
      <text class="cls-2" transform="translate(96.06 403.03)">24</text>
      <rect class="cls-27" x="77.98" y="424.6" width="46.7" height="17"></rect>
      <text class="cls-2" transform="translate(96.2 437.03)">25</text>
      <rect class="cls-28" x="77.98" y="441.6" width="46.7" height="17"></rect>
      <text class="cls-2" transform="translate(96.1 454.03)">26</text>
      <rect class="cls-29" x="77.98" y="458.6" width="46.7" height="17"></rect>
      <text class="cls-2" transform="translate(96.4 471.04)">27</text>
      <rect class="cls-30" x="77.98" y="475.6" width="46.7" height="17"></rect>
      <text class="cls-2" transform="translate(96.07 488.03)">28</text>
      <rect class="cls-12" x="77.98" y="220.6" width="46.7" height="17"></rect>
      <text class="cls-2" transform="translate(97.48 233.03)">11</text>
      <rect class="cls-11" x="77.98" y="186.6" width="46.7" height="17"></rect>
      <text class="cls-2" transform="translate(96.53 199.03)">10</text>
      <rect class="cls-14" x="77.98" y="169.6" width="46.7" height="17"></rect>
      <text class="cls-2" transform="translate(96.96 182.03)">13</text>
      <rect class="cls-13" x="77.98" y="203.6" width="46.7" height="17"></rect>
      <text class="cls-2" transform="translate(96.83 216.03)">12</text>
      <rect class="cls-20" x="77.98" y="237.6" width="46.7" height="17"></rect>
      <text class="cls-2" transform="translate(96.72 250.03)">18</text>
      <rect class="cls-3" x="77.98" y="33.71" width="46.7" height="17"></rect>
      <text class="cls-2" transform="translate(98.76 46.14)">2</text>
      <rect class="cls-4" x="77.98" y="67.68" width="46.7" height="17"></rect>
      <text class="cls-2" transform="translate(98.89 80.11)">3</text>
      <rect class="cls-7" x="77.98" y="101.6" width="46.7" height="17"></rect>
      <text class="cls-2" transform="translate(98.68 114.03)">6</text>
      <rect class="cls-1" x="77.98" y="16.71" width="46.7" height="17"></rect>
      <text class="cls-2" transform="translate(99.41 29.14)">1</text>
      <rect class="cls-6" x="77.98" y="135.59" width="46.7" height="17"></rect>
      <text class="cls-2" transform="translate(98.77 148.03)">5</text>
      <rect class="cls-8" x="77.98" y="118.6" width="46.7" height="17"></rect>
      <text class="cls-2" transform="translate(98.98 131.03)">7</text>
      <rect class="cls-25" x="77.98" y="305.6" width="46.7" height="17"></rect>
      <text class="cls-2" transform="translate(96.31 318.04)">23</text>
      <rect class="cls-30" x="77.98" y="0.78" width="46.7" height="15.92"></rect>
      <text class="cls-31" transform="translate(93.89 9.44)">10+</text>
      <rect class="cls-5" x="77.98" y="50.68" width="46.7" height="17"></rect>
      <text class="cls-2" transform="translate(98.64 63.11)">4</text>
      <rect class="cls-1" y="16.71" width="13.5" height="17"></rect>
      <text class="cls-2" transform="translate(4.83 29.14)">1</text>
      <rect class="cls-3" y="33.71" width="13.5" height="17"></rect>
      <text class="cls-2" transform="translate(4.18 46.14)">2</text>
      <rect class="cls-4" y="50.71" width="13.5" height="17"></rect>
      <text class="cls-2" transform="translate(4.31 63.14)">3</text>
      <rect class="cls-5" y="67.71" width="13.5" height="17"></rect>
      <text class="cls-2" transform="translate(4.06 80.14)">4</text>
      <rect class="cls-6" y="84.71" width="13.5" height="17"></rect>
      <text class="cls-2" transform="translate(4.19 97.14)">5</text>
      <rect class="cls-7" y="101.71" width="13.5" height="17"></rect>
      <text class="cls-2" transform="translate(4.1 114.14)">6</text>
      <rect class="cls-8" y="118.71" width="13.5" height="17"></rect>
      <text class="cls-2" transform="translate(4.4 131.14)">7</text>
      <rect class="cls-9" y="135.71" width="13.5" height="17"></rect>
      <text class="cls-2" transform="translate(4.06 148.14)">8</text>
      <rect class="cls-10" y="152.71" width="13.5" height="17"></rect>
      <text class="cls-2" transform="translate(4.1 165.14)">9</text>
      <rect class="cls-11" y="169.71" width="13.5" height="17"></rect>
      <text class="cls-2" transform="translate(1.95 182.14)">10</text>
      <rect class="cls-12" y="186.71" width="13.5" height="17"></rect>
      <text class="cls-2" transform="translate(2.9 199.14)">11</text>
      <rect class="cls-13" y="203.71" width="13.5" height="17"></rect>
      <text class="cls-2" transform="translate(2.25 216.14)">12</text>
      <rect class="cls-14" y="220.71" width="13.5" height="17"></rect>
      <text class="cls-2" transform="translate(2.38 233.14)">13</text>
      <rect class="cls-15" y="237.71" width="13.5" height="17"></rect>
      <text class="cls-2" transform="translate(2.13 250.14)">14</text>
      <rect class="cls-16" y="254.71" width="13.5" height="17"></rect>
      <text class="cls-2" transform="translate(2.27 267.14)">15</text>
      <rect class="cls-17" y="271.71" width="13.5" height="17"></rect>
      <text class="cls-2" transform="translate(2.17 284.14)">16</text>
      <rect class="cls-18" y="288.71" width="13.5" height="17"></rect>
      <text class="cls-2" transform="translate(2.56 301.14)">
        <tspan class="cls-19">1</tspan>
        <tspan x="5.39" y="0">7</tspan>
      </text>
      <rect class="cls-20" y="305.71" width="13.5" height="17"></rect>
      <text class="cls-2" transform="translate(2.14 318.14)">18</text>
      <rect class="cls-21" y="322.71" width="13.5" height="17"></rect>
      <text class="cls-2" transform="translate(2.17 335.14)">19</text>
      <rect class="cls-22" y="339.71" width="13.5" height="17"></rect>
      <text class="cls-2" transform="translate(1.3 352.14)">20</text>
      <rect class="cls-23" y="356.71" width="13.5" height="17"></rect>
      <text class="cls-2" transform="translate(2.25 369.14)">21</text>
      <rect class="cls-24" y="373.71" width="13.5" height="17"></rect>
      <text class="cls-2" transform="translate(1.6 386.14)">22</text>
      <rect class="cls-25" y="390.71" width="13.5" height="17"></rect>
      <text class="cls-2" transform="translate(1.73 403.14)">23</text>
      <rect class="cls-26" y="407.71" width="13.5" height="17"></rect>
      <text class="cls-2" transform="translate(1.48 420.14)">24</text>
      <rect class="cls-27" y="424.71" width="13.5" height="17"></rect>
      <text class="cls-2" transform="translate(1.62 437.14)">25</text>
      <rect class="cls-28" y="441.71" width="13.5" height="17"></rect>
      <text class="cls-2" transform="translate(1.52 454.14)">26</text>
      <rect class="cls-29" y="458.71" width="13.5" height="17"></rect>
      <text class="cls-2" transform="translate(1.82 471.14)">27</text>
      <rect class="cls-30" y="475.71" width="13.5" height="17"></rect>
      <text class="cls-2" transform="translate(1.49 488.14)">28</text>
    </g>
  </g>
</svg>
