<?xml version="1.0" encoding="UTF-8"?>
<svg xmlns="http://www.w3.org/2000/svg" viewBox="0 0 131.33 493.47">
  <defs>
    <style>.cls-1{fill:#ff4f5e;}.cls-2{font-size:10px;font-family:ArialMT, Arial;}.cls-3{fill:#ff5564;}.cls-4{fill:#ff5c6a;}.cls-5{fill:#ff6875;}.cls-6{fill:#ff6e7b;}.cls-7{fill:#ff7581;}.cls-8{fill:#ff7b86;}.cls-9{fill:#ff818c;}.cls-10{fill:#ff8892;}.cls-11{fill:#ff8e98;}.cls-12{fill:#ff949d;}.cls-13{fill:#ff9ba3;}.cls-14{fill:#ffa1a9;}.cls-15{fill:#ffa7af;}.cls-16{fill:#ffadb5;}.cls-17{fill:#ffb4ba;}.cls-18{fill:#ffbac0;}.cls-19{letter-spacing:-0.02em;}.cls-20{fill:#ffc1c6;}.cls-21{fill:#ffc7cb;}.cls-22{fill:#ffcdd1;}.cls-23{fill:#ffd3d7;}.cls-24{fill:#ffdadd;}.cls-25{fill:#ffe0e3;}.cls-26{fill:#ffe6e8;}.cls-27{fill:#ffecee;}.cls-28{fill:#fff3f4;}.cls-29{fill:#fff9fa;}.cls-30{fill:#fff;}.cls-31,.cls-32{font-size:11px;font-family:Arial-BoldMT, Arial;font-weight:700;}.cls-31{letter-spacing:-0.02em;}</style>
  </defs>
  <g id="Layer_2" data-name="Layer 2">
    <g id="Layer_1-2" data-name="Layer 1">
      <rect class="cls-1" x="22.6" y="17.48" width="46.7" height="17"></rect>
      <text class="cls-2" transform="translate(44.02 29.91)">1</text>
      <rect class="cls-3" x="22.6" y="34.48" width="46.7" height="17"></rect>
      <text class="cls-2" transform="translate(43.37 46.91)">2</text>
      <rect class="cls-4" x="22.6" y="68.45" width="46.7" height="17"></rect>
      <text class="cls-2" transform="translate(43.5 80.88)">3</text>
      <rect class="cls-5" x="22.6" y="51.45" width="46.7" height="17"></rect>
      <text class="cls-2" transform="translate(43.25 63.88)">4</text>
      <rect class="cls-6" x="22.6" y="85.45" width="46.7" height="17"></rect>
      <text class="cls-2" transform="translate(43.39 97.88)">5</text>
      <rect class="cls-7" x="22.6" y="119.36" width="46.7" height="17"></rect>
      <text class="cls-2" transform="translate(43.29 131.8)">6</text>
      <rect class="cls-8" x="22.6" y="102.37" width="46.7" height="17"></rect>
      <text class="cls-2" transform="translate(43.59 114.8)">7</text>
      <rect class="cls-9" x="22.6" y="136.36" width="46.7" height="17"></rect>
      <text class="cls-2" transform="translate(43.26 148.8)">8</text>
      <rect class="cls-10" x="22.6" y="170.37" width="46.7" height="17"></rect>
      <text class="cls-2" transform="translate(43.29 182.8)">9</text>
      <rect class="cls-11" x="22.6" y="204.37" width="46.7" height="17"></rect>
      <text class="cls-2" transform="translate(41.14 216.8)">10</text>
      <rect class="cls-12" x="22.6" y="153.37" width="46.7" height="17"></rect>
      <text class="cls-2" transform="translate(42.1 165.8)">11</text>
      <rect class="cls-13" x="22.6" y="187.37" width="46.7" height="17"></rect>
      <text class="cls-2" transform="translate(41.45 199.8)">12</text>
      <rect class="cls-14" x="22.6" y="221.37" width="46.7" height="17"></rect>
      <text class="cls-2" transform="translate(41.58 233.8)">13</text>
      <rect class="cls-15" x="22.6" y="238.37" width="46.7" height="17"></rect>
      <text class="cls-2" transform="translate(41.33 250.8)">14</text>
      <rect class="cls-16" x="22.6" y="255.37" width="46.7" height="17"></rect>
      <text class="cls-2" transform="translate(41.46 267.8)">15</text>
      <rect class="cls-17" x="22.6" y="306.37" width="46.7" height="17"></rect>
      <text class="cls-2" transform="translate(41.37 318.8)">16</text>
      <rect class="cls-18" x="22.6" y="272.36" width="46.7" height="17"></rect>
      <text class="cls-2" transform="translate(41.75 284.8)">
        <tspan class="cls-19">1</tspan>
        <tspan x="5.39" y="0">7</tspan>
      </text>
      <rect class="cls-20" x="22.6" y="289.36" width="46.7" height="17"></rect>
      <text class="cls-2" transform="translate(41.33 301.8)">18</text>
      <rect class="cls-21" x="22.6" y="391.37" width="46.7" height="17"></rect>
      <text class="cls-2" transform="translate(41.37 403.8)">19</text>
      <rect class="cls-22" x="22.6" y="357.37" width="46.7" height="17"></rect>
      <text class="cls-2" transform="translate(40.49 369.8)">20</text>
      <rect class="cls-23" x="22.6" y="374.37" width="46.7" height="17"></rect>
      <text class="cls-2" transform="translate(41.45 386.8)">21</text>
      <rect class="cls-24" x="22.6" y="340.37" width="46.7" height="17"></rect>
      <text class="cls-2" transform="translate(40.8 352.8)">22</text>
      <rect class="cls-25" x="22.6" y="323.37" width="46.7" height="17"></rect>
      <text class="cls-2" transform="translate(40.93 335.8)">23</text>
      <rect class="cls-26" x="22.6" y="425.36" width="46.7" height="17"></rect>
      <text class="cls-2" transform="translate(40.68 437.8)">24</text>
      <rect class="cls-27" x="22.6" y="408.37" width="46.7" height="17"></rect>
      <text class="cls-2" transform="translate(40.81 420.8)">25</text>
      <rect class="cls-28" x="22.6" y="442.36" width="46.7" height="17"></rect>
      <text class="cls-2" transform="translate(40.72 454.8)">26</text>
      <rect class="cls-29" x="22.6" y="459.37" width="46.7" height="17"></rect>
      <text class="cls-2" transform="translate(41.02 471.8)">27</text>
      <rect class="cls-30" x="22.6" y="476.37" width="46.7" height="17"></rect>
      <text class="cls-2" transform="translate(40.68 488.8)">28</text>
      <text class="cls-31" transform="translate(40.78 9.44)">JS</text>
      <rect class="cls-9" x="78.11" y="272.36" width="46.7" height="17"></rect>
      <text class="cls-2" transform="translate(98.77 284.8)">8</text>
      <rect class="cls-16" x="78.11" y="221.37" width="46.7" height="17"></rect>
      <text class="cls-2" transform="translate(96.98 233.8)">15</text>
      <rect class="cls-17" x="78.11" y="442.36" width="46.7" height="17"></rect>
      <text class="cls-2" transform="translate(96.88 454.8)">16</text>
      <rect class="cls-23" x="78.11" y="357.37" width="46.7" height="17"></rect>
      <text class="cls-2" transform="translate(96.96 369.8)">21</text>
      <rect class="cls-10" x="78.11" y="187.37" width="46.7" height="17"></rect>
      <text class="cls-2" transform="translate(98.81 199.8)">9</text>
      <rect class="cls-15" x="78.11" y="238.37" width="46.7" height="17"></rect>
      <text class="cls-2" transform="translate(96.84 250.8)">14</text>
      <rect class="cls-18" x="78.11" y="425.37" width="46.7" height="17"></rect>
      <text class="cls-2" transform="translate(97.27 437.8)">
        <tspan class="cls-19">1</tspan>
        <tspan x="5.39" y="0">7</tspan>
      </text>
      <rect class="cls-21" x="78.11" y="255.37" width="46.7" height="17"></rect>
      <text class="cls-2" transform="translate(96.88 267.8)">19</text>
      <rect class="cls-22" x="78.11" y="391.37" width="46.7" height="17"></rect>
      <text class="cls-2" transform="translate(96.01 403.8)">20</text>
      <rect class="cls-24" x="78.11" y="306.37" width="46.7" height="17"></rect>
      <text class="cls-2" transform="translate(96.31 318.8)">22</text>
      <rect class="cls-26" x="78.11" y="340.37" width="46.7" height="17"></rect>
      <text class="cls-2" transform="translate(96.19 352.8)">24</text>
      <rect class="cls-27" x="78.11" y="408.37" width="46.7" height="17"></rect>
      <text class="cls-2" transform="translate(96.33 420.8)">25</text>
      <rect class="cls-28" x="78.11" y="323.37" width="46.7" height="17"></rect>
      <text class="cls-2" transform="translate(96.23 335.8)">26</text>
      <rect class="cls-29" x="78.11" y="459.37" width="46.7" height="17"></rect>
      <text class="cls-2" transform="translate(96.53 471.8)">27</text>
      <rect class="cls-30" x="78.11" y="476.37" width="46.7" height="17"></rect>
      <text class="cls-2" transform="translate(96.2 488.8)">28</text>
      <rect class="cls-12" x="78.11" y="153.37" width="46.7" height="17"></rect>
      <text class="cls-2" transform="translate(97.61 165.8)">11</text>
      <rect class="cls-11" x="78.11" y="68.45" width="46.7" height="17"></rect>
      <text class="cls-2" transform="translate(96.66 80.88)">10</text>
      <rect class="cls-14" x="78.11" y="85.45" width="46.7" height="17"></rect>
      <text class="cls-2" transform="translate(97.09 97.88)">13</text>
      <rect class="cls-13" x="78.11" y="204.37" width="46.7" height="17"></rect>
      <text class="cls-2" transform="translate(96.96 216.8)">12</text>
      <rect class="cls-20" x="78.11" y="374.37" width="46.7" height="17"></rect>
      <text class="cls-2" transform="translate(96.85 386.8)">18</text>
      <rect class="cls-3" x="78.11" y="136.36" width="46.7" height="17"></rect>
      <text class="cls-2" transform="translate(98.89 148.8)">2</text>
      <rect class="cls-4" x="78.11" y="51.45" width="46.7" height="17"></rect>
      <text class="cls-2" transform="translate(99.02 63.88)">3</text>
      <rect class="cls-7" x="78.11" y="119.36" width="46.7" height="17"></rect>
      <text class="cls-2" transform="translate(98.81 131.8)">6</text>
      <rect class="cls-1" x="78.11" y="17.56" width="46.7" height="17"></rect>
      <text class="cls-2" transform="translate(99.54 29.99)">1</text>
      <rect class="cls-6" x="78.11" y="34.48" width="46.7" height="17"></rect>
      <text class="cls-2" transform="translate(98.9 46.91)">5</text>
      <rect class="cls-8" x="78.11" y="170.37" width="46.7" height="17"></rect>
      <text class="cls-2" transform="translate(99.11 182.8)">7</text>
      <rect class="cls-25" x="78.11" y="289.36" width="46.7" height="17"></rect>
      <text class="cls-2" transform="translate(96.44 301.8)">23</text>
      <rect class="cls-30" x="75.11" y="0.83" width="52.71" height="8.66"></rect>
      <text class="cls-32" transform="translate(75.11 9.49)">CSS/HTML</text>
      <rect class="cls-5" x="78.11" y="102.37" width="46.7" height="17"></rect>
      <text class="cls-2" transform="translate(98.77 114.8)">4</text>
      <rect class="cls-1" y="17.47" width="13.5" height="17"></rect>
      <text class="cls-2" transform="translate(4.83 29.91)">1</text>
      <rect class="cls-3" y="34.47" width="13.5" height="17"></rect>
      <text class="cls-2" transform="translate(4.18 46.91)">2</text>
      <rect class="cls-4" y="51.47" width="13.5" height="17"></rect>
      <text class="cls-2" transform="translate(4.31 63.91)">3</text>
      <rect class="cls-5" y="68.47" width="13.5" height="17"></rect>
      <text class="cls-2" transform="translate(4.06 80.91)">4</text>
      <rect class="cls-6" y="85.47" width="13.5" height="17"></rect>
      <text class="cls-2" transform="translate(4.19 97.91)">5</text>
      <rect class="cls-7" y="102.47" width="13.5" height="17"></rect>
      <text class="cls-2" transform="translate(4.1 114.91)">6</text>
      <rect class="cls-8" y="119.47" width="13.5" height="17"></rect>
      <text class="cls-2" transform="translate(4.4 131.91)">7</text>
      <rect class="cls-9" y="136.47" width="13.5" height="17"></rect>
      <text class="cls-2" transform="translate(4.06 148.91)">8</text>
      <rect class="cls-10" y="153.47" width="13.5" height="17"></rect>
      <text class="cls-2" transform="translate(4.1 165.91)">9</text>
      <rect class="cls-11" y="170.47" width="13.5" height="17"></rect>
      <text class="cls-2" transform="translate(1.95 182.91)">10</text>
      <rect class="cls-12" y="187.47" width="13.5" height="17"></rect>
      <text class="cls-2" transform="translate(2.9 199.91)">11</text>
      <rect class="cls-13" y="204.47" width="13.5" height="17"></rect>
      <text class="cls-2" transform="translate(2.25 216.91)">12</text>
      <rect class="cls-14" y="221.47" width="13.5" height="17"></rect>
      <text class="cls-2" transform="translate(2.38 233.91)">13</text>
      <rect class="cls-15" y="238.47" width="13.5" height="17"></rect>
      <text class="cls-2" transform="translate(2.13 250.91)">14</text>
      <rect class="cls-16" y="255.47" width="13.5" height="17"></rect>
      <text class="cls-2" transform="translate(2.27 267.91)">15</text>
      <rect class="cls-17" y="272.47" width="13.5" height="17"></rect>
      <text class="cls-2" transform="translate(2.17 284.91)">16</text>
      <rect class="cls-18" y="289.47" width="13.5" height="17"></rect>
      <text class="cls-2" transform="translate(2.56 301.91)">
        <tspan class="cls-19">1</tspan>
        <tspan x="5.39" y="0">7</tspan>
      </text>
      <rect class="cls-20" y="306.47" width="13.5" height="17"></rect>
      <text class="cls-2" transform="translate(2.14 318.91)">18</text>
      <rect class="cls-21" y="323.47" width="13.5" height="17"></rect>
      <text class="cls-2" transform="translate(2.17 335.91)">19</text>
      <rect class="cls-22" y="340.47" width="13.5" height="17"></rect>
      <text class="cls-2" transform="translate(1.3 352.91)">20</text>
      <rect class="cls-23" y="357.47" width="13.5" height="17"></rect>
      <text class="cls-2" transform="translate(2.25 369.91)">21</text>
      <rect class="cls-24" y="374.47" width="13.5" height="17"></rect>
      <text class="cls-2" transform="translate(1.6 386.91)">22</text>
      <rect class="cls-25" y="391.47" width="13.5" height="17"></rect>
      <text class="cls-2" transform="translate(1.73 403.91)">23</text>
      <rect class="cls-26" y="408.47" width="13.5" height="17"></rect>
      <text class="cls-2" transform="translate(1.48 420.91)">24</text>
      <rect class="cls-27" y="425.47" width="13.5" height="17"></rect>
      <text class="cls-2" transform="translate(1.62 437.91)">25</text>
      <rect class="cls-28" y="442.47" width="13.5" height="17"></rect>
      <text class="cls-2" transform="translate(1.52 454.91)">26</text>
      <rect class="cls-29" y="459.47" width="13.5" height="17"></rect>
      <text class="cls-2" transform="translate(1.82 471.91)">27</text>
      <rect class="cls-30" y="476.47" width="13.5" height="17"></rect>
      <text class="cls-2" transform="translate(1.49 488.91)">28</text>
    </g>
  </g>
</svg>
