<?xml version="1.0" encoding="UTF-8"?>
<svg xmlns="http://www.w3.org/2000/svg" viewBox="0 0 628.5 289.57">
  <defs>
    <style>.cls-1{fill:#f2f2f2;}.cls-2{font-size:10px;font-family:ArialMT, Arial;}.cls-3{letter-spacing:-0.01em;}.cls-4{letter-spacing:-0.02em;}.cls-5{letter-spacing:-0.04em;}.cls-6{letter-spacing:-0.04em;}.cls-7{letter-spacing:-0.01em;}.cls-8{letter-spacing:-0.02em;}.cls-9{letter-spacing:-0.01em;}.cls-10{letter-spacing:-0.02em;}.cls-11{fill:#fff;}.cls-12{letter-spacing:-0.03em;}.cls-13{letter-spacing:-0.04em;}.cls-14{letter-spacing:-0.01em;}.cls-15{letter-spacing:-0.02em;}.cls-16{letter-spacing:-0.01em;}.cls-17{letter-spacing:-0.02em;}.cls-18{letter-spacing:-0.01em;}.cls-19{letter-spacing:-0.01em;}.cls-20{letter-spacing:-0.02em;}.cls-21{letter-spacing:0.01em;}.cls-22{letter-spacing:-0.02em;}.cls-23{letter-spacing:-0.04em;}.cls-24{letter-spacing:-0.03em;}.cls-25{letter-spacing:-0.01em;}.cls-26{letter-spacing:-0.02em;}.cls-27{letter-spacing:-0.01em;}.cls-28{letter-spacing:-0.04em;}.cls-29{fill:#00458b;}.cls-30{fill:none;stroke:#fff;}.cls-31{font-size:12px;font-family:Arial-BoldMT, Arial;font-weight:700;}.cls-32{letter-spacing:-0.03em;}.cls-33{letter-spacing:-0.02em;}.cls-34{letter-spacing:0em;}.cls-35{letter-spacing:-0.01em;}.cls-36{letter-spacing:-0.02em;}.cls-37{letter-spacing:-0.05em;}.cls-38{letter-spacing:-0.05em;}</style>
  </defs>
  <g id="Layer_2" data-name="Layer 2">
    <g id="Layer_1-2" data-name="Layer 1">
      <rect class="cls-1" y="19.57" width="628.5" height="27"></rect>
      <text class="cls-2" transform="translate(4.5 37.01)">Lack of br<tspan class="cls-3" x="43.91" y="0">ow</tspan><tspan x="56.49" y="0">se</tspan><tspan class="cls-4" x="67.06" y="0">r</tspan><tspan class="cls-5" x="70.19" y="0">/</tspan><tspan x="72.56" y="0">engine adoption</tspan><tspan class="cls-6" x="143.74" y="0">/</tspan><tspan x="146.16" y="0">support </tspan><tspan class="cls-7" x="182.29" y="0">f</tspan><tspan x="185" y="0">o</tspan><tspan class="cls-8" x="190.56" y="0">r</tspan><tspan x="193.73" y="0" xml:space="preserve"> a g</tspan><tspan class="cls-9" x="210.41" y="0">i</tspan><tspan class="cls-10" x="212.5" y="0">v</tspan><tspan x="217.34" y="0">en language </tspan><tspan class="cls-7" x="275.18" y="0">f</tspan><tspan x="277.88" y="0">eature</tspan></text>
      <rect class="cls-11" y="46.57" width="628.5" height="27"></rect>
      <text class="cls-2" transform="translate(4.5 64.01)">Inadequate per<tspan class="cls-7" x="67.28" y="0">f</tspan><tspan x="69.99" y="0">ormance </tspan><tspan class="cls-12" x="111.67" y="0">(</tspan><tspan x="114.66" y="0">speed and siz</tspan><tspan class="cls-13" x="176.37" y="0">e</tspan><tspan x="181.49" y="0">), particula</tspan><tspan class="cls-7" x="228.18" y="0">r</tspan><tspan class="cls-14" x="231.44" y="0">l</tspan><tspan class="cls-15" x="233.54" y="0">y</tspan><tspan x="238.31" y="0" xml:space="preserve"> on l</tspan><tspan class="cls-16" x="257.21" y="0">o</tspan><tspan class="cls-4" x="262.67" y="0">w</tspan><tspan x="269.69" y="0">-end d</tspan><tspan class="cls-17" x="298.05" y="0">e</tspan><tspan x="303.44" y="0">vices</tspan></text>
      <rect class="cls-1" y="73.57" width="628.5" height="27"></rect>
      <text class="cls-2" transform="translate(4.5 91.01)">Br<tspan class="cls-18" x="10" y="0">o</tspan><tspan class="cls-16" x="15.47" y="0">w</tspan><tspan x="22.59" y="0">se</tspan><tspan class="cls-19" x="33.15" y="0">r</tspan><tspan x="36.33" y="0" xml:space="preserve"> updates causing things to break</tspan></text>
      <rect class="cls-11" y="100.57" width="628.5" height="27"></rect>
      <text class="cls-2" transform="translate(4.5 118.01)">Lack of interoperabilit<tspan class="cls-20" x="95.05" y="0">y</tspan><tspan x="99.81" y="0" xml:space="preserve"> bet</tspan><tspan class="cls-3" x="116.49" y="0">w</tspan><tspan x="123.62" y="0">een implementations</tspan></text>
      <rect class="cls-1" y="127.57" width="628.5" height="27"></rect>
      <text class="cls-2" transform="translate(4.5 145.01)">Lack of debug tooling support <tspan class="cls-21" x="133.98" y="0">(</tspan><tspan x="137.39" y="0">br</tspan><tspan class="cls-18" x="146.29" y="0">o</tspan><tspan class="cls-16" x="151.76" y="0">w</tspan><tspan x="158.88" y="0">se</tspan><tspan class="cls-8" x="169.44" y="0">r</tspan><tspan x="172.61" y="0" xml:space="preserve"> d</tspan><tspan class="cls-22" x="180.95" y="0">e</tspan><tspan class="cls-15" x="186.34" y="0">v</tspan><tspan x="191.11" y="0" xml:space="preserve"> tool</tspan><tspan class="cls-23" x="210.01" y="0">s</tspan><tspan x="214.63" y="0">)</tspan></text>
      <rect class="cls-11" y="154.57" width="537" height="27"></rect>
      <text class="cls-2" transform="translate(4.5 172.01)">Lack of per<tspan class="cls-7" x="49.47" y="0">f</tspan><tspan x="52.18" y="0">ormance </tspan><tspan class="cls-12" x="93.87" y="0">(</tspan><tspan x="96.86" y="0">speed and siz</tspan><tspan class="cls-13" x="158.56" y="0">e</tspan><tspan x="163.69" y="0">) proﬁling support</tspan></text>
      <rect class="cls-1" y="181.57" width="628.5" height="27"></rect>
      <text class="cls-2" transform="translate(4.5 199.01)">Lack of internationalization<tspan class="cls-24" x="118.41" y="0"> </tspan><tspan x="120.89" y="0">A</tspan><tspan class="cls-25" x="127.56" y="0">PI</tspan><tspan x="136.88" y="0">s o</tspan><tspan class="cls-10" x="150.22" y="0">r</tspan><tspan x="153.39" y="0" xml:space="preserve"> localization support        </tspan></text>
      <rect class="cls-11" y="208.57" width="628.5" height="27"></rect>
      <text class="cls-2" transform="translate(4.5 226.01)">Lack of build tooling support <tspan class="cls-26" x="127.3" y="0">(</tspan><tspan x="130.42" y="0">in Babel</tspan><tspan class="cls-27" x="166.56" y="0">/</tspan><tspan class="cls-16" x="169.2" y="0">w</tspan><tspan x="176.32" y="0">ebpack</tspan><tspan class="cls-9" x="208.57" y="0">/</tspan><tspan x="211.22" y="0">uglifyjs</tspan><tspan class="cls-28" x="241.78" y="0">/</tspan><tspan x="244.15" y="0">etc.)</tspan></text>
      <rect class="cls-1" y="235.57" width="628.5" height="27"></rect>
      <text class="cls-2" transform="translate(4.5 253.01)">
        <tspan class="cls-26">N</tspan>
        <tspan x="7.01" y="0">o pain points</tspan>
      </text>
      <rect class="cls-11" y="262.57" width="628.5" height="27"></rect>
      <text class="cls-2" transform="translate(4.5 280.01)">Other</text>
      <rect class="cls-29" x="458" y="20.07" width="63.33" height="26"></rect>
      <rect class="cls-30" x="458" y="20.07" width="63.33" height="26"></rect>
      <rect class="cls-29" x="458" y="47.07" width="52.32" height="26"></rect>
      <rect class="cls-30" x="458" y="47.07" width="52.32" height="26"></rect>
      <rect class="cls-29" x="458" y="74.07" width="33.74" height="26"></rect>
      <rect class="cls-30" x="458" y="74.07" width="33.74" height="26"></rect>
      <rect class="cls-29" x="458" y="101.07" width="32.37" height="26"></rect>
      <rect class="cls-30" x="458" y="101.07" width="32.37" height="26"></rect>
      <rect class="cls-29" x="458" y="128.07" width="31.85" height="26"></rect>
      <rect class="cls-30" x="458" y="128.07" width="31.85" height="26"></rect>
      <rect class="cls-29" x="458" y="155.07" width="30.3" height="26"></rect>
      <rect class="cls-30" x="458" y="155.07" width="30.3" height="26"></rect>
      <rect class="cls-29" x="458" y="182.07" width="30.13" height="26"></rect>
      <rect class="cls-30" x="458" y="182.07" width="30.13" height="26"></rect>
      <rect class="cls-29" x="458" y="209.07" width="28.24" height="26"></rect>
      <rect class="cls-30" x="458" y="209.07" width="28.24" height="26"></rect>
      <rect class="cls-29" x="458" y="236.07" width="27.72" height="26"></rect>
      <rect class="cls-30" x="458" y="236.07" width="27.72" height="26"></rect>
      <rect class="cls-29" x="458" y="263.07" width="17.4" height="26"></rect>
      <rect class="cls-30" x="458" y="263.07" width="17.4" height="26"></rect>
      <text class="cls-31" transform="translate(0 10.29)">
        <tspan class="cls-32">J</tspan>
        <tspan class="cls-33" x="6.34" y="0">a</tspan>
        <tspan class="cls-34" x="12.78" y="0">v</tspan>
        <tspan x="19.41" y="0">aScript - Biggest </tspan>
        <tspan class="cls-35" x="118.09" y="0">P</tspan>
        <tspan x="126.03" y="0">ain </tspan>
        <tspan class="cls-36" x="146.7" y="0">P</tspan>
        <tspan x="154.5" y="0">oints</tspan>
      </text>
      <text class="cls-2" transform="translate(595.99 37.01)">3<tspan class="cls-37" x="5.56" y="0">7</tspan><tspan x="10.67" y="0">.4%</tspan></text>
      <text class="cls-2" transform="translate(603.89 64.01)">31%</text>
      <text class="cls-2" transform="translate(594.6 91.01)">2<tspan class="cls-9" x="5.56" y="0">0</tspan><tspan x="10.99" y="0">.2%</tspan></text>
      <text class="cls-2" transform="translate(595.97 118.01)">19.4%</text>
      <text class="cls-2" transform="translate(597.51 145.01)">19.1%</text>
      <text class="cls-2" transform="translate(596.24 172.01)">1<tspan class="cls-3" x="5.56" y="0">8</tspan><tspan x="11.02" y="0">.2%</tspan></text>
      <text class="cls-2" transform="translate(597.54 199.01)">1<tspan class="cls-18" x="5.56" y="0">8</tspan><tspan x="11.03" y="0">.1%</tspan></text>
      <text class="cls-2" transform="translate(604.24 226.01)">
        <tspan class="cls-17">1</tspan>
        <tspan x="5.39" y="0">7%</tspan>
      </text>
      <text class="cls-2" transform="translate(597.28 253.01)">1<tspan class="cls-9" x="5.56" y="0">6</tspan><tspan class="cls-38" x="10.99" y="0">.</tspan><tspan x="13.29" y="0">7%</tspan></text>
      <text class="cls-2" transform="translate(596.83 280.01)">1<tspan class="cls-9" x="5.56" y="0">0</tspan><tspan class="cls-38" x="10.99" y="0">.</tspan><tspan x="13.29" y="0">7%</tspan></text>
    </g>
  </g>
</svg>
