<?xml version="1.0" encoding="UTF-8"?>
<svg xmlns="http://www.w3.org/2000/svg" viewBox="0 0 628.5 208.57">
  <defs>
    <style>.cls-1{fill:#f2f2f2;}.cls-2{font-size:10px;font-family:ArialMT, Arial;}.cls-3{letter-spacing:-0.02em;}.cls-4{fill:#fff;}.cls-5{letter-spacing:-0.01em;}.cls-6{letter-spacing:-0.02em;}.cls-7{letter-spacing:-0.04em;}.cls-8{letter-spacing:-0.04em;}.cls-9{letter-spacing:-0.01em;}.cls-10{letter-spacing:-0.02em;}.cls-11{letter-spacing:-0.01em;}.cls-12{letter-spacing:-0.02em;}.cls-13{letter-spacing:-0.02em;}.cls-14{letter-spacing:-0.02em;}.cls-15{fill:#00458b;}.cls-16{fill:none;stroke:#fff;}.cls-17{font-size:12px;font-family:Arial-BoldMT, Arial;font-weight:700;}.cls-18{letter-spacing:-0.01em;}.cls-19{letter-spacing:-0.02em;}.cls-20{letter-spacing:-0.05em;}.cls-21{letter-spacing:-0.01em;}.cls-22{letter-spacing:-0.02em;}</style>
  </defs>
  <g id="Layer_2" data-name="Layer 2">
    <g id="Layer_1-2" data-name="Layer 1">
      <rect class="cls-1" y="19.57" width="628.5" height="27"></rect>
      <text class="cls-2" transform="translate(4.5 37.01)">
        <tspan class="cls-3">N</tspan>
        <tspan x="7.01" y="0">o pain points</tspan>
      </text>
      <rect class="cls-4" y="46.57" width="628.5" height="27"></rect>
      <text class="cls-2" transform="translate(4.5 64.01)">Lack of br<tspan class="cls-5" x="43.91" y="0">ow</tspan><tspan x="56.49" y="0">se</tspan><tspan class="cls-6" x="67.06" y="0">r</tspan><tspan class="cls-7" x="70.19" y="0">/</tspan><tspan x="72.56" y="0">engine adoption</tspan><tspan class="cls-8" x="143.74" y="0">/</tspan><tspan x="146.16" y="0">support </tspan><tspan class="cls-9" x="182.29" y="0">f</tspan><tspan x="185" y="0">o</tspan><tspan class="cls-10" x="190.56" y="0">r</tspan><tspan x="193.73" y="0" xml:space="preserve"> a g</tspan><tspan class="cls-11" x="210.41" y="0">i</tspan><tspan class="cls-12" x="212.5" y="0">v</tspan><tspan x="217.34" y="0">en language </tspan><tspan class="cls-9" x="275.18" y="0">f</tspan><tspan x="277.88" y="0">eature</tspan></text>
      <rect class="cls-1" y="73.57" width="628.5" height="27"></rect>
      <text class="cls-2" transform="translate(4.5 91.01)">Inabilit<tspan class="cls-13" x="28.91" y="0">y</tspan><tspan x="33.68" y="0" xml:space="preserve"> to customize components built into HTML</tspan></text>
      <rect class="cls-4" y="100.57" width="628.5" height="27"></rect>
      <text class="cls-2" transform="translate(4.5 118.01)">The qualit<tspan class="cls-14" x="43.92" y="0">y</tspan><tspan x="48.68" y="0" xml:space="preserve"> of components built into HTML</tspan></text>
      <rect class="cls-1" y="127.57" width="628.5" height="27"></rect>
      <text class="cls-2" transform="translate(4.5 145.01)">
        <tspan class="cls-3">N</tspan>
        <tspan x="7.01" y="0">ot enoug</tspan>
        <tspan class="cls-5" x="45.94" y="0">h</tspan>
        <tspan x="51.4" y="0" xml:space="preserve"> components built into HTML</tspan>
      </text>
      <rect class="cls-4" y="154.57" width="628.5" height="27"></rect>
      <text class="cls-2" transform="translate(4.5 172.01)">Lack of interoperabilit<tspan class="cls-14" x="95.05" y="0">y</tspan><tspan x="99.81" y="0" xml:space="preserve"> bet</tspan><tspan class="cls-5" x="116.49" y="0">w</tspan><tspan x="123.62" y="0" xml:space="preserve">een implementations        </tspan></text>
      <rect class="cls-1" y="181.57" width="628.5" height="27"></rect>
      <text class="cls-2" transform="translate(4.5 199.01)">Other</text>
      <rect class="cls-15" x="458" y="20.07" width="59.72" height="26"></rect>
      <rect class="cls-16" x="458" y="20.07" width="59.72" height="26"></rect>
      <rect class="cls-15" x="458" y="47.07" width="53.18" height="26"></rect>
      <rect class="cls-16" x="458" y="47.07" width="53.18" height="26"></rect>
      <rect class="cls-15" x="458" y="74.07" width="44.92" height="26"></rect>
      <rect class="cls-16" x="458" y="74.07" width="44.92" height="26"></rect>
      <rect class="cls-15" x="458" y="101.07" width="35.12" height="26"></rect>
      <rect class="cls-16" x="458" y="101.07" width="35.12" height="26"></rect>
      <rect class="cls-15" x="458" y="128.07" width="33.92" height="26"></rect>
      <rect class="cls-16" x="458" y="128.07" width="33.92" height="26"></rect>
      <rect class="cls-15" x="458" y="155.07" width="30.99" height="26"></rect>
      <rect class="cls-16" x="458" y="155.07" width="30.99" height="26"></rect>
      <rect class="cls-15" x="458" y="182.07" width="7.26" height="26"></rect>
      <rect class="cls-16" x="458" y="182.07" width="7.26" height="26"></rect>
      <text class="cls-17" transform="translate(0 10.29)">HTM<tspan class="cls-3" x="25.99" y="0">L</tspan><tspan x="33.07" y="0" xml:space="preserve"> - Biggest </tspan><tspan class="cls-18" x="91.07" y="0">P</tspan><tspan x="99" y="0">ain </tspan><tspan class="cls-19" x="119.68" y="0">P</tspan><tspan x="127.48" y="0">oints</tspan></text>
      <text class="cls-2" transform="translate(595.62 37.01)">35.3%</text>
      <text class="cls-2" transform="translate(596.66 64.01)">31.5%</text>
      <text class="cls-2" transform="translate(596.84 91.01)">2<tspan class="cls-11" x="5.56" y="0">6</tspan><tspan class="cls-20" x="10.99" y="0">.</tspan><tspan x="13.29" y="0">7%</tspan></text>
      <text class="cls-2" transform="translate(604.49 118.01)">21%</text>
      <text class="cls-2" transform="translate(594.86 145.01)">2<tspan class="cls-11" x="5.56" y="0">0</tspan><tspan x="10.99" y="0">.3%</tspan></text>
      <text class="cls-2" transform="translate(596.27 172.01)">1<tspan class="cls-21" x="5.56" y="0">8</tspan><tspan class="cls-22" x="11.03" y="0">.</tspan><tspan x="13.62" y="0">6%</tspan></text>
      <text class="cls-2" transform="translate(599.75 199.01)">4.8%</text>
    </g>
  </g>
</svg>
