<?xml version="1.0" encoding="UTF-8"?>
<svg xmlns="http://www.w3.org/2000/svg" viewBox="0 0 628.5 289.57">
  <defs>
    <style>.cls-1{fill:#f2f2f2;}.cls-2{font-size:10px;font-family:ArialMT, Arial;}.cls-3{letter-spacing:-0.02em;}.cls-4{letter-spacing:-0.01em;}.cls-5{letter-spacing:-0.01em;}.cls-6{letter-spacing:-0.02em;}.cls-7{letter-spacing:-0.04em;}.cls-8{letter-spacing:-0.04em;}.cls-9{letter-spacing:-0.01em;}.cls-10{letter-spacing:-0.02em;}.cls-11{letter-spacing:-0.01em;}.cls-12{letter-spacing:-0.02em;}.cls-13{letter-spacing:-0.02em;}.cls-14{fill:#fff;}.cls-15{letter-spacing:-0.01em;}.cls-16{letter-spacing:-0.01em;}.cls-17{letter-spacing:-0.01em;}.cls-18{letter-spacing:0.01em;}.cls-19{letter-spacing:-0.02em;}.cls-20{letter-spacing:-0.02em;}.cls-21{letter-spacing:-0.04em;}.cls-22{letter-spacing:-0.03em;}.cls-23{letter-spacing:-0.04em;}.cls-24{letter-spacing:-0.01em;}.cls-25{letter-spacing:-0.04em;}.cls-26{fill:#00458b;}.cls-27{fill:none;stroke:#fff;}.cls-28{font-size:12px;font-family:Arial-BoldMT, Arial;font-weight:700;}.cls-29{letter-spacing:-0.01em;}.cls-30{letter-spacing:-0.02em;}</style>
  </defs>
  <g id="Layer_2" data-name="Layer 2">
    <g id="Layer_1-2" data-name="Layer 1">
      <rect class="cls-1" y="19.57" width="628.5" height="27"></rect>
      <text class="cls-2" transform="translate(4.5 37.01)">Challenges creating the l<tspan class="cls-3" x="110.07" y="0">a</tspan><tspan class="cls-4" x="115.42" y="0">y</tspan><tspan x="120.3" y="0">out speciﬁed</tspan></text>
      <text class="cls-2" transform="translate(4.5 64.01)">Lack of br<tspan class="cls-5" x="43.91" y="0">ow</tspan><tspan x="56.49" y="0">se</tspan><tspan class="cls-6" x="67.06" y="0">r</tspan><tspan class="cls-7" x="70.19" y="0">/</tspan><tspan x="72.56" y="0">engine adoption</tspan><tspan class="cls-8" x="143.74" y="0">/</tspan><tspan x="146.16" y="0">support </tspan><tspan class="cls-9" x="182.29" y="0">f</tspan><tspan x="185" y="0">o</tspan><tspan class="cls-10" x="190.56" y="0">r</tspan><tspan x="193.73" y="0" xml:space="preserve"> a g</tspan><tspan class="cls-11" x="210.41" y="0">i</tspan><tspan class="cls-12" x="212.5" y="0">v</tspan><tspan x="217.34" y="0">en language </tspan><tspan class="cls-9" x="275.18" y="0">f</tspan><tspan x="277.88" y="0">eature</tspan></text>
      <rect class="cls-1" y="73.57" width="628.5" height="27"></rect>
      <text class="cls-2" transform="translate(4.5 91.01)">Lack of interoperabilit<tspan class="cls-13" x="95.05" y="0">y</tspan><tspan x="99.81" y="0" xml:space="preserve"> bet</tspan><tspan class="cls-5" x="116.49" y="0">w</tspan><tspan x="123.62" y="0">een implementations</tspan></text>
      <rect class="cls-14" y="100.57" width="628.5" height="27"></rect>
      <text class="cls-2" transform="translate(4.5 118.01)">Inadequate progress<tspan class="cls-11" x="91.73" y="0">i</tspan><tspan class="cls-12" x="93.83" y="0">v</tspan><tspan x="98.67" y="0">e enhancement strategy</tspan></text>
      <rect class="cls-1" y="127.57" width="628.5" height="27"></rect>
      <text class="cls-2" transform="translate(4.5 145.01)">
        <tspan class="cls-3">N</tspan>
        <tspan x="7.01" y="0">o pain points</tspan>
      </text>
      <rect class="cls-14" y="154.57" width="628.5" height="27"></rect>
      <text class="cls-2" transform="translate(4.5 172.01)">Br<tspan class="cls-15" x="10" y="0">o</tspan><tspan class="cls-16" x="15.47" y="0">w</tspan><tspan x="22.59" y="0">se</tspan><tspan class="cls-17" x="33.15" y="0">r</tspan><tspan x="36.33" y="0" xml:space="preserve"> updates causing things to break</tspan></text>
      <rect class="cls-1" y="181.57" width="628.5" height="27"></rect>
      <text class="cls-2" transform="translate(4.5 199.01)">Lack of debug tooling support <tspan class="cls-18" x="133.98" y="0">(</tspan><tspan x="137.39" y="0">br</tspan><tspan class="cls-15" x="146.29" y="0">o</tspan><tspan class="cls-16" x="151.76" y="0">w</tspan><tspan x="158.88" y="0">se</tspan><tspan class="cls-10" x="169.44" y="0">r</tspan><tspan x="172.61" y="0" xml:space="preserve"> d</tspan><tspan class="cls-19" x="180.95" y="0">e</tspan><tspan class="cls-20" x="186.34" y="0">v</tspan><tspan x="191.11" y="0" xml:space="preserve"> tool</tspan><tspan class="cls-21" x="210.01" y="0">s</tspan><tspan x="214.63" y="0">)</tspan></text>
      <rect class="cls-14" y="208.57" width="628.5" height="27"></rect>
      <text class="cls-2" transform="translate(4.5 226.01)">Lack of per<tspan class="cls-9" x="49.47" y="0">f</tspan><tspan x="52.18" y="0">ormance </tspan><tspan class="cls-22" x="93.87" y="0">(</tspan><tspan x="96.86" y="0">speed and siz</tspan><tspan class="cls-23" x="158.56" y="0">e</tspan><tspan x="163.69" y="0">) proﬁling support</tspan></text>
      <rect class="cls-1" y="235.57" width="628.5" height="27"></rect>
      <text class="cls-2" transform="translate(4.5 253.01)">Lack of build tooling support <tspan class="cls-3" x="127.3" y="0">(</tspan><tspan x="130.42" y="0">in Babel</tspan><tspan class="cls-24" x="166.56" y="0">/</tspan><tspan class="cls-16" x="169.2" y="0">w</tspan><tspan x="176.32" y="0">ebpack</tspan><tspan class="cls-11" x="208.57" y="0">/</tspan><tspan x="211.22" y="0">uglifyjs</tspan><tspan class="cls-25" x="241.78" y="0">/</tspan><tspan x="244.15" y="0">etc.)</tspan></text>
      <rect class="cls-14" y="262.57" width="628.5" height="27"></rect>
      <text class="cls-2" transform="translate(4.5 280.01)">Other</text>
      <rect class="cls-26" x="458" y="20.07" width="75.37" height="26"></rect>
      <rect class="cls-27" x="458" y="20.07" width="75.37" height="26"></rect>
      <rect class="cls-26" x="458" y="47.07" width="72.96" height="26"></rect>
      <rect class="cls-27" x="458" y="47.07" width="72.96" height="26"></rect>
      <rect class="cls-26" x="458" y="74.07" width="44.06" height="26"></rect>
      <rect class="cls-27" x="458" y="74.07" width="44.06" height="26"></rect>
      <rect class="cls-26" x="458" y="101.07" width="34.78" height="26"></rect>
      <rect class="cls-27" x="458" y="101.07" width="34.78" height="26"></rect>
      <rect class="cls-26" x="458" y="128.07" width="26.18" height="26"></rect>
      <rect class="cls-27" x="458" y="128.07" width="26.18" height="26"></rect>
      <rect class="cls-26" x="458" y="155.07" width="26.18" height="26"></rect>
      <rect class="cls-27" x="458" y="155.07" width="26.18" height="26"></rect>
      <rect class="cls-26" x="458" y="182.07" width="25.66" height="26"></rect>
      <rect class="cls-27" x="458" y="182.07" width="25.66" height="26"></rect>
      <rect class="cls-26" x="458" y="209.07" width="16.89" height="26"></rect>
      <rect class="cls-27" x="458" y="209.07" width="16.89" height="26"></rect>
      <rect class="cls-26" x="458" y="236.07" width="13.62" height="26"></rect>
      <rect class="cls-27" x="458" y="236.07" width="13.62" height="26"></rect>
      <rect class="cls-26" x="458" y="263.07" width="10.01" height="26"></rect>
      <rect class="cls-27" x="458" y="263.07" width="10.01" height="26"></rect>
      <text class="cls-28" transform="translate(0 10.29)">CSS - Biggest <tspan class="cls-29" x="82.68" y="0">P</tspan><tspan x="90.61" y="0">ain </tspan><tspan class="cls-30" x="111.28" y="0">P</tspan><tspan x="119.08" y="0">oints</tspan></text>
      <text class="cls-2" transform="translate(594.35 37.01)">44.4%</text>
      <text class="cls-2" transform="translate(602.35 64.01)">43%</text>
      <text class="cls-2" transform="translate(595.05 91.01)">2<tspan class="cls-11" x="5.56" y="0">6</tspan><tspan x="10.99" y="0">.2%</tspan></text>
      <text class="cls-2" transform="translate(594.37 118.01)">2<tspan class="cls-11" x="5.56" y="0">0</tspan><tspan x="10.99" y="0">.8%</tspan></text>
      <text class="cls-2" transform="translate(596.17 145.01)">15.8%</text>
      <text class="cls-2" transform="translate(596.17 172.01)">15.8%</text>
      <text class="cls-2" transform="translate(596.43 199.01)">15.5%</text>
      <text class="cls-2" transform="translate(595.66 226.01)">1<tspan class="cls-11" x="5.56" y="0">0</tspan><tspan x="10.99" y="0">.4%</tspan></text>
      <text class="cls-2" transform="translate(600.12 253.01)">
        <tspan class="cls-15">8</tspan>
        <tspan x="5.47" y="0">.5%</tspan>
      </text>
      <text class="cls-2" transform="translate(599.96 280.01)">
        <tspan class="cls-11">6</tspan>
        <tspan x="5.43" y="0">.4%</tspan>
      </text>
    </g>
  </g>
</svg>
