<?xml version="1.0" encoding="UTF-8"?>
<svg xmlns="http://www.w3.org/2000/svg" viewBox="0 0 628.5 262.57">
  <defs>
    <style>.cls-1{fill:#fff;}.cls-2{font-size:10px;font-family:ArialMT, Arial;}.cls-3{letter-spacing:-0.01em;}.cls-4{letter-spacing:-0.03em;}.cls-5{letter-spacing:-0.04em;}.cls-6{letter-spacing:0.01em;}.cls-7{letter-spacing:-0.01em;}.cls-8{letter-spacing:-0.01em;}.cls-9{letter-spacing:-0.02em;}.cls-10{letter-spacing:-0.02em;}.cls-11{letter-spacing:-0.02em;}.cls-12{letter-spacing:-0.01em;}.cls-13{letter-spacing:-0.03em;}.cls-14{fill:#f2f2f2;}.cls-15{letter-spacing:-0.02em;}.cls-16{letter-spacing:-0.01em;}.cls-17{letter-spacing:-0.01em;}.cls-18{letter-spacing:-0.02em;}.cls-19{letter-spacing:-0.02em;}.cls-20{letter-spacing:-0.03em;}.cls-21{letter-spacing:-0.02em;}.cls-22{letter-spacing:-0.01em;}.cls-23{letter-spacing:-0.04em;}.cls-24{letter-spacing:-0.02em;}.cls-25{letter-spacing:-0.01em;}.cls-26{letter-spacing:-0.01em;}.cls-27{letter-spacing:-0.01em;}.cls-28{fill:#00458b;}.cls-29{fill:none;stroke:#fff;}.cls-30{font-size:12px;font-family:Arial-BoldMT, Arial;font-weight:700;}.cls-31{letter-spacing:-0.06em;}.cls-32{letter-spacing:-0.01em;}.cls-33{letter-spacing:-0.01em;}.cls-34{letter-spacing:-0.02em;}.cls-35{letter-spacing:-0.01em;}.cls-36{letter-spacing:-0.02em;}.cls-37{letter-spacing:-0.05em;}</style>
  </defs>
  <g id="Layer_2" data-name="Layer 2">
    <g id="Layer_1-2" data-name="Layer 1">
      <rect class="cls-1" y="100.57" width="537" height="27"></rect>
      <text class="cls-2" transform="translate(4.5 118.01)">Lack of per<tspan class="cls-3" x="49.47" y="0">f</tspan><tspan x="52.18" y="0">ormance </tspan><tspan class="cls-4" x="93.87" y="0">(</tspan><tspan x="96.86" y="0">speed and siz</tspan><tspan class="cls-5" x="158.56" y="0">e</tspan><tspan x="163.69" y="0">) proﬁling support </tspan><tspan class="cls-6" x="243.73" y="0">(</tspan><tspan x="247.14" y="0">br</tspan><tspan class="cls-7" x="256.03" y="0">o</tspan><tspan class="cls-8" x="261.5" y="0">w</tspan><tspan x="268.62" y="0">se</tspan><tspan class="cls-9" x="279.18" y="0">r</tspan><tspan x="282.35" y="0" xml:space="preserve"> d</tspan><tspan class="cls-10" x="290.69" y="0">e</tspan><tspan class="cls-11" x="296.08" y="0">v</tspan><tspan x="300.85" y="0" xml:space="preserve"> tools o</tspan><tspan class="cls-9" x="333.09" y="0">r</tspan><tspan x="336.26" y="0" xml:space="preserve"> I</tspan><tspan class="cls-12" x="341.82" y="0">D</tspan><tspan x="348.93" y="0">E integratio</tspan><tspan class="cls-13" x="399.52" y="0">n</tspan><tspan x="404.8" y="0">)</tspan></text>
      <rect class="cls-14" y="126.57" width="628.5" height="27"></rect>
      <text class="cls-2" transform="translate(4.5 144.01)">Lack of interoperabilit<tspan class="cls-15" x="95.05" y="0">y</tspan><tspan x="99.81" y="0" xml:space="preserve"> bet</tspan><tspan class="cls-8" x="116.49" y="0">w</tspan><tspan x="123.62" y="0">een implementations</tspan></text>
      <rect class="cls-14" y="18.57" width="628.5" height="27"></rect>
      <text class="cls-2" transform="translate(4.5 36.01)">Lack of debug tooling support <tspan class="cls-6" x="133.98" y="0">(</tspan><tspan x="137.39" y="0">br</tspan><tspan class="cls-16" x="146.29" y="0">o</tspan><tspan class="cls-17" x="151.76" y="0">w</tspan><tspan x="158.88" y="0">se</tspan><tspan class="cls-18" x="169.44" y="0">r</tspan><tspan x="172.61" y="0" xml:space="preserve"> d</tspan><tspan class="cls-19" x="180.95" y="0">e</tspan><tspan class="cls-11" x="186.34" y="0">v</tspan><tspan x="191.11" y="0" xml:space="preserve"> tools o</tspan><tspan class="cls-9" x="223.35" y="0">r</tspan><tspan x="226.52" y="0" xml:space="preserve"> I</tspan><tspan class="cls-12" x="232.08" y="0">D</tspan><tspan x="239.19" y="0">E integratio</tspan><tspan class="cls-20" x="289.78" y="0">n</tspan><tspan x="295.06" y="0">)</tspan></text>
      <rect class="cls-1" y="45.57" width="628.5" height="27"></rect>
      <text class="cls-2" transform="translate(4.5 63.01)">Lack of build tooling support <tspan class="cls-21" x="127.3" y="0">(</tspan><tspan x="130.42" y="0">in Emscripten/Babel</tspan><tspan class="cls-22" x="219.36" y="0">/</tspan><tspan class="cls-17" x="221.99" y="0">w</tspan><tspan x="229.12" y="0">ebpack</tspan><tspan class="cls-23" x="261.36" y="0">/</tspan><tspan x="263.74" y="0">etc.)</tspan></text>
      <rect class="cls-14" y="72.57" width="628.5" height="27"></rect>
      <text class="cls-2" transform="translate(4.5 90.01)">Lack of br<tspan class="cls-8" x="43.91" y="0">ow</tspan><tspan x="56.49" y="0">se</tspan><tspan class="cls-24" x="67.06" y="0">r</tspan><tspan class="cls-23" x="70.19" y="0">/</tspan><tspan x="72.56" y="0">engine support </tspan><tspan class="cls-3" x="141.5" y="0">f</tspan><tspan x="144.21" y="0">o</tspan><tspan class="cls-25" x="149.77" y="0">r</tspan><tspan x="152.96" y="0" xml:space="preserve"> a g</tspan><tspan class="cls-26" x="169.63" y="0">i</tspan><tspan class="cls-18" x="171.73" y="0">v</tspan><tspan x="176.57" y="0">en language </tspan><tspan class="cls-3" x="234.4" y="0">f</tspan><tspan x="237.11" y="0">eature</tspan></text>
      <rect class="cls-1" y="153.57" width="628.5" height="27"></rect>
      <text class="cls-2" transform="translate(4.5 171.01)">Inadequate per<tspan class="cls-3" x="67.28" y="0">f</tspan><tspan x="69.99" y="0">ormance </tspan><tspan class="cls-4" x="111.67" y="0">(</tspan><tspan x="114.66" y="0">speed and siz</tspan><tspan class="cls-5" x="176.37" y="0">e</tspan><tspan x="181.49" y="0">), particula</tspan><tspan class="cls-3" x="228.18" y="0">r</tspan><tspan class="cls-27" x="231.44" y="0">l</tspan><tspan class="cls-11" x="233.54" y="0">y</tspan><tspan x="238.31" y="0" xml:space="preserve"> on l</tspan><tspan class="cls-17" x="257.21" y="0">o</tspan><tspan class="cls-24" x="262.67" y="0">w</tspan><tspan x="269.69" y="0">-end d</tspan><tspan class="cls-10" x="298.05" y="0">e</tspan><tspan x="303.44" y="0">vices</tspan></text>
      <rect class="cls-14" y="180.57" width="628.5" height="27"></rect>
      <text class="cls-2" transform="translate(4.5 198.01)">Br<tspan class="cls-16" x="10" y="0">o</tspan><tspan class="cls-17" x="15.47" y="0">w</tspan><tspan x="22.59" y="0">se</tspan><tspan class="cls-25" x="33.15" y="0">r</tspan><tspan x="36.33" y="0" xml:space="preserve"> updates causing things to break</tspan></text>
      <rect class="cls-1" y="207.57" width="628.5" height="27"></rect>
      <text class="cls-2" transform="translate(4.5 225.01)">
        <tspan class="cls-21">N</tspan>
        <tspan x="7.01" y="0">o pain points</tspan>
      </text>
      <rect class="cls-14" y="234.57" width="628.5" height="27"></rect>
      <text class="cls-2" transform="translate(4.5 252.01)">Other</text>
      <rect class="cls-28" x="445.56" y="20.07" width="87.41" height="26"></rect>
      <rect class="cls-29" x="445.56" y="20.07" width="87.41" height="26"></rect>
      <rect class="cls-28" x="445.56" y="47.07" width="75.54" height="26"></rect>
      <rect class="cls-29" x="445.56" y="47.07" width="75.54" height="26"></rect>
      <rect class="cls-28" x="445.56" y="74.07" width="74.51" height="26"></rect>
      <rect class="cls-29" x="445.56" y="74.07" width="74.51" height="26"></rect>
      <rect class="cls-28" x="445.56" y="101.07" width="50.08" height="26"></rect>
      <rect class="cls-29" x="445.56" y="101.07" width="50.08" height="26"></rect>
      <rect class="cls-28" x="445.56" y="128.07" width="37.7" height="26"></rect>
      <rect class="cls-29" x="445.56" y="128.07" width="37.7" height="26"></rect>
      <rect class="cls-28" x="445.56" y="155.07" width="36.5" height="26"></rect>
      <rect class="cls-29" x="445.56" y="155.07" width="36.5" height="26"></rect>
      <rect class="cls-28" x="445.56" y="182.07" width="31.85" height="26"></rect>
      <rect class="cls-29" x="445.56" y="182.07" width="31.85" height="26"></rect>
      <rect class="cls-28" x="445.56" y="209.07" width="31.34" height="26"></rect>
      <rect class="cls-29" x="445.56" y="209.07" width="31.34" height="26"></rect>
      <rect class="cls-28" x="445.56" y="236.07" width="23.42" height="26"></rect>
      <rect class="cls-29" x="445.56" y="236.07" width="23.42" height="26"></rect>
      <text class="cls-30" transform="translate(0 10.29)">
        <tspan class="cls-31">W</tspan>
        <tspan x="10.61" y="0">e</tspan>
        <tspan class="cls-32" x="17.28" y="0">b</tspan>
        <tspan x="24.48" y="0">Assemb</tspan>
        <tspan class="cls-33" x="71.17" y="0">l</tspan>
        <tspan class="cls-34" x="74.33" y="0">y</tspan>
        <tspan x="80.73" y="0" xml:space="preserve"> - Biggest </tspan>
        <tspan class="cls-35" x="138.73" y="0">P</tspan>
        <tspan x="146.66" y="0">ain </tspan>
        <tspan class="cls-36" x="167.33" y="0">P</tspan>
        <tspan x="175.13" y="0">oints</tspan>
      </text>
      <text class="cls-2" transform="translate(596.16 37.01)">51.4%</text>
      <text class="cls-2" transform="translate(594.62 64.01)">44.5%</text>
      <text class="cls-2" transform="translate(594.93 91.01)">43.9%</text>
      <text class="cls-2" transform="translate(595.84 118.01)">29<tspan class="cls-37" x="11.12" y="0">.</tspan><tspan x="13.41" y="0">7%</tspan></text>
      <text class="cls-2" transform="translate(595.1 145.01)">22.5%</text>
      <text class="cls-2" transform="translate(596.14 172.01)">21.8%</text>
      <text class="cls-2" transform="translate(597.51 199.01)">19.1%</text>
      <text class="cls-2" transform="translate(596.01 226.01)">1<tspan class="cls-16" x="5.56" y="0">8</tspan><tspan x="11.03" y="0">.8%</tspan></text>
      <text class="cls-2" transform="translate(596.13 253.01)">14.2%</text>
    </g>
  </g>
</svg>
