<?xml version="1.0" encoding="UTF-8"?>
<svg xmlns="http://www.w3.org/2000/svg" viewBox="0 0 628.5 181.57">
  <defs>
    <style>.cls-1{fill:#e5e5e5;}.cls-2{font-size:10px;font-family:ArialMT, Arial;}.cls-3{letter-spacing:-0.02em;}.cls-4{letter-spacing:-0.01em;}.cls-5{fill:#fff;}.cls-6{letter-spacing:-0.01em;}.cls-7{letter-spacing:-0.02em;}.cls-8{letter-spacing:-0.02em;}.cls-9{letter-spacing:-0.01em;}.cls-10{letter-spacing:-0.01em;}.cls-11{letter-spacing:-0.02em;}.cls-12{letter-spacing:-0.06em;}.cls-13{letter-spacing:-0.02em;}.cls-14{letter-spacing:-0.02em;}.cls-15{letter-spacing:-0.01em;}.cls-16{letter-spacing:-0.02em;}.cls-17{letter-spacing:-0.02em;}.cls-18{fill:#00458b;}.cls-19{fill:none;stroke:#fff;}.cls-20{font-size:12px;font-family:Arial-BoldMT, Arial;font-weight:700;}.cls-21{letter-spacing:-0.01em;}.cls-22{letter-spacing:0.01em;}.cls-23{letter-spacing:-0.02em;}.cls-24{letter-spacing:-0.01em;}.cls-25{letter-spacing:-0.04em;}.cls-26{letter-spacing:-0.01em;}.cls-27{letter-spacing:-0.05em;}</style>
  </defs>
  <g id="Layer_2" data-name="Layer 2">
    <g id="Layer_1-2" data-name="Layer 1">
      <rect class="cls-1" y="19.57" width="628.5" height="27"></rect>
      <text class="cls-2" transform="translate(4.5 37.01)">Broad interoperabilit<tspan class="cls-3" x="89.5" y="0">y</tspan><tspan x="94.26" y="0" xml:space="preserve"> across br</tspan><tspan class="cls-4" x="138.16" y="0">ow</tspan><tspan x="150.74" y="0">sers</tspan></text>
      <rect class="cls-5" y="46.57" width="628.5" height="27"></rect>
      <text class="cls-2" transform="translate(4.5 64.01)">Documentation and training</text>
      <rect class="cls-1" y="73.57" width="628.5" height="27"></rect>
      <text class="cls-2" transform="translate(4.5 91.01)">Support <tspan class="cls-6" x="37.8" y="0">f</tspan><tspan x="40.51" y="0">o</tspan><tspan class="cls-7" x="46.07" y="0">r</tspan><tspan x="49.24" y="0" xml:space="preserve"> legac</tspan><tspan class="cls-8" x="75.93" y="0">y</tspan><tspan x="80.69" y="0" xml:space="preserve"> br</tspan><tspan class="cls-9" x="92.36" y="0">o</tspan><tspan class="cls-10" x="97.83" y="0">w</tspan><tspan x="104.95" y="0">sers</tspan></text>
      <rect class="cls-5" y="100.57" width="628.5" height="27"></rect>
      <text class="cls-2" transform="translate(4.5 118.01)">Finding out about the n<tspan class="cls-9" x="102.3" y="0">e</tspan><tspan class="cls-11" x="107.77" y="0">w</tspan><tspan x="114.77" y="0" xml:space="preserve"> technology</tspan></text>
      <rect class="cls-1" y="127.57" width="628.5" height="27"></rect>
      <text class="cls-2" transform="translate(4.5 145.01)">
        <tspan class="cls-12">T</tspan>
        <tspan x="5.48" y="0">ooling support and d</tspan>
        <tspan class="cls-13" x="96.1" y="0">e</tspan>
        <tspan class="cls-14" x="101.49" y="0">v</tspan>
        <tspan x="106.25" y="0" xml:space="preserve"> ecos</tspan>
        <tspan class="cls-15" x="130.16" y="0">y</tspan>
        <tspan x="135.04" y="0">stem</tspan>
      </text>
      <rect class="cls-5" y="154.57" width="628.5" height="27"></rect>
      <text class="cls-2" transform="translate(4.5 172.01)">
        <tspan class="cls-16">N</tspan>
        <tspan x="7.01" y="0">one of the ab</tspan>
        <tspan class="cls-7" x="65.4" y="0">o</tspan>
        <tspan class="cls-17" x="70.8" y="0">v</tspan>
        <tspan x="75.63" y="0">e</tspan>
      </text>
      <rect class="cls-18" x="446" y="20.07" width="100.82" height="26"></rect>
      <rect class="cls-19" x="446" y="20.07" width="100.82" height="26"></rect>
      <rect class="cls-18" x="446" y="47.07" width="89.82" height="26"></rect>
      <rect class="cls-19" x="446" y="47.07" width="89.82" height="26"></rect>
      <rect class="cls-18" x="446" y="74.07" width="86.2" height="26"></rect>
      <rect class="cls-19" x="446" y="74.07" width="86.2" height="26"></rect>
      <rect class="cls-18" x="446" y="101.07" width="65.91" height="26"></rect>
      <rect class="cls-19" x="446" y="101.07" width="65.91" height="26"></rect>
      <rect class="cls-18" x="446" y="128.07" width="61.61" height="26"></rect>
      <rect class="cls-19" x="446" y="128.07" width="61.61" height="26"></rect>
      <rect class="cls-18" x="446" y="155.07" width="4.85" height="26"></rect>
      <rect class="cls-19" x="446" y="155.07" width="4.85" height="26"></rect>
      <text class="cls-20" transform="translate(0 10.29)">
        <tspan class="cls-21">A</tspan>
        <tspan x="8.52" y="0">doption o</tspan>
        <tspan class="cls-22" x="63.17" y="0">f</tspan>
        <tspan x="67.31" y="0"> </tspan>
        <tspan class="cls-23" x="70.64" y="0">N</tspan>
        <tspan class="cls-24" x="79.02" y="0">e</tspan>
        <tspan class="cls-23" x="85.57" y="0">w</tspan>
        <tspan x="94.62" y="0"> </tspan>
        <tspan class="cls-25" x="97.95" y="0">T</tspan>
        <tspan x="104.77" y="0">echnologies</tspan>
      </text>
      <text class="cls-2" transform="translate(594.94 37.01)">59.2%</text>
      <text class="cls-2" transform="translate(594.87 64.01)">52.8%</text>
      <text class="cls-2" transform="translate(596.42 91.01)">5<tspan class="cls-26" x="5.56" y="0">0</tspan><tspan class="cls-27" x="10.99" y="0">.</tspan><tspan x="13.29" y="0">7%</tspan></text>
      <text class="cls-2" transform="translate(595.9 118.01)">3<tspan class="cls-9" x="5.56" y="0">8</tspan><tspan x="11.03" y="0">.9%</tspan></text>
      <text class="cls-2" transform="translate(595.07 145.01)">3<tspan class="cls-26" x="5.56" y="0">6</tspan><tspan x="10.99" y="0">.4%</tspan></text>
      <text class="cls-2" transform="translate(600.24 172.01)">3.4%</text>
    </g>
  </g>
</svg>
