<?xml version="1.0" encoding="UTF-8"?>
<svg preserveAspectRatio="xMidYMid slice" width="1200px" height="675px" xmlns="http://www.w3.org/2000/svg" xmlns:xlink="http://www.w3.org/1999/xlink" viewBox="0 0 355.64 314.16">
  <defs>
    <style>.cls-1{fill:url(#linear-gradient);}.cls-2{fill:url(#linear-gradient-2);}.cls-3,.cls-7{fill:none;}.cls-4{clip-path:url(#clip-path);}.cls-5{fill:#333;}.cls-6{fill:#fff;}.cls-7{stroke:#333;stroke-miterlimit:10;stroke-width:2.26px;}.cls-8{clip-path:url(#clip-path-2);}.cls-9{mask:url(#mask);}.cls-10{fill:url(#linear-gradient-3);}.cls-11{clip-path:url(#clip-path-4);}.cls-12{mask:url(#mask-2);}.cls-13{fill:url(#linear-gradient-4);}</style>
    <linearGradient id="linear-gradient" x1="-399.45" y1="351" x2="-398.45" y2="351" gradientTransform="matrix(257.7, 0, 0, -257.7, 102964.67, 90618.5)" gradientUnits="userSpaceOnUse">
      <stop offset="0" stop-color="#fff"></stop>
      <stop offset="1" stop-color="#fff"></stop>
    </linearGradient>
    <linearGradient id="linear-gradient-2" x1="-399.45" y1="351" x2="-398.45" y2="351" gradientTransform="matrix(61.47, 0, 0, -61.47, 24850.8, 21732.24)" xlink:href="#linear-gradient"></linearGradient>
    <clipPath id="clip-path" transform="translate(-0.55 -0.55)">
      <rect class="cls-3" width="356.75" height="315.26"></rect>
    </clipPath>
    <clipPath id="clip-path-2" transform="translate(-0.55 -0.55)">
      <rect class="cls-3" x="27.47" y="73.23" width="257.7" height="187.93" rx="2.94"></rect>
    </clipPath>
    <mask id="mask" x="26.91" y="72.67" width="257.7" height="187.93" maskUnits="userSpaceOnUse">
      <g transform="translate(-0.55 -0.55)">
        <rect class="cls-1" x="27.47" y="73.23" width="257.7" height="187.93"></rect>
      </g>
    </mask>
    <linearGradient id="linear-gradient-3" x1="-399.45" y1="351" x2="-398.45" y2="351" gradientTransform="matrix(257.7, 0, 0, -257.7, 102964.11, 90617.95)" gradientUnits="userSpaceOnUse">
      <stop offset="0" stop-color="#83d0f2"></stop>
      <stop offset="1" stop-color="#8384f2"></stop>
    </linearGradient>
    <clipPath id="clip-path-4" transform="translate(-0.55 -0.55)">
      <path class="cls-3" d="M317,142.55v8.06Q321,154,324.8,157V136.15q-3.84,3-7.78,6.4m-22.3,2.68c1.22,1.18,2.37,2.39,3.56,3.61,21.51,22.3,42.86,33.54,57.91,39.16v-8.34c-14-5.63-33-16.26-52.31-36.23q-4.47-4.59-9.16-8.82Zm45.58-19.56v41.81c2.67,1.57,5.28,3,7.77,4.23V121.44c-2.49,1.26-5.1,2.66-7.77,4.23"></path>
    </clipPath>
    <mask id="mask-2" x="294.17" y="120.89" width="61.47" height="66.56" maskUnits="userSpaceOnUse">
      <g transform="translate(-0.55 -0.55)">
        <rect class="cls-2" x="294.72" y="121.44" width="61.47" height="66.56"></rect>
      </g>
    </mask>
    <linearGradient id="linear-gradient-4" x1="-399.45" y1="351" x2="-398.45" y2="351" gradientTransform="matrix(61.47, 0, 0, -61.47, 24850.25, 21731.69)" gradientUnits="userSpaceOnUse">
      <stop offset="0" stop-color="#8384f2"></stop>
      <stop offset="1" stop-color="#8384f2"></stop>
    </linearGradient>
  </defs>
  <g id="Layer_2" data-name="Layer 2">
    <g id="Layer_1-2" data-name="Layer 1">
      <g class="cls-4">
        <path class="cls-5" d="M3.31,30.56H261.49a2.76,2.76,0,0,1,2.76,2.76V178.23a2.75,2.75,0,0,1-2.76,2.75H3.31a2.76,2.76,0,0,1-2.76-2.75V33.32a2.77,2.77,0,0,1,2.76-2.76" transform="translate(-0.55 -0.55)"></path>
        <path class="cls-6" d="M23.39,42.33a8.46,8.46,0,1,1-8.46,8.46,8.46,8.46,0,0,1,8.46-8.46" transform="translate(-0.55 -0.55)"></path>
        <circle class="cls-7" cx="22.84" cy="50.24" r="8.46"></circle>
        <path class="cls-6" d="M43.13,42.33a8.46,8.46,0,1,1-8.46,8.46,8.46,8.46,0,0,1,8.46-8.46" transform="translate(-0.55 -0.55)"></path>
        <circle class="cls-7" cx="42.58" cy="50.24" r="8.46"></circle>
        <path class="cls-6" d="M62.3,42.33a8.46,8.46,0,1,1-8.46,8.46,8.46,8.46,0,0,1,8.46-8.46" transform="translate(-0.55 -0.55)"></path>
        <circle class="cls-7" cx="61.75" cy="50.24" r="8.46"></circle>
      </g>
      <g class="cls-8">
        <g class="cls-9">
          <rect class="cls-10" x="26.91" y="72.67" width="257.7" height="187.93"></rect>
        </g>
      </g>
      <g class="cls-4">
        <path class="cls-5" d="M37.76,67.65a1.17,1.17,0,0,0-1.17,1.15h0V250.86A1.16,1.16,0,0,0,37.75,252H289.58a1.15,1.15,0,0,0,1.15-1.16v-182a1.16,1.16,0,0,0-1.16-1.16ZM289.58,255.58H37.76A4.72,4.72,0,0,1,33,250.86v-182a4.72,4.72,0,0,1,4.72-4.72H289.58a4.72,4.72,0,0,1,4.72,4.72V250.86a4.72,4.72,0,0,1-4.72,4.72" transform="translate(-0.55 -0.55)"></path>
        <path class="cls-5" d="M251.38,96.17a1.33,1.33,0,1,1-1.33,1.33,1.33,1.33,0,0,1,1.33-1.33" transform="translate(-0.55 -0.55)"></path>
        <path class="cls-5" d="M260.2,96.17a1.33,1.33,0,1,1-1.32,1.33,1.33,1.33,0,0,1,1.32-1.33" transform="translate(-0.55 -0.55)"></path>
        <path class="cls-5" d="M251.38,87.35a1.33,1.33,0,0,1,0,2.65,1.33,1.33,0,1,1,0-2.65" transform="translate(-0.55 -0.55)"></path>
        <path class="cls-5" d="M260.2,87.35a1.33,1.33,0,1,1-1.32,1.32,1.32,1.32,0,0,1,1.32-1.32" transform="translate(-0.55 -0.55)"></path>
        <path class="cls-5" d="M255.79,91.76a1.33,1.33,0,1,1-1.32,1.33,1.33,1.33,0,0,1,1.32-1.33" transform="translate(-0.55 -0.55)"></path>
        <path class="cls-5" d="M247,91.76a1.33,1.33,0,1,1-1.32,1.33A1.32,1.32,0,0,1,247,91.76" transform="translate(-0.55 -0.55)"></path>
        <path class="cls-5" d="M247,82.93a1.33,1.33,0,1,1-1.32,1.33A1.33,1.33,0,0,1,247,82.93" transform="translate(-0.55 -0.55)"></path>
        <path class="cls-5" d="M242.55,96.17a1.33,1.33,0,1,1,0,2.65,1.33,1.33,0,0,1,0-2.65" transform="translate(-0.55 -0.55)"></path>
        <path class="cls-5" d="M242.55,87.35a1.33,1.33,0,1,1-1.32,1.32,1.33,1.33,0,0,1,1.32-1.32" transform="translate(-0.55 -0.55)"></path>
        <path class="cls-5" d="M251.38,78.52a1.33,1.33,0,1,1-1.33,1.33,1.32,1.32,0,0,1,1.33-1.33" transform="translate(-0.55 -0.55)"></path>
        <path class="cls-5" d="M260.2,78.52a1.33,1.33,0,1,1-1.32,1.33,1.32,1.32,0,0,1,1.32-1.33" transform="translate(-0.55 -0.55)"></path>
        <path class="cls-5" d="M242.55,78.52a1.33,1.33,0,1,1-1.32,1.33,1.33,1.33,0,0,1,1.32-1.33" transform="translate(-0.55 -0.55)"></path>
        <path class="cls-5" d="M242.55,96.17a1.33,1.33,0,1,1,0,2.65,1.33,1.33,0,0,1,0-2.65" transform="translate(-0.55 -0.55)"></path>
        <path class="cls-5" d="M233.72,87.35a1.33,1.33,0,1,1-1.32,1.32,1.32,1.32,0,0,1,1.32-1.32" transform="translate(-0.55 -0.55)"></path>
        <path class="cls-5" d="M242.55,87.35a1.33,1.33,0,1,1-1.32,1.32,1.33,1.33,0,0,1,1.32-1.32" transform="translate(-0.55 -0.55)"></path>
        <path class="cls-5" d="M238.14,91.76a1.33,1.33,0,1,1-1.33,1.33,1.32,1.32,0,0,1,1.33-1.33" transform="translate(-0.55 -0.55)"></path>
        <path class="cls-5" d="M229.31,91.76A1.33,1.33,0,1,1,228,93.09a1.33,1.33,0,0,1,1.32-1.33" transform="translate(-0.55 -0.55)"></path>
        <path class="cls-5" d="M238.14,82.93a1.33,1.33,0,1,1-1.33,1.33,1.33,1.33,0,0,1,1.33-1.33" transform="translate(-0.55 -0.55)"></path>
        <path class="cls-5" d="M229.31,82.93a1.33,1.33,0,1,1,0,2.65,1.33,1.33,0,0,1,0-2.65" transform="translate(-0.55 -0.55)"></path>
        <path class="cls-5" d="M224.9,87.35a1.33,1.33,0,0,1,0,2.65,1.33,1.33,0,1,1,0-2.65" transform="translate(-0.55 -0.55)"></path>
        <path class="cls-5" d="M233.72,78.52a1.33,1.33,0,1,1-1.32,1.33,1.32,1.32,0,0,1,1.32-1.33" transform="translate(-0.55 -0.55)"></path>
        <path class="cls-5" d="M242.55,78.52a1.33,1.33,0,1,1-1.32,1.33,1.33,1.33,0,0,1,1.32-1.33" transform="translate(-0.55 -0.55)"></path>
        <path class="cls-5" d="M224.9,78.52a1.33,1.33,0,1,1-1.33,1.33,1.32,1.32,0,0,1,1.33-1.33" transform="translate(-0.55 -0.55)"></path>
        <path class="cls-5" d="M215.7,87.35a1.33,1.33,0,1,1-1.32,1.32,1.33,1.33,0,0,1,1.32-1.32" transform="translate(-0.55 -0.55)"></path>
        <path class="cls-5" d="M224.53,87.35a1.33,1.33,0,1,1-1.32,1.32,1.32,1.32,0,0,1,1.32-1.32" transform="translate(-0.55 -0.55)"></path>
        <path class="cls-5" d="M220.12,91.76a1.33,1.33,0,1,1-1.33,1.33,1.32,1.32,0,0,1,1.33-1.33" transform="translate(-0.55 -0.55)"></path>
        <path class="cls-5" d="M211.29,91.76A1.33,1.33,0,1,1,210,93.09a1.32,1.32,0,0,1,1.32-1.33" transform="translate(-0.55 -0.55)"></path>
        <path class="cls-5" d="M220.12,82.93a1.33,1.33,0,1,1-1.33,1.33,1.33,1.33,0,0,1,1.33-1.33" transform="translate(-0.55 -0.55)"></path>
        <path class="cls-5" d="M211.29,82.93A1.33,1.33,0,1,1,210,84.26a1.33,1.33,0,0,1,1.32-1.33" transform="translate(-0.55 -0.55)"></path>
        <path class="cls-5" d="M206.88,87.35a1.33,1.33,0,0,1,0,2.65,1.33,1.33,0,1,1,0-2.65" transform="translate(-0.55 -0.55)"></path>
        <path class="cls-5" d="M215.7,78.52a1.33,1.33,0,1,1-1.32,1.33,1.33,1.33,0,0,1,1.32-1.33" transform="translate(-0.55 -0.55)"></path>
        <path class="cls-5" d="M224.53,78.52a1.33,1.33,0,1,1-1.32,1.33,1.32,1.32,0,0,1,1.32-1.33" transform="translate(-0.55 -0.55)"></path>
        <path class="cls-5" d="M206.88,78.52a1.33,1.33,0,1,1-1.33,1.33,1.32,1.32,0,0,1,1.33-1.33" transform="translate(-0.55 -0.55)"></path>
        <path class="cls-5" d="M198.05,87.35a1.33,1.33,0,1,1-1.32,1.32,1.32,1.32,0,0,1,1.32-1.32" transform="translate(-0.55 -0.55)"></path>
        <path class="cls-5" d="M206.88,87.35a1.33,1.33,0,0,1,0,2.65,1.33,1.33,0,1,1,0-2.65" transform="translate(-0.55 -0.55)"></path>
        <path class="cls-5" d="M202.46,91.76a1.33,1.33,0,1,1-1.32,1.33,1.33,1.33,0,0,1,1.32-1.33" transform="translate(-0.55 -0.55)"></path>
        <path class="cls-5" d="M193.64,91.76a1.33,1.33,0,1,1-1.33,1.33,1.32,1.32,0,0,1,1.33-1.33" transform="translate(-0.55 -0.55)"></path>
        <path class="cls-5" d="M202.46,82.93a1.33,1.33,0,1,1,0,2.65,1.33,1.33,0,0,1,0-2.65" transform="translate(-0.55 -0.55)"></path>
        <path class="cls-5" d="M193.64,82.93a1.33,1.33,0,1,1-1.33,1.33,1.33,1.33,0,0,1,1.33-1.33" transform="translate(-0.55 -0.55)"></path>
        <path class="cls-5" d="M189.22,87.35a1.33,1.33,0,1,1-1.32,1.32,1.33,1.33,0,0,1,1.32-1.32" transform="translate(-0.55 -0.55)"></path>
        <path class="cls-5" d="M198.05,78.52a1.33,1.33,0,1,1-1.32,1.33,1.32,1.32,0,0,1,1.32-1.33" transform="translate(-0.55 -0.55)"></path>
        <path class="cls-5" d="M206.88,78.52a1.33,1.33,0,1,1-1.33,1.33,1.32,1.32,0,0,1,1.33-1.33" transform="translate(-0.55 -0.55)"></path>
        <path class="cls-5" d="M189.22,78.52a1.33,1.33,0,1,1-1.32,1.33,1.33,1.33,0,0,1,1.32-1.33" transform="translate(-0.55 -0.55)"></path>
        <path class="cls-5" d="M180.4,96.17a1.33,1.33,0,1,1-1.33,1.33,1.33,1.33,0,0,1,1.33-1.33" transform="translate(-0.55 -0.55)"></path>
        <path class="cls-5" d="M180.4,87.35a1.33,1.33,0,0,1,0,2.65,1.33,1.33,0,1,1,0-2.65" transform="translate(-0.55 -0.55)"></path>
        <path class="cls-5" d="M189.22,87.35a1.33,1.33,0,1,1-1.32,1.32,1.33,1.33,0,0,1,1.32-1.32" transform="translate(-0.55 -0.55)"></path>
        <path class="cls-5" d="M184.81,91.76a1.33,1.33,0,1,1-1.32,1.33,1.32,1.32,0,0,1,1.32-1.33" transform="translate(-0.55 -0.55)"></path>
        <path class="cls-5" d="M176,91.76a1.33,1.33,0,1,1-1.32,1.33A1.33,1.33,0,0,1,176,91.76" transform="translate(-0.55 -0.55)"></path>
        <path class="cls-5" d="M184.81,82.93a1.33,1.33,0,1,1-1.32,1.33,1.33,1.33,0,0,1,1.32-1.33" transform="translate(-0.55 -0.55)"></path>
        <path class="cls-5" d="M176,82.93a1.33,1.33,0,1,1,0,2.65,1.33,1.33,0,0,1,0-2.65" transform="translate(-0.55 -0.55)"></path>
        <path class="cls-5" d="M171.57,96.17a1.33,1.33,0,1,1-1.32,1.33,1.33,1.33,0,0,1,1.32-1.33" transform="translate(-0.55 -0.55)"></path>
        <path class="cls-5" d="M171.57,87.35a1.33,1.33,0,1,1-1.32,1.32,1.32,1.32,0,0,1,1.32-1.32" transform="translate(-0.55 -0.55)"></path>
        <path class="cls-5" d="M180.4,78.52a1.33,1.33,0,1,1-1.33,1.33,1.32,1.32,0,0,1,1.33-1.33" transform="translate(-0.55 -0.55)"></path>
        <path class="cls-5" d="M189.22,78.52a1.33,1.33,0,1,1-1.32,1.33,1.33,1.33,0,0,1,1.32-1.33" transform="translate(-0.55 -0.55)"></path>
        <path class="cls-5" d="M171.57,78.52a1.33,1.33,0,1,1-1.32,1.33,1.32,1.32,0,0,1,1.32-1.33" transform="translate(-0.55 -0.55)"></path>
        <path class="cls-5" d="M162.74,96.17a1.33,1.33,0,1,1,0,2.65,1.33,1.33,0,0,1,0-2.65" transform="translate(-0.55 -0.55)"></path>
        <path class="cls-5" d="M171.57,96.17a1.33,1.33,0,1,1-1.32,1.33,1.33,1.33,0,0,1,1.32-1.33" transform="translate(-0.55 -0.55)"></path>
        <path class="cls-5" d="M162.74,87.35a1.33,1.33,0,1,1-1.32,1.32,1.33,1.33,0,0,1,1.32-1.32" transform="translate(-0.55 -0.55)"></path>
        <path class="cls-5" d="M171.57,87.35a1.33,1.33,0,1,1-1.32,1.32,1.32,1.32,0,0,1,1.32-1.32" transform="translate(-0.55 -0.55)"></path>
        <path class="cls-5" d="M167.16,91.76a1.33,1.33,0,1,1-1.33,1.33,1.32,1.32,0,0,1,1.33-1.33" transform="translate(-0.55 -0.55)"></path>
        <path class="cls-5" d="M158.33,91.76A1.33,1.33,0,1,1,157,93.09a1.32,1.32,0,0,1,1.32-1.33" transform="translate(-0.55 -0.55)"></path>
        <path class="cls-5" d="M167.16,82.93a1.33,1.33,0,1,1-1.33,1.33,1.33,1.33,0,0,1,1.33-1.33" transform="translate(-0.55 -0.55)"></path>
        <path class="cls-5" d="M158.33,82.93A1.33,1.33,0,1,1,157,84.26a1.33,1.33,0,0,1,1.32-1.33" transform="translate(-0.55 -0.55)"></path>
        <path class="cls-5" d="M153.92,96.17a1.33,1.33,0,1,1-1.33,1.33,1.33,1.33,0,0,1,1.33-1.33" transform="translate(-0.55 -0.55)"></path>
        <path class="cls-5" d="M153.92,87.35a1.33,1.33,0,0,1,0,2.65,1.33,1.33,0,1,1,0-2.65" transform="translate(-0.55 -0.55)"></path>
        <path class="cls-5" d="M162.74,78.52a1.33,1.33,0,1,1-1.32,1.33,1.33,1.33,0,0,1,1.32-1.33" transform="translate(-0.55 -0.55)"></path>
        <path class="cls-5" d="M171.57,78.52a1.33,1.33,0,1,1-1.32,1.33,1.32,1.32,0,0,1,1.32-1.33" transform="translate(-0.55 -0.55)"></path>
        <path class="cls-5" d="M153.92,78.52a1.33,1.33,0,1,1-1.33,1.33,1.32,1.32,0,0,1,1.33-1.33" transform="translate(-0.55 -0.55)"></path>
        <path class="cls-5" d="M144.72,96.17a1.33,1.33,0,1,1,0,2.65,1.33,1.33,0,0,1,0-2.65" transform="translate(-0.55 -0.55)"></path>
        <path class="cls-5" d="M153.55,96.17a1.33,1.33,0,1,1-1.33,1.33,1.33,1.33,0,0,1,1.33-1.33" transform="translate(-0.55 -0.55)"></path>
        <path class="cls-5" d="M144.72,87.35a1.33,1.33,0,1,1-1.32,1.32,1.33,1.33,0,0,1,1.32-1.32" transform="translate(-0.55 -0.55)"></path>
        <path class="cls-5" d="M153.55,87.35a1.33,1.33,0,0,1,0,2.65,1.33,1.33,0,1,1,0-2.65" transform="translate(-0.55 -0.55)"></path>
        <path class="cls-5" d="M149.13,91.76a1.33,1.33,0,1,1-1.32,1.33,1.32,1.32,0,0,1,1.32-1.33" transform="translate(-0.55 -0.55)"></path>
        <path class="cls-5" d="M140.31,91.76A1.33,1.33,0,1,1,139,93.09a1.32,1.32,0,0,1,1.33-1.33" transform="translate(-0.55 -0.55)"></path>
        <path class="cls-5" d="M149.13,82.93a1.33,1.33,0,1,1-1.32,1.33,1.33,1.33,0,0,1,1.32-1.33" transform="translate(-0.55 -0.55)"></path>
        <path class="cls-5" d="M140.31,82.93A1.33,1.33,0,1,1,139,84.26a1.33,1.33,0,0,1,1.33-1.33" transform="translate(-0.55 -0.55)"></path>
        <path class="cls-5" d="M135.89,96.17a1.33,1.33,0,1,1-1.32,1.33,1.33,1.33,0,0,1,1.32-1.33" transform="translate(-0.55 -0.55)"></path>
        <path class="cls-5" d="M135.89,87.35a1.33,1.33,0,1,1-1.32,1.32,1.32,1.32,0,0,1,1.32-1.32" transform="translate(-0.55 -0.55)"></path>
        <path class="cls-5" d="M144.72,78.52a1.33,1.33,0,1,1-1.32,1.33,1.33,1.33,0,0,1,1.32-1.33" transform="translate(-0.55 -0.55)"></path>
        <path class="cls-5" d="M153.55,78.52a1.33,1.33,0,1,1-1.33,1.33,1.32,1.32,0,0,1,1.33-1.33" transform="translate(-0.55 -0.55)"></path>
        <path class="cls-5" d="M135.89,78.52a1.33,1.33,0,1,1-1.32,1.33,1.32,1.32,0,0,1,1.32-1.33" transform="translate(-0.55 -0.55)"></path>
        <path class="cls-5" d="M82.2,118.24a1.33,1.33,0,1,1-1.32,1.33,1.32,1.32,0,0,1,1.32-1.33" transform="translate(-0.55 -0.55)"></path>
        <path class="cls-5" d="M91,118.24a1.33,1.33,0,1,1-1.33,1.33A1.32,1.32,0,0,1,91,118.24" transform="translate(-0.55 -0.55)"></path>
        <path class="cls-5" d="M82.2,109.41a1.33,1.33,0,1,1-1.32,1.33,1.33,1.33,0,0,1,1.32-1.33" transform="translate(-0.55 -0.55)"></path>
        <path class="cls-5" d="M91,109.41a1.33,1.33,0,1,1-1.33,1.33A1.33,1.33,0,0,1,91,109.41" transform="translate(-0.55 -0.55)"></path>
        <path class="cls-5" d="M86.61,113.83a1.33,1.33,0,1,1-1.32,1.32,1.33,1.33,0,0,1,1.32-1.32" transform="translate(-0.55 -0.55)"></path>
        <path class="cls-5" d="M77.79,113.83a1.33,1.33,0,1,1-1.33,1.32,1.32,1.32,0,0,1,1.33-1.32" transform="translate(-0.55 -0.55)"></path>
        <path class="cls-5" d="M86.61,105a1.33,1.33,0,1,1-1.32,1.33A1.33,1.33,0,0,1,86.61,105" transform="translate(-0.55 -0.55)"></path>
        <path class="cls-5" d="M77.79,105a1.33,1.33,0,1,1-1.33,1.33A1.32,1.32,0,0,1,77.79,105" transform="translate(-0.55 -0.55)"></path>
        <path class="cls-5" d="M73.37,118.24a1.33,1.33,0,1,1-1.32,1.33,1.33,1.33,0,0,1,1.32-1.33" transform="translate(-0.55 -0.55)"></path>
        <path class="cls-5" d="M73.37,109.41a1.33,1.33,0,1,1,0,2.65,1.33,1.33,0,0,1,0-2.65" transform="translate(-0.55 -0.55)"></path>
        <path class="cls-5" d="M82.2,100.59a1.33,1.33,0,1,1-1.32,1.32,1.32,1.32,0,0,1,1.32-1.32" transform="translate(-0.55 -0.55)"></path>
        <path class="cls-5" d="M91,100.59a1.33,1.33,0,1,1-1.33,1.32A1.32,1.32,0,0,1,91,100.59" transform="translate(-0.55 -0.55)"></path>
        <path class="cls-5" d="M73.37,100.59a1.33,1.33,0,1,1-1.32,1.32,1.33,1.33,0,0,1,1.32-1.32" transform="translate(-0.55 -0.55)"></path>
        <path class="cls-5" d="M91,135.89a1.33,1.33,0,1,1-1.33,1.33A1.33,1.33,0,0,1,91,135.89" transform="translate(-0.55 -0.55)"></path>
        <path class="cls-5" d="M91,127.07a1.33,1.33,0,1,1-1.33,1.32A1.32,1.32,0,0,1,91,127.07" transform="translate(-0.55 -0.55)"></path>
        <path class="cls-5" d="M86.61,131.48a1.33,1.33,0,1,1-1.32,1.33,1.33,1.33,0,0,1,1.32-1.33" transform="translate(-0.55 -0.55)"></path>
        <path class="cls-5" d="M77.79,131.48a1.33,1.33,0,1,1-1.33,1.33,1.32,1.32,0,0,1,1.33-1.33" transform="translate(-0.55 -0.55)"></path>
        <path class="cls-5" d="M86.61,122.65a1.33,1.33,0,1,1,0,2.65,1.33,1.33,0,0,1,0-2.65" transform="translate(-0.55 -0.55)"></path>
        <path class="cls-5" d="M77.79,122.65A1.33,1.33,0,1,1,76.46,124a1.33,1.33,0,0,1,1.33-1.33" transform="translate(-0.55 -0.55)"></path>
        <path class="cls-5" d="M73.37,135.89a1.33,1.33,0,1,1,0,2.65,1.33,1.33,0,0,1,0-2.65" transform="translate(-0.55 -0.55)"></path>
        <path class="cls-5" d="M73.37,127.07a1.33,1.33,0,1,1-1.32,1.32,1.33,1.33,0,0,1,1.32-1.32" transform="translate(-0.55 -0.55)"></path>
        <path class="cls-5" d="M82.2,118.24a1.33,1.33,0,1,1-1.32,1.33,1.32,1.32,0,0,1,1.32-1.33" transform="translate(-0.55 -0.55)"></path>
        <path class="cls-5" d="M91,118.24a1.33,1.33,0,1,1-1.33,1.33A1.32,1.32,0,0,1,91,118.24" transform="translate(-0.55 -0.55)"></path>
        <path class="cls-5" d="M73.37,118.24a1.33,1.33,0,1,1-1.32,1.33,1.33,1.33,0,0,1,1.32-1.33" transform="translate(-0.55 -0.55)"></path>
        <path class="cls-5" d="M91,153.55a1.33,1.33,0,1,1-1.33,1.32A1.32,1.32,0,0,1,91,153.55" transform="translate(-0.55 -0.55)"></path>
        <path class="cls-5" d="M91,144.72a1.33,1.33,0,1,1-1.33,1.33A1.32,1.32,0,0,1,91,144.72" transform="translate(-0.55 -0.55)"></path>
        <path class="cls-5" d="M86.61,149.13a1.33,1.33,0,1,1,0,2.65,1.33,1.33,0,0,1,0-2.65" transform="translate(-0.55 -0.55)"></path>
        <path class="cls-5" d="M77.79,149.13a1.33,1.33,0,1,1-1.33,1.33,1.33,1.33,0,0,1,1.33-1.33" transform="translate(-0.55 -0.55)"></path>
        <path class="cls-5" d="M86.61,140.31a1.33,1.33,0,1,1-1.32,1.32,1.33,1.33,0,0,1,1.32-1.32" transform="translate(-0.55 -0.55)"></path>
        <path class="cls-5" d="M77.79,140.31a1.33,1.33,0,1,1-1.33,1.32,1.32,1.32,0,0,1,1.33-1.32" transform="translate(-0.55 -0.55)"></path>
        <path class="cls-5" d="M73.37,153.55a1.33,1.33,0,1,1-1.32,1.32,1.33,1.33,0,0,1,1.32-1.32" transform="translate(-0.55 -0.55)"></path>
        <path class="cls-5" d="M73.37,144.72a1.33,1.33,0,1,1-1.32,1.33,1.33,1.33,0,0,1,1.32-1.33" transform="translate(-0.55 -0.55)"></path>
        <path class="cls-5" d="M91,135.89a1.33,1.33,0,1,1-1.33,1.33A1.33,1.33,0,0,1,91,135.89" transform="translate(-0.55 -0.55)"></path>
        <path class="cls-5" d="M73.37,135.89a1.33,1.33,0,1,1,0,2.65,1.33,1.33,0,0,1,0-2.65" transform="translate(-0.55 -0.55)"></path>
        <path class="cls-5" d="M81.83,178.19a1.33,1.33,0,1,1-1.32,1.32,1.33,1.33,0,0,1,1.32-1.32" transform="translate(-0.55 -0.55)"></path>
        <path class="cls-5" d="M90.66,178.19a1.33,1.33,0,0,1,0,2.65,1.33,1.33,0,1,1,0-2.65" transform="translate(-0.55 -0.55)"></path>
        <path class="cls-5" d="M81.83,169.36a1.33,1.33,0,1,1,0,2.65,1.33,1.33,0,0,1,0-2.65" transform="translate(-0.55 -0.55)"></path>
        <path class="cls-5" d="M90.66,169.36a1.33,1.33,0,1,1-1.33,1.33,1.33,1.33,0,0,1,1.33-1.33" transform="translate(-0.55 -0.55)"></path>
        <path class="cls-5" d="M86.24,173.78a1.32,1.32,0,1,1-1.32,1.32,1.32,1.32,0,0,1,1.32-1.32" transform="translate(-0.55 -0.55)"></path>
        <path class="cls-5" d="M77.42,173.78a1.32,1.32,0,1,1-1.33,1.32,1.32,1.32,0,0,1,1.33-1.32" transform="translate(-0.55 -0.55)"></path>
        <path class="cls-5" d="M86.24,165a1.33,1.33,0,1,1-1.32,1.32A1.32,1.32,0,0,1,86.24,165" transform="translate(-0.55 -0.55)"></path>
        <path class="cls-5" d="M77.42,165a1.33,1.33,0,0,1,0,2.65,1.33,1.33,0,1,1,0-2.65" transform="translate(-0.55 -0.55)"></path>
        <path class="cls-5" d="M73,178.19a1.33,1.33,0,1,1-1.32,1.32A1.32,1.32,0,0,1,73,178.19" transform="translate(-0.55 -0.55)"></path>
        <path class="cls-5" d="M73,169.36a1.33,1.33,0,1,1-1.32,1.33A1.33,1.33,0,0,1,73,169.36" transform="translate(-0.55 -0.55)"></path>
        <path class="cls-5" d="M81.83,160.54a1.32,1.32,0,1,1-1.32,1.32,1.33,1.33,0,0,1,1.32-1.32" transform="translate(-0.55 -0.55)"></path>
        <path class="cls-5" d="M90.66,160.54a1.32,1.32,0,1,1-1.33,1.32,1.32,1.32,0,0,1,1.33-1.32" transform="translate(-0.55 -0.55)"></path>
        <path class="cls-5" d="M73,160.54a1.32,1.32,0,1,1-1.32,1.32A1.32,1.32,0,0,1,73,160.54" transform="translate(-0.55 -0.55)"></path>
        <path class="cls-5" d="M81.83,195.48a1.32,1.32,0,1,1-1.32,1.32,1.33,1.33,0,0,1,1.32-1.32" transform="translate(-0.55 -0.55)"></path>
        <path class="cls-5" d="M90.66,195.48a1.32,1.32,0,1,1-1.33,1.32,1.32,1.32,0,0,1,1.33-1.32" transform="translate(-0.55 -0.55)"></path>
        <path class="cls-5" d="M81.83,186.65A1.33,1.33,0,1,1,80.51,188a1.33,1.33,0,0,1,1.32-1.32" transform="translate(-0.55 -0.55)"></path>
        <path class="cls-5" d="M90.66,186.65a1.33,1.33,0,0,1,0,2.65,1.33,1.33,0,1,1,0-2.65" transform="translate(-0.55 -0.55)"></path>
        <path class="cls-5" d="M86.24,191.06a1.33,1.33,0,1,1-1.32,1.33,1.32,1.32,0,0,1,1.32-1.33" transform="translate(-0.55 -0.55)"></path>
        <path class="cls-5" d="M77.42,191.06a1.33,1.33,0,1,1-1.33,1.33,1.32,1.32,0,0,1,1.33-1.33" transform="translate(-0.55 -0.55)"></path>
        <path class="cls-5" d="M86.24,182.24a1.32,1.32,0,1,1-1.32,1.32,1.32,1.32,0,0,1,1.32-1.32" transform="translate(-0.55 -0.55)"></path>
        <path class="cls-5" d="M77.42,182.24a1.32,1.32,0,1,1-1.33,1.32,1.32,1.32,0,0,1,1.33-1.32" transform="translate(-0.55 -0.55)"></path>
        <path class="cls-5" d="M73,195.48a1.32,1.32,0,1,1-1.32,1.32A1.32,1.32,0,0,1,73,195.48" transform="translate(-0.55 -0.55)"></path>
        <path class="cls-5" d="M73,186.65A1.33,1.33,0,1,1,71.68,188,1.32,1.32,0,0,1,73,186.65" transform="translate(-0.55 -0.55)"></path>
        <path class="cls-5" d="M81.83,177.82a1.33,1.33,0,1,1-1.32,1.33,1.33,1.33,0,0,1,1.32-1.33" transform="translate(-0.55 -0.55)"></path>
        <path class="cls-5" d="M90.66,177.82a1.33,1.33,0,1,1-1.33,1.33,1.32,1.32,0,0,1,1.33-1.33" transform="translate(-0.55 -0.55)"></path>
        <path class="cls-5" d="M73,177.82a1.33,1.33,0,1,1-1.32,1.33A1.32,1.32,0,0,1,73,177.82" transform="translate(-0.55 -0.55)"></path>
        <path class="cls-5" d="M130,239.24a1.33,1.33,0,1,1-1.32,1.32,1.32,1.32,0,0,1,1.32-1.32" transform="translate(-0.55 -0.55)"></path>
        <path class="cls-5" d="M121.18,239.24a1.33,1.33,0,1,1-1.32,1.32,1.33,1.33,0,0,1,1.32-1.32" transform="translate(-0.55 -0.55)"></path>
        <path class="cls-5" d="M121.18,248.07a1.33,1.33,0,1,1-1.32,1.32,1.33,1.33,0,0,1,1.32-1.32" transform="translate(-0.55 -0.55)"></path>
        <path class="cls-5" d="M125.6,243.65a1.33,1.33,0,1,1-1.33,1.33,1.33,1.33,0,0,1,1.33-1.33" transform="translate(-0.55 -0.55)"></path>
        <path class="cls-5" d="M125.6,252.48a1.33,1.33,0,1,1-1.33,1.32,1.32,1.32,0,0,1,1.33-1.32" transform="translate(-0.55 -0.55)"></path>
        <path class="cls-5" d="M134.42,252.48a1.33,1.33,0,1,1-1.32,1.32,1.33,1.33,0,0,1,1.32-1.32" transform="translate(-0.55 -0.55)"></path>
        <path class="cls-5" d="M138.84,239.24a1.33,1.33,0,1,1-1.33,1.32,1.32,1.32,0,0,1,1.33-1.32" transform="translate(-0.55 -0.55)"></path>
        <path class="cls-5" d="M138.84,248.07a1.33,1.33,0,0,1,0,2.65,1.33,1.33,0,1,1,0-2.65" transform="translate(-0.55 -0.55)"></path>
        <path class="cls-5" d="M130,256.89a1.33,1.33,0,1,1-1.32,1.33,1.33,1.33,0,0,1,1.32-1.33" transform="translate(-0.55 -0.55)"></path>
        <path class="cls-5" d="M138.84,256.89a1.33,1.33,0,1,1-1.33,1.33,1.33,1.33,0,0,1,1.33-1.33" transform="translate(-0.55 -0.55)"></path>
        <path class="cls-5" d="M156.49,239.24a1.33,1.33,0,1,1-1.32,1.32,1.32,1.32,0,0,1,1.32-1.32" transform="translate(-0.55 -0.55)"></path>
        <path class="cls-5" d="M156.49,248.07a1.33,1.33,0,1,1-1.32,1.32,1.32,1.32,0,0,1,1.32-1.32" transform="translate(-0.55 -0.55)"></path>
        <path class="cls-5" d="M147.66,256.89a1.33,1.33,0,1,1,0,2.65,1.33,1.33,0,0,1,0-2.65" transform="translate(-0.55 -0.55)"></path>
        <path class="cls-5" d="M138.84,256.89a1.33,1.33,0,1,1-1.33,1.33,1.33,1.33,0,0,1,1.33-1.33" transform="translate(-0.55 -0.55)"></path>
        <path class="cls-5" d="M156.49,256.89a1.33,1.33,0,1,1-1.32,1.33,1.33,1.33,0,0,1,1.32-1.33" transform="translate(-0.55 -0.55)"></path>
        <path class="cls-5" d="M165.32,239.24a1.33,1.33,0,1,1-1.33,1.32,1.32,1.32,0,0,1,1.33-1.32" transform="translate(-0.55 -0.55)"></path>
        <path class="cls-5" d="M156.49,239.24a1.33,1.33,0,1,1-1.32,1.32,1.32,1.32,0,0,1,1.32-1.32" transform="translate(-0.55 -0.55)"></path>
        <path class="cls-5" d="M165.32,248.07a1.33,1.33,0,0,1,0,2.65,1.33,1.33,0,1,1,0-2.65" transform="translate(-0.55 -0.55)"></path>
        <path class="cls-5" d="M156.49,248.07a1.33,1.33,0,1,1-1.32,1.32,1.32,1.32,0,0,1,1.32-1.32" transform="translate(-0.55 -0.55)"></path>
        <path class="cls-5" d="M160.9,243.65a1.33,1.33,0,1,1,0,2.65,1.33,1.33,0,0,1,0-2.65" transform="translate(-0.55 -0.55)"></path>
        <path class="cls-5" d="M169.73,243.65a1.33,1.33,0,1,1-1.32,1.33,1.33,1.33,0,0,1,1.32-1.33" transform="translate(-0.55 -0.55)"></path>
        <path class="cls-5" d="M160.9,252.48a1.33,1.33,0,1,1-1.32,1.32,1.33,1.33,0,0,1,1.32-1.32" transform="translate(-0.55 -0.55)"></path>
        <path class="cls-5" d="M169.73,252.48a1.33,1.33,0,1,1-1.32,1.32,1.32,1.32,0,0,1,1.32-1.32" transform="translate(-0.55 -0.55)"></path>
        <path class="cls-5" d="M174.14,239.24a1.33,1.33,0,1,1-1.32,1.32,1.32,1.32,0,0,1,1.32-1.32" transform="translate(-0.55 -0.55)"></path>
        <path class="cls-5" d="M174.14,248.07a1.33,1.33,0,1,1-1.32,1.32,1.32,1.32,0,0,1,1.32-1.32" transform="translate(-0.55 -0.55)"></path>
        <path class="cls-5" d="M165.32,256.89a1.33,1.33,0,1,1-1.33,1.33,1.33,1.33,0,0,1,1.33-1.33" transform="translate(-0.55 -0.55)"></path>
        <path class="cls-5" d="M156.49,256.89a1.33,1.33,0,1,1-1.32,1.33,1.33,1.33,0,0,1,1.32-1.33" transform="translate(-0.55 -0.55)"></path>
        <path class="cls-5" d="M174.14,256.89a1.33,1.33,0,1,1-1.32,1.33,1.33,1.33,0,0,1,1.32-1.33" transform="translate(-0.55 -0.55)"></path>
        <path class="cls-5" d="M173.78,267.56a1.33,1.33,0,0,1,0,2.65,1.33,1.33,0,1,1,0-2.65" transform="translate(-0.55 -0.55)"></path>
        <path class="cls-5" d="M165,267.56a1.33,1.33,0,1,1-1.32,1.32,1.32,1.32,0,0,1,1.32-1.32" transform="translate(-0.55 -0.55)"></path>
        <path class="cls-5" d="M173.78,276.39a1.32,1.32,0,1,1-1.33,1.32,1.32,1.32,0,0,1,1.33-1.32" transform="translate(-0.55 -0.55)"></path>
        <path class="cls-5" d="M169.36,272a1.33,1.33,0,1,1,0,2.65,1.33,1.33,0,0,1,0-2.65" transform="translate(-0.55 -0.55)"></path>
        <path class="cls-5" d="M169.36,280.8a1.33,1.33,0,1,1-1.32,1.32,1.33,1.33,0,0,1,1.32-1.32" transform="translate(-0.55 -0.55)"></path>
        <path class="cls-5" d="M178.19,280.8a1.33,1.33,0,1,1-1.32,1.32,1.32,1.32,0,0,1,1.32-1.32" transform="translate(-0.55 -0.55)"></path>
        <path class="cls-5" d="M182.6,267.56a1.33,1.33,0,1,1-1.32,1.32,1.33,1.33,0,0,1,1.32-1.32" transform="translate(-0.55 -0.55)"></path>
        <path class="cls-5" d="M182.6,276.39a1.32,1.32,0,1,1-1.32,1.32,1.33,1.33,0,0,1,1.32-1.32" transform="translate(-0.55 -0.55)"></path>
        <path class="cls-5" d="M173.78,285.21a1.33,1.33,0,1,1-1.33,1.33,1.33,1.33,0,0,1,1.33-1.33" transform="translate(-0.55 -0.55)"></path>
        <path class="cls-5" d="M165,285.21a1.33,1.33,0,1,1-1.32,1.33,1.33,1.33,0,0,1,1.32-1.33" transform="translate(-0.55 -0.55)"></path>
        <path class="cls-5" d="M277.86,30.71a1.33,1.33,0,0,1,0,2.65,1.33,1.33,0,1,1,0-2.65" transform="translate(-0.55 -0.55)"></path>
        <path class="cls-5" d="M269,30.71A1.33,1.33,0,1,1,267.71,32,1.33,1.33,0,0,1,269,30.71" transform="translate(-0.55 -0.55)"></path>
        <path class="cls-5" d="M273.44,35.12a1.33,1.33,0,1,1-1.32,1.33,1.33,1.33,0,0,1,1.32-1.33" transform="translate(-0.55 -0.55)"></path>
        <path class="cls-5" d="M282.27,35.12a1.33,1.33,0,1,1,0,2.65,1.33,1.33,0,0,1,0-2.65" transform="translate(-0.55 -0.55)"></path>
        <path class="cls-5" d="M277.86,39.54a1.32,1.32,0,1,1-1.33,1.32,1.32,1.32,0,0,1,1.33-1.32" transform="translate(-0.55 -0.55)"></path>
        <path class="cls-5" d="M269,39.54a1.32,1.32,0,1,1-1.32,1.32A1.33,1.33,0,0,1,269,39.54" transform="translate(-0.55 -0.55)"></path>
        <path class="cls-6" d="M253.73,41a1.33,1.33,0,1,1-1.32,1.32A1.33,1.33,0,0,1,253.73,41" transform="translate(-0.55 -0.55)"></path>
        <path class="cls-6" d="M258.14,45.42a1.33,1.33,0,1,1-1.32,1.32,1.32,1.32,0,0,1,1.32-1.32" transform="translate(-0.55 -0.55)"></path>
        <path class="cls-6" d="M253.73,49.83a1.33,1.33,0,1,1,0,2.65,1.33,1.33,0,0,1,0-2.65" transform="translate(-0.55 -0.55)"></path>
        <path class="cls-6" d="M244.9,49.83a1.33,1.33,0,1,1-1.32,1.33,1.33,1.33,0,0,1,1.32-1.33" transform="translate(-0.55 -0.55)"></path>
        <path class="cls-5" d="M182.6,285.21a1.33,1.33,0,1,1,0,2.65,1.33,1.33,0,0,1,0-2.65" transform="translate(-0.55 -0.55)"></path>
        <path class="cls-5" d="M191.43,267.56a1.33,1.33,0,1,1-1.32,1.32,1.32,1.32,0,0,1,1.32-1.32" transform="translate(-0.55 -0.55)"></path>
        <path class="cls-5" d="M182.6,267.56a1.33,1.33,0,1,1-1.32,1.32,1.33,1.33,0,0,1,1.32-1.32" transform="translate(-0.55 -0.55)"></path>
        <path class="cls-5" d="M191.43,276.39a1.32,1.32,0,1,1-1.32,1.32,1.32,1.32,0,0,1,1.32-1.32" transform="translate(-0.55 -0.55)"></path>
        <path class="cls-5" d="M182.6,276.39a1.32,1.32,0,1,1-1.32,1.32,1.33,1.33,0,0,1,1.32-1.32" transform="translate(-0.55 -0.55)"></path>
        <path class="cls-5" d="M187,272a1.33,1.33,0,1,1-1.33,1.33A1.33,1.33,0,0,1,187,272" transform="translate(-0.55 -0.55)"></path>
        <path class="cls-5" d="M195.84,272a1.33,1.33,0,1,1,0,2.65,1.33,1.33,0,0,1,0-2.65" transform="translate(-0.55 -0.55)"></path>
        <path class="cls-5" d="M187,280.8a1.33,1.33,0,1,1-1.33,1.32A1.32,1.32,0,0,1,187,280.8" transform="translate(-0.55 -0.55)"></path>
        <path class="cls-5" d="M195.84,280.8a1.33,1.33,0,1,1-1.32,1.32,1.33,1.33,0,0,1,1.32-1.32" transform="translate(-0.55 -0.55)"></path>
        <path class="cls-5" d="M200.26,267.56a1.33,1.33,0,0,1,0,2.65,1.33,1.33,0,1,1,0-2.65" transform="translate(-0.55 -0.55)"></path>
        <path class="cls-5" d="M200.26,276.39a1.32,1.32,0,1,1-1.33,1.32,1.32,1.32,0,0,1,1.33-1.32" transform="translate(-0.55 -0.55)"></path>
        <path class="cls-5" d="M191.43,285.21a1.33,1.33,0,1,1-1.32,1.33,1.33,1.33,0,0,1,1.32-1.33" transform="translate(-0.55 -0.55)"></path>
        <path class="cls-5" d="M182.6,285.21a1.33,1.33,0,1,1,0,2.65,1.33,1.33,0,0,1,0-2.65" transform="translate(-0.55 -0.55)"></path>
        <path class="cls-5" d="M209.08,267.56a1.33,1.33,0,1,1-1.32,1.32,1.33,1.33,0,0,1,1.32-1.32" transform="translate(-0.55 -0.55)"></path>
        <path class="cls-5" d="M200.26,267.56a1.33,1.33,0,0,1,0,2.65,1.33,1.33,0,1,1,0-2.65" transform="translate(-0.55 -0.55)"></path>
        <path class="cls-5" d="M209.08,276.39a1.32,1.32,0,1,1-1.32,1.32,1.33,1.33,0,0,1,1.32-1.32" transform="translate(-0.55 -0.55)"></path>
        <path class="cls-5" d="M200.26,276.39a1.32,1.32,0,1,1-1.33,1.32,1.32,1.32,0,0,1,1.33-1.32" transform="translate(-0.55 -0.55)"></path>
        <path class="cls-5" d="M204.67,272a1.33,1.33,0,1,1-1.32,1.33,1.33,1.33,0,0,1,1.32-1.33" transform="translate(-0.55 -0.55)"></path>
        <path class="cls-5" d="M204.67,280.8a1.33,1.33,0,1,1-1.32,1.32,1.32,1.32,0,0,1,1.32-1.32" transform="translate(-0.55 -0.55)"></path>
        <path class="cls-5" d="M213.5,280.8a1.33,1.33,0,1,1-1.33,1.32,1.32,1.32,0,0,1,1.33-1.32" transform="translate(-0.55 -0.55)"></path>
        <path class="cls-5" d="M217.91,267.56a1.33,1.33,0,1,1-1.32,1.32,1.32,1.32,0,0,1,1.32-1.32" transform="translate(-0.55 -0.55)"></path>
        <path class="cls-5" d="M217.91,276.39a1.32,1.32,0,1,1-1.32,1.32,1.32,1.32,0,0,1,1.32-1.32" transform="translate(-0.55 -0.55)"></path>
        <path class="cls-5" d="M209.08,285.21a1.33,1.33,0,1,1,0,2.65,1.33,1.33,0,0,1,0-2.65" transform="translate(-0.55 -0.55)"></path>
        <path class="cls-5" d="M217.91,285.21a1.33,1.33,0,1,1-1.32,1.33,1.33,1.33,0,0,1,1.32-1.33" transform="translate(-0.55 -0.55)"></path>
        <path class="cls-5" d="M226.74,267.56a1.33,1.33,0,0,1,0,2.65,1.33,1.33,0,1,1,0-2.65" transform="translate(-0.55 -0.55)"></path>
        <path class="cls-5" d="M217.91,267.56a1.33,1.33,0,1,1-1.32,1.32,1.32,1.32,0,0,1,1.32-1.32" transform="translate(-0.55 -0.55)"></path>
        <path class="cls-5" d="M226.74,276.39a1.32,1.32,0,1,1-1.33,1.32,1.32,1.32,0,0,1,1.33-1.32" transform="translate(-0.55 -0.55)"></path>
        <path class="cls-5" d="M217.91,276.39a1.32,1.32,0,1,1-1.32,1.32,1.32,1.32,0,0,1,1.32-1.32" transform="translate(-0.55 -0.55)"></path>
        <path class="cls-5" d="M222.32,272a1.33,1.33,0,1,1,0,2.65,1.33,1.33,0,0,1,0-2.65" transform="translate(-0.55 -0.55)"></path>
        <path class="cls-5" d="M231.15,272a1.33,1.33,0,1,1-1.32,1.33,1.33,1.33,0,0,1,1.32-1.33" transform="translate(-0.55 -0.55)"></path>
        <path class="cls-5" d="M222.32,280.8a1.33,1.33,0,1,1-1.32,1.32,1.33,1.33,0,0,1,1.32-1.32" transform="translate(-0.55 -0.55)"></path>
        <path class="cls-5" d="M235.56,267.56a1.33,1.33,0,1,1-1.32,1.32,1.33,1.33,0,0,1,1.32-1.32" transform="translate(-0.55 -0.55)"></path>
        <path class="cls-5" d="M235.56,276.39a1.32,1.32,0,1,1-1.32,1.32,1.33,1.33,0,0,1,1.32-1.32" transform="translate(-0.55 -0.55)"></path>
        <path class="cls-5" d="M226.74,285.21a1.33,1.33,0,1,1-1.33,1.33,1.33,1.33,0,0,1,1.33-1.33" transform="translate(-0.55 -0.55)"></path>
        <path class="cls-5" d="M217.91,285.21a1.33,1.33,0,1,1-1.32,1.33,1.33,1.33,0,0,1,1.32-1.33" transform="translate(-0.55 -0.55)"></path>
        <path class="cls-5" d="M235.56,285.21a1.33,1.33,0,1,1,0,2.65,1.33,1.33,0,0,1,0-2.65" transform="translate(-0.55 -0.55)"></path>
        <path class="cls-5" d="M244.76,267.56a1.33,1.33,0,0,1,0,2.65,1.33,1.33,0,1,1,0-2.65" transform="translate(-0.55 -0.55)"></path>
        <path class="cls-5" d="M235.93,267.56a1.33,1.33,0,1,1-1.32,1.32,1.33,1.33,0,0,1,1.32-1.32" transform="translate(-0.55 -0.55)"></path>
        <path class="cls-5" d="M244.76,276.39a1.32,1.32,0,1,1-1.33,1.32,1.32,1.32,0,0,1,1.33-1.32" transform="translate(-0.55 -0.55)"></path>
        <path class="cls-5" d="M235.93,276.39a1.32,1.32,0,1,1-1.32,1.32,1.33,1.33,0,0,1,1.32-1.32" transform="translate(-0.55 -0.55)"></path>
        <path class="cls-5" d="M240.34,272A1.33,1.33,0,1,1,239,273.3a1.33,1.33,0,0,1,1.32-1.33" transform="translate(-0.55 -0.55)"></path>
        <path class="cls-5" d="M240.34,280.8a1.33,1.33,0,1,1-1.32,1.32,1.32,1.32,0,0,1,1.32-1.32" transform="translate(-0.55 -0.55)"></path>
        <path class="cls-5" d="M249.17,280.8a1.33,1.33,0,1,1-1.32,1.32,1.33,1.33,0,0,1,1.32-1.32" transform="translate(-0.55 -0.55)"></path>
        <path class="cls-5" d="M253.58,267.56a1.33,1.33,0,1,1-1.32,1.32,1.32,1.32,0,0,1,1.32-1.32" transform="translate(-0.55 -0.55)"></path>
        <path class="cls-5" d="M253.58,276.39a1.32,1.32,0,1,1-1.32,1.32,1.32,1.32,0,0,1,1.32-1.32" transform="translate(-0.55 -0.55)"></path>
        <path class="cls-5" d="M244.76,285.21a1.33,1.33,0,1,1-1.33,1.33,1.33,1.33,0,0,1,1.33-1.33" transform="translate(-0.55 -0.55)"></path>
        <path class="cls-5" d="M235.93,285.21a1.33,1.33,0,1,1,0,2.65,1.33,1.33,0,0,1,0-2.65" transform="translate(-0.55 -0.55)"></path>
        <path class="cls-5" d="M307.28,217.17A1.33,1.33,0,1,1,306,218.5a1.33,1.33,0,0,1,1.32-1.33" transform="translate(-0.55 -0.55)"></path>
        <path class="cls-5" d="M298.45,217.17a1.33,1.33,0,1,1,0,2.65,1.33,1.33,0,0,1,0-2.65" transform="translate(-0.55 -0.55)"></path>
        <path class="cls-5" d="M307.28,226a1.33,1.33,0,1,1-1.32,1.32,1.32,1.32,0,0,1,1.32-1.32" transform="translate(-0.55 -0.55)"></path>
        <path class="cls-5" d="M298.45,226a1.33,1.33,0,1,1-1.32,1.32,1.33,1.33,0,0,1,1.32-1.32" transform="translate(-0.55 -0.55)"></path>
        <path class="cls-5" d="M302.87,221.59a1.33,1.33,0,0,1,0,2.65,1.33,1.33,0,1,1,0-2.65" transform="translate(-0.55 -0.55)"></path>
        <path class="cls-5" d="M311.69,221.59a1.33,1.33,0,1,1-1.32,1.32,1.33,1.33,0,0,1,1.32-1.32" transform="translate(-0.55 -0.55)"></path>
        <path class="cls-5" d="M302.87,230.41a1.33,1.33,0,1,1-1.33,1.33,1.33,1.33,0,0,1,1.33-1.33" transform="translate(-0.55 -0.55)"></path>
        <path class="cls-5" d="M311.69,230.41a1.33,1.33,0,1,1,0,2.65,1.33,1.33,0,0,1,0-2.65" transform="translate(-0.55 -0.55)"></path>
        <path class="cls-5" d="M316.11,217.17a1.33,1.33,0,1,1-1.33,1.33,1.33,1.33,0,0,1,1.33-1.33" transform="translate(-0.55 -0.55)"></path>
        <path class="cls-5" d="M316.11,226a1.33,1.33,0,1,1-1.33,1.32,1.32,1.32,0,0,1,1.33-1.32" transform="translate(-0.55 -0.55)"></path>
        <path class="cls-5" d="M307.28,234.83a1.33,1.33,0,1,1-1.32,1.32,1.32,1.32,0,0,1,1.32-1.32" transform="translate(-0.55 -0.55)"></path>
        <path class="cls-5" d="M298.45,234.83a1.33,1.33,0,1,1-1.32,1.32,1.33,1.33,0,0,1,1.32-1.32" transform="translate(-0.55 -0.55)"></path>
        <path class="cls-5" d="M316.11,234.83a1.33,1.33,0,0,1,0,2.65,1.33,1.33,0,1,1,0-2.65" transform="translate(-0.55 -0.55)"></path>
        <path class="cls-5" d="M307.28,199.52a1.33,1.33,0,1,1-1.32,1.32,1.32,1.32,0,0,1,1.32-1.32" transform="translate(-0.55 -0.55)"></path>
        <path class="cls-5" d="M298.45,199.52a1.33,1.33,0,1,1-1.32,1.32,1.33,1.33,0,0,1,1.32-1.32" transform="translate(-0.55 -0.55)"></path>
        <path class="cls-5" d="M307.28,208.35a1.33,1.33,0,1,1-1.32,1.32,1.32,1.32,0,0,1,1.32-1.32" transform="translate(-0.55 -0.55)"></path>
        <path class="cls-5" d="M298.45,208.35a1.33,1.33,0,1,1-1.32,1.32,1.33,1.33,0,0,1,1.32-1.32" transform="translate(-0.55 -0.55)"></path>
        <path class="cls-5" d="M302.87,203.93a1.33,1.33,0,1,1-1.33,1.33,1.33,1.33,0,0,1,1.33-1.33" transform="translate(-0.55 -0.55)"></path>
        <path class="cls-5" d="M311.69,203.93a1.33,1.33,0,1,1,0,2.65,1.33,1.33,0,0,1,0-2.65" transform="translate(-0.55 -0.55)"></path>
        <path class="cls-5" d="M302.87,212.76a1.33,1.33,0,1,1-1.33,1.32,1.32,1.32,0,0,1,1.33-1.32" transform="translate(-0.55 -0.55)"></path>
        <path class="cls-5" d="M311.69,212.76a1.33,1.33,0,1,1-1.32,1.32,1.33,1.33,0,0,1,1.32-1.32" transform="translate(-0.55 -0.55)"></path>
        <path class="cls-5" d="M316.11,199.52a1.33,1.33,0,1,1-1.33,1.32,1.32,1.32,0,0,1,1.33-1.32" transform="translate(-0.55 -0.55)"></path>
        <path class="cls-5" d="M316.11,208.35a1.33,1.33,0,0,1,0,2.65,1.33,1.33,0,1,1,0-2.65" transform="translate(-0.55 -0.55)"></path>
        <path class="cls-5" d="M307.28,217.17A1.33,1.33,0,1,1,306,218.5a1.33,1.33,0,0,1,1.32-1.33" transform="translate(-0.55 -0.55)"></path>
        <path class="cls-5" d="M298.45,217.17a1.33,1.33,0,1,1,0,2.65,1.33,1.33,0,0,1,0-2.65" transform="translate(-0.55 -0.55)"></path>
        <path class="cls-5" d="M316.11,217.17a1.33,1.33,0,1,1-1.33,1.33,1.33,1.33,0,0,1,1.33-1.33" transform="translate(-0.55 -0.55)"></path>
        <path class="cls-5" d="M307.65,174.88a1.33,1.33,0,0,1,0,2.65,1.33,1.33,0,1,1,0-2.65" transform="translate(-0.55 -0.55)"></path>
        <path class="cls-5" d="M298.82,174.88a1.33,1.33,0,1,1-1.32,1.32,1.33,1.33,0,0,1,1.32-1.32" transform="translate(-0.55 -0.55)"></path>
        <path class="cls-5" d="M307.65,183.71a1.32,1.32,0,1,1-1.33,1.32,1.32,1.32,0,0,1,1.33-1.32" transform="translate(-0.55 -0.55)"></path>
        <path class="cls-5" d="M298.82,183.71A1.32,1.32,0,1,1,297.5,185a1.33,1.33,0,0,1,1.32-1.32" transform="translate(-0.55 -0.55)"></path>
        <path class="cls-5" d="M303.23,179.29a1.33,1.33,0,1,1-1.32,1.33,1.33,1.33,0,0,1,1.32-1.33" transform="translate(-0.55 -0.55)"></path>
        <path class="cls-5" d="M312.06,179.29a1.33,1.33,0,1,1,0,2.65,1.33,1.33,0,0,1,0-2.65" transform="translate(-0.55 -0.55)"></path>
        <path class="cls-5" d="M303.23,188.12a1.33,1.33,0,1,1-1.32,1.32,1.32,1.32,0,0,1,1.32-1.32" transform="translate(-0.55 -0.55)"></path>
        <path class="cls-5" d="M312.06,188.12a1.33,1.33,0,1,1-1.32,1.32,1.33,1.33,0,0,1,1.32-1.32" transform="translate(-0.55 -0.55)"></path>
        <path class="cls-5" d="M316.47,174.88a1.33,1.33,0,1,1-1.32,1.32,1.32,1.32,0,0,1,1.32-1.32" transform="translate(-0.55 -0.55)"></path>
        <path class="cls-5" d="M316.47,183.71a1.32,1.32,0,1,1-1.32,1.32,1.32,1.32,0,0,1,1.32-1.32" transform="translate(-0.55 -0.55)"></path>
        <path class="cls-5" d="M307.65,192.53a1.33,1.33,0,1,1-1.33,1.33,1.33,1.33,0,0,1,1.33-1.33" transform="translate(-0.55 -0.55)"></path>
        <path class="cls-5" d="M298.82,192.53a1.33,1.33,0,1,1,0,2.65,1.33,1.33,0,0,1,0-2.65" transform="translate(-0.55 -0.55)"></path>
        <path class="cls-5" d="M316.47,192.53a1.33,1.33,0,1,1-1.32,1.33,1.33,1.33,0,0,1,1.32-1.33" transform="translate(-0.55 -0.55)"></path>
        <path class="cls-5" d="M307.65,157.59a1.33,1.33,0,1,1-1.33,1.33,1.33,1.33,0,0,1,1.33-1.33" transform="translate(-0.55 -0.55)"></path>
        <path class="cls-5" d="M298.82,157.59a1.33,1.33,0,1,1,0,2.65,1.33,1.33,0,0,1,0-2.65" transform="translate(-0.55 -0.55)"></path>
        <path class="cls-5" d="M307.65,166.42a1.33,1.33,0,1,1-1.33,1.32,1.32,1.32,0,0,1,1.33-1.32" transform="translate(-0.55 -0.55)"></path>
        <path class="cls-5" d="M298.82,166.42a1.33,1.33,0,1,1-1.32,1.32,1.33,1.33,0,0,1,1.32-1.32" transform="translate(-0.55 -0.55)"></path>
        <path class="cls-5" d="M303.23,162a1.33,1.33,0,1,1-1.32,1.32,1.32,1.32,0,0,1,1.32-1.32" transform="translate(-0.55 -0.55)"></path>
        <path class="cls-5" d="M312.06,162a1.33,1.33,0,1,1-1.32,1.32,1.33,1.33,0,0,1,1.32-1.32" transform="translate(-0.55 -0.55)"></path>
        <path class="cls-5" d="M303.23,170.83a1.33,1.33,0,1,1-1.32,1.33,1.33,1.33,0,0,1,1.32-1.33" transform="translate(-0.55 -0.55)"></path>
        <path class="cls-5" d="M312.06,170.83a1.33,1.33,0,1,1,0,2.65,1.33,1.33,0,0,1,0-2.65" transform="translate(-0.55 -0.55)"></path>
        <path class="cls-5" d="M316.47,157.59a1.33,1.33,0,1,1-1.32,1.33,1.33,1.33,0,0,1,1.32-1.33" transform="translate(-0.55 -0.55)"></path>
        <path class="cls-5" d="M316.47,166.42a1.33,1.33,0,1,1-1.32,1.32,1.32,1.32,0,0,1,1.32-1.32" transform="translate(-0.55 -0.55)"></path>
        <path class="cls-5" d="M307.65,175.25a1.33,1.33,0,0,1,0,2.65,1.33,1.33,0,1,1,0-2.65" transform="translate(-0.55 -0.55)"></path>
        <path class="cls-5" d="M298.82,175.25a1.33,1.33,0,1,1-1.32,1.32,1.33,1.33,0,0,1,1.32-1.32" transform="translate(-0.55 -0.55)"></path>
        <path class="cls-5" d="M316.47,175.25a1.33,1.33,0,1,1-1.32,1.32,1.32,1.32,0,0,1,1.32-1.32" transform="translate(-0.55 -0.55)"></path>
        <path class="cls-5" d="M109.05,294.41a1.33,1.33,0,0,1,0,2.65,1.33,1.33,0,1,1,0-2.65" transform="translate(-0.55 -0.55)"></path>
        <path class="cls-5" d="M109.05,303.23a1.33,1.33,0,1,1-1.33,1.33,1.33,1.33,0,0,1,1.33-1.33" transform="translate(-0.55 -0.55)"></path>
        <path class="cls-5" d="M100.22,303.23a1.33,1.33,0,1,1-1.32,1.33,1.33,1.33,0,0,1,1.32-1.33" transform="translate(-0.55 -0.55)"></path>
        <path class="cls-5" d="M104.63,298.82a1.33,1.33,0,1,1-1.32,1.33,1.33,1.33,0,0,1,1.32-1.33" transform="translate(-0.55 -0.55)"></path>
        <path class="cls-5" d="M113.46,298.82a1.33,1.33,0,1,1-1.32,1.33,1.32,1.32,0,0,1,1.32-1.33" transform="translate(-0.55 -0.55)"></path>
        <path class="cls-5" d="M113.46,307.65a1.33,1.33,0,1,1-1.32,1.32,1.32,1.32,0,0,1,1.32-1.32" transform="translate(-0.55 -0.55)"></path>
        <path class="cls-5" d="M117.87,294.41a1.33,1.33,0,1,1-1.32,1.32,1.33,1.33,0,0,1,1.32-1.32" transform="translate(-0.55 -0.55)"></path>
        <path class="cls-5" d="M109.05,312.06a1.33,1.33,0,1,1-1.33,1.33,1.32,1.32,0,0,1,1.33-1.33" transform="translate(-0.55 -0.55)"></path>
        <path class="cls-5" d="M83.67.55a1.33,1.33,0,1,1-1.32,1.33A1.32,1.32,0,0,1,83.67.55" transform="translate(-0.55 -0.55)"></path>
        <path class="cls-5" d="M83.67,9.38a1.33,1.33,0,1,1-1.32,1.32,1.32,1.32,0,0,1,1.32-1.32" transform="translate(-0.55 -0.55)"></path>
        <path class="cls-5" d="M88.08,5a1.33,1.33,0,1,1,0,2.65,1.33,1.33,0,0,1,0-2.65" transform="translate(-0.55 -0.55)"></path>
        <path class="cls-5" d="M92.5.55a1.33,1.33,0,1,1-1.33,1.33A1.32,1.32,0,0,1,92.5.55" transform="translate(-0.55 -0.55)"></path>
        <path class="cls-5" d="M92.5,9.38a1.33,1.33,0,0,1,0,2.65,1.33,1.33,0,1,1,0-2.65" transform="translate(-0.55 -0.55)"></path>
        <path class="cls-5" d="M74.84,18.21a1.32,1.32,0,1,1-1.32,1.32,1.33,1.33,0,0,1,1.32-1.32" transform="translate(-0.55 -0.55)"></path>
        <path class="cls-5" d="M92.5,18.21a1.32,1.32,0,1,1-1.33,1.32,1.32,1.32,0,0,1,1.33-1.32" transform="translate(-0.55 -0.55)"></path>
        <path class="cls-6" d="M294.3,134.27A158.19,158.19,0,0,0,260.25,111c-16.32-8.11-32.74-12.21-48.88-12.21-1.61,0-3.22,0-4.82.12-1,0-1.92.11-2.87.19-19.44,1.56-38.93,9.53-59.58,24.34a172.92,172.92,0,0,0-21,17.78c-.85.85-1.72,1.74-2.57,2.63C98.69,166.42,77.15,177,62.92,182c-15.42,5.36-25.84,5.38-25.93,5.37l-.06,7.78c.46,0,11.55,0,28.13-5.66,15.13-5.19,38-16.4,61.06-40.26.82-.85,1.65-1.7,2.47-2.51a164.66,164.66,0,0,1,20-17c19.49-14,37.69-21.47,55.68-22.92.87-.07,1.76-.12,2.64-.17,16.34-.84,33.1,3,49.84,11.28a153.31,153.31,0,0,1,37.51,27" transform="translate(-0.55 -0.55)"></path>
        <path class="cls-6" d="M239.73,229.45V118.61a68.42,68.42,0,0,0-7.78-3.83v118.5a71.93,71.93,0,0,0,7.78-3.83" transform="translate(-0.55 -0.55)"></path>
        <path class="cls-6" d="M211.38,237.62a47.88,47.88,0,0,0,5.08-.27V110.69a50.7,50.7,0,0,0-5.08-.28c-.9,0-1.8,0-2.7.09v127c.9.05,1.8.08,2.7.08" transform="translate(-0.55 -0.55)"></path>
        <path class="cls-6" d="M193.19,234.07V114a63.39,63.39,0,0,0-7.78,3.77V230.28a62.1,62.1,0,0,0,7.78,3.79" transform="translate(-0.55 -0.55)"></path>
        <path class="cls-6" d="M263,211V137.09q-3.87-4-7.78-7.36v88.59q3.91-3.39,7.78-7.37" transform="translate(-0.55 -0.55)"></path>
        <path class="cls-6" d="M169.92,219V129.09q-3.87,3.45-7.78,7.54V211.4q3.92,4.11,7.78,7.55" transform="translate(-0.55 -0.55)"></path>
        <path class="cls-6" d="M98.68,135.82v22.25q3.84-2.91,7.77-6.31v-9.61c-2.62-2.28-5.21-4.38-7.77-6.33" transform="translate(-0.55 -0.55)"></path>
        <path class="cls-6" d="M146.65,168.88V147.82c-2.66,2.05-5.24,5.27-7.78,7.49v7.18q3.8,3.33,7.78,6.39" transform="translate(-0.55 -0.55)"></path>
        <path class="cls-6" d="M75.4,121.36v51.17c2.5-1.22,5.1-2.6,7.78-4.15V125.51c-2.68-1.55-5.28-2.92-7.78-4.15" transform="translate(-0.55 -0.55)"></path>
        <path class="cls-6" d="M52.13,112.75v68.38c2.38-.59,5-1.32,7.78-2.25V115c-2.8-.92-5.4-1.66-7.78-2.25" transform="translate(-0.55 -0.55)"></path>
      </g>
      <g class="cls-11">
        <g class="cls-12">
          <rect class="cls-13" x="294.17" y="120.89" width="61.47" height="66.56"></rect>
        </g>
      </g>
      <g class="cls-4">
        <path class="cls-5" d="M20.85,81.26a1.15,1.15,0,0,0-1.17,1.15h0V264.47a1.16,1.16,0,0,0,1.16,1.16H272.66a1.16,1.16,0,0,0,1.15-1.16v-182a1.16,1.16,0,0,0-1.16-1.16ZM272.66,269.19H20.85a4.73,4.73,0,0,1-4.73-4.72v-182a4.75,4.75,0,0,1,4.73-4.73H272.66a4.73,4.73,0,0,1,4.72,4.73V264.47a4.72,4.72,0,0,1-4.72,4.72" transform="translate(-0.55 -0.55)"></path>
      </g>
      <polygon class="cls-5" points="273.27 265.02 290.19 251.47 292.71 253.25 274.94 267.69 273.27 265.02"></polygon>
      <polygon class="cls-5" points="273.27 78.19 290.19 64.64 292.71 66.42 274.94 80.86 273.27 78.19"></polygon>
      <polygon class="cls-5" points="17.29 265.02 33.84 251.1 36 253.62 18.97 267.69 17.29 265.02"></polygon>
      <g class="cls-4">
        <path class="cls-6" d="M32.92,77.69H20.85a4.75,4.75,0,0,0-4.73,4.73V181h3.56V82.42a1.15,1.15,0,0,1,1.15-1.16H32.92" transform="translate(-0.55 -0.55)"></path>
        <path class="cls-5" d="M41,273.81a1.33,1.33,0,1,1-1.33,1.33A1.33,1.33,0,0,1,41,273.81" transform="translate(-0.55 -0.55)"></path>
        <path class="cls-5" d="M45.42,278.23a1.32,1.32,0,1,1-1.32,1.32,1.33,1.33,0,0,1,1.32-1.32" transform="translate(-0.55 -0.55)"></path>
      </g>
    </g>
  </g>
</svg>
