<?xml version="1.0" encoding="UTF-8"?>
<svg xmlns="http://www.w3.org/2000/svg" viewBox="0 0 1190.36 725.54">
  <defs>
    <style>.cls-1,.cls-18,.cls-21,.cls-24{fill:#fff;}.cls-1,.cls-2{opacity:0.05;}.cls-3,.cls-7{font-size:13.42px;}.cls-10,.cls-24,.cls-3,.cls-7{font-family:ArialMT, Arial;}.cls-4{letter-spacing:-0.11em;}.cls-5{letter-spacing:-0.02em;}.cls-6{letter-spacing:-0.07em;}.cls-7,.cls-8{fill:#f96282;}.cls-19,.cls-20,.cls-22,.cls-23,.cls-9{fill:#00458b;}.cls-10{font-size:13.77px;}.cls-11{letter-spacing:-0.02em;}.cls-12{letter-spacing:-0.06em;}.cls-13{letter-spacing:-0.02em;}.cls-14{letter-spacing:0em;}.cls-15{letter-spacing:-0.06em;}.cls-16{letter-spacing:-0.04em;}.cls-17{letter-spacing:0em;}.cls-18,.cls-19,.cls-20,.cls-21,.cls-22,.cls-23{stroke:#fff;stroke-miterlimit:10;}.cls-18{stroke-width:2.75px;}.cls-19{stroke-width:1.3px;}.cls-20{stroke-width:1.3px;}.cls-21{stroke-width:2.75px;}.cls-22{stroke-width:1.28px;}.cls-23{stroke-width:1.3px;}.cls-24{font-size:10.72px;}</style>
  </defs>
  <g id="Layer_2" data-name="Layer 2">
    <g id="Document_Disciples" data-name="Document Disciples">
      <g id="barTextImportanceScores">
        <rect class="cls-1" x="0.07" y="655.12" width="1190.29" height="24.23"></rect>
        <rect class="cls-2" x="0.07" y="632.1" width="1190.29" height="24.23"></rect>
        <rect class="cls-2" x="0.07" y="582.44" width="1190.29" height="24.23"></rect>
        <rect class="cls-1" x="0.07" y="558.21" width="1190.29" height="24.23"></rect>
        <rect class="cls-2" x="0.07" y="533.98" width="1190.29" height="24.23"></rect>
        <rect class="cls-1" x="0.07" y="509.76" width="1190.29" height="24.23"></rect>
        <rect class="cls-2" x="0.07" y="485.53" width="1190.29" height="24.23"></rect>
        <rect class="cls-1" x="0.07" y="461.3" width="1190.29" height="24.23"></rect>
        <rect class="cls-2" x="0.07" y="437.07" width="1190.29" height="24.23"></rect>
        <rect class="cls-1" x="0.07" y="412.84" width="1190.29" height="24.23"></rect>
        <rect class="cls-2" x="0.07" y="388.62" width="1190.29" height="24.23"></rect>
        <rect class="cls-1" x="0.07" y="364.39" width="1190.29" height="24.23"></rect>
        <rect class="cls-2" x="0.07" y="340.16" width="1190.29" height="24.23"></rect>
        <rect class="cls-1" x="0.07" y="315.93" width="1190.29" height="24.23"></rect>
        <rect class="cls-2" x="0.07" y="291.7" width="1190.29" height="24.23"></rect>
        <rect class="cls-1" x="0.07" y="267.48" width="1190.29" height="24.23"></rect>
        <rect class="cls-2" x="0.07" y="243.25" width="1190.29" height="24.23"></rect>
        <rect class="cls-1" x="0.07" y="219.02" width="1190.29" height="24.23"></rect>
        <rect class="cls-2" x="0.07" y="194.79" width="1190.29" height="24.23"></rect>
        <rect class="cls-1" x="0.07" y="170.57" width="1190.29" height="24.23"></rect>
        <rect class="cls-2" x="0.07" y="146.34" width="1190.29" height="24.23"></rect>
        <rect class="cls-1" y="122.11" width="1190.29" height="24.23"></rect>
        <rect class="cls-2" x="0.07" y="97.88" width="1190.29" height="24.23"></rect>
        <rect class="cls-1" x="0.07" y="73.65" width="1190.29" height="24.23"></rect>
        <rect class="cls-2" x="0.07" y="49.43" width="1190.29" height="24.23"></rect>
        <rect class="cls-1" x="0.07" y="25.2" width="1190.29" height="24.23"></rect>
        <rect class="cls-2" x="0.07" y="0.97" width="1190.29" height="24.23"></rect>
        <rect class="cls-1" x="0.07" y="606.67" width="1190.29" height="24.23"></rect>
        <text class="cls-3" transform="translate(12.51 89.74)">
          <tspan class="cls-4">T</tspan>
          <tspan x="6.71" y="0">esting across browsers</tspan>
        </text>
        <text class="cls-3" transform="translate(14.51 65.52)">Making a design look/work the same across browsers</text>
        <text class="cls-3" transform="translate(14.51 41.29)">
          <tspan class="cls-5">A</tspan>
          <tspan x="8.71" y="0">voiding or removing a feature that doesn't work across browsers</tspan>
        </text>
        <text class="cls-3" transform="translate(14.51 16.73)">Having to support specific browsers (e.g., IE<tspan class="cls-6" x="262.52" y="0">1</tspan><tspan x="268.99" y="0">1)</tspan></text>
        <text class="cls-3" transform="translate(14.51 113.97)">Discovering bugs not caught during testing</text>
        <text class="cls-3" transform="translate(14.51 210.88)">Supporting multiple frameworks in the same code base</text>
        <text class="cls-3" transform="translate(14.51 186.65)">Managing user data to comply with laws and regulations</text>
        <text class="cls-3" transform="translate(14.51 162.43)">Keeping up with a large number of new and existing tools or frameworks</text>
        <text class="cls-7" transform="translate(14.51 138.2)">Outdated or inaccurate documentation for frameworks and libraries</text>
        <text class="cls-3" transform="translate(14.51 550.07)">Knowing what browsers support a specific technology</text>
        <text class="cls-3" transform="translate(14.51 525.84)">Implementing performance optimizations</text>
        <text class="cls-3" transform="translate(14.51 501.62)">Making web sites/applications accessible</text>
        <text class="cls-3" transform="translate(14.51 477.39)">Running front-end tests</text>
        <text class="cls-3" transform="translate(14.51 574.3)">Keeping up with changes to the web platform</text>
        <text class="cls-7" transform="translate(14.51 598.53)">Outdated documentation for HTML, CSS, and JavaScript</text>
        <circle class="cls-8" cx="20.81" cy="716.92" r="6.32"></circle>
        <circle class="cls-9" cx="20.81" cy="700.9" r="6.32"></circle>
        <text class="cls-10" transform="translate(31.97 721.07)">n = 899</text>
        <text class="cls-10" transform="translate(31.97 704.13)">n = 6,645</text>
        <text class="cls-3" transform="translate(14.51 671.21)">Getting users to grant permissions to <tspan class="cls-11" x="223" y="0">W</tspan><tspan x="235.42" y="0">eb</tspan><tspan class="cls-12" x="250.34" y="0"> </tspan><tspan x="253.33" y="0">APIs (e.g., Geolocation)</tspan></text>
        <text class="cls-3" transform="translate(14.51 646.98)">Implementing localization</text>
        <text class="cls-3" transform="translate(14.51 622.76)">Capability of the web to support a specified layout</text>
        <text class="cls-3" transform="translate(14.51 235.11)">Understanding and implementing security measures</text>
        <text class="cls-3" transform="translate(14.51 332.02)">Running end-to-end tests</text>
        <text class="cls-3" transform="translate(14.51 307.8)">Determining the root cause of a bug</text>
        <text class="cls-3" transform="translate(14.51 283.57)">
          <tspan class="cls-13">W</tspan>
          <tspan class="cls-14" x="12.42" y="0">orking with di</tspan>
          <tspan class="cls-5" x="90.73" y="0">f</tspan>
          <tspan x="94.22" y="0">ferent tracking protection and data storage policies in browsers</tspan>
        </text>
        <text class="cls-3" transform="translate(14.51 356.25)">Lack of<tspan class="cls-15" x="43.26" y="0"> </tspan><tspan x="46.25" y="0">APIs to take advantage of device capabilities (e.g, sensors, OS and hardware features, etc.)</tspan></text>
        <text class="cls-3" transform="translate(14.51 453.16)">Lack of support for progressive web apps (P<tspan class="cls-16" x="262.54" y="0">W</tspan><tspan class="cls-17" x="274.71" y="0">As)</tspan></text>
        <text class="cls-3" transform="translate(14.51 428.93)">Using web technologies in a native or hybrid context (e.g, using <tspan class="cls-13" x="379.66" y="0">W</tspan><tspan class="cls-14" x="392.08" y="0">eb</tspan><tspan class="cls-5" x="407.01" y="0">V</tspan><tspan x="415.72" y="0">iews, Electron, CEF)</tspan></text>
        <text class="cls-3" transform="translate(14.51 404.7)">Achieving visual precision on stylized elements (e.g., buttons)</text>
        <text class="cls-3" transform="translate(14.51 380.45)">Integrating with third parties for authentication</text>
        <text class="cls-3" transform="translate(14.51 259.34)">Pinpointing existing performance issues</text>
        <path class="cls-18" d="M1186.45,630.66H618.66V606.9h567.79Zm-566.9-.94h566V607.85h-566Z"></path>
        <rect class="cls-19" x="617.99" y="73.65" width="241" height="24.23"></rect>
        <rect class="cls-19" x="617.99" y="97.88" width="236.5" height="24.23"></rect>
        <rect class="cls-19" x="617.99" y="49.43" width="243" height="24.23"></rect>
        <rect class="cls-19" x="617.99" y="25.2" width="275" height="24.23"></rect>
        <rect class="cls-19" x="617.99" y="0.65" width="377" height="24.23"></rect>
        <rect class="cls-19" x="617.99" y="194.79" width="196.5" height="24.23"></rect>
        <rect class="cls-20" x="617.99" y="219.02" width="193.5" height="24.23"></rect>
        <rect class="cls-19" x="617.99" y="170.57" width="200.5" height="24.23"></rect>
        <rect class="cls-19" x="617.99" y="146.34" width="231.5" height="24.23"></rect>
        <rect class="cls-8" x="618.51" y="594.87" width="414.5" height="12.11"></rect>
        <rect class="cls-9" x="618.51" y="582.76" width="110.38" height="12.11"></rect>
        <path class="cls-21" d="M1188.57,145.84H618.66V122.09h569.91Zm-569-.94h568.13V123H619.55Z"></path>
        <rect class="cls-8" x="618.66" y="134.22" width="507.5" height="12.11"></rect>
        <rect class="cls-9" x="618.66" y="122.11" width="233.84" height="12.11"></rect>
        <rect class="cls-19" x="617.99" y="315.93" width="173.5" height="24.23"></rect>
        <rect class="cls-19" x="617.99" y="340.16" width="169" height="24.23"></rect>
        <rect class="cls-19" x="617.99" y="364.36" width="165.5" height="24.23"></rect>
        <rect class="cls-19" x="617.99" y="388.62" width="151" height="24.23"></rect>
        <rect class="cls-19" x="617.99" y="291.7" width="177" height="24.23"></rect>
        <rect class="cls-19" x="617.99" y="267.48" width="177.5" height="24.23"></rect>
        <rect class="cls-19" x="617.99" y="243.25" width="188" height="24.23"></rect>
        <rect class="cls-19" x="617.99" y="485.53" width="134.5" height="24.23"></rect>
        <rect class="cls-20" x="617.99" y="509.76" width="134" height="24.23"></rect>
        <rect class="cls-20" x="617.99" y="461.3" width="139.5" height="24.23"></rect>
        <rect class="cls-19" x="617.99" y="437.07" width="143" height="24.23"></rect>
        <rect class="cls-19" x="617.99" y="412.84" width="145" height="24.23"></rect>
        <rect class="cls-22" x="617.99" y="631.53" width="108.5" height="23.59"></rect>
        <rect class="cls-20" x="617.99" y="606.67" width="122.5" height="24.23"></rect>
        <rect class="cls-20" x="617.99" y="558.21" width="124" height="24.23"></rect>
        <rect class="cls-19" x="617.99" y="533.98" width="125" height="24.23"></rect>
        <rect class="cls-23" x="617.99" y="655.12" width="79.5" height="24.23"></rect>
        <text class="cls-3" transform="translate(1154.66 65.52)">4.86</text>
        <text class="cls-3" transform="translate(1154.66 89.74)">4.82</text>
        <text class="cls-3" transform="translate(1154.66 113.97)">4.73</text>
        <text class="cls-3" transform="translate(1154.66 16.73)">7.54</text>
        <text class="cls-3" transform="translate(1154.66 41.29)">5.50</text>
        <text class="cls-3" transform="translate(1154.66 186.65)">4.01</text>
        <text class="cls-3" transform="translate(1154.66 210.88)">3.93</text>
        <text class="cls-3" transform="translate(1154.66 235.11)">3.87</text>
        <text class="cls-3" transform="translate(1154.66 162.43)">4.63</text>
        <text class="cls-24" transform="translate(703.75 592.65)">2.45</text>
        <text class="cls-7" transform="translate(1152.78 597.23)">8.29</text>
        <text class="cls-24" transform="translate(827.76 131.34)">4.69</text>
        <text class="cls-7" transform="translate(1154.66 144.37)">10.15</text>
        <text class="cls-3" transform="translate(1154.66 307.8)">3.54</text>
        <text class="cls-3" transform="translate(1154.66 332.02)">3.47</text>
        <text class="cls-3" transform="translate(1154.66 356.25)">3.38</text>
        <text class="cls-3" transform="translate(1154.66 283.57)">3.55</text>
        <text class="cls-3" transform="translate(1154.66 259.34)">3.76</text>
        <text class="cls-3" transform="translate(1154.66 428.93)">2.90</text>
        <text class="cls-3" transform="translate(1154.66 453.16)">2.86</text>
        <text class="cls-3" transform="translate(1154.66 477.39)">2.79</text>
        <text class="cls-3" transform="translate(1154.66 404.71)">3.02</text>
        <text class="cls-3" transform="translate(1154.66 380.45)">3.31</text>
        <text class="cls-3" transform="translate(1154.66 550.07)">2.50</text>
        <text class="cls-3" transform="translate(1154.66 574.3)">2.48</text>
        <text class="cls-3" transform="translate(1154.66 622.42)">2.25</text>
        <text class="cls-3" transform="translate(1154.66 525.84)">2.68</text>
        <text class="cls-3" transform="translate(1154.66 501.62)">2.69</text>
        <text class="cls-3" transform="translate(1154.66 671.21)">1.59</text>
        <text class="cls-3" transform="translate(1154.66 646.98)">2.17</text>
      </g>
    </g>
  </g>
</svg>
