<?xml version="1.0" encoding="UTF-8"?>
<svg xmlns="http://www.w3.org/2000/svg" viewBox="0 0 610.91 179.53">
  <defs>
    <style>.cls-1{fill:#fff;}.cls-1,.cls-2{opacity:0.05;}.cls-3{font-size:13.42px;}.cls-3,.cls-5{font-family:ArialMT, Arial;}.cls-4{letter-spacing:-0.11em;}.cls-5{font-size:13.77px;}.cls-6,.cls-7{fill:#00458b;stroke:#fff;stroke-miterlimit:10;}.cls-6{stroke-width:1.04px;}.cls-7{stroke-width:0.42px;}</style>
  </defs>
  <g id="Layer_2" data-name="Layer 2">
    <g id="Type_of_Developer" data-name="Type of Developer">
      <g id="barTextPercentages">
        <rect class="cls-1" y="121.66" width="610.91" height="24.23"></rect>
        <rect class="cls-2" y="97.43" width="610.91" height="24.23"></rect>
        <rect class="cls-1" y="73.2" width="610.91" height="24.23"></rect>
        <rect class="cls-2" y="48.98" width="610.91" height="24.23"></rect>
        <rect class="cls-2" y="0.52" width="610.91" height="24.23"></rect>
        <rect class="cls-1" y="24.75" width="610.91" height="24.23"></rect>
        <text class="cls-3" transform="translate(14.45 16.61)">Full stack (front-end and back-end)</text>
        <text class="cls-3" transform="translate(14.45 113.52)">Other type of web developer</text>
        <text class="cls-3" transform="translate(14.45 89.29)">Back-end</text>
        <text class="cls-3" transform="translate(14.45 65.06)">Front-end (primarily CSS and HTML)</text>
        <text class="cls-3" transform="translate(14.45 40.84)">Front-end (primarily JavaScript)</text>
        <text class="cls-3" transform="translate(14.45 137.75)">
          <tspan class="cls-4">T</tspan>
          <tspan x="6.71" y="0">est Engineer</tspan>
        </text>
        <text class="cls-5" transform="translate(14.45 175.06)">n = 6645</text>
        <rect class="cls-6" x="246.76" y="0.52" width="295.5" height="24.23"></rect>
        <rect class="cls-6" x="246.76" y="97.43" width="12.5" height="24.23"></rect>
        <rect class="cls-7" x="246.76" y="121.66" width="2.6" height="24.23"></rect>
        <rect class="cls-6" x="246.76" y="73.2" width="20.5" height="24.23"></rect>
        <rect class="cls-6" x="246.76" y="48.98" width="48" height="24.23"></rect>
        <rect class="cls-6" x="246.76" y="24.75" width="121" height="24.23"></rect>
        <text class="cls-3" transform="translate(559.14 16.37)">59.1%</text>
        <text class="cls-3" transform="translate(559.14 89.05)">4.1%</text>
        <text class="cls-3" transform="translate(559.14 113.28)">2.5%</text>
        <text class="cls-3" transform="translate(559.14 137.51)">0.5%</text>
        <text class="cls-3" transform="translate(559.14 64.82)">9.6%</text>
        <text class="cls-3" transform="translate(559.14 40.6)">24.2%</text>
      </g>
    </g>
  </g>
</svg>
